<svg width="375" height="666" viewBox="0 0 375 666" fill="none" xmlns="http://www.w3.org/2000/svg">
<path d="M375 0H0V666H375V0Z" fill="#EBF5FC"/>
<mask id="mask0_4277_7620" style="mask-type:luminance" maskUnits="userSpaceOnUse" x="0" y="0" width="375" height="666">
<path d="M375 0H0V666H375V0Z" fill="white"/>
</mask>
<g mask="url(#mask0_4277_7620)">
<path d="M183.284 22.2211L185.864 22.1205C186.031 21.6904 186.291 21.8152 186.448 22.2211C187.156 21.895 188.014 21.9262 189.017 22.3113C190.083 22.4466 190.837 22.8073 191.285 23.4005C191.885 23.3554 192.857 23.4005 192.774 24.0734C194.034 24.0318 195.382 25.3013 196.274 26.1442C197.219 27.0392 198.639 28.4267 198.541 29.6338C199.472 29.8905 199.496 30.8722 199.472 31.6561C199.948 31.8469 200.201 32.277 200.236 32.9465C201.989 31.9891 203.996 31.4376 206.048 31.4272C206.389 31.6804 206.864 31.8122 207.472 31.8226C208.382 31.3751 210.482 32.114 211.389 32.6239C212.083 32.8528 212.451 33.2032 212.496 33.6749C212.666 33.7651 212.83 33.7269 212.993 33.6021C213.583 33.9004 214.788 35.1491 214.541 35.6972C215.458 35.8186 216.118 37.22 216.458 38.0039C216.798 38.7878 217.357 40.1129 216.774 40.7511C216.805 41.6183 217.625 41.934 219.225 41.6946L219.382 41.9305C220.33 41.3859 222.18 42.2011 223.194 42.6798C224.208 43.1585 225.819 43.9251 225.896 44.9622C226.698 44.8651 227.878 46.9325 227.385 47.4875C228.305 47.9592 228.33 49.5965 228.239 50.5191C228.149 51.4418 227.795 53.0409 226.83 53.3843C227.274 53.7971 226.472 54.7961 225.899 54.5637C225.91 54.8655 225.916 55.2124 225.528 55.0702C225.555 55.1569 225.576 55.2471 225.576 55.3338C225.587 55.8472 222.434 57.4497 221.597 57.2346C221.326 57.8139 219.857 58.2753 219.385 57.7654L218.861 58.1712C217.017 58.3724 215.163 58.2059 213.354 57.866L212.875 57.4289C212.816 57.4185 212.746 57.4393 212.687 57.4289C212.486 57.3873 212.139 57.311 211.944 57.2589C211.819 57.5434 211.594 57.5503 211.267 57.2797C210.521 58.3967 209.566 59.0627 208.41 59.2777C208.489 59.9437 206.562 60.8803 205.989 60.4571L205.809 60.8838C205.097 61.2411 202.864 61.8134 202.271 61.3C201.392 61.4422 200.5 61.4769 199.597 61.4041C198.743 61.8689 197.139 61.418 196.107 61.1266C194.722 60.7346 194.08 60.3947 192.962 59.635C192.944 59.6212 193.288 59.7634 192.729 59.7356C192.684 59.7356 192.642 59.7564 192.594 59.7842C192.246 60.0478 191.84 60.4051 191.479 60.6271C191.562 60.9046 191.184 61.0919 190.92 60.9636C189.691 61.6469 188.267 62.0181 187.014 62.6494C186.795 63.0622 186.663 63.0691 186.455 62.6494C186.42 63.0795 185.764 63.246 185.347 63.3362C183.628 63.7039 181.823 63.8391 180.055 63.801C179.611 63.5235 179.08 63.3639 178.455 63.3223L177.906 63.5582C176.559 63.3362 175.236 63.0205 173.941 62.6181L173.618 62.1429C173.396 62.0562 173.198 62.1117 173.021 62.2782C171.368 61.5949 169.781 60.7034 168.59 59.4755L166.715 60.0478L166.364 59.7877L165.979 60.2004C164.288 60.4745 162.562 60.5785 160.847 60.4918L160.409 60.1241C159.583 60.5161 157.517 60.1449 157.062 59.2812C155.673 58.7817 154.614 58.199 153.528 57.2589C153.031 57.3144 152.6 57.0612 152.243 56.5062C151.576 55.8194 150.441 54.2064 150.923 53.3843C150.08 52.9091 149.996 51.3274 150.014 50.429C150.031 49.5999 150.083 48.209 150.923 47.8274C151.01 47.654 150.909 47.5256 150.691 47.425C151.271 46.1693 152.159 45.0489 153.212 44.0881L153.712 44.1228L153.76 43.6337C155.187 42.6069 157.33 41.5455 159.104 41.764C159.482 41.764 160.01 41.6149 159.517 41.3963C159.364 40.7442 159.489 38.9682 160.222 38.7323C160.139 37.6223 161.038 35.6972 162.267 35.5307C162.173 35.104 162.451 34.7363 163.094 34.4311C163.885 33.8449 165.857 32.7037 166.732 33.1719L166.979 32.7765L169.149 32.5198C169.416 31.559 169.802 30.6293 170.333 29.7587L170.826 29.6373C170.927 29.4638 170.871 29.3043 170.698 29.1586C171.055 28.3885 172.347 26.6403 173.246 26.6056C174.67 25.2771 176.59 24.1358 178.455 23.4039C178.607 22.6339 179.687 22.5263 180.316 22.731C180.541 22.0858 182.833 21.6869 183.291 22.2246L183.284 22.2211Z" fill="#FDFCF7"/>
<path d="M110.608 242.507L108.028 242.407C107.861 241.977 107.601 242.101 107.444 242.507C106.736 242.181 105.878 242.212 104.875 242.598C103.809 242.733 103.056 243.094 102.608 243.687C102.007 243.642 101.035 243.687 101.118 244.36C99.8577 244.318 98.5104 245.588 97.6181 246.43C96.6736 247.325 95.2535 248.713 95.3507 249.92C94.4202 250.177 94.3958 251.158 94.4202 251.942C93.9445 252.133 93.691 252.563 93.6563 253.233C91.9028 252.275 89.8958 251.724 87.8438 251.713C87.5035 251.967 87.0278 252.098 86.4202 252.109C85.5104 251.661 83.4097 252.4 82.5035 252.91C81.8091 253.139 81.441 253.489 81.3959 253.961C81.2257 254.051 81.0625 254.013 80.8993 253.888C80.309 254.187 79.1042 255.435 79.3507 255.983C78.434 256.105 77.7743 257.506 77.434 258.29C77.0938 259.074 76.5347 260.399 77.1181 261.037C77.0868 261.905 76.2674 262.22 74.6667 261.981L74.5104 262.217C73.5625 261.672 71.7118 262.487 70.6979 262.966C69.6841 263.445 68.0729 264.211 67.9966 265.248C67.1945 265.151 66.0139 267.219 66.507 267.774C65.5868 268.245 65.5625 269.883 65.6528 270.805C65.7431 271.728 66.0972 273.327 67.0625 273.671C66.6181 274.083 67.4202 275.082 67.9931 274.85C67.9827 275.152 67.9757 275.499 68.3646 275.356C68.3368 275.443 68.316 275.533 68.316 275.62C68.3056 276.133 71.4583 277.736 72.2952 277.521C72.566 278.1 74.0347 278.562 74.507 278.052L75.0313 278.457C76.875 278.659 78.7292 278.492 80.5382 278.152L81.0174 277.715C81.0764 277.705 81.1458 277.726 81.2049 277.715C81.4063 277.674 81.7535 277.597 81.9479 277.545C82.0729 277.83 82.2986 277.837 82.625 277.566C83.3715 278.683 84.3264 279.349 85.4827 279.564C85.4028 280.23 87.3299 281.167 87.9028 280.743L88.0833 281.17C88.7952 281.527 91.0278 282.1 91.6215 281.586C92.5 281.729 93.3924 281.763 94.2952 281.69C95.1493 282.155 96.7535 281.704 97.7847 281.413C99.1702 281.021 99.8125 280.681 100.931 279.921C100.948 279.907 100.604 280.05 101.163 280.022C101.208 280.022 101.25 280.043 101.299 280.07C101.646 280.334 102.052 280.691 102.413 280.913C102.33 281.191 102.708 281.378 102.972 281.25C104.201 281.933 105.625 282.304 106.878 282.936C107.097 283.348 107.229 283.355 107.438 282.936C107.472 283.366 108.128 283.532 108.545 283.622C110.264 283.99 112.069 284.125 113.837 284.087C114.281 283.81 114.813 283.65 115.438 283.609L115.986 283.844C117.333 283.622 118.656 283.307 119.951 282.904L120.274 282.429C120.497 282.342 120.694 282.398 120.872 282.564C122.524 281.881 124.111 280.99 125.302 279.762L127.177 280.334L127.528 280.074L127.913 280.487C129.604 280.761 131.33 280.865 133.045 280.778L133.483 280.41C134.309 280.802 136.375 280.431 136.83 279.567C138.219 279.068 139.278 278.485 140.365 277.545C140.861 277.601 141.292 277.347 141.649 276.792C142.316 276.106 143.451 274.493 142.969 273.671C143.813 273.195 143.896 271.614 143.878 270.715C143.861 269.886 143.809 268.495 142.969 268.114C142.882 267.94 142.983 267.812 143.201 267.711C142.622 266.456 141.733 265.335 140.681 264.374L140.181 264.409L140.132 263.92C138.705 262.893 136.563 261.832 134.788 262.05C134.41 262.05 133.882 261.901 134.375 261.683C134.528 261.03 134.403 259.254 133.67 259.019C133.753 257.909 132.854 255.983 131.625 255.817C131.719 255.39 131.441 255.023 130.799 254.717C130.007 254.131 128.035 252.99 127.16 253.458L126.913 253.063L124.743 252.806C124.476 251.845 124.09 250.916 123.559 250.045L123.066 249.924C122.965 249.75 123.021 249.591 123.194 249.445C122.837 248.675 121.545 246.927 120.646 246.892C119.222 245.563 117.302 244.422 115.438 243.69C115.285 242.92 114.205 242.813 113.576 243.017C113.351 242.372 111.059 241.973 110.601 242.511L110.608 242.507Z" fill="#FDFCF7"/>
<path d="M4.88898 182.869L7.46884 182.768C7.63551 182.338 7.89593 182.463 8.05218 182.869C8.76051 182.543 9.61815 182.574 10.6216 182.959C11.6876 183.095 12.4411 183.455 12.889 184.048C13.4897 184.003 14.4619 184.048 14.3786 184.721C15.639 184.68 16.9862 185.949 17.8786 186.792C18.823 187.687 20.2432 189.075 20.1459 190.282C21.0765 190.538 21.1008 191.52 21.0765 192.304C21.5522 192.495 21.8057 192.925 21.8404 193.594C23.5938 192.637 25.6008 192.085 27.6529 192.075C27.9931 192.328 28.4688 192.46 29.0765 192.471C29.9862 192.023 32.0869 192.762 32.9932 193.272C33.6876 193.501 34.0557 193.851 34.1008 194.323C34.2709 194.413 34.4341 194.375 34.5973 194.25C35.1876 194.548 36.3925 195.797 36.1459 196.345C37.0626 196.467 37.7223 197.868 38.0626 198.652C38.4029 199.436 38.9619 200.761 38.3786 201.399C38.4098 202.266 39.2293 202.582 40.83 202.343L40.9862 202.578C41.9341 202.034 43.7848 202.849 44.7987 203.328C45.8126 203.806 47.4237 204.573 47.5001 205.61C48.3022 205.513 49.4827 207.58 48.9897 208.135C49.9098 208.607 49.9341 210.244 49.8438 211.167C49.7536 212.09 49.3994 213.689 48.4341 214.032C48.8786 214.445 48.0765 215.444 47.5036 215.212C47.514 215.513 47.5209 215.86 47.132 215.718C47.1598 215.805 47.1806 215.895 47.1806 215.982C47.1911 216.495 44.0383 218.098 43.2015 217.883C42.9306 218.462 41.4619 218.923 40.9897 218.413L40.4654 218.819C38.6216 219.02 36.7675 218.854 34.9584 218.514L34.4793 218.077C34.4202 218.066 34.3508 218.087 34.2918 218.077C34.0904 218.035 33.7431 217.959 33.5487 217.907C33.4237 218.191 33.198 218.198 32.8716 217.928C32.1251 219.045 31.1702 219.711 30.014 219.926C30.0938 220.592 28.1668 221.528 27.5938 221.105L27.4133 221.532C26.7015 221.889 24.4688 222.461 23.8751 221.948C22.9966 222.09 22.1043 222.125 21.2015 222.052C20.3473 222.517 18.7432 222.066 17.7119 221.775C16.3265 221.383 15.6841 221.043 14.5661 220.283C14.5487 220.269 14.8925 220.411 14.3334 220.384C14.2883 220.384 14.2466 220.404 14.198 220.432C13.8508 220.696 13.4445 221.053 13.0834 221.275C13.1668 221.553 12.7883 221.74 12.5244 221.611C11.2952 222.295 9.87162 222.666 8.61815 223.297C8.3994 223.71 8.26745 223.717 8.05912 223.297C8.0244 223.727 7.36815 223.894 6.95148 223.984C5.23273 224.352 3.42718 224.487 1.65981 224.449C1.21537 224.171 0.684122 224.012 0.0591221 223.97L-0.489489 224.206C-1.83671 223.984 -3.15963 223.668 -4.45477 223.266L-4.77768 222.791C-4.9999 222.704 -5.19782 222.76 -5.37491 222.926C-7.02768 222.243 -8.61449 221.351 -9.80546 220.123L-11.6805 220.696L-12.0312 220.436L-12.4166 220.848C-14.1075 221.122 -15.8332 221.226 -17.5485 221.14L-17.986 220.772C-18.8124 221.164 -20.8784 220.793 -21.3332 219.929C-22.7221 219.43 -23.7812 218.847 -24.868 217.907C-25.3645 217.962 -25.795 217.709 -26.1527 217.154C-26.8193 216.467 -27.9548 214.854 -27.4721 214.032C-28.3159 213.557 -28.3992 211.975 -28.3818 211.077C-28.3645 210.248 -28.3124 208.857 -27.4721 208.475C-27.3853 208.302 -27.486 208.174 -27.7048 208.073C-27.1249 206.817 -26.236 205.697 -25.1839 204.736L-24.6839 204.771L-24.6353 204.282C-23.2082 203.255 -21.0659 202.193 -19.2916 202.412C-18.9131 202.412 -18.3853 202.263 -18.8784 202.044C-19.0312 201.392 -18.9062 199.616 -18.1735 199.38C-18.2569 198.27 -17.3575 196.345 -16.1284 196.179C-16.2221 195.752 -15.9443 195.384 -15.302 195.079C-14.5103 194.493 -12.5381 193.352 -11.6631 193.82L-11.4166 193.424L-9.24643 193.168C-8.97907 192.207 -8.59366 191.277 -8.06241 190.407L-7.56935 190.285C-7.46865 190.112 -7.52421 189.952 -7.69782 189.807C-7.34018 189.036 -6.04852 187.288 -5.14921 187.254C-3.7256 185.925 -1.80546 184.784 0.0591221 184.052C0.211901 183.282 1.29176 183.174 1.92023 183.379C2.14593 182.734 4.4376 182.335 4.89593 182.873L4.88898 182.869Z" fill="#FDFCF7"/>
<path d="M167.659 312.555L170.239 312.455C170.406 312.024 170.666 312.149 170.823 312.555C171.531 312.229 172.389 312.26 173.392 312.645C174.458 312.781 175.212 313.141 175.659 313.735C176.26 313.689 177.232 313.735 177.149 314.408C178.409 314.366 179.757 315.635 180.649 316.478C181.594 317.373 183.014 318.761 182.916 319.968C183.847 320.225 183.871 321.206 183.847 321.99C184.323 322.181 184.576 322.611 184.611 323.281C186.364 322.323 188.371 321.772 190.423 321.761C190.764 322.014 191.239 322.146 191.847 322.157C192.757 321.709 194.857 322.448 195.764 322.958C196.458 323.187 196.826 323.537 196.871 324.009C197.041 324.099 197.205 324.061 197.368 323.936C197.958 324.234 199.163 325.483 198.916 326.031C199.833 326.153 200.493 327.554 200.833 328.338C201.173 329.122 201.732 330.447 201.149 331.085C201.18 331.952 202 332.268 203.6 332.029L203.757 332.265C204.705 331.72 206.555 332.535 207.569 333.014C208.583 333.493 210.194 334.259 210.271 335.296C211.073 335.199 212.253 337.267 211.76 337.822C212.68 338.293 212.705 339.931 212.614 340.853C212.524 341.776 212.17 343.375 211.205 343.718C211.649 344.131 210.847 345.13 210.274 344.898C210.284 345.2 210.291 345.546 209.903 345.404C209.93 345.491 209.951 345.581 209.951 345.668C209.962 346.181 206.809 347.784 205.972 347.569C205.701 348.148 204.232 348.609 203.76 348.099L203.236 348.505C201.392 348.707 199.538 348.54 197.729 348.2L197.25 347.763C197.191 347.753 197.121 347.773 197.062 347.763C196.861 347.721 196.514 347.645 196.319 347.593C196.194 347.877 195.969 347.884 195.642 347.614C194.896 348.731 193.941 349.397 192.784 349.612C192.864 350.278 190.937 351.214 190.364 350.791L190.184 351.218C189.472 351.575 187.239 352.148 186.646 351.634C185.767 351.776 184.875 351.811 183.972 351.738C183.118 352.203 181.514 351.752 180.482 351.461C179.097 351.069 178.455 350.729 177.337 349.969C177.319 349.955 177.663 350.097 177.104 350.07C177.059 350.07 177.017 350.091 176.969 350.118C176.621 350.382 176.215 350.739 175.854 350.961C175.937 351.239 175.559 351.426 175.295 351.298C174.066 351.981 172.642 352.352 171.389 352.983C171.17 353.396 171.038 353.403 170.83 352.983C170.795 353.414 170.139 353.58 169.722 353.67C168.003 354.038 166.198 354.173 164.43 354.135C163.986 353.858 163.455 353.698 162.83 353.656L162.281 353.892C160.934 353.67 159.611 353.355 158.316 352.952L157.993 352.477C157.771 352.39 157.573 352.446 157.396 352.612C155.743 351.929 154.156 351.038 152.965 349.81L151.09 350.382L150.739 350.122L150.354 350.535C148.663 350.809 146.937 350.913 145.222 350.826L144.784 350.458C143.958 350.85 141.892 350.479 141.437 349.615C140.048 349.116 138.989 348.533 137.903 347.593C137.406 347.649 136.975 347.395 136.618 346.84C135.951 346.153 134.816 344.541 135.298 343.718C134.455 343.243 134.371 341.661 134.389 340.763C134.406 339.934 134.458 338.543 135.298 338.161C135.385 337.988 135.284 337.86 135.066 337.759C135.646 336.503 136.534 335.383 137.587 334.422L138.087 334.457L138.135 333.968C139.562 332.941 141.705 331.88 143.479 332.098C143.857 332.098 144.385 331.949 143.892 331.73C143.739 331.078 143.864 329.302 144.597 329.066C144.514 327.956 145.413 326.031 146.642 325.865C146.548 325.438 146.826 325.07 147.469 324.765C148.26 324.179 150.232 323.038 151.107 323.506L151.354 323.111L153.524 322.854C153.791 321.893 154.177 320.963 154.708 320.093L155.201 319.971C155.302 319.798 155.246 319.638 155.073 319.493C155.43 318.723 156.722 316.974 157.621 316.94C159.045 315.611 160.965 314.47 162.83 313.738C162.982 312.968 164.062 312.86 164.691 313.065C164.916 312.42 167.208 312.021 167.666 312.559L167.659 312.555Z" fill="#FDFCF7"/>
<path d="M270.784 284.458L273.364 284.358C273.531 283.928 273.791 284.052 273.948 284.458C274.656 284.132 275.514 284.163 276.517 284.548C277.583 284.684 278.337 285.044 278.785 285.638C279.385 285.593 280.357 285.638 280.274 286.311C281.534 286.269 282.882 287.539 283.774 288.381C284.719 289.276 286.139 290.664 286.041 291.871C286.972 292.128 286.996 293.109 286.972 293.893C287.448 294.084 287.701 294.514 287.736 295.184C289.489 294.226 291.496 293.675 293.548 293.664C293.889 293.918 294.364 294.049 294.972 294.06C295.882 293.612 297.982 294.351 298.889 294.861C299.583 295.09 299.951 295.44 299.996 295.912C300.166 296.002 300.33 295.964 300.493 295.839C301.083 296.138 302.288 297.386 302.041 297.934C302.958 298.056 303.618 299.457 303.958 300.241C304.298 301.025 304.857 302.35 304.274 302.988C304.305 303.856 305.125 304.171 306.725 303.932L306.882 304.168C307.83 303.623 309.68 304.438 310.694 304.917C311.684 305.385 313.319 306.162 313.396 307.199C314.198 307.102 315.378 309.17 314.885 309.725C315.805 310.196 315.83 311.834 315.739 312.756C315.649 313.679 315.295 315.278 314.33 315.622C314.774 316.034 313.972 317.033 313.399 316.801C313.41 317.103 313.416 317.45 313.028 317.307C313.055 317.394 313.076 317.484 313.076 317.571C313.087 318.084 309.934 319.687 309.097 319.472C308.826 320.051 307.357 320.512 306.885 320.003L306.361 320.408C304.517 320.61 302.663 320.443 300.854 320.103L300.375 319.666C300.316 319.656 300.246 319.676 300.187 319.666C299.986 319.624 299.639 319.548 299.444 319.496C299.319 319.781 299.094 319.787 298.767 319.517C298.021 320.634 297.066 321.3 295.91 321.515C295.989 322.181 294.062 323.117 293.489 322.694L293.309 323.121C292.597 323.478 290.364 324.051 289.771 323.537C288.892 323.679 288 323.714 287.097 323.641C286.243 324.106 284.639 323.655 283.607 323.364C282.222 322.972 281.58 322.632 280.462 321.872C280.444 321.858 280.788 322.001 280.229 321.973C280.184 321.973 280.142 321.994 280.094 322.021C279.746 322.285 279.34 322.642 278.979 322.864C279.062 323.142 278.684 323.329 278.42 323.201C277.191 323.884 275.767 324.255 274.514 324.887C274.295 325.299 274.163 325.306 273.955 324.887C273.92 325.317 273.264 325.483 272.847 325.573C271.128 325.941 269.323 326.076 267.555 326.038C267.111 325.761 266.58 325.601 265.955 325.559L265.406 325.795C264.059 325.573 262.736 325.258 261.441 324.855L261.118 324.38C260.896 324.293 260.698 324.349 260.521 324.515C258.868 323.832 257.281 322.941 256.09 321.713L254.215 322.285L253.864 322.025L253.479 322.438C251.788 322.712 250.062 322.816 248.347 322.729L247.909 322.361C247.083 322.753 245.017 322.382 244.562 321.518C243.173 321.019 242.114 320.436 241.028 319.496C240.531 319.552 240.1 319.298 239.743 318.743C239.076 318.057 237.941 316.444 238.423 315.622C237.58 315.146 237.496 313.565 237.514 312.666C237.531 311.837 237.583 310.446 238.423 310.065C238.51 309.891 238.409 309.763 238.191 309.662C238.771 308.407 239.659 307.286 240.712 306.325L241.212 306.36L241.26 305.871C242.687 304.844 244.83 303.783 246.604 304.001C246.982 304.001 247.51 303.852 247.017 303.634C246.864 302.981 246.989 301.205 247.722 300.97C247.639 299.86 248.538 297.934 249.767 297.768C249.673 297.341 249.951 296.974 250.594 296.668C251.385 296.082 253.357 294.941 254.232 295.409L254.479 295.014L256.649 294.757C256.916 293.796 257.302 292.867 257.833 291.996L258.326 291.874C258.427 291.701 258.371 291.541 258.198 291.396C258.555 290.626 259.847 288.877 260.746 288.843C262.17 287.514 264.09 286.373 265.955 285.641C266.107 284.871 267.187 284.764 267.816 284.968C268.041 284.323 270.333 283.924 270.791 284.462L270.784 284.458Z" fill="#FDFCF7"/>
<path d="M104.49 84.7899C105.886 84.8801 106.115 85.0848 107.188 85.5427C107.598 85.1611 107.782 85.1923 107.809 85.73C108.264 85.4143 109.875 85.834 109.677 86.4827L110.32 86.3821C111.636 86.9648 113.969 88.5952 114.243 89.8682C115.139 89.7988 116.184 91.2696 115.903 91.9356L116.563 92.2027C117.677 93.8885 118.348 95.7547 118.629 97.6972C119.511 97.3364 120.459 97.1318 121.42 97.0416L121.924 97.3815C123.264 96.5421 125.861 97.274 127.323 97.8949C130.427 99.213 132.379 101.922 133.202 104.877C132.938 105.027 132.83 105.217 132.927 105.464C133.368 105.953 134.073 106.209 135.035 106.23C135.945 106.31 136.486 106.619 136.663 107.156C137.653 106.799 138.907 108.166 139.483 108.898C140.059 109.63 141.077 111.132 140.4 111.857C140.893 114.517 139.736 116.893 137.285 118.433C137.476 118.961 137.125 119.179 136.663 118.808C133.618 120.289 132.236 119.523 129.396 119.935C128.809 120.858 126.983 121.989 125.841 122.388C124.698 122.787 123.163 123.303 121.973 123.29C121.868 123.29 121.768 123.175 121.663 123.029C120.698 123.123 119.747 123.095 118.806 122.943C117.389 122.766 115.973 122.499 114.653 122.003L114.174 122.221C113.261 121.854 112.455 121.33 111.709 120.761C110.615 122.037 109.177 123.054 107.657 123.886L107.181 123.695C105.948 124.299 104.393 124.74 103.028 125.01C102.368 125.756 100.386 125.974 99.5836 125.485C98.7815 125.551 97.9933 125.52 97.2156 125.385C95.8371 125.7 92.4413 126.061 92.1531 124.601C90.594 123.987 89.16 123.192 87.8545 122.218L85.6045 123.016L85.1739 122.755L84.726 123.255C82.5281 123.741 80.2329 123.879 77.9899 123.591L77.4899 123.13C76.9586 123.747 74.91 122.755 74.1426 122.377C73.7503 122.183 73.3961 122.003 73.0315 121.763C72.2052 120.889 71.2676 120.216 70.2225 119.748C69.2885 120.466 67.1878 120.372 65.9065 120.279C64.5176 120.348 63.4656 120.046 62.7503 119.373C62.2989 119.845 60.9933 119.217 61.0906 118.621C59.3753 118.35 58.1357 117.126 57.2503 115.828C56.5628 114.822 55.5003 112.835 56.3163 111.853C56.1426 111.753 55.9482 111.638 55.8996 111.465C55.4795 110.018 58.0177 105.308 60.0524 105.273L60.0871 104.787C60.8232 104.166 62.5628 103.417 63.3753 103.767L63.5732 103.466C64.8058 103.067 66.1322 102.918 67.5489 103.022C67.8093 101.402 68.5489 99.0188 70.2295 98.3181C70.5177 97.0554 72.2156 96.268 73.4551 95.7408C74.5628 95.2656 76.7572 94.4053 77.7017 95.1234L78.2642 94.7453C79.3024 94.7591 80.3267 94.9256 81.3267 95.1754C82.5489 95.4806 84.4586 95.9905 84.969 97.0034C85.2225 96.5455 85.3579 95.9558 85.3753 95.2309C85.66 94.1798 86.3614 92.279 87.4621 91.9286C87.5489 91.7101 87.535 91.4916 87.4308 91.2765C88.6288 89.6774 90.1739 88.3073 91.9308 87.2111L92.6531 87.2319C93.0176 86.3023 94.7156 85.6814 95.7746 85.3588C96.7677 85.057 97.851 84.8489 98.8822 84.9773C98.8683 84.4188 99.8649 84.2939 100.07 84.8108L100.545 84.7899L100.858 84.3945C101.566 84.2315 104.143 84.1933 104.49 84.7899Z" fill="#FDFCF7"/>
<path d="M346.819 114.417C348.215 114.507 348.444 114.712 349.517 115.169C349.927 114.788 350.111 114.819 350.139 115.357C350.594 115.041 352.205 115.461 352.007 116.11L352.649 116.009C353.965 116.592 356.299 118.222 356.573 119.495C357.469 119.426 358.514 120.896 358.233 121.562L358.892 121.829C360.007 123.515 360.677 125.381 360.958 127.324C361.84 126.963 362.788 126.759 363.75 126.668L364.253 127.008C365.594 126.169 368.191 126.901 369.653 127.522C372.757 128.84 374.708 131.549 375.531 134.504C375.267 134.653 375.16 134.844 375.257 135.091C375.698 135.58 376.403 135.836 377.365 135.857C378.274 135.937 378.816 136.246 378.993 136.783C379.983 136.426 381.236 137.793 381.813 138.525C382.389 139.256 383.406 140.758 382.729 141.483C383.222 144.144 382.066 146.52 379.615 148.06C379.806 148.587 379.455 148.806 378.993 148.435C375.948 149.916 374.566 149.149 371.726 149.562C371.139 150.485 369.313 151.616 368.17 152.015C367.028 152.413 365.493 152.93 364.302 152.916C364.198 152.916 364.097 152.802 363.993 152.656C363.028 152.75 362.076 152.722 361.135 152.57C359.719 152.393 358.302 152.126 356.983 151.63L356.503 151.848C355.59 151.48 354.785 150.957 354.038 150.388C352.944 151.664 351.507 152.681 349.986 153.513L349.51 153.322C348.278 153.926 346.722 154.366 345.358 154.637C344.698 155.383 342.715 155.601 341.913 155.112C341.111 155.178 340.323 155.147 339.545 155.012C338.167 155.327 334.771 155.688 334.483 154.228C332.924 153.614 331.49 152.819 330.184 151.845L327.934 152.642L327.503 152.382L327.056 152.882C324.858 153.367 322.563 153.506 320.319 153.218L319.819 152.757C319.288 153.374 317.24 152.382 316.472 152.004C316.08 151.81 315.726 151.63 315.361 151.39C314.535 150.516 313.597 149.843 312.552 149.375C311.618 150.093 309.517 149.999 308.236 149.906C306.847 149.975 305.795 149.673 305.08 149C304.628 149.472 303.323 148.844 303.42 148.247C301.705 147.977 300.465 146.752 299.58 145.455C298.892 144.449 297.83 142.462 298.646 141.48C298.472 141.379 298.278 141.265 298.229 141.091C297.809 139.645 300.347 134.934 302.382 134.9L302.417 134.414C303.153 133.793 304.892 133.044 305.705 133.394L305.903 133.093C307.135 132.694 308.462 132.544 309.878 132.649C310.139 131.029 310.878 128.646 312.559 127.945C312.847 126.682 314.545 125.895 315.785 125.368C316.892 124.892 319.087 124.032 320.031 124.75L320.594 124.372C321.632 124.386 322.656 124.552 323.656 124.802C324.878 125.107 326.788 125.617 327.299 126.63C327.552 126.172 327.688 125.583 327.705 124.858C327.99 123.807 328.691 121.906 329.792 121.555C329.878 121.337 329.865 121.118 329.76 120.903C330.958 119.304 332.503 117.934 334.26 116.838L334.983 116.859C335.347 115.929 337.045 115.308 338.104 114.986C339.097 114.684 340.181 114.476 341.212 114.604C341.198 114.046 342.194 113.921 342.399 114.438L342.875 114.417L343.187 114.021C343.896 113.858 346.472 113.82 346.819 114.417Z" fill="#FDFCF7"/>
<path d="M32.8334 14.9364C33.014 14.9988 33.2154 15.0404 33.3682 15.0994C35.4793 15.5607 37.3473 16.5701 38.9723 18.1172L39.2675 18.8214C39.9723 19.4527 40.8439 20.1742 41.4133 20.9234L41.9723 21.1003C43.1425 22.7896 44.0209 24.6489 44.5279 26.5914C44.2987 26.7093 44.198 26.8654 44.2744 27.0735C44.8404 27.0735 45.2015 28.6206 44.632 28.7732L44.9897 28.9571C45.0904 29.4912 45.1494 31.132 44.632 31.3609C45.0661 31.6627 44.5175 31.6627 44.6563 31.4754C44.7536 31.347 45.4793 31.295 45.5244 31.6037C45.5279 31.125 47.0348 30.7712 47.2223 31.2811C47.3925 30.7435 49.6251 30.7851 49.9029 31.2811C50.1355 30.7816 51.8716 31.0799 51.9584 31.6037C52.5487 31.7355 53.7154 32.1622 54.2813 32.4119C55.8334 32.7484 57.4827 33.737 58.2119 34.9996C58.2501 35.2008 60.014 37.5838 60.3577 38.236C61.257 38.6141 61.6043 40.0952 61.7952 40.9867C61.9862 41.8781 62.2883 43.3871 61.6077 44.0635C61.7709 44.0808 61.7605 44.1363 61.6077 44.2265C61.6876 44.3167 61.764 44.4069 61.8195 44.5109C62.2119 45.2463 60.639 49.2839 59.823 49.6308C59.7119 49.6794 59.5869 49.7071 59.4619 49.7314C59.5591 50.4737 58.8508 51.2681 58.0313 51.3513L57.8855 51.9722C57.1945 53.0441 53.698 54.664 52.3577 55.1981L51.955 55.0733L51.8786 55.6144C51.0036 55.6075 50.1355 55.6421 49.2744 55.7219C48.9237 56.1729 46.4723 56.4816 45.9445 56.3636C45.7605 56.322 45.632 56.1763 45.5209 56.0445C45.3543 56.1833 45.1668 56.3324 44.9341 56.3567C44.1286 56.4469 41.7015 56.1382 40.8439 55.9474L40.3369 55.5589C39.9827 55.6734 39.5314 55.6491 39.264 55.3959C39.2848 55.8433 38.1668 55.8954 37.7397 55.8746C37.389 55.5866 36.389 55.5034 36.1876 55.9231L36.0452 55.7185C36.1077 55.826 36.1876 55.9925 36.1147 56.0549C35.8369 56.2908 33.3994 57.9558 33.2223 57.987C33.0834 58.0113 32.9445 57.9107 32.8265 57.824L32.5973 58.2992C30.8577 59.0866 28.9897 59.6555 27.0591 59.8844L26.573 59.6035L26.132 59.9538C24.4376 60.0266 22.7293 59.9538 21.0557 59.6832L20.6737 59.2809C20.3334 59.1768 20.1008 59.2323 19.9654 59.4474C17.8959 58.8542 15.9064 57.9731 14.1494 56.8215L13.882 56.2076C13.33 56.1521 12.7501 56.4608 12.1459 57.1406L11.7362 57.0192L11.7432 57.4008C10.4793 58.1015 9.15636 58.7536 7.76052 59.215L7.44802 58.9652L7.12511 59.3745C5.29872 59.7249 3.40289 59.7041 1.55566 59.5029L1.19108 59.1282C0.312607 59.5931 -1.14225 58.9583 -2.05198 58.5628C-3.0485 58.1258 -4.65961 57.3418 -4.88878 56.3775C-5.39225 56.4261 -5.84017 56.1521 -6.23253 55.5554C-7.51031 55.8884 -9.67698 56.4018 -10.9686 56.211C-11.1839 56.1798 -11.3541 56.0272 -11.5034 55.8919C-12.1423 56.4122 -13.9582 56.2908 -14.5416 55.7289C-15.2464 55.9925 -15.8853 55.9682 -16.4582 55.6491L-18.052 55.6317C-17.8159 55.4201 -17.7811 55.1288 -17.9409 54.7576C-19.1388 54.7541 -20.427 53.7031 -21.2534 52.8914C-21.9652 52.1907 -23.3541 50.7824 -22.9443 49.9048C-23.8367 49.4123 -23.8749 47.886 -23.8436 46.9599C-23.8124 46.0337 -23.6666 44.5283 -22.7673 44.0773C-23.0659 43.1096 -21.8471 41.8712 -21.0867 41.1636C-20.3263 40.456 -18.9999 39.3425 -17.9409 39.5471C-17.8749 39.5194 -17.8193 39.4084 -17.7638 39.3841L-17.4478 38.9193C-15.9825 38.4892 -14.4548 38.3192 -12.8679 38.4129C-13.1075 38.4406 -13.0381 38.3851 -12.7568 38.2498C-13.1179 37.6324 -13.1179 36.8693 -12.7568 35.957C-12.6666 34.9823 -12.3089 34.2885 -11.6839 33.8792C-11.6423 33.789 -11.5624 33.6676 -11.5068 33.5566L-11.3124 32.7657C-11.4999 32.6131 -11.3853 32.5541 -10.9721 32.5854C-11.0277 32.5229 -11.0798 32.4605 -11.1214 32.3876C-11.5034 31.6974 -6.68392 27.9303 -5.48948 27.5661C-5.48253 26.8272 -5.20128 26.4387 -4.64573 26.3971C-2.82281 26.47 -1.00336 26.3763 0.812607 26.1092L1.18066 26.4353C1.80219 25.9011 3.79177 26.2688 4.21886 26.9209C5.3508 26.9001 6.98622 27.0284 7.43761 28.0552C7.9758 28.1246 8.2015 27.7707 8.11122 26.9868L8.51052 26.7613C8.44802 26.6503 8.39247 26.5393 8.36122 26.4214C8.14941 25.6583 10.2189 21.5756 10.9897 21.2183C11.1077 21.1628 11.2397 21.1281 11.3716 21.0969C12.2154 20.0042 12.9758 19.2446 14.0522 18.3461C14.2605 17.4512 15.7189 16.3586 16.7327 16.4037C16.7015 15.7307 17.4446 15.6197 17.9827 15.755C17.9168 15.3769 18.33 15.3492 18.698 15.4324C18.8369 15.3734 19.0522 15.3422 19.2327 15.2694C19.2258 14.5617 19.9689 14.6797 20.4827 14.7837C20.7779 14.6901 21.1702 14.5166 21.3751 14.4611C21.5695 13.8715 23.4411 13.4968 23.8786 13.9755C24.1702 13.9478 24.4793 13.9963 24.7709 13.9755C27.639 13.7674 30.1112 14.0171 32.8126 14.9468L32.8334 14.9364Z" fill="#FDFCF7"/>
<path d="M234.798 194.746C234.979 194.808 235.18 194.85 235.333 194.909C237.444 195.37 239.312 196.38 240.937 197.927L241.232 198.631C241.937 199.262 242.809 199.984 243.378 200.733L243.937 200.91C245.107 202.599 245.986 204.458 246.493 206.401C246.264 206.519 246.163 206.675 246.239 206.883C246.805 206.883 247.166 208.43 246.597 208.583L246.955 208.767C247.055 209.301 247.114 210.942 246.597 211.17C247.031 211.472 246.482 211.472 246.621 211.285C246.718 211.157 247.444 211.105 247.489 211.413C247.493 210.935 249 210.581 249.187 211.091C249.357 210.553 251.59 210.595 251.868 211.091C252.1 210.591 253.836 210.889 253.923 211.413C254.514 211.545 255.68 211.972 256.246 212.222C257.798 212.558 259.448 213.547 260.177 214.809C260.215 215.01 261.979 217.393 262.323 218.046C263.222 218.424 263.569 219.905 263.76 220.796C263.951 221.688 264.253 223.197 263.573 223.873C263.736 223.89 263.725 223.946 263.573 224.036C263.652 224.126 263.729 224.216 263.784 224.321C264.177 225.056 262.604 229.094 261.788 229.44C261.677 229.489 261.552 229.517 261.427 229.541C261.524 230.283 260.816 231.078 259.996 231.161L259.85 231.782C259.159 232.854 255.663 234.474 254.323 235.008L253.92 234.883L253.843 235.424C252.968 235.417 252.1 235.452 251.239 235.532C250.889 235.982 248.437 236.291 247.909 236.173C247.725 236.132 247.597 235.986 247.486 235.854C247.319 235.993 247.132 236.142 246.899 236.166C246.093 236.256 243.666 235.948 242.809 235.757L242.302 235.368C241.948 235.483 241.496 235.459 241.229 235.205C241.25 235.653 240.132 235.705 239.705 235.684C239.354 235.396 238.354 235.313 238.152 235.733L238.01 235.528C238.073 235.636 238.152 235.802 238.08 235.865C237.802 236.1 235.364 237.765 235.187 237.797C235.048 237.821 234.909 237.72 234.791 237.634L234.562 238.109C232.823 238.896 230.955 239.465 229.024 239.694L228.538 239.413L228.097 239.763C226.402 239.836 224.694 239.763 223.021 239.493L222.639 239.09C222.298 238.986 222.066 239.042 221.93 239.257C219.861 238.664 217.871 237.783 216.114 236.631L215.847 236.017C215.295 235.962 214.715 236.27 214.111 236.95L213.701 236.829L213.708 237.21C212.444 237.911 211.121 238.563 209.725 239.025L209.413 238.775L209.09 239.184C207.264 239.534 205.368 239.514 203.521 239.312L203.156 238.938C202.277 239.403 200.823 238.768 199.913 238.372C198.916 237.935 197.305 237.151 197.076 236.187C196.573 236.236 196.125 235.962 195.732 235.365C194.455 235.698 192.288 236.211 190.996 236.021C190.781 235.989 190.611 235.837 190.461 235.701C189.823 236.222 188.007 236.1 187.423 235.538C186.718 235.802 186.08 235.778 185.507 235.459L183.913 235.441C184.149 235.23 184.184 234.938 184.024 234.567C182.826 234.564 181.538 233.513 180.711 232.701C180 232 178.611 230.592 179.021 229.714C178.128 229.222 178.09 227.696 178.121 226.769C178.152 225.843 178.298 224.338 179.198 223.887C178.899 222.919 180.118 221.681 180.878 220.973C181.639 220.266 182.965 219.152 184.024 219.357C184.09 219.329 184.146 219.218 184.201 219.194L184.517 218.729C185.982 218.299 187.51 218.129 189.097 218.222C188.857 218.25 188.927 218.195 189.208 218.059C188.847 217.442 188.847 216.679 189.208 215.767C189.298 214.792 189.656 214.098 190.281 213.689C190.323 213.599 190.402 213.477 190.458 213.366L190.652 212.575C190.465 212.423 190.58 212.364 190.993 212.395C190.937 212.333 190.885 212.27 190.843 212.197C190.461 211.507 195.281 207.74 196.475 207.376C196.482 206.637 196.764 206.248 197.319 206.207C199.142 206.28 200.961 206.186 202.777 205.919L203.146 206.245C203.767 205.711 205.757 206.078 206.184 206.73C207.316 206.71 208.951 206.838 209.402 207.865C209.941 207.934 210.166 207.58 210.076 206.796L210.475 206.571C210.413 206.46 210.357 206.349 210.326 206.231C210.114 205.468 212.184 201.385 212.955 201.028C213.073 200.972 213.205 200.938 213.336 200.906C214.18 199.814 214.941 199.054 216.017 198.156C216.225 197.261 217.684 196.168 218.698 196.213C218.666 195.54 219.409 195.429 219.948 195.565C219.882 195.186 220.295 195.159 220.663 195.242C220.802 195.183 221.017 195.152 221.198 195.079C221.191 194.371 221.934 194.489 222.448 194.593C222.743 194.5 223.135 194.326 223.34 194.271C223.534 193.681 225.406 193.306 225.843 193.785C226.135 193.757 226.444 193.806 226.736 193.785C229.604 193.577 232.076 193.827 234.777 194.756L234.798 194.746Z" fill="#FDFCF7"/>
<path d="M359.698 0.520266C360.531 -0.281015 363.778 0.440486 364.441 1.27992C364.535 1.06139 364.628 1.06139 364.719 1.27992C366.382 1.38399 369.021 1.5713 369.743 3.04899C369.889 2.97961 370.035 2.91371 370.187 2.88249C371.496 2.59111 377.906 8.04745 378.757 9.37945L378.674 10.1287C379.545 10.1114 379.635 10.6768 379.51 11.3913L380.163 11.4052C381.434 12.9939 383.403 17.2258 383.101 19.2099C382.635 19.4111 382.555 19.921 382.858 20.7396C383.361 21.3709 383.58 22.1895 383.514 23.1955C385.288 23.0151 387.076 22.8937 388.864 22.97L389.555 23.5215C389.677 23.4071 389.802 23.2995 389.948 23.2198C391.233 22.5052 399.042 25.8248 399.326 27.8159C400.031 27.632 400.09 27.8332 399.604 28.3223C402.413 29.3456 403.535 32.6652 404.132 35.2043C404.281 36.7306 404.167 38.3088 403.788 39.9461L404.167 40.7647C403.896 42.4401 402.715 45.6279 401 46.2627C401.601 46.9009 400.187 48.3092 399.326 48.0317C397.083 50.0748 392.663 52.2844 389.559 52.8325L389.097 53.4187C386.062 53.7864 382.955 53.6685 379.944 53.1794L379.51 52.5793C377.305 52.1214 375.337 51.1155 373.271 50.3454C372.125 51.2924 371 52.2636 369.743 53.0857C369.25 54.7368 366.733 55.3369 365 55.611C363.701 56.107 361.073 56.8632 359.698 57.1268C359.58 57.2794 359.458 57.4216 359.309 57.5396C358.434 58.2403 350.993 58.4137 350.066 57.7685C349.91 57.6575 349.774 57.5222 349.649 57.38C346.865 57.0297 344.614 55.8885 342.191 55.4167C341.698 55.3196 340.243 55.4167 340.174 55.3473C340.118 55.2953 340.229 54.6189 339.906 54.2026C339.628 53.8454 337.587 52.8013 336.962 52.3191C335.965 51.549 335.17 50.5605 334.121 49.839C332.736 50.3627 331.521 51.0669 330.115 51.5664C330.024 51.7329 329.924 51.8959 329.795 52.0381C328.837 53.0892 321.84 53.7795 320.153 53.495C319.66 53.0718 318.885 52.8498 317.833 52.8325C315.007 52.3885 313.149 52.1283 310.576 50.8102C310.281 50.6853 310.024 50.7166 309.799 50.9767C308.017 49.9014 306.368 48.611 305.038 47.0848L305.274 46.5159C304.767 46.4118 304.552 46.3286 304.26 45.9852C303.316 44.8544 301.691 39.1275 302.642 38.2048C302.757 38.0938 302.892 38.007 303.038 37.9238C302.226 36.8381 302.986 35.2182 303.601 33.9555C304.75 31.5899 307.069 28.7281 310.014 28.3223C309.663 27.9616 309.812 27.8332 310.292 28.0691C310.621 27.3649 311.472 26.914 312.844 26.7163C313.521 23.754 314.441 20.1777 318.108 19.2238C317.739 18.478 319.427 17.3021 320.062 17.9611C320.764 16.5147 323.694 16.0776 325.396 15.977C327.274 15.866 329.361 15.9527 330.667 17.205C331.868 17.5969 332.892 18.197 334.014 18.7208C334.476 15.7238 335.76 12.8586 337.646 10.3819C337.295 9.39333 339.021 7.48552 340.156 7.60346C340.34 6.29921 343.25 4.15205 344.569 3.56236L345.18 3.81211C346.413 3.14264 348.271 2.49398 349.646 2.04305C349.785 1.49845 350.437 1.24524 351.601 1.28339L351.875 0.707579C354.312 0.256641 356.816 -0.0035137 359.309 0.00689255L359.698 0.527205V0.520266Z" fill="#FDFCF7"/>
<path d="M24.2501 292.003C25.0834 291.202 28.3299 291.923 28.9931 292.763C29.0869 292.544 29.1806 292.544 29.2709 292.763C30.9341 292.867 33.573 293.054 34.2952 294.532C34.441 294.462 34.5869 294.396 34.7396 294.365C36.0487 294.074 42.4584 299.53 43.3091 300.862L43.2258 301.611C44.0973 301.594 44.1876 302.159 44.0626 302.874L44.7153 302.888C45.9862 304.477 47.9549 308.708 47.6528 310.693C47.1876 310.894 47.1077 311.404 47.4098 312.222C47.9133 312.854 48.132 313.672 48.066 314.678C49.8403 314.498 51.6285 314.376 53.4167 314.453L54.1077 315.004C54.2292 314.89 54.3542 314.782 54.5001 314.702C55.7848 313.988 63.5938 317.307 63.8785 319.299C64.5834 319.115 64.6424 319.316 64.1563 319.805C66.9653 320.828 68.0869 324.148 68.6841 326.687C68.8334 328.213 68.7188 329.792 68.3403 331.429L68.7188 332.247C68.448 333.923 67.2674 337.111 65.5521 337.745C66.1528 338.384 64.7396 339.792 63.8785 339.514C61.6355 341.557 57.2153 343.767 54.1112 344.315L53.6494 344.901C50.6146 345.269 47.507 345.151 44.4966 344.662L44.0626 344.062C41.8577 343.604 39.889 342.598 37.823 341.828C36.6771 342.775 35.5521 343.746 34.2952 344.568C33.8021 346.22 31.2848 346.82 29.5521 347.094C28.2535 347.59 25.6251 348.346 24.2501 348.609C24.132 348.762 24.0105 348.904 23.8612 349.022C22.9862 349.723 15.5452 349.896 14.6181 349.251C14.4619 349.14 14.3265 349.005 14.2015 348.863C11.4167 348.512 9.16673 347.371 6.74312 346.899C6.25006 346.802 4.7952 346.899 4.72576 346.83C4.6702 346.778 4.78131 346.102 4.4584 345.685C4.18062 345.328 2.13895 344.284 1.51395 343.802C0.517426 343.032 -0.277714 342.043 -1.32633 341.322C-2.71174 341.845 -3.92702 342.55 -5.33327 343.049C-5.42355 343.216 -5.52424 343.379 -5.65271 343.521C-6.61105 344.572 -13.6076 345.262 -15.2951 344.978C-15.7881 344.554 -16.5624 344.333 -17.6145 344.315C-20.4409 343.871 -22.2985 343.611 -24.8715 342.293C-25.1666 342.168 -25.4235 342.199 -25.6492 342.459C-27.4305 341.384 -29.0798 340.094 -30.4097 338.567L-30.1735 337.999C-30.6805 337.894 -30.8958 337.811 -31.1874 337.468C-32.1319 336.337 -33.7569 330.61 -32.8055 329.687C-32.6909 329.576 -32.5555 329.49 -32.4097 329.406C-33.2222 328.321 -32.4617 326.701 -31.8472 325.438C-30.6979 323.073 -28.3784 320.211 -25.434 319.805C-25.7847 319.444 -25.6354 319.316 -25.1562 319.552C-24.8263 318.848 -23.9756 318.397 -22.6041 318.199C-21.927 315.237 -21.0069 311.66 -17.3402 310.706C-17.7083 309.961 -16.0208 308.785 -15.3854 309.444C-14.684 307.997 -11.7534 307.56 -10.052 307.46C-8.17355 307.349 -6.08674 307.435 -4.78119 308.688C-3.5798 309.08 -2.55549 309.68 -1.43396 310.203C-0.972157 307.206 0.312565 304.341 2.19798 301.865C1.84729 300.876 3.57298 298.968 4.7084 299.086C4.89243 297.782 7.80215 295.635 9.12159 295.045L9.7327 295.295C10.9653 294.625 12.823 293.977 14.198 293.526C14.3369 292.981 14.9896 292.728 16.1528 292.766L16.4271 292.19C18.8646 291.739 21.3681 291.479 23.8612 291.49L24.2501 292.01V292.003Z" fill="#FDFCF7"/>
<path d="M372.969 198.346C373.802 197.545 377.049 198.267 377.712 199.106C377.806 198.888 377.899 198.888 377.99 199.106C379.653 199.21 382.292 199.397 383.014 200.875C383.16 200.806 383.306 200.74 383.458 200.709C384.767 200.417 391.177 205.874 392.028 207.206L391.945 207.955C392.816 207.938 392.906 208.503 392.781 209.218L393.434 209.231C394.705 210.82 396.674 215.052 396.372 217.036C395.906 217.237 395.826 217.747 396.129 218.566C396.632 219.197 396.851 220.016 396.785 221.022C398.559 220.841 400.347 220.72 402.135 220.796L402.826 221.348C402.948 221.233 403.073 221.126 403.219 221.046C404.504 220.331 412.313 223.651 412.597 225.642C413.302 225.458 413.361 225.659 412.875 226.148C415.684 227.172 416.806 230.491 417.403 233.03C417.552 234.557 417.438 236.135 417.059 237.772L417.438 238.591C417.167 240.266 415.986 243.454 414.271 244.089C414.872 244.727 413.458 246.135 412.597 245.858C410.354 247.901 405.934 250.111 402.83 250.659L402.368 251.245C399.333 251.613 396.226 251.495 393.215 251.006L392.781 250.405C390.576 249.948 388.608 248.942 386.542 248.172C385.396 249.119 384.271 250.09 383.014 250.912C382.521 252.563 380.004 253.163 378.271 253.437C376.972 253.933 374.344 254.689 372.969 254.953C372.851 255.106 372.729 255.248 372.58 255.366C371.705 256.066 364.264 256.24 363.337 255.595C363.181 255.484 363.045 255.348 362.92 255.206C360.135 254.856 357.885 253.715 355.462 253.243C354.969 253.146 353.514 253.243 353.444 253.173C353.389 253.121 353.5 252.445 353.177 252.029C352.899 251.672 350.858 250.627 350.233 250.145C349.236 249.375 348.441 248.387 347.392 247.665C346.007 248.189 344.792 248.893 343.385 249.393C343.295 249.559 343.194 249.722 343.066 249.864C342.108 250.915 335.111 251.606 333.424 251.321C332.931 250.898 332.156 250.676 331.104 250.659C328.278 250.215 326.42 249.954 323.847 248.636C323.552 248.511 323.295 248.543 323.07 248.803C321.288 247.728 319.639 246.437 318.309 244.911L318.545 244.342C318.038 244.238 317.823 244.155 317.531 243.811C316.587 242.681 314.962 236.954 315.913 236.031C316.028 235.92 316.163 235.833 316.309 235.75C315.497 234.664 316.257 233.044 316.872 231.782C318.021 229.416 320.34 226.554 323.285 226.148C322.934 225.788 323.083 225.659 323.563 225.895C323.892 225.191 324.743 224.74 326.115 224.542C326.792 221.58 327.712 218.004 331.379 217.05C331.01 216.304 332.698 215.128 333.333 215.787C334.035 214.341 336.965 213.904 338.667 213.803C340.545 213.692 342.632 213.779 343.938 215.031C345.139 215.423 346.163 216.023 347.285 216.547C347.747 213.55 349.031 210.685 350.917 208.208C350.566 207.219 352.292 205.312 353.427 205.43C353.611 204.125 356.521 201.978 357.84 201.389L358.451 201.638C359.684 200.969 361.542 200.32 362.917 199.869C363.056 199.325 363.708 199.071 364.872 199.11L365.146 198.534C367.583 198.083 370.087 197.823 372.58 197.833L372.969 198.353V198.346Z" fill="#FDFCF7"/>
</g>
</svg>
