<svg width="86" height="47" viewBox="0 0 86 47" fill="none" xmlns="http://www.w3.org/2000/svg">
<path d="M56.684 1.17917C56.8646 1.24161 57.066 1.28324 57.2188 1.34221C59.3299 1.80356 61.1979 2.81295 62.8229 4.36001L63.1181 5.06417C63.8229 5.69549 64.6944 6.41699 65.2639 7.16624L65.8229 7.34314C66.993 9.03243 67.8715 10.8917 68.3785 12.8342C68.1493 12.9521 68.0486 13.1082 68.125 13.3163C68.691 13.3163 69.0521 14.8634 68.4826 15.016L68.8403 15.1999C68.941 15.734 69 17.3748 68.4826 17.6037C68.9167 17.9055 68.3681 17.9055 68.507 17.7182C68.6042 17.5898 69.3299 17.5378 69.375 17.8465C69.3785 17.3678 70.8854 17.014 71.0729 17.5239C71.243 16.9863 73.4757 17.0279 73.7535 17.5239C73.9861 17.0244 75.7222 17.3227 75.809 17.8465C76.3993 17.9783 77.566 18.405 78.1319 18.6547C79.684 18.9912 81.3333 19.9798 82.0625 21.2424C82.1007 21.4436 83.8646 23.8266 84.2083 24.4788C85.1076 24.8568 85.4549 26.338 85.6458 27.2295C85.8368 28.121 86.1389 29.6299 85.4583 30.3063C85.6215 30.3236 85.6111 30.3791 85.4583 30.4693C85.5382 30.5595 85.6146 30.6497 85.6701 30.7537C86.0625 31.4891 84.4896 35.5267 83.6736 35.8736C83.5625 35.9222 83.4375 35.9499 83.3125 35.9742C83.4097 36.7165 82.7014 37.5108 81.8819 37.5941L81.7361 38.215C81.0451 39.2869 77.5486 40.9068 76.2083 41.441L75.8055 41.3161L75.7292 41.8572C74.8542 41.8503 73.9861 41.885 73.125 41.9647C72.7743 42.4157 70.3229 42.7244 69.7951 42.6064C69.6111 42.5648 69.4826 42.4191 69.3715 42.2873C69.2049 42.4261 69.0174 42.5752 68.7847 42.5995C67.9792 42.6897 65.5521 42.381 64.6944 42.1902L64.1875 41.8017C63.8333 41.9162 63.3819 41.8919 63.1146 41.6387C63.1354 42.0861 62.0174 42.1382 61.5903 42.1174C61.2396 41.8295 60.2396 41.7462 60.0382 42.1659L59.8958 41.9613C59.9583 42.0688 60.0382 42.2353 59.9653 42.2977C59.6875 42.5336 57.25 44.1986 57.0729 44.2298C56.934 44.2541 56.7951 44.1535 56.6771 44.0668L56.4479 44.542C54.7083 45.3294 52.8403 45.8983 50.9097 46.1272L50.4236 45.8463L49.9826 46.1966C48.2882 46.2695 46.5799 46.1966 44.9062 45.926L44.5243 45.5237C44.184 45.4196 43.9514 45.4751 43.816 45.6902C41.7465 45.097 39.7569 44.2159 38 43.0643L37.7326 42.4503C37.1806 42.3948 36.6007 42.7036 35.9965 43.3834L35.5868 43.262L35.5937 43.6436C34.3299 44.3443 33.007 44.9964 31.6111 45.4578L31.2986 45.208L30.9757 45.6173C29.1493 45.9677 27.2535 45.9468 25.4063 45.7457L25.0417 45.3711C24.1632 45.8359 22.7083 45.2011 21.7986 44.8056C20.8021 44.3686 19.191 43.5846 18.9618 42.6203C18.4583 42.6689 18.0104 42.3949 17.6181 41.7982C16.3403 42.1312 14.1736 42.6446 12.8819 42.4538C12.6667 42.4226 12.4965 42.27 12.3472 42.1347C11.7083 42.655 9.89237 42.5336 9.30904 41.9717C8.60418 42.2353 7.96528 42.211 7.39237 41.8919L5.79861 41.8745C6.03472 41.663 6.06944 41.3716 5.90972 41.0004C4.7118 40.9969 3.42362 39.9459 2.59723 39.1342C1.88542 38.4335 0.496535 37.0252 0.906257 36.1476C0.013896 35.6551 -0.0243078 34.1288 0.00694222 33.2027C0.0381922 32.2765 0.184038 30.7711 1.08334 30.3201C0.784733 29.3524 2.00347 28.114 2.76389 27.4064C3.5243 26.6988 4.85069 25.5853 5.90972 25.79C5.97569 25.7622 6.03125 25.6512 6.08681 25.6269L6.40277 25.1621C7.86805 24.732 9.39583 24.562 10.9826 24.6557C10.743 24.6834 10.8125 24.6279 11.0937 24.4926C10.7326 23.8752 10.7326 23.1121 11.0937 22.1998C11.184 21.2251 11.5417 20.5313 12.1667 20.122C12.2083 20.0318 12.2882 19.9104 12.3438 19.7994L12.5382 19.0086C12.3507 18.8559 12.4653 18.797 12.8785 18.8282C12.8229 18.7657 12.7708 18.7033 12.7292 18.6304C12.3472 17.9402 17.1667 14.1731 18.3611 13.8089C18.368 13.0701 18.6493 12.6816 19.2049 12.6399C21.0278 12.7128 22.8472 12.6191 24.6632 12.352L25.0313 12.6781C25.6528 12.1439 27.6424 12.5116 28.0694 13.1637C29.2014 13.1429 30.8368 13.2712 31.2882 14.298C31.8264 14.3674 32.0521 14.0135 31.9618 13.2296L32.3611 13.0041C32.2986 12.8931 32.2431 12.7821 32.2118 12.6642C32 11.9011 34.0694 7.81835 34.8403 7.46107C34.9583 7.40557 35.0903 7.37089 35.2222 7.33967C36.066 6.24702 36.8264 5.48736 37.9028 4.58896C38.1111 3.69402 39.5694 2.60135 40.5833 2.64644C40.5521 1.97351 41.2951 1.86251 41.8333 1.99779C41.7674 1.6197 42.1806 1.59195 42.5486 1.6752C42.6875 1.61623 42.9028 1.58502 43.0833 1.51218C43.0764 0.804553 43.8195 0.922482 44.3333 1.02654C44.6285 0.932888 45.0208 0.759453 45.2257 0.703953C45.4202 0.114265 47.2917 -0.260368 47.7292 0.21832C48.0208 0.19057 48.3299 0.239132 48.6215 0.21832C51.4896 0.0101945 53.9618 0.259961 56.6632 1.18959L56.684 1.17917Z" fill="#FDFCF7"/>
</svg>
