<svg width="335" height="486" viewBox="0 0 335 486" fill="none" xmlns="http://www.w3.org/2000/svg">
<path d="M333.301 484.614L319.552 485.771L305.737 486L291.923 484.471L278.095 485.14L264.293 485.054L250.466 483.973L236.651 485.646L222.837 484.021L209.022 485.732L195.208 483.706L181.38 484.375L167.565 483.295L153.751 485.187L139.923 483.687L126.096 485.761L112.281 485.054L98.4533 484.241L84.6387 485.57L70.8242 483.515L56.9965 483.83L43.1689 485.197L29.3543 484.537L15.5136 485.914L1.72519 484.643L5 444.433L2.50936 403.92L5 364.213L0.535854 323.168L5 295.705L2.28718 265.838L5 227.197L0 185.077L5 157.517L2.3656 127.738L5 93.693L0.98022 58.6873L5 31.04L2.48322 1.91185L15.5005 0.477964L29.3282 2.256L43.1427 1.65376L56.9573 1.66333L70.7719 0.50664L84.5864 1.5486L98.401 1.56773L112.216 2.17951L126.043 2.65748L139.858 1.44346L153.672 1.0802L167.5 2.42806L181.315 1.10888L195.142 1.93099L208.957 2.44717L222.784 1.74936L236.599 1.59641L250.427 0.755191L264.241 1.44346L278.056 0L291.883 0.353688L305.711 1.09931L319.539 0.0764905L332.595 1.90231L333.255 30.29L331 57.9749L333.229 93.1981L331 128.24L333.079 156.388L331 186.794L333.53 225.434L331 266.428L333.484 294.479L333.523 323.149L331 365.97L335 403.91L331 443.847L333.301 484.614Z" fill="white"/>
</svg>
