<svg width="375" height="323" viewBox="0 0 375 323" fill="none" xmlns="http://www.w3.org/2000/svg">
<path d="M128.015 66.0389C125.16 68.0025 123.496 63.3025 125.682 61.2693C126.031 60.9455 126.709 60.8828 127.148 60.472C128.6 59.1142 131.911 54.7624 132.694 54.1775C134.818 52.5865 136.868 51.3784 139.173 49.5227C163.658 29.8245 195.782 19.3104 226.266 11.9541C269.367 1.55486 321.972 -3.31575 365.811 2.47048C369.038 2.89522 372.269 3.70989 375.51 4.08241L389.283 112.339C386.268 112.715 368.61 114.87 365.619 115.145C330.885 118.352 298.239 109.415 263.963 105.749C236.132 102.776 207.595 103.113 180.06 99.4786C165.41 97.5429 149.726 95.4122 136.597 88.2786C128.621 83.9442 125.202 75.1186 128.363 66.3905C128.576 65.7987 128.457 65.6803 128.015 66.0424V66.0389Z" fill="#7BAE6C"/>
<path d="M128.363 66.3874L128.015 66.0393C128.265 65.8652 128.519 65.0157 129.056 64.9948C129.31 65.6737 128.488 66.0427 128.363 66.3874Z" fill="#B6D2AE"/>
<path d="M169.792 82.7568C170.513 83.4357 171.206 84.1285 171.881 84.8457C169.893 85.7996 169.253 88.7519 167.178 89.7198C166.757 89.2149 167.136 88.2262 167.007 87.6309C167.08 86.945 169.075 82.722 169.343 82.6489C169.517 82.6036 169.664 82.6245 169.792 82.7568Z" fill="#C3DCBC"/>
<path d="M169.444 82.4085C168.929 84.0239 168.097 85.2355 166.948 86.0432L166.311 85.5453C165.883 84.7237 164.939 84.0378 164.222 83.4564C164.647 83.352 165.785 83.9299 165.959 83.8081C166.106 83.7071 166.576 80.8592 166.663 80.3231C167.007 80.0167 169.013 82.0221 169.444 82.412V82.4085Z" fill="#F6F9F4"/>
<path d="M169.444 82.4085C169.566 82.5199 169.674 82.6453 169.793 82.7567C168.759 82.5443 169.183 83.2754 169.002 83.8638C168.696 84.8664 168.229 87.5019 167.007 87.6307C166.973 87.4636 166.363 85.6393 166.311 85.5419L167.436 85.0997L169.444 82.405V82.4085Z" fill="#DCEBD7"/>
<path d="M337.948 248.89C337.955 247.741 338.007 246.553 337.948 245.408C338.526 246.111 338.544 248.12 337.948 248.89Z" fill="#FCFCFC"/>
<path d="M337.6 252.719C337.617 251.734 337.311 250.275 337.948 249.586C337.941 250.567 338.23 252.033 337.6 252.719Z" fill="#FCFCFC"/>
<path d="M145.771 59.7688C144.629 59.9672 143.929 59.6852 142.985 59.4206C144.141 59.3301 144.754 59.3475 145.771 59.7688Z" fill="#FCFCFC"/>
<path d="M178.845 114.797C178.577 113.383 178.124 111.802 178.148 110.267C178.57 111.761 179.113 113.181 178.845 114.797Z" fill="#FCFCFC"/>
<path d="M336.556 260.73C336.695 259.818 336.768 258.833 336.904 257.945C336.792 258.815 337.252 260.131 336.556 260.73Z" fill="#FCFCFC"/>
<path d="M179.541 119.326C179.436 118.693 178.883 117.826 179.193 116.889C179.329 117.568 179.83 118.355 179.541 119.326Z" fill="#FCFCFC"/>
<path d="M337.252 255.856C337.336 255.093 336.939 253.91 337.6 253.419C337.527 254.456 337.377 255.027 337.252 255.856Z" fill="#FCFCFC"/>
<path d="M336.208 263.519C336.291 262.756 335.894 261.573 336.556 261.082C336.43 261.882 336.322 262.77 336.208 263.519Z" fill="#FCFCFC"/>
<path d="M335.511 234.261L335.163 232.172C335.351 232.976 335.368 233.641 335.511 234.261Z" fill="#FCFCFC"/>
<path d="M180.237 123.156C180.175 122.741 179.987 122.097 179.889 121.415C180.453 121.711 180.216 122.599 180.237 123.156Z" fill="#FCFCFC"/>
<path d="M184.415 144.403C184.203 143.662 184.199 143.146 184.067 142.663L184.415 144.403Z" fill="#FCFCFC"/>
<path d="M263.793 171.569C263.236 171.548 262.348 171.785 262.052 171.221C262.533 171.35 263.062 171.364 263.793 171.569Z" fill="#FCFCFC"/>
<path d="M337.6 242.271C337.036 241.975 337.273 241.088 337.252 240.531C337.444 241.272 337.478 241.554 337.6 242.271Z" fill="#FCFCFC"/>
<path d="M-0.452148 33.2988C0.724593 33.2674 1.99185 32.8706 3.10245 32.5015C14.1039 28.839 28.1796 28.9539 39.7729 28.7868C43.4807 28.7345 50.576 27.7632 53.9356 28.8703C59.4746 30.6981 63.5863 30.9314 69.2472 32.0071C85.8852 35.1753 103.752 38.9562 118.378 47.639C128.676 53.7525 139.326 60.517 149.227 67.2781C150.387 68.0684 151.4 69.4227 152.778 70.3418C154.537 71.515 161.82 74.6066 162.13 76.3265C162.269 77.0959 162.105 77.9732 161.809 78.6939L158.652 79.7905C160.312 81.1622 162.568 82.1127 164.219 83.4531C166.238 83.9718 166.934 84.6681 166.307 85.5419C167.348 85.1868 167.822 87.0703 167.004 87.6308C167.707 87.5995 167.815 87.8885 167.704 88.5116L170.597 84.8805C171.049 84.3861 171.352 84.3443 171.878 84.8422C173.194 86.2417 174.412 87.7144 175.519 89.288C179.631 87.7979 183.778 86.656 188.109 85.9284C228.431 79.1499 268.963 80.828 309.567 83.1049C327.709 84.1215 344.577 86.9415 361.984 91.9653L375.395 96.6618L375.548 322.025H-0.452148V33.2988Z" fill="#8BBB7C"/>
<path d="M141.523 57.9191L143.245 58.501C148.128 60.5257 153.66 64.9177 157.998 68.0264C159.164 68.8621 160.64 69.3412 161.715 70.2469C162.832 71.1875 163.859 72.0072 165.067 72.9758C166.603 74.2032 168.207 75.1984 169.749 76.1915C172.691 78.0833 175.836 82.0347 178.845 84.3915C179.382 84.7867 179.871 85.2273 180.241 85.7903C181.769 88.3954 184.722 90.6404 186.676 93.1581C192.791 101.047 197.266 109.534 199.436 119.374C199.422 119.993 199.538 120.577 199.785 121.122C199.915 121.818 199.991 122.497 200.134 123.22L200.483 125.668C202.944 139.617 210.437 147.037 220.723 155.933C230.558 164.437 250.291 167.018 262.957 170.449C263.487 170.693 264.067 170.809 264.702 170.798C272.827 173.099 282.223 177.033 289.723 180.876C308.318 190.405 318.925 199.027 329.873 217.019C330.344 217.791 331.816 219.358 332.378 220.03C332.94 220.701 333.378 222.317 333.881 223.041C334.429 223.831 335.88 230.084 336.25 231.664L336.599 233.762C337.119 236.032 337.789 237.899 338.344 240.06C338.34 240.679 338.456 241.263 338.693 241.808C338.885 242.931 338.983 243.812 339.042 244.956C339.377 246.096 339.346 247.312 339.042 248.452C339.042 248.687 339.042 248.917 339.042 249.152L338.693 252.299C338.689 252.53 338.71 252.768 338.693 252.998C338.445 253.782 338.33 254.596 338.344 255.446C338.239 256.142 338.103 256.841 337.995 257.544C338.026 258.513 337.911 259.446 337.646 260.342C337.628 260.457 337.663 260.576 337.646 260.691C337.381 261.454 337.266 262.272 337.297 263.139C335.332 275.955 328.767 294.006 322.925 305.58C320.087 311.196 316.297 316.431 313.215 321.91H201.181C204.022 319.4 206.902 316.735 209.928 314.41C218.13 308.115 227.368 303.388 235.559 297.072C247.576 287.806 265.669 272.108 272.447 258.485C276.391 250.558 279.169 243.469 277.807 234.437C277.075 229.58 271.609 216.673 267.327 214.159C257.366 208.312 252.036 203.158 240.62 199.123C238.652 198.427 233.406 197.122 232.059 195.986C229.333 193.692 225.892 193.388 222.478 191.947C213.889 188.317 200.7 176.292 194.899 168.864C189.528 161.99 184.369 151.877 181.986 143.502L181.637 141.754C179.78 134.861 178.855 129.116 177.798 122.164C177.811 121.545 177.696 120.961 177.449 120.416C177.354 119.744 177.211 119.003 177.1 118.318L176.75 115.87C176.614 115.181 176.534 114.464 176.401 113.772L175.703 109.223C173.002 99.6028 168.105 94.9765 161.572 87.8779C156.365 82.2165 151.265 77.4014 145.566 72.6107C143.263 70.6735 141.165 68.4949 138.872 66.5507C136.691 64.7009 130.002 58.9227 129 56.4135C129.056 53.9203 135.015 56.0847 136.771 56.4134C137.661 56.5777 138.67 57.036 140.021 57.4172L141.523 57.9191Z" fill="#FEF3DF"/>
</svg>
