<svg width="375" height="322" viewBox="0 0 375 322" fill="none" xmlns="http://www.w3.org/2000/svg">
<path d="M127.338 66.1373C124.481 68.1038 122.816 63.3968 125.004 61.3606C125.352 61.0363 126.032 60.9736 126.471 60.5621C127.923 59.2023 131.236 54.844 132.02 54.2582C134.145 52.6648 136.197 51.4549 138.503 49.5965C163.005 29.869 195.149 19.3392 225.653 11.9719C268.782 1.55717 321.421 -3.32068 365.288 2.47416C368.518 2.89954 371.751 3.71542 374.994 4.08849L382 113.88C378.983 114.257 368.089 115.038 365.097 115.317C330.339 118.528 297.672 109.578 263.375 105.906C235.526 102.929 206.969 103.267 179.417 99.6268C164.757 97.6882 149.063 95.5544 135.925 88.4102C127.944 84.0693 124.523 75.2306 127.686 66.4895C127.899 65.8967 127.78 65.7782 127.338 66.1408V66.1373Z" fill="#7BAE6C"/>
<path d="M127.301 66.2018L126.952 65.8534C127.203 65.6793 127.457 64.8293 127.994 64.8083C128.248 65.4877 127.426 65.8569 127.301 66.2018Z" fill="#B6D2AE"/>
<path d="M-2 32.9612C-0.81387 32.9299 0.4635 32.5326 1.58295 32.1631C12.6722 28.4966 26.8601 28.6117 38.546 28.4444C42.2833 28.3921 49.4352 27.4197 52.8216 28.528C58.4049 30.3578 62.5493 30.5913 68.2554 31.6682C85.0261 34.8398 103.036 38.6248 117.778 47.317C128.158 53.4371 138.893 60.2089 148.874 66.9773C150.042 67.7684 151.063 69.1242 152.453 70.0443C154.225 71.2188 161.567 74.3137 161.879 76.0354C162.019 76.8057 161.854 77.684 161.556 78.4054L158.373 79.5033C160.047 80.8765 162.321 81.8279 163.984 83.1698C166.02 83.6891 166.722 84.3861 166.09 85.2609C167.139 84.9054 167.617 86.7909 166.792 87.3521C167.501 87.3207 167.61 87.61 167.497 88.2338L170.413 84.5987C170.87 84.1038 171.175 84.062 171.705 84.5604C173.031 85.9614 174.26 87.4357 175.376 89.011C179.52 87.5193 183.699 86.3762 188.065 85.6478C228.709 78.862 269.564 80.5419 310.493 82.8212C328.779 83.8389 345.782 86.662 363.328 91.6912L376.846 96.3928L377 322H-2V32.9612Z" fill="#8BBB7C"/>
<path d="M168.756 82.5821C169.477 83.2614 170.17 83.9546 170.846 84.6723C168.857 85.6268 168.216 88.5809 166.14 89.5494C165.718 89.0443 166.098 88.0549 165.969 87.4592C166.042 86.7729 168.038 82.5472 168.307 82.4741C168.481 82.4288 168.627 82.4497 168.756 82.5821Z" fill="#C3DCBC"/>
<path d="M168.408 82.2337C167.892 83.8501 167.059 85.0624 165.91 85.8706L165.272 85.3724C164.844 84.5503 163.9 83.864 163.182 83.2822C163.607 83.1777 164.746 83.756 164.92 83.6341C165.067 83.5331 165.537 80.6834 165.624 80.147C165.969 79.8404 167.976 81.847 168.408 82.2372V82.2337Z" fill="#F6F9F4"/>
<path d="M168.408 82.2335C168.53 82.3449 168.638 82.4704 168.756 82.5818C167.721 82.3693 168.146 83.1009 167.965 83.6896C167.659 84.6929 167.192 87.3301 165.969 87.459C165.934 87.2917 165.325 85.4663 165.272 85.3688L166.398 84.9263L168.408 82.23V82.2335Z" fill="#DCEBD7"/>
<path d="M143 59.0001L144.719 59.5799C149.592 61.5969 155.114 65.9724 159.444 69.0693C160.608 69.9019 162.081 70.3792 163.154 71.2815C164.269 72.2186 165.295 73.0351 166.5 74.0001C168.033 75.2229 169.634 76.2143 171.174 77.2037C174.11 79.0883 177.249 83.0249 180.252 85.3729C180.788 85.7665 181.276 86.2055 181.645 86.7663C183.171 89.3616 186.118 91.5981 188.069 94.1064C194.173 101.966 198.639 110.42 200.806 120.223C200.792 120.84 200.907 121.422 201.154 121.965C201.283 122.658 201.359 123.334 201.502 124.055L201.851 126.494C204.307 140.39 211.786 147.783 222.052 156.645C231.869 165.117 251.566 167.688 264.208 171.106C264.738 171.349 265.316 171.464 265.95 171.454C274.06 173.746 283.438 177.665 290.924 181.494C309.485 190.987 320.072 199.577 331 217.5C331.47 218.27 332.939 219.831 333.5 220.5C334.061 221.169 334.498 222.779 335 223.5C335.547 224.287 336.996 230.516 337.365 232.091L337.713 234.181C338.232 236.442 338.901 238.302 339.455 240.455C339.452 241.071 339.567 241.653 339.804 242.197C339.995 243.315 340.093 244.193 340.152 245.332C340.486 246.468 340.455 247.68 340.152 248.816C340.152 249.049 340.152 249.279 340.152 249.512L339.804 252.648C339.8 252.878 339.821 253.114 339.804 253.344C339.556 254.125 339.441 254.936 339.455 255.783C339.351 256.476 339.215 257.173 339.107 257.873C339.138 258.838 339.023 259.768 338.758 260.66C338.741 260.775 338.776 260.893 338.758 261.008C338.494 261.768 338.379 262.583 338.41 263.447C336.449 276.215 329.896 294.197 324.064 305.728C321.232 311.323 317.449 316.538 314.373 321.997H202.547C205.383 319.496 208.257 316.841 211.277 314.524C219.464 308.254 228.685 303.544 236.861 297.252C248.856 288.021 266.915 272.383 273.68 258.81C277.617 250.913 280.39 243.851 279.031 234.853C278.3 230.014 272.844 217.156 268.57 214.651C258.627 208.827 253.308 203.692 241.913 199.672C239.948 198.978 234.712 197.679 233.367 196.547C230.647 194.262 227.212 193.958 223.805 192.523C215.231 188.907 202.067 176.927 196.277 169.528C190.915 162.679 185.767 152.604 183.387 144.261L183.039 142.519C181.186 135.652 180.262 129.929 179.207 123.003C179.221 122.387 179.106 121.805 178.859 121.261C178.764 120.593 178.622 119.854 178.51 119.171L178.162 116.733C178.026 116.046 177.946 115.332 177.813 114.643L177.117 110.11C174.42 100.527 169.533 95.9179 163.011 88.8461C157.814 83.206 152.724 78.409 147.035 73.6364C144.736 71.7065 142.642 69.5361 140.354 67.5992C138.176 65.7564 131.5 60 130.5 57.5002C130.556 55.0164 136.504 57.1726 138.257 57.5001C139.145 57.6638 140.152 58.1204 141.5 58.5001L143 59.0001Z" fill="#FEF3DF"/>
<path d="M340.152 248.819C340.159 247.669 340.211 246.481 340.152 245.335C340.73 246.039 340.748 248.049 340.152 248.819Z" fill="#FCFCFC"/>
<path d="M339.804 252.651C339.821 251.665 339.515 250.205 340.152 249.516C340.145 250.498 340.434 251.965 339.804 252.651Z" fill="#FCFCFC"/>
<path d="M177.813 114.642C177.545 113.228 177.092 111.646 177.117 110.11C177.538 111.605 178.082 113.026 177.813 114.642Z" fill="#FCFCFC"/>
<path d="M338.758 260.666C338.898 259.754 338.971 258.768 339.107 257.879C338.995 258.75 339.455 260.067 338.758 260.666Z" fill="#FCFCFC"/>
<path d="M181.645 86.7621L180.252 85.3687C181.154 86.0724 180.816 85.3547 181.645 86.7621Z" fill="#FCFCFC"/>
<path d="M178.51 119.175C178.406 118.541 177.852 117.673 178.162 116.736C178.298 117.415 178.8 118.203 178.51 119.175Z" fill="#FCFCFC"/>
<path d="M201.851 126.493C201.736 125.849 201.199 125.009 201.502 124.055C201.631 124.706 202.143 125.518 201.851 126.493Z" fill="#FCFCFC"/>
<path d="M339.455 255.79C339.539 255.027 339.142 253.842 339.804 253.351C339.73 254.389 339.581 254.961 339.455 255.79Z" fill="#FCFCFC"/>
<path d="M338.41 263.457C338.494 262.694 338.097 261.51 338.759 261.019C338.633 261.82 338.525 262.708 338.41 263.457Z" fill="#FCFCFC"/>
<path d="M337.714 234.18L337.365 232.09C337.553 232.895 337.571 233.56 337.714 234.18Z" fill="#FCFCFC"/>
<path d="M201.154 121.961C200.59 121.665 200.827 120.777 200.806 120.219C200.942 120.833 201.039 121.345 201.154 121.961Z" fill="#FCFCFC"/>
<path d="M179.207 123.006C179.144 122.592 178.956 121.947 178.858 121.265C179.423 121.561 179.186 122.449 179.207 123.006Z" fill="#FCFCFC"/>
<path d="M183.387 144.267C183.175 143.525 183.171 143.01 183.039 142.526L183.387 144.267Z" fill="#FCFCFC"/>
<path d="M265.95 171.45C265.392 171.43 264.504 171.666 264.208 171.102C264.689 171.231 265.218 171.245 265.95 171.45Z" fill="#FCFCFC"/>
<path d="M339.804 242.196C339.239 241.9 339.476 241.012 339.455 240.455C339.647 241.197 339.682 241.479 339.804 242.196Z" fill="#FCFCFC"/>
<path d="M163.68 54.2529C164.394 53.9498 164.785 53.3018 164.83 52.6156C165.147 52.7723 165.485 52.8699 165.851 52.8768C166.913 52.9012 167.732 52.0582 167.711 50.9991C167.693 50.0551 167.004 49.3479 166.164 49.0448C166.216 49.01 166.269 48.9751 166.31 48.9368C166.868 48.463 166.951 47.6374 166.391 47.1253C165.896 46.6724 165.241 46.7073 164.684 46.972C164.405 46.6481 164.029 46.3972 163.6 46.2788C162.98 46.1081 162.242 46.2161 161.869 46.7909C161.506 47.3483 161.674 47.9927 161.931 48.5536C161.419 48.3237 160.827 48.3098 160.305 48.5815C159.618 48.9403 159.197 49.7137 159.312 50.4836C159.469 51.5391 160.336 52.0826 161.266 52.1313C161.217 52.2776 161.189 52.4344 161.189 52.5946C161.172 53.8592 162.513 54.7475 163.677 54.2494L163.68 54.2529Z" fill="#EACF5E"/>
<path d="M162.395 50.3444C162.322 49.794 162.618 49.2575 163.112 49.0137C163.652 48.7489 164.342 48.9057 164.708 49.3864C165.133 49.9473 165.004 50.6754 164.471 51.1073C164.374 51.1875 164.276 51.2118 164.182 51.2014C163.976 51.3582 163.719 51.4453 163.447 51.4244C162.89 51.3791 162.465 50.8844 162.391 50.3479L162.395 50.3444Z" fill="#FFFBD7"/>
<path d="M190.229 72.173C190.943 71.87 191.333 71.222 191.379 70.5357C191.696 70.6925 192.034 70.79 192.399 70.797C193.462 70.8214 194.281 69.9783 194.26 68.9193C194.242 67.9752 193.553 67.268 192.713 66.965C192.765 66.9301 192.817 66.8953 192.859 66.857C193.417 66.3832 193.5 65.5576 192.939 65.0455C192.445 64.5926 191.79 64.6274 191.232 64.8922C190.954 64.5682 190.577 64.3174 190.149 64.199C189.529 64.0283 188.79 64.1362 188.418 64.711C188.055 65.2684 188.223 65.9129 188.48 66.4738C187.968 66.2439 187.376 66.2299 186.853 66.5016C186.167 66.8605 185.746 67.6338 185.861 68.4037C186.017 69.4593 186.885 70.0027 187.815 70.0515C187.766 70.1978 187.738 70.3546 187.738 70.5148C187.721 71.7794 189.062 72.6677 190.226 72.1696L190.229 72.173Z" fill="#EACF5E"/>
<path d="M188.94 68.2643C188.867 67.7139 189.163 67.1774 189.658 66.9336C190.198 66.6688 190.888 66.8256 191.253 67.3063C191.678 67.8672 191.55 68.5953 191.017 69.0273C190.919 69.1074 190.821 69.1318 190.727 69.1213C190.522 69.2781 190.264 69.3652 189.992 69.3443C189.435 69.299 189.01 68.8043 188.937 68.2678L188.94 68.2643Z" fill="#FFFBD7"/>
<path d="M226.386 27.9545C227.1 27.6515 227.49 27.0035 227.535 26.3172C227.852 26.474 228.19 26.5715 228.556 26.5785C229.619 26.6029 230.437 25.7598 230.416 24.7008C230.399 23.7567 229.709 23.0495 228.87 22.7465C228.922 22.7116 228.974 22.6768 229.016 22.6385C229.573 22.1647 229.657 21.3391 229.096 20.827C228.601 20.3741 227.947 20.4089 227.389 20.6737C227.11 20.3497 226.734 20.0989 226.306 19.9804C225.686 19.8097 224.947 19.9177 224.574 20.4925C224.212 21.0499 224.379 21.6944 224.637 22.2553C224.125 22.0254 223.533 22.0114 223.01 22.2831C222.324 22.642 221.902 23.4153 222.017 24.1852C222.174 25.2408 223.042 25.7842 223.972 25.833C223.923 25.9793 223.895 26.1361 223.895 26.2963C223.878 27.5609 225.219 28.4492 226.382 27.9511L226.386 27.9545Z" fill="#EACF5E"/>
<path d="M225.101 24.0466C225.028 23.4962 225.324 22.9597 225.819 22.7158C226.358 22.4511 227.048 22.6078 227.414 23.0886C227.839 23.6494 227.71 24.3775 227.177 24.8095C227.08 24.8896 226.982 24.914 226.888 24.9035C226.682 25.0603 226.425 25.1474 226.153 25.1265C225.596 25.0812 225.171 24.5865 225.097 24.0501L225.101 24.0466Z" fill="#FFFBD7"/>
<path d="M248.333 59.3078C249.047 59.0047 249.437 58.3568 249.483 57.6705C249.8 57.8273 250.138 57.9248 250.503 57.9318C251.566 57.9562 252.385 57.1131 252.364 56.0541C252.346 55.11 251.657 54.4028 250.817 54.0997C250.869 54.0649 250.921 54.0301 250.963 53.9918C251.521 53.518 251.604 52.6924 251.043 52.1803C250.549 51.7274 249.894 51.7622 249.336 52.027C249.058 51.703 248.681 51.4522 248.253 51.3337C247.633 51.163 246.894 51.271 246.522 51.8458C246.159 52.4032 246.327 53.0477 246.584 53.6085C246.072 53.3786 245.48 53.3647 244.957 53.6364C244.271 53.9952 243.85 54.7686 243.965 55.5385C244.121 56.594 244.989 57.1375 245.919 57.1863C245.87 57.3326 245.842 57.4893 245.842 57.6496C245.825 58.9142 247.166 59.8025 248.33 59.3043L248.333 59.3078Z" fill="#EACF5E"/>
<path d="M247.048 55.3991C246.975 54.8487 247.271 54.3122 247.765 54.0683C248.305 53.8036 248.995 53.9604 249.361 54.4411C249.786 55.002 249.657 55.7301 249.124 56.162C249.026 56.2422 248.929 56.2665 248.835 56.2561C248.629 56.4128 248.371 56.4999 248.1 56.479C247.542 56.4338 247.117 55.9391 247.044 55.4026L247.048 55.3991Z" fill="#FFFBD7"/>
<path d="M310.049 73.0649C310.764 72.7618 311.154 72.1139 311.199 71.4276C311.516 71.5843 311.854 71.6819 312.22 71.6888C313.282 71.7132 314.101 70.8702 314.08 69.8112C314.063 68.8671 313.373 68.1599 312.533 67.8568C312.586 67.822 312.638 67.7871 312.68 67.7488C313.237 67.275 313.321 66.4494 312.76 65.9373C312.265 65.4844 311.61 65.5193 311.053 65.784C310.774 65.4601 310.398 65.2092 309.969 65.0908C309.349 64.9201 308.611 65.0281 308.238 65.6029C307.876 66.1603 308.043 66.8048 308.301 67.3656C307.789 67.1357 307.196 67.1218 306.674 67.3935C305.988 67.7523 305.566 68.5257 305.681 69.2956C305.838 70.3511 306.705 70.8946 307.635 70.9433C307.586 71.0897 307.559 71.2464 307.559 71.4067C307.541 72.6712 308.882 73.5596 310.046 73.0614L310.049 73.0649Z" fill="#EACF5E"/>
<path d="M308.761 69.1562C308.688 68.6058 308.984 68.0693 309.479 67.8254C310.019 67.5607 310.708 67.7174 311.074 68.1982C311.499 68.7591 311.37 69.4871 310.837 69.9191C310.74 69.9992 310.642 70.0236 310.548 70.0132C310.343 70.1699 310.085 70.257 309.813 70.2361C309.256 70.1908 308.831 69.6962 308.758 69.1597L308.761 69.1562Z" fill="#FFFBD7"/>
<path d="M361.204 56.1726C361.918 55.8695 362.308 55.2215 362.353 54.5352C362.67 54.692 363.008 54.7895 363.374 54.7965C364.437 54.8209 365.255 53.9779 365.234 52.9188C365.217 51.9748 364.527 51.2676 363.688 50.9645C363.74 50.9297 363.792 50.8948 363.834 50.8565C364.391 50.3827 364.475 49.5571 363.914 49.045C363.419 48.5921 362.764 48.627 362.207 48.8917C361.928 48.5677 361.552 48.3169 361.124 48.1985C360.503 48.0278 359.765 48.1358 359.392 48.7106C359.03 49.2679 359.197 49.9124 359.455 50.4733C358.943 50.2434 358.351 50.2294 357.828 50.5012C357.142 50.86 356.72 51.6334 356.835 52.4032C356.992 53.4588 357.859 54.0022 358.79 54.051C358.741 54.1973 358.713 54.3541 358.713 54.5143C358.696 55.7789 360.037 56.6672 361.2 56.1691L361.204 56.1726Z" fill="#EACF5E"/>
<path d="M359.918 52.2639C359.845 51.7134 360.141 51.177 360.636 50.9331C361.176 50.6683 361.866 50.8251 362.231 51.3058C362.656 51.8667 362.528 52.5948 361.995 53.0268C361.897 53.1069 361.799 53.1313 361.705 53.1208C361.5 53.2776 361.242 53.3647 360.97 53.3438C360.413 53.2985 359.988 52.8038 359.915 52.2673L359.918 52.2639Z" fill="#FFFBD7"/>
<path d="M348.663 18.549C349.377 18.2459 349.767 17.598 349.812 16.9117C350.129 17.0685 350.467 17.166 350.833 17.173C351.896 17.1974 352.714 16.3543 352.693 15.2953C352.676 14.3512 351.986 13.644 351.147 13.341C351.199 13.3061 351.251 13.2713 351.293 13.233C351.85 12.7592 351.934 11.9336 351.373 11.4215C350.878 10.9686 350.223 11.0034 349.666 11.2682C349.387 10.9442 349.011 10.6934 348.583 10.5749C347.962 10.4042 347.224 10.5122 346.851 11.087C346.489 11.6444 346.656 12.2889 346.914 12.8498C346.402 12.6198 345.81 12.6059 345.287 12.8776C344.601 13.2364 344.179 14.0098 344.294 14.7797C344.451 15.8352 345.318 16.3787 346.249 16.4275C346.2 16.5738 346.172 16.7305 346.172 16.8908C346.154 18.1554 347.496 19.0437 348.659 18.5455L348.663 18.549Z" fill="#EACF5E"/>
<path d="M347.377 14.6403C347.304 14.0899 347.6 13.5534 348.095 13.3096C348.635 13.0448 349.325 13.2016 349.69 13.6823C350.115 14.2432 349.986 14.9713 349.453 15.4032C349.356 15.4834 349.258 15.5077 349.164 15.4973C348.959 15.6541 348.701 15.7412 348.429 15.7202C347.872 15.675 347.447 15.1803 347.374 14.6438L347.377 14.6403Z" fill="#FFFBD7"/>
<path d="M18.4119 303.84C18.4119 303.68 18.3806 303.526 18.3353 303.376C19.2654 303.328 20.1329 302.784 20.2896 301.729C20.4046 300.955 19.9831 300.182 19.2968 299.827C18.7742 299.555 18.1855 299.565 17.6699 299.799C17.9277 299.238 18.0949 298.593 17.7326 298.036C17.3599 297.461 16.6213 297.353 16.0012 297.524C15.5728 297.642 15.1965 297.893 14.9178 298.217C14.3604 297.952 13.7055 297.918 13.2108 298.37C12.65 298.883 12.7371 299.708 13.291 300.182C13.3328 300.22 13.385 300.255 13.4373 300.29C12.5977 300.593 11.9079 301.297 11.8905 302.244C11.8696 303.303 12.6848 304.146 13.7508 304.122C14.1131 304.115 14.4545 304.017 14.7715 303.861C14.8168 304.55 15.207 305.195 15.9211 305.498C17.0847 305.993 18.4294 305.104 18.4085 303.843L18.4119 303.84Z" fill="#FCE170"/>
<path d="M17.2134 301.586C17.2866 301.035 16.9905 300.499 16.4958 300.255C15.9558 299.99 15.266 300.147 14.9003 300.628C14.4753 301.188 14.6041 301.917 15.1371 302.349C15.2347 302.429 15.3322 302.453 15.4263 302.443C15.6318 302.599 15.8896 302.686 16.1613 302.666C16.7187 302.62 17.1437 302.126 17.2169 301.589L17.2134 301.586Z" fill="#FFFBD7"/>
<path d="M80.7415 248.01C80.7415 247.85 80.7102 247.697 80.6649 247.547C81.595 247.498 82.4624 246.955 82.6192 245.899C82.7342 245.126 82.3127 244.353 81.6264 243.997C81.1038 243.726 80.5151 243.736 79.9995 243.969C80.2573 243.409 80.4245 242.764 80.0622 242.207C79.6895 241.632 78.9509 241.524 78.3308 241.695C77.9023 241.813 77.5261 242.064 77.2474 242.388C76.69 242.123 76.0351 242.088 75.5404 242.541C74.9796 243.053 75.0666 243.879 75.6205 244.353C75.6623 244.391 75.7146 244.426 75.7669 244.461C74.9273 244.764 74.2375 245.467 74.2201 246.415C74.1992 247.474 75.0144 248.317 76.0804 248.293C76.4427 248.286 76.7841 248.188 77.1011 248.031C77.1464 248.721 77.5366 249.366 78.2507 249.669C79.4143 250.163 80.7589 249.275 80.738 248.014L80.7415 248.01Z" fill="#FCE170"/>
<path d="M79.5396 245.76C79.6127 245.21 79.3166 244.674 78.8219 244.43C78.282 244.165 77.5922 244.322 77.2264 244.802C76.8014 245.363 76.9303 246.091 77.4633 246.523C77.5609 246.603 77.6584 246.628 77.7525 246.617C77.958 246.774 78.2158 246.861 78.4875 246.84C79.0449 246.795 79.4699 246.3 79.5431 245.764L79.5396 245.76Z" fill="#FFFBD7"/>
<path d="M144.548 167.712C144.548 167.552 144.517 167.399 144.472 167.249C145.402 167.2 146.269 166.657 146.426 165.601C146.541 164.828 146.119 164.054 145.433 163.699C144.91 163.427 144.322 163.438 143.806 163.671C144.064 163.11 144.231 162.466 143.869 161.908C143.496 161.334 142.758 161.226 142.137 161.396C141.709 161.515 141.333 161.765 141.054 162.089C140.497 161.825 139.842 161.79 139.347 162.243C138.786 162.755 138.873 163.58 139.427 164.054C139.469 164.093 139.521 164.127 139.574 164.162C138.734 164.465 138.044 165.169 138.027 166.117C138.006 167.176 138.821 168.019 139.887 167.994C140.249 167.987 140.591 167.89 140.908 167.733C140.953 168.423 141.343 169.067 142.057 169.37C143.221 169.865 144.566 168.977 144.545 167.716L144.548 167.712Z" fill="#FCE170"/>
<path d="M143.346 165.458C143.419 164.908 143.123 164.372 142.629 164.128C142.089 163.863 141.399 164.02 141.033 164.5C140.608 165.061 140.737 165.789 141.27 166.221C141.368 166.301 141.465 166.326 141.559 166.315C141.765 166.472 142.022 166.559 142.294 166.538C142.852 166.493 143.277 165.998 143.35 165.462L143.346 165.458Z" fill="#FFFBD7"/>
<path d="M216.997 102.596C216.997 102.435 216.966 102.282 216.921 102.132C217.851 102.084 218.718 101.54 218.875 100.485C218.99 99.7112 218.569 98.9378 217.882 98.5825C217.36 98.3107 216.771 98.3212 216.255 98.5546C216.513 97.9937 216.68 97.3492 216.318 96.7919C215.945 96.2171 215.207 96.1091 214.587 96.2798C214.158 96.3982 213.782 96.649 213.503 96.973C212.946 96.7083 212.291 96.6734 211.796 97.1263C211.235 97.6384 211.323 98.464 211.876 98.9378C211.918 98.9761 211.97 99.011 212.023 99.0458C211.183 99.3489 210.493 100.053 210.476 101C210.455 102.059 211.27 102.902 212.336 102.878C212.699 102.871 213.04 102.773 213.357 102.617C213.402 103.306 213.792 103.951 214.507 104.254C215.67 104.749 217.015 103.86 216.994 102.599L216.997 102.596Z" fill="#FCE170"/>
<path d="M215.796 100.345C215.869 99.795 215.573 99.2585 215.078 99.0146C214.538 98.7499 213.849 98.9066 213.483 99.3874C213.058 99.9483 213.187 100.676 213.72 101.108C213.817 101.188 213.915 101.213 214.009 101.202C214.214 101.359 214.472 101.446 214.744 101.425C215.301 101.38 215.726 100.885 215.799 100.349L215.796 100.345Z" fill="#FFFBD7"/>
<path d="M56.6448 284.143C56.6448 283.983 56.6135 283.829 56.5682 283.679C57.4983 283.631 58.3658 283.087 58.5225 282.032C58.6375 281.258 58.216 280.485 57.5297 280.13C57.0071 279.858 56.4184 279.868 55.9028 280.102C56.1606 279.541 56.3278 278.896 55.9655 278.339C55.5928 277.764 54.8542 277.656 54.2342 277.827C53.8057 277.945 53.4294 278.196 53.1507 278.52C52.5933 278.255 51.9384 278.221 51.4437 278.673C50.8829 279.186 50.97 280.011 51.5239 280.485C51.5657 280.523 51.6179 280.558 51.6702 280.593C50.8306 280.896 50.1409 281.6 50.1234 282.547C50.1025 283.606 50.9177 284.449 51.9837 284.425C52.346 284.418 52.6874 284.32 53.0044 284.164C53.0497 284.853 53.4399 285.498 54.154 285.801C55.3176 286.296 56.6623 285.407 56.6414 284.146L56.6448 284.143Z" fill="#FCE170"/>
<path d="M55.4429 281.889C55.5161 281.339 55.2199 280.802 54.7253 280.558C54.1853 280.294 53.4955 280.45 53.1297 280.931C52.7047 281.492 52.8336 282.22 53.3666 282.652C53.4642 282.732 53.5617 282.757 53.6558 282.746C53.8613 282.903 54.1191 282.99 54.3908 282.969C54.9482 282.924 55.3732 282.429 55.4464 281.893L55.4429 281.889Z" fill="#FFFBD7"/>
<path d="M198.917 309.748C198.917 309.588 198.886 309.434 198.841 309.285C199.771 309.236 200.638 308.692 200.795 307.637C200.91 306.863 200.488 306.09 199.802 305.735C199.28 305.463 198.691 305.474 198.175 305.707C198.433 305.146 198.6 304.502 198.238 303.944C197.865 303.369 197.127 303.261 196.507 303.432C196.078 303.551 195.702 303.801 195.423 304.125C194.866 303.861 194.211 303.826 193.716 304.279C193.155 304.791 193.242 305.616 193.796 306.09C193.838 306.128 193.89 306.163 193.943 306.198C193.103 306.501 192.413 307.205 192.396 308.152C192.375 309.212 193.19 310.055 194.256 310.03C194.618 310.023 194.96 309.926 195.277 309.769C195.322 310.459 195.712 311.103 196.426 311.406C197.59 311.901 198.935 311.013 198.914 309.751L198.917 309.748Z" fill="#FCE170"/>
<path d="M197.719 307.497C197.792 306.947 197.496 306.41 197.002 306.166C196.462 305.902 195.772 306.059 195.406 306.539C194.981 307.1 195.11 307.828 195.643 308.26C195.741 308.34 195.838 308.365 195.932 308.354C196.138 308.511 196.395 308.598 196.667 308.577C197.225 308.532 197.65 308.037 197.723 307.501L197.719 307.497Z" fill="#FFFBD7"/>
<path d="M363.297 310.605C363.297 310.445 363.266 310.291 363.221 310.142C364.151 310.093 365.018 309.549 365.175 308.494C365.29 307.72 364.868 306.947 364.182 306.592C363.659 306.32 363.071 306.33 362.555 306.564C362.813 306.003 362.98 305.359 362.618 304.801C362.245 304.226 361.507 304.118 360.887 304.289C360.458 304.407 360.082 304.658 359.803 304.982C359.246 304.718 358.591 304.683 358.096 305.136C357.535 305.648 357.622 306.473 358.176 306.947C358.218 306.985 358.27 307.02 358.323 307.055C357.483 307.358 356.793 308.062 356.776 309.009C356.755 310.068 357.57 310.911 358.636 310.887C358.998 310.88 359.34 310.783 359.657 310.626C359.702 311.316 360.092 311.96 360.806 312.263C361.97 312.758 363.315 311.869 363.294 310.608L363.297 310.605Z" fill="#FCE170"/>
<path d="M362.099 308.351C362.172 307.801 361.876 307.264 361.381 307.02C360.842 306.756 360.152 306.912 359.786 307.393C359.361 307.954 359.49 308.682 360.023 309.114C360.12 309.194 360.218 309.218 360.312 309.208C360.518 309.365 360.775 309.452 361.047 309.431C361.604 309.386 362.029 308.891 362.103 308.354L362.099 308.351Z" fill="#FFFBD7"/>
<path d="M27.194 241.479C27.9081 241.176 28.2983 240.528 28.3436 239.841C28.6606 239.998 28.9985 240.096 29.3643 240.103C30.4268 240.127 31.2455 239.284 31.2246 238.225C31.2071 237.281 30.5174 236.574 29.6778 236.271C29.7301 236.236 29.7823 236.201 29.8241 236.163C30.3815 235.689 30.4651 234.863 29.9043 234.351C29.4096 233.898 28.7546 233.933 28.1973 234.198C27.9186 233.874 27.5423 233.623 27.1138 233.505C26.4938 233.334 25.7552 233.442 25.3825 234.017C25.0202 234.574 25.1874 235.219 25.4452 235.779C24.9331 235.55 24.3409 235.536 23.8183 235.807C23.132 236.166 22.7105 236.94 22.8255 237.709C22.9822 238.765 23.8497 239.308 24.7798 239.357C24.731 239.503 24.7032 239.66 24.7032 239.82C24.6857 241.085 26.0269 241.973 27.1905 241.475L27.194 241.479Z" fill="#FCE170"/>
<path d="M25.9051 237.57C25.8319 237.02 26.128 236.483 26.6227 236.239C27.1627 235.974 27.8524 236.131 28.2182 236.612C28.6432 237.173 28.5143 237.901 27.9813 238.333C27.8838 238.413 27.7863 238.437 27.6922 238.427C27.4867 238.584 27.2289 238.671 26.9571 238.65C26.3998 238.605 25.9748 238.11 25.9016 237.573L25.9051 237.57Z" fill="#FFFBD7"/>
<path d="M111.509 314.318C112.223 314.015 112.613 313.367 112.659 312.681C112.976 312.838 113.313 312.935 113.679 312.942C114.742 312.967 115.56 312.124 115.539 311.065C115.522 310.121 114.832 309.413 113.993 309.11C114.045 309.075 114.097 309.041 114.139 309.002C114.696 308.528 114.78 307.703 114.219 307.191C113.725 306.738 113.07 306.773 112.512 307.037C112.234 306.713 111.857 306.463 111.429 306.344C110.809 306.174 110.07 306.282 109.697 306.856C109.335 307.414 109.502 308.058 109.76 308.619C109.248 308.389 108.656 308.375 108.133 308.647C107.447 309.006 107.025 309.779 107.14 310.549C107.297 311.605 108.165 312.148 109.095 312.197C109.046 312.343 109.018 312.5 109.018 312.66C109.001 313.925 110.342 314.813 111.505 314.315L111.509 314.318Z" fill="#FCE170"/>
<path d="M110.22 310.41C110.147 309.859 110.443 309.323 110.938 309.079C111.478 308.814 112.167 308.971 112.533 309.452C112.958 310.013 112.829 310.741 112.296 311.173C112.199 311.253 112.101 311.277 112.007 311.267C111.802 311.424 111.544 311.511 111.272 311.49C110.715 311.445 110.29 310.95 110.217 310.413L110.22 310.41Z" fill="#FFFBD7"/>
<path d="M162.614 130.35C163.328 130.047 163.718 129.399 163.764 128.713C164.081 128.87 164.418 128.967 164.784 128.974C165.847 128.999 166.665 128.156 166.644 127.097C166.627 126.152 165.937 125.445 165.098 125.142C165.15 125.107 165.202 125.073 165.244 125.034C165.801 124.56 165.885 123.735 165.324 123.223C164.83 122.77 164.175 122.805 163.617 123.069C163.338 122.745 162.962 122.495 162.534 122.376C161.914 122.206 161.175 122.313 160.802 122.888C160.44 123.446 160.607 124.09 160.865 124.651C160.353 124.421 159.761 124.407 159.238 124.679C158.552 125.038 158.13 125.811 158.245 126.581C158.402 127.637 159.27 128.18 160.2 128.229C160.151 128.375 160.123 128.532 160.123 128.692C160.106 129.957 161.447 130.845 162.61 130.347L162.614 130.35Z" fill="#FCE170"/>
<path d="M161.325 126.441C161.252 125.891 161.548 125.354 162.043 125.111C162.583 124.846 163.273 125.003 163.639 125.483C164.064 126.044 163.935 126.772 163.402 127.204C163.304 127.284 163.207 127.309 163.113 127.298C162.907 127.455 162.649 127.542 162.378 127.521C161.82 127.476 161.395 126.981 161.322 126.445L161.325 126.441Z" fill="#FFFBD7"/>
<path d="M357.94 222.298C358.654 221.995 359.044 221.347 359.089 220.66C359.406 220.817 359.744 220.915 360.11 220.922C361.172 220.946 361.991 220.103 361.97 219.044C361.953 218.1 361.263 217.393 360.423 217.09C360.476 217.055 360.528 217.02 360.57 216.982C361.127 216.508 361.211 215.682 360.65 215.17C360.155 214.717 359.5 214.752 358.943 215.017C358.664 214.693 358.288 214.442 357.859 214.324C357.239 214.153 356.501 214.261 356.128 214.836C355.766 215.393 355.933 216.038 356.191 216.599C355.679 216.369 355.086 216.355 354.564 216.626C353.878 216.985 353.456 217.759 353.571 218.528C353.728 219.584 354.595 220.127 355.525 220.176C355.477 220.323 355.449 220.479 355.449 220.64C355.431 221.904 356.773 222.792 357.936 222.294L357.94 222.298Z" fill="#FCE170"/>
<path d="M356.651 218.389C356.578 217.838 356.874 217.302 357.368 217.058C357.908 216.793 358.598 216.95 358.964 217.431C359.389 217.992 359.26 218.72 358.727 219.152C358.629 219.232 358.532 219.256 358.438 219.246C358.232 219.403 357.974 219.49 357.703 219.469C357.145 219.423 356.72 218.929 356.647 218.392L356.651 218.389Z" fill="#FFFBD7"/>
<path d="M126.196 146.34C126.91 146.037 127.3 145.389 127.346 144.702C127.663 144.859 128 144.957 128.366 144.964C129.429 144.988 130.247 144.145 130.227 143.086C130.209 142.142 129.519 141.435 128.68 141.132C128.732 141.097 128.784 141.062 128.826 141.024C129.383 140.55 129.467 139.724 128.906 139.212C128.412 138.759 127.757 138.794 127.199 139.059C126.921 138.735 126.544 138.484 126.116 138.366C125.496 138.195 124.757 138.303 124.384 138.878C124.022 139.435 124.189 140.08 124.447 140.641C123.935 140.411 123.343 140.397 122.82 140.668C122.134 141.027 121.712 141.801 121.827 142.57C121.984 143.626 122.852 144.169 123.782 144.218C123.733 144.365 123.705 144.521 123.705 144.682C123.688 145.946 125.029 146.834 126.192 146.336L126.196 146.34Z" fill="#FCE170"/>
<path d="M124.907 142.431C124.834 141.881 125.13 141.344 125.625 141.101C126.165 140.836 126.854 140.993 127.22 141.473C127.645 142.034 127.516 142.762 126.983 143.194C126.886 143.274 126.788 143.299 126.694 143.288C126.489 143.445 126.231 143.532 125.959 143.511C125.402 143.466 124.977 142.971 124.904 142.435L124.907 142.431Z" fill="#FFFBD7"/>
<path d="M272.426 162.772C273.141 162.469 273.531 161.821 273.576 161.135C273.893 161.292 274.231 161.389 274.597 161.396C275.659 161.421 276.478 160.578 276.457 159.519C276.44 158.575 275.75 157.867 274.91 157.564C274.962 157.53 275.015 157.495 275.057 157.456C275.614 156.983 275.698 156.157 275.137 155.645C274.642 155.192 273.987 155.227 273.43 155.492C273.151 155.168 272.775 154.917 272.346 154.798C271.726 154.628 270.988 154.736 270.615 155.31C270.253 155.868 270.42 156.512 270.678 157.073C270.166 156.843 269.573 156.829 269.051 157.101C268.364 157.46 267.943 158.233 268.058 159.003C268.215 160.059 269.082 160.602 270.012 160.651C269.963 160.797 269.936 160.954 269.936 161.114C269.918 162.379 271.259 163.267 272.423 162.769L272.426 162.772Z" fill="#FCE170"/>
<path d="M271.137 158.864C271.064 158.314 271.36 157.777 271.855 157.533C272.395 157.268 273.084 157.425 273.45 157.906C273.875 158.467 273.746 159.195 273.213 159.627C273.116 159.707 273.018 159.731 272.924 159.721C272.719 159.878 272.461 159.965 272.189 159.944C271.632 159.899 271.207 159.404 271.134 158.867L271.137 158.864Z" fill="#FFFBD7"/>
<path d="M235.151 146.103C235.865 145.8 236.255 145.152 236.301 144.466C236.618 144.623 236.956 144.72 237.321 144.727C238.384 144.752 239.202 143.909 239.182 142.849C239.164 141.905 238.474 141.198 237.635 140.895C237.687 140.86 237.739 140.825 237.781 140.787C238.339 140.313 238.422 139.488 237.861 138.976C237.367 138.523 236.712 138.558 236.154 138.822C235.876 138.498 235.499 138.248 235.071 138.129C234.451 137.958 233.712 138.066 233.34 138.641C232.977 139.199 233.144 139.843 233.402 140.404C232.89 140.174 232.298 140.16 231.775 140.432C231.089 140.791 230.668 141.564 230.782 142.334C230.939 143.389 231.807 143.933 232.737 143.982C232.688 144.128 232.66 144.285 232.66 144.445C232.643 145.71 233.984 146.598 235.148 146.1L235.151 146.103Z" fill="#FCE170"/>
<path d="M233.862 142.194C233.789 141.644 234.085 141.107 234.58 140.863C235.12 140.599 235.809 140.755 236.175 141.236C236.6 141.797 236.471 142.525 235.938 142.957C235.841 143.037 235.743 143.061 235.649 143.051C235.444 143.208 235.186 143.295 234.914 143.274C234.357 143.229 233.932 142.734 233.859 142.197L233.862 142.194Z" fill="#FFFBD7"/>
<path d="M132.721 98.2028C133.435 97.8998 133.825 97.2518 133.87 96.5655C134.187 96.7223 134.525 96.8198 134.891 96.8268C135.954 96.8512 136.772 96.0081 136.751 94.9491C136.734 94.005 136.044 93.2978 135.205 92.9948C135.257 92.9599 135.309 92.9251 135.351 92.8868C135.908 92.413 135.992 91.5874 135.431 91.0753C134.936 90.6224 134.282 90.6572 133.724 90.922C133.445 90.598 133.069 90.3472 132.641 90.2287C132.021 90.058 131.282 90.166 130.909 90.7408C130.547 91.2982 130.714 91.9427 130.972 92.5036C130.46 92.2737 129.868 92.2597 129.345 92.5314C128.659 92.8903 128.237 93.6636 128.352 94.4335C128.509 95.4891 129.377 96.0325 130.307 96.0813C130.258 96.2276 130.23 96.3844 130.23 96.5446C130.213 97.8092 131.554 98.6975 132.717 98.1993L132.721 98.2028Z" fill="#FCE170"/>
<path d="M131.432 94.2975C131.359 93.7471 131.655 93.2106 132.15 92.9668C132.69 92.702 133.379 92.8588 133.745 93.3395C134.17 93.9004 134.041 94.6285 133.508 95.0605C133.411 95.1406 133.313 95.165 133.219 95.1545C133.014 95.3113 132.756 95.3984 132.484 95.3775C131.927 95.3322 131.502 94.8375 131.428 94.301L131.432 94.2975Z" fill="#FFFBD7"/>
<path d="M282.692 121.968C283.407 121.665 283.797 121.017 283.842 120.331C284.159 120.488 284.497 120.585 284.863 120.592C285.925 120.617 286.744 119.774 286.723 118.715C286.706 117.771 286.016 117.063 285.176 116.76C285.229 116.726 285.281 116.691 285.323 116.652C285.88 116.179 285.964 115.353 285.403 114.841C284.908 114.388 284.253 114.423 283.696 114.688C283.417 114.364 283.041 114.113 282.612 113.994C281.992 113.824 281.254 113.932 280.881 114.506C280.519 115.064 280.686 115.708 280.944 116.269C280.432 116.039 279.839 116.025 279.317 116.297C278.631 116.656 278.209 117.429 278.324 118.199C278.481 119.255 279.348 119.798 280.278 119.847C280.23 119.993 280.202 120.15 280.202 120.31C280.184 121.575 281.525 122.463 282.689 121.965L282.692 121.968Z" fill="#FCE170"/>
<path d="M281.404 118.06C281.33 117.509 281.627 116.973 282.121 116.729C282.661 116.464 283.351 116.621 283.717 117.102C284.142 117.663 284.013 118.391 283.48 118.823C283.382 118.903 283.285 118.927 283.191 118.917C282.985 119.074 282.727 119.161 282.456 119.14C281.898 119.094 281.473 118.6 281.4 118.063L281.404 118.06Z" fill="#FFFBD7"/>
</svg>
