<svg width="350" height="185" viewBox="0 0 350 185" fill="none" xmlns="http://www.w3.org/2000/svg">
<path d="M333.473 2.09363L343.397 9.19214L345.02 22.7369L343.397 37.6921L346.598 51.5381L346.553 66.7946L348.228 83.1921L346.598 97.6921L348.228 117.692L346.377 137.817L349.192 153.192L348.228 168.33L343.397 178.255L333.473 181.898L323.233 181.788L320.364 182.137L317.692 183.297H316.192H314.192H309.443L302.754 183.774L292.514 182.106L282.275 181.584L272.035 182.286L261.799 181.449L251.56 182.12L241.324 181.514L231.084 183.521L220.848 181.31L210.608 182.822L200.372 182.615L190.136 181.206L179.896 182.691L169.66 182.708L159.421 181.355L149.185 183.67L138.949 181.712L128.712 181.656L118.476 182.092L108.237 182.459L98.0007 182.867L87.7646 182.155L77.5285 182.66L67.2924 181.781L57.0562 182.483L46.8201 183.39L36.584 181.552L26.3445 183.196L16.1083 183.293L6.4536 177.981L0.691895 168.33L3.69189 153.692L2.37369 137.817L3.69189 117.692L1.07601 99.1921L3.69189 82.1921L1.07601 66.7946L3.69189 51.6921L2.85816 36.2816L6.13177 21.6921V6.30504L16.1083 0.903228L26.3479 3.156L36.5875 2.46045L46.8271 2.40854L57.0666 1.79949L67.3062 2.83418L77.5458 3.00374L87.7819 1.27004L98.0214 1.53996L108.258 1.28042L118.494 2.45698L128.733 1.13508L138.969 2.81341L149.209 3.04873L159.445 3.00028L169.685 2.94491L179.921 2.32203L190.16 1.24236L200.396 2.39124L210.632 1.42922L220.869 0.795953L231.105 1.20775L241.344 0.692139L251.58 1.5884L261.816 2.30472L272.053 1.39808L282.289 1.76835L292.525 1.18353L302.761 2.83072L312.997 2.08671L323.237 1.7199L333.473 2.09363Z" fill="#FFFDF5" stroke="#E2D29F" stroke-width="1.38419" stroke-linecap="round" stroke-linejoin="round"/>
<path d="M16.7417 17.2367L13.129 17.171L13.0044 13.4994L16.6621 13.6378L16.7417 17.2367Z" fill="#77632A"/>
<path d="M16.7417 170.429L13.129 170.364L13.0044 166.692L16.6621 166.831L16.7417 170.429Z" fill="#77632A"/>
<path d="M338.712 17.2367L335.103 17.171L334.975 13.4994L338.636 13.6378L338.712 17.2367Z" fill="#77632A"/>
<path d="M338.712 170.429L335.103 170.364L334.975 166.692L338.636 166.831L338.712 170.429Z" fill="#77632A"/>
</svg>
