<svg width="234" height="127" viewBox="0 0 234 127" fill="none" xmlns="http://www.w3.org/2000/svg">
<path d="M159.969 61.222C159.21 61.0304 158.266 61.0931 157.263 61.1628C157.047 61.1767 156.82 61.1941 156.597 61.2046C156.677 59.557 156.991 57.9826 157.322 56.3385C157.761 54.1475 158.214 51.8799 158.099 49.3475C157.646 39.6014 152.978 34.0142 144.953 33.6171C141.184 33.429 139.122 34.5855 136.941 35.8116C136.635 35.9823 136.325 36.1564 136.004 36.3306C135.746 34.3904 135.144 32.4851 134.552 30.6285C133.869 28.4828 133.228 26.4555 133.124 24.477C133.089 23.7943 133.211 22.6518 133.35 21.3247C133.771 17.3572 134.346 11.9198 131.762 9.36312C130.811 8.42264 129.553 7.94543 128.021 7.94543C126.373 7.94543 125.091 8.44354 124.203 9.42582C122.043 11.8223 123.081 16.2635 123.917 19.8303C124.165 20.8823 124.394 21.8785 124.443 22.4707C124.631 24.9194 124.043 26.7829 123.419 28.751C122.956 30.2209 122.475 31.7396 122.315 33.5265C122.071 36.2505 122.59 38.9535 123.088 41.5694C123.59 44.1888 124.105 46.8988 123.827 49.567C123.68 50.9603 123.14 52.4302 122.569 53.9873C121.873 55.8822 121.155 57.8432 121.106 59.8391C121.082 60.8841 121.455 62.0545 121.813 63.1866C122.071 63.9982 122.388 65.0048 122.35 65.4716C122.214 65.5761 121.852 65.7328 121.601 65.8408C120.66 66.2449 118.912 67.0007 118.992 68.9758C119.093 71.5917 121.636 71.7833 123.001 71.8878L123.085 71.8947C123.726 71.9435 124.635 71.9679 125.694 71.9679C129.376 71.9679 134.869 71.6927 137.23 71.2712C138.634 71.0239 139.829 70.1949 140.512 69.0036C141.177 67.8367 141.233 66.5166 140.661 65.3775C140.125 64.3117 138.878 63.9668 137.965 63.7125C137.645 63.6255 137.314 63.5314 137.15 63.4478C136.286 63.002 135.517 61.8699 135.088 60.4209C134.656 58.9579 134.106 54.8267 134.357 53.7504C134.75 52.4929 141.003 46.655 143.789 44.4327C143.876 44.363 143.984 44.2759 144.106 44.1784C145.966 42.6736 147.025 41.9665 147.628 41.6426C147.694 42.1616 147.701 42.9558 147.565 43.8928C147.388 45.1502 146.761 46.5609 146.095 48.0518C145.165 50.1452 144.2 52.3118 144.26 54.5167C144.305 56.2514 145.21 57.8746 146.085 59.4455C146.949 60.9921 147.764 62.4551 147.6 63.7404C147.548 63.9146 146.823 64.3117 146.475 64.4998C145.228 65.1825 142.905 66.4504 144.103 69.2091L144.148 69.3171L144.218 69.4146C144.465 69.7699 144.981 70.5014 149.749 70.2959C149.875 70.2889 162.289 69.4356 162.588 64.4371C162.658 63.2876 160.899 61.4693 159.955 61.229L159.969 61.222Z" fill="#B48DD3"/>
<path d="M205.154 24.5954C203.158 22.3382 199.128 22.1675 195.233 22.0003C190.545 21.8018 187.431 21.5162 186.915 19.4541C186.64 18.3464 186.86 17.3049 187.093 16.2007C187.448 14.5252 187.849 12.6234 186.55 10.3418C185.219 8.00108 182.997 7.0815 180.13 7.68411C176.539 8.43997 176.462 12.4422 176.392 15.9778C176.344 18.5345 176.284 21.4326 174.909 22.2999C174.379 22.6308 172.954 23.0732 172.237 23.1707C167.897 23.7663 158.997 27.6014 155.918 29.6043C153.591 31.1195 152.898 33.5439 154.11 35.9334C155.28 38.2393 158.262 40.2561 161.487 39.4515C163.354 38.9847 165.013 37.6193 166.615 36.3026C168.336 34.8849 170.119 33.4185 171.99 33.1886C173.177 33.0423 174.006 33.1294 174.386 33.4429C174.936 33.8992 174.912 35.2193 174.888 36.4977C174.87 37.4417 174.849 38.417 175.016 39.3888C175.135 40.0994 175.191 41.6355 175.239 42.9905C175.281 44.1121 175.32 45.1675 175.389 45.791C176.009 51.0717 175.661 52.6287 174.184 56.408C173.362 58.5085 172.125 59.86 170.924 61.1697C169.064 63.2004 167.137 65.3043 168.095 69.5051C168.538 71.4453 169.743 72.8943 171.585 73.6955C172.589 74.1309 173.759 74.3469 174.982 74.3469C176.594 74.3469 178.294 73.9707 179.813 73.2357C180.858 72.7306 181.802 71.8111 182.711 70.9228C183.624 70.0346 184.568 69.115 185.463 68.7562C186.24 68.4462 186.919 68.6134 187.703 68.8085C188.5 69.007 189.489 69.2508 190.423 68.7214C191.196 68.2825 191.684 67.457 192.001 66.0462C192.837 62.3435 190.747 61.0025 188.904 59.8216C188.061 59.2817 187.194 58.7244 186.438 57.9093C186.348 56.6728 186.63 55.7149 186.957 54.6142C187.309 53.4229 187.365 53.7085 187.204 51.9704C187.009 49.8525 187.037 49.5704 186.703 48.8877C186.511 48.4975 186.407 48.2851 186.71 46.1951C186.755 45.8921 186.8 45.4427 186.853 44.9167C186.975 43.7324 187.156 41.9455 187.399 41.2349C187.622 40.587 187.699 39.4132 187.8 37.5566C187.863 36.4071 187.95 34.8362 188.1 34.3833C188.97 31.7535 190.907 31.8231 194.537 32.1924C195.857 32.3247 197.222 32.4641 198.529 32.3561C200.531 32.1854 203.841 30.4159 204.941 29.1689C206.209 27.7303 206.296 25.8981 205.154 24.6058V24.5954Z" fill="#9CBCAD"/>
<path d="M80.1117 16.8626C79.9793 16.5073 79.8226 16.2426 79.4464 16.0336C79.0946 15.835 78.3352 15.626 77.13 15.3021C76.3637 15.0966 75.1724 14.7796 74.643 14.5532C75.1829 13.0589 75.2595 9.99012 74.3225 8.67344C73.8801 8.04994 73.2357 7.82353 72.5112 8.03601L72.4241 8.06039L68.4393 10.9585C68.1432 11.1257 68.0039 11.1535 67.9412 11.1535C67.7635 11.0107 67.2898 10.4847 66.9658 10.1294C66.52 9.63483 66.095 9.16807 65.8303 8.95211C65.1615 8.4122 64.3603 7.92454 63.5836 7.45082C63.1377 7.17912 62.7162 6.92136 62.3261 6.66012C62.2216 6.59045 62.0614 6.45112 61.8872 6.30482C61.2498 5.76143 60.379 5.0195 59.5465 5.15534C59.1947 5.21456 58.8916 5.42007 58.6687 5.75447C58.0173 6.72978 58.1358 7.59015 58.2403 8.3495C58.2995 8.77794 58.3552 9.182 58.2786 9.60348C58.0208 10.9968 57.6411 11.8293 57.0838 12.2333C56.5439 12.62 55.7253 12.6897 54.5201 12.4528C54.4574 12.4389 54.3494 12.3831 54.2484 12.3274C54.0882 12.2403 53.8862 12.1288 53.6458 12.0766C52.9666 11.9268 52.0853 12.1497 51.4096 12.6409C50.8488 13.0484 50.49 13.5953 50.4029 14.177C50.1173 16.0615 52.054 17.1831 53.2104 17.8519L53.2731 17.8867C53.5344 18.0365 53.8339 18.1653 54.123 18.2907C55.3248 18.8028 55.7845 19.0954 55.5094 19.9592C55.3526 20.4504 54.757 21.4361 54.2345 22.307C53.3393 23.7908 52.7889 24.7313 52.7785 25.3026C52.7646 25.9435 53.2661 26.5078 53.7573 26.6819C54.6943 27.0163 55.9378 26.2221 57.251 25.3792C58.0278 24.8811 58.9056 24.3168 59.3375 24.3063C59.4385 24.3063 59.5116 24.3377 59.5918 24.4178C59.8774 24.7174 60.0167 25.4837 60.0028 26.0863C59.9958 26.4729 59.8809 26.9467 59.7555 27.4517C59.4768 28.5942 59.132 30.0154 60.1804 30.8026C60.487 31.0325 60.797 31.1754 61.107 31.2276C61.3125 31.2624 61.518 31.2589 61.7235 31.2171C62.7859 31.0012 63.5348 29.8378 64.329 28.6117C64.9943 27.5806 65.684 26.5147 66.4155 26.3127C67.4814 26.0166 68.5612 26.8039 69.5121 27.497C70.4178 28.1588 71.2712 28.7823 72.0932 28.3818L72.1698 28.3435L72.2325 28.2808C73.382 27.1487 72.647 25.8668 72.1629 25.0204C72.0131 24.7592 71.8703 24.5119 71.7797 24.2854L71.724 24.1496C71.4349 23.4529 71.0064 22.4184 71.3269 21.8158C71.616 21.7113 72.5077 21.5929 73.0546 21.5197C73.692 21.4361 74.2424 21.363 74.535 21.2689C74.9739 21.1296 75.465 20.8544 75.9422 20.5897C76.2696 20.4086 76.5762 20.2379 76.8409 20.1195C77.0499 20.0289 77.339 19.9418 77.6455 19.8512C78.593 19.5656 79.6693 19.2452 80.0943 18.3743C80.3137 17.9285 80.3172 17.4164 80.1047 16.8522L80.1117 16.8626ZM70.1391 19.2243C69.4947 19.2382 68.7667 19.2521 68.1327 19.8687C67.0007 20.9763 67.7252 21.9969 68.2059 22.6727C68.4393 23.0036 68.6204 23.2718 68.7144 23.5261C68.5507 23.4599 68.3766 23.3868 68.2024 23.3101C66.9867 22.7946 65.6108 22.2059 64.6111 22.8678C64.3569 23.035 64.1548 23.2962 63.9772 23.5226C63.9249 23.5923 63.8518 23.6863 63.7821 23.763C63.6114 23.0663 63.2492 21.8576 62.1485 21.3247C61.828 21.1714 61.5633 21.0808 61.3404 21.0425C60.8179 20.952 60.5044 21.1331 60.163 21.3839C60.0272 21.4849 59.8948 21.5824 59.7067 21.6556C58.7209 22.0457 57.8466 22.3766 57.3381 22.5473C57.5436 22.084 58.0347 21.3456 58.2995 20.9415C58.8115 20.1682 59.1041 19.7154 59.1633 19.3601C59.2992 18.5729 58.8429 17.9041 58.4736 17.3677C58.4005 17.2597 58.2995 17.1134 58.2194 16.981C59.118 16.9671 59.7833 16.7407 60.2362 16.2879C61.0373 15.4902 60.999 14.2084 60.9572 12.9718C60.9293 12.0801 60.898 11.157 61.1627 10.4186C61.2324 10.22 61.3264 10.1817 61.41 10.1608C62.2599 9.94832 64.437 11.5297 65.2939 12.4284C65.4994 12.6444 65.691 12.9927 65.8756 13.3271C66.1751 13.874 66.4886 14.4383 66.9798 14.6821C68.084 15.2255 68.6761 14.4278 69.0279 13.9541C69.1464 13.7938 69.2578 13.6441 69.3763 13.5326C70.4839 12.4876 72.1315 11.1849 72.56 11.1013C72.5878 11.1117 72.6192 11.1535 72.6401 11.1918C72.9675 11.7387 72.8595 13.3689 72.6714 13.8774C72.5321 14.2606 72.1002 14.3895 71.4558 14.5497C70.982 14.6647 70.5362 14.7726 70.2471 15.107C69.7873 15.64 69.6445 16.4167 69.8639 17.1796C70.0973 17.9773 70.6651 18.5659 71.3513 18.7122C71.6264 18.7714 72.0131 18.6565 72.8595 18.3918C73.4482 18.2071 74.7614 17.7961 75.2212 17.8553C75.0993 18.0295 74.4549 18.5799 71.0204 19.1441L70.8288 19.1755C70.6128 19.2103 70.3829 19.2173 70.1391 19.2208V19.2243Z" fill="#D094BA"/>
<path d="M17.9599 74.9844L17.6394 74.7057L17.2179 74.6465L17.0856 74.7649C16.4934 75.2979 15.8177 75.8413 14.905 76.2035C13.773 76.7051 12.5782 77.2555 11.488 77.9103C11.4253 77.5063 11.3556 77.0987 11.2859 76.6947C11.38 76.2662 11.2337 76.0329 11.1327 75.9318C10.9933 75.789 10.7913 75.7333 10.5928 75.7821C10.335 75.8482 10.119 76.0816 10.0006 76.4125C9.71149 76.7156 9.45721 77.036 9.23777 77.3669C9.11585 77.1788 8.98349 76.9385 8.92776 76.8096L8.90686 76.7609L8.87202 76.7191C8.1893 75.904 7.52052 75.061 6.88656 74.2076L6.70543 73.7165C6.57655 73.41 6.39194 73.2323 6.16204 73.1905C6.01923 73.1661 5.80327 73.1835 5.5873 73.4134L5.30168 73.7548L5.31212 73.9046C5.33302 74.2181 5.50371 74.4515 5.64304 74.6361C5.7127 74.7301 5.7754 74.8172 5.81372 74.9008C6.05058 75.4337 6.22126 76.1513 6.38845 76.8445C6.49644 77.2973 6.6079 77.764 6.74027 78.189C6.66712 78.1298 6.59745 78.0706 6.52779 78.0079C6.3989 77.8894 6.15856 77.67 6.04361 77.5446C6.02968 77.5237 6.01575 77.4958 5.99833 77.468C5.90776 77.3042 5.76843 77.0569 5.4828 77.0535C5.38179 77.0535 5.19718 77.0813 5.05785 77.3077C4.82447 77.6909 5.0892 78.0462 5.21808 78.2169C5.24943 78.2587 5.28426 78.3039 5.29819 78.3283C5.43404 78.5965 5.5455 78.9762 5.65 79.3454C5.77192 79.7774 5.9008 80.2232 6.09238 80.5716C6.16204 80.6969 6.24216 80.791 6.30486 80.8607C6.30486 80.8607 6.30486 80.8607 6.30834 80.8641C6.21081 80.9617 5.89035 81.0313 5.65349 81.0801C5.48281 81.1149 5.30516 81.1533 5.14493 81.209C4.58412 81.4041 4.01635 81.6514 3.46599 81.8882C2.8599 82.1495 2.2364 82.4212 1.63379 82.6162C1.40738 82.6894 1.26805 82.6894 1.09389 82.6894C0.961524 82.6894 0.811743 82.6894 0.62713 82.7207C0.240487 82.7904 -0.0172746 83.1074 0.00362503 83.494C0.0245246 83.8632 0.289253 84.1628 0.620163 84.1802C0.783877 84.1907 0.95804 84.121 1.27502 83.9852C1.42828 83.919 1.61986 83.8389 1.71043 83.8214C2.30258 83.7065 3.02362 83.703 3.72027 83.703C4.45524 83.703 5.21459 83.696 5.8799 83.5672C6.04013 83.5358 6.18294 83.4801 6.30834 83.4313C6.58003 83.3268 6.65318 83.3129 6.75071 83.3826C6.72633 83.4348 6.67408 83.5149 6.63925 83.5706C6.5661 83.6856 6.4825 83.8145 6.43025 83.9608C6.25957 84.4275 6.16553 84.9883 6.07496 85.5317C5.9844 86.0751 5.89035 86.6359 5.72315 87.0574C5.70573 87.0992 5.65 87.1863 5.60124 87.2594C5.44101 87.5033 5.25988 87.7819 5.35741 88.078C5.40966 88.2347 5.53157 88.3567 5.70225 88.4228C5.77888 88.4507 5.85203 88.4681 5.91821 88.4751C6.07844 88.489 6.20036 88.4472 6.28396 88.3985C6.58352 88.2313 6.6497 87.8725 6.70543 87.5834C6.72633 87.4754 6.75072 87.35 6.7751 87.2943C6.98758 86.838 7.28365 86.3677 7.56928 85.9114C7.85143 85.4621 8.14054 84.9988 8.36695 84.532C8.43662 84.3892 8.47493 84.2359 8.50976 84.1036C8.5446 83.9712 8.58291 83.8075 8.63168 83.7901C8.63865 83.7901 8.64561 83.7866 8.65258 83.7831C8.67 83.811 8.68741 83.8458 8.70483 83.8737C8.75708 83.9712 8.82326 84.0931 8.92776 84.2011C9.28305 84.5669 9.72194 84.8978 10.1434 85.2182C10.5335 85.5143 10.9411 85.8174 11.2511 86.1343C11.2964 86.1796 11.3417 86.2562 11.3869 86.3398C11.5089 86.5523 11.791 87.0504 12.4319 86.8101L12.526 86.7752L12.7454 86.5105L12.8917 86.1343L12.829 85.9915C12.6583 85.5979 12.5852 85.1904 12.5956 84.7201C12.6305 84.0095 12.6061 83.292 12.519 82.5884L12.512 82.5257L12.4842 82.4699C12.4389 82.3724 12.4145 82.2993 12.4075 82.247C12.4354 82.2505 12.4737 82.2609 12.519 82.2749L12.5991 82.3027L12.6827 82.2923C13.4525 82.2017 14.2188 82.1112 14.9886 82.0241C15.4206 82.1913 15.7724 82.0798 15.9674 81.9091C16.1555 81.7419 16.2252 81.4981 16.1521 81.2752C16.1068 81.1428 15.9465 80.8189 15.3474 80.784L14.9225 80.798C14.1736 80.6273 13.4142 80.4705 12.6618 80.3242C13.2888 79.962 13.8217 79.4848 14.2676 79.0563C15.1315 78.2169 16.0267 77.3495 17.0438 76.5971C17.6742 76.4195 18.0261 76.1757 18.148 75.8273C18.2141 75.6392 18.235 75.3432 17.9668 74.9844H17.9599Z" fill="#B48DD3"/>
<path d="M169.576 8.49218L169.262 7.93834L168.694 7.64923L168.451 7.75025C167.346 8.21352 166.124 8.64893 164.65 8.70814C162.797 8.85444 160.833 9.04602 158.966 9.43266C159.077 8.82658 159.182 8.217 159.279 7.61091C159.624 7.05359 159.533 6.64953 159.443 6.45447C159.318 6.18278 159.056 6.00513 158.753 5.97726C158.356 5.94243 157.935 6.16536 157.604 6.57987C157.046 6.86898 156.524 7.19641 156.05 7.55518C155.974 7.23124 155.904 6.8237 155.886 6.61122L155.88 6.52762L155.852 6.45099C155.284 4.96015 154.758 3.43099 154.284 1.91229L154.274 1.12507C154.242 0.626964 154.072 0.285603 153.765 0.11144C153.577 0.00345878 153.26 -0.0766564 152.839 0.142789L152.264 0.487633L152.205 0.707079C152.079 1.1599 152.205 1.57441 152.309 1.90881C152.361 2.076 152.41 2.23275 152.421 2.3686C152.49 3.23941 152.379 4.34361 152.271 5.40601C152.201 6.10266 152.128 6.82021 152.104 7.48552C152.031 7.36709 151.961 7.24866 151.895 7.12326C151.769 6.88988 151.536 6.46144 151.435 6.22806C151.424 6.19322 151.417 6.14446 151.41 6.09569C151.362 5.82052 151.289 5.40252 150.885 5.25274C150.745 5.20049 150.463 5.15173 150.157 5.40601C149.638 5.83445 149.836 6.4684 149.934 6.77145C149.958 6.8446 149.982 6.93168 149.989 6.96999C150.052 7.41934 150.017 8.01149 149.982 8.58275C149.944 9.25502 149.902 9.94819 150 10.5369C150.035 10.7493 150.104 10.9235 150.157 11.0489C150.157 11.0489 150.157 11.0559 150.16 11.0594C150.16 11.0594 150.16 11.0594 150.157 11.0594C149.968 11.1499 149.481 11.0872 149.122 11.0419C148.861 11.0071 148.589 10.9758 148.338 10.9758C147.443 10.9758 146.52 11.0419 145.625 11.1081C144.639 11.1778 143.618 11.2544 142.667 11.2335C142.309 11.2265 142.114 11.1569 141.866 11.0698C141.678 11.0036 141.466 10.927 141.187 10.8817C140.605 10.7877 140.083 11.1116 139.923 11.6689C139.769 12.2019 139.996 12.7592 140.456 12.9473C140.686 13.0448 140.964 13.0309 141.476 12.996C141.727 12.9786 142.037 12.9577 142.173 12.9786C143.065 13.111 144.089 13.4628 145.078 13.8042C146.119 14.1629 147.199 14.5357 148.202 14.6819C148.443 14.7168 148.673 14.7098 148.878 14.7028C149.314 14.6889 149.425 14.7028 149.53 14.8561C149.467 14.9188 149.359 15.0059 149.279 15.0686C149.118 15.194 148.937 15.3368 148.788 15.5179C148.314 16.0962 147.903 16.8416 147.506 17.5661C147.109 18.2906 146.698 19.0395 146.255 19.555C146.21 19.6073 146.085 19.7013 145.987 19.778C145.639 20.0462 145.245 20.3492 145.238 20.8195C145.235 21.0703 145.346 21.3036 145.559 21.4778C145.656 21.5579 145.75 21.6171 145.841 21.6554C146.06 21.7565 146.255 21.7565 146.395 21.7321C146.9 21.6415 147.175 21.1678 147.394 20.7846C147.478 20.6418 147.572 20.4781 147.638 20.4084C148.164 19.8651 148.815 19.346 149.446 18.841C150.066 18.3463 150.707 17.8343 151.261 17.2805C151.431 17.1098 151.56 16.9147 151.672 16.744C151.783 16.5734 151.926 16.3609 151.999 16.3609C152.01 16.3609 152.02 16.3609 152.031 16.3609C152.041 16.4062 152.051 16.4689 152.058 16.5141C152.086 16.6779 152.118 16.8834 152.212 17.0924C152.532 17.7855 152.988 18.4717 153.431 19.137C153.838 19.7501 154.263 20.3806 154.545 20.9832C154.587 21.0703 154.612 21.2026 154.636 21.3385C154.702 21.7007 154.855 22.5472 155.883 22.5228H156.033L156.475 22.2546L156.865 21.7948L156.848 21.5614C156.803 20.917 156.9 20.3074 157.151 19.6456C157.551 18.6564 157.872 17.6253 158.098 16.5873L158.119 16.4967L158.109 16.4027C158.091 16.2425 158.098 16.1275 158.109 16.0509C158.147 16.0718 158.192 16.1031 158.252 16.1484L158.353 16.225L158.478 16.2529C159.614 16.5072 160.746 16.7615 161.878 17.0157C162.407 17.4651 162.964 17.4825 163.323 17.3362C163.672 17.1934 163.895 16.8834 163.898 16.5281C163.898 16.3191 163.832 15.7792 163.003 15.4309L162.393 15.2428C161.414 14.6332 160.418 14.0306 159.422 13.4524C160.488 13.2468 161.481 12.8358 162.324 12.4492C163.964 11.6863 165.661 10.8991 167.472 10.3383C168.454 10.401 169.074 10.2268 169.419 9.79144C169.604 9.55806 169.785 9.14704 169.583 8.50611L169.576 8.49218Z" fill="#D094BA"/>
<path d="M136.791 107.675C134.537 104.707 128.895 103.516 124.746 104.077C121.51 104.516 119.256 105.937 118.56 107.974C117.779 110.263 118.135 112.245 119.566 114.077C121.057 115.993 121.768 116.916 124.729 117.223C124.258 117.752 122.649 120.431 116.491 120.061C113.338 119.873 109.67 116.484 108.34 114.209C107.389 112.586 105.438 106.163 107.243 103.39C107.695 102.694 108.357 102.342 109.266 102.311C110.813 102.262 112.607 102.436 114.502 102.617C116.602 102.819 118.772 103.032 120.653 102.92C124.534 102.697 130.636 100.207 133.538 96.8524C134.861 95.3197 135.394 93.7244 135.074 92.237C133.726 85.9915 129.003 81.0871 122.747 79.436C116.686 77.8372 110.412 79.5196 105.543 84.0583C104.216 85.2949 103.366 86.73 102.617 87.9979C102.021 89.0081 101.457 89.9625 100.75 90.6452C100.133 91.2443 99.4296 91.5439 98.6842 91.8643C97.385 92.4217 95.9115 93.0556 95.0198 95.3128C93.6021 98.9075 94.6262 100.085 95.807 101.45C96.3295 102.053 96.8729 102.676 97.3014 103.624C97.58 104.237 97.5138 105.111 97.4268 106.219C97.2735 108.194 97.061 110.9 98.6111 114.502C101.596 121.455 104.118 123.339 107.358 125.248C109.472 126.495 112.457 127 115.613 127C120.479 127 125.763 125.802 128.912 124.276C133.893 121.866 137.436 118.334 138.393 114.823C139.066 112.356 138.529 109.946 136.795 107.664L136.791 107.675ZM125.401 92.0176C125.338 92.7526 125.021 93.296 124.46 93.6338C120.629 95.9293 113.638 95.7935 109.761 94.2364C109.284 94.0449 109.047 93.7766 108.998 93.3656C108.8 91.7633 111.346 88.9593 112.739 88.0293C114.815 86.6429 117.034 86.11 118.953 86.11C120.873 86.11 122.391 86.615 123.273 87.3361C124.391 88.2522 125.54 90.3979 125.404 92.0176H125.401Z" fill="#D094BA"/>
<path d="M180.712 103.955C179.507 101.241 176.954 99.5519 172.582 99.6773C168.97 99.7818 164.832 101.238 163.738 104.251C162.913 106.522 163.345 108.699 164.95 110.385C166.173 111.67 166.709 112.276 168.496 112.454C166.786 113.252 161.418 113.398 160.251 113.398C156.988 113.387 154.473 111.698 153.132 109.538L153.02 109.357C150.585 105.453 151.487 101.419 152.693 99.6424C152.884 99.3603 153.264 98.9771 154.326 98.9458C155.908 98.9005 156.033 99.0816 157.98 99.2697C160.297 99.4927 162.69 99.7191 164.766 99.5658C172.478 98.9841 176.201 96.4727 177.967 94.4698C179.813 92.3763 180.496 89.7709 179.89 87.134C178.417 80.7318 173.087 75.6323 165.974 73.821C159.3 72.1246 152.546 73.713 147.436 78.1785C145.977 79.4534 145.12 81.5225 144.361 83.3512C143.762 84.7933 143.197 86.1552 142.49 86.7996C141.888 87.35 141.313 87.6983 140.756 88.0397C139.526 88.7886 138.363 89.4992 137.366 91.8713C135.893 95.3859 137.844 96.9115 139.568 98.2561C140.505 98.9876 141.389 99.6807 141.884 100.694C142.065 101.064 142.205 101.447 142.323 101.844C142.438 105.655 142.668 109.528 143.971 113.137C145.235 116.644 147.489 119.88 150.871 121.615C152.529 122.468 154.358 122.956 156.218 123.06C157.169 123.113 158.555 123.235 159.492 123.078C159.98 122.994 162.857 122.932 163.365 122.82C167.573 121.897 170.52 120.984 173.927 119.434C180.099 116.63 183.342 109.855 180.723 103.958L180.712 103.955ZM155.361 84.5669C157.876 83.1317 160.568 82.5779 162.895 82.5779C165.222 82.5779 167.089 83.1039 168.162 83.8598C169.492 84.7898 170.827 86.8902 170.694 88.5273C170.635 89.2832 170.269 89.8231 169.58 90.1749C164.947 92.5505 156.496 92.4112 151.808 90.8019C151.052 90.5407 150.92 90.1958 150.888 89.9241C150.714 88.3776 153.685 85.5282 155.357 84.5703L155.361 84.5669Z" fill="#7AA2DF"/>
<path d="M93.2122 87.747C92.4981 85.9461 91.3522 84.309 89.8509 82.9888C88.2799 81.6338 86.3084 80.5993 84.3577 79.7947C83.3859 79.3941 82.3723 79.0144 81.3203 78.8402C80.1709 78.6521 78.9691 78.579 77.8057 78.5511C75.8725 78.5024 73.9288 78.7427 72.229 79.6518C71.3477 80.1221 70.557 80.7386 69.8465 81.4074C69.4737 81.7592 69.0941 82.2155 68.697 82.4942C68.6203 82.5464 68.5402 82.5917 68.4601 82.637C68.3173 82.7206 68.4636 82.6509 68.3208 82.6927C68.3069 82.6962 68.2964 82.6997 68.2825 82.7032C68.2616 82.6858 68.2372 82.6614 68.2198 82.644C68.2198 82.6405 68.2128 82.6335 68.2058 82.6231C68.178 82.5813 68.1536 82.5395 68.1292 82.4977C68.0317 82.3235 67.9585 82.0762 67.9028 81.8463C67.7983 81.4213 67.7669 81.0173 67.7669 80.5436C67.7669 79.5264 67.9237 78.5128 68.0526 77.5027C68.2929 75.6078 68.5751 73.3436 67.2897 71.6961C66.0009 70.0415 63.1028 68.9478 60.9014 69.3936C59.2051 69.735 57.7804 70.8879 56.7041 72.1036C56.2756 72.5878 55.8786 73.0963 55.5163 73.6258C54.7604 74.7369 54.8162 75.9213 55.1924 77.1439C55.4919 78.1192 55.6905 79.1119 56.1816 80.0211C56.6518 80.8919 57.237 81.707 57.7595 82.5499C57.9964 82.9366 58.2576 83.372 58.4318 83.7516C58.491 83.877 58.5676 84.0791 58.6164 84.2393C58.6443 84.3264 58.6652 84.4169 58.6861 84.5075C58.6861 84.5145 58.6861 84.5214 58.6896 84.5284C58.6965 84.5876 58.6965 84.6434 58.7 84.7026C58.7732 85.967 59.6474 87.1896 59.9261 88.4262C60.1839 89.5757 60.3615 90.7565 60.1769 91.9304C60.0794 92.5573 59.8634 93.1634 59.7485 93.7869C59.6196 94.494 59.5464 95.2151 59.4872 95.9291C59.3723 97.3468 59.3514 98.7715 59.3165 100.193C59.2817 101.617 59.1284 103.038 59.2643 104.46C59.4001 105.888 59.6509 107.302 59.9331 108.709C60.0445 109.26 60.1525 109.81 60.1525 110.374C60.1525 110.799 60.1038 111.067 59.954 111.499C59.8042 111.931 59.6126 112.307 59.4106 112.725C59.1389 113.29 58.9369 113.864 58.7105 114.443C58.5328 114.899 58.2437 115.418 57.7595 115.648C57.4565 115.791 57.0524 115.749 56.6066 115.798C55.4884 115.923 54.4922 116.449 53.9488 117.39C53.4647 118.229 53.395 119.271 53.914 120.11C54.5375 121.124 55.8019 121.524 56.9862 121.625C58.1775 121.726 59.3792 121.489 60.567 121.625C61.2428 121.705 61.9011 121.886 62.5664 122.005C63.0994 122.099 63.6358 122.148 64.1792 122.179C65.2102 122.238 66.2448 122.28 67.2758 122.322C69.5051 122.412 75.7053 122.625 77.9346 122.562C80.9128 122.475 83.8701 121.987 86.7821 121.43C87.1339 121.364 87.4857 121.294 87.8375 121.225C87.9002 121.211 87.9699 121.204 88.0326 121.186C88.043 121.186 88.0465 121.183 88.0535 121.179C88.1545 121.172 88.2555 121.172 88.3565 121.172C88.8442 121.183 89.3319 121.242 89.823 121.263C90.2967 121.284 90.8227 121.287 91.2511 121.075C91.8224 120.793 92.2926 120.277 92.5225 119.72C92.7524 119.159 92.6932 118.504 92.3309 118.003C91.9478 117.473 91.4009 117.222 90.7286 117.174C90.025 117.121 89.1403 116.895 88.3147 116.919C87.8201 116.937 87.4822 116.675 87.12 116.362C86.6706 115.979 86.2387 115.582 85.7197 115.279C84.7723 114.728 83.7203 114.711 82.6475 114.568C82.1807 114.505 81.7105 114.439 81.2576 114.31C81.2333 114.3 81.2089 114.289 81.1845 114.276C81.1288 114.244 81.0695 114.213 81.0138 114.178C80.9964 114.168 80.8849 114.091 80.871 114.08C80.7804 114.014 80.6934 113.948 80.6063 113.882C80.2336 113.596 79.9201 113.359 79.4603 113.217C79.0388 113.088 78.9865 112.701 78.5511 112.659C78.2342 112.628 76.7468 112.294 75.7367 112.294C73.9846 112.294 72.02 113.011 71.508 113.237C71.0969 113.422 70.9019 113.767 70.6232 114.084C70.4665 114.262 70.2993 114.45 70.0973 114.586C69.9335 114.697 69.8395 114.746 69.6827 114.69C69.6618 114.683 69.5539 114.624 69.5086 114.592C69.519 114.599 69.4494 114.537 69.4285 114.516C69.4285 114.509 69.3797 114.418 69.3727 114.418C69.3623 114.39 69.3518 114.359 69.3449 114.331C69.3449 114.321 69.3275 114.23 69.324 114.209C69.2926 113.809 69.3692 113.537 69.4668 113.126C69.5748 112.666 69.6932 112.21 69.7524 111.743C69.8081 111.304 69.742 110.879 69.6793 110.444C69.5225 109.336 69.31 108.236 69.2334 107.121C69.2021 106.665 69.1916 106.205 69.2648 105.752C69.2961 105.546 69.3414 105.348 69.3867 105.146V105.139C69.4041 105.125 69.425 105.108 69.4563 105.094C69.526 105.059 69.5957 105.024 69.6653 104.989C69.8639 104.888 70.0624 104.784 70.2331 104.644C70.5152 104.411 70.7033 104.094 70.7626 103.749C70.9054 102.951 70.5013 102.161 70.1077 101.475C69.6932 100.753 69.1986 100.074 68.7945 99.3462C68.7492 99.2661 68.7074 99.186 68.6656 99.1024C68.6482 99.0676 68.6308 99.0327 68.6134 98.9979C68.6134 98.9909 68.6099 98.9875 68.6064 98.9805C68.5611 98.8655 68.5228 98.7506 68.4915 98.6356C68.4915 98.6113 68.4706 98.5033 68.4706 98.4615C68.4671 98.364 68.4636 98.2664 68.4636 98.1689C68.4636 97.9564 68.4741 97.7439 68.4915 97.5349C68.6447 95.9013 69.4807 94.1527 70.4839 92.7036C71.5846 91.1188 73.0197 89.6802 74.7091 88.6282C76.294 87.639 78.0948 86.9702 79.9862 87.0851C80.7386 87.1304 81.5955 87.3673 82.1807 87.8584C82.3514 88.0047 82.4002 88.043 82.4803 88.2067C82.4942 88.2346 82.4837 88.2207 82.4872 88.2381C82.4872 88.252 82.4872 88.2729 82.4872 88.2938C82.4768 88.2764 82.4245 88.3739 82.4733 88.3252C82.4002 88.3983 82.435 88.3809 82.4803 88.36C82.4071 88.3948 82.3444 88.4366 82.2713 88.4715C82.2678 88.4715 82.1703 88.5063 82.0692 88.5342C81.9404 88.5725 81.808 88.6038 81.6721 88.6352C80.6968 88.8581 79.7668 88.9835 78.8437 89.3806C78.0287 89.7324 77.2658 90.2375 76.6702 90.868C75.5834 92.0174 75.0156 93.5466 75.1968 95.0757C75.3814 96.6571 76.2452 98.0853 77.6002 99.0606C79.2826 100.269 81.4283 100.572 83.5078 100.51C86.0228 100.436 88.5446 99.8165 90.5196 98.3256C92.1637 97.0856 93.3202 95.3196 93.7277 93.3864C94.1283 91.5019 93.9054 89.5304 93.1913 87.7365L93.2122 87.747ZM68.2859 82.7101C68.2859 82.7101 68.2894 82.7101 68.2929 82.7101C68.2929 82.7101 68.2929 82.7101 68.2859 82.7101ZM68.2825 82.7067C68.3208 82.7067 68.3696 82.6927 68.2825 82.7067V82.7067ZM68.2755 82.7067C68.2685 82.7067 68.2616 82.7067 68.2581 82.7067C68.2511 82.6997 68.2442 82.6962 68.2372 82.6927C68.2442 82.6927 68.2581 82.6997 68.2755 82.7067C68.2755 82.7067 68.2755 82.7067 68.2685 82.6997C68.272 82.6997 68.272 82.7032 68.2755 82.7067ZM69.3867 105.16C69.3588 105.191 69.3623 105.181 69.3867 105.16V105.16ZM69.3971 105.146C69.3971 105.146 69.4006 105.135 69.4041 105.128C69.4494 105.073 69.418 105.118 69.3971 105.146Z" fill="#9CBCAD"/>
<path d="M35.5013 74.5421C37.2046 72.6577 38.0301 71.543 40.8028 70.5085C43.8959 69.3556 48.2605 71.5744 48.8561 74.4307C49.3159 76.6425 50.0195 79.5789 48.0793 81.1255C46.3342 82.5153 40.2315 83.731 41.3636 86.65C41.7711 87.7019 44.2338 87.8796 45.2892 87.9214C46.9717 87.9841 47.2886 88.1339 48.8944 87.6845C49.6259 87.479 50.4201 87.0018 51.0924 86.859C55.6624 85.8871 58.3828 93.3762 54.3318 95.5079C52.2593 96.5982 50.9286 95.7483 48.9014 95.4278C45.756 94.9297 48.5774 94.8252 45.4286 95.4487C42.0916 96.1105 39.3224 94.5953 38.6188 97.6083C38.1729 99.5276 37.4275 104.056 37.6922 105.867C37.8385 106.884 38.7059 108.504 39.0612 109.587C39.7439 111.674 40.3186 111.12 42.5967 112.175C43.9865 112.82 45.1464 111.865 45.6654 110.716C46.6825 108.469 44.9235 107.365 48.3162 106.104C52.315 104.617 53.2276 111.705 52.3568 114.561C52.2384 114.952 51.9667 115.265 51.8587 115.617C51.4929 116.798 51.2805 118.278 50.4723 119.25C49.9812 119.842 47.1806 122.012 46.4457 122.472C44.2965 123.82 36.4766 123.095 34.5016 121.88C31.0287 119.748 30.5271 120.525 29.2906 117.306C28.6949 115.753 27.5699 114.338 27.0334 112.865C26.0477 110.162 27.6883 103.262 28.0296 100.412C28.1829 99.1305 28.9632 96.8455 28.897 95.7448C28.8447 94.8635 28.0505 94.5048 27.1623 94.4873C25.661 94.456 23.7104 94.9994 22.0698 95.083C20.0425 95.1875 16.6428 95.2223 15.5143 93.4354C14.3369 91.5753 15.9392 85.7025 18.0849 85.2184C18.5935 85.1034 19.0881 85.1348 19.5792 85.0337C20.7879 84.7899 21.5264 84.1699 22.8605 84.884C24.2155 85.6085 23.9542 85.9986 25.9536 85.9847C28.263 85.9673 29.9594 85.7234 30.5968 83.515C31.3283 80.9827 30.7988 81.5888 32.0424 79.0181C32.941 77.165 34.2124 75.9772 35.5047 74.5491L35.5013 74.5421Z" fill="#7AA2DF"/>
<path d="M70.8045 43.1506C75.7542 43.9308 75.8169 47.1772 72.3232 50.3435C71.8599 50.765 70.2576 51.486 70.2228 51.9981C70.0695 54.1438 72.3476 53.5238 72.8353 54.6245C73.5389 56.2163 74.5943 61.072 74.0509 62.6987C72.9746 65.9381 64.9143 66.8507 63.4827 64.1164C62.1277 61.5283 64.155 61.3437 64.5938 59.6473C65.3358 56.7841 59.8148 57.7559 59.2192 54.9345C58.3762 50.9496 62.6293 50.4898 64.4232 48.1003C62.2357 46.8986 59.5292 45.8048 60.1074 42.541C60.703 39.1727 64.9248 37.243 66.8719 34.2543C67.6452 33.0665 68.2304 30.3531 69.8327 30.367C71.5046 30.3844 73.8628 35.5814 73.8559 37.0096C73.8524 37.748 73.4657 38.6049 73.1731 39.2633C72.4695 40.8377 71.017 41.611 70.8045 43.1471V43.1506Z" fill="#D094BA"/>
<path d="M215.621 14.034L218.3 17.796C218.491 18.0119 218.77 18.2906 219.056 18.2906C219.32 18.2906 221.034 17.0122 221.595 16.7614C222.689 16.2738 224.058 15.9742 225.2 15.5841C225.858 15.3612 227.677 14.1142 228.046 15.3995C228.467 16.8625 227.496 17.5974 227.363 18.8967C227.074 21.7669 227.785 22.9303 230.31 23.1707C230.568 23.195 230.864 23.0348 231.177 23.0557C232.076 23.1219 233.166 24.2365 233.027 25.3164C232.828 26.842 231.01 27.2914 229.916 27.5805C228.826 27.8696 227.046 27.5735 227.081 29.4266C227.105 30.6667 228.286 34.244 228.088 35.0242C227.997 35.3795 227.614 35.6547 227.294 35.6756C226.061 35.7522 224.333 32.3247 223.218 31.945C222.386 31.6629 221.797 33.0388 221.605 33.7877C221.268 35.0939 221.738 37.3197 220.508 37.8143C217.927 38.8593 218.411 33.1224 216.642 31.9415C214.782 30.7015 210.497 32.0809 209.578 31.1752C208.895 29.8446 210.302 29.04 210.964 28.1552C211.504 27.4342 213.336 27.0789 213.033 26.0862C212.925 25.7343 211.406 25.3721 210.908 25.0098C210.379 24.6232 209.759 23.7976 209.24 23.3344C208.39 22.5715 206.227 21.6798 207.328 20.1124C207.484 19.8859 207.606 19.764 207.864 19.6978C208.648 19.4993 212.584 19.9068 212.828 19.4679C212.493 18.0259 213.785 12.7592 215.628 14.034H215.621Z" fill="#D094BA"/>
<path d="M232.658 53.9976C232.459 53.5238 232.233 53.1755 231.717 52.8969C231.23 52.6321 230.192 52.3639 228.541 51.9459C227.492 51.6812 225.858 51.2667 225.134 50.9706C225.792 48.9712 225.743 44.8714 224.409 43.1228C223.779 42.2938 222.894 41.9977 221.926 42.2903L221.811 42.3251L216.548 46.2334C216.158 46.4563 215.966 46.4981 215.882 46.4981C215.632 46.3065 214.963 45.6099 214.513 45.1396C213.883 44.4848 213.287 43.8647 212.918 43.5826C211.985 42.872 210.873 42.2241 209.797 41.6006C209.181 41.2418 208.595 40.904 208.055 40.5556C207.909 40.4616 207.683 40.2805 207.446 40.0854C206.554 39.3678 205.338 38.3821 204.217 38.5737C203.743 38.6538 203.343 38.9324 203.057 39.3818C202.221 40.6915 202.423 41.841 202.604 42.8511C202.705 43.4224 202.803 43.9623 202.719 44.5266C202.44 46.3866 201.967 47.5082 201.225 48.0482C200.511 48.5706 199.406 48.6717 197.759 48.3651C197.672 48.3477 197.526 48.2746 197.386 48.2014C197.163 48.0865 196.885 47.9402 196.557 47.8705C195.627 47.6789 194.446 47.982 193.555 48.6438C192.813 49.1941 192.356 49.9291 192.266 50.7059C191.97 53.2243 194.652 54.7012 196.254 55.5859L196.341 55.6347C196.7 55.8333 197.114 56.0005 197.515 56.1642C199.166 56.8364 199.807 57.2231 199.476 58.376C199.288 59.0344 198.529 60.3545 197.86 61.5214C196.721 63.5139 196.021 64.7713 196.035 65.5341C196.049 66.391 196.756 67.1365 197.431 67.3663C198.72 67.8052 200.364 66.7289 202.103 65.5934C203.13 64.9211 204.297 64.1583 204.879 64.1408C205.015 64.1374 205.119 64.1826 205.227 64.2871C205.631 64.6842 205.854 65.7048 205.868 66.5129C205.878 67.0285 205.743 67.6659 205.603 68.3382C205.283 69.8639 204.882 71.7657 206.345 72.8072C206.77 73.1103 207.199 73.2984 207.624 73.3645C207.902 73.4098 208.181 73.4029 208.459 73.3471C209.888 73.0476 210.849 71.4905 211.866 69.8395C212.72 68.4566 213.601 67.025 214.583 66.7498C216.015 66.3458 217.516 67.3838 218.84 68.3033C220.101 69.1776 221.288 69.9997 222.382 69.4598L222.487 69.4075L222.57 69.3239C224.071 67.7983 223.016 66.0984 222.312 64.9733C222.096 64.625 221.891 64.2976 221.755 63.998L221.672 63.8204C221.247 62.8938 220.613 61.5179 221.02 60.7098C221.41 60.567 222.612 60.3998 223.35 60.2988C224.211 60.1804 224.953 60.0794 225.343 59.9505C225.932 59.7589 226.583 59.3862 227.217 59.0309C227.649 58.7836 228.06 58.5537 228.412 58.3969C228.69 58.2715 229.077 58.1531 229.488 58.0277C230.759 57.6376 232.201 57.1987 232.734 56.0283C233.01 55.4292 232.989 54.7465 232.675 53.9976H232.658ZM219.258 57.2475C218.387 57.2718 217.398 57.2962 216.572 58.1287C215.092 59.6161 216.126 60.9746 216.809 61.8732C217.143 62.3121 217.401 62.6709 217.54 63.0088C217.314 62.9217 217.077 62.8277 216.833 62.7266C215.161 62.0474 213.266 61.2811 211.943 62.1728C211.605 62.3992 211.344 62.7475 211.114 63.0541C211.044 63.1481 210.95 63.2735 210.863 63.378C210.598 62.4515 210.048 60.8387 208.526 60.1421C208.083 59.94 207.721 59.8216 207.418 59.7728C206.704 59.6579 206.293 59.9017 205.84 60.2431C205.659 60.3789 205.488 60.5078 205.234 60.6123C203.914 61.1452 202.747 61.5911 202.068 61.828C202.325 61.2079 202.952 60.2187 203.294 59.6753C203.949 58.6373 204.325 58.0277 204.391 57.554C204.537 56.4986 203.882 55.6138 203.356 54.8997C203.249 54.7569 203.109 54.5653 202.991 54.3877C204.21 54.3633 205.098 54.0498 205.694 53.4402C206.742 52.3674 206.624 50.6571 206.509 49.0026C206.425 47.8113 206.338 46.5817 206.659 45.5924C206.746 45.3277 206.871 45.272 206.979 45.2441C208.122 44.9515 211.152 47.0415 212.357 48.2328C212.646 48.5184 212.922 48.9782 213.19 49.4275C213.625 50.1555 214.075 50.9044 214.754 51.2249C216.276 51.939 217.039 50.8696 217.495 50.2287C217.648 50.0162 217.791 49.8142 217.944 49.6644C219.393 48.2606 221.564 46.5051 222.138 46.3866C222.18 46.4006 222.222 46.4563 222.253 46.5051C222.723 47.2331 222.657 49.4101 222.431 50.0928C222.26 50.6049 221.678 50.786 220.815 51.002C220.181 51.1587 219.582 51.3085 219.205 51.7613C218.606 52.4789 218.449 53.5169 218.791 54.5305C219.146 55.5929 219.947 56.3697 220.881 56.5647C221.254 56.6414 221.773 56.4846 222.912 56.1189C223.702 55.8646 225.461 55.3038 226.088 55.3769C225.935 55.6138 225.085 56.3523 220.456 57.1395L220.198 57.1848C219.909 57.237 219.595 57.244 219.265 57.2509L219.258 57.2475Z" fill="#7AA2DF"/>
<path d="M118.692 28.3119C119.114 26.5215 118.375 25.5636 117.933 24.9923C117.783 24.8007 117.696 24.6858 117.658 24.5778C117.442 23.9613 117.261 23.3099 117.066 22.6132C116.508 20.6138 115.93 18.5448 114.418 16.7056C112.792 14.7271 109.796 13.5846 107.218 15.2322C104.916 16.7056 105.623 18.8861 105.964 19.9346C106.006 20.06 106.079 20.2899 106.128 20.478C106.02 20.5093 105.867 20.5477 105.658 20.579L104.359 20.7915C98.0401 21.8191 96.5388 22.0629 91.4323 25.9432C90.7531 26.4588 89.9171 26.9046 89.0254 27.3818C88.2103 27.8172 87.3673 28.2666 86.5906 28.8065C84.3891 30.3322 82.2643 32.7635 81.0487 35.146C79.3663 38.4447 79.4429 41.3846 81.2716 43.6452C83.4765 46.3761 91.8747 48.2536 94.6857 48.2814C96.9707 48.3093 98.9596 47.3479 100.879 46.4249C101.495 46.1288 102.084 45.8432 102.648 45.6098C103.126 48.7865 103.209 53.3357 102.429 55.6869C101.938 57.1673 101.593 58.6163 101.259 60.0375C101.018 61.0615 100.788 62.0264 100.513 62.9669C100.109 64.3428 98.8203 66.5512 98.3222 66.7114C97.9843 66.8194 97.6221 66.9483 97.2424 67.0841C95.9919 67.53 94.4384 68.0838 93.4247 67.9654C91.286 67.7181 87.949 66.7811 87.1026 66.0391C86.075 65.1404 84.9917 60.8943 84.8907 59.501C85.5874 59.5812 86.5801 60.2151 87.538 60.8316C88.886 61.6955 90.4152 62.6778 92.324 63.0888C95.2987 63.7332 98.2107 63.0017 99.921 61.1765C101.495 59.4976 101.788 57.2822 100.722 55.0947C99.0154 51.594 91.8468 48.7169 87.74 49.1209C80.6342 49.821 78.4745 53.4611 77.9103 56.394C77.2902 59.6299 76.8757 67.1538 79.5474 69.7593L80.0072 70.2121C82.0623 72.2324 84.619 74.7473 88.172 75.7052C90.1052 76.2277 93.7556 76.273 96.3367 76.273C96.6328 76.273 96.915 76.273 97.1797 76.273H97.7962C102.603 76.273 106.428 71.7726 109.5 68.157C110.054 67.5056 110.576 66.889 111.067 66.3491C113.454 63.7158 113.952 59.3791 114.314 56.2128L114.349 55.9168C114.802 52.0016 114.735 48.0167 114.15 44.0806C113.913 42.4922 113.593 40.8969 113.192 39.3329C113.359 39.218 113.548 39.0995 113.757 38.9672C114.293 38.6293 114.899 38.2427 115.446 37.7446C116.689 36.616 118.762 34.3867 118.692 32.1609C118.664 31.2935 118.323 30.5203 117.7 29.8968C118.205 29.4822 118.536 28.9528 118.685 28.3119H118.692ZM103.474 36.0865C102.039 37.0374 97.1205 39.7614 96.4308 39.9495C94.9016 40.263 92.8291 40.0296 91.7075 39.413C91.4845 39.2911 91.2442 39.1135 91.2268 38.9811C91.1954 38.7303 91.5194 38.0162 92.5086 37.1698C92.7246 36.9852 92.9371 36.7414 93.4073 36.2084C94.2851 35.2018 95.9222 33.3313 97.4688 32.3246C99.2209 31.1856 101.053 30.7815 102.154 30.5412C102.603 30.4436 102.927 30.3705 103.209 30.259C103.216 30.259 103.22 30.2555 103.227 30.252C103.767 30.0396 104.362 30.3914 104.446 30.9626C104.488 31.2448 104.529 31.607 104.564 32.0599C104.62 32.7983 104.711 35.2714 103.481 36.0865H103.474Z" fill="#7AA2DF"/>
<path d="M42.6945 57.6723C43.3737 57.5922 44.2306 57.3554 44.8994 56.8816C47.7731 54.8404 47.3412 52.0782 47.3412 52.0782C46.2927 50.6361 45.185 49.5285 45.3383 47.1076C45.4428 45.467 46.6306 44.3419 48.5359 44.1015C51.333 43.7427 55.2517 45.3311 56.112 47.9122C56.4882 49.0373 56.1051 49.9987 55.8264 50.6953C55.6871 51.0472 55.5512 51.3815 55.5652 51.6114C55.6244 52.7365 55.1088 53.7536 55.2447 54.7394C55.8125 58.7696 54.0499 62.7126 46.1359 64.5831C43.0637 65.3111 42.785 65.0499 39.7058 65.2449C36.4803 65.447 34.8049 64.9628 31.8789 65.7047C30.8653 65.9625 28.8206 67.0179 27.7652 67.5195C26.6575 68.0455 26.6331 69.3308 25.3826 69.6582C25.3513 69.6652 24.2784 69.9439 22.7632 70.1738C19.5969 70.6545 17.1203 71.2849 15.5354 68.5192C13.6998 65.3077 14.6925 62.8171 16.1172 62.0334C16.678 61.7234 16.3923 61.1521 16.6849 60.8282C17.2388 60.2116 17.6289 59.299 17.9215 58.1391C17.8797 57.6584 17.8379 57.1812 17.7961 56.7005C17.6846 55.4256 17.5697 54.1473 17.4582 52.8724C17.4025 52.2349 16.9322 52.6355 16.8765 51.9981C16.8243 51.3955 16.7407 50.7824 16.7511 50.1763C16.7755 49.0861 17.2109 48.2466 17.9528 47.4455C18.2559 47.118 18.6077 46.7906 18.8794 46.4283C19.1441 41.9907 19.0292 37.6192 18.8202 34.9579C18.6565 32.8854 18.2419 30.5342 17.8031 28.0437C16.9775 23.3656 16.1241 18.5309 16.7441 14.5181C17.3015 10.9095 20.5932 7.46103 26.6784 7.89992C29.2944 8.08802 31.757 9.01805 33.6101 10.5193C35.7697 12.2645 36.8983 14.5913 36.8774 17.2455C36.853 20.2411 36.9889 22.5436 35.2159 24.3305C34.2928 25.2605 33.4255 26.1348 32.8159 27.1101C30.1861 31.3214 30.1861 35.8357 30.1861 40.6148C30.1861 42.5027 30.1861 44.4533 30.0154 46.397C29.9492 47.1285 29.7054 48.6576 29.3919 50.5908C29.0366 52.7853 29.1655 54.3458 30.1791 55.9272C30.625 56.6239 33.1608 58.2715 34.0037 58.2157C34.0037 58.2157 39.3366 58.0659 42.698 57.6723H42.6945Z" fill="#7AA2DF"/>
<path d="M220.891 78.6242C220.296 78.2411 219.947 77.8161 219.606 77.4051C219.181 76.893 218.784 76.4089 218.025 76.1267C216.074 75.4092 213.994 74.6429 211.925 73.894C207.871 72.4275 206.659 72.2185 201.859 73.1172C193.056 74.7648 187.511 77.5688 183.429 87.6354C182.892 88.9556 182.523 90.3036 182.168 91.6064C181.945 92.4215 181.715 93.2644 181.447 94.0899C181.161 94.9608 180.9 95.6435 180.67 96.2461C179.966 98.0818 179.541 99.1929 179.775 102.391C180.102 106.912 182.004 111.113 185.581 115.226C188.344 118.403 195.422 118.616 200.107 118.755C200.765 118.776 201.378 118.793 201.918 118.818C202.966 118.866 204.231 118.072 205.241 117.435C205.607 117.205 205.952 116.985 206.22 116.853C207.275 116.331 207.777 116.271 208.306 116.212C208.947 116.139 209.609 116.066 211.1 115.237C214.367 113.422 217.175 109.375 218.429 104.683C219.637 100.161 219.247 95.7549 217.331 92.2717C213.559 85.4062 207.362 82.6265 200.761 84.8419C198.229 85.6918 194.694 87.3045 192.231 90.1747C189.779 93.038 188.974 96.4481 189.841 100.311C190.907 105.055 194.631 109.587 199.096 109.584C199.563 109.584 200.04 109.535 200.521 109.43C203.329 108.824 204.551 106.389 204.513 104.247C204.475 102.133 203.2 99.7851 200.431 99.3009C199.932 99.2138 199.379 99.3532 198.842 99.4855C197.832 99.7363 197.33 99.799 197.09 99.2626C196.446 97.8136 196.707 97.2388 197.825 96.2461C201.552 92.9335 204.656 93.2644 208.54 97.3921C210.926 99.9279 210.755 104.393 208.104 108.765C206.377 111.614 203.6 113.077 199.375 113.363C196.484 113.558 190.451 111.081 188.434 108.866C183.781 103.763 185.477 95.7793 188.612 90.011C190.921 85.7649 194.405 82.7589 198.685 81.3203C202.59 80.0071 206.941 80.0872 210.936 81.5432C214.698 82.9156 217.92 85.4619 220.017 88.7118C222.351 92.3274 223.288 96.7686 222.734 101.555C221.78 109.793 217.795 115.697 214.27 117.895C213.517 118.365 212.357 118.616 211.128 118.884C209.118 119.323 207.038 119.776 206.161 121.298C205.363 122.684 205.258 124.213 205.892 125.293C206.387 126.139 207.279 126.603 208.379 126.603C208.54 126.603 208.707 126.592 208.874 126.571C210.929 126.328 212.518 125.802 213.876 124.91C214.677 124.384 215.541 123.921 216.377 123.471C217.687 122.768 219.038 122.04 220.278 121.026C225.597 116.672 230.16 106.988 230.244 99.8791C230.327 92.5399 227.081 82.5917 220.891 78.6173V78.6242Z" fill="#B48DD3"/>
<path d="M22.5295 104.815C22.7698 105.25 26.6572 104.846 27.4339 105.045C27.6882 105.108 27.8066 105.23 27.9634 105.452C29.0502 107.006 26.9114 107.884 26.0754 108.636C25.5634 109.096 24.9503 109.911 24.4279 110.294C23.9367 110.653 22.4354 111.012 22.3309 111.357C22.0314 112.339 23.8427 112.687 24.3756 113.398C25.0305 114.272 26.4203 115.066 25.7445 116.383C24.8354 117.278 20.5998 115.913 18.7641 117.139C17.0155 118.306 17.4927 123.973 14.9429 122.942C13.7307 122.451 14.194 120.253 13.8596 118.964C13.668 118.226 13.0863 116.864 12.2643 117.146C11.1636 117.522 9.4533 120.908 8.23764 120.831C7.92066 120.81 7.54098 120.535 7.45042 120.187C7.25187 119.417 8.41877 115.881 8.44315 114.655C8.47798 112.827 6.71893 113.116 5.6426 112.83C4.56279 112.544 2.76542 112.099 2.57036 110.594C2.43103 109.524 3.50736 108.424 4.39559 108.361C4.7056 108.337 4.99471 108.497 5.25248 108.472C7.7465 108.236 8.45012 107.083 8.16449 104.247C8.03561 102.965 7.07771 102.237 7.49222 100.792C7.85796 99.5239 9.65184 100.754 10.3032 100.976C11.4318 101.36 12.7868 101.659 13.8666 102.14C14.4204 102.387 16.1133 103.648 16.3745 103.648C16.6532 103.648 16.9284 103.373 17.12 103.16L19.7673 99.4438C21.589 98.1829 22.8674 103.387 22.5364 104.812L22.5295 104.815Z" fill="#9CBCAD"/>
</svg>
