<svg width="350" height="87" viewBox="0 0 350 87" fill="none" xmlns="http://www.w3.org/2000/svg">
<path d="M348.692 37.3075L346.553 26.7946L346.643 16.2816L344.467 5.29112L333.473 2.09363L323.237 1.7199L312.997 2.08671L302.761 2.83072L292.525 1.18353L282.289 1.76835L272.053 1.39808L261.816 2.30472L251.58 1.5884L241.344 0.692139L231.105 1.20775L220.869 0.795953L210.632 1.42922L200.396 2.39124L190.16 1.24236L179.921 2.32203L169.685 2.94491L159.445 3.00028L149.209 3.04873L138.969 2.81341L128.733 1.13508L118.494 2.45698L108.258 1.28042L98.0214 1.53996L87.7819 1.27004L77.5458 3.00374L67.3062 2.83418L57.0666 1.79949L46.8271 2.40854L36.5875 2.46045L26.3479 3.156L16.1083 0.903228L6.13177 6.30504L2.85816 16.2816L1.07601 26.7946L2.16952 37.304L2.37369 47.817L0.691895 58.3299L6.4536 67.9812L16.1083 73.2931L26.3445 73.1962L36.584 71.5524L46.8201 73.39L57.0562 72.4833L67.2924 71.7808L77.5285 72.6598L87.7646 72.1546L98.0007 72.8674L108.237 72.4591L118.476 72.0923L128.712 71.6563L138.949 71.7116L149.185 73.6703L159.421 71.3552L169.66 72.7082L179.896 72.6909L190.136 71.2064L200.372 72.6148L210.608 72.8224L220.848 71.3102L231.084 73.5215L241.324 71.5144L251.56 72.12L261.799 71.4486L272.035 72.2861L282.275 71.5836L292.514 72.1061L302.754 73.7741L309.443 73.2965L312.54 79.2866L322.666 86.1868L320.364 77.4456V72.1373L323.233 71.7878L333.473 71.8985L343.397 68.2546L348.228 58.3299L346.377 47.817L348.692 37.3075Z" fill="#FFFDF5" stroke="#E2D29F" stroke-width="1.38419" stroke-linecap="round" stroke-linejoin="round"/>
<path d="M16.7417 17.2367L13.129 17.171L13.0044 13.4994L16.6621 13.6378L16.7417 17.2367Z" fill="#77632A"/>
<path d="M16.7417 63.1436L13.129 63.0778L13.0044 59.4062L16.6621 59.5447L16.7417 63.1436Z" fill="#77632A"/>
<path d="M338.712 17.2367L335.103 17.171L334.975 13.4994L338.636 13.6378L338.712 17.2367Z" fill="#77632A"/>
<path d="M338.712 63.1436L335.103 63.0778L334.975 59.4062L338.636 59.5447L338.712 63.1436Z" fill="#77632A"/>
</svg>
