<svg width="168" height="35" viewBox="0 0 168 35" fill="none" xmlns="http://www.w3.org/2000/svg">
<path d="M159.492 34.0757L156.061 34.1066C155.704 34.1066 155.35 34.1409 154.997 34.1958L151.781 34.714C150.992 34.841 150.185 34.8341 149.396 34.6934L146.586 34.189C145.964 34.0757 145.33 34.0483 144.702 34.1066L140.711 34.4601L136.321 34.7621C135.958 34.7861 135.59 34.7827 135.227 34.7518L131.315 34.4155C130.995 34.388 130.673 34.3812 130.354 34.3983L126.318 34.5973C126.037 34.6111 125.755 34.6076 125.474 34.5905L121.349 34.3022C121.091 34.2851 120.831 34.2816 120.57 34.2919L116.023 34.4738L111.085 34.6488L106.146 34.8582L101.864 34.8341C101.428 34.8341 100.992 34.7895 100.566 34.7072L97.7284 34.165C96.7675 33.9796 95.7792 33.9968 94.8217 34.213L92.5705 34.7209C91.7503 34.9062 90.9061 34.944 90.0722 34.8341L86.8636 34.412C86.5513 34.3709 86.2356 34.3503 85.9199 34.3503L81.9631 34.3571C81.6268 34.3571 81.2905 34.3811 80.9576 34.4292L77.5156 34.9268C76.8567 35.0229 76.1875 35.0263 75.5287 34.9337L71.9974 34.4464C71.7229 34.4086 71.4484 34.388 71.1704 34.3811L67.2411 34.3022C66.8464 34.2954 66.4518 34.3194 66.0606 34.3777L62.9858 34.8307C62.1416 34.9542 61.2802 34.9268 60.4463 34.7483L58.202 34.2645C57.2582 34.062 56.2836 34.0517 55.3331 34.237L52.7147 34.7483C52.1278 34.865 51.5273 34.9028 50.9302 34.8685L47.3337 34.6557C47.0386 34.6385 46.7435 34.6385 46.4484 34.6557L42.4744 34.9165C42.1244 34.9405 41.7744 34.9371 41.4278 34.9096L37.5431 34.5905C37.1896 34.563 36.8327 34.5596 36.4758 34.5836L32.4916 34.8547C32.2102 34.8753 31.9254 34.8753 31.644 34.8616L27.5225 34.6523C27.2617 34.6385 26.9974 34.6111 26.74 34.5699L23.0098 33.9625C22.4641 33.8733 21.9082 33.8492 21.3591 33.887L17.2514 34.1821L12.7799 34.7312C12.4676 34.7689 12.1519 34.7861 11.8361 34.7827L8.88487 34.7518C7.88281 34.7415 6.89791 34.5184 5.9885 34.0998L5.23696 33.7531C3.47306 32.9398 2.1141 31.4402 1.4861 29.6042L0.974777 28.1148C0.854668 27.7648 0.762011 27.4045 0.696809 27.0373L0.144304 23.9041C-0.0169866 22.9879 0.00360367 22.0476 0.202643 21.1382L0.693377 18.9179C0.906143 17.9467 0.916438 16.9446 0.717399 15.97L0.134009 13.108C0.0447842 12.6275 -0.00325974 12.1299 0.000171969 11.6358L0.0173305 9.45665C0.0276256 8.05651 0.453158 6.69412 1.23559 5.5342L2.05577 4.32281C2.67347 3.40998 3.49365 2.65157 4.45453 2.10936L5.62474 1.45047C6.7675 0.805308 8.06469 0.489591 9.3756 0.537635L12.0523 0.633723C12.2239 0.640587 12.3955 0.640587 12.5637 0.633723L17.2445 0.465569L21.3523 0.167011C21.9013 0.12583 22.4573 0.149852 22.9995 0.239077L26.3523 0.777855C26.8602 0.860216 27.3783 0.88767 27.8931 0.856784L31.7229 0.637155C31.946 0.623428 32.169 0.623428 32.3886 0.630291L36.5479 0.781287C36.843 0.791582 37.1416 0.781287 37.4333 0.757265L41.366 0.40723C41.7401 0.372913 42.1141 0.369482 42.4882 0.396935L46.8636 0.702357L51.3111 1.09357C51.6371 1.12103 51.9631 1.12789 52.2926 1.11073L56.4175 0.901396C56.6337 0.891101 56.8464 0.891101 57.0626 0.901396L61.3145 1.07298C61.5547 1.08328 61.7984 1.07985 62.0386 1.06612L66.6131 0.784718L70.8204 0.390072C71.3077 0.34546 71.795 0.348891 72.2823 0.403799L75.7208 0.791582C76.2322 0.849921 76.7469 0.849921 77.2582 0.798445L81.4278 0.359186L86.167 0.0709228C86.2974 0.0640594 86.4278 0.057196 86.5616 0.057196L91.3042 0.033174L96.2562 0.00228863L100.697 0.10524C101.026 0.112103 101.356 0.142989 101.682 0.197896L105.103 0.757265C105.786 0.870511 106.479 0.880806 107.166 0.791582L110.21 0.396935C110.783 0.321438 111.359 0.318006 111.936 0.38664L115.515 0.798445C115.844 0.836194 116.177 0.849921 116.51 0.843057L120.951 0.729811L125.196 0.843057C125.656 0.856784 126.119 0.822467 126.572 0.74697L130.179 0.136125C130.611 0.0640594 131.047 0.0297423 131.486 0.0366057L135.467 0.101808C135.666 0.101808 135.865 0.115535 136.064 0.136125L140.137 0.54793C140.515 0.585679 140.896 0.592543 141.277 0.571952L145.453 0.321438C145.584 0.314574 145.711 0.311142 145.841 0.307711L150.364 0.283689C150.512 0.283689 150.662 0.276825 150.81 0.26653L154.513 0.0160155C155.185 -0.0285968 155.865 0.0194472 156.524 0.167011L160.247 0.987189C160.395 1.01807 160.542 1.05582 160.687 1.10044L162.337 1.57744C164.249 2.12995 165.841 3.45459 166.73 5.23564C167.402 6.58431 167.632 8.11485 167.378 9.60078L167.069 11.4264C166.963 12.0613 166.943 12.7065 167.008 13.3482L167.402 17.154C167.423 17.353 167.437 17.552 167.44 17.7511L167.519 21.8897C167.526 22.3118 167.498 22.7339 167.43 23.1526L166.764 27.3118C166.733 27.504 166.695 27.6927 166.651 27.8815L166.469 28.6227C165.862 31.097 163.978 33.0599 161.531 33.7669L161.397 33.8046C160.779 33.9831 160.137 34.0757 159.492 34.0826V34.0757Z" fill="#7AA2DF"/>
</svg>
