<svg width="97" height="117" viewBox="0 0 97 117" fill="none" xmlns="http://www.w3.org/2000/svg">
<path d="M9.21749 33.1091L7.96338 113.979L38.414 116.149L82.329 115.867L84.6735 35.0739L9.21749 33.1091Z" fill="#D0E3FC"/>
<path d="M32.9448 115.759L33.1643 73.5891L58.912 74.1604L58.595 116.02L38.4142 116.149L32.9448 115.759Z" fill="#6995D6"/>
<path d="M58.5325 51.3351L56.2263 64.8343L44.1973 63.9668L45.6116 50.6418L58.5325 51.3351Z" fill="#F9E9AA"/>
<path d="M61.0404 36.6517L58.5322 51.3353L45.6113 50.6421L47.2068 35.739L61.0404 36.6517Z" fill="#F9E9AA"/>
<path d="M45.6117 50.6423L44.1973 63.9673L33.8474 63.2184L33.6279 49.9944L45.6117 50.6423Z" fill="#F9E9AA"/>
<path d="M47.2071 35.7391L45.6116 50.6422L33.6278 49.9942L33.3735 34.8298L47.2071 35.7391Z" fill="#F9E9AA"/>
<path d="M46.166 35.6344L43.1543 63.8625L45.2465 64.0858L48.2583 35.8577L46.166 35.6344Z" fill="#C3D6E2"/>
<path d="M33.6856 48.9698L33.5742 51.0605L58.4819 52.3877L58.5933 50.297L33.6856 48.9698Z" fill="#C3D6E2"/>
<path d="M0 32.4503L51.0844 0L96.5635 39.334L0 32.4503Z" fill="#6995D6"/>
<path d="M38.282 97.6051C39.3922 97.6051 40.2921 96.7052 40.2921 95.595C40.2921 94.4849 39.3922 93.585 38.282 93.585C37.1719 93.585 36.272 94.4849 36.272 95.595C36.272 96.7052 37.1719 97.6051 38.282 97.6051Z" fill="#F9E9AA"/>
</svg>
