<svg width="86" height="106" viewBox="0 0 86 106" fill="none" xmlns="http://www.w3.org/2000/svg">
<path d="M7.79341 27.7854L6.62988 103.119L34.8928 104.861L51.6004 104.753L75.6516 103.119L77.8289 29.6108L7.79341 27.7854Z" fill="#FFF8DC"/>
<path d="M29.8135 105.987L30.019 65.3567L53.9204 65.8897L53.6243 104.739L34.8927 104.861L29.8135 105.987Z" fill="#68AF8B"/>
<path d="M53.5649 44.7053L51.4259 57.2325L40.2573 56.4313L41.5742 44.0608L53.5649 44.7053Z" fill="#FEE45B"/>
<path d="M55.8955 31.0772L53.565 44.7053L41.5742 44.0608L43.0548 30.2307L55.8955 31.0772Z" fill="#FEE45B"/>
<path d="M41.5741 44.0611L40.2572 56.4316L30.6528 55.7348L30.4473 43.4619L41.5741 44.0611Z" fill="#FEE45B"/>
<path d="M43.0546 30.2308L41.5741 44.0609L30.4473 43.4617L30.2139 29.3843L43.0546 30.2308Z" fill="#FEE45B"/>
<path d="M42.0964 30.1309L39.3013 56.3291L41.2411 56.5361L44.0363 30.3379L42.0964 30.1309Z" fill="#FFF6D2"/>
<path d="M30.5214 42.4998L30.418 44.4409L53.5341 45.6726L53.6375 43.7315L30.5214 42.4998Z" fill="#FFF6D2"/>
<path d="M0 28.5901L17.1988 5.65723L74.5294 8.52428L85.9976 34.3242L0 28.5901Z" fill="#E6A23E"/>
<path d="M35.0042 85.6732C36.1143 85.6732 37.0143 84.7733 37.0143 83.6631C37.0143 82.553 36.1143 81.6531 35.0042 81.6531C33.8941 81.6531 32.9941 82.553 32.9941 83.6631C32.9941 84.7733 33.8941 85.6732 35.0042 85.6732Z" fill="#F9E9AA"/>
<path d="M70.4221 0H57.5918V15.8506H70.4221V0Z" fill="#E6A23E"/>
</svg>
