<svg width="86" height="99" viewBox="0 0 86 99" fill="none" xmlns="http://www.w3.org/2000/svg">
<path d="M94.1493 49.8265L91.1046 94.6717L21.4384 98.3016L3.46975 91.606L3.23633 45.6113L15.7148 13.3979L94.1493 49.8265Z" fill="#FFFBD7"/>
<path d="M16.5927 19.3726L20.3097 49.7919L87.6558 52.0981L97.7793 52.0458L86.5201 2.41417L16.2338 0L0 45.6254L3.84944 50.4642L7.3749 50.1542L16.5927 19.3726Z" fill="#D094BA"/>
<path d="M18.7945 97.8352L18.6482 69.5444L7.57715 65.1968L7.71997 93.1915L18.7945 97.8352Z" fill="#B48DD3"/>
<path d="M62.0195 70.7458L62.7581 80.204L71.1154 80.3677L70.9795 71.0838L62.0195 70.7458Z" fill="#FEE45B"/>
<path d="M61.2188 60.4551L62.02 70.7458L70.9799 71.0837L70.8232 60.7024L61.2188 60.4551Z" fill="#FEE45B"/>
<path d="M70.9795 71.084L71.1154 80.3679L78.3021 80.5073L79.2915 71.3975L70.9795 71.084Z" fill="#FEE45B"/>
<path d="M70.8232 60.7026L70.98 71.0839L79.292 71.3975L80.4242 60.9465L70.8232 60.7026Z" fill="#FEE45B"/>
<path d="M71.5444 60.6928L70.0884 60.7144L70.3802 80.3809L71.8362 80.3593L71.5444 60.6928Z" fill="#B48DD3"/>
<path d="M62.0448 70.0091L61.9893 71.4607L79.2591 72.1211L79.3146 70.6695L62.0448 70.0091Z" fill="#B48DD3"/>
<path d="M34.7773 70.8818L35.5159 80.3435L43.8697 80.5072L43.7373 71.2232L34.7773 70.8818Z" fill="#FEE45B"/>
<path d="M33.9766 60.5911L34.7778 70.8818L43.7378 71.2232L43.5775 60.8384L33.9766 60.5911Z" fill="#FEE45B"/>
<path d="M43.7373 71.2234L43.8697 80.5073L51.06 80.6432L52.0493 71.5334L43.7373 71.2234Z" fill="#FEE45B"/>
<path d="M43.5771 60.8384L43.7374 71.2232L52.0494 71.5332L53.1816 61.0857L43.5771 60.8384Z" fill="#FEE45B"/>
<path d="M44.3037 60.8322L42.8477 60.8538L43.1394 80.5203L44.5954 80.4987L44.3037 60.8322Z" fill="#B48DD3"/>
<path d="M34.7997 70.1511L34.7441 71.6028L52.0139 72.2632L52.0694 70.8116L34.7997 70.1511Z" fill="#B48DD3"/>
<path d="M51.781 81.4656L34.7633 81.1347L33.0981 59.7625L54.0767 60.3024L51.781 81.4691V81.4656ZM36.2613 79.5496L50.3353 79.8214L52.2826 61.8701L34.8504 61.4242L36.2648 79.5496H36.2613Z" fill="#B48DD3"/>
<path d="M79.027 81.3292L62.0128 80.9982L60.3477 59.626L81.3262 60.1659L79.0305 81.3326L79.027 81.3292ZM63.5073 79.4097L77.5813 79.6814L79.5287 61.7301L62.093 61.2842L63.5073 79.4097Z" fill="#B48DD3"/>
</svg>
