<svg width="97" height="120" viewBox="0 0 97 120" fill="none" xmlns="http://www.w3.org/2000/svg">
<path d="M96.5809 10.4823L85.5621 11.6215L62.1624 14.0426L47.1025 15.6068L32.0392 17.171L0 20.4839L43.5178 0L96.5809 10.4823Z" fill="#D15059"/>
<path d="M85.562 11.6216L91.3274 115.79H72.1987L69.2341 116.138L66.9349 62.8975L38.2539 67.6632L41.7062 119.416L40.1595 119.601L21.9922 115.313L14.7671 18.9651L32.0391 17.171L35.1012 33.4537L37.7732 47.6461L49.0532 46.5522L62.1622 45.2702V30.3149V14.0427L85.562 11.6216Z" fill="#EFA1D3"/>
<path d="M66.9349 62.8975L69.2341 116.138L41.7062 119.416L38.2539 67.6631L66.9349 62.8975Z" fill="#D15059"/>
<path d="M62.1621 30.3149V45.2703L49.0531 46.5523L48.1265 31.9418L62.1621 30.3149Z" fill="#9EE0EF"/>
<path d="M62.1624 14.043V30.3151L48.1267 31.942L47.1025 15.6071L62.1624 14.043Z" fill="#9EE0EF"/>
<path d="M48.1265 31.9419L49.0531 46.5524L37.773 47.6462L35.1011 33.4538L48.1265 31.9419Z" fill="#9EE0EF"/>
<path d="M47.1024 15.6069L48.1266 31.9418L35.1012 33.4537L32.0391 17.1711L47.1024 15.6069Z" fill="#9EE0EF"/>
<path d="M48.2536 15.5281L45.9624 15.6726L47.9146 46.6156L50.2058 46.4711L48.2536 15.5281Z" fill="#EFA1D3"/>
<path d="M62.0301 29.168L34.9712 32.3228L35.2362 34.5961L62.2952 31.4413L62.0301 29.168Z" fill="#EFA1D3"/>
<path d="M45.9564 92.2543C46.9819 92.2543 47.8132 91.423 47.8132 90.3976C47.8132 89.3721 46.9819 88.5408 45.9564 88.5408C44.9309 88.5408 44.0996 89.3721 44.0996 90.3976C44.0996 91.423 44.9309 92.2543 45.9564 92.2543Z" fill="#EFA1D3"/>
</svg>
