<svg width="87" height="113" viewBox="0 0 87 113" fill="none" xmlns="http://www.w3.org/2000/svg">
<path d="M26.8609 -5.41668e-05L12.9253 0.676636L13.8792 20.3222L27.8149 19.6455L26.8609 -5.41668e-05Z" fill="#EEC900"/>
<path d="M-7.78516 64.2509L-4.49658 109.281L65.5005 112.573L83.518 105.755V59.5514L70.8201 27.2579L-7.78516 64.2509Z" fill="#FFFBD7"/>
<path d="M69.9663 33.2601L66.3886 63.8397L-1.24659 66.4977L-10.6978 63.2474L-0.361744 16.5839L70.2276 13.8004L86.768 59.5513L82.929 64.4284L79.3827 64.1358L69.9663 33.2601Z" fill="#B48DD3"/>
<path d="M68.1548 112.088V83.6719L79.2572 79.2477V107.368L68.1548 112.088Z" fill="#EEC900"/>
<path d="M24.5986 85.097L23.9053 94.6039L15.5132 94.8095L15.6003 85.4837L24.5986 85.097Z" fill="#FEE45B"/>
<path d="M25.3513 74.7572L24.5989 85.0967L15.6006 85.4834L15.7051 75.0533L25.3513 74.7572Z" fill="#FEE45B"/>
<path d="M15.6003 85.4838L15.5132 94.8095L8.29155 94.9872L7.25342 85.8391L15.6003 85.4838Z" fill="#FEE45B"/>
<path d="M15.7048 75.0536L15.6003 85.4837L7.25349 85.839L6.05859 75.3497L15.7048 75.0536Z" fill="#FEE45B"/>
<path d="M14.9753 75.0413L14.7822 94.7997L16.2453 94.814L16.4384 75.0556L14.9753 75.0413Z" fill="#FAFABC"/>
<path d="M24.5596 84.3628L7.2168 85.1139L7.27996 86.5722L24.6228 85.821L24.5596 84.3628Z" fill="#FAFABC"/>
<path d="M51.9628 85.097L51.2696 94.6039L42.8774 94.8095L42.9645 85.4837L51.9628 85.097Z" fill="#FEE45B"/>
<path d="M52.7156 74.7572L51.9631 85.0967L42.9648 85.4834L43.0728 75.0533L52.7156 74.7572Z" fill="#FEE45B"/>
<path d="M42.9645 85.4838L42.8774 94.8095L35.6593 94.9872L34.6177 85.8391L42.9645 85.4838Z" fill="#FEE45B"/>
<path d="M43.0725 75.0536L42.9645 85.4837L34.6177 85.839L33.4263 75.3497L43.0725 75.0536Z" fill="#FEE45B"/>
<path d="M42.3425 75.046L42.1494 94.8043L43.6125 94.8186L43.8056 75.0603L42.3425 75.046Z" fill="#FAFABC"/>
<path d="M51.9258 84.363L34.583 85.1141L34.6462 86.5724L51.989 85.8213L51.9258 84.363Z" fill="#FAFABC"/>
</svg>
