<svg width="90" height="48" viewBox="0 0 90 48" fill="none" xmlns="http://www.w3.org/2000/svg">
<path d="M49.3739 47.2798L44.5935 46.5197L40.3395 46.8753L40.0013 41.3277L40.2558 35.7976L40.3848 30.2709L40.071 24.7407L41.0892 19.2105L40.7963 14.0081L44.5935 13.778L49.1543 13.4258L49.3321 19.207L48.1152 24.7372L49.0183 30.2639L48.6801 35.7941L48.7742 41.3277L49.3739 47.2798Z" fill="#C4B380"/>
<path d="M88.9221 27.2603L85.2539 27.6822L81.5682 27.7659L77.8826 27.208L74.1935 27.4521L70.5114 27.4207L66.8223 27.0267L63.1367 27.6369L59.4511 27.0441L55.7654 27.6683L52.0798 26.9291L48.3907 27.1731L44.7051 26.7791L41.0195 27.4695L37.3304 26.9221L33.6413 27.6787L29.9557 27.4207L26.2666 27.1243L22.5809 27.609L18.8953 26.8593L15.2062 26.9744L11.5171 27.473L7.8315 27.2324L4.13891 27.7345L0.460266 27.2708L0.669478 23.4562L0.142961 19.6311L0.610202 15.806L0 11.9774L0.631123 8.1488L0.261515 4.32023L0.662504 0.697373L4.13542 0.174343L7.82453 0.822906L11.5101 0.603232L15.1958 0.606722L18.8814 0.184803L22.567 0.564871L26.2526 0.571851L29.9382 0.795005L33.6273 0.969348L37.313 0.52652L40.9986 0.394018L44.6877 0.885667L48.3733 0.404478L52.0624 0.704354L55.748 0.892637L59.4371 0.638102L63.1227 0.582311L66.8118 0.275465L70.4974 0.52652L74.1831 0L77.8722 0.129012L81.5613 0.400987L85.2504 0.0279009L88.7338 0.693894L89.0859 4.31674L88.7198 8.14183L89.0057 11.9704L88.9604 15.7955L88.9813 19.6241L89.3753 23.4527L88.9221 27.2603Z" fill="#E2D29F"/>
<path d="M5.72892 4.69803L4.09707 4.72941L4.11799 3.0871L5.74287 3.08361L5.72892 4.69803Z" fill="#77632A"/>
<path d="M5.74639 24.2771L4.11803 24.2701L4.13895 22.6731L5.73942 22.6487L5.74639 24.2771Z" fill="#77632A"/>
<path d="M85.4561 4.69803L83.8243 4.72941L83.8452 3.0871L85.4701 3.08361L85.4561 4.69803Z" fill="#77632A"/>
<path d="M85.4736 24.2771L83.8452 24.2701L83.8696 22.6731L85.4666 22.6487L85.4736 24.2771Z" fill="#77632A"/>
</svg>
