<svg width="167" height="52" viewBox="0 0 167 52" fill="none" xmlns="http://www.w3.org/2000/svg">
<path d="M166.153 50.9366L159.299 51.7249L152.412 51.8813L145.526 50.8388L138.632 51.2949L131.752 51.2363L124.859 50.5L117.972 51.6402L111.086 50.5326L104.199 51.6988L97.3124 50.3176L90.4192 50.7737L83.5326 50.0375L76.6459 51.3275L69.7527 50.3046L62.8596 51.7184L55.9729 51.2363L49.0797 50.6825L42.193 51.5881L35.3064 50.1873L28.4132 50.4023L21.52 51.334L14.6333 50.8844L7.73365 51.8226L0.860019 50.9561L1.25094 43.8284L0.267127 36.6811L1.14018 29.5338L0 22.38L1.17927 15.2262L0.488647 8.07246L1.23791 1.30306L7.72714 0.325765L14.6203 1.53762L21.507 1.12715L28.3936 1.13367L35.2803 0.34531L42.167 1.05547L49.0536 1.06852L55.9403 1.48549L62.8335 1.81125L69.7202 0.983816L76.6068 0.736231L83.5 1.65489L90.3867 0.755776L97.2798 1.3161L104.167 1.66791L111.06 1.19231L117.946 1.08806L124.84 0.514714L131.726 0.983816L138.613 0L145.506 0.241063L152.399 0.749255L159.292 0.0521335L165.801 1.29656L166.459 8.06594L165.775 15.2132L166.309 22.367L166.225 29.5143L166.264 36.6681L167 43.8219L166.153 50.9366Z" fill="#F3E7B8"/>
<path d="M27.1516 21.5262C27.3609 21.4365 27.5552 21.4365 27.7346 21.5262C27.9289 21.6009 28.0634 21.7429 28.1382 21.9522C28.183 22.0867 28.2129 22.6473 28.2279 23.6339C28.2279 23.6937 28.2279 23.7833 28.2279 23.9029C28.2428 24.6653 28.2802 25.1137 28.34 25.2483C28.3998 25.3828 28.609 25.465 28.9678 25.4949C29.0276 25.4949 29.0724 25.4949 29.1023 25.4949C30.1038 25.5547 30.7466 25.6294 31.0306 25.7191C31.3296 25.7939 31.5389 25.9508 31.6585 26.19C31.8528 26.5936 31.7481 26.9524 31.3445 27.2663C30.9409 27.5802 30.4477 27.6848 29.8647 27.5802C29.4312 27.5054 29.0425 27.5054 28.6987 27.5802C28.6838 27.5802 28.6613 27.5877 28.6315 27.6026C28.4222 27.6475 28.3026 27.7297 28.2727 27.8493C28.2428 27.9539 28.2428 28.3425 28.2727 29.0152C28.2876 29.09 28.2951 29.1497 28.2951 29.1946C28.3549 30.4054 28.3474 31.2574 28.2727 31.7507C28.198 32.244 28.026 32.5654 27.757 32.7149C27.5178 32.8345 27.2861 32.8494 27.0619 32.7597C26.8377 32.67 26.6732 32.4832 26.5686 32.1992C26.4341 31.8105 26.3593 30.0915 26.3444 27.0421C26.3444 23.9777 26.4116 22.3782 26.5462 22.2437C26.591 22.1988 26.6134 22.1465 26.6134 22.0867C26.6134 22.012 26.6732 21.9148 26.7928 21.7952C26.9124 21.6757 27.032 21.586 27.1516 21.5262ZM18.1827 22.1316C18.4069 22.0867 18.6236 22.1316 18.8329 22.2661C19.0571 22.4006 19.1917 22.58 19.2365 22.8042C19.2814 22.9836 19.3187 23.4694 19.3486 24.2617C19.3785 25.1586 19.4084 25.7266 19.4383 25.9658C19.4832 26.5936 19.5205 27.0122 19.5504 27.2214C19.5504 27.2663 19.5504 27.3186 19.5504 27.3784C19.5953 27.9016 19.6999 28.208 19.8643 28.2977C20.0437 28.3724 20.6267 28.4023 21.6133 28.3874C21.7478 28.3724 21.8524 28.365 21.9272 28.365C22.8689 28.35 23.4519 28.3575 23.6761 28.3874C23.9153 28.4023 24.1021 28.4771 24.2367 28.6116C24.446 28.8358 24.5207 29.0825 24.4609 29.3516C24.4161 29.6206 24.2442 29.8149 23.9452 29.9345C23.5864 30.084 22.6596 30.1812 21.1648 30.226C19.685 30.2559 18.8105 30.2111 18.5414 30.0915C18.2275 29.9271 17.9958 29.6954 17.8463 29.3964C17.6968 29.0825 17.5922 28.6041 17.5324 27.9614C17.4726 27.3186 17.4278 26.3021 17.3979 24.9119C17.3829 23.8058 17.4203 23.0808 17.51 22.737C17.6146 22.3932 17.8389 22.1914 18.1827 22.1316ZM34.4709 19.2615C34.6951 19.1419 34.9268 19.1195 35.166 19.1943C35.4201 19.269 35.6069 19.411 35.7265 19.6203C35.8312 19.7997 35.9059 20.5695 35.9508 21.9298C35.9657 22.6772 36.0479 23.1182 36.1974 23.2527C36.3618 23.3872 36.8177 23.4246 37.5652 23.3648C38.2528 23.305 39.0151 23.2826 39.8522 23.2975C40.6893 23.2975 41.1602 23.3274 41.2648 23.3872C41.5937 23.5666 41.7432 23.8282 41.7133 24.172C41.6834 24.5009 41.4816 24.7625 41.1079 24.9568C40.7342 25.1511 39.7027 25.2707 38.0136 25.3155C36.3394 25.3454 35.3155 25.2707 34.9417 25.0913C34.6428 24.9418 34.426 24.7774 34.2915 24.598C34.1719 24.4186 34.0897 24.1571 34.0449 23.8132C34 23.4694 33.9701 22.8865 33.9552 22.0643C33.9253 21.0329 33.9402 20.3378 34 19.979C34.0748 19.6203 34.2317 19.3811 34.4709 19.2615ZM35.7714 26.9748C35.8162 26.9299 36.9448 26.915 39.1571 26.9299C41.3695 26.9449 42.513 26.9673 42.5878 26.9972C42.9615 27.2065 43.1633 27.4606 43.1932 27.7596C43.223 28.0585 43.0885 28.3201 42.7896 28.5443C42.5055 28.7536 42.1169 28.8583 41.6236 28.8583C41.3246 28.8583 41.0257 28.8807 40.7267 28.9255C40.4427 28.9554 39.187 28.9704 36.9598 28.9704L33.6413 28.9928L33.3498 28.791C32.9013 28.4621 32.7817 28.066 32.991 27.6026C33.0956 27.3933 33.2451 27.2588 33.4395 27.199C33.6338 27.1243 34.0523 27.072 34.6951 27.0421C35.3977 27.0122 35.7564 26.9897 35.7714 26.9748ZM34.6278 30.4727C34.9567 30.1886 35.2557 30.1438 35.5247 30.3381C35.7938 30.5325 35.9508 30.8987 35.9956 31.4368C36.0554 32.2141 36.1152 32.6999 36.175 32.8943C36.2049 33.0288 36.3095 33.111 36.4889 33.1409C36.6683 33.1708 37.1765 33.1783 38.0136 33.1633C38.2976 33.1484 38.8059 33.1334 39.5383 33.1185C40.2857 33.1035 40.8014 33.0886 41.0855 33.0737L42.6326 33.0512L42.8792 33.3203C43.4921 33.9481 43.3501 34.4339 42.4532 34.7777C41.9599 34.9721 41.2873 35.0917 40.4352 35.1365C39.8223 35.1664 39.3365 35.1963 38.9778 35.2262C38.1407 35.286 37.3484 35.2935 36.601 35.2486C35.8536 35.2038 35.3379 35.1141 35.0539 34.9795C34.6652 34.8002 34.4111 34.5535 34.2915 34.2396C34.1869 33.9406 34.1345 33.3651 34.1345 32.5131C34.1345 31.7657 34.157 31.2873 34.2018 31.0781C34.2616 30.8688 34.4036 30.667 34.6278 30.4727ZM61.9948 21.4141C62.2937 21.2347 62.5703 21.2272 62.8244 21.3916C63.0785 21.5561 63.2429 21.8476 63.3177 22.2661C63.3775 22.58 63.4074 24.329 63.4074 27.5129C63.4223 30.6819 63.4074 32.3636 63.3625 32.5579C63.2728 32.827 63.1009 33.0139 62.8468 33.1185C62.5927 33.2082 62.3386 33.2007 62.0845 33.0961C61.8303 32.9765 61.6659 32.7822 61.5912 32.5131C61.4417 32.0049 61.3669 30.1363 61.3669 26.9075C61.3669 23.6787 61.4417 22.0195 61.5912 21.9298C61.6211 21.8999 61.636 21.855 61.636 21.7952C61.636 21.6757 61.7556 21.5486 61.9948 21.4141ZM53.6088 22.2661C54.9243 22.2213 55.8884 22.2362 56.5013 22.3109C57.1142 22.3857 57.5327 22.5426 57.757 22.7818C57.9812 23.021 58.0783 23.4022 58.0484 23.9254C58.0335 24.2094 57.9588 24.5756 57.8242 25.024C57.6897 25.4725 57.5701 25.749 57.4655 25.8537C57.4356 25.8836 57.4206 25.9284 57.4206 25.9882C57.4206 26.0331 57.2188 26.474 56.8152 27.3111C56.4116 28.1482 56.15 28.649 56.0304 28.8134C55.8959 29.0376 55.6268 29.4039 55.2232 29.9121C54.8346 30.4203 54.5954 30.7268 54.5057 30.8314C54.2516 31.0556 53.9676 31.1977 53.6537 31.2574C53.3547 31.3172 53.1006 31.2873 52.8913 31.1678C52.682 31.0332 52.5774 30.8314 52.5774 30.5624C52.5774 30.4727 52.6671 30.2709 52.8465 29.957C53.0408 29.6281 53.1978 29.4039 53.3173 29.2843C53.3622 29.2394 53.5191 29.0152 53.7882 28.6116C54.0573 28.208 54.1993 27.9987 54.2142 27.9838C54.2591 27.9838 54.2815 27.9614 54.2815 27.9165C54.2815 27.8866 54.3263 27.7895 54.416 27.625C54.5207 27.4606 54.5879 27.3634 54.6178 27.3335C54.6627 27.3036 54.8346 26.9748 55.1335 26.347C55.4475 25.7042 55.6044 25.3604 55.6044 25.3155C55.6044 25.2707 55.6268 25.2109 55.6717 25.1362C55.7315 25.0315 55.7987 24.8521 55.8735 24.598C55.9632 24.3439 56.0005 24.1944 55.9856 24.1496C55.9408 24.0449 55.1037 23.9926 53.4743 23.9926C52.2635 23.9777 51.6058 23.9403 51.5011 23.8805C51.3068 23.7759 51.1723 23.6339 51.0975 23.4545C51.0377 23.2602 51.0527 23.0733 51.1424 22.8939C51.2769 22.6548 51.4712 22.4978 51.7254 22.4231C51.9944 22.3483 52.6223 22.296 53.6088 22.2661ZM75.9299 18.5664C76.1242 18.4767 76.3185 18.4842 76.5129 18.5888C76.7072 18.6785 76.8641 18.843 76.9837 19.0821C77.0734 19.2765 77.1108 20.0986 77.0958 21.5486C77.0958 22.9836 77.051 23.8581 76.9613 24.172C76.8118 24.6055 76.6025 24.8746 76.3335 24.9792C76.0794 25.0689 75.4665 25.1137 74.4948 25.1137C73.9866 25.1137 73.5905 25.1063 73.3065 25.0913C73.0374 25.0764 72.7758 25.0166 72.5217 24.9119C72.2676 24.7924 72.0882 24.6653 71.9835 24.5308C71.8789 24.3962 71.7892 24.1645 71.7145 23.8357C71.6397 23.4919 71.5949 23.1331 71.5799 22.7594C71.565 22.3857 71.5575 21.855 71.5575 21.1674C71.5575 20.2705 71.5949 19.6576 71.6696 19.3288C71.7593 18.9999 71.9462 18.7682 72.2302 18.6337C72.5292 18.4992 72.8132 18.544 73.0822 18.7682C73.3513 18.9925 73.4858 19.2989 73.4858 19.6875C73.4858 19.8968 73.5382 20.0314 73.6428 20.0911C73.7474 20.136 74.024 20.1584 74.4724 20.1584H75.2796L75.3469 19.8893C75.3917 19.71 75.4142 19.5381 75.4142 19.3736C75.4142 19.2241 75.459 19.0747 75.5487 18.9252C75.6533 18.7608 75.7804 18.6412 75.9299 18.5664ZM75.0778 22.1764C74.9134 22.1017 74.6144 22.0793 74.1809 22.1092C73.7474 22.139 73.5008 22.1988 73.441 22.2885C73.3364 22.438 73.3289 22.6099 73.4186 22.8042C73.5232 22.9986 73.6727 23.1182 73.867 23.163C73.9567 23.1779 74.0688 23.2078 74.2034 23.2527C74.3977 23.3125 74.5995 23.3274 74.8088 23.2975C75.033 23.2676 75.175 23.2078 75.2348 23.1182C75.3095 23.0285 75.3245 22.8566 75.2796 22.6024C75.2348 22.3483 75.1675 22.2063 75.0778 22.1764ZM66.3331 18.6113C66.5723 18.5066 66.7965 18.5365 67.0058 18.701C67.23 18.8654 67.3421 19.0896 67.3421 19.3736C67.3421 19.7922 67.3945 20.0762 67.4991 20.2257C67.6037 20.3602 67.7831 20.3976 68.0372 20.3378C68.2465 20.2929 68.4408 20.2705 68.6202 20.2705C68.8145 20.2705 68.9341 20.2406 68.979 20.1808C69.0388 20.121 69.0911 19.9417 69.1359 19.6427C69.1658 19.3587 69.2107 19.1569 69.2705 19.0373C69.3302 18.9028 69.4349 18.7981 69.5844 18.7234C69.8684 18.6038 70.1225 18.6412 70.3467 18.8355C70.5859 19.0298 70.7653 19.3587 70.8849 19.8221C70.9895 20.2406 71.0343 21.0179 71.0194 22.154C71.0044 23.2901 70.9372 23.9702 70.8176 24.1944C70.6532 24.5233 70.3243 24.7625 69.831 24.9119C69.3527 25.0614 68.6725 25.1287 67.7906 25.1137C66.9834 25.0988 66.4452 24.9568 66.1762 24.6877C65.9221 24.4186 65.7576 23.8506 65.6829 22.9836C65.5633 21.3692 65.5409 20.2855 65.6156 19.7324C65.7053 19.1644 65.9445 18.7907 66.3331 18.6113ZM69.1359 22.2885C69.0911 22.1988 68.8071 22.1615 68.2839 22.1764C67.7756 22.1914 67.514 22.2512 67.4991 22.3558C67.4393 22.5651 67.4767 22.7594 67.6112 22.9388C67.7457 23.1032 67.9251 23.1854 68.1493 23.1854C68.3138 23.1854 68.4558 23.2078 68.5754 23.2527C68.7996 23.3125 68.9715 23.2377 69.0911 23.0285C69.2107 22.8042 69.2256 22.5576 69.1359 22.2885ZM71.6696 26.5712C74.2407 26.4964 75.7505 26.5637 76.1989 26.773C76.5577 26.9524 76.7221 27.2214 76.6922 27.5802C76.6623 27.9389 76.4456 28.2005 76.042 28.365C75.8925 28.4397 75.7804 28.492 75.7056 28.5219C75.5412 28.5967 74.009 28.6266 71.1091 28.6116C68.2091 28.5817 66.6919 28.5294 66.5574 28.4547C66.1687 28.2304 65.9594 27.9539 65.9295 27.625C65.8996 27.2962 66.0641 27.0495 66.4228 26.8851C66.7367 26.7506 68.4857 26.6459 71.6696 26.5712ZM69.3377 30.2036C69.6965 30.1438 70.7055 30.1214 72.3647 30.1363C74.0389 30.1513 74.9582 30.1961 75.1227 30.2709C75.5263 30.4502 75.7729 30.6894 75.8626 30.9884C75.9672 31.2724 76.0196 31.9077 76.0196 32.8943C76.0196 34.0303 75.9373 34.7628 75.7729 35.0917C75.6234 35.4205 75.2348 35.6672 74.607 35.8316C74.3977 35.8914 73.3513 35.9213 71.4678 35.9213C69.5993 35.9362 68.5754 35.9138 68.396 35.854C67.8578 35.6896 67.5066 35.428 67.3421 35.0692C67.1927 34.7105 67.088 33.9332 67.0282 32.7373C66.9385 31.093 67.4916 30.2634 68.6875 30.2484C68.9266 30.2484 69.1434 30.2335 69.3377 30.2036ZM73.8446 31.975C73.7101 31.9301 73.1944 31.9152 72.2975 31.9301C71.4006 31.9301 70.6083 31.96 69.9207 32.0198C69.4424 32.0646 69.1733 32.117 69.1135 32.1768C69.0537 32.2366 69.0313 32.5206 69.0462 33.0288C69.0612 33.0587 69.0687 33.111 69.0687 33.1858C69.0836 33.6342 69.1808 33.8883 69.3601 33.9481C69.5545 34.0229 70.1972 34.0528 71.2885 34.0378C71.4379 34.0378 71.5501 34.0378 71.6248 34.0378C71.7145 34.0378 71.8341 34.0378 71.9835 34.0378C72.9552 34.0229 73.5232 33.9855 73.6876 33.9257C73.8521 33.8659 73.9418 33.6641 73.9567 33.3203C73.9567 33.2605 73.9567 33.2157 73.9567 33.1858C73.9866 32.4234 73.9492 32.0198 73.8446 31.975ZM81.5451 20.7638C82.1729 20.6442 82.9876 20.6891 83.9891 20.8983C84.5721 21.0179 85.1177 21.4141 85.6259 22.0867C86.1342 22.7594 86.4257 23.4694 86.5004 24.2168C86.5154 24.3962 86.5004 24.7027 86.4556 25.1362C86.4107 25.5547 86.3584 25.8313 86.2986 25.9658C86.2986 25.9807 86.2463 26.1153 86.1416 26.3694C86.0071 26.773 85.7605 27.1616 85.4017 27.5353C85.043 27.909 84.6618 28.1856 84.2582 28.365C84.2283 28.3799 84.176 28.4023 84.1012 28.4322C84.0414 28.4621 83.9966 28.4846 83.9667 28.4995C83.7126 28.6041 83.3164 28.6565 82.7783 28.6565C82.2551 28.6565 81.8889 28.6041 81.6796 28.4995C81.6049 28.4696 81.5376 28.4547 81.4778 28.4547C81.2685 28.4547 80.9023 28.3127 80.3791 28.0286C79.8559 27.7297 79.4673 27.4531 79.2132 27.199C78.8395 26.8253 78.5629 26.2124 78.3835 25.3604C78.2042 24.4934 78.2042 23.7983 78.3835 23.2751C78.7871 22.1241 79.5869 21.3543 80.7827 20.9656C80.9621 20.9208 81.0667 20.8909 81.0966 20.8759C81.1265 20.861 81.276 20.8236 81.5451 20.7638ZM82.9801 22.7146C82.6512 22.6548 82.3074 22.6323 81.9487 22.6473C81.6049 22.6622 81.3881 22.7146 81.2984 22.8042C81.2835 22.8341 81.2461 22.8491 81.1863 22.8491C81.0817 22.8491 80.9247 22.9537 80.7155 23.163C80.5211 23.3723 80.3941 23.5666 80.3343 23.746C80.2296 24.015 80.2446 24.3962 80.3791 24.8895C80.5137 25.3679 80.708 25.7341 80.9621 25.9882C81.2013 26.2423 81.5825 26.4367 82.1056 26.5712C82.6288 26.7057 83.01 26.7132 83.2492 26.5936C83.309 26.5488 83.4136 26.4964 83.5631 26.4367C83.9218 26.2872 84.1834 25.9508 84.3479 25.4276C84.5272 24.9045 84.5347 24.4336 84.3703 24.015C84.2208 23.5965 84.0414 23.2975 83.8322 23.1182C83.6378 22.9238 83.3538 22.7893 82.9801 22.7146ZM89.5498 21.3244C89.8189 21.1898 90.0506 21.1599 90.2449 21.2347C90.4542 21.3094 90.6037 21.4739 90.6934 21.728C90.7532 21.8775 90.798 23.6937 90.8279 27.1766C90.8578 30.6595 90.8503 32.5505 90.8055 32.8494C90.7606 33.1484 90.6186 33.3726 90.3795 33.5221C90.1552 33.6566 89.9086 33.6865 89.6395 33.6118C89.3854 33.537 89.1986 33.3651 89.079 33.0961C88.9594 32.827 88.8921 32.4458 88.8772 31.9525C88.8622 31.4443 88.8547 29.9868 88.8547 27.5802C88.8697 24.6653 88.9071 22.9388 88.9669 22.4006C89.0267 21.8476 89.221 21.4888 89.5498 21.3244ZM83.1595 30.0242C84.161 29.9644 84.9159 29.9495 85.4241 29.9794C85.9473 30.0093 86.2762 30.0541 86.4107 30.1139C86.5453 30.1737 86.7022 30.3157 86.8816 30.5399C87.046 30.7642 87.1058 30.9884 87.061 31.2126C87.0161 31.4219 86.8741 31.5788 86.6349 31.6835C86.3509 31.818 85.0504 31.9002 82.7335 31.9301C80.4314 31.96 79.1608 31.9077 78.9217 31.7732C78.548 31.5788 78.3761 31.2948 78.406 30.9211C78.4359 30.5474 78.6526 30.3232 79.0562 30.2484C79.4 30.1886 80.7678 30.1139 83.1595 30.0242ZM113.856 21.4141C114.051 21.2945 114.275 21.3019 114.529 21.4365C114.783 21.5561 114.962 21.7354 115.067 21.9746C115.187 22.2437 115.261 24.03 115.291 27.3335C115.336 30.6371 115.306 32.4085 115.202 32.6476C115.067 32.9615 114.858 33.1409 114.574 33.1858C114.305 33.2306 114.028 33.1334 113.744 32.8943C113.565 32.7149 113.453 32.3337 113.408 31.7507C113.378 31.1528 113.356 29.2619 113.341 26.0779C113.341 25.9284 113.341 25.7042 113.341 25.4052C113.341 23.5517 113.356 22.4604 113.385 22.1316C113.415 21.7878 113.542 21.5561 113.767 21.4365C113.797 21.4215 113.826 21.4141 113.856 21.4141ZM110.426 22.0195C110.605 21.9447 110.792 21.9447 110.986 22.0195C111.181 22.0942 111.323 22.2213 111.412 22.4006C111.517 22.58 111.584 22.8939 111.614 23.3424C111.659 23.7759 111.704 24.7101 111.749 26.1452C111.808 28.6415 111.823 30.1812 111.793 30.7642C111.779 31.3322 111.681 31.7134 111.502 31.9077C111.352 32.0721 111.128 32.1095 110.829 32.0198C110.53 31.9301 110.329 31.7657 110.224 31.5265C110.104 31.2724 110.022 30.8763 109.977 30.3381C109.962 30.2634 109.955 30.1662 109.955 30.0466C109.91 29.5832 109.85 29.3142 109.775 29.2394C109.716 29.1497 109.499 29.1124 109.125 29.1273C109.006 29.1273 108.916 29.1273 108.856 29.1273C108.273 29.1273 107.877 29.0526 107.668 28.9031C107.458 28.7536 107.346 28.4771 107.331 28.0735L107.309 27.8493C107.294 27.8792 107.249 28.081 107.174 28.4547C107.085 28.933 106.846 29.3964 106.457 29.8448C106.083 30.2783 105.65 30.5923 105.156 30.7866C104.887 30.8912 104.484 30.9435 103.946 30.9435C103.408 30.9435 103.011 30.8912 102.757 30.7866C102.757 30.7866 102.585 30.7118 102.242 30.5624C101.972 30.4577 101.786 30.3755 101.681 30.3157C101.576 30.241 101.509 30.2036 101.479 30.2036C100.836 29.9495 100.276 29.0601 99.7975 27.5353C99.7228 27.2962 99.6929 26.8253 99.7078 26.1227C99.7228 25.4202 99.7751 24.9045 99.8648 24.5756C99.9844 24.0823 100.298 23.5741 100.807 23.0509C101.33 22.5277 101.771 22.2661 102.129 22.2661C102.174 22.2661 102.234 22.2437 102.309 22.1988C102.608 22.0344 103.109 21.997 103.811 22.0867C104.2 22.1316 104.506 22.1914 104.73 22.2661C104.955 22.3259 105.231 22.4455 105.56 22.6249C105.934 22.8341 106.3 23.2228 106.659 23.7908C106.823 24.0449 106.935 24.3589 106.995 24.7326C107.025 24.9717 107.1 25.2258 107.219 25.4949C107.339 25.7789 107.399 26.3245 107.399 27.1317C107.399 27.4307 107.406 27.5802 107.421 27.5802C107.436 27.5802 107.466 27.5578 107.511 27.5129C107.63 27.3485 108.012 27.2289 108.654 27.1542C108.998 27.1093 109.26 27.072 109.439 27.0421L109.708 27.0196L109.731 26.3918C109.731 26.0181 109.686 25.8014 109.596 25.7416C109.506 25.6818 109.185 25.6519 108.632 25.6519C108.094 25.6519 107.742 25.5996 107.578 25.4949C107.414 25.3903 107.331 25.181 107.331 24.8671C107.331 24.6877 107.369 24.5233 107.444 24.3738C107.518 24.2094 107.593 24.1272 107.668 24.1272C107.728 24.1272 107.757 24.1122 107.757 24.0823C107.757 23.9777 108.124 23.8955 108.856 23.8357C109.349 23.7908 109.633 23.7385 109.708 23.6787C109.783 23.604 109.843 23.32 109.888 22.8267C109.932 22.4081 110.112 22.139 110.426 22.0195ZM104.058 24.1047C103.789 24.015 103.482 23.9777 103.138 23.9926C102.795 23.9926 102.623 24.0375 102.623 24.1272C102.623 24.172 102.593 24.1944 102.533 24.1944C102.488 24.1944 102.391 24.2692 102.242 24.4186C102.092 24.5532 101.987 24.6728 101.928 24.7774C101.584 25.4351 101.614 26.2797 102.017 27.3111C102.242 27.909 102.555 28.3724 102.959 28.7013C103.378 29.0152 103.789 29.1423 104.192 29.0825C104.611 29.0077 104.94 28.7461 105.179 28.2977C105.328 28.0137 105.426 27.5951 105.47 27.0421C105.53 26.489 105.508 26.0704 105.403 25.7864C105.119 24.8596 104.671 24.2991 104.058 24.1047ZM130.629 21.5486C130.748 21.444 130.83 21.3842 130.875 21.3692C130.935 21.3393 131.055 21.3244 131.234 21.3244C131.548 21.3244 131.78 21.4066 131.929 21.571C132.078 21.7205 132.183 21.9896 132.243 22.3782C132.288 22.6921 132.31 24.3663 132.31 27.4008C132.325 30.4203 132.303 32.0348 132.243 32.244C132.168 32.5878 131.981 32.827 131.682 32.9615C131.398 33.0811 131.114 33.0438 130.83 32.8494C130.815 32.8494 130.8 32.842 130.785 32.827C130.591 32.6925 130.479 32.5206 130.449 32.3113C130.419 32.0871 130.404 31.3845 130.404 30.2036C130.404 30.0691 130.404 29.9644 130.404 29.8897C130.404 28.2304 130.367 27.3784 130.292 27.3335C130.232 27.2887 129.933 27.2663 129.395 27.2663C128.872 27.2663 128.536 27.2887 128.386 27.3335C128.282 27.3634 128.222 27.4905 128.207 27.7147C128.192 27.924 128.207 28.5668 128.252 29.643C128.282 30.3157 128.282 30.7492 128.252 30.9435C128.222 31.1379 128.125 31.2873 127.96 31.392C127.646 31.6013 127.34 31.6013 127.041 31.392C126.757 31.1827 126.578 30.8239 126.503 30.3157C126.383 29.643 126.308 28.2454 126.279 26.1227C126.249 24.0001 126.279 22.7818 126.368 22.4679C126.458 22.1689 126.622 21.9372 126.862 21.7728C127.101 21.5934 127.332 21.5411 127.557 21.6159C127.826 21.7055 127.998 21.8775 128.072 22.1316C128.147 22.3707 128.184 22.9238 128.184 23.7908V25.181H128.902C129.365 25.181 129.709 25.1586 129.933 25.1137L130.27 25.0465L130.292 24.2617C130.322 23.6787 130.337 23.2228 130.337 22.8939C130.337 22.4455 130.352 22.1465 130.382 21.997C130.427 21.8476 130.509 21.6981 130.629 21.5486ZM118.341 22.0195C118.461 21.9896 118.595 22.012 118.745 22.0867C118.909 22.1465 119.014 22.2287 119.059 22.3334C119.059 22.3334 119.096 22.4006 119.171 22.5352C119.216 22.6249 119.238 22.9911 119.238 23.6339C119.238 23.7086 119.238 23.8132 119.238 23.9478C119.238 24.4261 119.283 24.7027 119.373 24.7774C119.462 24.8521 119.776 24.8895 120.314 24.8895C120.464 24.8895 120.576 24.8895 120.651 24.8895C121.503 24.8895 122.011 24.8746 122.175 24.8447C122.295 24.8297 122.37 24.7699 122.4 24.6653C122.429 24.5457 122.459 24.1944 122.489 23.6114C122.519 23.163 122.564 22.8566 122.624 22.6921C122.684 22.5128 122.803 22.3707 122.983 22.2661C123.267 22.1166 123.521 22.1092 123.745 22.2437C123.984 22.3633 124.141 22.6024 124.216 22.9612C124.29 23.2901 124.35 24.2991 124.395 25.9882C124.44 27.6774 124.432 28.634 124.373 28.8583C124.268 29.2469 124.126 29.5384 123.947 29.7327C123.782 29.9271 123.491 30.099 123.072 30.2484C122.938 30.2933 122.228 30.3232 120.942 30.3381C120.464 30.3381 120.127 30.3381 119.933 30.3381C119.739 30.3381 119.492 30.3232 119.193 30.2933C118.909 30.2484 118.722 30.2185 118.633 30.2036C118.543 30.1737 118.416 30.0915 118.251 29.957C118.102 29.8224 118.012 29.7178 117.982 29.643C117.952 29.5683 117.893 29.3964 117.803 29.1273C117.728 28.8433 117.676 28.6116 117.646 28.4322C117.631 28.2379 117.594 27.909 117.534 27.4457C117.444 26.7879 117.414 25.8088 117.444 24.5083C117.489 23.2078 117.564 22.5576 117.668 22.5576C117.698 22.5576 117.713 22.5352 117.713 22.4903C117.713 22.4305 117.788 22.3408 117.938 22.2213C118.102 22.1017 118.236 22.0344 118.341 22.0195ZM122.13 26.773C121.906 26.7132 121.413 26.6982 120.651 26.7281C119.903 26.7431 119.492 26.7805 119.417 26.8403C119.387 26.8701 119.38 27.0346 119.395 27.3335C119.425 27.6325 119.455 27.8343 119.485 27.9389C119.604 28.1781 119.754 28.3351 119.933 28.4098C120.112 28.4696 120.494 28.4995 121.077 28.4995C121.69 28.4995 122.056 28.4621 122.175 28.3874C122.295 28.3127 122.392 28.066 122.467 27.6475C122.512 27.3186 122.512 27.1018 122.467 26.9972C122.437 26.8926 122.325 26.8178 122.13 26.773ZM144.593 21.571C145.071 21.3916 145.385 21.4589 145.535 21.7728C145.684 22.0867 145.759 22.8267 145.759 23.9926C145.759 24.0524 145.759 24.1346 145.759 24.2393C145.759 24.882 145.789 25.2632 145.849 25.3828C145.923 25.4874 146.17 25.5547 146.588 25.5846C146.663 25.5846 146.716 25.5846 146.745 25.5846C147.687 25.6444 148.285 25.7117 148.539 25.7864C148.793 25.8611 148.995 26.0331 149.145 26.3021C149.249 26.4815 149.272 26.6833 149.212 26.9075C149.167 27.1168 149.055 27.2663 148.876 27.356C148.801 27.4008 148.756 27.4307 148.741 27.4457C148.711 27.4756 148.621 27.5129 148.472 27.5578C148.009 27.6923 147.485 27.7446 146.902 27.7147C146.469 27.6848 146.177 27.6998 146.028 27.7596L145.804 27.8717L145.849 28.9255C145.863 29.7477 145.878 30.4203 145.893 30.9435C145.908 31.4518 145.871 31.8479 145.781 32.1319C145.707 32.401 145.609 32.5878 145.49 32.6925C145.37 32.7822 145.191 32.827 144.952 32.827C144.608 32.827 144.369 32.7074 144.234 32.4682C144.1 32.2291 144.017 31.7732 143.987 31.1005C143.958 30.4278 143.928 29.7701 143.898 29.1273C143.823 28.0062 143.793 26.6459 143.808 25.0465C143.838 23.447 143.89 22.5202 143.965 22.2661C144.1 21.9073 144.309 21.6757 144.593 21.571ZM137.956 22.0867C138.928 22.012 139.638 22.0344 140.086 22.154C140.549 22.2736 140.841 22.5128 140.96 22.8715C141.035 23.0808 141.02 23.3125 140.916 23.5666C140.826 23.8058 140.609 24.1944 140.265 24.7326C139.907 25.3006 139.727 25.6892 139.727 25.8985C139.742 26.1078 139.959 26.489 140.377 27.0421C140.542 27.2663 140.729 27.5353 140.938 27.8493C141.147 28.1632 141.252 28.3351 141.252 28.365C141.252 28.3799 141.319 28.4995 141.454 28.7237C141.603 28.933 141.678 29.0675 141.678 29.1273C141.678 29.1722 141.693 29.2095 141.723 29.2394C141.783 29.2693 141.835 29.3964 141.88 29.6206C141.925 29.8299 141.932 29.9719 141.902 30.0466C141.827 30.226 141.678 30.383 141.454 30.5175C141.23 30.6371 141.02 30.6819 140.826 30.652C140.736 30.6221 140.579 30.5325 140.355 30.383C140.146 30.2335 140.041 30.1363 140.041 30.0915C140.041 30.0616 139.996 30.0018 139.907 29.9121C139.802 29.7925 139.563 29.4487 139.189 28.8807C139.025 28.6266 138.815 28.3724 138.561 28.1183C138.307 27.8642 138.15 27.7521 138.09 27.782C138.046 27.8119 137.866 28.0137 137.552 28.3874C137.238 28.7611 137.074 28.9554 137.059 28.9704C137.044 28.9853 136.954 29.1049 136.79 29.3291C136.625 29.5534 136.528 29.6804 136.498 29.7103C136.439 29.7701 136.319 29.9121 136.14 30.1363C135.915 30.4353 135.676 30.5848 135.422 30.5848C135.168 30.5698 134.921 30.4054 134.682 30.0915C134.458 29.8075 134.458 29.4263 134.682 28.9479C134.921 28.4547 135.43 27.7745 136.207 26.9075C136.327 26.758 136.543 26.474 136.857 26.0555C137.201 25.607 137.38 25.3753 137.395 25.3604C137.425 25.3305 137.582 25.1212 137.866 24.7326C138.165 24.3439 138.33 24.1421 138.359 24.1272C138.389 24.1272 138.404 24.0823 138.404 23.9926C138.404 23.9179 138.292 23.888 138.068 23.9029C137.933 23.9179 137.575 23.9553 136.992 24.015C135.826 24.1346 135.123 24.1197 134.884 23.9702C134.51 23.731 134.376 23.447 134.48 23.1182C134.585 22.7743 134.869 22.5651 135.332 22.4903C135.93 22.3707 136.386 22.3035 136.7 22.2885C136.954 22.2586 137.134 22.2287 137.238 22.1988C137.358 22.154 137.597 22.1166 137.956 22.0867Z" fill="#77632A"/>
<path d="M10.7044 8.77842L7.65527 8.83706L7.69437 5.76836L10.7305 5.76184L10.7044 8.77842Z" fill="#77632A"/>
<path d="M10.737 45.3623L7.69434 45.3493L7.73343 42.3653L10.7239 42.3197L10.737 45.3623Z" fill="#77632A"/>
<path d="M159.676 8.77842L156.626 8.83706L156.666 5.76836L159.702 5.76184L159.676 8.77842Z" fill="#77632A"/>
<path d="M159.709 45.3623L156.666 45.3493L156.712 42.3653L159.696 42.3197L159.709 45.3623Z" fill="#77632A"/>
</svg>
