<svg width="167" height="52" viewBox="0 0 167 52" fill="none" xmlns="http://www.w3.org/2000/svg">
<path d="M166.153 50.9366L159.299 51.7249L152.412 51.8813L145.526 50.8388L138.632 51.2949L131.752 51.2363L124.859 50.5L117.972 51.6402L111.086 50.5326L104.199 51.6988L97.3124 50.3176L90.4192 50.7737L83.5326 50.0375L76.6459 51.3275L69.7527 50.3046L62.8596 51.7184L55.9729 51.2363L49.0797 50.6825L42.193 51.5881L35.3064 50.1873L28.4132 50.4023L21.52 51.334L14.6333 50.8844L7.73365 51.8226L0.860019 50.9561L1.25094 43.8284L0.267127 36.6811L1.14018 29.5338L0 22.38L1.17927 15.2262L0.488647 8.07246L1.23791 1.30306L7.72714 0.325765L14.6203 1.53762L21.507 1.12715L28.3936 1.13367L35.2803 0.34531L42.167 1.05547L49.0536 1.06852L55.9403 1.48549L62.8335 1.81125L69.7202 0.983816L76.6068 0.736231L83.5 1.65489L90.3867 0.755776L97.2798 1.3161L104.167 1.66791L111.06 1.19231L117.946 1.08806L124.84 0.514714L131.726 0.983816L138.613 0L145.506 0.241063L152.399 0.749255L159.292 0.0521335L165.801 1.29656L166.459 8.06594L165.775 15.2132L166.309 22.367L166.225 29.5143L166.264 36.6681L167 43.8219L166.153 50.9366Z" fill="#F3E7B8"/>
<path d="M29.1995 21.5262C29.4088 21.4365 29.6031 21.4365 29.7825 21.5262C29.9768 21.6009 30.1114 21.7429 30.1861 21.9522C30.2309 22.0867 30.2608 22.6473 30.2758 23.6339C30.2758 23.6937 30.2758 23.7833 30.2758 23.9029C30.2907 24.6653 30.3281 25.1137 30.3879 25.2483C30.4477 25.3828 30.657 25.465 31.0157 25.4949C31.0755 25.4949 31.1204 25.4949 31.1503 25.4949C32.1518 25.5547 32.7946 25.6294 33.0786 25.7191C33.3775 25.7939 33.5868 25.9508 33.7064 26.19C33.9007 26.5936 33.7961 26.9524 33.3925 27.2663C32.9889 27.5802 32.4956 27.6848 31.9126 27.5802C31.4791 27.5054 31.0905 27.5054 30.7467 27.5802C30.7317 27.5802 30.7093 27.5877 30.6794 27.6026C30.4701 27.6475 30.3505 27.7297 30.3206 27.8493C30.2907 27.9539 30.2907 28.3425 30.3206 29.0152C30.3356 29.09 30.3431 29.1497 30.3431 29.1946C30.4029 30.4054 30.3954 31.2574 30.3206 31.7507C30.2459 32.244 30.074 32.5654 29.8049 32.7149C29.5658 32.8345 29.3341 32.8494 29.1098 32.7597C28.8856 32.67 28.7212 32.4832 28.6165 32.1992C28.482 31.8105 28.4073 30.0915 28.3923 27.0421C28.3923 23.9777 28.4596 22.3782 28.5941 22.2437C28.639 22.1988 28.6614 22.1465 28.6614 22.0867C28.6614 22.012 28.7212 21.9148 28.8408 21.7952C28.9604 21.6757 29.0799 21.586 29.1995 21.5262ZM20.2306 22.1316C20.4548 22.0867 20.6716 22.1316 20.8809 22.2661C21.1051 22.4006 21.2396 22.58 21.2845 22.8042C21.3293 22.9836 21.3667 23.4694 21.3966 24.2617C21.4265 25.1586 21.4564 25.7266 21.4863 25.9658C21.5311 26.5936 21.5685 27.0122 21.5984 27.2214C21.5984 27.2663 21.5984 27.3186 21.5984 27.3784C21.6432 27.9016 21.7478 28.208 21.9123 28.2977C22.0917 28.3724 22.6746 28.4023 23.6612 28.3874C23.7958 28.3724 23.9004 28.365 23.9751 28.365C24.9169 28.35 25.4998 28.3575 25.7241 28.3874C25.9632 28.4023 26.1501 28.4771 26.2846 28.6116C26.4939 28.8358 26.5686 29.0825 26.5088 29.3516C26.464 29.6206 26.2921 29.8149 25.9931 29.9345C25.6344 30.084 24.7076 30.1812 23.2128 30.226C21.7329 30.2559 20.8584 30.2111 20.5894 30.0915C20.2755 29.9271 20.0438 29.6954 19.8943 29.3964C19.7448 29.0825 19.6402 28.6041 19.5804 27.9614C19.5206 27.3186 19.4757 26.3021 19.4458 24.9119C19.4309 23.8058 19.4682 23.0808 19.5579 22.737C19.6626 22.3932 19.8868 22.1914 20.2306 22.1316ZM36.5188 19.2615C36.743 19.1419 36.9747 19.1195 37.2139 19.1943C37.468 19.269 37.6549 19.411 37.7745 19.6203C37.8791 19.7997 37.9539 20.5695 37.9987 21.9298C38.0136 22.6772 38.0959 23.1182 38.2453 23.2527C38.4098 23.3872 38.8657 23.4246 39.6131 23.3648C40.3007 23.305 41.0631 23.2826 41.9002 23.2975C42.7373 23.2975 43.2081 23.3274 43.3128 23.3872C43.6416 23.5666 43.7911 23.8282 43.7612 24.172C43.7313 24.5009 43.5295 24.7625 43.1558 24.9568C42.7821 25.1511 41.7507 25.2707 40.0615 25.3155C38.3873 25.3454 37.3634 25.2707 36.9897 25.0913C36.6907 24.9418 36.474 24.7774 36.3394 24.598C36.2199 24.4186 36.1376 24.1571 36.0928 23.8132C36.048 23.4694 36.0181 22.8865 36.0031 22.0643C35.9732 21.0329 35.9882 20.3378 36.048 19.979C36.1227 19.6203 36.2797 19.3811 36.5188 19.2615ZM37.8193 26.9748C37.8642 26.9299 38.9928 26.915 41.2051 26.9299C43.4174 26.9449 44.561 26.9673 44.6357 26.9972C45.0094 27.2065 45.2112 27.4606 45.2411 27.7596C45.271 28.0585 45.1365 28.3201 44.8375 28.5443C44.5535 28.7536 44.1648 28.8583 43.6715 28.8583C43.3726 28.8583 43.0736 28.8807 42.7746 28.9255C42.4906 28.9554 41.235 28.9704 39.0077 28.9704L35.6892 28.9928L35.3977 28.791C34.9493 28.4621 34.8297 28.066 35.039 27.6026C35.1436 27.3933 35.2931 27.2588 35.4874 27.199C35.6817 27.1243 36.1003 27.072 36.743 27.0421C37.4456 27.0122 37.8044 26.9897 37.8193 26.9748ZM36.6758 30.4727C37.0046 30.1886 37.3036 30.1438 37.5727 30.3381C37.8417 30.5325 37.9987 30.8987 38.0435 31.4368C38.1033 32.2141 38.1631 32.6999 38.2229 32.8943C38.2528 33.0288 38.3575 33.111 38.5368 33.1409C38.7162 33.1708 39.2244 33.1783 40.0615 33.1633C40.3456 33.1484 40.8538 33.1334 41.5863 33.1185C42.3337 33.1035 42.8494 33.0886 43.1334 33.0737L44.6805 33.0512L44.9272 33.3203C45.5401 33.9481 45.3981 34.4339 44.5012 34.7777C44.0079 34.9721 43.3352 35.0917 42.4832 35.1365C41.8703 35.1664 41.3845 35.1963 41.0257 35.2262C40.1886 35.286 39.3964 35.2935 38.6489 35.2486C37.9015 35.2038 37.3858 35.1141 37.1018 34.9795C36.7132 34.8002 36.459 34.5535 36.3394 34.2396C36.2348 33.9406 36.1825 33.3651 36.1825 32.5131C36.1825 31.7657 36.2049 31.2873 36.2498 31.0781C36.3095 30.8688 36.4516 30.667 36.6758 30.4727ZM57.3204 21.4141C57.5297 21.3692 57.7315 21.3916 57.9258 21.4813C58.1351 21.5561 58.2397 21.6607 58.2397 21.7952C58.2397 21.87 58.2621 21.9148 58.307 21.9298C58.3369 21.9597 58.3518 22.0494 58.3518 22.1988C58.3518 22.3633 58.3817 22.6174 58.4415 22.9612C58.5163 23.2901 58.5686 23.4694 58.5985 23.4993C58.6583 23.5143 59.0394 23.5367 59.742 23.5666C60.4595 23.5965 60.9453 23.6563 61.1995 23.746C61.4536 23.8357 61.6404 24.015 61.76 24.2841C61.8198 24.4336 61.8422 24.5607 61.8273 24.6653C61.8123 24.755 61.7376 24.8671 61.6031 25.0016C61.4386 25.181 61.2294 25.3006 60.9752 25.3604C60.7211 25.4202 60.2129 25.465 59.4505 25.4949C58.8974 25.5248 58.5835 25.5771 58.5088 25.6519C58.434 25.7266 58.4116 26.0032 58.4415 26.4815C58.4415 26.5562 58.4415 26.6459 58.4415 26.7506C58.4565 27.1093 58.5013 27.3186 58.5761 27.3784C58.6657 27.4382 58.9722 27.4606 59.4954 27.4457C59.6747 27.4457 59.8093 27.4457 59.899 27.4457C60.766 27.4457 61.3265 27.498 61.5806 27.6026C61.8497 27.7072 61.9842 27.9315 61.9842 28.2753C61.9842 28.6191 61.8572 28.8657 61.6031 29.0152C61.3489 29.1647 60.893 29.2544 60.2353 29.2843C60.1456 29.2843 60.0186 29.2843 59.8541 29.2843C59.1964 29.3142 58.8077 29.3889 58.6882 29.5085C58.5835 29.6281 58.5312 30.0093 58.5312 30.652C58.5312 30.8165 58.5312 30.9361 58.5312 31.0108C58.5312 31.6984 58.5088 32.1319 58.4639 32.3113C58.434 32.4757 58.3369 32.6103 58.1725 32.7149C57.9333 32.8644 57.6717 32.8793 57.3877 32.7597C57.1186 32.6252 56.9318 32.4085 56.8271 32.1095C56.7374 31.8255 56.6702 30.2709 56.6253 27.4457C56.5805 24.6055 56.5954 22.9238 56.6702 22.4006C56.7598 21.8177 56.9766 21.4888 57.3204 21.4141ZM49.6296 21.8177C49.9285 21.7728 50.3919 21.7728 51.0197 21.8177C51.6476 21.8625 52.0736 21.9223 52.2978 21.997C52.806 22.1764 53.2395 22.4829 53.5983 22.9164C53.972 23.3499 54.2411 23.873 54.4055 24.4859C54.5251 24.9493 54.5924 25.5173 54.6073 26.19C54.6372 26.8627 54.6148 27.356 54.54 27.6699C54.4802 27.8642 54.4354 28.0361 54.4055 28.1856C54.2859 28.634 54.0318 29.0601 53.6431 29.4637C53.2694 29.8673 52.8285 30.1737 52.3202 30.383C52.0362 30.5026 51.6326 30.5773 51.1094 30.6072C50.5862 30.6221 50.1901 30.5848 49.921 30.4951C49.6819 30.4203 49.5399 30.3755 49.495 30.3606C47.9703 29.9121 46.9763 28.7013 46.5129 26.7281C46.2438 25.607 46.4232 24.5532 47.051 23.5666C47.6788 22.5651 48.5383 21.9821 49.6296 21.8177ZM51.2215 23.8581C50.7283 23.6937 50.22 23.7086 49.6968 23.9029C49.1886 24.0823 48.8597 24.3813 48.7102 24.7998C48.5757 25.1735 48.5383 25.5846 48.5981 26.0331C48.6579 26.4665 48.7925 26.8627 49.0017 27.2214C49.211 27.5652 49.4577 27.8792 49.7417 28.1632C50.0406 28.4322 50.3545 28.5967 50.6834 28.6565C51.0272 28.7163 51.3486 28.6714 51.6476 28.5219C51.9914 28.3276 52.2455 28.1034 52.4099 27.8493C52.5744 27.5802 52.6865 27.2214 52.7463 26.773C52.8509 26.1003 52.7537 25.4949 52.4548 24.9568C52.1708 24.4186 51.7597 24.0524 51.2215 23.8581ZM74.6062 20.4275C74.6511 20.3677 74.808 20.3677 75.0771 20.4275C75.3462 20.4873 75.548 20.562 75.6825 20.6517C75.8918 20.7862 76.0263 20.9731 76.0861 21.2123C76.1459 21.4514 76.116 21.6532 75.9964 21.8177C75.8469 21.997 75.675 22.1091 75.4807 22.154C75.3013 22.1839 74.823 22.1988 74.0457 22.1988C72.9844 22.1988 72.2145 22.1465 71.7362 22.0419C71.2728 21.9372 71.0187 21.7579 70.9738 21.5037C70.9589 21.4141 70.9738 21.2945 71.0187 21.145C71.0635 20.9955 71.1084 20.9208 71.1532 20.9208C71.1831 20.9208 71.2354 20.8834 71.3102 20.8087C71.4447 20.6891 71.6091 20.6143 71.8035 20.5844C72.0127 20.5545 72.4686 20.5246 73.1712 20.4947C74.098 20.4648 74.5763 20.4424 74.6062 20.4275ZM80.3239 22.3334C80.5033 22.2437 80.7051 22.2437 80.9293 22.3334C81.1685 22.438 81.3105 22.6099 81.3553 22.8491C81.4151 23.0883 81.445 23.7236 81.445 24.755C81.445 24.8746 81.445 25.0465 81.445 25.2707C81.4301 25.9284 81.46 26.3171 81.5347 26.4367C81.6095 26.5413 81.8636 26.6011 82.2971 26.616C82.4316 26.631 82.5437 26.6385 82.6334 26.6385C83.3958 26.6683 83.9563 26.7879 84.3151 26.9972C84.6738 27.2065 84.8084 27.4905 84.7187 27.8493C84.644 28.1183 84.487 28.2977 84.2478 28.3874C84.0087 28.4621 83.4855 28.5219 82.6783 28.5668C81.9159 28.6116 81.5198 28.6565 81.4899 28.7013C81.46 28.7461 81.46 29.0675 81.4899 29.6655C81.5646 31.25 81.5571 32.4085 81.4675 33.1409C81.4376 33.4847 81.2956 33.7463 81.0414 33.9257C80.7873 34.1051 80.5257 34.1424 80.2567 34.0378C80.0025 33.9481 79.8381 33.7388 79.7634 33.41C79.6438 32.8719 79.5391 31.2574 79.4495 28.5668C79.3747 25.8761 79.3822 24.2094 79.4719 23.5666C79.5466 22.9687 79.8306 22.5576 80.3239 22.3334ZM74.1129 22.9836C74.2923 22.9537 74.7184 22.9462 75.391 22.9612C76.0786 22.9761 76.4972 23.006 76.6467 23.0509C76.9905 23.1406 77.2296 23.2975 77.3642 23.5218C77.4987 23.746 77.5062 23.9926 77.3866 24.2617C77.282 24.471 77.0652 24.6204 76.7364 24.7101C76.4224 24.7849 75.8395 24.8297 74.9874 24.8447C74.3745 24.8746 73.9111 24.9194 73.5972 24.9792C72.9844 25.0988 72.4462 25.1885 71.9828 25.2483C71.2504 25.323 70.8094 25.3529 70.6599 25.338C70.5104 25.323 70.361 25.2483 70.2115 25.1137C70.0171 24.9045 69.905 24.6728 69.8751 24.4186C69.8602 24.1645 69.9349 23.9478 70.0994 23.7684C70.2937 23.5741 70.6001 23.4321 71.0187 23.3424C71.4372 23.2527 72.1846 23.163 73.2609 23.0733C73.7093 23.0434 73.9934 23.0135 74.1129 22.9836ZM72.79 25.764C73.373 25.5547 73.9934 25.5173 74.6511 25.6519C75.3088 25.7864 75.817 26.048 76.1758 26.4367C76.6242 26.915 76.9456 27.6325 77.14 28.5892C77.3343 29.5309 77.3193 30.2783 77.0951 30.8314C76.7663 31.7283 76.2132 32.3262 75.4359 32.6252C75.0771 32.7747 74.6735 32.8494 74.2251 32.8494C73.4328 32.8494 72.7153 32.6925 72.0725 32.3786C71.4297 32.0646 70.929 31.6311 70.5702 31.0781C70.2264 30.5399 70.0545 30.1812 70.0545 30.0018C70.0545 29.957 70.0396 29.9121 70.0097 29.8673C69.92 29.7776 69.8602 29.5832 69.8303 29.2843C69.8153 28.9704 69.8378 28.6938 69.8976 28.4547C70.0022 27.9614 70.2488 27.5129 70.6375 27.1093C71.1457 26.5413 71.8632 26.0928 72.79 25.764ZM73.8887 27.7147C73.4851 27.5951 73.0442 27.6549 72.5658 27.8941C72.1024 28.1333 71.8707 28.4173 71.8707 28.7461C71.8707 29.1049 71.9828 29.4936 72.2071 29.9121C72.4462 30.3157 72.7003 30.5848 72.9694 30.7193C73.672 31.0482 74.255 31.0781 74.7184 30.809C75.1967 30.525 75.4134 30.0242 75.3686 29.3067C75.3387 29.0227 75.2341 28.7387 75.0547 28.4547C74.8903 28.1706 74.7333 28.0286 74.5838 28.0286C74.524 28.0286 74.4941 28.0137 74.4941 27.9838C74.4941 27.9389 74.4568 27.9165 74.382 27.9165C74.3222 27.9165 74.2699 27.9016 74.2251 27.8717C74.1653 27.8268 74.0532 27.7745 73.8887 27.7147ZM95.6124 21.5262C95.8217 21.4365 96.016 21.4365 96.1954 21.5262C96.3897 21.6009 96.5243 21.7429 96.599 21.9522C96.6438 22.0867 96.6737 22.6473 96.6887 23.6339C96.6887 23.6937 96.6887 23.7833 96.6887 23.9029C96.7036 24.6653 96.741 25.1137 96.8008 25.2483C96.8606 25.3828 97.0699 25.465 97.4286 25.4949C97.4884 25.4949 97.5333 25.4949 97.5632 25.4949C98.5647 25.5547 99.2075 25.6294 99.4915 25.7191C99.7904 25.7939 99.9997 25.9508 100.119 26.19C100.314 26.5936 100.209 26.9524 99.8054 27.2663C99.4018 27.5802 98.9085 27.6848 98.3255 27.5802C97.892 27.5054 97.5034 27.5054 97.1596 27.5802C97.1446 27.5802 97.1222 27.5877 97.0923 27.6026C96.883 27.6475 96.7634 27.7297 96.7335 27.8493C96.7036 27.9539 96.7036 28.3425 96.7335 29.0152C96.7485 29.09 96.756 29.1497 96.756 29.1946C96.8157 30.4054 96.8083 31.2574 96.7335 31.7507C96.6588 32.244 96.4869 32.5654 96.2178 32.7149C95.9786 32.8345 95.747 32.8494 95.5227 32.7597C95.2985 32.67 95.1341 32.4832 95.0294 32.1992C94.8949 31.8105 94.8202 30.0915 94.8052 27.0421C94.8052 23.9777 94.8725 22.3782 95.007 22.2437C95.0519 22.1988 95.0743 22.1465 95.0743 22.0867C95.0743 22.012 95.1341 21.9148 95.2537 21.7952C95.3732 21.6757 95.4928 21.586 95.6124 21.5262ZM86.6435 22.1316C86.8677 22.0867 87.0845 22.1316 87.2937 22.2661C87.518 22.4006 87.6525 22.58 87.6973 22.8042C87.7422 22.9836 87.7796 23.4694 87.8095 24.2617C87.8394 25.1586 87.8693 25.7266 87.8992 25.9658C87.944 26.5936 87.9814 27.0122 88.0113 27.2214C88.0113 27.2663 88.0113 27.3186 88.0113 27.3784C88.0561 27.9016 88.1607 28.208 88.3252 28.2977C88.5046 28.3724 89.0875 28.4023 90.0741 28.3874C90.2086 28.3724 90.3133 28.365 90.388 28.365C91.3298 28.35 91.9127 28.3575 92.137 28.3874C92.3761 28.4023 92.563 28.4771 92.6975 28.6116C92.9068 28.8358 92.9815 29.0825 92.9217 29.3516C92.8769 29.6206 92.705 29.8149 92.406 29.9345C92.0473 30.084 91.1205 30.1812 89.6257 30.226C88.1458 30.2559 87.2713 30.2111 87.0023 30.0915C86.6883 29.9271 86.4566 29.6954 86.3072 29.3964C86.1577 29.0825 86.053 28.6041 85.9933 27.9614C85.9335 27.3186 85.8886 26.3021 85.8587 24.9119C85.8438 23.8058 85.8811 23.0808 85.9708 22.737C86.0755 22.3932 86.2997 22.1914 86.6435 22.1316ZM110.981 19.4409C111.086 19.3961 111.243 19.3886 111.452 19.4185C111.676 19.4484 111.833 19.5007 111.923 19.5754C112.058 19.695 112.155 20.1883 112.215 21.0553C112.274 21.9223 112.282 22.7968 112.237 23.6787C112.207 24.2168 112.185 24.755 112.17 25.2931C112.17 26.1003 112.095 26.6385 111.945 26.9075C111.766 27.1915 111.49 27.3111 111.116 27.2663C110.742 27.2214 110.473 27.0346 110.309 26.7057C110.264 26.6011 110.249 25.7042 110.264 24.015C110.279 22.311 110.309 21.2571 110.354 20.8535C110.443 20.0612 110.652 19.5904 110.981 19.4409ZM102.012 20.136C102.476 19.8819 102.82 19.8968 103.044 20.1808C103.178 20.3453 103.261 20.577 103.29 20.8759C103.335 21.1599 103.358 21.7504 103.358 22.6473C103.358 23.7385 103.373 24.3215 103.403 24.3962C103.447 24.5158 103.582 24.5906 103.806 24.6204C104.03 24.6354 104.606 24.6429 105.533 24.6429C106.714 24.6279 107.371 24.6578 107.506 24.7326C107.969 24.9717 108.141 25.2931 108.022 25.6967C107.917 26.0854 107.573 26.3544 106.99 26.5039C106.811 26.5488 106.078 26.5787 104.793 26.5936C103.507 26.5936 102.82 26.5712 102.73 26.5263C102.67 26.4964 102.551 26.4441 102.371 26.3694C101.923 26.1751 101.624 25.7191 101.474 25.0016C101.325 24.2841 101.302 23.148 101.407 21.5934C101.422 21.1001 101.467 20.7638 101.542 20.5844C101.616 20.4051 101.773 20.2556 102.012 20.136ZM108.739 28.4098C108.769 28.365 109.113 28.365 109.771 28.4098C110.443 28.4547 110.839 28.4995 110.959 28.5443C111.392 28.7387 111.669 29.0302 111.789 29.4188C111.923 29.7925 111.99 30.5325 111.99 31.6386C111.99 32.1917 111.975 32.6252 111.945 32.9391C111.916 33.253 111.871 33.537 111.811 33.7912C111.751 34.0303 111.639 34.2097 111.475 34.3293C111.31 34.4489 111.123 34.5386 110.914 34.5984C110.705 34.6731 110.406 34.7329 110.017 34.7777C109.434 34.8674 108.373 34.8899 106.833 34.845C105.294 34.8151 104.434 34.7478 104.255 34.6432C104.24 34.6283 104.135 34.5759 103.941 34.4863C103.761 34.4115 103.619 34.3069 103.515 34.1723C103.425 34.0378 103.335 33.8211 103.246 33.5221C103.201 33.3427 103.156 32.7597 103.111 31.7732C103.081 30.7716 103.081 30.1812 103.111 30.0018C103.186 29.7327 103.261 29.5309 103.335 29.3964C103.425 29.2469 103.537 29.1124 103.672 28.9928C103.821 28.8732 104.06 28.791 104.389 28.7461C104.718 28.6864 105.084 28.6415 105.488 28.6116C105.906 28.5668 106.497 28.5294 107.259 28.4995C108.216 28.4547 108.709 28.4248 108.739 28.4098ZM109.815 30.4727C109.741 30.383 109.262 30.3307 108.38 30.3157C107.513 30.2858 106.923 30.3082 106.609 30.383C106.445 30.4129 106.273 30.4278 106.093 30.4278C105.959 30.4278 105.735 30.4652 105.421 30.5399L105.017 30.652V31.0332C105.032 31.96 105.099 32.5131 105.219 32.6925C105.294 32.8121 105.45 32.8868 105.69 32.9167C105.929 32.9316 106.519 32.9391 107.461 32.9391C108.762 32.9391 109.494 32.8868 109.658 32.7822C109.763 32.7074 109.838 32.528 109.883 32.244C109.942 31.8255 109.965 31.4443 109.95 31.1005C109.935 30.7567 109.89 30.5474 109.815 30.4727ZM131.247 21.571C131.726 21.3916 132.04 21.4589 132.189 21.7728C132.339 22.0867 132.413 22.8267 132.413 23.9926C132.413 24.0524 132.413 24.1346 132.413 24.2393C132.413 24.882 132.443 25.2632 132.503 25.3828C132.578 25.4874 132.824 25.5547 133.243 25.5846C133.318 25.5846 133.37 25.5846 133.4 25.5846C134.342 25.6444 134.94 25.7117 135.194 25.7864C135.448 25.8611 135.65 26.0331 135.799 26.3021C135.904 26.4815 135.926 26.6833 135.866 26.9075C135.822 27.1168 135.709 27.2663 135.53 27.356C135.455 27.4008 135.41 27.4307 135.396 27.4457C135.366 27.4756 135.276 27.5129 135.126 27.5578C134.663 27.6923 134.14 27.7446 133.557 27.7147C133.123 27.6848 132.832 27.6998 132.682 27.7596L132.458 27.8717L132.503 28.9255C132.518 29.7477 132.533 30.4203 132.548 30.9435C132.563 31.4518 132.525 31.8479 132.436 32.1319C132.361 32.401 132.264 32.5878 132.144 32.6925C132.025 32.7822 131.845 32.827 131.606 32.827C131.262 32.827 131.023 32.7074 130.889 32.4682C130.754 32.2291 130.672 31.7732 130.642 31.1005C130.612 30.4278 130.582 29.7701 130.552 29.1273C130.478 28.0062 130.448 26.6459 130.463 25.0465C130.493 23.447 130.545 22.5202 130.62 22.2661C130.754 21.9073 130.963 21.6757 131.247 21.571ZM124.61 22.0867C125.582 22.012 126.292 22.0344 126.741 22.154C127.204 22.2736 127.495 22.5128 127.615 22.8715C127.69 23.0808 127.675 23.3125 127.57 23.5666C127.48 23.8058 127.264 24.1944 126.92 24.7326C126.561 25.3006 126.382 25.6892 126.382 25.8985C126.397 26.1078 126.613 26.489 127.032 27.0421C127.196 27.2663 127.383 27.5353 127.593 27.8493C127.802 28.1632 127.906 28.3351 127.906 28.365C127.906 28.3799 127.974 28.4995 128.108 28.7237C128.258 28.933 128.332 29.0675 128.332 29.1273C128.332 29.1722 128.347 29.2095 128.377 29.2394C128.437 29.2693 128.489 29.3964 128.534 29.6206C128.579 29.8299 128.587 29.9719 128.557 30.0466C128.482 30.226 128.332 30.383 128.108 30.5175C127.884 30.6371 127.675 30.6819 127.48 30.652C127.391 30.6221 127.234 30.5325 127.01 30.383C126.8 30.2335 126.696 30.1363 126.696 30.0915C126.696 30.0616 126.651 30.0018 126.561 29.9121C126.457 29.7925 126.217 29.4487 125.844 28.8807C125.679 28.6266 125.47 28.3724 125.216 28.1183C124.962 27.8642 124.805 27.7521 124.745 27.782C124.7 27.8119 124.521 28.0137 124.207 28.3874C123.893 28.7611 123.728 28.9554 123.714 28.9704C123.699 28.9853 123.609 29.1049 123.444 29.3291C123.28 29.5534 123.183 29.6804 123.153 29.7103C123.093 29.7701 122.974 29.9121 122.794 30.1363C122.57 30.4353 122.331 30.5848 122.077 30.5848C121.823 30.5698 121.576 30.4054 121.337 30.0915C121.113 29.8075 121.113 29.4263 121.337 28.9479C121.576 28.4547 122.084 27.7745 122.861 26.9075C122.981 26.758 123.198 26.474 123.512 26.0555C123.856 25.607 124.035 25.3753 124.05 25.3604C124.08 25.3305 124.237 25.1212 124.521 24.7326C124.82 24.3439 124.984 24.1421 125.014 24.1272C125.044 24.1272 125.059 24.0823 125.059 23.9926C125.059 23.9179 124.947 23.888 124.723 23.9029C124.588 23.9179 124.229 23.9553 123.646 24.015C122.48 24.1346 121.778 24.1197 121.539 23.9702C121.165 23.731 121.03 23.447 121.135 23.1182C121.24 22.7743 121.524 22.5651 121.987 22.4903C122.585 22.3707 123.041 22.3035 123.355 22.2885C123.609 22.2586 123.788 22.2287 123.893 22.1988C124.012 22.154 124.252 22.1166 124.61 22.0867ZM147.458 21.4141C147.563 21.3991 147.72 21.3991 147.929 21.4141C148.333 21.429 148.572 21.5785 148.647 21.8625C148.721 22.1465 148.774 23.1032 148.804 24.7326C148.804 25.2557 148.834 26.9374 148.893 29.7776C148.923 31.377 148.908 32.244 148.849 32.3786C148.699 32.7373 148.423 32.9242 148.019 32.9391C147.615 32.9541 147.324 32.7822 147.144 32.4234C147.07 32.2739 147.017 32.0273 146.987 31.6835C146.958 31.3397 146.928 30.6371 146.898 29.5758C146.883 29.4711 146.875 29.3291 146.875 29.1497C146.86 28.5967 146.801 28.2753 146.696 28.1856C146.606 28.0959 146.277 28.0511 145.709 28.0511C145.515 28.0511 145.366 28.0511 145.261 28.0511C144.558 28.0361 144.11 28.0137 143.916 27.9838C143.721 27.9539 143.564 27.8717 143.445 27.7371C143.071 27.3036 143.026 26.9075 143.31 26.5488C143.475 26.3544 143.662 26.2349 143.871 26.19C144.095 26.1452 144.588 26.1227 145.351 26.1227C145.41 26.1227 145.493 26.1227 145.597 26.1227C146.21 26.1227 146.561 26.1003 146.651 26.0555C146.756 26.0106 146.808 25.8537 146.808 25.5846C146.808 25.5398 146.808 25.5024 146.808 25.4725C146.808 25.4575 146.808 25.4426 146.808 25.4276C146.808 25.1885 146.748 25.0465 146.629 25.0016C146.509 24.9568 146.106 24.9269 145.418 24.9119C145.328 24.897 145.268 24.8895 145.239 24.8895C144.476 24.8746 144.013 24.8521 143.848 24.8222C143.684 24.7774 143.505 24.6728 143.31 24.5083C143.131 24.3439 143.056 24.1421 143.086 23.9029C143.116 23.6638 143.236 23.4769 143.445 23.3424C143.534 23.2676 143.699 23.2228 143.938 23.2078C144.177 23.1779 144.887 23.1331 146.068 23.0733L146.831 23.0509L146.898 22.7594C146.958 22.5501 146.987 22.3558 146.987 22.1764C146.987 22.012 147.032 21.855 147.122 21.7055C147.227 21.5411 147.339 21.444 147.458 21.4141ZM137.862 21.9746C138.235 21.855 138.542 21.9896 138.781 22.3782C138.856 22.5128 138.908 23.2153 138.938 24.4859C138.968 25.7565 139.005 26.6683 139.05 27.2214C139.05 27.2812 139.057 27.3709 139.072 27.4905C139.087 27.7596 139.095 27.9464 139.095 28.0511C139.11 28.1557 139.14 28.2753 139.185 28.4098C139.244 28.5443 139.289 28.6266 139.319 28.6565C139.364 28.6714 139.469 28.7013 139.633 28.7461C139.812 28.791 139.969 28.8134 140.104 28.8134C140.238 28.7985 140.478 28.791 140.821 28.791C140.986 28.791 141.105 28.791 141.18 28.791C142.152 28.791 142.757 28.8284 142.996 28.9031C143.25 28.9629 143.437 29.1348 143.557 29.4188C143.766 29.8374 143.714 30.1438 143.4 30.3381C143.101 30.5175 142.473 30.6296 141.516 30.6745C139.289 30.7941 137.989 30.6371 137.615 30.2036C137.376 29.9046 137.226 29.5384 137.167 29.1049C137.107 28.6565 137.062 27.6176 137.032 25.9882C137.002 24.882 137.002 24.0748 137.032 23.5666C137.077 23.0434 137.159 22.6697 137.279 22.4455C137.398 22.2063 137.593 22.0494 137.862 21.9746Z" fill="#77632A"/>
<path d="M10.7044 8.77842L7.65527 8.83706L7.69437 5.76836L10.7305 5.76184L10.7044 8.77842Z" fill="#77632A"/>
<path d="M10.737 45.3623L7.69434 45.3493L7.73343 42.3653L10.7239 42.3197L10.737 45.3623Z" fill="#77632A"/>
<path d="M159.676 8.77842L156.626 8.83706L156.666 5.76836L159.702 5.76184L159.676 8.77842Z" fill="#77632A"/>
<path d="M159.709 45.3623L156.666 45.3493L156.712 42.3653L159.696 42.3197L159.709 45.3623Z" fill="#77632A"/>
</svg>
