<svg width="167" height="52" viewBox="0 0 167 52" fill="none" xmlns="http://www.w3.org/2000/svg">
<path d="M166.153 50.9366L159.299 51.7249L152.412 51.8813L145.526 50.8388L138.632 51.2949L131.752 51.2363L124.859 50.5L117.972 51.6402L111.086 50.5326L104.199 51.6988L97.3124 50.3176L90.4192 50.7737L83.5326 50.0375L76.6459 51.3275L69.7527 50.3046L62.8596 51.7184L55.9729 51.2363L49.0797 50.6825L42.193 51.5881L35.3064 50.1873L28.4132 50.4023L21.52 51.334L14.6333 50.8844L7.73365 51.8226L0.860019 50.9561L1.25094 43.8284L0.267127 36.6811L1.14018 29.5338L0 22.38L1.17927 15.2262L0.488647 8.07246L1.23791 1.30306L7.72714 0.325765L14.6203 1.53762L21.507 1.12715L28.3936 1.13367L35.2803 0.34531L42.167 1.05547L49.0536 1.06852L55.9403 1.48549L62.8335 1.81125L69.7202 0.983816L76.6068 0.736231L83.5 1.65489L90.3867 0.755776L97.2798 1.3161L104.167 1.66791L111.06 1.19231L117.946 1.08806L124.84 0.514714L131.726 0.983816L138.613 0L145.506 0.241063L152.399 0.749255L159.292 0.0521335L165.801 1.29656L166.459 8.06594L165.775 15.2132L166.309 22.367L166.225 29.5143L166.264 36.6681L167 43.8219L166.153 50.9366Z" fill="#F3E7B8"/>
<path d="M45.3933 21.4141C45.6922 21.2347 45.9688 21.2273 46.2229 21.3917C46.477 21.5561 46.6415 21.8476 46.7162 22.2662C46.776 22.5801 46.8059 24.329 46.8059 27.513C46.8208 30.682 46.8059 32.3637 46.761 32.558C46.6713 32.8271 46.4994 33.0139 46.2453 33.1186C45.9912 33.2082 45.7371 33.2008 45.483 33.0961C45.2288 32.9765 45.0644 32.7822 44.9897 32.5132C44.8402 32.0049 44.7655 30.1364 44.7655 26.9076C44.7655 23.6788 44.8402 22.0195 44.9897 21.9298C45.0196 21.8999 45.0345 21.8551 45.0345 21.7953C45.0345 21.6757 45.1541 21.5487 45.3933 21.4141ZM37.0073 22.2662C38.3228 22.2213 39.2869 22.2363 39.8998 22.311C40.5127 22.3858 40.9312 22.5427 41.1555 22.7819C41.3797 23.0211 41.4768 23.4022 41.447 23.9254C41.432 24.2094 41.3573 24.5757 41.2227 25.0241C41.0882 25.4726 40.9686 25.7491 40.864 25.8537C40.8341 25.8836 40.8191 25.9285 40.8191 25.9883C40.8191 26.0331 40.6173 26.4741 40.2137 27.3112C39.8101 28.1483 39.5485 28.649 39.4289 28.8135C39.2944 29.0377 39.0253 29.4039 38.6217 29.9122C38.2331 30.4204 37.9939 30.7268 37.9042 30.8315C37.6501 31.0557 37.3661 31.1977 37.0522 31.2575C36.7532 31.3173 36.4991 31.2874 36.2898 31.1678C36.0806 31.0333 35.9759 30.8315 35.9759 30.5624C35.9759 30.4727 36.0656 30.2709 36.245 29.957C36.4393 29.6282 36.5963 29.4039 36.7158 29.2843C36.7607 29.2395 36.9177 29.0153 37.1867 28.6117C37.4558 28.2081 37.5978 27.9988 37.6127 27.9839C37.6576 27.9839 37.68 27.9614 37.68 27.9166C37.68 27.8867 37.7249 27.7895 37.8145 27.6251C37.9192 27.4607 37.9864 27.3635 38.0163 27.3336C38.0612 27.3037 38.2331 26.9748 38.5321 26.347C38.846 25.7043 39.0029 25.3604 39.0029 25.3156C39.0029 25.2708 39.0253 25.211 39.0702 25.1362C39.13 25.0316 39.1972 24.8522 39.272 24.5981C39.3617 24.344 39.3991 24.1945 39.3841 24.1496C39.3393 24.045 38.5022 23.9927 36.8728 23.9927C35.662 23.9777 35.0043 23.9404 34.8996 23.8806C34.7053 23.7759 34.5708 23.6339 34.496 23.4545C34.4362 23.2602 34.4512 23.0734 34.5409 22.894C34.6754 22.6548 34.8697 22.4979 35.1239 22.4231C35.3929 22.3484 36.0208 22.2961 37.0073 22.2662ZM59.3508 19.0822C59.5302 18.9776 59.7245 18.9701 59.9338 19.0598C60.1431 19.1345 60.3075 19.2915 60.4271 19.5306C60.5018 19.6652 60.5317 20.5397 60.5168 22.1541C60.5168 23.7685 60.4869 24.6952 60.4271 24.9344C60.3822 25.069 60.2851 25.2259 60.1356 25.4053C60.001 25.5697 59.8964 25.6519 59.8217 25.6519C59.7619 25.6519 59.717 25.6669 59.6871 25.6968C59.6423 25.7416 59.1639 25.7865 58.2521 25.8313C57.5047 25.8612 57.0338 25.8687 56.8395 25.8537C56.6601 25.8238 56.3911 25.7267 56.0323 25.5622C55.6287 25.3829 55.3522 25.0241 55.2027 24.486C55.0532 23.9329 54.9785 22.9837 54.9785 21.6383C54.9785 20.6966 55.0009 20.1286 55.0457 19.9342C55.0906 19.725 55.2251 19.5306 55.4493 19.3513C55.7931 19.0822 56.122 19.0374 56.4359 19.2167C56.7498 19.3812 56.9068 19.7026 56.9068 20.1809C56.9068 20.4799 56.9965 20.6742 57.1758 20.7639C57.3552 20.8386 57.714 20.8536 58.2521 20.8087L58.7006 20.7863L58.7678 20.2033C58.8127 19.7997 58.865 19.5605 58.9248 19.4858C59.0593 19.2915 59.2013 19.1569 59.3508 19.0822ZM58.6109 22.8267C58.566 22.7669 58.4464 22.737 58.2521 22.737C58.0727 22.7221 57.9307 22.737 57.8261 22.7819C57.7513 22.8118 57.6093 22.8267 57.4001 22.8267C57.1758 22.8417 57.0338 22.8716 56.974 22.9164C56.9292 22.9463 56.9068 23.036 56.9068 23.1855C56.9068 23.5143 57.0563 23.7386 57.3552 23.8581C57.6542 23.9628 58.0653 23.9628 58.5884 23.8581C58.6781 23.8432 58.723 23.6862 58.723 23.3873C58.7379 23.0883 58.7006 22.9015 58.6109 22.8267ZM49.7541 19.127C50.0231 18.9776 50.2548 19.0149 50.4492 19.2392C50.6435 19.4484 50.7556 19.7922 50.7855 20.2706C50.8004 20.6443 50.8378 20.8536 50.8976 20.8984C50.9723 20.9433 51.2265 20.9582 51.66 20.9433C52.0486 20.9134 52.2803 20.876 52.355 20.8311C52.4298 20.7863 52.4672 20.6667 52.4672 20.4724C52.4672 20.0538 52.5718 19.7399 52.7811 19.5306C52.9903 19.3064 53.2295 19.2392 53.4986 19.3288C53.7826 19.4185 54.0143 19.6428 54.1937 20.0015C54.2983 20.2257 54.3581 20.8237 54.3731 21.7953C54.4029 22.752 54.3731 23.5891 54.2834 24.3066C54.2535 24.5757 54.2236 24.7775 54.1937 24.912C54.1787 25.0465 54.1339 25.1811 54.0591 25.3156C53.9844 25.4501 53.9097 25.5398 53.8349 25.5847C53.7602 25.6295 53.6256 25.6744 53.4313 25.7192C53.237 25.764 53.0427 25.7865 52.8483 25.7865C52.654 25.7865 52.355 25.7865 51.9514 25.7865C51.1143 25.7865 50.5912 25.764 50.3819 25.7192C50.1726 25.6744 49.9409 25.5398 49.6868 25.3156C49.4925 25.1512 49.3579 24.9643 49.2832 24.755C49.2085 24.5308 49.1412 24.1272 49.0814 23.5442C48.8123 21.003 49.0365 19.5306 49.7541 19.127ZM52.355 22.9613C52.3102 22.8716 52.0785 22.8267 51.66 22.8267C51.2414 22.8267 51.0097 22.8641 50.9649 22.9388C50.92 23.0285 50.9275 23.2004 50.9873 23.4545C51.0471 23.6937 51.1143 23.8432 51.1891 23.903C51.2937 23.9927 51.4955 24.0375 51.7945 24.0375C52.0935 24.0226 52.2728 23.9703 52.3326 23.8806C52.3775 23.8058 52.3999 23.6563 52.3999 23.4321C52.4148 23.2079 52.3999 23.0509 52.355 22.9613ZM51.929 27.513C52.6914 27.4681 54.1189 27.4532 56.2117 27.4681C58.3194 27.4681 59.433 27.4906 59.5526 27.5354C59.7918 27.64 59.9637 27.8493 60.0683 28.1632C60.1879 28.4622 60.1804 28.6939 60.0459 28.8583C59.8366 29.1124 59.5451 29.2694 59.1714 29.3292C58.8127 29.374 57.6916 29.4039 55.8081 29.4189C52.8932 29.4488 51.1293 29.4338 50.5164 29.374C49.9035 29.3142 49.5149 29.1199 49.3505 28.7911C49.2608 28.5818 49.2234 28.4099 49.2383 28.2753C49.2682 28.1259 49.3878 28.0063 49.5971 27.9166C49.8064 27.8119 50.0904 27.7297 50.4492 27.6699C50.8229 27.6101 51.3161 27.5578 51.929 27.513ZM51.6375 30.54C51.9514 30.4802 52.1981 30.5923 52.3775 30.8763C52.5568 31.1603 52.6465 31.5864 52.6465 32.1544C52.6465 32.8271 52.7138 33.2456 52.8483 33.41C52.938 33.5147 54.4029 33.4923 57.2431 33.3428C58.1101 33.2979 58.6557 33.2905 58.8799 33.3204C59.1191 33.3353 59.3134 33.425 59.4629 33.5894C59.7918 33.9033 59.8665 34.2397 59.6871 34.5984C59.5227 34.9572 59.1714 35.1889 58.6333 35.2935C58.3044 35.3533 56.7947 35.4131 54.104 35.4729C53.5808 35.4729 53.1548 35.4654 52.8259 35.4505C52.4971 35.4355 52.1906 35.3907 51.9066 35.3159C51.6375 35.2561 51.4283 35.1665 51.2788 35.0469C51.1442 34.9273 51.0247 34.7554 50.92 34.5312C50.8303 34.3069 50.7705 34.0603 50.7406 33.7912C50.7107 33.5072 50.6958 33.1485 50.6958 32.715C50.6958 31.8928 50.7556 31.3472 50.8752 31.0781C50.9948 30.7941 51.2489 30.6147 51.6375 30.54ZM72.0061 18.7907C72.3798 18.716 72.6489 18.7832 72.8133 18.9925C72.9777 19.1868 73.0898 19.583 73.1496 20.1809C73.2094 20.8536 73.2318 21.9747 73.2169 23.5442C73.2019 25.0989 73.1646 25.9434 73.1048 26.078C72.9702 26.347 72.7759 26.5339 72.5218 26.6385C72.2677 26.7282 72.0285 26.7058 71.8043 26.5712C71.5651 26.4218 71.4156 26.2499 71.3558 26.0555C71.311 25.8463 71.2886 25.3679 71.2886 24.6205V23.3873L71.0643 23.32C70.9149 23.2901 70.7654 23.2901 70.6159 23.32C69.8236 23.4695 69.2033 23.4247 68.7549 23.1855C68.3214 22.9463 68.2092 22.595 68.4185 22.1316C68.5381 21.8626 68.71 21.6757 68.9342 21.5711C69.1585 21.4515 69.5396 21.3693 70.0778 21.3244C70.4664 21.2796 70.8177 21.2273 71.1316 21.1675C71.2064 21.1525 71.2512 21.0778 71.2661 20.9433C71.296 20.7938 71.3334 20.435 71.3783 19.867C71.3932 19.5381 71.4306 19.3363 71.4904 19.2616C71.6697 18.9776 71.8417 18.8206 72.0061 18.7907ZM65.7278 19.0822C66.2809 19.0075 66.7518 19.1196 67.1404 19.4185C67.544 19.7175 67.7458 20.1062 67.7458 20.5845C67.7458 20.9582 67.5814 21.4141 67.2526 21.9523C66.9984 22.4007 66.7667 22.8118 66.5575 23.1855C66.4229 23.4396 66.1613 23.8507 65.7727 24.4187C65.384 24.9867 65.1224 25.3455 64.9879 25.495C64.5395 25.9733 64.1134 26.063 63.7098 25.764C63.4109 25.5548 63.2539 25.3305 63.239 25.0914C63.224 24.8522 63.3361 24.5607 63.5753 24.2169C63.7248 24.0076 63.9864 23.619 64.3601 23.0509C64.7338 22.453 65.0253 21.9672 65.2346 21.5935C65.2794 21.5188 65.3093 21.4664 65.3242 21.4365C65.5335 21.2273 65.5485 21.1002 65.3691 21.0554C65.2047 21.0255 64.7263 21.0255 63.9341 21.0554C63.2016 21.0703 62.7606 21.0778 62.6111 21.0778C62.4766 21.0628 62.3495 21.0255 62.23 20.9657C61.7965 20.7265 61.6096 20.4201 61.6694 20.0464C61.7441 19.6727 62.0207 19.4185 62.499 19.284C62.6336 19.2392 63.1866 19.2018 64.1583 19.1719C65.1299 19.127 65.6531 19.0971 65.7278 19.0822ZM67.8355 27.4906C67.8505 27.4607 68.2915 27.4532 69.1585 27.4681C70.0404 27.4681 70.6458 27.4831 70.9747 27.513C71.752 27.5728 72.2826 27.8344 72.5666 28.2978C72.8656 28.7462 72.9553 29.4488 72.8357 30.4055C72.7909 30.8091 72.7385 31.1006 72.6788 31.2799C72.619 31.4444 72.5068 31.6013 72.3424 31.7508C72.0733 32.0049 71.7445 32.1693 71.3558 32.2441C70.9672 32.3188 70.1077 32.3786 68.7773 32.4235C67.2825 32.4534 66.4827 32.5356 66.3781 32.6701C66.3183 32.7299 66.3258 32.8495 66.4005 33.0289C66.4603 33.1634 66.5201 33.2606 66.5799 33.3204C66.6546 33.3801 66.8265 33.4399 67.0956 33.4997C67.3647 33.5446 67.6786 33.5745 68.0373 33.5894C68.411 33.6044 69.009 33.6193 69.8311 33.6343C71.1316 33.6791 71.894 33.7165 72.1182 33.7464C72.3424 33.7613 72.5293 33.8136 72.6788 33.9033C73.0525 34.1724 73.187 34.4863 73.0824 34.8451C72.9927 35.2188 72.7012 35.4579 72.2079 35.5626C71.9986 35.6224 71.1092 35.6299 69.5396 35.585C67.9701 35.5402 66.9461 35.4804 66.4678 35.4056C65.825 35.3159 65.3616 35.0768 65.0776 34.6881C64.7936 34.3144 64.6291 33.7314 64.5843 32.9392C64.5544 32.4758 64.5694 32.132 64.6291 31.9078C64.6889 31.6835 64.8235 31.4593 65.0327 31.2351C65.3018 30.9511 65.6456 30.7642 66.0642 30.6745C66.4977 30.5699 67.3198 30.4802 68.5306 30.4055C69.861 30.3307 70.5785 30.241 70.6832 30.1364C70.728 30.0915 70.7504 29.9944 70.7504 29.8449C70.7504 29.7104 70.7056 29.6132 70.6159 29.5534C70.5412 29.4936 70.3767 29.4413 70.1226 29.3965C69.8834 29.3516 69.5247 29.3367 69.0463 29.3516C68.568 29.3516 67.9402 29.3591 67.1629 29.374C65.982 29.4039 65.2794 29.4114 65.0552 29.3965C64.8309 29.3815 64.659 29.3068 64.5395 29.1722C64.1957 28.8284 64.2554 28.4248 64.7188 27.9614C64.8534 27.8269 65.0253 27.7372 65.2346 27.6924C65.4588 27.6475 65.9371 27.6101 66.6696 27.5803C67.417 27.5354 67.8056 27.5055 67.8355 27.4906ZM93.9162 21.4814C94.1404 21.3319 94.3571 21.2945 94.5664 21.3693C94.7757 21.4291 94.9401 21.5786 95.0597 21.8177C95.1344 21.9822 95.1942 23.5966 95.2391 26.6609C95.2989 29.7104 95.2989 31.5042 95.2391 32.0423C95.1942 32.5057 95.0298 32.8196 94.7458 32.984C94.4618 33.1335 94.1479 33.0961 93.8041 32.8719C93.5649 32.7224 93.4154 32.5206 93.3556 32.2665C93.3108 32.0124 93.2734 31.3322 93.2435 30.2261C93.2136 28.6266 93.1837 27.6924 93.1538 27.4233C93.1239 27.1393 93.0417 26.9748 92.9072 26.93C92.7726 26.8852 92.4662 26.8777 91.9878 26.9076C91.4198 26.9375 91.0312 26.9001 90.8219 26.7955C90.6126 26.6908 90.493 26.4816 90.4631 26.1676C90.4482 25.9285 90.4631 25.7566 90.508 25.6519C90.5528 25.5323 90.65 25.4277 90.7995 25.338C90.9489 25.2334 91.1059 25.1661 91.2703 25.1362C91.4497 25.1063 91.9131 25.0465 92.6605 24.9568C92.6904 24.9568 92.7203 24.9568 92.7502 24.9568C93.0193 24.9269 93.1762 24.8597 93.2211 24.755C93.2659 24.6504 93.2958 24.3141 93.3108 23.746C93.3108 23.6563 93.3182 23.5891 93.3332 23.5442C93.3481 22.7819 93.3855 22.2886 93.4453 22.0644C93.52 21.8252 93.677 21.6309 93.9162 21.4814ZM84.9472 21.7953C85.2462 21.7056 85.7544 21.6907 86.472 21.7505C87.1895 21.7953 87.6902 21.8925 87.9743 22.0419C88.7964 22.4605 89.357 23.1631 89.6559 24.1496C89.7456 24.4785 89.8054 24.7476 89.8353 24.9568C89.8652 25.1512 89.8876 25.5473 89.9026 26.1452C89.9175 26.9823 89.8951 27.5504 89.8353 27.8493C89.7905 28.1333 89.641 28.522 89.3869 29.0153C89.2822 29.2096 89.0206 29.4712 88.6021 29.8001C88.5124 29.8598 88.3554 29.9421 88.1312 30.0467C87.9219 30.1513 87.7874 30.2037 87.7276 30.2037C87.6529 30.2037 87.5931 30.2261 87.5482 30.2709C87.5034 30.3158 87.1671 30.3382 86.5392 30.3382C85.9264 30.3382 85.5452 30.3083 85.3957 30.2485C84.8576 30.0841 84.4614 29.9421 84.2073 29.8225C83.9681 29.6879 83.7364 29.5011 83.5122 29.2619C83.3328 29.0975 83.1609 28.9106 82.9965 28.7014C82.8321 28.4921 82.7499 28.3576 82.7499 28.2978C82.7499 28.2828 82.705 28.2006 82.6153 28.0511C82.5256 27.9166 82.4584 27.7746 82.4135 27.6251C82.3986 27.5952 82.3762 27.5429 82.3463 27.4681C82.3164 27.3784 82.2939 27.3261 82.279 27.3112C82.1445 26.9524 82.0772 26.4143 82.0772 25.6968C82.0772 25.1437 82.0996 24.7476 82.1445 24.5084C82.1893 24.2692 82.3014 23.9553 82.4808 23.5667C82.5854 23.3723 82.7573 23.1406 82.9965 22.8716C83.2506 22.6025 83.4599 22.4306 83.6243 22.3559C84.1027 22.1167 84.4166 21.9747 84.5661 21.9298C84.596 21.9149 84.6558 21.8925 84.7454 21.8626C84.8501 21.8327 84.9174 21.8102 84.9472 21.7953ZM86.5392 23.7236C86.4794 23.6937 86.315 23.6713 86.0459 23.6563C85.7769 23.6265 85.5751 23.619 85.4405 23.6339C85.2911 23.6489 85.0818 23.7161 84.8127 23.8357C84.454 24.0002 84.2223 24.3365 84.1176 24.8447C84.013 25.353 84.0429 25.8986 84.2073 26.4816C84.3867 27.0645 84.6782 27.5354 85.0818 27.8942C85.321 28.1333 85.6722 28.2978 86.1356 28.3875C86.614 28.4622 86.9877 28.4398 87.2567 28.3202C87.4062 28.2454 87.5557 28.1333 87.7052 27.9839C87.8696 27.8194 87.9518 27.7073 87.9518 27.6475C87.9518 27.5728 87.9668 27.513 87.9967 27.4681C88.0864 27.3784 88.1312 26.9898 88.1312 26.3022C88.1312 25.5996 88.0864 25.1661 87.9967 25.0017C87.9668 24.9269 87.9518 24.8672 87.9518 24.8223C87.9518 24.7476 87.8248 24.6056 87.5707 24.3963C87.3315 24.1721 87.1297 24.0151 86.9653 23.9254C86.9055 23.8955 86.8232 23.8581 86.7186 23.8133C86.614 23.7535 86.5542 23.7236 86.5392 23.7236ZM110.567 19.441C110.671 19.3812 110.731 19.3513 110.746 19.3513C110.776 19.3513 110.873 19.3662 111.038 19.3961C111.381 19.4858 111.613 19.6951 111.733 20.0239C111.793 20.2482 111.822 21.4216 111.822 23.5442C111.837 25.6519 111.808 26.7805 111.733 26.93C111.583 27.2589 111.352 27.4532 111.038 27.513C110.724 27.5728 110.44 27.4681 110.186 27.1991C110.081 27.0944 110.006 26.9375 109.961 26.7282C109.932 26.504 109.909 26.0481 109.894 25.3604C109.864 24.5084 109.819 24.0525 109.76 23.9927C109.715 23.9329 109.341 23.903 108.639 23.903C107.936 23.903 107.465 23.8581 107.226 23.7685C107.002 23.6788 106.837 23.4695 106.733 23.1406C106.673 22.9314 106.71 22.7221 106.845 22.5128C106.979 22.2886 107.174 22.1541 107.428 22.1092C108.041 22.0195 108.564 21.9747 108.997 21.9747C109.401 21.9747 109.648 21.9298 109.737 21.8401C109.842 21.7505 109.894 21.5038 109.894 21.1002C109.894 20.8909 109.909 20.7265 109.939 20.6069C110.074 20.1734 110.171 19.8969 110.23 19.7773C110.29 19.6577 110.402 19.5456 110.567 19.441ZM99.9387 19.7997C101.299 19.5904 101.979 19.8819 101.979 20.6742C101.964 21.0778 101.867 21.3469 101.688 21.4814C101.523 21.6159 101.179 21.6832 100.656 21.6832C100.163 21.6832 99.834 21.6981 99.6696 21.728C99.5052 21.7579 99.408 21.8177 99.3781 21.9074C99.3183 22.027 99.2809 22.2961 99.266 22.7146C99.266 23.1332 99.2809 23.462 99.3108 23.7012C99.3856 24.1496 99.5126 24.4411 99.692 24.5757C99.8863 24.6952 100.297 24.7775 100.925 24.8223C101.404 24.8522 101.732 24.897 101.912 24.9568C102.091 25.0166 102.211 25.1287 102.271 25.2932C102.375 25.5174 102.383 25.7491 102.293 25.9883C102.203 26.2125 102.039 26.3769 101.8 26.4816C101.71 26.5414 101.284 26.5787 100.522 26.5937C99.7742 26.5937 99.3258 26.5712 99.1763 26.5264C99.0418 26.4816 98.9296 26.4517 98.84 26.4367C98.7353 26.4218 98.5559 26.3321 98.3018 26.1676C98.0627 25.9883 97.9281 25.8612 97.8982 25.7865C97.8534 25.7117 97.8235 25.6669 97.8085 25.6519C97.7487 25.5921 97.674 25.4202 97.5843 25.1362C97.4797 24.8074 97.4199 24.0525 97.4049 22.8716C97.39 21.6907 97.4348 20.9881 97.5395 20.7639C97.7936 20.1659 98.3616 19.867 99.2436 19.867C99.5126 19.867 99.7443 19.8446 99.9387 19.7997ZM104.401 20.0912C105.327 20.0314 105.993 20.0389 106.396 20.1136C106.8 20.1884 107.076 20.3603 107.226 20.6293C107.405 20.9731 107.368 21.2572 107.114 21.4814C106.875 21.6907 106.464 21.7953 105.881 21.7953C105.567 21.7953 105.245 21.8177 104.916 21.8626C104.588 21.9074 104.401 21.9523 104.356 21.9971C104.311 22.027 104.296 22.3932 104.311 23.0958C104.341 23.7984 104.378 24.2169 104.423 24.3514C104.498 24.5757 104.662 24.7326 104.916 24.8223C105.171 24.897 105.582 24.9344 106.15 24.9344C106.598 24.9494 106.942 25.054 107.181 25.2483C107.435 25.4427 107.532 25.6893 107.473 25.9883C107.443 26.0929 107.353 26.22 107.203 26.3694C107.054 26.504 106.934 26.5712 106.845 26.5712C106.785 26.5712 106.74 26.5862 106.71 26.6161C106.62 26.7207 106.067 26.8029 105.051 26.8627C104.124 26.9225 103.519 26.8627 103.235 26.6834C102.966 26.489 102.719 25.9733 102.495 25.1362C102.45 24.9419 102.42 24.2916 102.405 23.1855C102.39 22.0793 102.405 21.4963 102.45 21.4365C102.495 21.3767 102.525 21.302 102.54 21.2123C102.614 20.9433 102.831 20.6966 103.19 20.4724C103.564 20.2482 103.967 20.1211 104.401 20.0912ZM105.724 28.7014C105.768 28.6715 106.172 28.664 106.934 28.6789C107.712 28.6939 108.198 28.7238 108.392 28.7686C108.855 28.8434 109.199 29.0003 109.423 29.2395C109.648 29.4787 109.804 29.83 109.894 30.2933C109.999 30.966 110.059 31.7583 110.074 32.6701C110.088 33.567 110.044 34.1126 109.939 34.3069C109.804 34.5461 109.565 34.7105 109.221 34.8002C108.878 34.9049 108.586 34.8899 108.347 34.7554C108.093 34.6358 107.936 34.4639 107.876 34.2397C107.816 34.0154 107.779 33.425 107.764 32.4683C107.749 31.4369 107.727 30.8913 107.697 30.8315C107.652 30.7119 107.502 30.6446 107.248 30.6297C106.994 30.5998 106.157 30.5923 104.737 30.6073C103.422 30.6073 102.637 30.6073 102.383 30.6073C102.144 30.5923 101.972 30.5549 101.867 30.4951C101.553 30.3008 101.433 30.0318 101.508 29.6879C101.583 29.3441 101.815 29.1274 102.203 29.0377C102.592 28.948 103.369 28.8658 104.535 28.7911C105.313 28.7612 105.709 28.7313 105.724 28.7014ZM117.636 20.5172C118.488 20.4724 119.071 20.4799 119.385 20.5397C119.713 20.5994 119.953 20.7415 120.102 20.9657C120.267 21.2048 120.281 21.4889 120.147 21.8177C120.012 22.1466 119.818 22.311 119.564 22.311C119.489 22.311 119.429 22.3334 119.385 22.3783C119.355 22.4082 118.899 22.4231 118.017 22.4231C117.15 22.4082 116.515 22.3783 116.111 22.3334C115.752 22.3035 115.483 22.2064 115.304 22.0419C115.139 21.8775 115.094 21.6832 115.169 21.459C115.229 21.2646 115.281 21.1301 115.326 21.0554C115.386 20.9657 115.446 20.8835 115.506 20.8087C115.58 20.719 115.722 20.6667 115.932 20.6518C116.141 20.6219 116.35 20.5994 116.559 20.5845C116.769 20.5546 117.127 20.5322 117.636 20.5172ZM127.501 22.6698C127.77 22.5352 128.025 22.4979 128.264 22.5577C128.518 22.6174 128.69 22.7595 128.779 22.9837C128.854 23.1631 128.922 24.5084 128.981 27.0197C129.041 29.531 129.049 31.25 129.004 32.1768C128.959 32.8644 128.794 33.3652 128.51 33.6791C128.226 33.9781 127.905 33.993 127.546 33.724C127.322 33.5595 127.188 33.3204 127.143 33.0064C127.098 32.6925 127.075 31.8405 127.075 30.4503C127.075 29.2395 127.046 28.6117 126.986 28.5668C126.941 28.522 126.627 28.507 126.044 28.522C125.461 28.5369 125.14 28.5594 125.08 28.5893C125.035 28.6191 125.013 28.9929 125.013 29.7104C125.027 30.4129 125.05 30.9436 125.08 31.3024C125.184 32.3188 124.953 32.8271 124.385 32.8271C124.19 32.8271 124.004 32.7673 123.824 32.6477C123.66 32.5132 123.533 32.3487 123.443 32.1544C123.353 31.9451 123.294 31.7882 123.264 31.6835C123.249 31.5789 123.234 31.3397 123.219 30.966C123.159 30.1289 123.122 29.5983 123.107 29.374C123.062 28.9106 123.024 28.1034 122.995 26.9524C122.965 25.3829 123.024 24.3141 123.174 23.746C123.338 23.1631 123.645 22.8716 124.093 22.8716C124.422 22.8716 124.639 23.0061 124.743 23.2752C124.848 23.5442 124.915 24.1272 124.945 25.0241C124.945 25.1287 124.945 25.2633 124.945 25.4277C124.96 25.9359 124.99 26.2274 125.035 26.3022C125.095 26.3769 125.274 26.4068 125.573 26.3919C125.678 26.3919 125.752 26.3919 125.797 26.3919C125.857 26.3919 125.939 26.3919 126.044 26.3919C126.477 26.3769 126.732 26.3171 126.806 26.2125C126.881 26.0929 126.926 25.7043 126.941 25.0465C126.941 24.897 126.941 24.7775 126.941 24.6878C126.941 24.06 126.948 23.6414 126.963 23.4321C126.993 23.2229 127.038 23.0659 127.098 22.9613C127.173 22.8566 127.307 22.7595 127.501 22.6698ZM116.066 23.4097C116.35 23.3499 117.068 23.32 118.219 23.32C119.37 23.3051 120.065 23.32 120.304 23.3649C120.707 23.4396 120.984 23.6339 121.133 23.9478C121.298 24.2618 121.253 24.5458 120.999 24.7999C120.864 24.9344 120.715 25.0241 120.551 25.069C120.386 25.0988 119.885 25.1437 119.048 25.2035C118.704 25.2334 118.42 25.2633 118.196 25.2932C117.314 25.4277 116.716 25.5249 116.402 25.5847C116.268 25.6146 115.939 25.637 115.416 25.6519C114.908 25.6669 114.586 25.6295 114.452 25.5398C114.317 25.4352 114.25 25.2035 114.25 24.8447C114.265 24.3963 114.392 24.0749 114.631 23.8806C114.885 23.6862 115.363 23.5293 116.066 23.4097ZM116.941 25.9434C117.18 25.8986 117.576 25.8911 118.129 25.921C118.682 25.9359 119.048 25.9733 119.228 26.0331C119.631 26.1826 119.96 26.4442 120.214 26.8179C120.468 27.1766 120.745 27.7746 121.044 28.6117C121.133 28.8807 121.171 29.2769 121.156 29.8001C121.156 30.3232 121.111 30.7119 121.021 30.966C120.663 32.0423 119.968 32.7224 118.936 33.0064C117.905 33.2905 116.851 33.0961 115.775 32.4235C115.162 32.0348 114.668 31.3995 114.295 30.5176C113.936 29.6356 113.869 28.9032 114.093 28.3202C114.168 28.1408 114.212 28.0362 114.227 28.0063C114.362 27.6326 114.526 27.3486 114.721 27.1542C114.915 26.9599 115.266 26.7282 115.775 26.4591C116.298 26.1751 116.686 26.0032 116.941 25.9434ZM118.263 28.0511C118.024 27.9315 117.718 27.8867 117.344 27.9166C116.97 27.9465 116.671 28.0436 116.447 28.2081C116.074 28.4771 115.976 28.9704 116.156 29.6879C116.35 30.3905 116.694 30.8464 117.187 31.0557C117.666 31.265 118.077 31.3098 118.42 31.1902C118.779 31.0707 119.018 30.8091 119.138 30.4055C119.287 29.8972 119.28 29.4264 119.115 28.9929C118.951 28.5594 118.667 28.2454 118.263 28.0511ZM132.09 20.1136C132.269 20.0538 132.508 20.0613 132.807 20.136C133.121 20.1958 133.33 20.2855 133.435 20.4051C133.48 20.4799 133.532 20.6368 133.592 20.876C133.682 21.2646 133.726 21.459 133.726 21.459C133.786 21.6981 133.809 22.4829 133.794 23.8133C133.779 25.1437 133.734 26.1228 133.659 26.7506C133.614 27.2589 133.584 27.7372 133.569 28.1857C133.51 29.1423 133.338 29.6805 133.054 29.8001C132.949 29.8449 132.785 29.8524 132.56 29.8225C132.351 29.7926 132.187 29.7477 132.067 29.6879C132.052 29.673 132.03 29.658 132 29.6431C131.85 29.5684 131.761 29.374 131.731 29.0601C131.701 28.7313 131.686 27.64 131.686 25.7865C131.671 25.4128 131.664 25.1213 131.664 24.912C131.664 24.7027 131.664 24.4187 131.664 24.06C131.664 22.1615 131.679 21.0479 131.708 20.719C131.738 20.3902 131.843 20.1958 132.022 20.136C132.052 20.136 132.075 20.1286 132.09 20.1136ZM132.112 31.2575C132.605 31.108 133.039 31.2351 133.413 31.6387C133.786 32.0423 133.883 32.4833 133.704 32.9616C133.644 33.126 133.592 33.2905 133.547 33.4549C133.487 33.709 133.315 33.9108 133.031 34.0603C132.747 34.2247 132.478 34.2696 132.224 34.1948C132.03 34.135 131.828 34.0304 131.619 33.8809C131.424 33.7165 131.297 33.567 131.238 33.4325C131.088 33.0737 131.11 32.6477 131.305 32.1544C131.514 31.6611 131.783 31.3621 132.112 31.2575Z" fill="#77632A"/>
<path d="M10.7044 8.77842L7.65527 8.83706L7.69437 5.76836L10.7305 5.76184L10.7044 8.77842Z" fill="#77632A"/>
<path d="M10.737 45.3625L7.69434 45.3494L7.73343 42.3654L10.7239 42.3198L10.737 45.3625Z" fill="#77632A"/>
<path d="M159.676 8.77842L156.626 8.83706L156.666 5.76836L159.702 5.76184L159.676 8.77842Z" fill="#77632A"/>
<path d="M159.709 45.3625L156.666 45.3494L156.712 42.3654L159.696 42.3198L159.709 45.3625Z" fill="#77632A"/>
</svg>
