<svg width="167" height="52" viewBox="0 0 167 52" fill="none" xmlns="http://www.w3.org/2000/svg">
<path d="M166.153 50.9366L159.299 51.7249L152.412 51.8813L145.526 50.8388L138.632 51.2949L131.752 51.2363L124.859 50.5L117.972 51.6402L111.086 50.5326L104.199 51.6988L97.3124 50.3176L90.4192 50.7737L83.5326 50.0375L76.6459 51.3275L69.7527 50.3046L62.8596 51.7184L55.9729 51.2363L49.0797 50.6825L42.193 51.5881L35.3064 50.1873L28.4132 50.4023L21.52 51.334L14.6333 50.8844L7.73365 51.8226L0.860019 50.9561L1.25094 43.8284L0.267127 36.6811L1.14018 29.5338L0 22.38L1.17927 15.2262L0.488647 8.07246L1.23791 1.30306L7.72714 0.325765L14.6203 1.53762L21.507 1.12715L28.3936 1.13367L35.2803 0.34531L42.167 1.05547L49.0536 1.06852L55.9403 1.48549L62.8335 1.81125L69.7202 0.983816L76.6068 0.736231L83.5 1.65489L90.3867 0.755776L97.2798 1.3161L104.167 1.66791L111.06 1.19231L117.946 1.08806L124.84 0.514714L131.726 0.983816L138.613 0L145.506 0.241063L152.399 0.749255L159.292 0.0521335L165.801 1.29656L166.459 8.06594L165.775 15.2132L166.309 22.367L166.225 29.5143L166.264 36.6681L167 43.8219L166.153 50.9366Z" fill="#E2D29F"/>
<path d="M50.5147 21.6832C50.7688 21.5038 51.0304 21.4216 51.2995 21.4365C51.5835 21.4515 51.8077 21.5561 51.9722 21.7505C52.032 21.8102 52.0619 21.9224 52.0619 22.0868C52.0768 22.2512 52.0619 22.3559 52.017 22.4007C51.8675 22.5502 51.8451 22.7146 51.9498 22.894C52.0693 23.0734 52.3534 23.3499 52.8018 23.7236C53.3997 24.202 54.0276 24.7849 54.6853 25.4726C55.0291 25.8463 55.2384 26.1975 55.3131 26.5264C55.3878 26.8553 55.3131 27.1169 55.0889 27.3112C54.8497 27.5055 54.5806 27.5578 54.2817 27.4681C53.9827 27.3784 53.609 27.1243 53.1606 26.7058C52.7121 26.3022 52.3384 25.9808 52.0394 25.7416C51.7405 25.4726 51.5387 25.2932 51.434 25.2035C50.9856 24.7999 50.6792 24.5981 50.5147 24.5981C50.3652 24.5981 49.9542 24.9867 49.2815 25.764C48.9975 26.078 48.6462 26.4591 48.2277 26.9076C47.7493 27.4457 47.3158 27.7522 46.9272 27.8269C46.5535 27.9016 46.2844 27.7372 46.12 27.3336C46.0602 27.1841 46.0602 26.945 46.12 26.6161C46.1947 26.2872 46.2769 26.1228 46.3666 26.1228C46.3965 26.1228 46.4114 26.0929 46.4114 26.0331C46.4114 25.9883 46.4787 25.8986 46.6132 25.764C46.7328 25.6295 46.8823 25.4501 47.0617 25.2259C47.2859 24.9718 47.7643 24.4561 48.4967 23.6788C48.8555 23.3051 49.2292 22.9164 49.6178 22.5128C49.9766 22.1092 50.2756 21.8327 50.5147 21.6832ZM52.3085 30.8315C52.9662 30.8016 53.7211 30.7941 54.5732 30.8091C55.4252 30.8091 55.926 30.824 56.0755 30.8539C56.5986 30.9436 56.935 31.1379 57.0845 31.4369C57.2489 31.7358 57.1741 32.0348 56.8602 32.3338C56.651 32.5132 56.3296 32.6253 55.8961 32.6701C55.4626 32.715 54.2069 32.7673 52.1291 32.8271C48.6761 32.9317 46.7478 32.8869 46.3442 32.6925C46.0153 32.5431 45.7836 32.3413 45.6491 32.0871C45.5295 31.833 45.5445 31.6013 45.6939 31.392C45.7687 31.2575 45.8808 31.1753 46.0303 31.1454C46.1798 31.1155 46.531 31.0931 47.0841 31.0781C47.7568 31.0482 48.7209 31.0034 49.9766 30.9436C51.2023 30.8838 51.9797 30.8464 52.3085 30.8315ZM61.2412 19.1943C61.5551 19.1644 62.0484 19.1569 62.721 19.1719C63.3937 19.1868 63.7749 19.2167 63.8646 19.2616C64.2233 19.441 64.4326 19.6727 64.4924 19.9567C64.5522 20.2257 64.4625 20.4649 64.2233 20.6742C63.9991 20.8685 63.6702 20.9657 63.2368 20.9657C62.6986 20.9657 62.0708 21.003 61.3533 21.0778C60.6507 21.1525 60.277 21.2198 60.2322 21.2796C60.2023 21.3394 60.1798 21.4889 60.1649 21.728C60.1649 21.9672 60.1873 22.0943 60.2322 22.1092C60.277 22.1541 60.6806 22.169 61.443 22.1541C62.4146 22.1391 63.0723 22.1989 63.4161 22.3334C63.7749 22.453 63.9543 22.6997 63.9543 23.0734C63.9543 23.477 63.7973 23.746 63.4834 23.8806C63.1844 24.0151 62.5716 24.0973 61.6448 24.1272C61.5999 24.1272 61.5401 24.1272 61.4654 24.1272C60.7927 24.1422 60.4041 24.1795 60.2994 24.2393C60.1948 24.2842 60.1873 24.4636 60.277 24.7775C60.292 24.8223 60.2994 24.8522 60.2994 24.8672V24.8896C60.4041 25.2334 60.5386 25.4352 60.703 25.495C60.8675 25.5548 61.4131 25.5847 62.3399 25.5847C62.3548 25.5847 62.3698 25.5847 62.3847 25.5847C63.162 25.5847 63.6404 25.5921 63.8197 25.6071C64.0141 25.622 64.1785 25.6594 64.313 25.7192C64.5671 25.8238 64.7166 25.9883 64.7615 26.2125C64.8213 26.4367 64.7615 26.646 64.5821 26.8403C64.4326 27.0197 64.2682 27.1318 64.0888 27.1766C63.9244 27.2215 63.5357 27.2663 62.9228 27.3112C61.8167 27.4158 60.9422 27.4233 60.2994 27.3336C59.6567 27.2439 59.2007 27.0645 58.9317 26.7955C58.6776 26.5264 58.4982 26.0929 58.3935 25.495C58.3188 25.0615 58.2889 24.2244 58.3038 22.9837C58.3188 21.728 58.3711 20.9731 58.4608 20.719C58.6402 20.1809 58.8943 19.8221 59.2232 19.6428C59.552 19.4634 60.2247 19.3139 61.2412 19.1943ZM71.3312 19.3288C71.7497 19.2541 72.0711 19.4484 72.2954 19.9118C72.3551 20.0613 72.385 21.2871 72.385 23.5891C72.4 25.8911 72.3776 27.1243 72.3178 27.2888C72.1832 27.6176 71.9814 27.8119 71.7124 27.8717C71.4583 27.9315 71.2116 27.8568 70.9724 27.6475C70.7482 27.4233 70.6062 27.1169 70.5464 26.7282C70.4567 26.1004 70.4268 24.8746 70.4567 23.0509C70.5016 21.2273 70.5763 20.1809 70.681 19.9118C70.7258 19.8072 70.823 19.6876 70.9724 19.5531C71.1219 19.4185 71.2415 19.3438 71.3312 19.3288ZM67.7661 19.7773C68.0501 19.5979 68.3117 19.568 68.5508 19.6876C68.79 19.8072 68.9694 20.0538 69.089 20.4275C69.1787 20.7564 69.231 21.8252 69.2459 23.6339C69.2758 25.4427 69.2459 26.504 69.1562 26.8179C69.0367 27.2065 68.8274 27.4308 68.5284 27.4906C68.2444 27.5354 67.9753 27.4009 67.7212 27.087C67.5867 26.9076 67.497 26.7506 67.4521 26.6161C67.4222 26.4816 67.3849 26.205 67.34 25.7865C67.2952 25.2184 67.2653 24.8672 67.2503 24.7326L67.2279 24.4187H66.488C66.0246 24.4187 65.6285 24.344 65.2996 24.1945C64.9707 24.0301 64.7764 23.8357 64.7166 23.6115C64.6568 23.3873 64.739 23.1556 64.9633 22.9164C65.1277 22.752 65.3071 22.6399 65.5014 22.5801C65.6957 22.5203 66.0096 22.468 66.4431 22.4231L67.2055 22.3559L67.2279 21.4141C67.2429 20.861 67.2877 20.4799 67.3625 20.2706C67.4372 20.0613 67.5717 19.8969 67.7661 19.7773ZM62.5417 29.0825C62.7061 28.948 62.9228 28.8957 63.1919 28.9256C63.4759 28.9555 63.6404 29.0526 63.6852 29.2171C63.7151 29.2918 63.745 29.3292 63.7749 29.3292C63.8347 29.3292 63.8945 29.6057 63.9543 30.1588C63.9842 30.4578 64.0215 30.6297 64.0664 30.6745C64.1411 30.7194 64.7166 30.7268 65.7929 30.6969C66.8841 30.6671 67.7212 30.6222 68.3042 30.5624L68.7078 30.5176L68.7975 29.9794C68.932 29.0825 69.3431 28.7612 70.0307 29.0153C70.3446 29.1349 70.5688 29.4413 70.7034 29.9346C70.8379 30.4279 70.9052 31.2052 70.9052 32.2665C70.9052 33.1634 70.8155 33.8136 70.6361 34.2172C70.4717 34.6358 70.1802 34.9273 69.7616 35.0917C69.4627 35.1964 68.364 35.2412 66.4656 35.2263C64.5821 35.2113 63.5282 35.1515 63.304 35.0469C63.1994 34.9871 63.1172 34.9422 63.0574 34.9123C62.6837 34.7479 62.4295 34.4116 62.295 33.9033C62.1605 33.3951 62.0932 32.5356 62.0932 31.3248C62.0932 30.4578 62.1156 29.9122 62.1605 29.6879C62.2053 29.4488 62.3324 29.247 62.5417 29.0825ZM68.8423 32.715C68.8423 32.6103 68.7975 32.5505 68.7078 32.5356C68.633 32.5057 68.3715 32.4907 67.923 32.4907C67.3101 32.4758 66.9962 32.4833 66.9813 32.5132C66.9663 32.5281 66.5851 32.558 65.8377 32.6028C65.7331 32.6028 65.5911 32.6103 65.4117 32.6253C64.6793 32.6701 64.2458 32.7075 64.1112 32.7374C63.9916 32.7523 63.9393 32.7972 63.9543 32.8719C63.9543 32.9018 63.9543 32.9242 63.9543 32.9392C63.9842 33.1485 64.1112 33.2755 64.3354 33.3204C64.5746 33.3503 65.2622 33.3652 66.3983 33.3652C67.6091 33.3801 68.3266 33.3577 68.5508 33.2979C68.7751 33.2232 68.8722 33.0289 68.8423 32.715ZM84.4356 21.3917C84.6598 21.3469 85.4446 21.3319 86.79 21.3469C88.1353 21.3469 88.8678 21.3618 88.9873 21.3917C89.2415 21.4814 89.4881 21.6458 89.7273 21.885C89.9814 22.1092 90.1085 22.2961 90.1085 22.4455C90.1085 22.5053 90.1234 22.5502 90.1533 22.5801C90.2579 22.6997 90.2878 23.5592 90.243 25.1586C90.2131 26.7581 90.1309 27.8717 89.9964 28.4996C89.9366 28.8583 89.7572 29.105 89.4582 29.2395C89.1742 29.3591 88.8827 29.3217 88.5837 29.1274C88.4193 29.0078 88.3072 28.8882 88.2474 28.7686C88.2026 28.649 88.1727 28.3875 88.1577 27.9839C88.1428 27.5055 88.1054 27.2439 88.0456 27.1991C87.9858 27.1243 86.9992 27.1318 85.0859 27.2215C84.1441 27.2514 83.5163 27.2663 83.2024 27.2663C82.9034 27.2514 82.6792 27.2065 82.5297 27.1318C82.2009 26.9674 82.0364 26.7058 82.0364 26.347C82.0364 25.9733 82.2009 25.7117 82.5297 25.5622C82.8137 25.4427 83.748 25.353 85.3325 25.2932C86.5882 25.2483 87.358 25.2184 87.642 25.2035L88.2923 25.1586V24.3066C88.2923 24.2319 88.2923 24.1272 88.2923 23.9927C88.3072 23.619 88.225 23.4022 88.0456 23.3424C87.8662 23.2677 87.216 23.2378 86.0949 23.2527C85.7212 23.2527 85.4297 23.2527 85.2204 23.2527C85.1905 23.2527 85.1457 23.2527 85.0859 23.2527C83.6209 23.2527 82.754 23.2378 82.4849 23.2079C82.2308 23.178 82.0364 23.0734 81.9019 22.894C81.9019 22.879 81.9019 22.8716 81.9019 22.8716C81.6777 22.5278 81.7599 22.2064 82.1486 21.9074C82.5372 21.6084 83.0679 21.4515 83.7405 21.4365C84.0096 21.4365 84.2413 21.4216 84.4356 21.3917ZM83.7181 31.2127C83.763 31.1828 84.914 31.1753 87.1711 31.1902C89.4283 31.2052 90.6317 31.2351 90.7811 31.2799C91.1847 31.3995 91.4463 31.6088 91.5659 31.9078C91.6855 32.1918 91.6108 32.4608 91.3417 32.715C91.3417 32.715 91.3417 32.7224 91.3417 32.7374C91.1324 32.9168 90.8185 33.0289 90.4 33.0737C89.9964 33.1036 88.6734 33.126 86.4312 33.141C86.3415 33.141 86.2743 33.141 86.2294 33.141C84.1217 33.141 82.881 33.1335 82.5073 33.1186C82.1336 33.1036 81.887 33.0588 81.7674 32.984C81.4236 32.715 81.2517 32.416 81.2517 32.0871C81.2517 31.7583 81.4161 31.5415 81.7449 31.4369C81.8645 31.392 82.2233 31.3472 82.8212 31.3024C83.4042 31.2725 83.7032 31.2426 83.7181 31.2127ZM95.1472 21.4365C96.1188 21.3917 96.8064 21.3992 97.21 21.459C97.6286 21.5038 97.9275 21.6234 98.1069 21.8177C98.3461 22.0718 98.503 22.3708 98.5778 22.7146C98.6525 23.0584 98.6675 23.5517 98.6226 24.1945C98.5927 24.4785 98.5628 24.9344 98.5329 25.5622C98.4731 26.2947 98.2713 26.7955 97.9275 27.0645C97.5987 27.3336 96.9335 27.513 95.932 27.6027C95.334 27.6475 94.9678 27.7447 94.8333 27.8942C94.7137 28.0287 94.7286 28.3426 94.8781 28.8359C94.923 29.0003 94.9678 29.1274 95.0126 29.2171C95.0575 29.2918 95.1098 29.3666 95.1696 29.4413C95.2443 29.5011 95.3714 29.5459 95.5508 29.5758C95.7302 29.5908 95.917 29.6057 96.1113 29.6207C96.3057 29.6207 96.6196 29.6207 97.0531 29.6207C97.7108 29.6057 98.1518 29.6132 98.376 29.6431C98.6002 29.658 98.7572 29.7029 98.8469 29.7776C98.9515 29.8374 99.0487 29.9645 99.1383 30.1588C99.2729 30.5176 99.2131 30.7792 98.959 30.9436C98.7198 31.108 98.2414 31.2127 97.5239 31.2575C96.358 31.3472 95.4686 31.3771 94.8557 31.3472C94.2428 31.3173 93.8392 31.25 93.6449 31.1454C93.4655 31.0408 93.3011 30.8315 93.1516 30.5176C92.9573 30.1289 92.8377 29.4562 92.7928 28.4996C92.7629 27.5279 92.8227 26.9001 92.9722 26.6161C93.2562 26.1676 93.7794 25.9135 94.5418 25.8537C95.4536 25.7939 96.0216 25.7341 96.2459 25.6744C96.4701 25.6146 96.5897 25.48 96.6046 25.2708C96.6196 25.211 96.6345 25.1287 96.6495 25.0241C96.6794 24.6654 96.7018 24.4112 96.7167 24.2618C96.7466 24.1123 96.7541 23.9478 96.7392 23.7685C96.7242 23.5891 96.7018 23.4844 96.6719 23.4545C96.642 23.4097 96.5673 23.3574 96.4477 23.2976C96.3281 23.2378 96.216 23.2154 96.1113 23.2303C96.0067 23.2303 95.8198 23.2303 95.5508 23.2303C95.476 23.2303 95.4162 23.2303 95.3714 23.2303C94.6389 23.2303 94.1531 23.2602 93.9139 23.32C93.3758 23.4247 93.0021 23.2826 92.7928 22.894C92.5985 22.4904 92.7181 22.1242 93.1516 21.7953C93.3758 21.6159 94.041 21.4963 95.1472 21.4365ZM106.134 21.5711C106.313 21.4963 106.508 21.4963 106.717 21.5711C106.941 21.6458 107.098 21.7654 107.188 21.9298C107.278 22.0793 107.337 22.4605 107.367 23.0734C107.397 23.6862 107.42 25.1437 107.435 27.4457C107.45 29.6879 107.442 31.0632 107.412 31.5714C107.397 32.0647 107.337 32.416 107.233 32.6253C107.083 32.9093 106.822 33.0363 106.448 33.0064C106.089 32.9765 105.828 32.8121 105.663 32.5132C105.588 32.3786 105.544 30.6596 105.529 27.356C105.514 24.0525 105.544 22.311 105.618 22.1316C105.723 21.8476 105.895 21.6608 106.134 21.5711ZM102.434 22.2662C102.674 22.0868 102.913 22.0419 103.152 22.1316C103.406 22.2213 103.57 22.4231 103.645 22.737C103.75 23.1855 103.84 24.6205 103.914 27.0421C103.989 29.4488 103.982 30.8091 103.892 31.123C103.832 31.3472 103.712 31.5191 103.533 31.6387C103.369 31.7433 103.197 31.7657 103.017 31.706C102.644 31.5864 102.382 31.2949 102.233 30.8315C102.083 30.3681 101.978 29.5459 101.919 28.365C101.904 27.8568 101.859 27.5728 101.784 27.513C101.709 27.4382 101.418 27.4009 100.91 27.4009C100.357 27.4009 100.02 27.371 99.9007 27.3112C99.6316 27.1617 99.4224 26.945 99.2729 26.6609C99.1234 26.3769 99.0935 26.1303 99.1832 25.921C99.3177 25.5921 99.9605 25.3903 101.112 25.3156C101.141 25.3156 101.194 25.3156 101.268 25.3156C101.582 25.3007 101.762 25.2558 101.807 25.1811C101.866 25.0914 101.904 24.7924 101.919 24.2842C101.919 24.1646 101.919 24.0749 101.919 24.0151C101.934 23.3574 101.964 22.9463 102.008 22.7819C102.053 22.6174 102.195 22.4455 102.434 22.2662ZM119.452 19.7997C119.781 19.4559 120.133 19.441 120.506 19.7549C120.656 19.8745 120.73 19.9641 120.73 20.0239C120.73 20.0688 120.745 20.1286 120.775 20.2033C120.895 20.4425 120.955 21.5935 120.955 23.6563C120.955 25.7192 120.887 26.9748 120.753 27.4233C120.633 27.8717 120.387 28.1333 120.013 28.2081C119.654 28.2679 119.385 28.1109 119.206 27.7372C119.101 27.498 119.026 27.1243 118.982 26.6161C118.952 26.1079 118.937 25.2259 118.937 23.9703C118.937 22.4306 118.967 21.4066 119.026 20.8984C119.101 20.3752 119.243 20.009 119.452 19.7997ZM112.188 20.3827C113.742 20.308 114.804 20.3603 115.372 20.5397C115.955 20.719 116.194 21.0853 116.089 21.6383C116.029 21.9074 115.865 22.0793 115.596 22.1541C115.327 22.2138 114.699 22.2363 113.712 22.2213C113.623 22.2213 113.503 22.2213 113.354 22.2213C113.055 22.2064 112.845 22.1989 112.726 22.1989C112.606 22.1989 112.457 22.2064 112.277 22.2213C112.113 22.2363 112.001 22.2512 111.941 22.2662C111.896 22.2662 111.829 22.3035 111.739 22.3783C111.664 22.4381 111.62 22.4904 111.605 22.5352C111.605 22.5651 111.597 22.6473 111.582 22.7819C111.567 22.9164 111.56 23.0285 111.56 23.1182C111.56 23.2079 111.567 23.3649 111.582 23.5891C111.597 23.7087 111.605 23.8058 111.605 23.8806C111.62 24.1795 111.635 24.4112 111.649 24.5757C111.664 24.7251 111.702 24.8746 111.762 25.0241C111.836 25.1586 111.911 25.2558 111.986 25.3156C112.075 25.3604 112.217 25.4053 112.412 25.4501C112.606 25.48 112.808 25.4875 113.017 25.4726C113.226 25.4576 113.518 25.4427 113.892 25.4277C114.789 25.353 115.379 25.3455 115.663 25.4053C115.947 25.4501 116.179 25.6071 116.358 25.8762C116.538 26.1303 116.552 26.3769 116.403 26.6161C116.253 26.8553 115.962 27.0421 115.529 27.1766C115.334 27.2364 114.549 27.2663 113.174 27.2663C111.814 27.2663 111.059 27.2364 110.91 27.1766C110.416 26.9823 110.095 26.7805 109.945 26.5712C109.811 26.347 109.714 25.9135 109.654 25.2708C109.594 24.628 109.564 23.8656 109.564 22.9837C109.564 22.0868 109.602 21.5561 109.676 21.3917C109.841 21.0329 110.087 20.7863 110.416 20.6518C110.745 20.5172 111.336 20.4275 112.188 20.3827ZM116.224 29.1274C116.478 28.9929 116.694 29.0078 116.874 29.1722C117.068 29.3217 117.195 29.5833 117.255 29.957C117.285 30.256 117.412 30.5325 117.636 30.7866C117.875 31.0258 118.316 31.3547 118.959 31.7732C119.288 31.9974 119.684 32.3413 120.148 32.8046C120.611 33.268 120.902 33.6118 121.022 33.8361C121.201 34.1799 121.104 34.4714 120.73 34.7105C120.357 34.9497 119.983 34.9572 119.609 34.733C119.46 34.6283 119.37 34.576 119.34 34.576C119.281 34.576 118.982 34.3742 118.443 33.9706C117.905 33.582 117.576 33.3204 117.457 33.1858C117.442 33.1709 117.36 33.1036 117.21 32.984C117.061 32.8644 116.934 32.7598 116.829 32.6701C116.694 32.5505 116.493 32.4235 116.224 32.2889C115.984 32.1544 115.82 32.1021 115.73 32.132C115.641 32.1619 115.394 32.3711 114.99 32.7598C114.198 33.5072 113.63 33.993 113.286 34.2172C112.957 34.4564 112.673 34.5386 112.434 34.4639C112.046 34.3593 111.806 34.1649 111.717 33.8809C111.642 33.5969 111.724 33.2979 111.963 32.984C112.128 32.7598 112.472 32.3861 112.995 31.8629C113.533 31.3248 113.951 30.9286 114.25 30.6745C115.342 29.7776 115.902 29.3217 115.932 29.3068C115.977 29.2769 116.074 29.2171 116.224 29.1274Z" fill="#77632A"/>
<path d="M10.7044 8.77836L7.65527 8.837L7.69437 5.7683L10.7305 5.76178L10.7044 8.77836Z" fill="#77632A"/>
<path d="M10.737 45.3623L7.69434 45.3493L7.73343 42.3653L10.7239 42.3197L10.737 45.3623Z" fill="#77632A"/>
<path d="M159.676 8.77836L156.626 8.837L156.666 5.7683L159.702 5.76178L159.676 8.77836Z" fill="#77632A"/>
<path d="M159.709 45.3623L156.666 45.3493L156.712 42.3653L159.696 42.3197L159.709 45.3623Z" fill="#77632A"/>
</svg>
