<svg width="167" height="52" viewBox="0 0 167 52" fill="none" xmlns="http://www.w3.org/2000/svg">
<path d="M166.153 50.9366L159.299 51.7249L152.412 51.8813L145.526 50.8388L138.632 51.2949L131.752 51.2363L124.859 50.5L117.972 51.6402L111.086 50.5326L104.199 51.6988L97.3124 50.3176L90.4192 50.7737L83.5326 50.0375L76.6459 51.3275L69.7527 50.3046L62.8596 51.7184L55.9729 51.2363L49.0797 50.6825L42.193 51.5881L35.3064 50.1873L28.4132 50.4023L21.52 51.334L14.6333 50.8844L7.73365 51.8226L0.860019 50.9561L1.25094 43.8284L0.267127 36.6811L1.14018 29.5338L0 22.38L1.17927 15.2262L0.488647 8.07246L1.23791 1.30306L7.72714 0.325765L14.6203 1.53762L21.507 1.12715L28.3936 1.13367L35.2803 0.34531L42.167 1.05547L49.0536 1.06852L55.9403 1.48549L62.8335 1.81125L69.7202 0.983816L76.6068 0.736231L83.5 1.65489L90.3867 0.755776L97.2798 1.3161L104.167 1.66791L111.06 1.19231L117.946 1.08806L124.84 0.514714L131.726 0.983816L138.613 0L145.506 0.241063L152.399 0.749255L159.292 0.0521335L165.801 1.29656L166.459 8.06594L165.775 15.2132L166.309 22.367L166.225 29.5143L166.264 36.6681L167 43.8219L166.153 50.9366Z" fill="#F3E7B8"/>
<path d="M38.7082 19.3961C38.9025 19.2316 39.1268 19.1868 39.3809 19.2615C39.65 19.3363 39.8368 19.4857 39.9414 19.71C40.0909 20.0239 40.1657 21.2272 40.1657 23.32C40.1657 25.3978 40.0984 26.5861 39.9639 26.8851C39.7845 27.2289 39.5079 27.4083 39.1342 27.4232C38.7755 27.4382 38.5214 27.2812 38.3719 26.9524C38.2672 26.7132 38.2 26.3993 38.1701 26.0106C38.1551 25.607 38.1551 24.6877 38.1701 23.2527C38.185 21.6233 38.2149 20.6218 38.2598 20.2481C38.3196 19.8744 38.469 19.5904 38.7082 19.3961ZM31.4882 19.7548C33.4465 19.6203 34.6124 19.7025 34.9861 20.0015C35.2552 20.1958 35.4271 20.3976 35.5018 20.6069C35.5766 20.8012 35.6139 21.1749 35.6139 21.728C35.6289 22.4305 35.6139 23.1929 35.5691 24.015C35.5242 24.8222 35.4719 25.323 35.4121 25.5173C35.3523 25.7266 35.2253 25.9284 35.031 26.1227C34.8516 26.3171 34.6647 26.4441 34.4704 26.5039C34.2611 26.5637 33.4689 26.5936 32.0936 26.5936C30.7184 26.5787 29.971 26.5413 29.8514 26.4815C29.3432 26.2423 29.0442 25.8462 28.9545 25.2931C28.82 24.5756 28.7303 23.7086 28.6855 22.6921C28.6556 21.6607 28.6855 21.0404 28.7751 20.8311C28.9246 20.4723 29.1862 20.2182 29.5599 20.0687C29.9486 19.9192 30.5913 19.8146 31.4882 19.7548ZM33.7305 21.9522C33.7155 21.8326 33.6632 21.7354 33.5735 21.6607C33.4838 21.571 33.3792 21.5262 33.2596 21.5262C33.155 21.5112 32.8112 21.5037 32.2282 21.5037C32.1983 21.5037 32.1609 21.5037 32.1161 21.5037C31.3687 21.5037 30.9352 21.5336 30.8156 21.5934C30.696 21.6532 30.6362 21.855 30.6362 22.1988C30.6362 22.2138 30.6362 22.2287 30.6362 22.2437C30.6661 23.5591 30.7408 24.3065 30.8604 24.4859C30.9202 24.5906 31.1594 24.6728 31.5779 24.7326C32.0114 24.7774 32.4001 24.7699 32.7439 24.7101C33.0428 24.6653 33.2596 24.6429 33.3941 24.6429C33.5735 24.6429 33.6781 24.5681 33.708 24.4186C33.7379 24.2692 33.7529 23.8207 33.7529 23.0733C33.7529 22.4455 33.7454 22.0718 33.7305 21.9522ZM34.5377 28.6789C35.3449 28.634 36.2268 28.6266 37.1835 28.6565C38.1402 28.6864 38.7007 28.7387 38.8652 28.8134C39.1641 28.9479 39.351 29.1572 39.4257 29.4412C39.5154 29.7253 39.4556 29.9495 39.2463 30.1139C39.0819 30.2634 38.9025 30.3531 38.7082 30.383C38.5288 30.4129 37.9907 30.4353 37.0938 30.4502C35.6737 30.4801 34.6647 30.5325 34.0668 30.6072C33.4689 30.667 33.14 30.7642 33.0802 30.8987C33.0055 31.0183 32.9756 31.3098 32.9905 31.7732C33.0204 32.2366 33.0727 32.528 33.1475 32.6476C33.1475 32.6626 33.155 32.67 33.1699 32.67C33.2745 32.8494 33.4539 32.9541 33.708 32.984C33.9771 33.0139 34.8516 33.0363 36.3315 33.0512C36.451 33.0512 36.5407 33.0512 36.6005 33.0512C38.5886 33.0811 39.6275 33.1185 39.7172 33.1633C40.061 33.3278 40.2329 33.5744 40.2329 33.9033C40.2329 34.2172 40.061 34.4564 39.7172 34.6208C39.5229 34.7254 38.6335 34.8151 37.049 34.8899C35.4645 34.9795 34.4629 34.9945 34.0444 34.9347C33.8351 34.8899 33.5885 34.8674 33.3044 34.8674C33.0354 34.8674 32.7887 34.8301 32.5645 34.7553C32.3104 34.6656 32.1609 34.6133 32.1161 34.5984C32.0413 34.5834 32.0039 34.5535 32.0039 34.5087C32.0039 34.4788 31.9815 34.4638 31.9367 34.4638C31.8918 34.4638 31.8171 34.4115 31.7125 34.3069C31.6228 34.2172 31.5406 34.1126 31.4658 33.993C31.2266 33.5894 31.0921 32.8494 31.0622 31.7732C31.0473 30.6819 31.1519 29.9719 31.3761 29.643C31.6153 29.2843 31.9143 29.0526 32.273 28.9479C32.6467 28.8433 33.4016 28.7536 34.5377 28.6789ZM46.9227 18.2749C47.4907 18.2002 48.0811 18.2301 48.694 18.3646C49.3069 18.4992 49.8077 18.7084 50.1963 18.9925C50.4056 19.1419 50.6373 19.3736 50.8914 19.6875C50.996 19.837 51.153 20.2257 51.3623 20.8535C51.6762 21.7653 51.5715 22.6921 51.0484 23.6339C50.5252 24.5607 49.7852 25.1661 48.8286 25.4501C48.6641 25.5099 48.5146 25.5547 48.3801 25.5846C48.2456 25.6294 47.984 25.6444 47.5953 25.6294C47.2216 25.6145 46.8778 25.5846 46.5639 25.5398C45.4278 25.3454 44.5235 24.8222 43.8508 23.9702C43.507 23.5367 43.3351 22.8715 43.3351 21.9746C43.3351 21.0777 43.507 20.4574 43.8508 20.1136C43.8956 20.0538 43.9181 20.0089 43.9181 19.979C43.9181 19.9491 44.0227 19.8296 44.232 19.6203C44.5459 19.2914 44.957 18.9999 45.4652 18.7458C45.9884 18.4917 46.4742 18.3347 46.9227 18.2749ZM47.9317 20.2481C47.5281 20.1584 47.1992 20.1509 46.9451 20.2257C46.2724 20.3901 45.8165 20.5844 45.5773 20.8087C45.3531 21.0179 45.241 21.3468 45.241 21.7952C45.241 22.5128 45.4951 23.0359 46.0033 23.3648C46.5116 23.6787 47.2291 23.7684 48.1559 23.6339C48.5744 23.5741 48.9257 23.3872 49.2097 23.0733C49.4937 22.7594 49.6358 22.4006 49.6358 21.997C49.6507 21.0703 49.0827 20.4873 47.9317 20.2481ZM47.0123 26.7057C47.7 26.6609 48.6865 26.6459 49.9721 26.6609C51.2726 26.6758 52.0275 26.7057 52.2367 26.7506C52.745 26.8701 52.9916 27.1392 52.9767 27.5578C52.9767 27.9614 52.7226 28.2828 52.2143 28.5219C51.9901 28.6266 50.5401 28.6938 47.8644 28.7237C45.1887 28.7536 43.6789 28.7163 43.3351 28.6116C42.9165 28.492 42.625 28.2977 42.4606 28.0286C42.3111 27.7446 42.341 27.4606 42.5503 27.1766C42.6699 27.0271 42.8493 26.9299 43.0884 26.8851C43.3426 26.8403 43.8732 26.8029 44.6804 26.773C45.5325 26.758 46.3098 26.7356 47.0123 26.7057ZM47.7523 30.1812C47.827 30.1064 48.4399 30.099 49.5909 30.1588C50.7419 30.2185 51.3922 30.2858 51.5416 30.3606C51.9004 30.5549 52.1396 30.8389 52.2592 31.2126C52.3787 31.5714 52.4385 32.2291 52.4385 33.1858C52.4385 33.6791 52.4311 34.0602 52.4161 34.3293C52.4012 34.5984 52.3339 34.8525 52.2143 35.0917C52.1097 35.3458 51.9901 35.5177 51.8556 35.6074C51.736 35.712 51.5043 35.8017 51.1605 35.8764C50.8167 35.9661 50.4579 36.011 50.0842 36.011C49.7254 36.0259 49.2023 36.0334 48.5146 36.0334C47.9167 36.0334 47.4683 36.0334 47.1693 36.0334C46.8703 36.0334 46.5116 36.0184 46.093 35.9885C45.6894 35.9736 45.4054 35.9587 45.241 35.9437C45.0766 35.9288 44.8673 35.8764 44.6132 35.7867C44.374 35.712 44.217 35.6522 44.1423 35.6074C44.0825 35.5625 43.9853 35.4579 43.8508 35.2935C43.7312 35.129 43.6639 34.987 43.649 34.8674C43.6341 34.7628 43.6042 34.5759 43.5593 34.3069C43.5294 34.0378 43.5145 33.8061 43.5145 33.6118C43.5145 33.4025 43.5145 33.1035 43.5145 32.7149C43.5145 32.3412 43.5219 32.0422 43.5369 31.818C43.5668 31.5938 43.6191 31.3845 43.6938 31.1902C43.7835 30.9959 43.8882 30.8538 44.0078 30.7642C44.1273 30.6595 44.3067 30.5698 44.5459 30.4951C44.8 30.4203 45.0691 30.368 45.3531 30.3381C45.6521 30.3082 46.0482 30.2783 46.5415 30.2484C47.3337 30.2185 47.7373 30.1961 47.7523 30.1812ZM49.6582 32.0198C48.7912 31.9152 47.5131 31.96 45.824 32.1543C45.6296 32.1842 45.5101 32.244 45.4652 32.3337C45.4353 32.4085 45.4428 32.6476 45.4876 33.0512C45.5026 33.0961 45.5101 33.1559 45.5101 33.2306C45.525 33.395 45.5325 33.5146 45.5325 33.5894C45.5474 33.6492 45.5698 33.7314 45.5997 33.836C45.6446 33.9257 45.6745 33.978 45.6894 33.993C45.7044 34.0229 45.7567 34.0602 45.8464 34.1051C45.951 34.1499 46.0258 34.1723 46.0706 34.1723C46.1304 34.1873 46.25 34.1948 46.4294 34.1948C46.6087 34.2097 46.7582 34.2097 46.8778 34.1948C47.0123 34.1948 47.2291 34.1948 47.5281 34.1948C47.6775 34.1798 47.7971 34.1723 47.8868 34.1723C48.8584 34.1424 49.4863 34.1051 49.7703 34.0602C50.0693 34.0303 50.2262 33.9631 50.2412 33.8584C50.3906 33.0662 50.4355 32.5729 50.3757 32.3786C50.3159 32.1693 50.0767 32.0497 49.6582 32.0198ZM59.0853 20.8535C59.2498 20.8236 59.4142 20.8161 59.5786 20.8311C59.6683 20.846 59.8851 20.8684 60.2289 20.8983C60.9314 20.9581 61.5518 21.2272 62.0899 21.7055C62.6281 22.1689 63.0242 22.7893 63.2783 23.5666C63.3232 23.746 63.3605 23.8656 63.3904 23.9254C63.4652 24.1197 63.51 24.4037 63.525 24.7774C63.5549 25.1362 63.5474 25.4501 63.5025 25.7191C63.3531 26.5263 63.069 27.1915 62.6505 27.7147C62.2469 28.223 61.6863 28.6266 60.9688 28.9255C60.2214 29.2095 59.4292 29.2693 58.5921 29.1049C58.5173 29.09 58.4276 29.075 58.323 29.0601C58.2333 29.0451 58.1511 29.0302 58.0763 29.0152C58.0016 29.0003 57.9568 28.9928 57.9418 28.9928C57.8222 28.9629 57.755 28.933 57.74 28.9031C57.7251 28.8732 57.6802 28.8583 57.6055 28.8583C57.5307 28.8583 57.456 28.8433 57.3813 28.8134C56.7983 28.5294 56.3947 28.3052 56.1704 28.1407C55.9462 27.9614 55.7295 27.7147 55.5202 27.4008C55.1614 26.8029 54.9821 26.4217 54.9821 26.2573C54.9821 26.1975 54.9596 26.1302 54.9148 26.0555C54.8102 25.8462 54.7578 25.4874 54.7578 24.9792C54.7578 24.456 54.8102 24.0898 54.9148 23.8805C54.9596 23.8058 54.9821 23.7535 54.9821 23.7236C54.9821 23.5292 55.139 23.2153 55.4529 22.7818C55.7668 22.3334 56.0882 21.997 56.4171 21.7728C56.6563 21.5785 57.0225 21.3916 57.5158 21.2123C58.0091 21.0179 58.3753 20.9133 58.6145 20.8983C58.7789 20.8983 58.9359 20.8834 59.0853 20.8535ZM59.9822 22.8939C59.9075 22.864 59.6459 22.8491 59.1975 22.8491C58.764 22.8491 58.5323 22.864 58.5024 22.8939C58.4874 22.9388 58.45 22.9612 58.3903 22.9612C58.2109 22.9612 57.9343 23.0957 57.5606 23.3648C57.2019 23.6189 56.9702 23.8431 56.8655 24.0375C56.731 24.2916 56.7086 24.6802 56.7983 25.2034C56.9029 25.7117 57.0748 26.1153 57.314 26.4142C57.5382 26.6982 57.9792 26.9225 58.6369 27.0869C59.2946 27.2364 59.8103 27.2439 60.184 27.1093C60.483 26.9897 60.7595 26.8253 61.0137 26.616C61.2678 26.4068 61.3948 26.2423 61.3948 26.1227C61.3948 26.0629 61.4173 26.0106 61.4621 25.9658C61.5369 25.8761 61.5817 25.6743 61.5966 25.3604C61.6265 25.0315 61.6191 24.7699 61.5742 24.5756C61.4995 24.2916 61.3351 24.0001 61.0809 23.7011C60.8268 23.3872 60.5727 23.1705 60.3186 23.0509C60.2887 23.0359 60.2438 23.021 60.184 23.006C60.1392 22.9761 60.0944 22.9537 60.0495 22.9388C60.0196 22.9089 59.9972 22.8939 59.9822 22.8939ZM56.9104 31.4817C58.465 31.4518 60.1616 31.4443 62.0002 31.4592C63.8538 31.4592 64.818 31.4891 64.8927 31.5489C65.1319 31.6835 65.2888 31.8628 65.3636 32.0871C65.4533 32.2963 65.4533 32.4907 65.3636 32.67C65.3187 32.7597 65.2291 32.8569 65.0945 32.9615C64.9749 33.0662 64.8927 33.1185 64.8479 33.1185C64.7731 33.1185 64.7283 33.1334 64.7133 33.1633C64.6087 33.268 63.7342 33.3427 62.0899 33.3876C60.4606 33.4324 58.8462 33.4324 57.2467 33.3876C55.6622 33.3427 54.87 33.268 54.87 33.1633C54.87 33.1334 54.8401 33.1185 54.7803 33.1185C54.6308 33.1185 54.4738 32.9914 54.3094 32.7373C54.145 32.4832 54.0777 32.2739 54.1076 32.1095C54.1524 31.9301 54.2421 31.8031 54.3767 31.7283C54.5261 31.6536 54.7728 31.6013 55.1166 31.5714C55.4604 31.5415 56.0583 31.5116 56.9104 31.4817ZM71.007 20.2705C71.575 20.2406 72.2029 20.2332 72.8905 20.2481C73.593 20.263 74.0041 20.2929 74.1237 20.3378C74.4974 20.5022 74.759 20.7563 74.9085 21.1001C75.058 21.429 75.1327 21.8999 75.1327 22.5128C75.1327 23.8282 74.9309 24.7027 74.5273 25.1362C74.318 25.3454 74.049 25.4874 73.7201 25.5622C73.4062 25.622 72.7709 25.6519 71.8142 25.6519C71.1864 25.6519 70.7155 25.6593 70.4016 25.6743C70.0877 25.6743 69.8261 25.7042 69.6168 25.764C69.4225 25.8088 69.2954 25.8686 69.2356 25.9434C69.1908 26.0181 69.1684 26.1302 69.1684 26.2797C69.1684 26.8328 69.288 27.1915 69.5271 27.356C69.7663 27.5204 70.2671 27.5877 71.0294 27.5578C73.1072 27.4681 74.3404 27.4606 74.7291 27.5353C75.1178 27.6101 75.3121 27.8792 75.3121 28.3425C75.327 28.6415 75.2149 28.8657 74.9757 29.0152C74.7515 29.1647 74.3629 29.2544 73.8098 29.2843C72.6588 29.3441 72.0833 29.4113 72.0833 29.4861C72.0833 29.516 72.1057 29.5534 72.1505 29.5982C72.1804 29.6281 72.2253 29.8673 72.2851 30.3157C72.3449 30.7642 72.3748 31.093 72.3748 31.3023C72.3748 31.4667 72.3972 31.6311 72.442 31.7956C72.4869 31.96 72.5317 32.0572 72.5766 32.0871C72.6214 32.117 73.2567 32.1319 74.4825 32.1319C75.7082 32.1319 76.4033 32.1693 76.5677 32.244C76.8368 32.3636 76.9938 32.5654 77.0386 32.8494C77.0984 33.1334 77.0236 33.3726 76.8144 33.5669C76.6051 33.7314 76.3809 33.8285 76.1417 33.8584C75.9025 33.8883 75.0953 33.9182 73.7201 33.9481C73.3165 33.9481 72.8307 33.9556 72.2626 33.9705C71.6946 33.9855 71.1116 33.993 70.5137 33.993C69.9158 34.0079 69.5047 34.0154 69.2805 34.0154C68.3387 34.0453 67.7782 34.0528 67.5988 34.0378C67.4194 34.0229 67.255 33.978 67.1055 33.9033C66.7468 33.6791 66.5599 33.4025 66.545 33.0737C66.53 32.7298 66.7019 32.5131 67.0607 32.4234C67.1952 32.3935 67.6511 32.3561 68.4284 32.3113C69.6542 32.2366 70.3119 32.1543 70.4016 32.0646C70.4464 32.0348 70.4838 31.7358 70.5137 31.1678C70.5735 30.3157 70.7006 29.8 70.8949 29.6206C71.0145 29.501 71.0145 29.4263 70.8949 29.3964C70.7753 29.3814 70.4315 29.374 69.8635 29.374C69.2805 29.374 68.8395 29.3441 68.5405 29.2843C68.2416 29.2095 67.9949 29.0526 67.8006 28.8134C67.6063 28.5593 67.4792 28.2379 67.4194 27.8493C67.3746 27.4457 67.3522 26.8701 67.3522 26.1227C67.3522 25.48 67.3746 25.0614 67.4194 24.8671C67.4643 24.6728 67.5839 24.4934 67.7782 24.329C68.2565 23.9254 69.43 23.7236 71.2985 23.7236C71.6124 23.7236 71.859 23.7236 72.0384 23.7236C72.2328 23.7086 72.4196 23.7011 72.599 23.7011C72.7784 23.6862 72.9054 23.6638 72.9802 23.6339C73.0549 23.589 73.1296 23.5517 73.2044 23.5218C73.2791 23.4769 73.3165 23.4171 73.3165 23.3424C73.3314 23.2676 73.3389 23.1929 73.3389 23.1182C73.3389 23.0285 73.3314 22.9164 73.3165 22.7818C73.3165 22.7519 73.309 22.7071 73.2941 22.6473C73.2642 22.4231 73.1595 22.296 72.9802 22.2661C72.8008 22.2213 72.173 22.1988 71.0967 22.1988C70.8575 22.1988 70.6707 22.1988 70.5361 22.1988C69.2805 22.1988 68.5331 22.1914 68.2939 22.1764C68.0697 22.1615 67.8978 22.1092 67.7782 22.0195C67.3895 21.7354 67.2774 21.4215 67.4419 21.0777C67.6212 20.7339 67.9875 20.5396 68.5405 20.4947C68.7648 20.4798 69.1459 20.4424 69.6841 20.3826C69.9681 20.3527 70.4091 20.3154 71.007 20.2705ZM90.3879 18.0731C90.6869 17.9536 90.9485 17.9834 91.1727 18.1628C91.4119 18.3422 91.5315 18.5963 91.5315 18.9252C91.5315 19.1195 91.5464 19.2466 91.5763 19.3064C91.6211 19.3662 91.7631 19.4857 92.0023 19.6651C92.2265 19.8146 92.3461 19.8968 92.3611 19.9118C92.3611 19.9267 92.4433 20.0015 92.6077 20.136C92.7722 20.2406 92.8618 20.3004 92.8768 20.3154C92.8917 20.3453 93.0188 20.4574 93.258 20.6517C93.6317 20.9507 93.968 21.2721 94.267 21.6159C94.5809 21.9447 94.7453 22.1615 94.7603 22.2661C94.8201 22.5501 94.7528 22.8042 94.5585 23.0285C94.3791 23.2527 94.1474 23.3648 93.8634 23.3648C93.7438 23.3648 93.3776 23.1705 92.7647 22.7818C92.1518 22.3932 91.7781 22.1241 91.6436 21.9746C91.5389 21.8251 91.2848 21.6233 90.8812 21.3692C90.4926 21.1001 90.2384 20.9656 90.1188 20.9656C89.9694 20.9656 89.2967 21.6458 88.1008 23.006C87.6076 23.5741 87.2563 23.9029 87.047 23.9926C86.8377 24.0823 86.5985 24.015 86.3295 23.7908C85.9707 23.4769 85.8362 23.1779 85.9259 22.8939C86.0156 22.6099 86.4192 22.0718 87.1367 21.2795C87.2712 21.1151 87.4132 20.9581 87.5627 20.8087C87.7421 20.6143 87.9364 20.3976 88.1457 20.1584C88.8483 19.3662 89.3266 18.8504 89.5807 18.6113C89.8498 18.3572 90.1188 18.1778 90.3879 18.0731ZM92.8544 25.6294C93.0636 25.5996 93.385 25.5921 93.8185 25.607C94.267 25.607 94.5585 25.622 94.693 25.6519C95.0667 25.7117 95.3208 25.8761 95.4554 26.1452C95.5899 26.3993 95.5824 26.6609 95.4329 26.9299C95.2834 27.199 95.0219 27.3634 94.6482 27.4232C93.9755 27.5578 92.2714 27.625 89.5359 27.625C86.8003 27.625 85.3354 27.5578 85.1411 27.4232C84.9916 27.3186 84.9094 27.1467 84.8945 26.9075C84.8795 26.6683 84.9393 26.4665 85.0738 26.3021C85.2831 26.0779 85.6344 25.9359 86.1277 25.8761C86.6359 25.8014 87.9215 25.7416 89.9843 25.6967C91.808 25.6519 92.7647 25.6294 92.8544 25.6294ZM89.491 29.0601C89.9245 28.9704 90.4253 28.9479 90.9933 28.9928C91.5763 29.0376 92.0621 29.1273 92.4508 29.2619C92.8693 29.4263 93.258 29.6804 93.6167 30.0242C93.9755 30.3531 94.252 30.7268 94.4464 31.1453C94.8201 31.9824 94.9621 32.7224 94.8724 33.3651C94.7827 33.993 94.4389 34.5984 93.8409 35.1813C93.5121 35.5252 93.2281 35.7419 92.9889 35.8316C92.959 35.8465 92.9067 35.869 92.8319 35.8989C92.7722 35.9288 92.7273 35.9512 92.6974 35.9661C92.533 36.0409 92.1966 36.138 91.6884 36.2576C91.3894 36.3324 90.9784 36.3398 90.4552 36.28C89.932 36.2352 89.4835 36.138 89.1098 35.9885C87.9738 35.5252 87.1815 34.845 86.7331 33.9481C86.2996 33.0363 86.3071 32.0796 86.7555 31.0781C86.9648 30.6147 87.331 30.1886 87.8542 29.8C88.3923 29.4113 88.9379 29.1647 89.491 29.0601ZM91.5315 31.0332C90.8139 30.6894 90.1114 30.6745 89.4238 30.9884C88.7511 31.3023 88.4148 31.7881 88.4148 32.4458C88.4148 32.969 88.5717 33.395 88.8856 33.7239C89.2145 34.0528 89.6704 34.262 90.2534 34.3517C90.8214 34.4414 91.3894 34.3517 91.9575 34.0827C92.4059 33.8734 92.6899 33.5744 92.8095 33.1858C92.9291 32.7971 92.8693 32.401 92.6301 31.9974C92.4059 31.5938 92.0397 31.2724 91.5315 31.0332ZM106.989 21.3468C107.139 21.2272 107.34 21.1824 107.595 21.2123C107.849 21.2272 108.043 21.3094 108.178 21.4589C108.297 21.5934 108.379 22.0419 108.424 22.8042C108.484 23.5517 108.514 24.8596 108.514 26.7281C108.529 27.8941 108.551 28.9479 108.581 29.8897C108.641 31.2799 108.611 32.1842 108.491 32.6028C108.372 33.0213 108.08 33.2306 107.617 33.2306C107.378 33.2306 107.169 33.1708 106.989 33.0512C106.825 32.9167 106.72 32.7523 106.675 32.5579C106.601 32.0945 106.541 30.084 106.496 26.5263C106.481 24.4784 106.496 23.148 106.541 22.5352C106.601 21.9073 106.75 21.5112 106.989 21.3468ZM98.9396 21.4365C100.27 21.3767 101.159 21.3767 101.608 21.4365C102.056 21.4963 102.4 21.6458 102.639 21.8849C102.863 22.1241 103.005 22.3633 103.065 22.6024C103.125 22.8416 103.147 23.2452 103.133 23.8132C103.103 24.4261 103.035 25.1137 102.931 25.8761C102.811 26.6235 102.542 27.1018 102.124 27.3111C101.929 27.4008 101.817 27.4531 101.787 27.4681C101.727 27.498 101.331 27.5129 100.599 27.5129C99.6421 27.5129 99.0517 27.5877 98.8275 27.7371C98.6182 27.8866 98.5808 28.2304 98.7153 28.7686C98.7901 29.0227 98.9022 29.2021 99.0517 29.3067C99.2012 29.4113 99.4478 29.4786 99.7916 29.5085C100.15 29.5384 100.778 29.5534 101.675 29.5534C102.452 29.5384 102.931 29.5534 103.11 29.5982C103.304 29.643 103.469 29.7626 103.603 29.957C103.753 30.1812 103.775 30.4203 103.671 30.6745C103.581 30.9136 103.409 31.0556 103.155 31.1005C103.05 31.1304 102.961 31.1603 102.886 31.1902C102.781 31.235 101.817 31.2873 99.9934 31.3471C98.962 31.377 98.2295 31.2948 97.796 31.1005C97.3775 30.9062 97.086 30.5175 96.9216 29.9345C96.8468 29.6655 96.8094 29.0675 96.8094 28.1407C96.8244 27.199 96.8692 26.6459 96.944 26.4815C97.0038 26.3619 97.0935 26.2498 97.213 26.1452C97.3326 26.0405 97.4223 25.9882 97.4821 25.9882C97.527 25.9882 97.5868 25.9733 97.6615 25.9434C97.8558 25.8238 98.2594 25.749 98.8723 25.7191C99.9486 25.6743 100.621 25.5996 100.89 25.4949C101.115 25.3903 101.227 24.8746 101.227 23.9478C101.227 23.9179 101.227 23.8805 101.227 23.8357C101.227 23.5218 101.144 23.3424 100.98 23.2975C100.831 23.2527 100.277 23.2303 99.3207 23.2303C99.1862 23.2303 99.089 23.2303 99.0293 23.2303C97.9829 23.2303 97.3476 23.2004 97.1234 23.1406C96.8991 23.0808 96.7571 22.9164 96.6973 22.6473C96.6226 22.1988 96.7347 21.8999 97.0337 21.7504C97.3476 21.586 97.9829 21.4813 98.9396 21.4365ZM114.409 20.5172C115.261 20.4723 115.844 20.4798 116.158 20.5396C116.487 20.5994 116.726 20.7414 116.876 20.9656C117.04 21.2048 117.055 21.4888 116.921 21.8177C116.786 22.1465 116.592 22.3109 116.338 22.3109C116.263 22.3109 116.203 22.3334 116.158 22.3782C116.128 22.4081 115.672 22.4231 114.791 22.4231C113.924 22.4081 113.288 22.3782 112.885 22.3334C112.526 22.3035 112.257 22.2063 112.077 22.0419C111.913 21.8775 111.868 21.6831 111.943 21.4589C112.003 21.2646 112.055 21.13 112.1 21.0553C112.16 20.9656 112.219 20.8834 112.279 20.8087C112.354 20.719 112.496 20.6666 112.705 20.6517C112.915 20.6218 113.124 20.5994 113.333 20.5844C113.542 20.5545 113.901 20.5321 114.409 20.5172ZM124.275 22.6697C124.544 22.5352 124.798 22.4978 125.038 22.5576C125.292 22.6174 125.464 22.7594 125.553 22.9836C125.628 23.163 125.695 24.5083 125.755 27.0196C125.815 29.5309 125.822 31.25 125.777 32.1768C125.733 32.8644 125.568 33.3651 125.284 33.6791C125 33.978 124.679 33.993 124.32 33.7239C124.096 33.5595 123.961 33.3203 123.916 33.0064C123.872 32.6925 123.849 31.8404 123.849 30.4502C123.849 29.2394 123.819 28.6116 123.759 28.5668C123.715 28.5219 123.401 28.507 122.818 28.5219C122.235 28.5369 121.913 28.5593 121.854 28.5892C121.809 28.6191 121.786 28.9928 121.786 29.7103C121.801 30.4129 121.824 30.9435 121.854 31.3023C121.958 32.3188 121.727 32.827 121.158 32.827C120.964 32.827 120.777 32.7672 120.598 32.6476C120.433 32.5131 120.306 32.3487 120.217 32.1543C120.127 31.9451 120.067 31.7881 120.037 31.6835C120.022 31.5788 120.007 31.3397 119.993 30.966C119.933 30.1289 119.895 29.5982 119.88 29.374C119.836 28.9106 119.798 28.1034 119.768 26.9524C119.738 25.3828 119.798 24.314 119.948 23.746C120.112 23.163 120.419 22.8715 120.867 22.8715C121.196 22.8715 121.413 23.006 121.517 23.2751C121.622 23.5442 121.689 24.1272 121.719 25.024C121.719 25.1287 121.719 25.2632 121.719 25.4276C121.734 25.9359 121.764 26.2274 121.809 26.3021C121.869 26.3769 122.048 26.4068 122.347 26.3918C122.451 26.3918 122.526 26.3918 122.571 26.3918C122.631 26.3918 122.713 26.3918 122.818 26.3918C123.251 26.3769 123.505 26.3171 123.58 26.2124C123.655 26.0928 123.7 25.7042 123.715 25.0465C123.715 24.897 123.715 24.7774 123.715 24.6877C123.715 24.0599 123.722 23.6413 123.737 23.4321C123.767 23.2228 123.812 23.0658 123.872 22.9612C123.946 22.8566 124.081 22.7594 124.275 22.6697ZM112.84 23.4096C113.124 23.3498 113.841 23.32 114.992 23.32C116.143 23.305 116.838 23.32 117.078 23.3648C117.481 23.4395 117.758 23.6339 117.907 23.9478C118.072 24.2617 118.027 24.5457 117.773 24.7998C117.638 24.9344 117.489 25.024 117.324 25.0689C117.16 25.0988 116.659 25.1436 115.822 25.2034C115.478 25.2333 115.194 25.2632 114.97 25.2931C114.088 25.4276 113.49 25.5248 113.176 25.5846C113.042 25.6145 112.713 25.6369 112.19 25.6519C111.681 25.6668 111.36 25.6294 111.225 25.5398C111.091 25.4351 111.024 25.2034 111.024 24.8447C111.039 24.3962 111.166 24.0748 111.405 23.8805C111.659 23.6862 112.137 23.5292 112.84 23.4096ZM113.714 25.9434C113.953 25.8985 114.35 25.891 114.903 25.9209C115.456 25.9359 115.822 25.9733 116.001 26.0331C116.405 26.1825 116.734 26.4441 116.988 26.8178C117.242 27.1766 117.519 27.7745 117.818 28.6116C117.907 28.8807 117.945 29.2768 117.93 29.8C117.93 30.3232 117.885 30.7118 117.795 30.966C117.436 32.0422 116.741 32.7224 115.71 33.0064C114.678 33.2904 113.625 33.0961 112.548 32.4234C111.935 32.0348 111.442 31.3995 111.068 30.5175C110.71 29.6356 110.642 28.9031 110.867 28.3201C110.941 28.1407 110.986 28.0361 111.001 28.0062C111.136 27.6325 111.3 27.3485 111.494 27.1542C111.689 26.9598 112.04 26.7281 112.548 26.4591C113.072 26.1751 113.46 26.0032 113.714 25.9434ZM115.037 28.0511C114.798 27.9315 114.492 27.8866 114.118 27.9165C113.744 27.9464 113.445 28.0436 113.221 28.208C112.847 28.4771 112.75 28.9704 112.929 29.6879C113.124 30.3904 113.468 30.8464 113.961 31.0556C114.439 31.2649 114.85 31.3098 115.194 31.1902C115.553 31.0706 115.792 30.809 115.912 30.4054C116.061 29.8972 116.054 29.4263 115.889 28.9928C115.725 28.5593 115.441 28.2454 115.037 28.0511ZM132.047 20.6293C132.615 20.4947 133.213 20.4648 133.841 20.5396C134.469 20.5994 135.022 20.7489 135.5 20.988C136.173 21.3169 136.666 21.8924 136.98 22.7146C137.309 23.5367 137.391 24.4112 137.227 25.338C137.077 26.2498 136.704 26.9972 136.106 27.5802C135.911 27.7596 135.612 27.9539 135.209 28.1632C134.82 28.3724 134.162 28.4995 133.236 28.5443C132.324 28.5892 131.718 28.5369 131.419 28.3874C131.36 28.3425 131.307 28.3201 131.263 28.3201C131.218 28.3201 131.008 28.2304 130.635 28.0511C129.678 27.5877 129.028 26.7879 128.684 25.6519C128.594 25.3679 128.564 24.9269 128.594 24.329C128.639 23.731 128.714 23.3274 128.818 23.1182C128.848 23.0434 128.863 22.9911 128.863 22.9612C128.863 22.7669 129.08 22.453 129.514 22.0195C129.962 21.571 130.373 21.2571 130.747 21.0777C131.195 20.8685 131.629 20.719 132.047 20.6293ZM133.572 22.4231C133.378 22.3782 133.124 22.3558 132.81 22.3558C132.496 22.3408 132.309 22.3483 132.249 22.3782C132.085 22.453 131.943 22.5202 131.823 22.58C131.464 22.7444 131.143 22.9612 130.859 23.2303C130.53 23.5442 130.455 24.1047 130.635 24.9119C130.814 25.7191 131.128 26.2274 131.576 26.4367C131.875 26.5712 132.294 26.6534 132.832 26.6833C133.37 26.7132 133.789 26.6758 134.088 26.5712C134.342 26.4815 134.603 26.3021 134.873 26.0331C135.157 25.749 135.299 25.5248 135.299 25.3604C135.299 25.2856 135.321 25.2333 135.366 25.2034C135.411 25.1586 135.426 24.9643 135.411 24.6204C135.411 24.2617 135.381 24.0076 135.321 23.8581C135.171 23.4395 134.962 23.1182 134.693 22.8939C134.439 22.6697 134.065 22.5128 133.572 22.4231ZM135.455 28.791C135.874 28.7461 136.143 28.8209 136.263 29.0152C136.397 29.1946 136.464 29.6281 136.464 30.3157C136.464 30.3606 136.464 30.4129 136.464 30.4727C136.464 31.1154 136.502 31.4891 136.577 31.5938C136.651 31.6984 136.913 31.7582 137.361 31.7732C137.406 31.7732 137.444 31.7732 137.473 31.7732C138.251 31.7881 138.759 31.8554 138.998 31.975C139.252 32.0796 139.379 32.2963 139.379 32.6252C139.379 32.9989 139.193 33.2755 138.819 33.4548C138.684 33.4997 138.572 33.5445 138.483 33.5894C138.423 33.6193 137.75 33.6342 136.464 33.6342C135.134 33.6342 133.684 33.6716 132.115 33.7463C131.098 33.8061 130.321 33.8285 129.783 33.8136C129.245 33.7837 128.901 33.7388 128.751 33.6791C128.602 33.6043 128.407 33.4548 128.168 33.2306C127.914 32.9615 127.854 32.7298 127.989 32.5355C128.138 32.3412 128.482 32.2067 129.02 32.1319C129.633 32.0422 129.97 31.975 130.029 31.9301C130.074 31.9002 130.097 31.519 130.097 30.7866C130.097 30.1438 130.112 29.7626 130.141 29.643C130.186 29.5085 130.328 29.3665 130.567 29.217C130.971 28.9479 131.277 28.9181 131.487 29.1273C131.711 29.3217 131.86 29.785 131.935 30.5175C132.01 31.1902 132.092 31.5863 132.182 31.7059C132.286 31.8105 132.585 31.8479 133.079 31.818C133.153 31.8031 133.258 31.7956 133.393 31.7956C133.976 31.7657 134.319 31.7134 134.424 31.6386C134.529 31.5489 134.588 31.2574 134.603 30.7642C134.603 30.6595 134.603 30.5773 134.603 30.5175C134.648 29.6505 134.723 29.217 134.828 29.217C134.873 29.217 134.895 29.1871 134.895 29.1273C134.895 29.0526 134.955 28.9853 135.074 28.9255C135.194 28.8508 135.321 28.8059 135.455 28.791Z" fill="#77632A"/>
<path d="M10.7044 8.7783L7.65527 8.83694L7.69437 5.76824L10.7305 5.76172L10.7044 8.7783Z" fill="#77632A"/>
<path d="M10.737 45.3622L7.69434 45.3492L7.73343 42.3652L10.7239 42.3196L10.737 45.3622Z" fill="#77632A"/>
<path d="M159.676 8.7783L156.626 8.83694L156.666 5.76824L159.702 5.76172L159.676 8.7783Z" fill="#77632A"/>
<path d="M159.709 45.3622L156.666 45.3492L156.712 42.3652L159.696 42.3196L159.709 45.3622Z" fill="#77632A"/>
</svg>
