<svg width="167" height="52" viewBox="0 0 167 52" fill="none" xmlns="http://www.w3.org/2000/svg">
<path d="M166.153 50.9366L159.299 51.7249L152.412 51.8813L145.526 50.8388L138.632 51.2949L131.752 51.2363L124.859 50.5L117.972 51.6402L111.086 50.5326L104.199 51.6988L97.3124 50.3176L90.4192 50.7737L83.5326 50.0375L76.6459 51.3275L69.7527 50.3046L62.8596 51.7184L55.9729 51.2363L49.0797 50.6825L42.193 51.5881L35.3064 50.1873L28.4132 50.4023L21.52 51.334L14.6333 50.8844L7.73365 51.8226L0.860019 50.9561L1.25094 43.8284L0.267127 36.6811L1.14018 29.5338L0 22.38L1.17927 15.2262L0.488647 8.07246L1.23791 1.30306L7.72714 0.325765L14.6203 1.53762L21.507 1.12715L28.3936 1.13367L35.2803 0.34531L42.167 1.05547L49.0536 1.06852L55.9403 1.48549L62.8335 1.81125L69.7202 0.983816L76.6068 0.736231L83.5 1.65489L90.3867 0.755776L97.2798 1.3161L104.167 1.66791L111.06 1.19231L117.946 1.08806L124.84 0.514714L131.726 0.983816L138.613 0L145.506 0.241063L152.399 0.749255L159.292 0.0521335L165.801 1.29656L166.459 8.06594L165.775 15.2132L166.309 22.367L166.225 29.5143L166.264 36.6681L167 43.8219L166.153 50.9366Z" fill="#F3E7B8"/>
<path d="M38.5778 19.3289C38.9366 19.1495 39.2057 19.172 39.385 19.3962C39.5794 19.6054 39.6915 20.024 39.7214 20.6518C39.7214 20.7116 39.7288 20.7864 39.7438 20.876C39.7737 21.6235 39.8185 22.0644 39.8783 22.199C39.9531 22.3185 40.1623 22.3783 40.5062 22.3783C40.536 22.3783 40.5659 22.3783 40.5958 22.3783C41.3134 22.3783 41.8963 22.4905 42.3448 22.7147C42.8082 22.9389 42.9801 23.2005 42.8605 23.4995C42.7409 23.8134 42.5391 24.0301 42.2551 24.1497C41.986 24.2543 41.5376 24.3067 40.9098 24.3067C40.835 24.3067 40.7453 24.3067 40.6407 24.3067C40.1922 24.3067 39.9232 24.344 39.8335 24.4188C39.7587 24.4935 39.7214 24.7775 39.7214 25.2708C39.7214 25.3904 39.7214 25.4801 39.7214 25.5399C39.7214 26.2126 39.684 26.6685 39.6093 26.9076C39.5345 27.1319 39.385 27.3038 39.1608 27.4234C38.8619 27.5728 38.5853 27.5654 38.3312 27.4009C38.0771 27.2216 37.9126 26.9301 37.8379 26.5265C37.7632 26.1079 37.7482 24.927 37.7931 22.9837C37.8379 21.0255 37.9052 19.9792 37.9949 19.8446C38.0995 19.6503 38.2938 19.4784 38.5778 19.3289ZM30.1471 20.0688C31.2383 19.9642 32.2099 19.9418 33.062 20.0016C33.914 20.0614 34.4746 20.1959 34.7436 20.4052C35.1024 20.6742 35.2668 20.9882 35.2369 21.3469C35.222 21.7057 35.0127 22.2887 34.6091 23.0959C34.1158 24.0824 33.6001 24.9345 33.062 25.652C32.5388 26.3695 32.1202 26.7955 31.8063 26.9301C31.6867 26.9749 31.5148 26.9749 31.2906 26.9301C31.0813 26.8703 30.9019 26.7881 30.7525 26.6834C30.5432 26.5339 30.4684 26.3396 30.5282 26.1004C30.603 25.8613 30.8347 25.4876 31.2233 24.9793C31.4176 24.7252 31.7166 24.2543 32.1202 23.5667C32.2398 23.3873 32.3444 23.2304 32.4341 23.0959C32.9723 22.3185 33.0844 21.9224 32.7705 21.9075C32.7406 21.9075 32.6359 21.9075 32.4565 21.9075C32.2921 21.8925 32.0529 21.885 31.739 21.885C31.4251 21.8701 31.1486 21.8626 30.9094 21.8626C29.9826 21.8327 29.4221 21.7954 29.2277 21.7505C29.0334 21.6907 28.8765 21.5412 28.7569 21.3021C28.6074 20.9732 28.6522 20.7041 28.8914 20.4949C29.1455 20.2706 29.5641 20.1286 30.1471 20.0688ZM36.358 28.7014C36.3879 28.6865 36.6047 28.6865 37.0083 28.7014C37.4119 28.7014 37.7557 28.7164 38.0397 28.7463C38.5629 28.8061 38.9515 28.9032 39.2057 29.0378C39.4598 29.1723 39.6616 29.389 39.8111 29.688C40.0054 30.1066 40.0801 30.8839 40.0353 32.0199C39.9904 33.156 39.8559 33.9034 39.6317 34.2622C39.5719 34.3668 39.4374 34.4939 39.2281 34.6433C39.0188 34.7928 38.8768 34.8676 38.8021 34.8676C38.7423 34.8676 38.7049 34.8825 38.6899 34.9124C38.6451 34.9871 37.6884 35.0395 35.8199 35.0694C33.9514 35.0993 32.8602 35.0843 32.5462 35.0245C32.0679 34.9199 31.7241 34.7181 31.5148 34.4191C31.3205 34.1201 31.2233 33.6642 31.2233 33.0514C31.2233 32.7225 31.2084 32.2516 31.1785 31.6387C31.1486 31.28 31.1262 30.996 31.1112 30.7867C31.1112 30.5774 31.1262 30.3681 31.1561 30.1589C31.2009 29.9347 31.2457 29.7702 31.2906 29.6656C31.3354 29.5609 31.4326 29.4488 31.5821 29.3292C31.7316 29.2097 31.881 29.1349 32.0305 29.105C32.18 29.0602 32.4117 29.0153 32.7256 28.9705C33.0395 28.9107 33.346 28.8733 33.6449 28.8584C33.9439 28.8434 34.355 28.8285 34.8782 28.8135C35.8498 28.7687 36.3431 28.7313 36.358 28.7014ZM37.7482 30.697C37.5987 30.6073 36.9634 30.5774 35.8423 30.6073C34.7212 30.6372 33.8916 30.7045 33.3534 30.8091C33.2638 30.839 33.204 30.8988 33.1741 30.9885C33.1591 31.0632 33.1516 31.3547 33.1516 31.863C33.1516 31.9078 33.1516 31.9751 33.1516 32.0648C33.1516 32.7225 33.2563 33.1037 33.4656 33.2083C33.6748 33.298 34.4148 33.3129 35.6854 33.2532C35.8498 33.2532 35.9768 33.2457 36.0665 33.2307C36.8737 33.1859 37.367 33.1261 37.5464 33.0514C37.7258 32.9617 37.8454 32.73 37.9052 32.3563C38.0397 31.3996 37.9874 30.8465 37.7482 30.697ZM54.2419 21.6608C54.4213 21.5412 54.6156 21.5188 54.8249 21.5936C55.0491 21.6683 55.2135 21.8103 55.3182 22.0196C55.363 22.1392 55.3929 22.2961 55.4079 22.4905C55.4378 22.6848 55.4602 23.1556 55.4751 23.9031C55.4901 24.9793 55.52 25.5474 55.5648 25.6071C55.6246 25.652 56.0581 25.6894 56.8653 25.7193C57.6725 25.7342 58.1733 25.7865 58.3676 25.8762C58.8011 26.0855 59.0328 26.3546 59.0627 26.6834C59.0926 27.0123 58.9057 27.2739 58.5021 27.4682C58.3975 27.513 58.3153 27.5504 58.2555 27.5803C58.0761 27.67 57.4857 27.7447 56.4841 27.8045L55.6097 27.827V28.4548C55.5947 28.8285 55.6097 29.3442 55.6545 30.0019C55.7293 31.1828 55.6769 31.9826 55.4976 32.4011C55.378 32.6403 55.1762 32.7972 54.8922 32.872C54.6231 32.9318 54.3914 32.872 54.1971 32.6926C54.1971 32.6776 54.1896 32.6702 54.1746 32.6702C53.9953 32.5057 53.8832 32.2666 53.8383 31.9527C53.8084 31.6238 53.7486 30.5625 53.6589 28.7687C53.6589 28.6043 53.6589 28.4772 53.6589 28.3875C53.5991 27.087 53.5767 25.8388 53.5917 24.643C53.6066 23.4322 53.6515 22.7147 53.7262 22.4905C53.7561 22.4008 53.7785 22.3036 53.7935 22.199C53.8383 22.0196 53.9878 21.8402 54.2419 21.6608ZM48.3673 22.6474C48.7111 22.5727 48.9801 22.6325 49.1745 22.8268C49.309 22.9464 49.3613 23.1108 49.3314 23.3201C49.3165 23.5144 49.2044 23.8732 48.9951 24.3963C48.8905 24.6505 48.8755 24.8672 48.9502 25.0466C49.0399 25.226 49.3987 25.7865 50.0265 26.7283C50.5497 27.4906 50.8113 27.8867 50.8113 27.9166C50.8113 27.9615 50.8262 27.9839 50.8561 27.9839C50.886 27.9839 50.9159 28.0288 50.9458 28.1184C50.9608 28.1184 51.0505 28.2829 51.2149 28.6117C51.6036 29.3591 51.6484 29.8674 51.3494 30.1365C51.2149 30.256 51.1327 30.3158 51.1028 30.3158C51.0579 30.3158 51.0355 30.3308 51.0355 30.3607C51.0355 30.3906 50.9533 30.4279 50.7889 30.4728C50.5945 30.5326 50.4077 30.5102 50.2283 30.4055C50.0639 30.3009 49.8322 30.0692 49.5332 29.7104C49.4435 29.6058 49.3987 29.546 49.3987 29.5311C49.3987 29.5012 49.3314 29.3965 49.1969 29.2171C49.0624 29.0228 48.9951 28.9182 48.9951 28.9032C48.9951 28.8733 48.9054 28.7238 48.726 28.4548C48.5466 28.1708 48.457 28.0213 48.457 28.0063C48.457 27.9316 48.3224 27.7373 48.0534 27.4234C47.7843 27.0945 47.6199 26.9301 47.5601 26.9301C47.5003 26.9301 47.3657 27.102 47.1565 27.4458C46.9472 27.7746 46.7454 28.1259 46.5511 28.4996C46.1026 29.4115 45.7214 29.9795 45.4075 30.2037C45.3178 30.2785 45.1534 30.3233 44.9142 30.3383C44.69 30.3532 44.5555 30.3308 44.5106 30.271C44.4807 30.2411 44.4284 30.2037 44.3537 30.1589C44.1743 30.0692 44.0622 29.8973 44.0173 29.6432C43.9725 29.389 44.0024 29.1349 44.107 28.8808C44.3163 28.4174 44.5854 27.8793 44.9142 27.2664C45.2431 26.6535 45.4673 26.2873 45.5869 26.1677C45.6317 26.1079 45.6542 26.0631 45.6542 26.0332C45.6542 26.0182 45.8485 25.7267 46.2371 25.1587C46.6258 24.5757 46.8575 24.2394 46.9322 24.1497C46.9322 24.1497 46.9472 24.1273 46.9771 24.0824C47.007 24.0376 47.0444 23.9853 47.0892 23.9255C47.134 23.8657 47.1714 23.8059 47.2013 23.7461C47.3508 23.5368 47.5302 23.3276 47.7394 23.1183C47.9487 22.8941 48.0833 22.7819 48.143 22.7819C48.2028 22.7819 48.2327 22.767 48.2327 22.7371C48.2327 22.6923 48.2776 22.6624 48.3673 22.6474ZM64.6387 20.2706C65.2067 20.2407 65.8345 20.2333 66.5221 20.2482C67.2247 20.2632 67.6358 20.2931 67.7554 20.3379C68.1291 20.5023 68.3907 20.7565 68.5401 21.1003C68.6896 21.4291 68.7644 21.9 68.7644 22.5129C68.7644 23.8283 68.5626 24.7028 68.159 25.1363C67.9497 25.3456 67.6806 25.4876 67.3518 25.5623C67.0379 25.6221 66.4026 25.652 65.4459 25.652C64.818 25.652 64.3472 25.6595 64.0333 25.6744C63.7194 25.6744 63.4578 25.7043 63.2485 25.7641C63.0542 25.809 62.9271 25.8687 62.8673 25.9435C62.8225 26.0182 62.8 26.1303 62.8 26.2798C62.8 26.8329 62.9196 27.1917 63.1588 27.3561C63.398 27.5205 63.8987 27.5878 64.6611 27.5579C66.7389 27.4682 67.9721 27.4607 68.3608 27.5355C68.7494 27.6102 68.9437 27.8793 68.9437 28.3427C68.9587 28.6416 68.8466 28.8659 68.6074 29.0153C68.3832 29.1648 67.9945 29.2545 67.4415 29.2844C66.2904 29.3442 65.7149 29.4115 65.7149 29.4862C65.7149 29.5161 65.7374 29.5535 65.7822 29.5983C65.8121 29.6282 65.8569 29.8674 65.9167 30.3158C65.9765 30.7643 66.0064 31.0931 66.0064 31.3024C66.0064 31.4668 66.0288 31.6313 66.0737 31.7957C66.1185 31.9601 66.1634 32.0573 66.2082 32.0872C66.2531 32.1171 66.8884 32.132 68.1141 32.132C69.3399 32.132 70.035 32.1694 70.1994 32.2441C70.4685 32.3637 70.6254 32.5655 70.6703 32.8495C70.7301 33.1336 70.6553 33.3727 70.446 33.5671C70.2368 33.7315 70.0125 33.8287 69.7734 33.8586C69.5342 33.8884 68.727 33.9183 67.3518 33.9482C66.9482 33.9482 66.4623 33.9557 65.8943 33.9707C65.3263 33.9856 64.7433 33.9931 64.1454 33.9931C63.5474 34.008 63.1364 34.0155 62.9122 34.0155C61.9704 34.0454 61.4099 34.0529 61.2305 34.0379C61.0511 34.023 60.8867 33.9781 60.7372 33.9034C60.3784 33.6792 60.1916 33.4026 60.1766 33.0738C60.1617 32.73 60.3336 32.5132 60.6923 32.4235C60.8269 32.3936 61.2828 32.3563 62.0601 32.3114C63.2859 32.2367 63.9436 32.1545 64.0333 32.0648C64.0781 32.0349 64.1155 31.7359 64.1454 31.1679C64.2052 30.3158 64.3322 29.8001 64.5266 29.6207C64.6461 29.5012 64.6461 29.4264 64.5266 29.3965C64.407 29.3816 64.0632 29.3741 63.4951 29.3741C62.9122 29.3741 62.4712 29.3442 62.1722 29.2844C61.8733 29.2097 61.6266 29.0527 61.4323 28.8135C61.238 28.5594 61.1109 28.238 61.0511 27.8494C61.0063 27.4458 60.9838 26.8703 60.9838 26.1229C60.9838 25.4801 61.0063 25.0615 61.0511 24.8672C61.0959 24.6729 61.2155 24.4935 61.4099 24.3291C61.8882 23.9255 63.0616 23.7237 64.9302 23.7237C65.2441 23.7237 65.4907 23.7237 65.6701 23.7237C65.8644 23.7087 66.0513 23.7013 66.2306 23.7013C66.41 23.6863 66.5371 23.6639 66.6118 23.634C66.6866 23.5891 66.7613 23.5518 66.8361 23.5219C66.9108 23.477 66.9482 23.4172 66.9482 23.3425C66.9631 23.2678 66.9706 23.193 66.9706 23.1183C66.9706 23.0286 66.9631 22.9165 66.9482 22.7819C66.9482 22.752 66.9407 22.7072 66.9257 22.6474C66.8958 22.4232 66.7912 22.2961 66.6118 22.2662C66.4325 22.2214 65.8046 22.199 64.7284 22.199C64.4892 22.199 64.3023 22.199 64.1678 22.199C62.9122 22.199 62.1647 22.1915 61.9256 22.1765C61.7013 22.1616 61.5294 22.1093 61.4099 22.0196C61.0212 21.7356 60.9091 21.4217 61.0735 21.0778C61.2529 20.734 61.6191 20.5397 62.1722 20.4949C62.3964 20.4799 62.7776 20.4425 63.3158 20.3828C63.5998 20.3529 64.0407 20.3155 64.6387 20.2706ZM88.235 18.7684C88.3546 18.6787 88.5339 18.6338 88.7731 18.6338C89.087 18.6338 89.3038 18.7684 89.4234 19.0374C89.5579 19.2915 89.6252 19.7699 89.6252 20.4724C89.6252 20.891 89.6551 21.1376 89.7148 21.2124C89.7896 21.2722 90.0736 21.332 90.5669 21.3918C91.3143 21.4814 91.83 21.616 92.114 21.7954C92.398 21.9598 92.5401 22.2214 92.5401 22.5801C92.5401 22.8492 92.398 23.051 92.114 23.1855C91.845 23.3051 91.4115 23.3649 90.8135 23.3649C90.7388 23.3649 90.6416 23.3649 90.522 23.3649C90.0736 23.3649 89.8045 23.3948 89.7148 23.4546C89.6401 23.5144 89.6102 23.7312 89.6252 24.1049C89.6252 24.1945 89.6252 24.2693 89.6252 24.3291C89.6102 24.9868 89.5654 25.4502 89.4906 25.7193C89.4308 25.9883 89.2963 26.1677 89.087 26.2574C88.5937 26.4667 88.1976 26.3919 87.8986 26.0332L87.6968 25.7865V22.7371C87.6968 20.9583 87.7193 19.8969 87.7641 19.5531C87.809 19.1944 87.9659 18.9328 88.235 18.7684ZM82.45 19.2616C82.6145 19.1869 82.7938 19.1794 82.9882 19.2392C83.1825 19.2841 83.3394 19.3812 83.459 19.5307C83.5637 19.6652 83.6085 19.7848 83.5936 19.8895C83.5786 19.9792 83.4814 20.2183 83.3021 20.607C83.1974 20.8461 83.1451 20.9956 83.1451 21.0554C83.1601 21.1152 83.2647 21.2572 83.459 21.4814C84.0869 22.2289 84.4307 22.625 84.4905 22.6698C84.5353 22.7147 84.7969 23.051 85.2752 23.6788C85.5443 24.0376 85.6489 24.4113 85.5891 24.7999C85.5443 25.1737 85.35 25.4128 85.0062 25.5175C84.752 25.6071 84.5054 25.5773 84.2662 25.4278C84.042 25.2783 83.7655 24.9793 83.4366 24.5309C83.1526 24.1422 82.8312 23.7685 82.4724 23.4098C82.1286 23.0361 81.9268 22.8492 81.867 22.8492C81.7923 22.8492 81.7176 22.9015 81.6428 23.0062C81.5531 23.1257 81.4634 23.2379 81.3738 23.3425C81.2841 23.4471 81.1645 23.6041 81.015 23.8134C80.8655 24.0226 80.7908 24.1422 80.7908 24.1721C80.7908 24.1871 80.7011 24.344 80.5217 24.643C80.3423 24.942 80.2377 25.1064 80.2078 25.1363C79.8042 25.5249 79.3483 25.4876 78.84 25.0242C78.6457 24.8448 78.5411 24.6804 78.5261 24.5309C78.5112 24.3814 78.5784 24.1497 78.7279 23.8358C78.7578 23.761 78.8176 23.6415 78.9073 23.477C79.0119 23.3126 79.0792 23.2154 79.1091 23.1855C79.1091 23.1855 79.1838 23.0809 79.3333 22.8716C79.438 22.7221 79.6622 22.4157 80.006 21.9523C80.3498 21.474 80.5367 21.2273 80.5666 21.2124C80.5815 21.1974 80.6787 21.0704 80.858 20.8312C81.0225 20.592 81.2915 20.2856 81.6652 19.9119C82.0539 19.5382 82.3155 19.3214 82.45 19.2616ZM83.3693 27.4682C83.4291 27.4234 84.2887 27.4234 85.9479 27.4682C87.6071 27.4981 88.4966 27.5429 88.6162 27.6027C89.0497 27.7971 89.3411 28.1558 89.4906 28.679C89.6551 29.2022 89.67 29.845 89.5355 30.6073C89.4757 30.9362 89.4009 31.1903 89.3112 31.3697C89.2216 31.5491 89.102 31.7135 88.9525 31.863C88.803 31.9975 88.5414 32.1021 88.1677 32.1769C87.809 32.2367 87.4053 32.289 86.9569 32.3338C86.5085 32.3637 85.8582 32.3936 85.0062 32.4235C83.8103 32.4534 83.1825 32.5132 83.1227 32.6029C83.0928 32.6328 83.1003 32.7075 83.1451 32.8271C83.1451 32.8421 83.1451 32.8495 83.1451 32.8495C83.2796 33.2382 83.474 33.4624 83.7281 33.5222C83.9822 33.582 84.8118 33.6119 86.217 33.6119C86.2469 33.6119 86.2693 33.6119 86.2842 33.6119C87.6445 33.6119 88.4517 33.6269 88.7058 33.6568C88.9749 33.6866 89.1767 33.7689 89.3112 33.9034C89.5504 34.1426 89.6326 34.4341 89.5579 34.7779C89.4981 35.1217 89.3112 35.3683 88.9973 35.5178C88.7582 35.6224 87.7641 35.6598 86.0152 35.6299C84.2662 35.6 83.1974 35.5178 82.8088 35.3833C82.2706 35.1889 81.9044 34.9273 81.7101 34.5985C81.5307 34.2846 81.441 33.7315 81.441 32.9392C81.4261 32.147 81.5232 31.6163 81.7325 31.3473C81.9418 31.0782 82.4201 30.839 83.1675 30.6297C83.4964 30.5251 84.3484 30.4354 85.7237 30.3607C86.8298 30.3158 87.4203 30.256 87.495 30.1813C87.5548 30.1365 87.5773 30.0019 87.5623 29.7777C87.5623 29.5385 87.5399 29.3965 87.495 29.3517C87.4352 29.3068 86.785 29.2844 85.5443 29.2844C84.3185 29.2844 83.3095 29.3068 82.5173 29.3517C81.9941 29.3816 81.6055 29.2844 81.3513 29.0602C81.0972 28.836 81.0598 28.5445 81.2392 28.1857C81.3588 27.9764 81.5083 27.8344 81.6877 27.7597C81.882 27.67 82.2034 27.6027 82.6518 27.5579C83.1152 27.513 83.3544 27.4831 83.3693 27.4682ZM104.711 21.4366C104.92 21.332 105.137 21.317 105.361 21.3918C105.556 21.4665 105.69 21.6907 105.765 22.0644C105.84 22.4381 105.899 23.1706 105.944 24.2618C105.959 25.0092 105.989 25.3979 106.034 25.4278C106.079 25.4577 106.445 25.4726 107.133 25.4726C107.82 25.4726 108.231 25.495 108.366 25.5399C108.979 25.7342 109.308 26.0406 109.352 26.4592C109.412 26.8628 109.158 27.1543 108.59 27.3337C108.171 27.4533 107.618 27.513 106.931 27.513C106.632 27.513 106.393 27.5355 106.213 27.5803L105.967 27.6476V29.9571C105.967 31.2277 105.952 31.9751 105.922 32.1993C105.907 32.4086 105.81 32.6029 105.63 32.7823C105.436 32.9766 105.189 33.0588 104.89 33.0289C104.591 32.999 104.382 32.8645 104.263 32.6253C104.173 32.4758 104.091 31.2202 104.016 28.8584C103.941 26.4966 103.926 24.9121 103.971 24.1049C104.016 23.4172 104.038 22.9464 104.038 22.6923C104.038 22.3634 104.053 22.1915 104.083 22.1765C104.128 22.1466 104.15 22.1018 104.15 22.042C104.15 21.9673 104.21 21.8626 104.33 21.7281C104.449 21.5936 104.576 21.4964 104.711 21.4366ZM97.1995 21.7954C97.2892 21.7655 97.5732 21.758 98.0516 21.7729C98.9485 21.7879 99.6585 21.9747 100.182 22.3335C100.72 22.6923 101.146 23.2603 101.46 24.0376C101.624 24.4262 101.736 25.0167 101.796 25.809C101.871 26.6012 101.863 27.1618 101.774 27.4906C101.744 27.5803 101.691 27.7821 101.617 28.096C101.288 29.3517 100.428 30.1589 99.0381 30.5176C98.7541 30.5924 98.3655 30.6148 97.8722 30.5849C97.3789 30.555 97.0351 30.4803 96.8408 30.3607C96.766 30.3308 96.6988 30.3158 96.639 30.3158C96.5941 30.3158 96.5343 30.3009 96.4596 30.271C95.8915 30.0019 95.5104 29.8001 95.316 29.6656C95.1217 29.5161 94.9199 29.2919 94.7106 28.9929C94.2174 28.2904 93.896 27.5205 93.7465 26.6834C93.597 25.8314 93.6418 25.0242 93.881 24.2618C94.0753 23.6788 94.4789 23.1332 95.0918 22.625C95.7047 22.1167 96.2727 21.8552 96.7959 21.8402C96.9454 21.8402 97.0799 21.8253 97.1995 21.7954ZM98.4327 23.8358C98.2683 23.761 97.9918 23.7312 97.6031 23.7461C97.2145 23.761 96.9304 23.8134 96.7511 23.9031C96.2428 24.1572 95.9364 24.5757 95.8318 25.1587C95.7421 25.7417 95.8691 26.4069 96.2129 27.1543C96.5866 27.9914 97.1397 28.4847 97.8722 28.6342C98.6046 28.7836 99.1876 28.5295 99.6211 27.8718C100.01 27.2589 100.107 26.5339 99.9126 25.6968C99.7332 24.8448 99.3446 24.2768 98.7467 23.9927C98.657 23.9479 98.5523 23.8956 98.4327 23.8358ZM120.832 21.6608C120.982 21.5113 121.094 21.4291 121.168 21.4142C121.258 21.3992 121.385 21.3992 121.55 21.4142C121.729 21.4291 121.849 21.459 121.908 21.5039C122.058 21.5786 122.148 21.7356 122.177 21.9747C122.207 22.199 122.23 22.7969 122.245 23.7685C122.275 24.9793 122.312 25.5847 122.357 25.5847C122.372 25.5997 122.469 25.5997 122.648 25.5847C123.381 25.5548 124.038 25.6146 124.621 25.7641C125.219 25.9136 125.578 26.1229 125.698 26.3919C125.892 26.7806 125.802 27.087 125.429 27.3112C125.055 27.5205 124.405 27.6476 123.478 27.6924C122.76 27.7223 122.379 27.7447 122.334 27.7597C122.29 27.7896 122.282 28.4772 122.312 29.8225C122.327 30.9138 122.319 31.6014 122.29 31.8854C122.26 32.1694 122.177 32.4011 122.043 32.5805C121.834 32.8645 121.587 32.999 121.303 32.9841C121.034 32.9542 120.787 32.7898 120.563 32.4908C120.473 32.3712 120.414 31.9826 120.384 31.3248C120.354 30.6671 120.324 29.0826 120.294 26.5713C120.264 25.2409 120.264 24.2319 120.294 23.5443C120.324 22.8567 120.369 22.4157 120.428 22.2214C120.503 22.0271 120.638 21.8402 120.832 21.6608ZM113.567 22.199C113.821 22.1691 114.277 22.1541 114.935 22.1541C115.593 22.1541 116.026 22.1691 116.236 22.199C116.953 22.3335 117.364 22.6773 117.469 23.2304C117.588 23.7685 117.416 24.5832 116.953 25.6744C116.953 25.6894 116.938 25.7267 116.908 25.7865C116.893 25.8314 116.871 25.8986 116.841 25.9883C116.811 26.0631 116.781 26.1303 116.751 26.1901C116.318 27.3112 115.869 28.238 115.406 28.9705C115.301 29.12 115.249 29.2097 115.249 29.2396C115.249 29.3442 115.04 29.6581 114.621 30.1813C114.203 30.6895 113.889 31.0184 113.679 31.1679C113.351 31.407 113.007 31.4743 112.648 31.3697C112.304 31.2501 112.132 31.0109 112.132 30.6522C112.132 30.5027 112.214 30.2785 112.379 29.9795C112.558 29.6805 112.723 29.4638 112.872 29.3292C112.872 29.3143 112.939 29.2246 113.074 29.0602C113.179 28.9107 113.246 28.821 113.276 28.7911C113.38 28.7164 113.597 28.3875 113.926 27.8045C114.255 27.2216 114.487 26.7656 114.621 26.4368C114.935 25.6595 115.092 25.226 115.092 25.1363C115.092 25.0914 115.107 25.0316 115.137 24.9569C115.286 24.6729 115.346 24.4337 115.316 24.2394C115.301 24.1497 115.174 24.0899 114.935 24.06C114.711 24.0301 114.053 23.9927 112.962 23.9479C111.915 23.918 111.273 23.8806 111.034 23.8358C110.794 23.776 110.63 23.634 110.54 23.4098C110.466 23.2154 110.48 23.0136 110.585 22.8044C110.69 22.5801 110.832 22.4456 111.011 22.4008C111.564 22.3111 112.102 22.2588 112.626 22.2438C113.089 22.2438 113.403 22.2289 113.567 22.199ZM131.066 20.6294C131.634 20.4949 132.232 20.465 132.859 20.5397C133.487 20.5995 134.04 20.749 134.519 20.9882C135.191 21.317 135.685 21.8925 135.998 22.7147C136.327 23.5368 136.41 24.4113 136.245 25.3381C136.096 26.2499 135.722 26.9973 135.124 27.5803C134.93 27.7597 134.631 27.954 134.227 28.1633C133.838 28.3726 133.181 28.4996 132.254 28.5445C131.342 28.5893 130.737 28.537 130.438 28.3875C130.378 28.3427 130.326 28.3202 130.281 28.3202C130.236 28.3202 130.027 28.2306 129.653 28.0512C128.696 27.5878 128.046 26.7881 127.702 25.652C127.613 25.368 127.583 24.927 127.613 24.3291C127.657 23.7312 127.732 23.3276 127.837 23.1183C127.867 23.0435 127.882 22.9912 127.882 22.9613C127.882 22.767 128.098 22.4531 128.532 22.0196C128.98 21.5711 129.391 21.2572 129.765 21.0778C130.214 20.8686 130.647 20.7191 131.066 20.6294ZM132.59 22.4232C132.396 22.3783 132.142 22.3559 131.828 22.3559C131.514 22.341 131.327 22.3484 131.267 22.3783C131.103 22.4531 130.961 22.5203 130.841 22.5801C130.483 22.7446 130.161 22.9613 129.877 23.2304C129.548 23.5443 129.474 24.1049 129.653 24.9121C129.832 25.7193 130.146 26.2275 130.595 26.4368C130.894 26.5713 131.312 26.6535 131.85 26.6834C132.388 26.7133 132.807 26.6759 133.106 26.5713C133.36 26.4816 133.622 26.3022 133.891 26.0332C134.175 25.7492 134.317 25.5249 134.317 25.3605C134.317 25.2858 134.339 25.2334 134.384 25.2035C134.429 25.1587 134.444 24.9644 134.429 24.6206C134.429 24.2618 134.399 24.0077 134.339 23.8582C134.19 23.4397 133.98 23.1183 133.711 22.8941C133.457 22.6698 133.084 22.5129 132.59 22.4232ZM134.474 28.7911C134.892 28.7463 135.161 28.821 135.281 29.0153C135.416 29.1947 135.483 29.6282 135.483 30.3158C135.483 30.3607 135.483 30.413 135.483 30.4728C135.483 31.1156 135.52 31.4893 135.595 31.5939C135.67 31.6985 135.931 31.7583 136.38 31.7733C136.425 31.7733 136.462 31.7733 136.492 31.7733C137.269 31.7882 137.777 31.8555 138.016 31.9751C138.271 32.0797 138.398 32.2965 138.398 32.6253C138.398 32.999 138.211 33.2756 137.837 33.455C137.703 33.4998 137.59 33.5446 137.501 33.5895C137.441 33.6194 136.768 33.6343 135.483 33.6343C134.152 33.6343 132.702 33.6717 131.133 33.7464C130.116 33.8062 129.339 33.8287 128.801 33.8137C128.263 33.7838 127.919 33.739 127.77 33.6792C127.62 33.6044 127.426 33.455 127.187 33.2307C126.932 32.9617 126.873 32.73 127.007 32.5356C127.157 32.3413 127.5 32.2068 128.039 32.132C128.651 32.0423 128.988 31.9751 129.048 31.9302C129.092 31.9003 129.115 31.5192 129.115 30.7867C129.115 30.1439 129.13 29.7627 129.16 29.6432C129.205 29.5086 129.347 29.3666 129.586 29.2171C129.989 28.9481 130.296 28.9182 130.505 29.1274C130.729 29.3218 130.879 29.7852 130.953 30.5176C131.028 31.1903 131.11 31.5864 131.2 31.706C131.305 31.8107 131.604 31.848 132.097 31.8181C132.172 31.8032 132.276 31.7957 132.411 31.7957C132.994 31.7658 133.338 31.7135 133.442 31.6387C133.547 31.5491 133.607 31.2576 133.622 30.7643C133.622 30.6596 133.622 30.5774 133.622 30.5176C133.667 29.6506 133.741 29.2171 133.846 29.2171C133.891 29.2171 133.913 29.1872 133.913 29.1274C133.913 29.0527 133.973 28.9854 134.093 28.9256C134.212 28.8509 134.339 28.8061 134.474 28.7911Z" fill="#77632A"/>
<path d="M10.7044 8.77836L7.65527 8.837L7.69437 5.7683L10.7305 5.76178L10.7044 8.77836Z" fill="#77632A"/>
<path d="M10.737 45.3624L7.69434 45.3494L7.73343 42.3654L10.7239 42.3198L10.737 45.3624Z" fill="#77632A"/>
<path d="M159.676 8.77836L156.626 8.837L156.666 5.7683L159.702 5.76178L159.676 8.77836Z" fill="#77632A"/>
<path d="M159.709 45.3624L156.666 45.3494L156.712 42.3654L159.696 42.3198L159.709 45.3624Z" fill="#77632A"/>
</svg>
