<svg width="90" height="48" viewBox="0 0 90 48" fill="none" xmlns="http://www.w3.org/2000/svg">
<path d="M49.3742 47.2798L44.5937 46.5197L40.3397 46.8753L40.0015 41.3277L40.256 35.7976L40.385 30.2709L40.0712 24.7407L41.0894 19.2106L40.7965 14.0082L44.5937 13.778L49.1545 13.4258L49.3323 19.2071L48.1154 24.7372L49.0185 30.2639L48.6803 35.7941L48.7744 41.3277L49.3742 47.2798Z" fill="#E2D29F"/>
<path d="M88.9221 27.2603L85.2539 27.6822L81.5682 27.7659L77.8826 27.208L74.1935 27.4521L70.5114 27.4207L66.8223 27.0267L63.1367 27.6369L59.4511 27.0441L55.7654 27.6683L52.0798 26.9291L48.3907 27.1731L44.7051 26.7791L41.0195 27.4695L37.3304 26.9221L33.6413 27.6787L29.9557 27.4207L26.2666 27.1243L22.5809 27.609L18.8953 26.8593L15.2062 26.9744L11.5171 27.473L7.8315 27.2324L4.13891 27.7345L0.460266 27.2708L0.669478 23.4562L0.142962 19.6311L0.610201 15.806L0 11.9774L0.631123 8.1488L0.261515 4.32023L0.662504 0.697373L4.13542 0.174343L7.82453 0.822906L11.5101 0.603232L15.1958 0.606722L18.8814 0.184803L22.567 0.564871L26.2526 0.571851L29.9382 0.795005L33.6273 0.969348L37.313 0.52652L40.9986 0.394018L44.6877 0.885667L48.3733 0.404478L52.0624 0.704354L55.748 0.892637L59.4371 0.638102L63.1227 0.582311L66.8118 0.275465L70.4975 0.52652L74.1831 0L77.8722 0.129012L81.5613 0.400987L85.2504 0.0279009L88.7338 0.693893L89.0859 4.31674L88.7198 8.14183L89.0057 11.9704L88.9604 15.7955L88.9813 19.6241L89.3753 23.4527L88.9221 27.2603Z" fill="#F3E7B8"/>
<path d="M24.267 11.292C24.427 11.196 24.575 11.192 24.711 11.28C24.847 11.368 24.935 11.524 24.975 11.748C25.007 11.916 25.023 12.852 25.023 14.556C25.031 16.252 25.023 17.152 24.999 17.256C24.951 17.4 24.859 17.5 24.723 17.556C24.587 17.604 24.451 17.6 24.315 17.544C24.179 17.48 24.091 17.376 24.051 17.232C23.971 16.96 23.931 15.96 23.931 14.232C23.931 12.504 23.971 11.616 24.051 11.568C24.067 11.552 24.075 11.528 24.075 11.496C24.075 11.432 24.139 11.364 24.267 11.292ZM19.779 11.748C20.483 11.724 20.999 11.732 21.327 11.772C21.655 11.812 21.879 11.896 21.999 12.024C22.119 12.152 22.171 12.356 22.155 12.636C22.147 12.788 22.107 12.984 22.035 13.224C21.963 13.464 21.899 13.612 21.843 13.668C21.827 13.684 21.819 13.708 21.819 13.74C21.819 13.764 21.711 14 21.495 14.448C21.279 14.896 21.139 15.164 21.075 15.252C21.003 15.372 20.859 15.568 20.643 15.84C20.435 16.112 20.307 16.276 20.259 16.332C20.123 16.452 19.971 16.528 19.803 16.56C19.643 16.592 19.507 16.576 19.395 16.512C19.283 16.44 19.227 16.332 19.227 16.188C19.227 16.14 19.275 16.032 19.371 15.864C19.475 15.688 19.559 15.568 19.623 15.504C19.647 15.48 19.731 15.36 19.875 15.144C20.019 14.928 20.095 14.816 20.103 14.808C20.127 14.808 20.139 14.796 20.139 14.772C20.139 14.756 20.163 14.704 20.211 14.616C20.267 14.528 20.303 14.476 20.319 14.46C20.343 14.444 20.435 14.268 20.595 13.932C20.763 13.588 20.847 13.404 20.847 13.38C20.847 13.356 20.859 13.324 20.883 13.284C20.915 13.228 20.951 13.132 20.991 12.996C21.039 12.86 21.059 12.78 21.051 12.756C21.027 12.7 20.579 12.672 19.707 12.672C19.059 12.664 18.707 12.644 18.651 12.612C18.547 12.556 18.475 12.48 18.435 12.384C18.403 12.28 18.411 12.18 18.459 12.084C18.531 11.956 18.635 11.872 18.771 11.832C18.915 11.792 19.251 11.764 19.779 11.748ZM31.7369 10.044C31.8329 9.988 31.9369 9.984 32.0489 10.032C32.1609 10.072 32.2489 10.156 32.3129 10.284C32.3529 10.356 32.3689 10.824 32.3609 11.688C32.3609 12.552 32.3449 13.048 32.3129 13.176C32.2889 13.248 32.2369 13.332 32.1569 13.428C32.0849 13.516 32.0289 13.56 31.9889 13.56C31.9569 13.56 31.9329 13.568 31.9169 13.584C31.8929 13.608 31.6369 13.632 31.1489 13.656C30.7489 13.672 30.4969 13.676 30.3929 13.668C30.2969 13.652 30.1529 13.6 29.9609 13.512C29.7449 13.416 29.5969 13.224 29.5169 12.936C29.4369 12.64 29.3969 12.132 29.3969 11.412C29.3969 10.908 29.4089 10.604 29.4329 10.5C29.4569 10.388 29.5289 10.284 29.6489 10.188C29.8329 10.044 30.0089 10.02 30.1769 10.116C30.3449 10.204 30.4289 10.376 30.4289 10.632C30.4289 10.792 30.4769 10.896 30.5729 10.944C30.6689 10.984 30.8609 10.992 31.1489 10.968L31.3889 10.956L31.4249 10.644C31.4489 10.428 31.4769 10.3 31.5089 10.26C31.5809 10.156 31.6569 10.084 31.7369 10.044ZM31.3409 12.048C31.3169 12.016 31.2529 12 31.1489 12C31.0529 11.992 30.9769 12 30.9209 12.024C30.8809 12.04 30.8049 12.048 30.6929 12.048C30.5729 12.056 30.4969 12.072 30.4649 12.096C30.4409 12.112 30.4289 12.16 30.4289 12.24C30.4289 12.416 30.5089 12.536 30.6689 12.6C30.8289 12.656 31.0489 12.656 31.3289 12.6C31.3769 12.592 31.4009 12.508 31.4009 12.348C31.4089 12.188 31.3889 12.088 31.3409 12.048ZM26.6009 10.068C26.7449 9.988 26.8689 10.008 26.9729 10.128C27.0769 10.24 27.1369 10.424 27.1529 10.68C27.1609 10.88 27.1809 10.992 27.2129 11.016C27.2529 11.04 27.3889 11.048 27.6209 11.04C27.8289 11.024 27.9529 11.004 27.9929 10.98C28.0329 10.956 28.0529 10.892 28.0529 10.788C28.0529 10.564 28.1089 10.396 28.2209 10.284C28.3329 10.164 28.4609 10.128 28.6049 10.176C28.7569 10.224 28.8809 10.344 28.9769 10.536C29.0329 10.656 29.0649 10.976 29.0729 11.496C29.0889 12.008 29.0729 12.456 29.0249 12.84C29.0089 12.984 28.9929 13.092 28.9769 13.164C28.9689 13.236 28.9449 13.308 28.9049 13.38C28.8649 13.452 28.8249 13.5 28.7849 13.524C28.7449 13.548 28.6729 13.572 28.5689 13.596C28.4649 13.62 28.3609 13.632 28.2569 13.632C28.1529 13.632 27.9929 13.632 27.7769 13.632C27.3289 13.632 27.0489 13.62 26.9369 13.596C26.8249 13.572 26.7009 13.5 26.5649 13.38C26.4609 13.292 26.3889 13.192 26.3489 13.08C26.3089 12.96 26.2729 12.744 26.2409 12.432C26.0969 11.072 26.2169 10.284 26.6009 10.068ZM27.9929 12.12C27.9689 12.072 27.8449 12.048 27.6209 12.048C27.3969 12.048 27.2729 12.068 27.2489 12.108C27.2249 12.156 27.2289 12.248 27.2609 12.384C27.2929 12.512 27.3289 12.592 27.3689 12.624C27.4249 12.672 27.5329 12.696 27.6929 12.696C27.8529 12.688 27.9489 12.66 27.9809 12.612C28.0049 12.572 28.0169 12.492 28.0169 12.372C28.0249 12.252 28.0169 12.168 27.9929 12.12ZM27.7649 14.556C28.1729 14.532 28.9369 14.524 30.0569 14.532C31.1849 14.532 31.7809 14.544 31.8449 14.568C31.9729 14.624 32.0649 14.736 32.1209 14.904C32.1849 15.064 32.1809 15.188 32.1089 15.276C31.9969 15.412 31.8409 15.496 31.6409 15.528C31.4489 15.552 30.8489 15.568 29.8409 15.576C28.2809 15.592 27.3369 15.584 27.0089 15.552C26.6809 15.52 26.4729 15.416 26.3849 15.24C26.3369 15.128 26.3169 15.036 26.3249 14.964C26.3409 14.884 26.4049 14.82 26.5169 14.772C26.6289 14.716 26.7809 14.672 26.9729 14.64C27.1729 14.608 27.4369 14.58 27.7649 14.556ZM27.6089 16.176C27.7769 16.144 27.9089 16.204 28.0049 16.356C28.1009 16.508 28.1489 16.736 28.1489 17.04C28.1489 17.4 28.1849 17.624 28.2569 17.712C28.3049 17.768 29.0889 17.756 30.6089 17.676C31.0729 17.652 31.3649 17.648 31.4849 17.664C31.6129 17.672 31.7169 17.72 31.7969 17.808C31.9729 17.976 32.0129 18.156 31.9169 18.348C31.8289 18.54 31.6409 18.664 31.3529 18.72C31.1769 18.752 30.3689 18.784 28.9289 18.816C28.6489 18.816 28.4209 18.812 28.2449 18.804C28.0689 18.796 27.9049 18.772 27.7529 18.732C27.6089 18.7 27.4969 18.652 27.4169 18.588C27.3449 18.524 27.2809 18.432 27.2249 18.312C27.1769 18.192 27.1449 18.06 27.1289 17.916C27.1129 17.764 27.1049 17.572 27.1049 17.34C27.1049 16.9 27.1369 16.608 27.2009 16.464C27.2649 16.312 27.4009 16.216 27.6089 16.176ZM38.5097 9.888C38.7097 9.848 38.8537 9.884 38.9417 9.996C39.0297 10.1 39.0897 10.312 39.1217 10.632C39.1537 10.992 39.1657 11.592 39.1577 12.432C39.1497 13.264 39.1297 13.716 39.0977 13.788C39.0257 13.932 38.9217 14.032 38.7857 14.088C38.6497 14.136 38.5217 14.124 38.4017 14.052C38.2737 13.972 38.1937 13.88 38.1617 13.776C38.1377 13.664 38.1257 13.408 38.1257 13.008V12.348L38.0057 12.312C37.9257 12.296 37.8457 12.296 37.7657 12.312C37.3417 12.392 37.0097 12.368 36.7697 12.24C36.5377 12.112 36.4777 11.924 36.5897 11.676C36.6537 11.532 36.7457 11.432 36.8657 11.376C36.9857 11.312 37.1897 11.268 37.4777 11.244C37.6857 11.22 37.8737 11.192 38.0417 11.16C38.0817 11.152 38.1057 11.112 38.1137 11.04C38.1297 10.96 38.1497 10.768 38.1737 10.464C38.1817 10.288 38.2017 10.18 38.2337 10.14C38.3297 9.988 38.4217 9.904 38.5097 9.888ZM35.1497 10.044C35.4457 10.004 35.6977 10.064 35.9057 10.224C36.1217 10.384 36.2297 10.592 36.2297 10.848C36.2297 11.048 36.1417 11.292 35.9657 11.58C35.8297 11.82 35.7057 12.04 35.5937 12.24C35.5217 12.376 35.3817 12.596 35.1737 12.9C34.9657 13.204 34.8257 13.396 34.7537 13.476C34.5137 13.732 34.2857 13.78 34.0697 13.62C33.9097 13.508 33.8257 13.388 33.8177 13.26C33.8097 13.132 33.8697 12.976 33.9977 12.792C34.0777 12.68 34.2177 12.472 34.4177 12.168C34.6177 11.848 34.7737 11.588 34.8857 11.388C34.9097 11.348 34.9257 11.32 34.9337 11.304C35.0457 11.192 35.0537 11.124 34.9577 11.1C34.8697 11.084 34.6137 11.084 34.1897 11.1C33.7977 11.108 33.5617 11.112 33.4817 11.112C33.4097 11.104 33.3417 11.084 33.2777 11.052C33.0457 10.924 32.9457 10.76 32.9777 10.56C33.0177 10.36 33.1657 10.224 33.4217 10.152C33.4937 10.128 33.7897 10.108 34.3097 10.092C34.8297 10.068 35.1097 10.052 35.1497 10.044ZM36.2777 14.544C36.2857 14.528 36.5217 14.524 36.9857 14.532C37.4577 14.532 37.7817 14.54 37.9577 14.556C38.3737 14.588 38.6577 14.728 38.8097 14.976C38.9697 15.216 39.0177 15.592 38.9537 16.104C38.9297 16.32 38.9017 16.476 38.8697 16.572C38.8377 16.66 38.7777 16.744 38.6897 16.824C38.5457 16.96 38.3697 17.048 38.1617 17.088C37.9537 17.128 37.4937 17.16 36.7817 17.184C35.9817 17.2 35.5537 17.244 35.4977 17.316C35.4657 17.348 35.4697 17.412 35.5097 17.508C35.5417 17.58 35.5737 17.632 35.6057 17.664C35.6457 17.696 35.7377 17.728 35.8817 17.76C36.0257 17.784 36.1937 17.8 36.3857 17.808C36.5857 17.816 36.9057 17.824 37.3457 17.832C38.0417 17.856 38.4497 17.876 38.5697 17.892C38.6897 17.9 38.7897 17.928 38.8697 17.976C39.0697 18.12 39.1417 18.288 39.0857 18.48C39.0377 18.68 38.8817 18.808 38.6177 18.864C38.5057 18.896 38.0297 18.9 37.1897 18.876C36.3497 18.852 35.8017 18.82 35.5457 18.78C35.2017 18.732 34.9537 18.604 34.8017 18.396C34.6497 18.196 34.5617 17.884 34.5377 17.46C34.5217 17.212 34.5297 17.028 34.5617 16.908C34.5937 16.788 34.6657 16.668 34.7777 16.548C34.9217 16.396 35.1057 16.296 35.3297 16.248C35.5617 16.192 36.0017 16.144 36.6497 16.104C37.3617 16.064 37.7457 16.016 37.8017 15.96C37.8257 15.936 37.8377 15.884 37.8377 15.804C37.8377 15.732 37.8137 15.68 37.7657 15.648C37.7257 15.616 37.6377 15.588 37.5017 15.564C37.3737 15.54 37.1817 15.532 36.9257 15.54C36.6697 15.54 36.3337 15.544 35.9177 15.552C35.2857 15.568 34.9097 15.572 34.7897 15.564C34.6697 15.556 34.5777 15.516 34.5137 15.444C34.3297 15.26 34.3617 15.044 34.6097 14.796C34.6817 14.724 34.7737 14.676 34.8857 14.652C35.0057 14.628 35.2617 14.608 35.6537 14.592C36.0537 14.568 36.2617 14.552 36.2777 14.544ZM50.2356 11.328C50.3556 11.248 50.4716 11.228 50.5836 11.268C50.6956 11.3 50.7836 11.38 50.8476 11.508C50.8876 11.596 50.9196 12.46 50.9436 14.1C50.9756 15.732 50.9756 16.692 50.9436 16.98C50.9196 17.228 50.8316 17.396 50.6796 17.484C50.5276 17.564 50.3596 17.544 50.1756 17.424C50.0476 17.344 49.9676 17.236 49.9356 17.1C49.9116 16.964 49.8916 16.6 49.8756 16.008C49.8596 15.152 49.8436 14.652 49.8276 14.508C49.8116 14.356 49.7676 14.268 49.6956 14.244C49.6236 14.22 49.4596 14.216 49.2036 14.232C48.8996 14.248 48.6916 14.228 48.5796 14.172C48.4676 14.116 48.4036 14.004 48.3876 13.836C48.3796 13.708 48.3876 13.616 48.4116 13.56C48.4356 13.496 48.4876 13.44 48.5676 13.392C48.6476 13.336 48.7316 13.3 48.8196 13.284C48.9156 13.268 49.1636 13.236 49.5636 13.188C49.5796 13.188 49.5956 13.188 49.6116 13.188C49.7556 13.172 49.8396 13.136 49.8636 13.08C49.8876 13.024 49.9036 12.844 49.9116 12.54C49.9116 12.492 49.9156 12.456 49.9236 12.432C49.9316 12.024 49.9516 11.76 49.9836 11.64C50.0236 11.512 50.1076 11.408 50.2356 11.328ZM45.4356 11.496C45.5956 11.448 45.8676 11.44 46.2516 11.472C46.6356 11.496 46.9036 11.548 47.0556 11.628C47.4956 11.852 47.7956 12.228 47.9556 12.756C48.0036 12.932 48.0356 13.076 48.0516 13.188C48.0676 13.292 48.0796 13.504 48.0876 13.824C48.0956 14.272 48.0836 14.576 48.0516 14.736C48.0276 14.888 47.9476 15.096 47.8116 15.36C47.7556 15.464 47.6156 15.604 47.3916 15.78C47.3436 15.812 47.2596 15.856 47.1396 15.912C47.0276 15.968 46.9556 15.996 46.9236 15.996C46.8836 15.996 46.8516 16.008 46.8276 16.032C46.8036 16.056 46.6236 16.068 46.2876 16.068C45.9596 16.068 45.7556 16.052 45.6756 16.02C45.3876 15.932 45.1756 15.856 45.0396 15.792C44.9116 15.72 44.7876 15.62 44.6676 15.492C44.5716 15.404 44.4796 15.304 44.3916 15.192C44.3036 15.08 44.2596 15.008 44.2596 14.976C44.2596 14.968 44.2356 14.924 44.1876 14.844C44.1396 14.772 44.1036 14.696 44.0796 14.616C44.0716 14.6 44.0596 14.572 44.0436 14.532C44.0276 14.484 44.0156 14.456 44.0076 14.448C43.9356 14.256 43.8996 13.968 43.8996 13.584C43.8996 13.288 43.9116 13.076 43.9356 12.948C43.9596 12.82 44.0196 12.652 44.1156 12.444C44.1716 12.34 44.2636 12.216 44.3916 12.072C44.5276 11.928 44.6396 11.836 44.7276 11.796C44.9836 11.668 45.1516 11.592 45.2316 11.568C45.2476 11.56 45.2796 11.548 45.3276 11.532C45.3836 11.516 45.4196 11.504 45.4356 11.496ZM46.2876 12.528C46.2556 12.512 46.1676 12.5 46.0236 12.492C45.8796 12.476 45.7716 12.472 45.6996 12.48C45.6196 12.488 45.5076 12.524 45.3636 12.588C45.1716 12.676 45.0476 12.856 44.9916 13.128C44.9356 13.4 44.9516 13.692 45.0396 14.004C45.1356 14.316 45.2916 14.568 45.5076 14.76C45.6356 14.888 45.8236 14.976 46.0716 15.024C46.3276 15.064 46.5276 15.052 46.6716 14.988C46.7516 14.948 46.8316 14.888 46.9116 14.808C46.9996 14.72 47.0436 14.66 47.0436 14.628C47.0436 14.588 47.0516 14.556 47.0676 14.532C47.1156 14.484 47.1396 14.276 47.1396 13.908C47.1396 13.532 47.1156 13.3 47.0676 13.212C47.0516 13.172 47.0436 13.14 47.0436 13.116C47.0436 13.076 46.9756 13 46.8396 12.888C46.7116 12.768 46.6036 12.684 46.5156 12.636C46.4836 12.62 46.4396 12.6 46.3836 12.576C46.3276 12.544 46.2956 12.528 46.2876 12.528ZM59.1467 10.236C59.2027 10.204 59.2347 10.188 59.2427 10.188C59.2587 10.188 59.3107 10.196 59.3987 10.212C59.5827 10.26 59.7067 10.372 59.7707 10.548C59.8027 10.668 59.8187 11.296 59.8187 12.432C59.8267 13.56 59.8107 14.164 59.7707 14.244C59.6907 14.42 59.5667 14.524 59.3987 14.556C59.2307 14.588 59.0787 14.532 58.9427 14.388C58.8867 14.332 58.8467 14.248 58.8227 14.136C58.8067 14.016 58.7947 13.772 58.7867 13.404C58.7707 12.948 58.7467 12.704 58.7147 12.672C58.6907 12.64 58.4907 12.624 58.1147 12.624C57.7387 12.624 57.4867 12.6 57.3587 12.552C57.2387 12.504 57.1507 12.392 57.0947 12.216C57.0627 12.104 57.0827 11.992 57.1547 11.88C57.2267 11.76 57.3307 11.688 57.4667 11.664C57.7947 11.616 58.0747 11.592 58.3067 11.592C58.5227 11.592 58.6547 11.568 58.7027 11.52C58.7587 11.472 58.7867 11.34 58.7867 11.124C58.7867 11.012 58.7947 10.924 58.8107 10.86C58.8827 10.628 58.9347 10.48 58.9667 10.416C58.9987 10.352 59.0587 10.292 59.1467 10.236ZM53.4587 10.428C54.1867 10.316 54.5507 10.472 54.5507 10.896C54.5427 11.112 54.4907 11.256 54.3947 11.328C54.3067 11.4 54.1227 11.436 53.8427 11.436C53.5787 11.436 53.4027 11.444 53.3147 11.46C53.2267 11.476 53.1747 11.508 53.1587 11.556C53.1267 11.62 53.1067 11.764 53.0987 11.988C53.0987 12.212 53.1067 12.388 53.1227 12.516C53.1627 12.756 53.2307 12.912 53.3267 12.984C53.4307 13.048 53.6507 13.092 53.9867 13.116C54.2427 13.132 54.4187 13.156 54.5147 13.188C54.6107 13.22 54.6747 13.28 54.7067 13.368C54.7627 13.488 54.7667 13.612 54.7187 13.74C54.6707 13.86 54.5827 13.948 54.4547 14.004C54.4067 14.036 54.1787 14.056 53.7707 14.064C53.3707 14.064 53.1307 14.052 53.0507 14.028C52.9787 14.004 52.9187 13.988 52.8707 13.98C52.8147 13.972 52.7187 13.924 52.5827 13.836C52.4547 13.74 52.3827 13.672 52.3667 13.632C52.3427 13.592 52.3267 13.568 52.3187 13.56C52.2867 13.528 52.2467 13.436 52.1987 13.284C52.1427 13.108 52.1107 12.704 52.1027 12.072C52.0947 11.44 52.1187 11.064 52.1747 10.944C52.3107 10.624 52.6147 10.464 53.0867 10.464C53.2307 10.464 53.3547 10.452 53.4587 10.428ZM55.8467 10.584C56.3427 10.552 56.6987 10.556 56.9147 10.596C57.1307 10.636 57.2787 10.728 57.3587 10.872C57.4547 11.056 57.4347 11.208 57.2987 11.328C57.1707 11.44 56.9507 11.496 56.6387 11.496C56.4707 11.496 56.2987 11.508 56.1227 11.532C55.9467 11.556 55.8467 11.58 55.8227 11.604C55.7987 11.62 55.7907 11.816 55.7987 12.192C55.8147 12.568 55.8347 12.792 55.8587 12.864C55.8987 12.984 55.9867 13.068 56.1227 13.116C56.2587 13.156 56.4787 13.176 56.7827 13.176C57.0227 13.184 57.2067 13.24 57.3347 13.344C57.4707 13.448 57.5227 13.58 57.4907 13.74C57.4747 13.796 57.4267 13.864 57.3467 13.944C57.2667 14.016 57.2027 14.052 57.1547 14.052C57.1227 14.052 57.0987 14.06 57.0827 14.076C57.0347 14.132 56.7387 14.176 56.1947 14.208C55.6987 14.24 55.3747 14.208 55.2227 14.112C55.0787 14.008 54.9467 13.732 54.8267 13.284C54.8027 13.18 54.7867 12.832 54.7787 12.24C54.7707 11.648 54.7787 11.336 54.8027 11.304C54.8267 11.272 54.8427 11.232 54.8507 11.184C54.8907 11.04 55.0067 10.908 55.1987 10.788C55.3987 10.668 55.6147 10.6 55.8467 10.584ZM56.5547 15.192C56.5787 15.176 56.7947 15.172 57.2027 15.18C57.6187 15.188 57.8787 15.204 57.9827 15.228C58.2307 15.268 58.4147 15.352 58.5347 15.48C58.6547 15.608 58.7387 15.796 58.7867 16.044C58.8427 16.404 58.8747 16.828 58.8827 17.316C58.8907 17.796 58.8667 18.088 58.8107 18.192C58.7387 18.32 58.6107 18.408 58.4267 18.456C58.2427 18.512 58.0867 18.504 57.9587 18.432C57.8227 18.368 57.7387 18.276 57.7067 18.156C57.6747 18.036 57.6547 17.72 57.6467 17.208C57.6387 16.656 57.6267 16.364 57.6107 16.332C57.5867 16.268 57.5067 16.232 57.3707 16.224C57.2347 16.208 56.7867 16.204 56.0267 16.212C55.3227 16.212 54.9027 16.212 54.7667 16.212C54.6387 16.204 54.5467 16.184 54.4907 16.152C54.3227 16.048 54.2587 15.904 54.2987 15.72C54.3387 15.536 54.4627 15.42 54.6707 15.372C54.8787 15.324 55.2947 15.28 55.9187 15.24C56.3347 15.224 56.5467 15.208 56.5547 15.192ZM62.9298 10.812C63.3858 10.788 63.6978 10.792 63.8658 10.824C64.0418 10.856 64.1698 10.932 64.2498 11.052C64.3378 11.18 64.3458 11.332 64.2738 11.508C64.2018 11.684 64.0978 11.772 63.9618 11.772C63.9218 11.772 63.8898 11.784 63.8658 11.808C63.8498 11.824 63.6058 11.832 63.1338 11.832C62.6698 11.824 62.3298 11.808 62.1138 11.784C61.9218 11.768 61.7778 11.716 61.6818 11.628C61.5938 11.54 61.5698 11.436 61.6098 11.316C61.6418 11.212 61.6698 11.14 61.6938 11.1C61.7258 11.052 61.7578 11.008 61.7898 10.968C61.8298 10.92 61.9058 10.892 62.0178 10.884C62.1298 10.868 62.2418 10.856 62.3538 10.848C62.4658 10.832 62.6578 10.82 62.9298 10.812ZM68.2098 11.964C68.3538 11.892 68.4898 11.872 68.6178 11.904C68.7538 11.936 68.8458 12.012 68.8938 12.132C68.9338 12.228 68.9698 12.948 69.0018 14.292C69.0338 15.636 69.0378 16.556 69.0138 17.052C68.9898 17.42 68.9018 17.688 68.7498 17.856C68.5978 18.016 68.4258 18.024 68.2338 17.88C68.1138 17.792 68.0418 17.664 68.0178 17.496C67.9938 17.328 67.9818 16.872 67.9818 16.128C67.9818 15.48 67.9658 15.144 67.9338 15.12C67.9098 15.096 67.7418 15.088 67.4298 15.096C67.1178 15.104 66.9458 15.116 66.9138 15.132C66.8898 15.148 66.8778 15.348 66.8778 15.732C66.8858 16.108 66.8978 16.392 66.9138 16.584C66.9698 17.128 66.8458 17.4 66.5418 17.4C66.4378 17.4 66.3378 17.368 66.2418 17.304C66.1538 17.232 66.0858 17.144 66.0378 17.04C65.9898 16.928 65.9578 16.844 65.9418 16.788C65.9338 16.732 65.9258 16.604 65.9178 16.404C65.8858 15.956 65.8658 15.672 65.8578 15.552C65.8338 15.304 65.8138 14.872 65.7978 14.256C65.7818 13.416 65.8138 12.844 65.8938 12.54C65.9818 12.228 66.1458 12.072 66.3858 12.072C66.5618 12.072 66.6778 12.144 66.7338 12.288C66.7898 12.432 66.8258 12.744 66.8418 13.224C66.8418 13.28 66.8418 13.352 66.8418 13.44C66.8498 13.712 66.8658 13.868 66.8898 13.908C66.9218 13.948 67.0178 13.964 67.1778 13.956C67.2338 13.956 67.2738 13.956 67.2978 13.956C67.3298 13.956 67.3738 13.956 67.4298 13.956C67.6618 13.948 67.7978 13.916 67.8378 13.86C67.8778 13.796 67.9018 13.588 67.9098 13.236C67.9098 13.156 67.9098 13.092 67.9098 13.044C67.9098 12.708 67.9138 12.484 67.9218 12.372C67.9378 12.26 67.9618 12.176 67.9938 12.12C68.0338 12.064 68.1058 12.012 68.2098 11.964ZM62.0898 12.36C62.2418 12.328 62.6258 12.312 63.2418 12.312C63.8578 12.304 64.2298 12.312 64.3578 12.336C64.5738 12.376 64.7218 12.48 64.8018 12.648C64.8898 12.816 64.8658 12.968 64.7298 13.104C64.6578 13.176 64.5778 13.224 64.4898 13.248C64.4018 13.264 64.1338 13.288 63.6858 13.32C63.5018 13.336 63.3498 13.352 63.2298 13.368C62.7578 13.44 62.4378 13.492 62.2698 13.524C62.1978 13.54 62.0218 13.552 61.7418 13.56C61.4698 13.568 61.2978 13.548 61.2258 13.5C61.1538 13.444 61.1178 13.32 61.1178 13.128C61.1258 12.888 61.1938 12.716 61.3218 12.612C61.4578 12.508 61.7138 12.424 62.0898 12.36ZM62.5578 13.716C62.6858 13.692 62.8978 13.688 63.1938 13.704C63.4898 13.712 63.6858 13.732 63.7818 13.764C63.9978 13.844 64.1738 13.984 64.3098 14.184C64.4458 14.376 64.5938 14.696 64.7538 15.144C64.8018 15.288 64.8218 15.5 64.8138 15.78C64.8138 16.06 64.7898 16.268 64.7418 16.404C64.5498 16.98 64.1778 17.344 63.6258 17.496C63.0738 17.648 62.5098 17.544 61.9338 17.184C61.6058 16.976 61.3418 16.636 61.1418 16.164C60.9498 15.692 60.9138 15.3 61.0338 14.988C61.0738 14.892 61.0978 14.836 61.1058 14.82C61.1778 14.62 61.2658 14.468 61.3698 14.364C61.4738 14.26 61.6618 14.136 61.9338 13.992C62.2138 13.84 62.4218 13.748 62.5578 13.716ZM63.2658 14.844C63.1378 14.78 62.9738 14.756 62.7738 14.772C62.5738 14.788 62.4138 14.84 62.2938 14.928C62.0938 15.072 62.0418 15.336 62.1378 15.72C62.2418 16.096 62.4258 16.34 62.6898 16.452C62.9458 16.564 63.1658 16.588 63.3498 16.524C63.5418 16.46 63.6698 16.32 63.7338 16.104C63.8138 15.832 63.8098 15.58 63.7218 15.348C63.6338 15.116 63.4818 14.948 63.2658 14.844ZM70.6653 10.596C70.7613 10.564 70.8893 10.568 71.0493 10.608C71.2173 10.64 71.3293 10.688 71.3853 10.752C71.4093 10.792 71.4373 10.876 71.4693 11.004C71.5173 11.212 71.5413 11.316 71.5413 11.316C71.5733 11.444 71.5853 11.864 71.5773 12.576C71.5693 13.288 71.5453 13.812 71.5053 14.148C71.4813 14.42 71.4653 14.676 71.4573 14.916C71.4253 15.428 71.3333 15.716 71.1813 15.78C71.1253 15.804 71.0373 15.808 70.9173 15.792C70.8053 15.776 70.7173 15.752 70.6533 15.72C70.6453 15.712 70.6333 15.704 70.6173 15.696C70.5373 15.656 70.4893 15.552 70.4733 15.384C70.4573 15.208 70.4493 14.624 70.4493 13.632C70.4413 13.432 70.4373 13.276 70.4373 13.164C70.4373 13.052 70.4373 12.9 70.4373 12.708C70.4373 11.692 70.4453 11.096 70.4613 10.92C70.4773 10.744 70.5333 10.64 70.6293 10.608C70.6453 10.608 70.6573 10.604 70.6653 10.596ZM70.6773 16.56C70.9413 16.48 71.1733 16.548 71.3733 16.764C71.5733 16.98 71.6253 17.216 71.5293 17.472C71.4973 17.56 71.4693 17.648 71.4453 17.736C71.4133 17.872 71.3213 17.98 71.1693 18.06C71.0173 18.148 70.8733 18.172 70.7373 18.132C70.6333 18.1 70.5253 18.044 70.4133 17.964C70.3093 17.876 70.2413 17.796 70.2093 17.724C70.1293 17.532 70.1413 17.304 70.2453 17.04C70.3573 16.776 70.5013 16.616 70.6773 16.56Z" fill="#77632A"/>
<path d="M5.72902 4.69804L4.09717 4.72942L4.11809 3.08711L5.74297 3.08362L5.72902 4.69804Z" fill="#77632A"/>
<path d="M5.74653 24.2771L4.11816 24.2701L4.13909 22.6731L5.73956 22.6487L5.74653 24.2771Z" fill="#77632A"/>
<path d="M85.4561 4.69804L83.8242 4.72942L83.8451 3.08711L85.47 3.08362L85.4561 4.69804Z" fill="#77632A"/>
<path d="M85.4736 24.2771L83.8452 24.2701L83.8696 22.6731L85.4666 22.6487L85.4736 24.2771Z" fill="#77632A"/>
</svg>
