<svg width="90" height="48" viewBox="0 0 90 48" fill="none" xmlns="http://www.w3.org/2000/svg">
<path d="M49.3742 47.2798L44.5937 46.5197L40.3397 46.8753L40.0015 41.3277L40.256 35.7976L40.385 30.2709L40.0712 24.7407L41.0894 19.2106L40.7965 14.0082L44.5937 13.778L49.1545 13.4258L49.3323 19.2071L48.1154 24.7372L49.0185 30.2639L48.6803 35.7941L48.7744 41.3277L49.3742 47.2798Z" fill="#E2D29F"/>
<path d="M88.9221 27.2603L85.2539 27.6822L81.5682 27.7659L77.8826 27.208L74.1935 27.4521L70.5114 27.4207L66.8223 27.0267L63.1367 27.6369L59.4511 27.0441L55.7654 27.6683L52.0798 26.9291L48.3907 27.1731L44.7051 26.7791L41.0195 27.4695L37.3304 26.9221L33.6413 27.6787L29.9557 27.4207L26.2666 27.1243L22.5809 27.609L18.8953 26.8593L15.2062 26.9744L11.5171 27.473L7.8315 27.2324L4.13891 27.7345L0.460266 27.2708L0.669478 23.4562L0.142962 19.6311L0.610201 15.806L0 11.9774L0.631123 8.1488L0.261515 4.32023L0.662504 0.697373L4.13542 0.174343L7.82453 0.822906L11.5101 0.603232L15.1958 0.606722L18.8814 0.184803L22.567 0.564871L26.2526 0.571851L29.9382 0.795005L33.6273 0.969348L37.313 0.52652L40.9986 0.394018L44.6877 0.885667L48.3733 0.404478L52.0624 0.704354L55.748 0.892637L59.4371 0.638102L63.1227 0.582311L66.8118 0.275465L70.4975 0.52652L74.1831 0L77.8722 0.129012L81.5613 0.400987L85.2504 0.0279009L88.7338 0.693893L89.0859 4.31674L88.7198 8.14183L89.0057 11.9704L88.9604 15.7955L88.9813 19.6241L89.3753 23.4527L88.9221 27.2603Z" fill="#F3E7B8"/>
<path d="M15.8052 11.352C15.9172 11.304 16.0212 11.304 16.1172 11.352C16.2212 11.392 16.2932 11.468 16.3332 11.58C16.3572 11.652 16.3732 11.952 16.3812 12.48C16.3812 12.512 16.3812 12.56 16.3812 12.624C16.3892 13.032 16.4092 13.272 16.4412 13.344C16.4732 13.416 16.5852 13.46 16.7772 13.476C16.8092 13.476 16.8332 13.476 16.8492 13.476C17.3852 13.508 17.7292 13.548 17.8812 13.596C18.0412 13.636 18.1532 13.72 18.2172 13.848C18.3212 14.064 18.2652 14.256 18.0492 14.424C17.8332 14.592 17.5692 14.648 17.2572 14.592C17.0252 14.552 16.8172 14.552 16.6332 14.592C16.6252 14.592 16.6132 14.596 16.5972 14.604C16.4852 14.628 16.4212 14.672 16.4052 14.736C16.3892 14.792 16.3892 15 16.4052 15.36C16.4132 15.4 16.4172 15.432 16.4172 15.456C16.4492 16.104 16.4452 16.56 16.4052 16.824C16.3652 17.088 16.2732 17.26 16.1292 17.34C16.0012 17.404 15.8772 17.412 15.7572 17.364C15.6372 17.316 15.5492 17.216 15.4932 17.064C15.4212 16.856 15.3812 15.936 15.3732 14.304C15.3732 12.664 15.4092 11.808 15.4812 11.736C15.5052 11.712 15.5172 11.684 15.5172 11.652C15.5172 11.612 15.5492 11.56 15.6132 11.496C15.6772 11.432 15.7412 11.384 15.8052 11.352ZM11.0052 11.676C11.1252 11.652 11.2412 11.676 11.3532 11.748C11.4732 11.82 11.5452 11.916 11.5692 12.036C11.5932 12.132 11.6132 12.392 11.6292 12.816C11.6452 13.296 11.6612 13.6 11.6772 13.728C11.7012 14.064 11.7212 14.288 11.7372 14.4C11.7372 14.424 11.7372 14.452 11.7372 14.484C11.7612 14.764 11.8172 14.928 11.9052 14.976C12.0012 15.016 12.3132 15.032 12.8412 15.024C12.9132 15.016 12.9692 15.012 13.0092 15.012C13.5132 15.004 13.8252 15.008 13.9452 15.024C14.0732 15.032 14.1732 15.072 14.2452 15.144C14.3572 15.264 14.3972 15.396 14.3652 15.54C14.3412 15.684 14.2492 15.788 14.0892 15.852C13.8972 15.932 13.4012 15.984 12.6012 16.008C11.8092 16.024 11.3412 16 11.1972 15.936C11.0292 15.848 10.9052 15.724 10.8252 15.564C10.7452 15.396 10.6892 15.14 10.6572 14.796C10.6252 14.452 10.6012 13.908 10.5852 13.164C10.5772 12.572 10.5972 12.184 10.6452 12C10.7012 11.816 10.8212 11.708 11.0052 11.676ZM19.7223 10.14C19.8423 10.076 19.9663 10.064 20.0943 10.104C20.2303 10.144 20.3303 10.22 20.3943 10.332C20.4503 10.428 20.4903 10.84 20.5143 11.568C20.5223 11.968 20.5663 12.204 20.6463 12.276C20.7343 12.348 20.9783 12.368 21.3783 12.336C21.7463 12.304 22.1543 12.292 22.6023 12.3C23.0503 12.3 23.3023 12.316 23.3583 12.348C23.5343 12.444 23.6143 12.584 23.5983 12.768C23.5823 12.944 23.4743 13.084 23.2743 13.188C23.0743 13.292 22.5223 13.356 21.6183 13.38C20.7223 13.396 20.1743 13.356 19.9743 13.26C19.8143 13.18 19.6983 13.092 19.6263 12.996C19.5623 12.9 19.5183 12.76 19.4943 12.576C19.4703 12.392 19.4543 12.08 19.4463 11.64C19.4303 11.088 19.4383 10.716 19.4703 10.524C19.5103 10.332 19.5943 10.204 19.7223 10.14ZM20.4183 14.268C20.4423 14.244 21.0463 14.236 22.2303 14.244C23.4143 14.252 24.0263 14.264 24.0663 14.28C24.2663 14.392 24.3743 14.528 24.3903 14.688C24.4063 14.848 24.3343 14.988 24.1743 15.108C24.0223 15.22 23.8143 15.276 23.5503 15.276C23.3903 15.276 23.2303 15.288 23.0703 15.312C22.9183 15.328 22.2463 15.336 21.0543 15.336L19.2783 15.348L19.1223 15.24C18.8823 15.064 18.8183 14.852 18.9303 14.604C18.9863 14.492 19.0663 14.42 19.1703 14.388C19.2743 14.348 19.4983 14.32 19.8423 14.304C20.2183 14.288 20.4103 14.276 20.4183 14.268ZM19.8063 16.14C19.9823 15.988 20.1423 15.964 20.2863 16.068C20.4303 16.172 20.5143 16.368 20.5383 16.656C20.5703 17.072 20.6023 17.332 20.6343 17.436C20.6503 17.508 20.7063 17.552 20.8023 17.568C20.8983 17.584 21.1703 17.588 21.6183 17.58C21.7703 17.572 22.0423 17.564 22.4343 17.556C22.8343 17.548 23.1103 17.54 23.2623 17.532L24.0903 17.52L24.2223 17.664C24.5503 18 24.4743 18.26 23.9943 18.444C23.7303 18.548 23.3703 18.612 22.9143 18.636C22.5863 18.652 22.3263 18.668 22.1343 18.684C21.6863 18.716 21.2623 18.72 20.8623 18.696C20.4623 18.672 20.1863 18.624 20.0343 18.552C19.8263 18.456 19.6903 18.324 19.6263 18.156C19.5703 17.996 19.5423 17.688 19.5423 17.232C19.5423 16.832 19.5543 16.576 19.5783 16.464C19.6103 16.352 19.6863 16.244 19.8063 16.14ZM30.8549 11.292C30.9669 11.268 31.0749 11.28 31.1789 11.328C31.2909 11.368 31.3469 11.424 31.3469 11.496C31.3469 11.536 31.3589 11.56 31.3829 11.568C31.3989 11.584 31.4069 11.632 31.4069 11.712C31.4069 11.8 31.4229 11.936 31.4549 12.12C31.4949 12.296 31.5229 12.392 31.5389 12.408C31.5709 12.416 31.7749 12.428 32.1509 12.444C32.5349 12.46 32.7949 12.492 32.9309 12.54C33.0669 12.588 33.1669 12.684 33.2309 12.828C33.2629 12.908 33.2749 12.976 33.2669 13.032C33.2589 13.08 33.2189 13.14 33.1469 13.212C33.0589 13.308 32.9469 13.372 32.8109 13.404C32.6749 13.436 32.4029 13.46 31.9949 13.476C31.6989 13.492 31.5309 13.52 31.4909 13.56C31.4509 13.6 31.4389 13.748 31.4549 14.004C31.4549 14.044 31.4549 14.092 31.4549 14.148C31.4629 14.34 31.4869 14.452 31.5269 14.484C31.5749 14.516 31.7389 14.528 32.0189 14.52C32.1149 14.52 32.1869 14.52 32.2349 14.52C32.6989 14.52 32.9989 14.548 33.1349 14.604C33.2789 14.66 33.3509 14.78 33.3509 14.964C33.3509 15.148 33.2829 15.28 33.1469 15.36C33.0109 15.44 32.7669 15.488 32.4149 15.504C32.3669 15.504 32.2989 15.504 32.2109 15.504C31.8589 15.52 31.6509 15.56 31.5869 15.624C31.5309 15.688 31.5029 15.892 31.5029 16.236C31.5029 16.324 31.5029 16.388 31.5029 16.428C31.5029 16.796 31.4909 17.028 31.4669 17.124C31.4509 17.212 31.3989 17.284 31.3109 17.34C31.1829 17.42 31.0429 17.428 30.8909 17.364C30.7469 17.292 30.6469 17.176 30.5909 17.016C30.5429 16.864 30.5069 16.032 30.4829 14.52C30.4589 13 30.4669 12.1 30.5069 11.82C30.5549 11.508 30.6709 11.332 30.8549 11.292ZM26.7389 11.508C26.8989 11.484 27.1469 11.484 27.4829 11.508C27.8189 11.532 28.0469 11.564 28.1669 11.604C28.4389 11.7 28.6709 11.864 28.8629 12.096C29.0629 12.328 29.2069 12.608 29.2949 12.936C29.3589 13.184 29.3949 13.488 29.4029 13.848C29.4189 14.208 29.4069 14.472 29.3669 14.64C29.3349 14.744 29.3109 14.836 29.2949 14.916C29.2309 15.156 29.0949 15.384 28.8869 15.6C28.6869 15.816 28.4509 15.98 28.1789 16.092C28.0269 16.156 27.8109 16.196 27.5309 16.212C27.2509 16.22 27.0389 16.2 26.8949 16.152C26.7669 16.112 26.6909 16.088 26.6669 16.08C25.8509 15.84 25.3189 15.192 25.0709 14.136C24.9269 13.536 25.0229 12.972 25.3589 12.444C25.6949 11.908 26.1549 11.596 26.7389 11.508ZM27.5909 12.6C27.3269 12.512 27.0549 12.52 26.7749 12.624C26.5029 12.72 26.3269 12.88 26.2469 13.104C26.1749 13.304 26.1549 13.524 26.1869 13.764C26.2189 13.996 26.2909 14.208 26.4029 14.4C26.5149 14.584 26.6469 14.752 26.7989 14.904C26.9589 15.048 27.1269 15.136 27.3029 15.168C27.4869 15.2 27.6589 15.176 27.8189 15.096C28.0029 14.992 28.1389 14.872 28.2269 14.736C28.3149 14.592 28.3749 14.4 28.4069 14.16C28.4629 13.8 28.4109 13.476 28.2509 13.188C28.0989 12.9 27.8789 12.704 27.5909 12.6ZM40.106 10.764C40.13 10.732 40.214 10.732 40.358 10.764C40.502 10.796 40.61 10.836 40.682 10.884C40.794 10.956 40.866 11.056 40.898 11.184C40.93 11.312 40.914 11.42 40.85 11.508C40.77 11.604 40.678 11.664 40.574 11.688C40.478 11.704 40.222 11.712 39.806 11.712C39.238 11.712 38.826 11.684 38.57 11.628C38.322 11.572 38.186 11.476 38.162 11.34C38.154 11.292 38.162 11.228 38.186 11.148C38.21 11.068 38.234 11.028 38.258 11.028C38.274 11.028 38.302 11.008 38.342 10.968C38.414 10.904 38.502 10.864 38.606 10.848C38.718 10.832 38.962 10.816 39.338 10.8C39.834 10.784 40.09 10.772 40.106 10.764ZM43.166 11.784C43.262 11.736 43.37 11.736 43.49 11.784C43.618 11.84 43.694 11.932 43.718 12.06C43.75 12.188 43.766 12.528 43.766 13.08C43.766 13.144 43.766 13.236 43.766 13.356C43.758 13.708 43.774 13.916 43.814 13.98C43.854 14.036 43.99 14.068 44.222 14.076C44.294 14.084 44.354 14.088 44.402 14.088C44.81 14.104 45.11 14.168 45.302 14.28C45.494 14.392 45.566 14.544 45.518 14.736C45.478 14.88 45.394 14.976 45.266 15.024C45.138 15.064 44.858 15.096 44.426 15.12C44.018 15.144 43.806 15.168 43.79 15.192C43.774 15.216 43.774 15.388 43.79 15.708C43.83 16.556 43.826 17.176 43.778 17.568C43.762 17.752 43.686 17.892 43.55 17.988C43.414 18.084 43.274 18.104 43.13 18.048C42.994 18 42.906 17.888 42.866 17.712C42.802 17.424 42.746 16.56 42.698 15.12C42.658 13.68 42.662 12.788 42.71 12.444C42.75 12.124 42.902 11.904 43.166 11.784ZM39.842 12.132C39.938 12.116 40.166 12.112 40.526 12.12C40.894 12.128 41.118 12.144 41.198 12.168C41.382 12.216 41.51 12.3 41.582 12.42C41.654 12.54 41.658 12.672 41.594 12.816C41.538 12.928 41.422 13.008 41.246 13.056C41.078 13.096 40.766 13.12 40.31 13.128C39.982 13.144 39.734 13.168 39.566 13.2C39.238 13.264 38.95 13.312 38.702 13.344C38.31 13.384 38.074 13.4 37.994 13.392C37.914 13.384 37.834 13.344 37.754 13.272C37.65 13.16 37.59 13.036 37.574 12.9C37.566 12.764 37.606 12.648 37.694 12.552C37.798 12.448 37.962 12.372 38.186 12.324C38.41 12.276 38.81 12.228 39.386 12.18C39.626 12.164 39.778 12.148 39.842 12.132ZM39.134 13.62C39.446 13.508 39.778 13.488 40.13 13.56C40.482 13.632 40.754 13.772 40.946 13.98C41.186 14.236 41.358 14.62 41.462 15.132C41.566 15.636 41.558 16.036 41.438 16.332C41.262 16.812 40.966 17.132 40.55 17.292C40.358 17.372 40.142 17.412 39.902 17.412C39.478 17.412 39.094 17.328 38.75 17.16C38.406 16.992 38.138 16.76 37.946 16.464C37.762 16.176 37.67 15.984 37.67 15.888C37.67 15.864 37.662 15.84 37.646 15.816C37.598 15.768 37.566 15.664 37.55 15.504C37.542 15.336 37.554 15.188 37.586 15.06C37.642 14.796 37.774 14.556 37.982 14.34C38.254 14.036 38.638 13.796 39.134 13.62ZM39.722 14.664C39.506 14.6 39.27 14.632 39.014 14.76C38.766 14.888 38.642 15.04 38.642 15.216C38.642 15.408 38.702 15.616 38.822 15.84C38.95 16.056 39.086 16.2 39.23 16.272C39.606 16.448 39.918 16.464 40.166 16.32C40.422 16.168 40.538 15.9 40.514 15.516C40.498 15.364 40.442 15.212 40.346 15.06C40.258 14.908 40.174 14.832 40.094 14.832C40.062 14.832 40.046 14.824 40.046 14.808C40.046 14.784 40.026 14.772 39.986 14.772C39.954 14.772 39.926 14.764 39.902 14.748C39.87 14.724 39.81 14.696 39.722 14.664ZM51.3481 11.352C51.4601 11.304 51.5641 11.304 51.6601 11.352C51.7641 11.392 51.8361 11.468 51.8761 11.58C51.9001 11.652 51.9161 11.952 51.9241 12.48C51.9241 12.512 51.9241 12.56 51.9241 12.624C51.9321 13.032 51.9521 13.272 51.9841 13.344C52.0161 13.416 52.1281 13.46 52.3201 13.476C52.3521 13.476 52.3761 13.476 52.3921 13.476C52.9281 13.508 53.2721 13.548 53.4241 13.596C53.5841 13.636 53.6961 13.72 53.7601 13.848C53.8641 14.064 53.8081 14.256 53.5921 14.424C53.3761 14.592 53.1121 14.648 52.8001 14.592C52.5681 14.552 52.3601 14.552 52.1761 14.592C52.1681 14.592 52.1561 14.596 52.1401 14.604C52.0281 14.628 51.9641 14.672 51.9481 14.736C51.9321 14.792 51.9321 15 51.9481 15.36C51.9561 15.4 51.9601 15.432 51.9601 15.456C51.9921 16.104 51.9881 16.56 51.9481 16.824C51.9081 17.088 51.8161 17.26 51.6721 17.34C51.5441 17.404 51.4201 17.412 51.3001 17.364C51.1801 17.316 51.0921 17.216 51.0361 17.064C50.9641 16.856 50.9241 15.936 50.9161 14.304C50.9161 12.664 50.9521 11.808 51.0241 11.736C51.0481 11.712 51.0601 11.684 51.0601 11.652C51.0601 11.612 51.0921 11.56 51.1561 11.496C51.2201 11.432 51.2841 11.384 51.3481 11.352ZM46.5481 11.676C46.6681 11.652 46.7841 11.676 46.8961 11.748C47.0161 11.82 47.0881 11.916 47.1121 12.036C47.1361 12.132 47.1561 12.392 47.1721 12.816C47.1881 13.296 47.2041 13.6 47.2201 13.728C47.2441 14.064 47.2641 14.288 47.2801 14.4C47.2801 14.424 47.2801 14.452 47.2801 14.484C47.3041 14.764 47.3601 14.928 47.4481 14.976C47.5441 15.016 47.8561 15.032 48.3841 15.024C48.4561 15.016 48.5121 15.012 48.5521 15.012C49.0561 15.004 49.3681 15.008 49.4881 15.024C49.6161 15.032 49.7161 15.072 49.7881 15.144C49.9001 15.264 49.9401 15.396 49.9081 15.54C49.8841 15.684 49.7921 15.788 49.6321 15.852C49.4401 15.932 48.9441 15.984 48.1441 16.008C47.3521 16.024 46.8841 16 46.7401 15.936C46.5721 15.848 46.4481 15.724 46.3681 15.564C46.2881 15.396 46.2321 15.14 46.2001 14.796C46.1681 14.452 46.1441 13.908 46.1281 13.164C46.1201 12.572 46.1401 12.184 46.1881 12C46.2441 11.816 46.3641 11.708 46.5481 11.676ZM59.5733 10.236C59.6293 10.212 59.7133 10.208 59.8253 10.224C59.9453 10.24 60.0293 10.268 60.0773 10.308C60.1493 10.372 60.2013 10.636 60.2333 11.1C60.2653 11.564 60.2693 12.032 60.2453 12.504C60.2293 12.792 60.2173 13.08 60.2093 13.368C60.2093 13.8 60.1693 14.088 60.0893 14.232C59.9933 14.384 59.8453 14.448 59.6453 14.424C59.4453 14.4 59.3013 14.3 59.2133 14.124C59.1893 14.068 59.1813 13.588 59.1893 12.684C59.1973 11.772 59.2133 11.208 59.2373 10.992C59.2853 10.568 59.3973 10.316 59.5733 10.236ZM54.7733 10.608C55.0213 10.472 55.2053 10.48 55.3253 10.632C55.3973 10.72 55.4413 10.844 55.4573 11.004C55.4813 11.156 55.4933 11.472 55.4933 11.952C55.4933 12.536 55.5013 12.848 55.5173 12.888C55.5413 12.952 55.6133 12.992 55.7333 13.008C55.8533 13.016 56.1613 13.02 56.6573 13.02C57.2893 13.012 57.6413 13.028 57.7133 13.068C57.9613 13.196 58.0533 13.368 57.9893 13.584C57.9333 13.792 57.7493 13.936 57.4373 14.016C57.3413 14.04 56.9493 14.056 56.2613 14.064C55.5733 14.064 55.2053 14.052 55.1573 14.028C55.1253 14.012 55.0613 13.984 54.9653 13.944C54.7253 13.84 54.5653 13.596 54.4853 13.212C54.4053 12.828 54.3933 12.22 54.4493 11.388C54.4573 11.124 54.4813 10.944 54.5213 10.848C54.5613 10.752 54.6453 10.672 54.7733 10.608ZM58.3733 15.036C58.3893 15.012 58.5733 15.012 58.9253 15.036C59.2853 15.06 59.4973 15.084 59.5613 15.108C59.7933 15.212 59.9413 15.368 60.0053 15.576C60.0773 15.776 60.1133 16.172 60.1133 16.764C60.1133 17.06 60.1053 17.292 60.0893 17.46C60.0733 17.628 60.0493 17.78 60.0173 17.916C59.9853 18.044 59.9253 18.14 59.8373 18.204C59.7493 18.268 59.6493 18.316 59.5373 18.348C59.4253 18.388 59.2653 18.42 59.0573 18.444C58.7453 18.492 58.1773 18.504 57.3533 18.48C56.5293 18.464 56.0693 18.428 55.9733 18.372C55.9653 18.364 55.9093 18.336 55.8053 18.288C55.7093 18.248 55.6333 18.192 55.5773 18.12C55.5293 18.048 55.4813 17.932 55.4333 17.772C55.4093 17.676 55.3853 17.364 55.3613 16.836C55.3453 16.3 55.3453 15.984 55.3613 15.888C55.4013 15.744 55.4413 15.636 55.4813 15.564C55.5293 15.484 55.5893 15.412 55.6613 15.348C55.7413 15.284 55.8693 15.24 56.0453 15.216C56.2213 15.184 56.4173 15.16 56.6333 15.144C56.8573 15.12 57.1733 15.1 57.5813 15.084C58.0933 15.06 58.3573 15.044 58.3733 15.036ZM58.9493 16.14C58.9093 16.092 58.6533 16.064 58.1813 16.056C57.7173 16.04 57.4013 16.052 57.2333 16.092C57.1453 16.108 57.0533 16.116 56.9573 16.116C56.8853 16.116 56.7653 16.136 56.5973 16.176L56.3813 16.236V16.44C56.3893 16.936 56.4253 17.232 56.4893 17.328C56.5293 17.392 56.6133 17.432 56.7413 17.448C56.8693 17.456 57.1853 17.46 57.6893 17.46C58.3853 17.46 58.7773 17.432 58.8653 17.376C58.9213 17.336 58.9613 17.24 58.9853 17.088C59.0173 16.864 59.0293 16.66 59.0213 16.476C59.0133 16.292 58.9893 16.18 58.9493 16.14ZM70.4193 11.376C70.6753 11.28 70.8433 11.316 70.9233 11.484C71.0033 11.652 71.0433 12.048 71.0433 12.672C71.0433 12.704 71.0433 12.748 71.0433 12.804C71.0433 13.148 71.0593 13.352 71.0913 13.416C71.1313 13.472 71.2633 13.508 71.4873 13.524C71.5273 13.524 71.5553 13.524 71.5713 13.524C72.0753 13.556 72.3953 13.592 72.5313 13.632C72.6673 13.672 72.7753 13.764 72.8553 13.908C72.9113 14.004 72.9233 14.112 72.8913 14.232C72.8673 14.344 72.8073 14.424 72.7113 14.472C72.6713 14.496 72.6473 14.512 72.6393 14.52C72.6233 14.536 72.5753 14.556 72.4953 14.58C72.2473 14.652 71.9673 14.68 71.6553 14.664C71.4233 14.648 71.2673 14.656 71.1873 14.688L71.0673 14.748L71.0913 15.312C71.0993 15.752 71.1073 16.112 71.1153 16.392C71.1233 16.664 71.1033 16.876 71.0553 17.028C71.0153 17.172 70.9633 17.272 70.8993 17.328C70.8353 17.376 70.7393 17.4 70.6113 17.4C70.4273 17.4 70.2993 17.336 70.2273 17.208C70.1553 17.08 70.1113 16.836 70.0953 16.476C70.0793 16.116 70.0633 15.764 70.0473 15.42C70.0073 14.82 69.9913 14.092 69.9993 13.236C70.0153 12.38 70.0433 11.884 70.0833 11.748C70.1553 11.556 70.2673 11.432 70.4193 11.376ZM66.8673 11.652C67.3873 11.612 67.7673 11.624 68.0073 11.688C68.2553 11.752 68.4113 11.88 68.4753 12.072C68.5153 12.184 68.5073 12.308 68.4513 12.444C68.4033 12.572 68.2873 12.78 68.1033 13.068C67.9113 13.372 67.8153 13.58 67.8153 13.692C67.8233 13.804 67.9393 14.008 68.1633 14.304C68.2513 14.424 68.3513 14.568 68.4633 14.736C68.5753 14.904 68.6313 14.996 68.6313 15.012C68.6313 15.02 68.6673 15.084 68.7393 15.204C68.8193 15.316 68.8593 15.388 68.8593 15.42C68.8593 15.444 68.8673 15.464 68.8833 15.48C68.9153 15.496 68.9433 15.564 68.9673 15.684C68.9913 15.796 68.9953 15.872 68.9793 15.912C68.9393 16.008 68.8593 16.092 68.7393 16.164C68.6193 16.228 68.5073 16.252 68.4033 16.236C68.3553 16.22 68.2713 16.172 68.1513 16.092C68.0393 16.012 67.9833 15.96 67.9833 15.936C67.9833 15.92 67.9593 15.888 67.9113 15.84C67.8553 15.776 67.7273 15.592 67.5273 15.288C67.4393 15.152 67.3273 15.016 67.1913 14.88C67.0553 14.744 66.9713 14.684 66.9393 14.7C66.9153 14.716 66.8193 14.824 66.6513 15.024C66.4833 15.224 66.3953 15.328 66.3873 15.336C66.3793 15.344 66.3313 15.408 66.2433 15.528C66.1553 15.648 66.1033 15.716 66.0873 15.732C66.0553 15.764 65.9913 15.84 65.8953 15.96C65.7753 16.12 65.6473 16.2 65.5113 16.2C65.3753 16.192 65.2433 16.104 65.1153 15.936C64.9953 15.784 64.9953 15.58 65.1153 15.324C65.2433 15.06 65.5153 14.696 65.9313 14.232C65.9953 14.152 66.1113 14 66.2793 13.776C66.4633 13.536 66.5593 13.412 66.5673 13.404C66.5833 13.388 66.6673 13.276 66.8193 13.068C66.9793 12.86 67.0673 12.752 67.0833 12.744C67.0993 12.744 67.1073 12.72 67.1073 12.672C67.1073 12.632 67.0473 12.616 66.9273 12.624C66.8553 12.632 66.6633 12.652 66.3513 12.684C65.7273 12.748 65.3513 12.74 65.2233 12.66C65.0233 12.532 64.9513 12.38 65.0073 12.204C65.0633 12.02 65.2153 11.908 65.4633 11.868C65.7833 11.804 66.0273 11.768 66.1953 11.76C66.3313 11.744 66.4273 11.728 66.4833 11.712C66.5473 11.688 66.6753 11.668 66.8673 11.652ZM79.0951 11.292C79.1511 11.284 79.2351 11.284 79.3471 11.292C79.5631 11.3 79.6911 11.38 79.7311 11.532C79.7711 11.684 79.7991 12.196 79.8151 13.068C79.8151 13.348 79.8311 14.248 79.8631 15.768C79.8791 16.624 79.8711 17.088 79.8391 17.16C79.7591 17.352 79.6111 17.452 79.3951 17.46C79.1791 17.468 79.0231 17.376 78.9271 17.184C78.8871 17.104 78.8591 16.972 78.8431 16.788C78.8271 16.604 78.8111 16.228 78.7951 15.66C78.7871 15.604 78.7831 15.528 78.7831 15.432C78.7751 15.136 78.7431 14.964 78.6871 14.916C78.6391 14.868 78.4631 14.844 78.1591 14.844C78.0551 14.844 77.9751 14.844 77.9191 14.844C77.5431 14.836 77.3031 14.824 77.1991 14.808C77.0951 14.792 77.0111 14.748 76.9471 14.676C76.7471 14.444 76.7231 14.232 76.8751 14.04C76.9631 13.936 77.0631 13.872 77.1751 13.848C77.2951 13.824 77.5591 13.812 77.9671 13.812C77.9991 13.812 78.0431 13.812 78.0991 13.812C78.4271 13.812 78.6151 13.8 78.6631 13.776C78.7191 13.752 78.7471 13.668 78.7471 13.524C78.7471 13.5 78.7471 13.48 78.7471 13.464C78.7471 13.456 78.7471 13.448 78.7471 13.44C78.7471 13.312 78.7151 13.236 78.6511 13.212C78.5871 13.188 78.3711 13.172 78.0031 13.164C77.9551 13.156 77.9231 13.152 77.9071 13.152C77.4991 13.144 77.2511 13.132 77.1631 13.116C77.0751 13.092 76.9791 13.036 76.8751 12.948C76.7791 12.86 76.7391 12.752 76.7551 12.624C76.7711 12.496 76.8351 12.396 76.9471 12.324C76.9951 12.284 77.0831 12.26 77.2111 12.252C77.3391 12.236 77.7191 12.212 78.3511 12.18L78.7591 12.168L78.7951 12.012C78.8271 11.9 78.8431 11.796 78.8431 11.7C78.8431 11.612 78.8671 11.528 78.9151 11.448C78.9711 11.36 79.0311 11.308 79.0951 11.292ZM73.9591 11.592C74.1591 11.528 74.3231 11.6 74.4511 11.808C74.4911 11.88 74.5191 12.256 74.5351 12.936C74.5511 13.616 74.5711 14.104 74.5951 14.4C74.5951 14.432 74.5991 14.48 74.6071 14.544C74.6151 14.688 74.6191 14.788 74.6191 14.844C74.6271 14.9 74.6431 14.964 74.6671 15.036C74.6991 15.108 74.7231 15.152 74.7391 15.168C74.7631 15.176 74.8191 15.192 74.9071 15.216C75.0031 15.24 75.0871 15.252 75.1591 15.252C75.2311 15.244 75.3591 15.24 75.5431 15.24C75.6311 15.24 75.6951 15.24 75.7351 15.24C76.2551 15.24 76.5791 15.26 76.7071 15.3C76.8431 15.332 76.9431 15.424 77.0071 15.576C77.1191 15.8 77.0911 15.964 76.9231 16.068C76.7631 16.164 76.4271 16.224 75.9151 16.248C74.7231 16.312 74.0271 16.228 73.8271 15.996C73.6991 15.836 73.6191 15.64 73.5871 15.408C73.5551 15.168 73.5311 14.612 73.5151 13.74C73.4991 13.148 73.4991 12.716 73.5151 12.444C73.5391 12.164 73.5831 11.964 73.6471 11.844C73.7111 11.716 73.8151 11.632 73.9591 11.592Z" fill="#77632A"/>
<path d="M5.72902 4.69804L4.09717 4.72942L4.11809 3.08711L5.74297 3.08362L5.72902 4.69804Z" fill="#77632A"/>
<path d="M5.74653 24.2771L4.11816 24.2701L4.13909 22.6731L5.73956 22.6487L5.74653 24.2771Z" fill="#77632A"/>
<path d="M85.4561 4.69804L83.8242 4.72942L83.8451 3.08711L85.47 3.08362L85.4561 4.69804Z" fill="#77632A"/>
<path d="M85.4736 24.2771L83.8452 24.2701L83.8696 22.6731L85.4666 22.6487L85.4736 24.2771Z" fill="#77632A"/>
</svg>
