<svg width="90" height="48" viewBox="0 0 90 48" fill="none" xmlns="http://www.w3.org/2000/svg">
<path d="M49.3742 47.2798L44.5937 46.5196L40.3397 46.8753L40.0015 41.3277L40.256 35.7975L40.385 30.2708L40.0712 24.7407L41.0894 19.2105L40.7965 14.0081L44.5937 13.778L49.1545 13.4258L49.3323 19.207L48.1154 24.7372L49.0185 30.2639L48.6803 35.794L48.7744 41.3277L49.3742 47.2798Z" fill="#C4B380"/>
<path d="M88.9221 27.2603L85.2539 27.6822L81.5682 27.7659L77.8826 27.208L74.1935 27.4521L70.5114 27.4207L66.8223 27.0267L63.1367 27.6369L59.4511 27.0441L55.7654 27.6683L52.0798 26.9291L48.3907 27.1731L44.7051 26.7791L41.0195 27.4695L37.3304 26.9221L33.6413 27.6787L29.9557 27.4207L26.2666 27.1243L22.5809 27.609L18.8953 26.8593L15.2062 26.9744L11.5171 27.473L7.8315 27.2324L4.13891 27.7345L0.460266 27.2708L0.669478 23.4562L0.142962 19.6311L0.610201 15.806L0 11.9774L0.631123 8.1488L0.261515 4.32023L0.662504 0.697373L4.13542 0.174343L7.82453 0.822906L11.5101 0.603232L15.1958 0.606722L18.8814 0.184803L22.567 0.564871L26.2526 0.571851L29.9382 0.795005L33.6273 0.969348L37.313 0.52652L40.9986 0.394018L44.6877 0.885667L48.3733 0.404478L52.0624 0.704354L55.748 0.892637L59.4371 0.638102L63.1227 0.582311L66.8118 0.275465L70.4975 0.52652L74.1831 0L77.8722 0.129012L81.5613 0.400987L85.2504 0.0279009L88.7338 0.693893L89.0859 4.31674L88.7198 8.14183L89.0057 11.9704L88.9604 15.7955L88.9813 19.6241L89.3753 23.4527L88.9221 27.2603Z" fill="#E2D29F"/>
<path d="M27.1627 11.436C27.2987 11.34 27.4387 11.296 27.5827 11.304C27.7347 11.312 27.8547 11.368 27.9427 11.472C27.9747 11.504 27.9907 11.564 27.9907 11.652C27.9987 11.74 27.9907 11.796 27.9667 11.82C27.8867 11.9 27.8747 11.988 27.9307 12.084C27.9947 12.18 28.1467 12.328 28.3867 12.528C28.7067 12.784 29.0427 13.096 29.3947 13.464C29.5787 13.664 29.6907 13.852 29.7307 14.028C29.7707 14.204 29.7307 14.344 29.6107 14.448C29.4827 14.552 29.3387 14.58 29.1787 14.532C29.0187 14.484 28.8187 14.348 28.5787 14.124C28.3387 13.908 28.1387 13.736 27.9787 13.608C27.8187 13.464 27.7107 13.368 27.6547 13.32C27.4147 13.104 27.2507 12.996 27.1627 12.996C27.0827 12.996 26.8627 13.204 26.5027 13.62C26.3507 13.788 26.1627 13.992 25.9387 14.232C25.6827 14.52 25.4507 14.684 25.2427 14.724C25.0427 14.764 24.8987 14.676 24.8107 14.46C24.7787 14.38 24.7787 14.252 24.8107 14.076C24.8507 13.9 24.8947 13.812 24.9427 13.812C24.9587 13.812 24.9667 13.796 24.9667 13.764C24.9667 13.74 25.0027 13.692 25.0747 13.62C25.1387 13.548 25.2187 13.452 25.3147 13.332C25.4347 13.196 25.6907 12.92 26.0827 12.504C26.2747 12.304 26.4747 12.096 26.6827 11.88C26.8747 11.664 27.0347 11.516 27.1627 11.436ZM28.1227 16.332C28.4747 16.316 28.8787 16.312 29.3347 16.32C29.7907 16.32 30.0587 16.328 30.1387 16.344C30.4187 16.392 30.5987 16.496 30.6787 16.656C30.7667 16.816 30.7267 16.976 30.5587 17.136C30.4467 17.232 30.2747 17.292 30.0427 17.316C29.8107 17.34 29.1387 17.368 28.0267 17.4C26.1787 17.456 25.1467 17.432 24.9307 17.328C24.7547 17.248 24.6307 17.14 24.5587 17.004C24.4947 16.868 24.5027 16.744 24.5827 16.632C24.6227 16.56 24.6827 16.516 24.7627 16.5C24.8427 16.484 25.0307 16.472 25.3267 16.464C25.6867 16.448 26.2027 16.424 26.8747 16.392C27.5307 16.36 27.9467 16.34 28.1227 16.332ZM32.9033 10.104C33.0713 10.088 33.3353 10.084 33.6953 10.092C34.0553 10.1 34.2593 10.116 34.3073 10.14C34.4993 10.236 34.6113 10.36 34.6433 10.512C34.6753 10.656 34.6273 10.784 34.4993 10.896C34.3793 11 34.2033 11.052 33.9713 11.052C33.6833 11.052 33.3473 11.072 32.9633 11.112C32.5873 11.152 32.3873 11.188 32.3633 11.22C32.3473 11.252 32.3353 11.332 32.3273 11.46C32.3273 11.588 32.3393 11.656 32.3633 11.664C32.3873 11.688 32.6033 11.696 33.0113 11.688C33.5313 11.68 33.8833 11.712 34.0673 11.784C34.2593 11.848 34.3553 11.98 34.3553 12.18C34.3553 12.396 34.2713 12.54 34.1033 12.612C33.9433 12.684 33.6153 12.728 33.1193 12.744C33.0953 12.744 33.0633 12.744 33.0233 12.744C32.6633 12.752 32.4553 12.772 32.3993 12.804C32.3433 12.828 32.3393 12.924 32.3873 13.092C32.3953 13.116 32.3993 13.132 32.3993 13.14V13.152C32.4553 13.336 32.5273 13.444 32.6152 13.476C32.7033 13.508 32.9953 13.524 33.4913 13.524C33.4993 13.524 33.5073 13.524 33.5153 13.524C33.9313 13.524 34.1873 13.528 34.2833 13.536C34.3873 13.544 34.4753 13.564 34.5473 13.596C34.6833 13.652 34.7633 13.74 34.7873 13.86C34.8193 13.98 34.7873 14.092 34.6913 14.196C34.6113 14.292 34.5233 14.352 34.4273 14.376C34.3393 14.4 34.1313 14.424 33.8033 14.448C33.2113 14.504 32.7433 14.508 32.3993 14.46C32.0553 14.412 31.8113 14.316 31.6673 14.172C31.5313 14.028 31.4353 13.796 31.3793 13.476C31.3393 13.244 31.3233 12.796 31.3313 12.132C31.3393 11.46 31.3673 11.056 31.4153 10.92C31.5113 10.632 31.6473 10.44 31.8232 10.344C31.9993 10.248 32.3593 10.168 32.9033 10.104ZM38.3033 10.176C38.5273 10.136 38.6993 10.24 38.8193 10.488C38.8513 10.568 38.8673 11.224 38.8673 12.456C38.8753 13.688 38.8633 14.348 38.8313 14.436C38.7593 14.612 38.6513 14.716 38.5073 14.748C38.3713 14.78 38.2393 14.74 38.1113 14.628C37.9913 14.508 37.9153 14.344 37.8833 14.136C37.8353 13.8 37.8193 13.144 37.8353 12.168C37.8593 11.192 37.8993 10.632 37.9553 10.488C37.9793 10.432 38.0313 10.368 38.1113 10.296C38.1913 10.224 38.2553 10.184 38.3033 10.176ZM36.3953 10.416C36.5473 10.32 36.6873 10.304 36.8153 10.368C36.9433 10.432 37.0393 10.564 37.1033 10.764C37.1513 10.94 37.1793 11.512 37.1873 12.48C37.2033 13.448 37.1873 14.016 37.1393 14.184C37.0753 14.392 36.9633 14.512 36.8033 14.544C36.6513 14.568 36.5073 14.496 36.3713 14.328C36.2993 14.232 36.2513 14.148 36.2273 14.076C36.2113 14.004 36.1913 13.856 36.1673 13.632C36.1433 13.328 36.1273 13.14 36.1193 13.068L36.1073 12.9H35.7113C35.4633 12.9 35.2513 12.86 35.0753 12.78C34.8993 12.692 34.7953 12.588 34.7633 12.468C34.7313 12.348 34.7753 12.224 34.8953 12.096C34.9833 12.008 35.0793 11.948 35.1833 11.916C35.2873 11.884 35.4553 11.856 35.6873 11.832L36.0953 11.796L36.1073 11.292C36.1153 10.996 36.1393 10.792 36.1793 10.68C36.2193 10.568 36.2913 10.48 36.3953 10.416ZM33.5993 15.396C33.6873 15.324 33.8033 15.296 33.9473 15.312C34.0993 15.328 34.1873 15.38 34.2113 15.468C34.2273 15.508 34.2433 15.528 34.2593 15.528C34.2913 15.528 34.3233 15.676 34.3553 15.972C34.3713 16.132 34.3913 16.224 34.4153 16.248C34.4553 16.272 34.7633 16.276 35.3393 16.26C35.9233 16.244 36.3713 16.22 36.6833 16.188L36.8993 16.164L36.9473 15.876C37.0193 15.396 37.2393 15.224 37.6073 15.36C37.7753 15.424 37.8953 15.588 37.9673 15.852C38.0393 16.116 38.0753 16.532 38.0753 17.1C38.0753 17.58 38.0273 17.928 37.9313 18.144C37.8433 18.368 37.6873 18.524 37.4633 18.612C37.3033 18.668 36.7153 18.692 35.6993 18.684C34.6913 18.676 34.1273 18.644 34.0073 18.588C33.9513 18.556 33.9073 18.532 33.8753 18.516C33.6753 18.428 33.5393 18.248 33.4673 17.976C33.3953 17.704 33.3593 17.244 33.3593 16.596C33.3593 16.132 33.3713 15.84 33.3953 15.72C33.4193 15.592 33.4873 15.484 33.5993 15.396ZM36.9713 17.34C36.9713 17.284 36.9473 17.252 36.8993 17.244C36.8593 17.228 36.7193 17.22 36.4793 17.22C36.1513 17.212 35.9833 17.216 35.9753 17.232C35.9673 17.24 35.7633 17.256 35.3633 17.28C35.3073 17.28 35.2313 17.284 35.1353 17.292C34.7433 17.316 34.5113 17.336 34.4393 17.352C34.3753 17.36 34.3473 17.384 34.3553 17.424C34.3553 17.44 34.3553 17.452 34.3553 17.46C34.3713 17.572 34.4393 17.64 34.5592 17.664C34.6873 17.68 35.0553 17.688 35.6633 17.688C36.3113 17.696 36.6953 17.684 36.8153 17.652C36.9353 17.612 36.9873 17.508 36.9713 17.34ZM45.3165 11.28C45.4365 11.256 45.8565 11.248 46.5765 11.256C47.2965 11.256 47.6885 11.264 47.7525 11.28C47.8885 11.328 48.0205 11.416 48.1485 11.544C48.2845 11.664 48.3525 11.764 48.3525 11.844C48.3525 11.876 48.3605 11.9 48.3765 11.916C48.4325 11.98 48.4485 12.44 48.4245 13.296C48.4085 14.152 48.3645 14.748 48.2925 15.084C48.2605 15.276 48.1645 15.408 48.0045 15.48C47.8525 15.544 47.6965 15.524 47.5365 15.42C47.4485 15.356 47.3885 15.292 47.3565 15.228C47.3325 15.164 47.3165 15.024 47.3085 14.808C47.3005 14.552 47.2805 14.412 47.2485 14.388C47.2165 14.348 46.6885 14.352 45.6645 14.4C45.1605 14.416 44.8245 14.424 44.6565 14.424C44.4965 14.416 44.3765 14.392 44.2965 14.352C44.1205 14.264 44.0325 14.124 44.0325 13.932C44.0325 13.732 44.1205 13.592 44.2965 13.512C44.4485 13.448 44.9485 13.4 45.7965 13.368C46.4685 13.344 46.8805 13.328 47.0325 13.32L47.3805 13.296V12.84C47.3805 12.8 47.3805 12.744 47.3805 12.672C47.3885 12.472 47.3445 12.356 47.2485 12.324C47.1525 12.284 46.8045 12.268 46.2045 12.276C46.0045 12.276 45.8485 12.276 45.7365 12.276C45.7205 12.276 45.6965 12.276 45.6645 12.276C44.8805 12.276 44.4165 12.268 44.2725 12.252C44.1365 12.236 44.0325 12.18 43.9605 12.084C43.9605 12.076 43.9605 12.072 43.9605 12.072C43.8405 11.888 43.8845 11.716 44.0925 11.556C44.3005 11.396 44.5845 11.312 44.9445 11.304C45.0885 11.304 45.2125 11.296 45.3165 11.28ZM44.9325 16.536C44.9565 16.52 45.5725 16.516 46.7805 16.524C47.9885 16.532 48.6325 16.548 48.7125 16.572C48.9285 16.636 49.0685 16.748 49.1325 16.908C49.1965 17.06 49.1565 17.204 49.0125 17.34C49.0125 17.34 49.0125 17.344 49.0125 17.352C48.9005 17.448 48.7325 17.508 48.5085 17.532C48.2925 17.548 47.5845 17.56 46.3845 17.568C46.3365 17.568 46.3005 17.568 46.2765 17.568C45.1485 17.568 44.4845 17.564 44.2845 17.556C44.0845 17.548 43.9525 17.524 43.8885 17.484C43.7045 17.34 43.6125 17.18 43.6125 17.004C43.6125 16.828 43.7005 16.712 43.8765 16.656C43.9405 16.632 44.1325 16.608 44.4525 16.584C44.7645 16.568 44.9245 16.552 44.9325 16.536ZM51.0491 11.304C51.5691 11.28 51.9371 11.284 52.1531 11.316C52.3771 11.34 52.5371 11.404 52.6331 11.508C52.7611 11.644 52.8451 11.804 52.8851 11.988C52.9251 12.172 52.9331 12.436 52.9091 12.78C52.8931 12.932 52.8771 13.176 52.8611 13.512C52.8291 13.904 52.7211 14.172 52.5371 14.316C52.3611 14.46 52.0051 14.556 51.4691 14.604C51.1491 14.628 50.9531 14.68 50.8811 14.76C50.8171 14.832 50.8251 15 50.9051 15.264C50.9291 15.352 50.9531 15.42 50.9771 15.468C51.0011 15.508 51.0291 15.548 51.0611 15.588C51.1011 15.62 51.1691 15.644 51.2651 15.66C51.3611 15.668 51.4611 15.676 51.5651 15.684C51.6691 15.684 51.8371 15.684 52.0691 15.684C52.4211 15.676 52.6571 15.68 52.7771 15.696C52.8971 15.704 52.9811 15.728 53.0291 15.768C53.0851 15.8 53.1371 15.868 53.1851 15.972C53.2571 16.164 53.2251 16.304 53.0891 16.392C52.9611 16.48 52.7051 16.536 52.3211 16.56C51.6971 16.608 51.2211 16.624 50.8931 16.608C50.5651 16.592 50.3491 16.556 50.2451 16.5C50.1491 16.444 50.0611 16.332 49.9811 16.164C49.8771 15.956 49.8131 15.596 49.7891 15.084C49.7731 14.564 49.8051 14.228 49.8851 14.076C50.0371 13.836 50.3171 13.7 50.7251 13.668C51.2131 13.636 51.5171 13.604 51.6371 13.572C51.7571 13.54 51.8211 13.468 51.8291 13.356C51.8371 13.324 51.8451 13.28 51.8531 13.224C51.8691 13.032 51.8811 12.896 51.8891 12.816C51.9051 12.736 51.9091 12.648 51.9011 12.552C51.8931 12.456 51.8811 12.4 51.8651 12.384C51.8491 12.36 51.8091 12.332 51.7451 12.3C51.6811 12.268 51.6211 12.256 51.5651 12.264C51.5091 12.264 51.4091 12.264 51.2651 12.264C51.2251 12.264 51.1931 12.264 51.1691 12.264C50.7771 12.264 50.5171 12.28 50.3891 12.312C50.1011 12.368 49.9011 12.292 49.7891 12.084C49.6851 11.868 49.7491 11.672 49.9811 11.496C50.1011 11.4 50.4571 11.336 51.0491 11.304ZM56.9291 11.376C57.0251 11.336 57.1291 11.336 57.2411 11.376C57.3611 11.416 57.4451 11.48 57.4931 11.568C57.5411 11.648 57.5731 11.852 57.5891 12.18C57.6051 12.508 57.6171 13.288 57.6251 14.52C57.6331 15.72 57.6291 16.456 57.6131 16.728C57.6051 16.992 57.5731 17.18 57.5171 17.292C57.4371 17.444 57.2971 17.512 57.0971 17.496C56.9051 17.48 56.7651 17.392 56.6771 17.232C56.6371 17.16 56.6131 16.24 56.6051 14.472C56.5971 12.704 56.6131 11.772 56.6531 11.676C56.7091 11.524 56.8011 11.424 56.9291 11.376ZM54.9491 11.748C55.0771 11.652 55.2051 11.628 55.3331 11.676C55.4691 11.724 55.5571 11.832 55.5971 12C55.6531 12.24 55.7011 13.008 55.7411 14.304C55.7811 15.592 55.7771 16.32 55.7291 16.488C55.6971 16.608 55.6331 16.7 55.5371 16.764C55.4491 16.82 55.3571 16.832 55.2611 16.8C55.0611 16.736 54.9211 16.58 54.8411 16.332C54.7611 16.084 54.7051 15.644 54.6731 15.012C54.6651 14.74 54.6411 14.588 54.6011 14.556C54.5611 14.516 54.4051 14.496 54.1331 14.496C53.8371 14.496 53.6571 14.48 53.5931 14.448C53.4491 14.368 53.3371 14.252 53.2571 14.1C53.1771 13.948 53.1611 13.816 53.2091 13.704C53.2811 13.528 53.6251 13.42 54.2411 13.38C54.2571 13.38 54.2851 13.38 54.3251 13.38C54.4931 13.372 54.5891 13.348 54.6131 13.308C54.6451 13.26 54.6651 13.1 54.6731 12.828C54.6731 12.764 54.6731 12.716 54.6731 12.684C54.6811 12.332 54.6971 12.112 54.7211 12.024C54.7451 11.936 54.8211 11.844 54.9491 11.748ZM64.0568 10.428C64.2328 10.244 64.4208 10.236 64.6208 10.404C64.7008 10.468 64.7408 10.516 64.7408 10.548C64.7408 10.572 64.7488 10.604 64.7648 10.644C64.8288 10.772 64.8608 11.388 64.8608 12.492C64.8608 13.596 64.8248 14.268 64.7528 14.508C64.6888 14.748 64.5568 14.888 64.3568 14.928C64.1648 14.96 64.0208 14.876 63.9248 14.676C63.8688 14.548 63.8288 14.348 63.8048 14.076C63.7888 13.804 63.7808 13.332 63.7808 12.66C63.7808 11.836 63.7968 11.288 63.8288 11.016C63.8688 10.736 63.9448 10.54 64.0568 10.428ZM60.1688 10.74C61.0008 10.7 61.5688 10.728 61.8728 10.824C62.1848 10.92 62.3128 11.116 62.2568 11.412C62.2248 11.556 62.1368 11.648 61.9928 11.688C61.8488 11.72 61.5128 11.732 60.9848 11.724C60.9368 11.724 60.8728 11.724 60.7928 11.724C60.6328 11.716 60.5208 11.712 60.4568 11.712C60.3928 11.712 60.3128 11.716 60.2168 11.724C60.1288 11.732 60.0688 11.74 60.0368 11.748C60.0128 11.748 59.9768 11.768 59.9288 11.808C59.8888 11.84 59.8648 11.868 59.8568 11.892C59.8568 11.908 59.8528 11.952 59.8448 12.024C59.8368 12.096 59.8328 12.156 59.8328 12.204C59.8328 12.252 59.8368 12.336 59.8448 12.456C59.8528 12.52 59.8568 12.572 59.8568 12.612C59.8648 12.772 59.8728 12.896 59.8808 12.984C59.8888 13.064 59.9088 13.144 59.9408 13.224C59.9808 13.296 60.0208 13.348 60.0608 13.38C60.1088 13.404 60.1848 13.428 60.2888 13.452C60.3928 13.468 60.5008 13.472 60.6128 13.464C60.7248 13.456 60.8808 13.448 61.0808 13.44C61.5608 13.4 61.8768 13.396 62.0288 13.428C62.1808 13.452 62.3048 13.536 62.4008 13.68C62.4968 13.816 62.5048 13.948 62.4248 14.076C62.3448 14.204 62.1888 14.304 61.9568 14.376C61.8528 14.408 61.4328 14.424 60.6968 14.424C59.9688 14.424 59.5648 14.408 59.4848 14.376C59.2208 14.272 59.0488 14.164 58.9688 14.052C58.8968 13.932 58.8448 13.7 58.8128 13.356C58.7808 13.012 58.7648 12.604 58.7648 12.132C58.7648 11.652 58.7848 11.368 58.8248 11.28C58.9128 11.088 59.0448 10.956 59.2208 10.884C59.3968 10.812 59.7128 10.764 60.1688 10.74ZM62.3288 15.42C62.4648 15.348 62.5808 15.356 62.6768 15.444C62.7808 15.524 62.8488 15.664 62.8808 15.864C62.8968 16.024 62.9648 16.172 63.0848 16.308C63.2128 16.436 63.4488 16.612 63.7928 16.836C63.9688 16.956 64.1808 17.14 64.4288 17.388C64.6768 17.636 64.8328 17.82 64.8968 17.94C64.9928 18.124 64.9408 18.28 64.7408 18.408C64.5408 18.536 64.3408 18.54 64.1408 18.42C64.0608 18.364 64.0128 18.336 63.9968 18.336C63.9648 18.336 63.8048 18.228 63.5168 18.012C63.2288 17.804 63.0528 17.664 62.9888 17.592C62.9808 17.584 62.9368 17.548 62.8568 17.484C62.7768 17.42 62.7088 17.364 62.6528 17.316C62.5808 17.252 62.4728 17.184 62.3288 17.112C62.2008 17.04 62.1128 17.012 62.0648 17.028C62.0168 17.044 61.8848 17.156 61.6688 17.364C61.2448 17.764 60.9408 18.024 60.7568 18.144C60.5808 18.272 60.4288 18.316 60.3008 18.276C60.0928 18.22 59.9648 18.116 59.9168 17.964C59.8768 17.812 59.9208 17.652 60.0488 17.484C60.1368 17.364 60.3208 17.164 60.6008 16.884C60.8888 16.596 61.1128 16.384 61.2728 16.248C61.8568 15.768 62.1568 15.524 62.1728 15.516C62.1968 15.5 62.2488 15.468 62.3288 15.42Z" fill="#77632A"/>
<path d="M5.72902 4.69804L4.09717 4.72942L4.11809 3.08711L5.74297 3.08362L5.72902 4.69804Z" fill="#77632A"/>
<path d="M5.74653 24.2772L4.11816 24.2702L4.13909 22.6732L5.73956 22.6488L5.74653 24.2772Z" fill="#77632A"/>
<path d="M85.4561 4.69804L83.8242 4.72942L83.8451 3.08711L85.47 3.08362L85.4561 4.69804Z" fill="#77632A"/>
<path d="M85.4736 24.2772L83.8452 24.2702L83.8696 22.6732L85.4666 22.6488L85.4736 24.2772Z" fill="#77632A"/>
</svg>
