<svg width="90" height="48" viewBox="0 0 90 48" fill="none" xmlns="http://www.w3.org/2000/svg">
<path d="M49.3742 47.2798L44.5937 46.5197L40.3397 46.8753L40.0015 41.3277L40.256 35.7976L40.385 30.2709L40.0712 24.7407L41.0894 19.2106L40.7965 14.0082L44.5937 13.778L49.1545 13.4258L49.3323 19.2071L48.1154 24.7372L49.0185 30.2639L48.6803 35.7941L48.7744 41.3277L49.3742 47.2798Z" fill="#E2D29F"/>
<path d="M88.9221 27.2603L85.2539 27.6822L81.5682 27.7659L77.8826 27.208L74.1935 27.4521L70.5114 27.4207L66.8223 27.0267L63.1367 27.6369L59.4511 27.0441L55.7654 27.6683L52.0798 26.9291L48.3907 27.1731L44.7051 26.7791L41.0195 27.4695L37.3304 26.9221L33.6413 27.6787L29.9557 27.4207L26.2666 27.1243L22.5809 27.609L18.8953 26.8593L15.2062 26.9744L11.5171 27.473L7.8315 27.2324L4.13891 27.7345L0.460266 27.2708L0.669478 23.4562L0.142962 19.6311L0.610201 15.806L0 11.9774L0.631123 8.1488L0.261515 4.32023L0.662504 0.697373L4.13542 0.174343L7.82453 0.822906L11.5101 0.603232L15.1958 0.606722L18.8814 0.184803L22.567 0.564871L26.2526 0.571851L29.9382 0.795005L33.6273 0.969348L37.313 0.52652L40.9986 0.394018L44.6877 0.885667L48.3733 0.404478L52.0624 0.704354L55.748 0.892637L59.4371 0.638102L63.1227 0.582311L66.8118 0.275465L70.4975 0.52652L74.1831 0L77.8722 0.129012L81.5613 0.400987L85.2504 0.0279009L88.7338 0.693893L89.0859 4.31674L88.7198 8.14183L89.0057 11.9704L88.9604 15.7955L88.9813 19.6241L89.3753 23.4527L88.9221 27.2603Z" fill="#F3E7B8"/>
<path d="M20.9438 10.176C21.1358 10.08 21.2798 10.092 21.3758 10.212C21.4798 10.324 21.5398 10.548 21.5558 10.884C21.5558 10.916 21.5598 10.956 21.5678 11.004C21.5838 11.404 21.6078 11.64 21.6398 11.712C21.6798 11.776 21.7918 11.808 21.9758 11.808C21.9918 11.808 22.0078 11.808 22.0238 11.808C22.4078 11.808 22.7198 11.868 22.9598 11.988C23.2078 12.108 23.2998 12.248 23.2358 12.408C23.1718 12.576 23.0638 12.692 22.9118 12.756C22.7678 12.812 22.5278 12.84 22.1918 12.84C22.1518 12.84 22.1038 12.84 22.0478 12.84C21.8078 12.84 21.6638 12.86 21.6158 12.9C21.5758 12.94 21.5558 13.092 21.5558 13.356C21.5558 13.42 21.5558 13.468 21.5558 13.5C21.5558 13.86 21.5358 14.104 21.4958 14.232C21.4558 14.352 21.3758 14.444 21.2558 14.508C21.0958 14.588 20.9478 14.584 20.8118 14.496C20.6758 14.4 20.5878 14.244 20.5478 14.028C20.5078 13.804 20.4998 13.172 20.5238 12.132C20.5478 11.084 20.5838 10.524 20.6318 10.452C20.6878 10.348 20.7918 10.256 20.9438 10.176ZM16.4318 10.572C17.0158 10.516 17.5358 10.504 17.9918 10.536C18.4478 10.568 18.7478 10.64 18.8918 10.752C19.0838 10.896 19.1718 11.064 19.1558 11.256C19.1478 11.448 19.0358 11.76 18.8198 12.192C18.5558 12.72 18.2798 13.176 17.9918 13.56C17.7118 13.944 17.4878 14.172 17.3198 14.244C17.2558 14.268 17.1638 14.268 17.0438 14.244C16.9318 14.212 16.8358 14.168 16.7558 14.112C16.6438 14.032 16.6038 13.928 16.6358 13.8C16.6758 13.672 16.7998 13.472 17.0078 13.2C17.1118 13.064 17.2718 12.812 17.4878 12.444C17.5518 12.348 17.6078 12.264 17.6558 12.192C17.9438 11.776 18.0038 11.564 17.8358 11.556C17.8198 11.556 17.7638 11.556 17.6678 11.556C17.5798 11.548 17.4518 11.544 17.2838 11.544C17.1158 11.536 16.9678 11.532 16.8398 11.532C16.3438 11.516 16.0438 11.496 15.9398 11.472C15.8358 11.44 15.7518 11.36 15.6878 11.232C15.6078 11.056 15.6318 10.912 15.7598 10.8C15.8958 10.68 16.1198 10.604 16.4318 10.572ZM19.7558 15.192C19.7718 15.184 19.8878 15.184 20.1038 15.192C20.3198 15.192 20.5038 15.2 20.6558 15.216C20.9358 15.248 21.1438 15.3 21.2798 15.372C21.4158 15.444 21.5238 15.56 21.6038 15.72C21.7078 15.944 21.7478 16.36 21.7238 16.968C21.6998 17.576 21.6278 17.976 21.5078 18.168C21.4758 18.224 21.4038 18.292 21.2918 18.372C21.1798 18.452 21.1038 18.492 21.0638 18.492C21.0318 18.492 21.0118 18.5 21.0038 18.516C20.9798 18.556 20.4678 18.584 19.4678 18.6C18.4678 18.616 17.8838 18.608 17.7158 18.576C17.4598 18.52 17.2758 18.412 17.1638 18.252C17.0598 18.092 17.0078 17.848 17.0078 17.52C17.0078 17.344 16.9998 17.092 16.9838 16.764C16.9678 16.572 16.9558 16.42 16.9478 16.308C16.9478 16.196 16.9558 16.084 16.9718 15.972C16.9958 15.852 17.0198 15.764 17.0438 15.708C17.0678 15.652 17.1198 15.592 17.1998 15.528C17.2798 15.464 17.3598 15.424 17.4398 15.408C17.5198 15.384 17.6438 15.36 17.8118 15.336C17.9798 15.304 18.1438 15.284 18.3038 15.276C18.4638 15.268 18.6838 15.26 18.9638 15.252C19.4838 15.228 19.7478 15.208 19.7558 15.192ZM20.4998 16.26C20.4198 16.212 20.0798 16.196 19.4798 16.212C18.8798 16.228 18.4358 16.264 18.1478 16.32C18.0998 16.336 18.0678 16.368 18.0518 16.416C18.0438 16.456 18.0398 16.612 18.0398 16.884C18.0398 16.908 18.0398 16.944 18.0398 16.992C18.0398 17.344 18.0958 17.548 18.2078 17.604C18.3198 17.652 18.7158 17.66 19.3958 17.628C19.4838 17.628 19.5518 17.624 19.5998 17.616C20.0318 17.592 20.2958 17.56 20.3918 17.52C20.4878 17.472 20.5518 17.348 20.5838 17.148C20.6558 16.636 20.6278 16.34 20.4998 16.26ZM29.327 11.424C29.423 11.36 29.527 11.348 29.639 11.388C29.759 11.428 29.847 11.504 29.903 11.616C29.927 11.68 29.943 11.764 29.951 11.868C29.967 11.972 29.979 12.224 29.987 12.624C29.995 13.2 30.011 13.504 30.035 13.536C30.067 13.56 30.299 13.58 30.731 13.596C31.163 13.604 31.431 13.632 31.535 13.68C31.767 13.792 31.891 13.936 31.907 14.112C31.923 14.288 31.823 14.428 31.607 14.532C31.551 14.556 31.507 14.576 31.475 14.592C31.379 14.64 31.063 14.68 30.527 14.712L30.059 14.724V15.06C30.051 15.26 30.059 15.536 30.083 15.888C30.123 16.52 30.095 16.948 29.999 17.172C29.935 17.3 29.827 17.384 29.675 17.424C29.531 17.456 29.407 17.424 29.303 17.328C29.303 17.32 29.299 17.316 29.291 17.316C29.195 17.228 29.135 17.1 29.111 16.932C29.095 16.756 29.063 16.188 29.015 15.228C29.015 15.14 29.015 15.072 29.015 15.024C28.983 14.328 28.971 13.66 28.979 13.02C28.987 12.372 29.011 11.988 29.051 11.868C29.067 11.82 29.079 11.768 29.087 11.712C29.111 11.616 29.191 11.52 29.327 11.424ZM26.183 11.952C26.367 11.912 26.511 11.944 26.615 12.048C26.687 12.112 26.715 12.2 26.699 12.312C26.691 12.416 26.631 12.608 26.519 12.888C26.463 13.024 26.455 13.14 26.495 13.236C26.543 13.332 26.735 13.632 27.071 14.136C27.351 14.544 27.491 14.756 27.491 14.772C27.491 14.796 27.499 14.808 27.515 14.808C27.531 14.808 27.547 14.832 27.563 14.88C27.571 14.88 27.619 14.968 27.707 15.144C27.915 15.544 27.939 15.816 27.779 15.96C27.707 16.024 27.663 16.056 27.647 16.056C27.623 16.056 27.611 16.064 27.611 16.08C27.611 16.096 27.567 16.116 27.479 16.14C27.375 16.172 27.275 16.16 27.179 16.104C27.091 16.048 26.967 15.924 26.807 15.732C26.759 15.676 26.735 15.644 26.735 15.636C26.735 15.62 26.699 15.564 26.627 15.468C26.555 15.364 26.519 15.308 26.519 15.3C26.519 15.284 26.471 15.204 26.375 15.06C26.279 14.908 26.231 14.828 26.231 14.82C26.231 14.78 26.159 14.676 26.015 14.508C25.871 14.332 25.783 14.244 25.751 14.244C25.719 14.244 25.647 14.336 25.535 14.52C25.423 14.696 25.315 14.884 25.211 15.084C24.971 15.572 24.767 15.876 24.599 15.996C24.551 16.036 24.463 16.06 24.335 16.068C24.215 16.076 24.143 16.064 24.119 16.032C24.103 16.016 24.075 15.996 24.035 15.972C23.939 15.924 23.879 15.832 23.855 15.696C23.831 15.56 23.847 15.424 23.903 15.288C24.015 15.04 24.159 14.752 24.335 14.424C24.511 14.096 24.631 13.9 24.695 13.836C24.719 13.804 24.731 13.78 24.731 13.764C24.731 13.756 24.835 13.6 25.043 13.296C25.251 12.984 25.375 12.804 25.415 12.756C25.415 12.756 25.423 12.744 25.439 12.72C25.455 12.696 25.475 12.668 25.499 12.636C25.523 12.604 25.543 12.572 25.559 12.54C25.639 12.428 25.735 12.316 25.847 12.204C25.959 12.084 26.031 12.024 26.063 12.024C26.095 12.024 26.111 12.016 26.111 12C26.111 11.976 26.135 11.96 26.183 11.952ZM34.8911 10.68C35.1951 10.664 35.5311 10.66 35.8991 10.668C36.2751 10.676 36.4951 10.692 36.5591 10.716C36.7591 10.804 36.8991 10.94 36.9791 11.124C37.0591 11.3 37.0991 11.552 37.0991 11.88C37.0991 12.584 36.9911 13.052 36.7751 13.284C36.6631 13.396 36.5191 13.472 36.3431 13.512C36.1751 13.544 35.8351 13.56 35.3231 13.56C34.9871 13.56 34.7351 13.564 34.5671 13.572C34.3991 13.572 34.2591 13.588 34.1471 13.62C34.0431 13.644 33.9751 13.676 33.9431 13.716C33.9191 13.756 33.9071 13.816 33.9071 13.896C33.9071 14.192 33.9711 14.384 34.0991 14.472C34.2271 14.56 34.4951 14.596 34.9031 14.58C36.0151 14.532 36.6751 14.528 36.8831 14.568C37.0911 14.608 37.1951 14.752 37.1951 15C37.2031 15.16 37.1431 15.28 37.0151 15.36C36.8951 15.44 36.6871 15.488 36.3911 15.504C35.7751 15.536 35.4671 15.572 35.4671 15.612C35.4671 15.628 35.4791 15.648 35.5031 15.672C35.5191 15.688 35.5431 15.816 35.5751 16.056C35.6071 16.296 35.6231 16.472 35.6231 16.584C35.6231 16.672 35.6351 16.76 35.6591 16.848C35.6831 16.936 35.7071 16.988 35.7311 17.004C35.7551 17.02 36.0951 17.028 36.7511 17.028C37.4071 17.028 37.7791 17.048 37.8671 17.088C38.0111 17.152 38.0951 17.26 38.1191 17.412C38.1511 17.564 38.1111 17.692 37.9991 17.796C37.8871 17.884 37.7671 17.936 37.6391 17.952C37.5111 17.968 37.0791 17.984 36.3431 18C36.1271 18 35.8671 18.004 35.5631 18.012C35.2591 18.02 34.9471 18.024 34.6271 18.024C34.3071 18.032 34.0871 18.036 33.9671 18.036C33.4631 18.052 33.1631 18.056 33.0671 18.048C32.9711 18.04 32.8831 18.016 32.8031 17.976C32.6111 17.856 32.5111 17.708 32.5031 17.532C32.4951 17.348 32.5871 17.232 32.7791 17.184C32.8511 17.168 33.0951 17.148 33.5111 17.124C34.1671 17.084 34.5191 17.04 34.5671 16.992C34.5911 16.976 34.6111 16.816 34.6271 16.512C34.6591 16.056 34.7271 15.78 34.8311 15.684C34.8951 15.62 34.8951 15.58 34.8311 15.564C34.7671 15.556 34.5831 15.552 34.2791 15.552C33.9671 15.552 33.7311 15.536 33.5711 15.504C33.4111 15.464 33.2791 15.38 33.1751 15.252C33.0711 15.116 33.0031 14.944 32.9711 14.736C32.9471 14.52 32.9351 14.212 32.9351 13.812C32.9351 13.468 32.9471 13.244 32.9711 13.14C32.9951 13.036 33.0591 12.94 33.1631 12.852C33.4191 12.636 34.0471 12.528 35.0471 12.528C35.2151 12.528 35.3471 12.528 35.4431 12.528C35.5471 12.52 35.6471 12.516 35.7431 12.516C35.8391 12.508 35.9071 12.496 35.9471 12.48C35.9871 12.456 36.0271 12.436 36.0671 12.42C36.1071 12.396 36.1271 12.364 36.1271 12.324C36.1351 12.284 36.1391 12.244 36.1391 12.204C36.1391 12.156 36.1351 12.096 36.1271 12.024C36.1271 12.008 36.1231 11.984 36.1151 11.952C36.0991 11.832 36.0431 11.764 35.9471 11.748C35.8511 11.724 35.5151 11.712 34.9391 11.712C34.8111 11.712 34.7111 11.712 34.6391 11.712C33.9671 11.712 33.5671 11.708 33.4391 11.7C33.3191 11.692 33.2271 11.664 33.1631 11.616C32.9551 11.464 32.8951 11.296 32.9831 11.112C33.0791 10.928 33.2751 10.824 33.5711 10.8C33.6911 10.792 33.8951 10.772 34.1831 10.74C34.3351 10.724 34.5711 10.704 34.8911 10.68ZM47.5194 9.876C47.5834 9.828 47.6794 9.804 47.8074 9.804C47.9754 9.804 48.0914 9.876 48.1554 10.02C48.2274 10.156 48.2634 10.412 48.2634 10.788C48.2634 11.012 48.2794 11.144 48.3114 11.184C48.3514 11.216 48.5034 11.248 48.7674 11.28C49.1674 11.328 49.4434 11.4 49.5954 11.496C49.7474 11.584 49.8234 11.724 49.8234 11.916C49.8234 12.06 49.7474 12.168 49.5954 12.24C49.4514 12.304 49.2194 12.336 48.8994 12.336C48.8594 12.336 48.8074 12.336 48.7434 12.336C48.5034 12.336 48.3594 12.352 48.3114 12.384C48.2714 12.416 48.2554 12.532 48.2634 12.732C48.2634 12.78 48.2634 12.82 48.2634 12.852C48.2554 13.204 48.2314 13.452 48.1914 13.596C48.1594 13.74 48.0874 13.836 47.9754 13.884C47.7114 13.996 47.4994 13.956 47.3394 13.764L47.2314 13.632V12C47.2314 11.048 47.2434 10.48 47.2674 10.296C47.2914 10.104 47.3754 9.964 47.5194 9.876ZM44.4234 10.14C44.5114 10.1 44.6074 10.096 44.7114 10.128C44.8154 10.152 44.8994 10.204 44.9634 10.284C45.0194 10.356 45.0434 10.42 45.0354 10.476C45.0274 10.524 44.9754 10.652 44.8794 10.86C44.8234 10.988 44.7954 11.068 44.7954 11.1C44.8034 11.132 44.8594 11.208 44.9634 11.328C45.2994 11.728 45.4834 11.94 45.5154 11.964C45.5394 11.988 45.6794 12.168 45.9354 12.504C46.0794 12.696 46.1354 12.896 46.1034 13.104C46.0794 13.304 45.9754 13.432 45.7914 13.488C45.6554 13.536 45.5234 13.52 45.3954 13.44C45.2754 13.36 45.1274 13.2 44.9514 12.96C44.7994 12.752 44.6274 12.552 44.4354 12.36C44.2514 12.16 44.1434 12.06 44.1114 12.06C44.0714 12.06 44.0314 12.088 43.9914 12.144C43.9434 12.208 43.8954 12.268 43.8474 12.324C43.7994 12.38 43.7354 12.464 43.6554 12.576C43.5754 12.688 43.5354 12.752 43.5354 12.768C43.5354 12.776 43.4874 12.86 43.3914 13.02C43.2954 13.18 43.2394 13.268 43.2234 13.284C43.0074 13.492 42.7634 13.472 42.4914 13.224C42.3874 13.128 42.3314 13.04 42.3234 12.96C42.3154 12.88 42.3514 12.756 42.4314 12.588C42.4474 12.548 42.4794 12.484 42.5274 12.396C42.5834 12.308 42.6194 12.256 42.6354 12.24C42.6354 12.24 42.6754 12.184 42.7554 12.072C42.8114 11.992 42.9314 11.828 43.1154 11.58C43.2994 11.324 43.3994 11.192 43.4154 11.184C43.4234 11.176 43.4754 11.108 43.5714 10.98C43.6594 10.852 43.8034 10.688 44.0034 10.488C44.2114 10.288 44.3514 10.172 44.4234 10.14ZM44.9154 14.532C44.9474 14.508 45.4074 14.508 46.2954 14.532C47.1834 14.548 47.6594 14.572 47.7234 14.604C47.9554 14.708 48.1114 14.9 48.1914 15.18C48.2794 15.46 48.2874 15.804 48.2154 16.212C48.1834 16.388 48.1434 16.524 48.0954 16.62C48.0474 16.716 47.9834 16.804 47.9034 16.884C47.8234 16.956 47.6834 17.012 47.4834 17.052C47.2914 17.084 47.0754 17.112 46.8354 17.136C46.5954 17.152 46.2474 17.168 45.7914 17.184C45.1514 17.2 44.8154 17.232 44.7834 17.28C44.7674 17.296 44.7714 17.336 44.7954 17.4C44.7954 17.408 44.7954 17.412 44.7954 17.412C44.8674 17.62 44.9714 17.74 45.1074 17.772C45.2434 17.804 45.6874 17.82 46.4394 17.82C46.4554 17.82 46.4674 17.82 46.4754 17.82C47.2034 17.82 47.6354 17.828 47.7714 17.844C47.9154 17.86 48.0234 17.904 48.0954 17.976C48.2234 18.104 48.2674 18.26 48.2274 18.444C48.1954 18.628 48.0954 18.76 47.9274 18.84C47.7994 18.896 47.2674 18.916 46.3314 18.9C45.3954 18.884 44.8234 18.84 44.6154 18.768C44.3274 18.664 44.1314 18.524 44.0274 18.348C43.9314 18.18 43.8834 17.884 43.8834 17.46C43.8754 17.036 43.9274 16.752 44.0394 16.608C44.1514 16.464 44.4074 16.336 44.8074 16.224C44.9834 16.168 45.4394 16.12 46.1754 16.08C46.7674 16.056 47.0834 16.024 47.1234 15.984C47.1554 15.96 47.1674 15.888 47.1594 15.768C47.1594 15.64 47.1474 15.564 47.1234 15.54C47.0914 15.516 46.7434 15.504 46.0794 15.504C45.4234 15.504 44.8834 15.516 44.4594 15.54C44.1794 15.556 43.9714 15.504 43.8354 15.384C43.6994 15.264 43.6794 15.108 43.7754 14.916C43.8394 14.804 43.9194 14.728 44.0154 14.688C44.1194 14.64 44.2914 14.604 44.5314 14.58C44.7794 14.556 44.9074 14.54 44.9154 14.532ZM56.3371 11.304C56.4491 11.248 56.5651 11.24 56.6851 11.28C56.7891 11.32 56.8611 11.44 56.9011 11.64C56.9411 11.84 56.9731 12.232 56.9971 12.816C57.0051 13.216 57.0211 13.424 57.0451 13.44C57.0691 13.456 57.2651 13.464 57.6331 13.464C58.0011 13.464 58.2211 13.476 58.2931 13.5C58.6211 13.604 58.7971 13.768 58.8211 13.992C58.8531 14.208 58.7171 14.364 58.4131 14.46C58.1891 14.524 57.8931 14.556 57.5251 14.556C57.3651 14.556 57.2371 14.568 57.1411 14.592L57.0091 14.628V15.864C57.0091 16.544 57.0011 16.944 56.9851 17.064C56.9771 17.176 56.9251 17.28 56.8291 17.376C56.7251 17.48 56.5931 17.524 56.4331 17.508C56.2731 17.492 56.1611 17.42 56.0971 17.292C56.0491 17.212 56.0051 16.54 55.9651 15.276C55.9251 14.012 55.9171 13.164 55.9411 12.732C55.9651 12.364 55.9771 12.112 55.9771 11.976C55.9771 11.8 55.9851 11.708 56.0011 11.7C56.0251 11.684 56.0371 11.66 56.0371 11.628C56.0371 11.588 56.0691 11.532 56.1331 11.46C56.1971 11.388 56.2651 11.336 56.3371 11.304ZM52.3171 11.496C52.3651 11.48 52.5171 11.476 52.7731 11.484C53.2531 11.492 53.6331 11.592 53.9131 11.784C54.2011 11.976 54.4291 12.28 54.5971 12.696C54.6851 12.904 54.7451 13.22 54.7771 13.644C54.8171 14.068 54.8131 14.368 54.7651 14.544C54.7491 14.592 54.7211 14.7 54.6811 14.868C54.5051 15.54 54.0451 15.972 53.3011 16.164C53.1491 16.204 52.9411 16.216 52.6771 16.2C52.4131 16.184 52.2291 16.144 52.1251 16.08C52.0851 16.064 52.0491 16.056 52.0171 16.056C51.9931 16.056 51.9611 16.048 51.9211 16.032C51.6171 15.888 51.4131 15.78 51.3091 15.708C51.2051 15.628 51.0971 15.508 50.9851 15.348C50.7211 14.972 50.5491 14.56 50.4691 14.112C50.3891 13.656 50.4131 13.224 50.5411 12.816C50.6451 12.504 50.8611 12.212 51.1891 11.94C51.5171 11.668 51.8211 11.528 52.1011 11.52C52.1811 11.52 52.2531 11.512 52.3171 11.496ZM52.9771 12.588C52.8891 12.548 52.7411 12.532 52.5331 12.54C52.3251 12.548 52.1731 12.576 52.0771 12.624C51.8051 12.76 51.6411 12.984 51.5851 13.296C51.5371 13.608 51.6051 13.964 51.7891 14.364C51.9891 14.812 52.2851 15.076 52.6771 15.156C53.0691 15.236 53.3811 15.1 53.6131 14.748C53.8211 14.42 53.8731 14.032 53.7691 13.584C53.6731 13.128 53.4651 12.824 53.1451 12.672C53.0971 12.648 53.0411 12.62 52.9771 12.588ZM64.9648 11.424C65.0448 11.344 65.1048 11.3 65.1448 11.292C65.1928 11.284 65.2608 11.284 65.3488 11.292C65.4448 11.3 65.5088 11.316 65.5408 11.34C65.6208 11.38 65.6688 11.464 65.6848 11.592C65.7008 11.712 65.7128 12.032 65.7208 12.552C65.7368 13.2 65.7568 13.524 65.7808 13.524C65.7888 13.532 65.8408 13.532 65.9368 13.524C66.3288 13.508 66.6808 13.54 66.9928 13.62C67.3128 13.7 67.5048 13.812 67.5688 13.956C67.6728 14.164 67.6248 14.328 67.4248 14.448C67.2248 14.56 66.8768 14.628 66.3808 14.652C65.9968 14.668 65.7928 14.68 65.7688 14.688C65.7448 14.704 65.7408 15.072 65.7568 15.792C65.7648 16.376 65.7608 16.744 65.7448 16.896C65.7288 17.048 65.6848 17.172 65.6128 17.268C65.5008 17.42 65.3688 17.492 65.2168 17.484C65.0728 17.468 64.9408 17.38 64.8208 17.22C64.7728 17.156 64.7408 16.948 64.7248 16.596C64.7088 16.244 64.6928 15.396 64.6768 14.052C64.6608 13.34 64.6608 12.8 64.6768 12.432C64.6928 12.064 64.7168 11.828 64.7488 11.724C64.7888 11.62 64.8608 11.52 64.9648 11.424ZM61.0768 11.712C61.2128 11.696 61.4568 11.688 61.8088 11.688C62.1608 11.688 62.3928 11.696 62.5048 11.712C62.8888 11.784 63.1088 11.968 63.1648 12.264C63.2288 12.552 63.1368 12.988 62.8888 13.572C62.8888 13.58 62.8808 13.6 62.8648 13.632C62.8568 13.656 62.8448 13.692 62.8288 13.74C62.8128 13.78 62.7968 13.816 62.7808 13.848C62.5488 14.448 62.3088 14.944 62.0608 15.336C62.0048 15.416 61.9768 15.464 61.9768 15.48C61.9768 15.536 61.8648 15.704 61.6408 15.984C61.4168 16.256 61.2488 16.432 61.1368 16.512C60.9608 16.64 60.7768 16.676 60.5848 16.62C60.4008 16.556 60.3088 16.428 60.3088 16.236C60.3088 16.156 60.3528 16.036 60.4408 15.876C60.5368 15.716 60.6248 15.6 60.7048 15.528C60.7048 15.52 60.7408 15.472 60.8128 15.384C60.8688 15.304 60.9048 15.256 60.9208 15.24C60.9768 15.2 61.0928 15.024 61.2688 14.712C61.4448 14.4 61.5688 14.156 61.6408 13.98C61.8088 13.564 61.8928 13.332 61.8928 13.284C61.8928 13.26 61.9008 13.228 61.9168 13.188C61.9968 13.036 62.0288 12.908 62.0128 12.804C62.0048 12.756 61.9368 12.724 61.8088 12.708C61.6888 12.692 61.3368 12.672 60.7528 12.648C60.1928 12.632 59.8488 12.612 59.7208 12.588C59.5928 12.556 59.5048 12.48 59.4568 12.36C59.4168 12.256 59.4248 12.148 59.4808 12.036C59.5368 11.916 59.6128 11.844 59.7088 11.82C60.0048 11.772 60.2928 11.744 60.5728 11.736C60.8208 11.736 60.9888 11.728 61.0768 11.712ZM70.4416 10.872C70.7456 10.8 71.0656 10.784 71.4016 10.824C71.7376 10.856 72.0336 10.936 72.2896 11.064C72.6496 11.24 72.9136 11.548 73.0816 11.988C73.2576 12.428 73.3016 12.896 73.2136 13.392C73.1336 13.88 72.9336 14.28 72.6136 14.592C72.5096 14.688 72.3496 14.792 72.1336 14.904C71.9256 15.016 71.5736 15.084 71.0776 15.108C70.5896 15.132 70.2656 15.104 70.1056 15.024C70.0736 15 70.0456 14.988 70.0216 14.988C69.9976 14.988 69.8856 14.94 69.6856 14.844C69.1736 14.596 68.8256 14.168 68.6416 13.56C68.5936 13.408 68.5776 13.172 68.5936 12.852C68.6176 12.532 68.6576 12.316 68.7136 12.204C68.7296 12.164 68.7376 12.136 68.7376 12.12C68.7376 12.016 68.8536 11.848 69.0856 11.616C69.3256 11.376 69.5456 11.208 69.7456 11.112C69.9856 11 70.2176 10.92 70.4416 10.872ZM71.2576 11.832C71.1536 11.808 71.0176 11.796 70.8496 11.796C70.6816 11.788 70.5816 11.792 70.5496 11.808C70.4616 11.848 70.3856 11.884 70.3216 11.916C70.1296 12.004 69.9576 12.12 69.8056 12.264C69.6296 12.432 69.5896 12.732 69.6856 13.164C69.7816 13.596 69.9496 13.868 70.1896 13.98C70.3496 14.052 70.5736 14.096 70.8616 14.112C71.1496 14.128 71.3736 14.108 71.5336 14.052C71.6696 14.004 71.8096 13.908 71.9536 13.764C72.1056 13.612 72.1816 13.492 72.1816 13.404C72.1816 13.364 72.1936 13.336 72.2176 13.32C72.2416 13.296 72.2496 13.192 72.2416 13.008C72.2416 12.816 72.2256 12.68 72.1936 12.6C72.1136 12.376 72.0016 12.204 71.8576 12.084C71.7216 11.964 71.5216 11.88 71.2576 11.832ZM72.2656 15.24C72.4896 15.216 72.6336 15.256 72.6976 15.36C72.7696 15.456 72.8056 15.688 72.8056 16.056C72.8056 16.08 72.8056 16.108 72.8056 16.14C72.8056 16.484 72.8256 16.684 72.8656 16.74C72.9056 16.796 73.0456 16.828 73.2856 16.836C73.3096 16.836 73.3296 16.836 73.3456 16.836C73.7616 16.844 74.0336 16.88 74.1616 16.944C74.2976 17 74.3656 17.116 74.3656 17.292C74.3656 17.492 74.2656 17.64 74.0656 17.736C73.9936 17.76 73.9336 17.784 73.8856 17.808C73.8536 17.824 73.4936 17.832 72.8056 17.832C72.0936 17.832 71.3176 17.852 70.4776 17.892C69.9336 17.924 69.5176 17.936 69.2296 17.928C68.9416 17.912 68.7576 17.888 68.6776 17.856C68.5976 17.816 68.4936 17.736 68.3656 17.616C68.2296 17.472 68.1976 17.348 68.2696 17.244C68.3496 17.14 68.5336 17.068 68.8216 17.028C69.1496 16.98 69.3296 16.944 69.3616 16.92C69.3856 16.904 69.3976 16.7 69.3976 16.308C69.3976 15.964 69.4056 15.76 69.4216 15.696C69.4456 15.624 69.5216 15.548 69.6496 15.468C69.8656 15.324 70.0296 15.308 70.1416 15.42C70.2616 15.524 70.3416 15.772 70.3816 16.164C70.4216 16.524 70.4656 16.736 70.5136 16.8C70.5696 16.856 70.7296 16.876 70.9936 16.86C71.0336 16.852 71.0896 16.848 71.1616 16.848C71.4736 16.832 71.6576 16.804 71.7136 16.764C71.7696 16.716 71.8016 16.56 71.8096 16.296C71.8096 16.24 71.8096 16.196 71.8096 16.164C71.8336 15.7 71.8736 15.468 71.9296 15.468C71.9536 15.468 71.9656 15.452 71.9656 15.42C71.9656 15.38 71.9976 15.344 72.0616 15.312C72.1256 15.272 72.1936 15.248 72.2656 15.24Z" fill="#77632A"/>
<path d="M5.72902 4.69804L4.09717 4.72942L4.11809 3.08711L5.74297 3.08362L5.72902 4.69804Z" fill="#77632A"/>
<path d="M5.74653 24.2771L4.11816 24.2701L4.13909 22.6731L5.73956 22.6487L5.74653 24.2771Z" fill="#77632A"/>
<path d="M85.4561 4.69804L83.8242 4.72942L83.8451 3.08711L85.47 3.08362L85.4561 4.69804Z" fill="#77632A"/>
<path d="M85.4736 24.2771L83.8452 24.2701L83.8696 22.6731L85.4666 22.6487L85.4736 24.2771Z" fill="#77632A"/>
</svg>
