<svg width="90" height="48" viewBox="0 0 90 48" fill="none" xmlns="http://www.w3.org/2000/svg">
<path d="M49.3742 47.2798L44.5937 46.5197L40.3397 46.8753L40.0015 41.3277L40.256 35.7976L40.385 30.2709L40.0712 24.7407L41.0894 19.2106L40.7965 14.0082L44.5937 13.778L49.1545 13.4258L49.3323 19.2071L48.1154 24.7372L49.0185 30.2639L48.6803 35.7941L48.7744 41.3277L49.3742 47.2798Z" fill="#E2D29F"/>
<path d="M88.9221 27.2603L85.2539 27.6822L81.5682 27.7659L77.8826 27.208L74.1935 27.4521L70.5114 27.4207L66.8223 27.0267L63.1367 27.6369L59.4511 27.0441L55.7654 27.6683L52.0798 26.9291L48.3907 27.1731L44.7051 26.7791L41.0195 27.4695L37.3304 26.9221L33.6413 27.6787L29.9557 27.4207L26.2666 27.1243L22.5809 27.609L18.8953 26.8593L15.2062 26.9744L11.5171 27.473L7.8315 27.2324L4.13891 27.7345L0.460266 27.2708L0.669478 23.4562L0.142962 19.6311L0.610201 15.806L0 11.9774L0.631123 8.1488L0.261515 4.32023L0.662504 0.697373L4.13542 0.174343L7.82453 0.822906L11.5101 0.603232L15.1958 0.606722L18.8814 0.184803L22.567 0.564871L26.2526 0.571851L29.9382 0.795005L33.6273 0.969348L37.313 0.52652L40.9986 0.394018L44.6877 0.885667L48.3733 0.404478L52.0624 0.704354L55.748 0.892637L59.4371 0.638102L63.1227 0.582311L66.8118 0.275465L70.4975 0.52652L74.1831 0L77.8722 0.129012L81.5613 0.400987L85.2504 0.0279009L88.7338 0.693893L89.0859 4.31674L88.7198 8.14183L89.0057 11.9704L88.9604 15.7955L88.9813 19.6241L89.3753 23.4527L88.9221 27.2603Z" fill="#F3E7B8"/>
<path d="M14.9419 11.352C15.0539 11.304 15.1579 11.304 15.2539 11.352C15.3579 11.392 15.4299 11.468 15.4699 11.58C15.4939 11.652 15.5099 11.952 15.5179 12.48C15.5179 12.512 15.5179 12.56 15.5179 12.624C15.5259 13.032 15.5459 13.272 15.5779 13.344C15.6099 13.416 15.7219 13.46 15.9139 13.476C15.9459 13.476 15.9699 13.476 15.9859 13.476C16.5219 13.508 16.8659 13.548 17.0179 13.596C17.1779 13.636 17.2899 13.72 17.3539 13.848C17.4579 14.064 17.4019 14.256 17.1859 14.424C16.9699 14.592 16.7059 14.648 16.3939 14.592C16.1619 14.552 15.9539 14.552 15.7699 14.592C15.7619 14.592 15.7499 14.596 15.7339 14.604C15.6219 14.628 15.5579 14.672 15.5419 14.736C15.5259 14.792 15.5259 15 15.5419 15.36C15.5499 15.4 15.5539 15.432 15.5539 15.456C15.5859 16.104 15.5819 16.56 15.5419 16.824C15.5019 17.088 15.4099 17.26 15.2659 17.34C15.1379 17.404 15.0139 17.412 14.8939 17.364C14.7739 17.316 14.6859 17.216 14.6299 17.064C14.5579 16.856 14.5179 15.936 14.5099 14.304C14.5099 12.664 14.5459 11.808 14.6179 11.736C14.6419 11.712 14.6539 11.684 14.6539 11.652C14.6539 11.612 14.6859 11.56 14.7499 11.496C14.8139 11.432 14.8779 11.384 14.9419 11.352ZM10.1419 11.676C10.2619 11.652 10.3779 11.676 10.4899 11.748C10.6099 11.82 10.6819 11.916 10.7059 12.036C10.7299 12.132 10.7499 12.392 10.7659 12.816C10.7819 13.296 10.7979 13.6 10.8139 13.728C10.8379 14.064 10.8579 14.288 10.8739 14.4C10.8739 14.424 10.8739 14.452 10.8739 14.484C10.8979 14.764 10.9539 14.928 11.0419 14.976C11.1379 15.016 11.4499 15.032 11.9779 15.024C12.0499 15.016 12.1059 15.012 12.1459 15.012C12.6499 15.004 12.9619 15.008 13.0819 15.024C13.2099 15.032 13.3099 15.072 13.3819 15.144C13.4939 15.264 13.5339 15.396 13.5019 15.54C13.4779 15.684 13.3859 15.788 13.2259 15.852C13.0339 15.932 12.5379 15.984 11.7379 16.008C10.9459 16.024 10.4779 16 10.3339 15.936C10.1659 15.848 10.0419 15.724 9.96188 15.564C9.88188 15.396 9.82588 15.14 9.79388 14.796C9.76188 14.452 9.73788 13.908 9.72188 13.164C9.71388 12.572 9.73388 12.184 9.78188 12C9.83788 11.816 9.95788 11.708 10.1419 11.676ZM18.859 10.14C18.979 10.076 19.103 10.064 19.231 10.104C19.367 10.144 19.467 10.22 19.531 10.332C19.587 10.428 19.627 10.84 19.651 11.568C19.659 11.968 19.703 12.204 19.783 12.276C19.871 12.348 20.115 12.368 20.515 12.336C20.883 12.304 21.291 12.292 21.739 12.3C22.187 12.3 22.439 12.316 22.495 12.348C22.671 12.444 22.751 12.584 22.735 12.768C22.719 12.944 22.611 13.084 22.411 13.188C22.211 13.292 21.659 13.356 20.755 13.38C19.859 13.396 19.311 13.356 19.111 13.26C18.951 13.18 18.835 13.092 18.763 12.996C18.699 12.9 18.655 12.76 18.631 12.576C18.607 12.392 18.591 12.08 18.583 11.64C18.567 11.088 18.575 10.716 18.607 10.524C18.647 10.332 18.731 10.204 18.859 10.14ZM19.555 14.268C19.579 14.244 20.183 14.236 21.367 14.244C22.551 14.252 23.163 14.264 23.203 14.28C23.403 14.392 23.511 14.528 23.527 14.688C23.543 14.848 23.471 14.988 23.311 15.108C23.159 15.22 22.951 15.276 22.687 15.276C22.527 15.276 22.367 15.288 22.207 15.312C22.055 15.328 21.383 15.336 20.191 15.336L18.415 15.348L18.259 15.24C18.019 15.064 17.955 14.852 18.067 14.604C18.123 14.492 18.203 14.42 18.307 14.388C18.411 14.348 18.635 14.32 18.979 14.304C19.355 14.288 19.547 14.276 19.555 14.268ZM18.943 16.14C19.119 15.988 19.279 15.964 19.423 16.068C19.567 16.172 19.651 16.368 19.675 16.656C19.707 17.072 19.739 17.332 19.771 17.436C19.787 17.508 19.843 17.552 19.939 17.568C20.035 17.584 20.307 17.588 20.755 17.58C20.907 17.572 21.179 17.564 21.571 17.556C21.971 17.548 22.247 17.54 22.399 17.532L23.227 17.52L23.359 17.664C23.687 18 23.611 18.26 23.131 18.444C22.867 18.548 22.507 18.612 22.051 18.636C21.723 18.652 21.463 18.668 21.271 18.684C20.823 18.716 20.399 18.72 19.999 18.696C19.599 18.672 19.323 18.624 19.171 18.552C18.963 18.456 18.827 18.324 18.763 18.156C18.707 17.996 18.679 17.688 18.679 17.232C18.679 16.832 18.691 16.576 18.715 16.464C18.747 16.352 18.823 16.244 18.943 16.14ZM33.5893 11.292C33.7493 11.196 33.8973 11.192 34.0333 11.28C34.1693 11.368 34.2573 11.524 34.2973 11.748C34.3293 11.916 34.3453 12.852 34.3453 14.556C34.3533 16.252 34.3453 17.152 34.3213 17.256C34.2733 17.4 34.1813 17.5 34.0453 17.556C33.9093 17.604 33.7733 17.6 33.6373 17.544C33.5013 17.48 33.4133 17.376 33.3733 17.232C33.2933 16.96 33.2533 15.96 33.2533 14.232C33.2533 12.504 33.2933 11.616 33.3733 11.568C33.3893 11.552 33.3973 11.528 33.3973 11.496C33.3973 11.432 33.4613 11.364 33.5893 11.292ZM29.1013 11.748C29.8053 11.724 30.3213 11.732 30.6493 11.772C30.9773 11.812 31.2013 11.896 31.3213 12.024C31.4413 12.152 31.4933 12.356 31.4773 12.636C31.4693 12.788 31.4293 12.984 31.3573 13.224C31.2853 13.464 31.2213 13.612 31.1653 13.668C31.1493 13.684 31.1413 13.708 31.1413 13.74C31.1413 13.764 31.0333 14 30.8173 14.448C30.6013 14.896 30.4613 15.164 30.3973 15.252C30.3253 15.372 30.1813 15.568 29.9653 15.84C29.7573 16.112 29.6293 16.276 29.5813 16.332C29.4453 16.452 29.2933 16.528 29.1253 16.56C28.9653 16.592 28.8293 16.576 28.7173 16.512C28.6053 16.44 28.5493 16.332 28.5493 16.188C28.5493 16.14 28.5973 16.032 28.6933 15.864C28.7973 15.688 28.8813 15.568 28.9453 15.504C28.9693 15.48 29.0533 15.36 29.1973 15.144C29.3413 14.928 29.4173 14.816 29.4253 14.808C29.4493 14.808 29.4613 14.796 29.4613 14.772C29.4613 14.756 29.4853 14.704 29.5333 14.616C29.5893 14.528 29.6253 14.476 29.6413 14.46C29.6653 14.444 29.7573 14.268 29.9173 13.932C30.0853 13.588 30.1693 13.404 30.1693 13.38C30.1693 13.356 30.1813 13.324 30.2053 13.284C30.2373 13.228 30.2733 13.132 30.3133 12.996C30.3613 12.86 30.3813 12.78 30.3733 12.756C30.3493 12.7 29.9013 12.672 29.0293 12.672C28.3813 12.664 28.0293 12.644 27.9733 12.612C27.8693 12.556 27.7973 12.48 27.7573 12.384C27.7253 12.28 27.7333 12.18 27.7813 12.084C27.8533 11.956 27.9573 11.872 28.0933 11.832C28.2373 11.792 28.5733 11.764 29.1013 11.748ZM41.0471 9.768C41.1511 9.72 41.2551 9.724 41.3591 9.78C41.4631 9.828 41.5471 9.916 41.6111 10.044C41.6591 10.148 41.6791 10.588 41.6711 11.364C41.6711 12.132 41.6471 12.6 41.5991 12.768C41.5191 13 41.4071 13.144 41.2631 13.2C41.1271 13.248 40.7991 13.272 40.2791 13.272C40.0071 13.272 39.7951 13.268 39.6431 13.26C39.4991 13.252 39.3591 13.22 39.2231 13.164C39.0871 13.1 38.9911 13.032 38.9351 12.96C38.8791 12.888 38.8311 12.764 38.7911 12.588C38.7511 12.404 38.7271 12.212 38.7191 12.012C38.7111 11.812 38.7071 11.528 38.7071 11.16C38.7071 10.68 38.7271 10.352 38.7671 10.176C38.8151 10 38.9151 9.876 39.0671 9.804C39.2271 9.732 39.3791 9.756 39.5231 9.876C39.6671 9.996 39.7391 10.16 39.7391 10.368C39.7391 10.48 39.7671 10.552 39.8231 10.584C39.8791 10.608 40.0271 10.62 40.2671 10.62H40.6991L40.7351 10.476C40.7591 10.38 40.7711 10.288 40.7711 10.2C40.7711 10.12 40.7951 10.04 40.8431 9.96C40.8991 9.872 40.9671 9.808 41.0471 9.768ZM40.5911 11.7C40.5031 11.66 40.3431 11.648 40.1111 11.664C39.8791 11.68 39.7471 11.712 39.7151 11.76C39.6591 11.84 39.6551 11.932 39.7031 12.036C39.7591 12.14 39.8391 12.204 39.9431 12.228C39.9911 12.236 40.0511 12.252 40.1231 12.276C40.2271 12.308 40.3351 12.316 40.4471 12.3C40.5671 12.284 40.6431 12.252 40.6751 12.204C40.7151 12.156 40.7231 12.064 40.6991 11.928C40.6751 11.792 40.6391 11.716 40.5911 11.7ZM35.9111 9.792C36.0391 9.736 36.1591 9.752 36.2711 9.84C36.3911 9.928 36.4511 10.048 36.4511 10.2C36.4511 10.424 36.4791 10.576 36.5351 10.656C36.5911 10.728 36.6871 10.748 36.8231 10.716C36.9351 10.692 37.0391 10.68 37.1351 10.68C37.2391 10.68 37.3031 10.664 37.3271 10.632C37.3591 10.6 37.3871 10.504 37.4111 10.344C37.4271 10.192 37.4511 10.084 37.4831 10.02C37.5151 9.948 37.5711 9.892 37.6511 9.852C37.8031 9.788 37.9391 9.808 38.0591 9.912C38.1871 10.016 38.2831 10.192 38.3471 10.44C38.4031 10.664 38.4271 11.08 38.4191 11.688C38.4111 12.296 38.3751 12.66 38.3111 12.78C38.2231 12.956 38.0471 13.084 37.7831 13.164C37.5271 13.244 37.1631 13.28 36.6911 13.272C36.2591 13.264 35.9711 13.188 35.8271 13.044C35.6911 12.9 35.6031 12.596 35.5631 12.132C35.4991 11.268 35.4871 10.688 35.5271 10.392C35.5751 10.088 35.7031 9.888 35.9111 9.792ZM37.4111 11.76C37.3871 11.712 37.2351 11.692 36.9551 11.7C36.6831 11.708 36.5431 11.74 36.5351 11.796C36.5031 11.908 36.5231 12.012 36.5951 12.108C36.6671 12.196 36.7631 12.24 36.8831 12.24C36.9711 12.24 37.0471 12.252 37.1111 12.276C37.2311 12.308 37.3231 12.268 37.3871 12.156C37.4511 12.036 37.4591 11.904 37.4111 11.76ZM38.7671 14.052C40.1431 14.012 40.9511 14.048 41.1911 14.16C41.3831 14.256 41.4711 14.4 41.4551 14.592C41.4391 14.784 41.3231 14.924 41.1071 15.012C41.0271 15.052 40.9671 15.08 40.9271 15.096C40.8391 15.136 40.0191 15.152 38.4671 15.144C36.9151 15.128 36.1031 15.1 36.0311 15.06C35.8231 14.94 35.7111 14.792 35.6951 14.616C35.6791 14.44 35.7671 14.308 35.9591 14.22C36.1271 14.148 37.0631 14.092 38.7671 14.052ZM37.5191 15.996C37.7111 15.964 38.2511 15.952 39.1391 15.96C40.0351 15.968 40.5271 15.992 40.6151 16.032C40.8311 16.128 40.9631 16.256 41.0111 16.416C41.0671 16.568 41.0951 16.908 41.0951 17.436C41.0951 18.044 41.0511 18.436 40.9631 18.612C40.8831 18.788 40.6751 18.92 40.3391 19.008C40.2271 19.04 39.6671 19.056 38.6591 19.056C37.6591 19.064 37.1111 19.052 37.0151 19.02C36.7271 18.932 36.5391 18.792 36.4511 18.6C36.3711 18.408 36.3151 17.992 36.2831 17.352C36.2351 16.472 36.5311 16.028 37.1711 16.02C37.2991 16.02 37.4151 16.012 37.5191 15.996ZM39.9311 16.944C39.8591 16.92 39.5831 16.912 39.1031 16.92C38.6231 16.92 38.1991 16.936 37.8311 16.968C37.5751 16.992 37.4311 17.02 37.3991 17.052C37.3671 17.084 37.3551 17.236 37.3631 17.508C37.3711 17.524 37.3751 17.552 37.3751 17.592C37.3831 17.832 37.4351 17.968 37.5311 18C37.6351 18.04 37.9791 18.056 38.5631 18.048C38.6431 18.048 38.7031 18.048 38.7431 18.048C38.7911 18.048 38.8551 18.048 38.9351 18.048C39.4551 18.04 39.7591 18.02 39.8471 17.988C39.9351 17.956 39.9831 17.848 39.9911 17.664C39.9911 17.632 39.9911 17.608 39.9911 17.592C40.0071 17.184 39.9871 16.968 39.9311 16.944ZM44.0523 10.944C44.3883 10.88 44.8243 10.904 45.3603 11.016C45.6723 11.08 45.9643 11.292 46.2363 11.652C46.5083 12.012 46.6643 12.392 46.7043 12.792C46.7123 12.888 46.7043 13.052 46.6803 13.284C46.6563 13.508 46.6283 13.656 46.5963 13.728C46.5963 13.736 46.5683 13.808 46.5123 13.944C46.4403 14.16 46.3083 14.368 46.1163 14.568C45.9243 14.768 45.7203 14.916 45.5043 15.012C45.4883 15.02 45.4603 15.032 45.4203 15.048C45.3883 15.064 45.3643 15.076 45.3483 15.084C45.2123 15.14 45.0003 15.168 44.7123 15.168C44.4323 15.168 44.2363 15.14 44.1243 15.084C44.0843 15.068 44.0483 15.06 44.0163 15.06C43.9043 15.06 43.7083 14.984 43.4283 14.832C43.1483 14.672 42.9403 14.524 42.8043 14.388C42.6043 14.188 42.4563 13.86 42.3603 13.404C42.2643 12.94 42.2643 12.568 42.3603 12.288C42.5763 11.672 43.0043 11.26 43.6443 11.052C43.7403 11.028 43.7963 11.012 43.8123 11.004C43.8283 10.996 43.9083 10.976 44.0523 10.944ZM44.8203 11.988C44.6443 11.956 44.4603 11.944 44.2683 11.952C44.0843 11.96 43.9683 11.988 43.9203 12.036C43.9123 12.052 43.8923 12.06 43.8603 12.06C43.8043 12.06 43.7203 12.116 43.6083 12.228C43.5043 12.34 43.4363 12.444 43.4043 12.54C43.3483 12.684 43.3563 12.888 43.4283 13.152C43.5003 13.408 43.6043 13.604 43.7403 13.74C43.8683 13.876 44.0723 13.98 44.3523 14.052C44.6323 14.124 44.8363 14.128 44.9643 14.064C44.9963 14.04 45.0523 14.012 45.1323 13.98C45.3243 13.9 45.4643 13.72 45.5523 13.44C45.6483 13.16 45.6523 12.908 45.5643 12.684C45.4843 12.46 45.3883 12.3 45.2763 12.204C45.1723 12.1 45.0203 12.028 44.8203 11.988ZM48.3363 11.244C48.4803 11.172 48.6043 11.156 48.7083 11.196C48.8203 11.236 48.9003 11.324 48.9483 11.46C48.9803 11.54 49.0043 12.512 49.0203 14.376C49.0363 16.24 49.0323 17.252 49.0083 17.412C48.9843 17.572 48.9083 17.692 48.7803 17.772C48.6603 17.844 48.5283 17.86 48.3843 17.82C48.2483 17.78 48.1483 17.688 48.0843 17.544C48.0203 17.4 47.9843 17.196 47.9763 16.932C47.9683 16.66 47.9643 15.88 47.9643 14.592C47.9723 13.032 47.9923 12.108 48.0243 11.82C48.0563 11.524 48.1603 11.332 48.3363 11.244ZM44.9163 15.9C45.4523 15.868 45.8563 15.86 46.1283 15.876C46.4083 15.892 46.5843 15.916 46.6563 15.948C46.7283 15.98 46.8123 16.056 46.9083 16.176C46.9963 16.296 47.0283 16.416 47.0043 16.536C46.9803 16.648 46.9043 16.732 46.7763 16.788C46.6243 16.86 45.9283 16.904 44.6883 16.92C43.4563 16.936 42.7763 16.908 42.6483 16.836C42.4483 16.732 42.3563 16.58 42.3723 16.38C42.3883 16.18 42.5043 16.06 42.7203 16.02C42.9043 15.988 43.6363 15.948 44.9163 15.9ZM61.3447 11.292C61.4487 11.228 61.5687 11.232 61.7047 11.304C61.8407 11.368 61.9367 11.464 61.9927 11.592C62.0567 11.736 62.0967 12.692 62.1127 14.46C62.1367 16.228 62.1207 17.176 62.0647 17.304C61.9927 17.472 61.8807 17.568 61.7287 17.592C61.5847 17.616 61.4367 17.564 61.2847 17.436C61.1887 17.34 61.1287 17.136 61.1047 16.824C61.0887 16.504 61.0767 15.492 61.0687 13.788C61.0687 13.708 61.0687 13.588 61.0687 13.428C61.0687 12.436 61.0767 11.852 61.0927 11.676C61.1087 11.492 61.1767 11.368 61.2967 11.304C61.3127 11.296 61.3287 11.292 61.3447 11.292ZM59.5087 11.616C59.6047 11.576 59.7047 11.576 59.8087 11.616C59.9127 11.656 59.9887 11.724 60.0367 11.82C60.0927 11.916 60.1287 12.084 60.1447 12.324C60.1687 12.556 60.1927 13.056 60.2167 13.824C60.2487 15.16 60.2567 15.984 60.2407 16.296C60.2327 16.6 60.1807 16.804 60.0847 16.908C60.0047 16.996 59.8847 17.016 59.7247 16.968C59.5647 16.92 59.4567 16.832 59.4007 16.704C59.3367 16.568 59.2927 16.356 59.2687 16.068C59.2607 16.028 59.2567 15.976 59.2567 15.912C59.2327 15.664 59.2007 15.52 59.1607 15.48C59.1287 15.432 59.0127 15.412 58.8127 15.42C58.7487 15.42 58.7007 15.42 58.6687 15.42C58.3567 15.42 58.1447 15.38 58.0327 15.3C57.9207 15.22 57.8607 15.072 57.8527 14.856L57.8407 14.736C57.8327 14.752 57.8087 14.86 57.7687 15.06C57.7207 15.316 57.5927 15.564 57.3847 15.804C57.1847 16.036 56.9527 16.204 56.6887 16.308C56.5447 16.364 56.3287 16.392 56.0407 16.392C55.7527 16.392 55.5407 16.364 55.4047 16.308C55.4047 16.308 55.3127 16.268 55.1287 16.188C54.9847 16.132 54.8847 16.088 54.8287 16.056C54.7727 16.016 54.7367 15.996 54.7207 15.996C54.3767 15.86 54.0767 15.384 53.8207 14.568C53.7807 14.44 53.7647 14.188 53.7727 13.812C53.7807 13.436 53.8087 13.16 53.8567 12.984C53.9207 12.72 54.0887 12.448 54.3607 12.168C54.6407 11.888 54.8767 11.748 55.0687 11.748C55.0927 11.748 55.1247 11.736 55.1647 11.712C55.3247 11.624 55.5927 11.604 55.9687 11.652C56.1767 11.676 56.3407 11.708 56.4607 11.748C56.5807 11.78 56.7287 11.844 56.9047 11.94C57.1047 12.052 57.3007 12.26 57.4927 12.564C57.5807 12.7 57.6407 12.868 57.6727 13.068C57.6887 13.196 57.7287 13.332 57.7927 13.476C57.8567 13.628 57.8887 13.92 57.8887 14.352C57.8887 14.512 57.8927 14.592 57.9007 14.592C57.9087 14.592 57.9247 14.58 57.9487 14.556C58.0127 14.468 58.2167 14.404 58.5607 14.364C58.7447 14.34 58.8847 14.32 58.9807 14.304L59.1247 14.292L59.1367 13.956C59.1367 13.756 59.1127 13.64 59.0647 13.608C59.0167 13.576 58.8447 13.56 58.5487 13.56C58.2607 13.56 58.0727 13.532 57.9847 13.476C57.8967 13.42 57.8527 13.308 57.8527 13.14C57.8527 13.044 57.8727 12.956 57.9127 12.876C57.9527 12.788 57.9927 12.744 58.0327 12.744C58.0647 12.744 58.0807 12.736 58.0807 12.72C58.0807 12.664 58.2767 12.62 58.6687 12.588C58.9327 12.564 59.0847 12.536 59.1247 12.504C59.1647 12.464 59.1967 12.312 59.2207 12.048C59.2447 11.824 59.3407 11.68 59.5087 11.616ZM56.1007 12.732C55.9567 12.684 55.7927 12.664 55.6087 12.672C55.4247 12.672 55.3327 12.696 55.3327 12.744C55.3327 12.768 55.3167 12.78 55.2847 12.78C55.2607 12.78 55.2087 12.82 55.1287 12.9C55.0487 12.972 54.9927 13.036 54.9607 13.092C54.7767 13.444 54.7927 13.896 55.0087 14.448C55.1287 14.768 55.2967 15.016 55.5127 15.192C55.7367 15.36 55.9567 15.428 56.1727 15.396C56.3967 15.356 56.5727 15.216 56.7007 14.976C56.7807 14.824 56.8327 14.6 56.8567 14.304C56.8887 14.008 56.8767 13.784 56.8207 13.632C56.6687 13.136 56.4287 12.836 56.1007 12.732ZM70.3208 11.364C70.3848 11.308 70.4288 11.276 70.4528 11.268C70.4848 11.252 70.5488 11.244 70.6448 11.244C70.8128 11.244 70.9368 11.288 71.0168 11.376C71.0968 11.456 71.1528 11.6 71.1848 11.808C71.2088 11.976 71.2208 12.872 71.2208 14.496C71.2288 16.112 71.2168 16.976 71.1848 17.088C71.1448 17.272 71.0448 17.4 70.8848 17.472C70.7328 17.536 70.5808 17.516 70.4288 17.412C70.4208 17.412 70.4128 17.408 70.4048 17.4C70.3008 17.328 70.2408 17.236 70.2248 17.124C70.2088 17.004 70.2008 16.628 70.2008 15.996C70.2008 15.924 70.2008 15.868 70.2008 15.828C70.2008 14.94 70.1808 14.484 70.1408 14.46C70.1088 14.436 69.9488 14.424 69.6608 14.424C69.3808 14.424 69.2008 14.436 69.1208 14.46C69.0648 14.476 69.0328 14.544 69.0248 14.664C69.0168 14.776 69.0248 15.12 69.0488 15.696C69.0648 16.056 69.0648 16.288 69.0488 16.392C69.0328 16.496 68.9808 16.576 68.8928 16.632C68.7248 16.744 68.5608 16.744 68.4008 16.632C68.2488 16.52 68.1528 16.328 68.1128 16.056C68.0488 15.696 68.0088 14.948 67.9928 13.812C67.9768 12.676 67.9928 12.024 68.0408 11.856C68.0888 11.696 68.1768 11.572 68.3048 11.484C68.4328 11.388 68.5568 11.36 68.6768 11.4C68.8208 11.448 68.9128 11.54 68.9528 11.676C68.9928 11.804 69.0128 12.1 69.0128 12.564V13.308H69.3968C69.6448 13.308 69.8288 13.296 69.9488 13.272L70.1288 13.236L70.1408 12.816C70.1568 12.504 70.1648 12.26 70.1648 12.084C70.1648 11.844 70.1728 11.684 70.1888 11.604C70.2128 11.524 70.2568 11.444 70.3208 11.364ZM63.7448 11.616C63.8088 11.6 63.8808 11.612 63.9608 11.652C64.0488 11.684 64.1048 11.728 64.1288 11.784C64.1288 11.784 64.1488 11.82 64.1888 11.892C64.2128 11.94 64.2248 12.136 64.2248 12.48C64.2248 12.52 64.2248 12.576 64.2248 12.648C64.2248 12.904 64.2488 13.052 64.2968 13.092C64.3448 13.132 64.5128 13.152 64.8008 13.152C64.8808 13.152 64.9408 13.152 64.9808 13.152C65.4368 13.152 65.7088 13.144 65.7968 13.128C65.8608 13.12 65.9008 13.088 65.9168 13.032C65.9328 12.968 65.9488 12.78 65.9648 12.468C65.9808 12.228 66.0048 12.064 66.0368 11.976C66.0688 11.88 66.1328 11.804 66.2288 11.748C66.3808 11.668 66.5168 11.664 66.6368 11.736C66.7648 11.8 66.8488 11.928 66.8888 12.12C66.9288 12.296 66.9608 12.836 66.9848 13.74C67.0088 14.644 67.0048 15.156 66.9728 15.276C66.9168 15.484 66.8408 15.64 66.7448 15.744C66.6568 15.848 66.5008 15.94 66.2768 16.02C66.2048 16.044 65.8248 16.06 65.1368 16.068C64.8808 16.068 64.7008 16.068 64.5968 16.068C64.4928 16.068 64.3608 16.06 64.2008 16.044C64.0488 16.02 63.9488 16.004 63.9008 15.996C63.8528 15.98 63.7848 15.936 63.6968 15.864C63.6168 15.792 63.5688 15.736 63.5528 15.696C63.5368 15.656 63.5048 15.564 63.4568 15.42C63.4168 15.268 63.3888 15.144 63.3728 15.048C63.3648 14.944 63.3448 14.768 63.3128 14.52C63.2648 14.168 63.2488 13.644 63.2648 12.948C63.2888 12.252 63.3288 11.904 63.3848 11.904C63.4008 11.904 63.4088 11.892 63.4088 11.868C63.4088 11.836 63.4488 11.788 63.5288 11.724C63.6168 11.66 63.6888 11.624 63.7448 11.616ZM65.7728 14.16C65.6528 14.128 65.3888 14.12 64.9808 14.136C64.5808 14.144 64.3608 14.164 64.3208 14.196C64.3048 14.212 64.3008 14.3 64.3088 14.46C64.3248 14.62 64.3408 14.728 64.3568 14.784C64.4208 14.912 64.5008 14.996 64.5968 15.036C64.6928 15.068 64.8968 15.084 65.2088 15.084C65.5368 15.084 65.7328 15.064 65.7968 15.024C65.8608 14.984 65.9128 14.852 65.9528 14.628C65.9768 14.452 65.9768 14.336 65.9528 14.28C65.9368 14.224 65.8768 14.184 65.7728 14.16ZM77.7943 11.376C78.0503 11.28 78.2183 11.316 78.2983 11.484C78.3783 11.652 78.4183 12.048 78.4183 12.672C78.4183 12.704 78.4183 12.748 78.4183 12.804C78.4183 13.148 78.4343 13.352 78.4663 13.416C78.5063 13.472 78.6383 13.508 78.8623 13.524C78.9023 13.524 78.9303 13.524 78.9463 13.524C79.4503 13.556 79.7703 13.592 79.9063 13.632C80.0423 13.672 80.1503 13.764 80.2303 13.908C80.2863 14.004 80.2983 14.112 80.2663 14.232C80.2423 14.344 80.1823 14.424 80.0863 14.472C80.0463 14.496 80.0223 14.512 80.0143 14.52C79.9983 14.536 79.9503 14.556 79.8703 14.58C79.6223 14.652 79.3423 14.68 79.0303 14.664C78.7983 14.648 78.6423 14.656 78.5623 14.688L78.4423 14.748L78.4663 15.312C78.4743 15.752 78.4823 16.112 78.4903 16.392C78.4983 16.664 78.4783 16.876 78.4303 17.028C78.3903 17.172 78.3383 17.272 78.2743 17.328C78.2103 17.376 78.1143 17.4 77.9863 17.4C77.8023 17.4 77.6743 17.336 77.6023 17.208C77.5303 17.08 77.4863 16.836 77.4703 16.476C77.4543 16.116 77.4383 15.764 77.4223 15.42C77.3823 14.82 77.3663 14.092 77.3743 13.236C77.3903 12.38 77.4183 11.884 77.4583 11.748C77.5303 11.556 77.6423 11.432 77.7943 11.376ZM74.2423 11.652C74.7623 11.612 75.1423 11.624 75.3823 11.688C75.6303 11.752 75.7863 11.88 75.8503 12.072C75.8903 12.184 75.8823 12.308 75.8263 12.444C75.7783 12.572 75.6623 12.78 75.4783 13.068C75.2863 13.372 75.1903 13.58 75.1903 13.692C75.1983 13.804 75.3143 14.008 75.5383 14.304C75.6263 14.424 75.7263 14.568 75.8383 14.736C75.9503 14.904 76.0063 14.996 76.0063 15.012C76.0063 15.02 76.0423 15.084 76.1143 15.204C76.1943 15.316 76.2343 15.388 76.2343 15.42C76.2343 15.444 76.2423 15.464 76.2583 15.48C76.2903 15.496 76.3183 15.564 76.3423 15.684C76.3663 15.796 76.3703 15.872 76.3543 15.912C76.3143 16.008 76.2343 16.092 76.1143 16.164C75.9943 16.228 75.8823 16.252 75.7783 16.236C75.7303 16.22 75.6463 16.172 75.5263 16.092C75.4143 16.012 75.3583 15.96 75.3583 15.936C75.3583 15.92 75.3343 15.888 75.2863 15.84C75.2303 15.776 75.1023 15.592 74.9023 15.288C74.8143 15.152 74.7023 15.016 74.5663 14.88C74.4303 14.744 74.3463 14.684 74.3143 14.7C74.2903 14.716 74.1943 14.824 74.0263 15.024C73.8583 15.224 73.7703 15.328 73.7623 15.336C73.7543 15.344 73.7063 15.408 73.6183 15.528C73.5303 15.648 73.4783 15.716 73.4623 15.732C73.4303 15.764 73.3663 15.84 73.2703 15.96C73.1503 16.12 73.0223 16.2 72.8863 16.2C72.7503 16.192 72.6183 16.104 72.4903 15.936C72.3703 15.784 72.3703 15.58 72.4903 15.324C72.6183 15.06 72.8903 14.696 73.3063 14.232C73.3703 14.152 73.4863 14 73.6543 13.776C73.8383 13.536 73.9343 13.412 73.9423 13.404C73.9583 13.388 74.0423 13.276 74.1943 13.068C74.3543 12.86 74.4423 12.752 74.4583 12.744C74.4743 12.744 74.4823 12.72 74.4823 12.672C74.4823 12.632 74.4223 12.616 74.3023 12.624C74.2303 12.632 74.0383 12.652 73.7263 12.684C73.1023 12.748 72.7263 12.74 72.5983 12.66C72.3983 12.532 72.3263 12.38 72.3823 12.204C72.4383 12.02 72.5903 11.908 72.8383 11.868C73.1583 11.804 73.4023 11.768 73.5703 11.76C73.7063 11.744 73.8023 11.728 73.8583 11.712C73.9223 11.688 74.0503 11.668 74.2423 11.652Z" fill="#77632A"/>
<path d="M5.72902 4.69804L4.09717 4.72942L4.11809 3.08711L5.74297 3.08362L5.72902 4.69804Z" fill="#77632A"/>
<path d="M5.74653 24.2771L4.11816 24.2701L4.13909 22.6731L5.73956 22.6487L5.74653 24.2771Z" fill="#77632A"/>
<path d="M85.4561 4.69804L83.8242 4.72942L83.8451 3.08711L85.47 3.08362L85.4561 4.69804Z" fill="#77632A"/>
<path d="M85.4736 24.2771L83.8452 24.2701L83.8696 22.6731L85.4666 22.6487L85.4736 24.2771Z" fill="#77632A"/>
</svg>
