<svg width="90" height="48" viewBox="0 0 90 48" fill="none" xmlns="http://www.w3.org/2000/svg">
<path d="M49.3742 47.2798L44.5937 46.5197L40.3397 46.8753L40.0015 41.3277L40.256 35.7976L40.385 30.2709L40.0712 24.7407L41.0894 19.2106L40.7965 14.0082L44.5937 13.778L49.1545 13.4258L49.3323 19.2071L48.1154 24.7372L49.0185 30.2639L48.6803 35.7941L48.7744 41.3277L49.3742 47.2798Z" fill="#E2D29F"/>
<path d="M88.9221 27.2603L85.2539 27.6822L81.5682 27.7659L77.8826 27.208L74.1935 27.4521L70.5114 27.4207L66.8223 27.0267L63.1367 27.6369L59.4511 27.0441L55.7654 27.6683L52.0798 26.9291L48.3907 27.1731L44.7051 26.7791L41.0195 27.4695L37.3304 26.9221L33.6413 27.6787L29.9557 27.4207L26.2666 27.1243L22.5809 27.609L18.8953 26.8593L15.2062 26.9744L11.5171 27.473L7.8315 27.2324L4.13891 27.7345L0.460266 27.2708L0.669478 23.4562L0.142962 19.6311L0.610201 15.806L0 11.9774L0.631123 8.1488L0.261515 4.32023L0.662504 0.697373L4.13542 0.174343L7.82453 0.822906L11.5101 0.603232L15.1958 0.606722L18.8814 0.184803L22.567 0.564871L26.2526 0.571851L29.9382 0.795005L33.6273 0.969348L37.313 0.52652L40.9986 0.394018L44.6877 0.885667L48.3733 0.404478L52.0624 0.704354L55.748 0.892637L59.4371 0.638102L63.1227 0.582311L66.8118 0.275465L70.4975 0.52652L74.1831 0L77.8722 0.129012L81.5613 0.400987L85.2504 0.0279009L88.7338 0.693893L89.0859 4.31674L88.7198 8.14183L89.0057 11.9704L88.9604 15.7955L88.9813 19.6241L89.3753 23.4527L88.9221 27.2603Z" fill="#F3E7B8"/>
<path d="M20.746 10.212C20.85 10.124 20.97 10.1 21.106 10.14C21.25 10.18 21.35 10.26 21.406 10.38C21.486 10.548 21.526 11.192 21.526 12.312C21.526 13.424 21.49 14.06 21.418 14.22C21.322 14.404 21.174 14.5 20.974 14.508C20.782 14.516 20.646 14.432 20.566 14.256C20.51 14.128 20.474 13.96 20.458 13.752C20.45 13.536 20.45 13.044 20.458 12.276C20.466 11.404 20.482 10.868 20.506 10.668C20.538 10.468 20.618 10.316 20.746 10.212ZM16.882 10.404C17.93 10.332 18.554 10.376 18.754 10.536C18.898 10.64 18.99 10.748 19.03 10.86C19.07 10.964 19.09 11.164 19.09 11.46C19.098 11.836 19.09 12.244 19.066 12.684C19.042 13.116 19.014 13.384 18.982 13.488C18.95 13.6 18.882 13.708 18.778 13.812C18.682 13.916 18.582 13.984 18.478 14.016C18.366 14.048 17.942 14.064 17.206 14.064C16.47 14.056 16.07 14.036 16.006 14.004C15.734 13.876 15.574 13.664 15.526 13.368C15.454 12.984 15.406 12.52 15.382 11.976C15.366 11.424 15.382 11.092 15.43 10.98C15.51 10.788 15.65 10.652 15.85 10.572C16.058 10.492 16.402 10.436 16.882 10.404ZM18.082 11.58C18.074 11.516 18.046 11.464 17.998 11.424C17.95 11.376 17.894 11.352 17.83 11.352C17.774 11.344 17.59 11.34 17.278 11.34C17.262 11.34 17.242 11.34 17.218 11.34C16.818 11.34 16.586 11.356 16.522 11.388C16.458 11.42 16.426 11.528 16.426 11.712C16.426 11.72 16.426 11.728 16.426 11.736C16.442 12.44 16.482 12.84 16.546 12.936C16.578 12.992 16.706 13.036 16.93 13.068C17.162 13.092 17.37 13.088 17.554 13.056C17.714 13.032 17.83 13.02 17.902 13.02C17.998 13.02 18.054 12.98 18.07 12.9C18.086 12.82 18.094 12.58 18.094 12.18C18.094 11.844 18.09 11.644 18.082 11.58ZM18.514 15.18C18.946 15.156 19.418 15.152 19.93 15.168C20.442 15.184 20.742 15.212 20.83 15.252C20.99 15.324 21.09 15.436 21.13 15.588C21.178 15.74 21.146 15.86 21.034 15.948C20.946 16.028 20.85 16.076 20.746 16.092C20.65 16.108 20.362 16.12 19.882 16.128C19.122 16.144 18.582 16.172 18.262 16.212C17.942 16.244 17.766 16.296 17.734 16.368C17.694 16.432 17.678 16.588 17.686 16.836C17.702 17.084 17.73 17.24 17.77 17.304C17.77 17.312 17.774 17.316 17.782 17.316C17.838 17.412 17.934 17.468 18.07 17.484C18.214 17.5 18.682 17.512 19.474 17.52C19.538 17.52 19.586 17.52 19.618 17.52C20.682 17.536 21.238 17.556 21.286 17.58C21.47 17.668 21.562 17.8 21.562 17.976C21.562 18.144 21.47 18.272 21.286 18.36C21.182 18.416 20.706 18.464 19.858 18.504C19.01 18.552 18.474 18.56 18.25 18.528C18.138 18.504 18.006 18.492 17.854 18.492C17.71 18.492 17.578 18.472 17.458 18.432C17.322 18.384 17.242 18.356 17.218 18.348C17.178 18.34 17.158 18.324 17.158 18.3C17.158 18.284 17.146 18.276 17.122 18.276C17.098 18.276 17.058 18.248 17.002 18.192C16.954 18.144 16.91 18.088 16.87 18.024C16.742 17.808 16.67 17.412 16.654 16.836C16.646 16.252 16.702 15.872 16.822 15.696C16.95 15.504 17.11 15.38 17.302 15.324C17.502 15.268 17.906 15.22 18.514 15.18ZM25.1423 9.612C25.4463 9.572 25.7623 9.588 26.0903 9.66C26.4183 9.732 26.6863 9.844 26.8943 9.996C27.0063 10.076 27.1303 10.2 27.2663 10.368C27.3223 10.448 27.4063 10.656 27.5183 10.992C27.6863 11.48 27.6303 11.976 27.3503 12.48C27.0703 12.976 26.6743 13.3 26.1623 13.452C26.0743 13.484 25.9943 13.508 25.9223 13.524C25.8503 13.548 25.7103 13.556 25.5023 13.548C25.3023 13.54 25.1183 13.524 24.9503 13.5C24.3423 13.396 23.8583 13.116 23.4983 12.66C23.3143 12.428 23.2223 12.072 23.2223 11.592C23.2223 11.112 23.3143 10.78 23.4983 10.596C23.5223 10.564 23.5343 10.54 23.5343 10.524C23.5343 10.508 23.5903 10.444 23.7023 10.332C23.8703 10.156 24.0903 10 24.3623 9.864C24.6423 9.728 24.9023 9.644 25.1423 9.612ZM25.6823 10.668C25.4663 10.62 25.2903 10.616 25.1543 10.656C24.7943 10.744 24.5503 10.848 24.4223 10.968C24.3023 11.08 24.2423 11.256 24.2423 11.496C24.2423 11.88 24.3783 12.16 24.6503 12.336C24.9223 12.504 25.3063 12.552 25.8023 12.48C26.0263 12.448 26.2143 12.348 26.3663 12.18C26.5183 12.012 26.5943 11.82 26.5943 11.604C26.6023 11.108 26.2983 10.796 25.6823 10.668ZM25.1903 14.124C25.5583 14.1 26.0863 14.092 26.7743 14.1C27.4703 14.108 27.8743 14.124 27.9863 14.148C28.2583 14.212 28.3903 14.356 28.3823 14.58C28.3823 14.796 28.2463 14.968 27.9743 15.096C27.8543 15.152 27.0783 15.188 25.6463 15.204C24.2143 15.22 23.4063 15.2 23.2223 15.144C22.9983 15.08 22.8423 14.976 22.7543 14.832C22.6743 14.68 22.6903 14.528 22.8022 14.376C22.8663 14.296 22.9623 14.244 23.0903 14.22C23.2263 14.196 23.5103 14.176 23.9423 14.16C24.3983 14.152 24.8143 14.14 25.1903 14.124ZM25.5863 15.984C25.6263 15.944 25.9543 15.94 26.5703 15.972C27.1863 16.004 27.5343 16.04 27.6143 16.08C27.8063 16.184 27.9343 16.336 27.9983 16.536C28.0623 16.728 28.0943 17.08 28.0943 17.592C28.0943 17.856 28.0903 18.06 28.0823 18.204C28.0743 18.348 28.0383 18.484 27.9743 18.612C27.9183 18.748 27.8543 18.84 27.7823 18.888C27.7183 18.944 27.5943 18.992 27.4103 19.032C27.2263 19.08 27.0343 19.104 26.8343 19.104C26.6423 19.112 26.3623 19.116 25.9943 19.116C25.6743 19.116 25.4343 19.116 25.2743 19.116C25.1143 19.116 24.9223 19.108 24.6983 19.092C24.4823 19.084 24.3303 19.076 24.2423 19.068C24.1543 19.06 24.0423 19.032 23.9062 18.984C23.7783 18.944 23.6943 18.912 23.6543 18.888C23.6223 18.864 23.5703 18.808 23.4983 18.72C23.4343 18.632 23.3983 18.556 23.3903 18.492C23.3823 18.436 23.3663 18.336 23.3423 18.192C23.3263 18.048 23.3183 17.924 23.3183 17.82C23.3183 17.708 23.3183 17.548 23.3183 17.34C23.3183 17.14 23.3223 16.98 23.3303 16.86C23.3463 16.74 23.3743 16.628 23.4143 16.524C23.4623 16.42 23.5183 16.344 23.5823 16.296C23.6463 16.24 23.7423 16.192 23.8703 16.152C24.0063 16.112 24.1503 16.084 24.3023 16.068C24.4623 16.052 24.6743 16.036 24.9383 16.02C25.3623 16.004 25.5783 15.992 25.5863 15.984ZM26.6063 16.968C26.1423 16.912 25.4583 16.936 24.5543 17.04C24.4503 17.056 24.3863 17.088 24.3623 17.136C24.3463 17.176 24.3503 17.304 24.3743 17.52C24.3823 17.544 24.3863 17.576 24.3863 17.616C24.3943 17.704 24.3983 17.768 24.3983 17.808C24.4063 17.84 24.4183 17.884 24.4343 17.94C24.4583 17.988 24.4743 18.016 24.4823 18.024C24.4903 18.04 24.5183 18.06 24.5663 18.084C24.6223 18.108 24.6623 18.12 24.6863 18.12C24.7183 18.128 24.7823 18.132 24.8783 18.132C24.9743 18.14 25.0543 18.14 25.1183 18.132C25.1903 18.132 25.3063 18.132 25.4663 18.132C25.5463 18.124 25.6103 18.12 25.6583 18.12C26.1783 18.104 26.5143 18.084 26.6663 18.06C26.8263 18.044 26.9103 18.008 26.9183 17.952C26.9983 17.528 27.0223 17.264 26.9903 17.16C26.9583 17.048 26.8303 16.984 26.6063 16.968ZM31.6515 10.992C31.7395 10.976 31.8275 10.972 31.9155 10.98C31.9635 10.988 32.0795 11 32.2635 11.016C32.6395 11.048 32.9715 11.192 33.2595 11.448C33.5475 11.696 33.7595 12.028 33.8955 12.444C33.9195 12.54 33.9395 12.604 33.9555 12.636C33.9955 12.74 34.0195 12.892 34.0275 13.092C34.0435 13.284 34.0395 13.452 34.0155 13.596C33.9355 14.028 33.7835 14.384 33.5595 14.664C33.3435 14.936 33.0435 15.152 32.6595 15.312C32.2595 15.464 31.8355 15.496 31.3875 15.408C31.3475 15.4 31.2995 15.392 31.2435 15.384C31.1955 15.376 31.1515 15.368 31.1115 15.36C31.0715 15.352 31.0475 15.348 31.0395 15.348C30.9755 15.332 30.9395 15.316 30.9315 15.3C30.9235 15.284 30.8995 15.276 30.8595 15.276C30.8195 15.276 30.7795 15.268 30.7395 15.252C30.4275 15.1 30.2115 14.98 30.0915 14.892C29.9715 14.796 29.8555 14.664 29.7435 14.496C29.5515 14.176 29.4555 13.972 29.4555 13.884C29.4555 13.852 29.4435 13.816 29.4195 13.776C29.3635 13.664 29.3355 13.472 29.3355 13.2C29.3355 12.92 29.3635 12.724 29.4195 12.612C29.4435 12.572 29.4555 12.544 29.4555 12.528C29.4555 12.424 29.5395 12.256 29.7075 12.024C29.8755 11.784 30.0475 11.604 30.2235 11.484C30.3515 11.38 30.5475 11.28 30.8115 11.184C31.0755 11.08 31.2715 11.024 31.3995 11.016C31.4875 11.016 31.5715 11.008 31.6515 10.992ZM32.1315 12.084C32.0915 12.068 31.9515 12.06 31.7115 12.06C31.4795 12.06 31.3555 12.068 31.3395 12.084C31.3315 12.108 31.3115 12.12 31.2795 12.12C31.1835 12.12 31.0355 12.192 30.8355 12.336C30.6435 12.472 30.5195 12.592 30.4635 12.696C30.3915 12.832 30.3795 13.04 30.4275 13.32C30.4835 13.592 30.5755 13.808 30.7035 13.968C30.8235 14.12 31.0595 14.24 31.4115 14.328C31.7635 14.408 32.0395 14.412 32.2395 14.34C32.3995 14.276 32.5475 14.188 32.6835 14.076C32.8195 13.964 32.8875 13.876 32.8875 13.812C32.8875 13.78 32.8995 13.752 32.9235 13.728C32.9635 13.68 32.9875 13.572 32.9955 13.404C33.0115 13.228 33.0075 13.088 32.9835 12.984C32.9435 12.832 32.8555 12.676 32.7195 12.516C32.5835 12.348 32.4475 12.232 32.3115 12.168C32.2955 12.16 32.2715 12.152 32.2395 12.144C32.2155 12.128 32.1915 12.116 32.1675 12.108C32.1515 12.092 32.1395 12.084 32.1315 12.084ZM30.4875 16.68C31.3195 16.664 32.2275 16.66 33.2115 16.668C34.2035 16.668 34.7195 16.684 34.7595 16.716C34.8875 16.788 34.9715 16.884 35.0115 17.004C35.0595 17.116 35.0595 17.22 35.0115 17.316C34.9875 17.364 34.9395 17.416 34.8675 17.472C34.8035 17.528 34.7595 17.556 34.7355 17.556C34.6955 17.556 34.6715 17.564 34.6635 17.58C34.6075 17.636 34.1395 17.676 33.2595 17.7C32.3875 17.724 31.5235 17.724 30.6675 17.7C29.8195 17.676 29.3955 17.636 29.3955 17.58C29.3955 17.564 29.3795 17.556 29.3475 17.556C29.2675 17.556 29.1835 17.488 29.0955 17.352C29.0075 17.216 28.9715 17.104 28.9875 17.016C29.0115 16.92 29.0595 16.852 29.1315 16.812C29.2115 16.772 29.3435 16.744 29.5275 16.728C29.7115 16.712 30.0315 16.696 30.4875 16.68ZM38.0318 10.68C38.3358 10.664 38.6718 10.66 39.0398 10.668C39.4158 10.676 39.6358 10.692 39.6998 10.716C39.8998 10.804 40.0398 10.94 40.1198 11.124C40.1998 11.3 40.2398 11.552 40.2398 11.88C40.2398 12.584 40.1318 13.052 39.9158 13.284C39.8038 13.396 39.6598 13.472 39.4838 13.512C39.3158 13.544 38.9758 13.56 38.4638 13.56C38.1278 13.56 37.8758 13.564 37.7078 13.572C37.5398 13.572 37.3998 13.588 37.2878 13.62C37.1838 13.644 37.1158 13.676 37.0838 13.716C37.0598 13.756 37.0478 13.816 37.0478 13.896C37.0478 14.192 37.1118 14.384 37.2398 14.472C37.3678 14.56 37.6358 14.596 38.0438 14.58C39.1558 14.532 39.8158 14.528 40.0238 14.568C40.2318 14.608 40.3358 14.752 40.3358 15C40.3438 15.16 40.2838 15.28 40.1558 15.36C40.0358 15.44 39.8278 15.488 39.5318 15.504C38.9158 15.536 38.6078 15.572 38.6078 15.612C38.6078 15.628 38.6198 15.648 38.6438 15.672C38.6598 15.688 38.6838 15.816 38.7158 16.056C38.7478 16.296 38.7638 16.472 38.7638 16.584C38.7638 16.672 38.7758 16.76 38.7998 16.848C38.8238 16.936 38.8478 16.988 38.8717 17.004C38.8958 17.02 39.2358 17.028 39.8918 17.028C40.5478 17.028 40.9198 17.048 41.0078 17.088C41.1518 17.152 41.2358 17.26 41.2598 17.412C41.2918 17.564 41.2518 17.692 41.1398 17.796C41.0278 17.884 40.9078 17.936 40.7798 17.952C40.6518 17.968 40.2198 17.984 39.4838 18C39.2678 18 39.0078 18.004 38.7038 18.012C38.3998 18.02 38.0878 18.024 37.7678 18.024C37.4478 18.032 37.2278 18.036 37.1077 18.036C36.6038 18.052 36.3038 18.056 36.2078 18.048C36.1118 18.04 36.0238 18.016 35.9438 17.976C35.7518 17.856 35.6518 17.708 35.6438 17.532C35.6358 17.348 35.7278 17.232 35.9198 17.184C35.9918 17.168 36.2358 17.148 36.6518 17.124C37.3078 17.084 37.6598 17.04 37.7078 16.992C37.7318 16.976 37.7518 16.816 37.7678 16.512C37.7998 16.056 37.8678 15.78 37.9718 15.684C38.0358 15.62 38.0358 15.58 37.9718 15.564C37.9078 15.556 37.7238 15.552 37.4198 15.552C37.1078 15.552 36.8718 15.536 36.7118 15.504C36.5518 15.464 36.4198 15.38 36.3158 15.252C36.2118 15.116 36.1438 14.944 36.1118 14.736C36.0878 14.52 36.0758 14.212 36.0758 13.812C36.0758 13.468 36.0878 13.244 36.1118 13.14C36.1358 13.036 36.1998 12.94 36.3038 12.852C36.5598 12.636 37.1878 12.528 38.1878 12.528C38.3558 12.528 38.4878 12.528 38.5838 12.528C38.6878 12.52 38.7878 12.516 38.8838 12.516C38.9798 12.508 39.0478 12.496 39.0878 12.48C39.1278 12.456 39.1678 12.436 39.2078 12.42C39.2478 12.396 39.2678 12.364 39.2678 12.324C39.2758 12.284 39.2798 12.244 39.2798 12.204C39.2798 12.156 39.2758 12.096 39.2678 12.024C39.2678 12.008 39.2638 11.984 39.2558 11.952C39.2398 11.832 39.1838 11.764 39.0878 11.748C38.9918 11.724 38.6558 11.712 38.0798 11.712C37.9518 11.712 37.8518 11.712 37.7798 11.712C37.1078 11.712 36.7078 11.708 36.5798 11.7C36.4598 11.692 36.3678 11.664 36.3038 11.616C36.0958 11.464 36.0358 11.296 36.1238 11.112C36.2198 10.928 36.4158 10.824 36.7118 10.8C36.8318 10.792 37.0358 10.772 37.3238 10.74C37.4758 10.724 37.7118 10.704 38.0318 10.68ZM48.4041 9.504C48.5641 9.44 48.7041 9.456 48.8241 9.552C48.9521 9.648 49.0161 9.784 49.0161 9.96C49.0161 10.064 49.0241 10.132 49.0401 10.164C49.0641 10.196 49.1401 10.26 49.2681 10.356C49.3881 10.436 49.4521 10.48 49.4601 10.488C49.4601 10.496 49.5041 10.536 49.5921 10.608C49.6801 10.664 49.7281 10.696 49.7361 10.704C49.7441 10.72 49.8121 10.78 49.9401 10.884C50.1401 11.044 50.3201 11.216 50.4801 11.4C50.6481 11.576 50.7361 11.692 50.7441 11.748C50.7761 11.9 50.7401 12.036 50.6361 12.156C50.5401 12.276 50.4161 12.336 50.2641 12.336C50.2001 12.336 50.0041 12.232 49.6761 12.024C49.3481 11.816 49.1481 11.672 49.0761 11.592C49.0201 11.512 48.8841 11.404 48.6681 11.268C48.4601 11.124 48.3241 11.052 48.2601 11.052C48.1801 11.052 47.8201 11.416 47.1801 12.144C46.9161 12.448 46.7281 12.624 46.6161 12.672C46.5041 12.72 46.3761 12.684 46.2321 12.564C46.0401 12.396 45.9681 12.236 46.0161 12.084C46.0641 11.932 46.2801 11.644 46.6641 11.22C46.7361 11.132 46.8121 11.048 46.8921 10.968C46.9881 10.864 47.0921 10.748 47.2041 10.62C47.5801 10.196 47.8361 9.92 47.9721 9.792C48.1161 9.656 48.2601 9.56 48.4041 9.504ZM49.7241 13.548C49.8361 13.532 50.0081 13.528 50.2401 13.536C50.4801 13.536 50.6361 13.544 50.7081 13.56C50.9081 13.592 51.0441 13.68 51.1161 13.824C51.1881 13.96 51.1841 14.1 51.1041 14.244C51.0241 14.388 50.8841 14.476 50.6841 14.508C50.3241 14.58 49.4121 14.616 47.9481 14.616C46.4841 14.616 45.7001 14.58 45.5961 14.508C45.5161 14.452 45.4721 14.36 45.4641 14.232C45.4561 14.104 45.4881 13.996 45.5601 13.908C45.6721 13.788 45.8601 13.712 46.1241 13.68C46.3961 13.64 47.0841 13.608 48.1881 13.584C49.1641 13.56 49.6761 13.548 49.7241 13.548ZM47.9241 15.384C48.1561 15.336 48.4241 15.324 48.7281 15.348C49.0401 15.372 49.3001 15.42 49.5081 15.492C49.7321 15.58 49.9401 15.716 50.1321 15.9C50.3241 16.076 50.4721 16.276 50.5761 16.5C50.7761 16.948 50.8521 17.344 50.8041 17.688C50.7561 18.024 50.5721 18.348 50.2521 18.66C50.0761 18.844 49.9241 18.96 49.7961 19.008C49.7801 19.016 49.7521 19.028 49.7121 19.044C49.6801 19.06 49.6561 19.072 49.6401 19.08C49.5521 19.12 49.3721 19.172 49.1001 19.236C48.9401 19.276 48.7201 19.28 48.4401 19.248C48.1601 19.224 47.9201 19.172 47.7201 19.092C47.1121 18.844 46.6881 18.48 46.4481 18C46.2161 17.512 46.2201 17 46.4601 16.464C46.5721 16.216 46.7681 15.988 47.0481 15.78C47.3361 15.572 47.6281 15.44 47.9241 15.384ZM49.0161 16.44C48.6321 16.256 48.2561 16.248 47.8881 16.416C47.5281 16.584 47.3481 16.844 47.3481 17.196C47.3481 17.476 47.4321 17.704 47.6001 17.88C47.7761 18.056 48.0201 18.168 48.3321 18.216C48.6361 18.264 48.9401 18.216 49.2441 18.072C49.4841 17.96 49.6361 17.8 49.7001 17.592C49.7641 17.384 49.7321 17.172 49.6041 16.956C49.4841 16.74 49.2881 16.568 49.0161 16.44ZM57.2888 11.256C57.3688 11.192 57.4768 11.168 57.6128 11.184C57.7488 11.192 57.8528 11.236 57.9248 11.316C57.9888 11.388 58.0328 11.628 58.0568 12.036C58.0888 12.436 58.1048 13.136 58.1048 14.136C58.1128 14.76 58.1248 15.324 58.1408 15.828C58.1728 16.572 58.1568 17.056 58.0928 17.28C58.0288 17.504 57.8728 17.616 57.6248 17.616C57.4968 17.616 57.3848 17.584 57.2888 17.52C57.2008 17.448 57.1448 17.36 57.1208 17.256C57.0808 17.008 57.0488 15.932 57.0248 14.028C57.0168 12.932 57.0248 12.22 57.0488 11.892C57.0808 11.556 57.1608 11.344 57.2888 11.256ZM52.9808 11.304C53.6928 11.272 54.1688 11.272 54.4088 11.304C54.6488 11.336 54.8328 11.416 54.9608 11.544C55.0808 11.672 55.1568 11.8 55.1888 11.928C55.2208 12.056 55.2328 12.272 55.2248 12.576C55.2088 12.904 55.1728 13.272 55.1168 13.68C55.0528 14.08 54.9088 14.336 54.6848 14.448C54.5808 14.496 54.5208 14.524 54.5048 14.532C54.4728 14.548 54.2608 14.556 53.8688 14.556C53.3568 14.556 53.0408 14.596 52.9208 14.676C52.8088 14.756 52.7888 14.94 52.8608 15.228C52.9008 15.364 52.9608 15.46 53.0408 15.516C53.1208 15.572 53.2528 15.608 53.4368 15.624C53.6288 15.64 53.9648 15.648 54.4448 15.648C54.8608 15.64 55.1168 15.648 55.2128 15.672C55.3168 15.696 55.4048 15.76 55.4768 15.864C55.5568 15.984 55.5688 16.112 55.5128 16.248C55.4648 16.376 55.3728 16.452 55.2368 16.476C55.1808 16.492 55.1328 16.508 55.0928 16.524C55.0368 16.548 54.5208 16.576 53.5448 16.608C52.9928 16.624 52.6008 16.58 52.3688 16.476C52.1448 16.372 51.9888 16.164 51.9008 15.852C51.8608 15.708 51.8408 15.388 51.8408 14.892C51.8488 14.388 51.8728 14.092 51.9128 14.004C51.9448 13.94 51.9928 13.88 52.0568 13.824C52.1208 13.768 52.1688 13.74 52.2008 13.74C52.2248 13.74 52.2568 13.732 52.2968 13.716C52.4008 13.652 52.6168 13.612 52.9448 13.596C53.5208 13.572 53.8808 13.532 54.0248 13.476C54.1448 13.42 54.2048 13.144 54.2048 12.648C54.2048 12.632 54.2048 12.612 54.2048 12.588C54.2048 12.42 54.1608 12.324 54.0728 12.3C53.9928 12.276 53.6968 12.264 53.1848 12.264C53.1128 12.264 53.0608 12.264 53.0288 12.264C52.4688 12.264 52.1288 12.248 52.0088 12.216C51.8888 12.184 51.8128 12.096 51.7808 11.952C51.7408 11.712 51.8008 11.552 51.9608 11.472C52.1288 11.384 52.4688 11.328 52.9808 11.304ZM61.2599 10.812C61.7159 10.788 62.0279 10.792 62.1959 10.824C62.3719 10.856 62.4999 10.932 62.5799 11.052C62.6679 11.18 62.6759 11.332 62.6039 11.508C62.5319 11.684 62.4279 11.772 62.2919 11.772C62.2519 11.772 62.2199 11.784 62.1959 11.808C62.1799 11.824 61.9359 11.832 61.4639 11.832C60.9999 11.824 60.6599 11.808 60.4439 11.784C60.2519 11.768 60.1079 11.716 60.0119 11.628C59.9239 11.54 59.8999 11.436 59.9399 11.316C59.9719 11.212 59.9999 11.14 60.0239 11.1C60.0559 11.052 60.0879 11.008 60.1199 10.968C60.1599 10.92 60.2359 10.892 60.3479 10.884C60.4599 10.868 60.5719 10.856 60.6839 10.848C60.7959 10.832 60.9879 10.82 61.2599 10.812ZM66.5399 11.964C66.6839 11.892 66.8199 11.872 66.9479 11.904C67.0839 11.936 67.1759 12.012 67.2239 12.132C67.2639 12.228 67.2999 12.948 67.3319 14.292C67.3639 15.636 67.3679 16.556 67.3439 17.052C67.3199 17.42 67.2319 17.688 67.0799 17.856C66.9279 18.016 66.7559 18.024 66.5639 17.88C66.4439 17.792 66.3719 17.664 66.3479 17.496C66.3239 17.328 66.3119 16.872 66.3119 16.128C66.3119 15.48 66.2959 15.144 66.2639 15.12C66.2399 15.096 66.0719 15.088 65.7599 15.096C65.4479 15.104 65.2759 15.116 65.2439 15.132C65.2199 15.148 65.2079 15.348 65.2079 15.732C65.2159 16.108 65.2279 16.392 65.2439 16.584C65.2999 17.128 65.1759 17.4 64.8719 17.4C64.7679 17.4 64.6679 17.368 64.5719 17.304C64.4839 17.232 64.4159 17.144 64.3679 17.04C64.3199 16.928 64.2879 16.844 64.2719 16.788C64.2639 16.732 64.2559 16.604 64.2479 16.404C64.2159 15.956 64.1959 15.672 64.1879 15.552C64.1639 15.304 64.1439 14.872 64.1279 14.256C64.1119 13.416 64.1439 12.844 64.2239 12.54C64.3119 12.228 64.4759 12.072 64.7159 12.072C64.8919 12.072 65.0079 12.144 65.0639 12.288C65.1199 12.432 65.1559 12.744 65.1719 13.224C65.1719 13.28 65.1719 13.352 65.1719 13.44C65.1799 13.712 65.1959 13.868 65.2199 13.908C65.2519 13.948 65.3479 13.964 65.5079 13.956C65.5639 13.956 65.6039 13.956 65.6279 13.956C65.6599 13.956 65.7039 13.956 65.7599 13.956C65.9919 13.948 66.1279 13.916 66.1679 13.86C66.2079 13.796 66.2319 13.588 66.2399 13.236C66.2399 13.156 66.2399 13.092 66.2399 13.044C66.2399 12.708 66.2439 12.484 66.2519 12.372C66.2679 12.26 66.2919 12.176 66.3239 12.12C66.3639 12.064 66.4359 12.012 66.5399 11.964ZM60.4199 12.36C60.5719 12.328 60.9559 12.312 61.5719 12.312C62.1879 12.304 62.5599 12.312 62.6879 12.336C62.9039 12.376 63.0519 12.48 63.1319 12.648C63.2199 12.816 63.1959 12.968 63.0599 13.104C62.9879 13.176 62.9079 13.224 62.8199 13.248C62.7319 13.264 62.4639 13.288 62.0159 13.32C61.8319 13.336 61.6799 13.352 61.5599 13.368C61.0879 13.44 60.7679 13.492 60.5999 13.524C60.5279 13.54 60.3519 13.552 60.0719 13.56C59.7999 13.568 59.6279 13.548 59.5559 13.5C59.4839 13.444 59.4479 13.32 59.4479 13.128C59.4559 12.888 59.5239 12.716 59.6519 12.612C59.7879 12.508 60.0439 12.424 60.4199 12.36ZM60.8879 13.716C61.0159 13.692 61.2279 13.688 61.5239 13.704C61.8199 13.712 62.0159 13.732 62.1119 13.764C62.3279 13.844 62.5039 13.984 62.6399 14.184C62.7759 14.376 62.9239 14.696 63.0839 15.144C63.1319 15.288 63.1519 15.5 63.1439 15.78C63.1439 16.06 63.1199 16.268 63.0719 16.404C62.8799 16.98 62.5079 17.344 61.9559 17.496C61.4039 17.648 60.8399 17.544 60.2639 17.184C59.9359 16.976 59.6719 16.636 59.4719 16.164C59.2799 15.692 59.2439 15.3 59.3639 14.988C59.4039 14.892 59.4279 14.836 59.4359 14.82C59.5079 14.62 59.5959 14.468 59.6999 14.364C59.8039 14.26 59.9919 14.136 60.2639 13.992C60.5439 13.84 60.7519 13.748 60.8879 13.716ZM61.5959 14.844C61.4679 14.78 61.3039 14.756 61.1039 14.772C60.9039 14.788 60.7439 14.84 60.6239 14.928C60.4239 15.072 60.3719 15.336 60.4679 15.72C60.5719 16.096 60.7559 16.34 61.0199 16.452C61.2759 16.564 61.4959 16.588 61.6799 16.524C61.8719 16.46 61.9999 16.32 62.0639 16.104C62.1439 15.832 62.1399 15.58 62.0519 15.348C61.9639 15.116 61.8119 14.948 61.5959 14.844ZM70.6994 10.872C71.0034 10.8 71.3234 10.784 71.6594 10.824C71.9954 10.856 72.2914 10.936 72.5474 11.064C72.9074 11.24 73.1714 11.548 73.3394 11.988C73.5154 12.428 73.5594 12.896 73.4714 13.392C73.3914 13.88 73.1914 14.28 72.8714 14.592C72.7674 14.688 72.6074 14.792 72.3914 14.904C72.1834 15.016 71.8314 15.084 71.3354 15.108C70.8474 15.132 70.5234 15.104 70.3634 15.024C70.3314 15 70.3034 14.988 70.2794 14.988C70.2554 14.988 70.1434 14.94 69.9434 14.844C69.4314 14.596 69.0834 14.168 68.8994 13.56C68.8514 13.408 68.8354 13.172 68.8514 12.852C68.8754 12.532 68.9154 12.316 68.9714 12.204C68.9874 12.164 68.9954 12.136 68.9954 12.12C68.9954 12.016 69.1114 11.848 69.3434 11.616C69.5834 11.376 69.8034 11.208 70.0034 11.112C70.2434 11 70.4754 10.92 70.6994 10.872ZM71.5154 11.832C71.4114 11.808 71.2754 11.796 71.1074 11.796C70.9394 11.788 70.8394 11.792 70.8074 11.808C70.7194 11.848 70.6434 11.884 70.5794 11.916C70.3874 12.004 70.2154 12.12 70.0634 12.264C69.8874 12.432 69.8474 12.732 69.9434 13.164C70.0394 13.596 70.2074 13.868 70.4474 13.98C70.6074 14.052 70.8314 14.096 71.1194 14.112C71.4074 14.128 71.6314 14.108 71.7914 14.052C71.9274 14.004 72.0674 13.908 72.2114 13.764C72.3634 13.612 72.4394 13.492 72.4394 13.404C72.4394 13.364 72.4514 13.336 72.4754 13.32C72.4994 13.296 72.5074 13.192 72.4994 13.008C72.4994 12.816 72.4834 12.68 72.4514 12.6C72.3714 12.376 72.2594 12.204 72.1154 12.084C71.9794 11.964 71.7794 11.88 71.5154 11.832ZM72.5234 15.24C72.7474 15.216 72.8914 15.256 72.9554 15.36C73.0274 15.456 73.0634 15.688 73.0634 16.056C73.0634 16.08 73.0634 16.108 73.0634 16.14C73.0634 16.484 73.0834 16.684 73.1234 16.74C73.1634 16.796 73.3034 16.828 73.5434 16.836C73.5674 16.836 73.5874 16.836 73.6034 16.836C74.0194 16.844 74.2914 16.88 74.4194 16.944C74.5554 17 74.6234 17.116 74.6234 17.292C74.6234 17.492 74.5234 17.64 74.3234 17.736C74.2514 17.76 74.1914 17.784 74.1434 17.808C74.1114 17.824 73.7514 17.832 73.0634 17.832C72.3514 17.832 71.5754 17.852 70.7354 17.892C70.1914 17.924 69.7754 17.936 69.4874 17.928C69.1994 17.912 69.0154 17.888 68.9354 17.856C68.8554 17.816 68.7514 17.736 68.6234 17.616C68.4874 17.472 68.4554 17.348 68.5274 17.244C68.6074 17.14 68.7914 17.068 69.0794 17.028C69.4074 16.98 69.5874 16.944 69.6194 16.92C69.6434 16.904 69.6554 16.7 69.6554 16.308C69.6554 15.964 69.6634 15.76 69.6794 15.696C69.7034 15.624 69.7794 15.548 69.9074 15.468C70.1234 15.324 70.2874 15.308 70.3994 15.42C70.5194 15.524 70.5994 15.772 70.6394 16.164C70.6794 16.524 70.7234 16.736 70.7714 16.8C70.8274 16.856 70.9874 16.876 71.2514 16.86C71.2914 16.852 71.3474 16.848 71.4194 16.848C71.7314 16.832 71.9154 16.804 71.9714 16.764C72.0274 16.716 72.0594 16.56 72.0674 16.296C72.0674 16.24 72.0674 16.196 72.0674 16.164C72.0914 15.7 72.1314 15.468 72.1874 15.468C72.2114 15.468 72.2234 15.452 72.2234 15.42C72.2234 15.38 72.2554 15.344 72.3194 15.312C72.3834 15.272 72.4514 15.248 72.5234 15.24Z" fill="#77632A"/>
<path d="M5.72902 4.69804L4.09717 4.72942L4.11809 3.08711L5.74297 3.08362L5.72902 4.69804Z" fill="#77632A"/>
<path d="M5.74653 24.2771L4.11816 24.2701L4.13909 22.6731L5.73956 22.6487L5.74653 24.2771Z" fill="#77632A"/>
<path d="M85.4561 4.69804L83.8242 4.72942L83.8451 3.08711L85.47 3.08362L85.4561 4.69804Z" fill="#77632A"/>
<path d="M85.4736 24.2771L83.8452 24.2701L83.8696 22.6731L85.4666 22.6487L85.4736 24.2771Z" fill="#77632A"/>
</svg>
