<svg width="375" height="666" viewBox="0 0 375 666" fill="none" xmlns="http://www.w3.org/2000/svg">
<path d="M544.245 214.642L537.638 208.976L528.948 207.772L526.219 210.18C514.01 221.017 500.077 232.065 481.261 239.431C457.92 249.63 433.287 260.82 410.808 274.135C409.515 265.919 408.079 257.633 406.642 249.417C408.581 240.706 405.565 235.961 403.482 233.907C400.61 231.003 396.444 229.87 392.351 230.861C387.036 232.207 382.583 236.952 380.142 243.68C374.181 249.842 368.938 256.358 364.413 263.086C361.9 259.262 359.171 254.375 358.022 251.754L357.591 250.763L356.873 249.913C342.796 233.34 329.007 216.2 315.936 198.849L312.202 188.862C309.545 182.63 305.738 179.018 300.998 178.168C298.054 177.672 293.601 178.026 289.148 182.701L283.259 189.641L283.475 192.687C283.906 199.061 287.425 203.806 290.297 207.56C291.734 209.472 293.027 211.243 293.817 212.943C298.7 223.779 302.219 238.369 305.666 252.463C307.893 261.67 310.191 271.16 312.92 279.801C311.412 278.597 309.976 277.393 308.539 276.118C305.882 273.71 300.926 269.248 298.556 266.698C298.269 266.273 297.982 265.707 297.623 265.14C295.756 261.811 292.883 256.783 286.994 256.712C284.911 256.712 281.105 257.279 278.232 261.882C273.42 269.673 278.878 276.897 281.536 280.367C282.182 281.217 282.9 282.138 283.187 282.634C285.988 288.087 288.287 295.807 290.441 303.314C292.955 312.097 295.612 321.162 299.562 328.244C300.998 330.794 302.65 332.706 303.943 334.123C303.943 334.123 303.943 334.123 304.015 334.194C302.004 336.177 295.397 337.593 290.513 338.585C286.994 339.293 283.331 340.072 280.027 341.205C268.465 345.172 256.759 350.2 245.411 355.016C232.915 360.328 220.06 365.852 207.635 369.818C202.967 371.306 200.094 371.306 196.503 371.306C193.774 371.306 190.686 371.306 186.88 371.943C178.908 373.36 173.593 379.805 174.024 387.666C174.455 395.173 179.913 401.264 186.736 401.618C190.112 401.831 193.702 400.414 200.238 397.652C203.398 396.307 207.348 394.678 209.215 394.324C221.424 391.986 236.29 391.916 250.654 391.916C265.808 391.916 281.464 391.774 295.181 389.153C298.485 388.516 301.429 387.383 304.015 386.391C309.616 384.267 311.125 383.983 313.136 385.4C312.633 386.462 311.556 388.091 310.837 389.224C309.329 391.561 307.606 394.182 306.528 397.156C303.009 406.647 301.07 418.05 299.203 429.098C297.336 440.147 295.397 451.549 291.949 460.119C291.59 460.969 290.441 462.74 289.436 464.227C286.132 469.185 282.397 474.851 284.408 480.871C285.486 484.058 287.999 486.537 291.518 487.882C293.098 488.449 294.607 488.803 295.971 488.945C299.275 489.228 301.788 488.378 303.512 487.387C309.688 483.987 311.053 476.692 312.202 470.814C312.633 468.618 313.136 466.069 313.638 464.935C318.019 455.657 324.124 446.096 330.013 436.818C335.83 427.682 341.791 418.262 346.459 408.772C347.895 405.868 348.685 402.752 349.404 400.06C350.122 397.369 350.912 394.04 351.917 393.686C352.061 393.686 352.204 393.615 352.348 393.544C352.707 394.111 353.066 394.819 353.425 395.386C354.503 397.369 355.867 399.848 358.022 402.043C365.347 409.48 374.396 416.208 383.086 422.724C391.13 428.744 399.532 434.906 405.924 441.351C406.858 442.272 407.791 443.83 408.725 445.529C411.239 449.85 417.056 459.978 430.27 455.091L432.209 454.383L436.734 449L439.75 441.351L438.458 438.447C434.939 430.444 433.43 422.158 433.646 412.596C434.364 398.148 433.861 383.558 432.066 369.252L431.922 367.977L431.348 366.844C430.414 364.861 429.911 363.373 429.768 362.311C430.342 362.382 431.132 362.594 432.066 362.878L433.718 363.444L435.441 363.232C451.313 361.39 467.113 359.549 482.985 357.778C491.89 361.178 499.144 358.911 503.165 355.441C507.044 352.041 508.48 347.084 506.972 342.551C506.038 339.86 502.735 333.273 490.382 332.565L481.62 332.848C466.179 329.378 450.523 326.191 435.01 323.216C447.938 315.85 458.926 306.147 468.118 297.436C485.929 280.367 504.386 262.732 525.357 247.434C538.356 243.822 545.61 238.864 548.123 231.782C549.488 227.957 549.919 221.937 544.389 214.642H544.245Z" fill="white" fill-opacity="0.15"/>
<path d="M231.245 -63.3576L224.638 -69.0236L215.948 -70.2275L213.219 -67.8195C201.01 -56.9834 187.077 -45.9348 168.261 -38.5691C144.92 -28.3704 120.287 -17.1802 97.8077 -3.86525C96.515 -12.0809 95.0787 -20.3673 93.6423 -28.583C95.5814 -37.2943 92.565 -42.0395 90.4823 -44.0934C87.6096 -46.9972 83.4442 -48.1304 79.3506 -47.1389C74.036 -45.7932 69.5833 -41.048 67.1415 -34.3197C61.1806 -28.158 55.938 -21.6421 51.4134 -14.9138C48.8998 -18.7383 46.1707 -23.6252 45.0216 -26.2457L44.5907 -27.2373L43.8726 -28.0871C29.7963 -44.66 16.0072 -61.7995 2.93642 -79.1515L-0.798126 -89.1376C-3.45538 -95.3702 -7.26172 -98.9823 -12.0017 -99.8321C-14.9462 -100.328 -19.3989 -99.9738 -23.8516 -95.2994L-29.7407 -88.3585L-29.5253 -85.3132C-29.0943 -78.939 -25.5753 -74.1937 -22.7025 -70.44C-21.2662 -68.5278 -19.9735 -66.7572 -19.1835 -65.0574C-14.2999 -54.2213 -10.7808 -39.6315 -7.33354 -25.5375C-5.10719 -16.3303 -2.80902 -6.83984 -0.0799408 1.80071C-1.58812 0.596703 -3.02448 -0.607338 -4.46083 -1.88218C-7.11809 -4.2902 -12.0735 -8.75214 -14.4435 -11.3018C-14.7308 -11.7268 -15.0181 -12.2934 -15.3771 -12.86C-17.2444 -16.1887 -20.1171 -21.2171 -26.0062 -21.288C-28.0889 -21.288 -31.8952 -20.7214 -34.768 -16.1178C-39.5797 -8.32715 -34.1216 -1.10307 -31.4643 2.36732C-30.818 3.21722 -30.0998 4.13787 -29.8125 4.63364C-27.0116 10.0871 -24.7135 17.807 -22.5589 25.3143C-20.0453 34.0965 -17.388 43.1621 -13.4381 50.2445C-12.0017 52.7942 -10.3499 54.7064 -9.05716 56.1229C-9.05716 56.1229 -9.05716 56.1229 -8.98535 56.1937C-10.9962 58.1768 -17.6035 59.5933 -22.4871 60.5849C-26.0062 61.2931 -29.6689 62.0722 -32.9725 63.2054C-44.5352 67.1715 -56.2415 72.2 -67.5887 77.0161C-80.085 82.3279 -92.9404 87.8521 -105.365 91.8183C-110.033 93.3056 -112.906 93.3057 -116.497 93.3057C-119.226 93.3057 -122.314 93.3056 -126.12 93.9431C-134.092 95.3595 -139.407 101.805 -138.976 109.666C-138.545 117.173 -133.087 123.264 -126.264 123.618C-122.888 123.831 -119.298 122.414 -112.762 119.652C-109.602 118.307 -105.652 116.678 -103.785 116.324C-91.5758 113.986 -76.7096 113.916 -62.346 113.916C-47.1924 113.916 -31.5361 113.774 -17.8189 111.153C-14.5153 110.516 -11.5708 109.383 -8.98535 108.391C-3.38356 106.267 -1.8754 105.983 0.135513 107.4C-0.367218 108.462 -1.44449 110.091 -2.16266 111.224C-3.67084 113.561 -5.39447 116.182 -6.47174 119.156C-9.9908 128.647 -11.9299 140.05 -13.7971 151.098C-15.6644 162.147 -17.6035 173.549 -21.0507 182.119C-21.4098 182.969 -22.5589 184.74 -23.5644 186.227C-26.868 191.185 -30.6025 196.851 -28.5916 202.871C-27.5144 206.058 -25.0007 208.537 -21.4816 209.882C-19.9016 210.449 -18.3935 210.803 -17.0289 210.945C-13.7253 211.228 -11.2117 210.378 -9.48807 209.387C-3.31174 205.987 -1.9472 198.692 -0.798126 192.814C-0.367218 190.618 0.135513 188.069 0.638245 186.935C5.01913 177.657 11.1236 168.096 17.0127 158.818C22.8299 149.682 28.7908 140.262 33.459 130.772C34.8953 127.868 35.6853 124.752 36.4035 122.06C37.1217 119.369 37.9117 116.04 38.9171 115.686C39.0608 115.686 39.2044 115.615 39.348 115.544C39.7071 116.111 40.0662 116.819 40.4253 117.386C41.5026 119.369 42.8671 121.848 45.0216 124.043C52.3471 131.48 61.3961 138.208 70.0861 144.724C78.1297 150.744 86.5323 156.906 92.9241 163.351C93.8577 164.272 94.7914 165.83 95.725 167.529C98.2386 171.85 104.056 181.978 117.27 177.091L119.209 176.383L123.734 171L126.75 163.351L125.458 160.447C121.939 152.444 120.43 144.158 120.646 134.596C121.364 120.148 120.861 105.558 119.066 91.2518L118.922 89.9769L118.348 88.8437C117.414 86.8606 116.911 85.3733 116.768 84.3109C117.342 84.3818 118.132 84.5943 119.066 84.8776L120.718 85.4442L122.441 85.2317C138.313 83.3903 154.113 81.5488 169.985 79.7782C178.89 83.1778 186.144 80.9114 190.165 77.441C194.044 74.0414 195.48 69.0838 193.972 64.551C193.038 61.8597 189.735 55.273 177.382 54.5648L168.62 54.8481C153.179 51.3777 137.523 48.1907 122.01 45.216C134.938 37.8503 145.926 28.1474 155.118 19.436C172.929 2.36736 191.386 -15.268 212.357 -30.566C225.356 -34.1781 232.61 -39.1357 235.123 -46.2181C236.488 -50.0426 236.919 -56.0627 231.389 -63.3576H231.245Z" fill="white" fill-opacity="0.15"/>
<path d="M231.245 541.642L224.638 535.976L215.948 534.772L213.219 537.18C201.01 548.017 187.077 559.065 168.261 566.431C144.92 576.63 120.287 587.82 97.8077 601.135C96.515 592.919 95.0787 584.633 93.6423 576.417C95.5814 567.706 92.565 562.961 90.4823 560.907C87.6096 558.003 83.4442 556.87 79.3506 557.861C74.036 559.207 69.5833 563.952 67.1415 570.68C61.1806 576.842 55.938 583.358 51.4134 590.086C48.8998 586.262 46.1707 581.375 45.0216 578.754L44.5907 577.763L43.8726 576.913C29.7963 560.34 16.0072 543.2 2.93642 525.849L-0.798126 515.862C-3.45538 509.63 -7.26172 506.018 -12.0017 505.168C-14.9462 504.672 -19.3989 505.026 -23.8516 509.701L-29.7407 516.641L-29.5253 519.687C-29.0943 526.061 -25.5753 530.806 -22.7025 534.56C-21.2662 536.472 -19.9735 538.243 -19.1835 539.943C-14.2999 550.779 -10.7808 565.369 -7.33354 579.463C-5.10719 588.67 -2.80902 598.16 -0.0799408 606.801C-1.58812 605.597 -3.02448 604.393 -4.46083 603.118C-7.11809 600.71 -12.0735 596.248 -14.4435 593.698C-14.7308 593.273 -15.0181 592.707 -15.3771 592.14C-17.2444 588.811 -20.1171 583.783 -26.0062 583.712C-28.0889 583.712 -31.8952 584.279 -34.768 588.882C-39.5797 596.673 -34.1216 603.897 -31.4643 607.367C-30.818 608.217 -30.0998 609.138 -29.8125 609.634C-27.0116 615.087 -24.7135 622.807 -22.5589 630.314C-20.0453 639.097 -17.388 648.162 -13.4381 655.244C-12.0017 657.794 -10.3499 659.706 -9.05716 661.123C-9.05716 661.123 -9.05716 661.123 -8.98535 661.194C-10.9962 663.177 -17.6035 664.593 -22.4871 665.585C-26.0062 666.293 -29.6689 667.072 -32.9725 668.205C-44.5352 672.172 -56.2415 677.2 -67.5887 682.016C-80.085 687.328 -92.9404 692.852 -105.365 696.818C-110.033 698.306 -112.906 698.306 -116.497 698.306C-119.226 698.306 -122.314 698.306 -126.12 698.943C-134.092 700.36 -139.407 706.805 -138.976 714.666C-138.545 722.173 -133.087 728.264 -126.264 728.618C-122.888 728.831 -119.298 727.414 -112.762 724.652C-109.602 723.307 -105.652 721.678 -103.785 721.324C-91.5758 718.986 -76.7096 718.916 -62.346 718.916C-47.1924 718.916 -31.5361 718.774 -17.8189 716.153C-14.5153 715.516 -11.5708 714.383 -8.98535 713.391C-3.38356 711.267 -1.8754 710.983 0.135513 712.4C-0.367218 713.462 -1.44449 715.091 -2.16266 716.224C-3.67084 718.561 -5.39447 721.182 -6.47174 724.156C-9.9908 733.647 -11.9299 745.05 -13.7971 756.098C-15.6644 767.147 -17.6035 778.549 -21.0507 787.119C-21.4098 787.969 -22.5589 789.74 -23.5644 791.227C-26.868 796.185 -30.6025 801.851 -28.5916 807.871C-27.5144 811.058 -25.0007 813.537 -21.4816 814.882C-19.9016 815.449 -18.3935 815.803 -17.0289 815.945C-13.7253 816.228 -11.2117 815.378 -9.48807 814.387C-3.31174 810.987 -1.9472 803.692 -0.798126 797.814C-0.367218 795.618 0.135513 793.069 0.638245 791.935C5.01913 782.657 11.1236 773.096 17.0127 763.818C22.8299 754.682 28.7908 745.262 33.459 735.772C34.8953 732.868 35.6853 729.752 36.4035 727.06C37.1217 724.369 37.9117 721.04 38.9171 720.686C39.0608 720.686 39.2044 720.615 39.348 720.544C39.7071 721.111 40.0662 721.819 40.4253 722.386C41.5026 724.369 42.8671 726.848 45.0216 729.043C52.3471 736.48 61.3961 743.208 70.0861 749.724C78.1297 755.744 86.5323 761.906 92.9241 768.351C93.8577 769.272 94.7914 770.83 95.725 772.529C98.2386 776.85 104.056 786.978 117.27 782.091L119.209 781.383L123.734 776L126.75 768.351L125.458 765.447C121.939 757.444 120.43 749.158 120.646 739.596C121.364 725.148 120.861 710.558 119.066 696.252L118.922 694.977L118.348 693.844C117.414 691.861 116.911 690.373 116.768 689.311C117.342 689.382 118.132 689.594 119.066 689.878L120.718 690.444L122.441 690.232C138.313 688.39 154.113 686.549 169.985 684.778C178.89 688.178 186.144 685.911 190.165 682.441C194.044 679.041 195.48 674.084 193.972 669.551C193.038 666.86 189.735 660.273 177.382 659.565L168.62 659.848C153.179 656.378 137.523 653.191 122.01 650.216C134.938 642.85 145.926 633.147 155.118 624.436C172.929 607.367 191.386 589.732 212.357 574.434C225.356 570.822 232.61 565.864 235.123 558.782C236.488 554.957 236.919 548.937 231.389 541.642H231.245Z" fill="white" fill-opacity="0.15"/>
</svg>
