<svg width="375" height="666" viewBox="0 0 375 666" fill="none" xmlns="http://www.w3.org/2000/svg">
<path d="M479.336 247.667C482.842 254.212 539.549 248.139 550.88 251.123C554.589 252.065 556.317 253.898 558.603 257.248C574.457 280.599 543.258 293.793 531.063 305.101C523.593 312.012 514.65 324.264 507.029 330.023C499.864 335.415 477.964 340.808 476.439 345.991C472.069 360.755 498.492 365.991 506.266 376.671C515.819 389.813 536.093 401.75 526.236 421.54C512.974 434.995 451.185 414.472 424.407 432.901C398.899 450.44 405.86 535.623 368.666 520.126C350.983 512.744 357.741 479.707 352.863 460.336C350.068 449.236 341.582 428.765 329.591 433.006C313.534 438.66 288.585 489.55 270.851 488.398C266.227 488.084 260.688 483.948 259.367 478.712C256.471 467.142 273.493 414.001 273.849 395.572C274.357 368.085 248.697 372.431 232.996 368.137C217.244 363.844 191.024 357.143 188.179 334.525C186.146 318.452 201.847 301.908 214.805 300.965C219.327 300.599 223.544 303.007 227.305 302.641C263.686 299.08 273.951 281.751 269.784 239.133C267.904 219.866 253.93 208.924 259.977 187.197C265.312 168.139 291.481 186.621 300.983 189.972C317.446 195.731 337.212 200.233 352.964 207.458C361.044 211.176 385.739 230.128 389.55 230.128C393.615 230.128 397.629 225.992 400.423 222.798L439.041 166.935C465.616 147.982 484.264 226.201 479.437 247.615L479.336 247.667Z" fill="white" fill-opacity="0.15"/>
<path d="M117.336 -29.3327C120.842 -22.7883 177.549 -28.8615 188.88 -25.8772C192.589 -24.9348 194.317 -23.1025 196.603 -19.7517C212.457 3.59887 181.258 16.7925 169.063 28.1013C161.593 35.0123 152.65 47.2635 145.029 53.0226C137.864 58.4153 115.964 63.8078 114.439 68.991C110.069 83.7553 136.492 88.9908 144.266 99.6713C153.819 112.813 174.093 124.75 164.236 144.54C150.974 157.995 89.1853 137.472 62.407 155.901C36.8991 173.44 43.8604 258.623 6.66551 243.126C-11.0173 235.744 -4.25922 202.707 -9.13724 183.336C-11.9319 172.236 -20.4177 151.765 -32.4095 156.006C-48.4663 161.66 -73.4153 212.55 -91.149 211.398C-95.7729 211.084 -101.312 206.948 -102.633 201.712C-105.529 190.142 -88.5067 137.001 -88.151 118.572C-87.6429 91.0851 -113.303 95.4306 -129.004 91.1375C-144.756 86.8443 -170.976 80.1427 -173.821 57.5251C-175.854 41.452 -160.153 24.9076 -147.195 23.9652C-142.673 23.5987 -138.456 26.0071 -134.695 25.6406C-98.3135 22.0804 -88.0494 4.75074 -92.216 -37.8667C-94.0961 -57.1335 -108.07 -68.0759 -102.023 -89.8035C-96.6875 -108.861 -70.519 -90.3792 -61.017 -87.0285C-44.5537 -81.2694 -24.7876 -76.7668 -9.03561 -69.5417C-0.95639 -65.8245 23.7386 -46.8719 27.5495 -46.8719C31.6145 -46.8719 35.6288 -51.0079 38.4234 -54.2016L77.0411 -110.065C103.616 -129.018 122.264 -50.7985 117.437 -29.3851L117.336 -29.3327Z" fill="white" fill-opacity="0.15"/>
<path d="M117.336 581.667C120.842 588.212 177.549 582.139 188.88 585.123C192.589 586.065 194.317 587.898 196.603 591.248C212.457 614.599 181.258 627.793 169.063 639.101C161.593 646.012 152.65 658.264 145.029 664.023C137.864 669.415 115.964 674.808 114.439 679.991C110.069 694.755 136.492 699.991 144.266 710.671C153.819 723.813 174.093 735.75 164.236 755.54C150.974 768.995 89.1853 748.472 62.407 766.901C36.8991 784.44 43.8604 869.623 6.66551 854.126C-11.0173 846.744 -4.25922 813.707 -9.13724 794.336C-11.9319 783.236 -20.4177 762.765 -32.4095 767.006C-48.4663 772.66 -73.4153 823.55 -91.149 822.398C-95.7729 822.084 -101.312 817.948 -102.633 812.712C-105.529 801.142 -88.5067 748.001 -88.151 729.572C-87.6429 702.085 -113.303 706.431 -129.004 702.137C-144.756 697.844 -170.976 691.143 -173.821 668.525C-175.854 652.452 -160.153 635.908 -147.195 634.965C-142.673 634.599 -138.456 637.007 -134.695 636.641C-98.3135 633.08 -88.0494 615.751 -92.216 573.133C-94.0961 553.866 -108.07 542.924 -102.023 521.197C-96.6875 502.139 -70.519 520.621 -61.017 523.972C-44.5537 529.731 -24.7876 534.233 -9.03561 541.458C-0.95639 545.176 23.7386 564.128 27.5495 564.128C31.6145 564.128 35.6288 559.992 38.4234 556.798L77.0411 500.935C103.616 481.982 122.264 560.201 117.437 581.615L117.336 581.667Z" fill="white" fill-opacity="0.15"/>
</svg>
