<svg width="375" height="666" viewBox="0 0 375 666" fill="none" xmlns="http://www.w3.org/2000/svg">
<path d="M576.522 314.406C574.692 309.824 572.605 306.455 567.853 303.76C563.358 301.2 553.79 298.606 538.572 294.564C528.907 292.003 513.849 287.994 507.171 285.131C513.239 265.794 512.79 226.143 500.493 209.231C494.681 201.213 486.526 198.35 477.6 201.18L476.541 201.517L428.027 239.315C424.431 241.471 422.665 241.875 421.895 241.875C419.583 240.022 413.418 233.285 409.277 228.737C403.465 222.403 397.975 216.407 394.571 213.678C385.967 206.806 375.725 200.54 365.803 194.509C360.12 191.039 354.726 187.772 349.75 184.403C348.401 183.493 346.314 181.742 344.131 179.855C335.912 172.915 324.706 163.381 314.368 165.234C310.001 166.009 306.309 168.704 303.676 173.05C295.971 185.717 297.833 196.834 299.502 206.603C300.433 212.128 301.332 217.35 300.562 222.808C297.993 240.797 293.627 251.645 286.788 256.866C280.206 261.92 270.028 262.897 254.841 259.932C254.039 259.764 252.69 259.056 251.406 258.349C249.351 257.237 246.782 255.822 243.764 255.148C235.192 253.295 224.307 256.226 216.088 262.627C209.249 267.95 205.043 275.058 204.208 282.57C201.479 306.927 226.202 321.211 240.971 329.768L241.774 330.239C245.081 332.16 248.901 333.777 252.594 335.36C267.813 341.862 273.72 345.601 270.67 356.752C268.936 363.119 261.937 375.887 255.773 387.172C245.273 406.442 238.82 418.604 238.948 425.981C239.077 434.269 245.594 441.478 251.823 443.701C263.703 447.946 278.857 437.536 294.879 426.554C304.351 420.052 315.106 412.674 320.468 412.506C321.72 412.472 322.684 412.91 323.679 413.921C327.403 417.761 329.458 427.632 329.587 435.448C329.683 440.434 328.431 446.599 327.147 453.1C324.193 467.856 320.5 486.25 333.985 496.322C337.902 499.253 341.852 501.072 345.769 501.712C348.337 502.15 350.906 502.083 353.474 501.544C366.638 498.647 375.5 483.588 384.875 467.62C392.741 454.246 400.864 440.4 409.919 437.739C423.115 433.831 436.953 443.87 449.154 452.763C460.776 461.219 471.725 469.17 481.806 463.948L482.77 463.443L483.54 462.634C497.378 447.879 487.65 431.439 481.164 420.558C479.174 417.189 477.279 414.022 476.027 411.125L475.257 409.407C471.34 400.446 465.496 387.139 469.253 379.323C472.849 377.942 483.926 376.325 490.732 375.348C498.663 374.203 505.501 373.226 509.097 371.979C514.523 370.126 520.528 366.522 526.371 363.085C530.352 360.694 534.141 358.47 537.384 356.954C539.952 355.741 543.516 354.596 547.305 353.383C559.024 349.61 572.316 345.365 577.229 334.046C579.765 328.252 579.572 321.649 576.683 314.406H576.522ZM453.006 345.837C444.98 346.073 435.861 346.309 428.252 354.36C414.606 368.745 424.142 381.883 430.435 390.575C433.517 394.82 435.893 398.29 437.178 401.557C435.091 400.715 432.907 399.806 430.66 398.829C415.248 392.259 397.782 384.848 385.581 393.472C382.467 395.662 380.059 399.031 377.94 401.995C377.298 402.905 376.431 404.118 375.628 405.128C373.188 396.167 368.115 380.57 354.084 373.832C350.007 371.878 346.668 370.733 343.874 370.261C337.292 369.149 333.504 371.507 329.33 374.809C327.66 376.123 326.087 377.369 323.743 378.38C311.575 383.534 300.819 387.846 294.558 390.137C296.934 384.141 302.713 374.573 305.86 369.318C311.896 359.279 315.363 353.383 315.973 348.802C317.322 338.594 311.286 330.037 306.437 323.131C305.442 321.75 304.158 319.897 303.066 318.179C314.304 317.943 322.491 314.911 327.981 309.016C337.646 298.64 336.554 282.099 335.494 266.097C334.724 254.576 333.921 242.684 336.875 233.116C337.678 230.556 338.834 230.017 339.829 229.747C350.36 226.917 378.293 247.13 389.402 258.652C392.067 261.414 394.603 265.861 397.076 270.207C401.089 277.248 405.231 284.491 411.492 287.59C425.523 294.496 432.554 284.154 436.76 277.955C438.173 275.9 439.489 273.946 440.902 272.498C454.259 258.921 474.261 241.942 479.559 240.797C479.944 240.932 480.329 241.471 480.618 241.942C484.953 248.983 484.343 270.038 482.256 276.641C480.683 281.593 475.321 283.345 467.358 285.434C461.515 286.95 455.992 288.399 452.525 292.778C447.002 299.718 445.557 309.757 448.704 319.56C451.979 329.835 459.364 337.348 467.968 339.234C471.404 339.975 476.188 338.459 486.687 334.922C493.975 332.463 510.189 327.039 515.968 327.746C514.556 330.037 506.722 337.179 464.051 344.793L461.675 345.231C459.01 345.736 456.121 345.803 453.07 345.871L453.006 345.837Z" fill="white" fill-opacity="0.15"/>
<path d="M233.522 18.4059C231.692 13.8243 229.605 10.4554 224.853 7.76038C220.358 5.20007 210.79 2.60609 195.572 -1.43649C185.907 -3.9968 170.849 -8.00571 164.171 -10.8692C170.239 -30.2063 169.79 -69.8573 157.493 -86.7688C151.681 -94.7867 143.526 -97.6502 134.6 -94.8203L133.541 -94.4835L85.027 -56.6853C81.431 -54.5292 79.6652 -54.1249 78.8946 -54.1249C76.5829 -55.9778 70.4184 -62.7155 66.2765 -67.2634C60.4651 -73.5968 54.9748 -79.5933 51.5714 -82.322C42.9667 -89.1944 32.7245 -95.4604 22.8034 -101.491C17.1205 -104.961 11.7265 -108.228 6.74985 -111.597C5.40135 -112.507 3.31439 -114.258 1.13112 -116.145C-7.0883 -123.085 -18.2935 -132.619 -28.632 -130.766C-32.9986 -129.991 -36.691 -127.296 -39.3237 -122.95C-47.0294 -110.283 -45.1672 -99.1661 -43.4976 -89.3966C-42.5665 -83.8717 -41.6677 -78.65 -42.4382 -73.1925C-45.0068 -55.203 -49.3733 -44.3553 -56.2121 -39.1337C-62.7941 -34.0804 -72.9721 -33.1035 -88.1587 -36.068C-88.9614 -36.2365 -90.3099 -36.9439 -91.5942 -37.6514C-93.6491 -38.7631 -96.2176 -40.178 -99.2357 -40.8518C-107.808 -42.7047 -118.693 -39.7738 -126.912 -33.373C-133.751 -28.0503 -137.957 -20.942 -138.792 -13.4295C-141.521 10.9271 -116.798 25.2109 -102.029 33.7677L-101.226 34.2393C-97.9193 36.1596 -94.0986 37.7766 -90.4062 39.36C-75.1875 45.8618 -69.2798 49.6012 -72.3299 60.752C-74.0637 67.1191 -81.0629 79.8869 -87.2275 91.1725C-97.7265 110.442 -104.18 122.604 -104.052 129.981C-103.923 138.269 -97.4056 145.478 -91.1768 147.701C-79.2972 151.946 -64.1425 141.536 -48.1211 130.554C-38.6495 124.052 -27.8937 116.674 -22.5318 116.506C-21.2796 116.472 -20.3164 116.91 -19.3211 117.921C-15.5967 121.761 -13.5417 131.632 -13.4133 139.448C-13.317 144.434 -14.5692 150.599 -15.8535 157.1C-18.8073 171.856 -22.4996 190.25 -9.01465 200.322C-5.09758 203.253 -1.14845 205.072 2.7686 205.712C5.33717 206.15 7.90582 206.083 10.4744 205.544C23.6383 202.647 32.4998 187.588 41.875 171.62C49.7413 158.246 57.8643 144.4 66.9185 141.739C80.1145 137.831 93.9528 147.87 106.154 156.763C117.776 165.219 128.725 173.17 138.806 167.948L139.77 167.443L140.54 166.634C154.378 151.879 144.65 135.439 138.164 124.558C136.174 121.189 134.279 118.022 133.027 115.125L132.257 113.407C128.34 104.446 122.496 91.1388 126.253 83.3231C129.849 81.9419 140.926 80.3249 147.732 79.3479C155.663 78.2025 162.501 77.2256 166.097 75.9791C171.523 74.1262 177.528 70.5216 183.371 67.0854C187.352 64.6935 191.141 62.4701 194.384 60.9541C196.952 59.7413 200.516 58.5959 204.305 57.3832C216.024 53.6101 229.316 49.3654 234.229 38.0461C236.765 32.2518 236.572 25.6488 233.683 18.4059H233.522ZM110.006 49.837C101.98 50.0728 92.8611 50.3087 85.2518 58.3601C71.6062 72.745 81.142 85.8834 87.435 94.575C90.5173 98.8197 92.8933 102.29 94.1776 105.557C92.0907 104.715 89.9073 103.806 87.6598 102.829C72.2484 96.2594 54.7822 88.848 42.5815 97.4722C39.4671 99.6619 37.0591 103.031 34.94 105.995C34.2978 106.905 33.4308 108.118 32.6282 109.128C30.188 100.167 25.1152 84.5696 11.0844 77.832C7.00684 75.878 3.66751 74.7326 0.874207 74.261C-5.70775 73.1493 -9.49629 75.5074 -13.6702 78.8089C-15.3398 80.1227 -16.913 81.3692 -19.2568 82.3798C-31.4254 87.5341 -42.1814 91.8462 -48.4422 94.137C-46.0663 88.1405 -40.287 78.5731 -37.1405 73.3177C-31.1044 63.2786 -27.6367 57.3831 -27.0267 52.8016C-25.6782 42.594 -31.7144 34.0372 -36.5626 27.1311C-37.5579 25.7499 -38.8421 23.897 -39.9338 22.1789C-28.6963 21.9431 -20.509 18.9112 -15.0187 13.0157C-5.35442 2.63976 -6.44617 -13.9012 -7.50571 -29.9031C-8.27628 -41.4245 -9.07898 -53.3164 -6.12512 -62.8839C-5.32245 -65.4442 -4.16644 -65.9832 -3.17113 -66.2527C7.36 -69.0825 35.2932 -48.8696 46.4022 -37.3482C49.0671 -34.5858 51.6034 -30.1389 54.0757 -25.7931C58.0891 -18.7523 62.2311 -11.5093 68.4919 -8.40999C82.5228 -1.50391 89.5542 -11.8462 93.7602 -18.0448C95.1729 -20.0998 96.4893 -22.0537 97.902 -23.5023C111.259 -37.0787 131.261 -54.0576 136.559 -55.203C136.944 -55.0682 137.329 -54.5292 137.618 -54.0576C141.953 -47.0167 141.343 -25.9616 139.256 -19.3587C137.683 -14.4065 132.321 -12.6547 124.358 -10.566C118.515 -9.05006 112.992 -7.60144 109.525 -3.22197C104.002 3.7178 102.557 13.7569 105.704 23.5602C108.979 33.8351 116.364 41.3476 124.968 43.2341C128.404 43.9753 133.188 42.4593 143.687 38.922C150.975 36.4628 167.189 31.0389 172.968 31.7464C171.556 34.0372 163.722 41.1791 121.051 48.7926L118.675 49.2306C116.01 49.7359 113.121 49.8033 110.07 49.8707L110.006 49.837Z" fill="white" fill-opacity="0.15"/>
<path d="M233.522 610.406C231.692 605.824 229.605 602.455 224.853 599.76C220.358 597.2 210.79 594.606 195.572 590.564C185.907 588.003 170.849 583.994 164.171 581.131C170.239 561.794 169.79 522.143 157.493 505.231C151.681 497.213 143.526 494.35 134.6 497.18L133.541 497.517L85.027 535.315C81.431 537.471 79.6652 537.875 78.8946 537.875C76.5829 536.022 70.4184 529.285 66.2765 524.737C60.4651 518.403 54.9748 512.407 51.5714 509.678C42.9667 502.806 32.7245 496.54 22.8034 490.509C17.1205 487.039 11.7265 483.772 6.74985 480.403C5.40135 479.493 3.31439 477.742 1.13112 475.855C-7.0883 468.915 -18.2935 459.381 -28.632 461.234C-32.9986 462.009 -36.691 464.704 -39.3237 469.05C-47.0294 481.717 -45.1672 492.834 -43.4976 502.603C-42.5665 508.128 -41.6677 513.35 -42.4382 518.808C-45.0068 536.797 -49.3733 547.645 -56.2121 552.866C-62.7941 557.92 -72.9721 558.897 -88.1587 555.932C-88.9614 555.764 -90.3099 555.056 -91.5942 554.349C-93.6491 553.237 -96.2176 551.822 -99.2357 551.148C-107.808 549.295 -118.693 552.226 -126.912 558.627C-133.751 563.95 -137.957 571.058 -138.792 578.57C-141.521 602.927 -116.798 617.211 -102.029 625.768L-101.226 626.239C-97.9193 628.16 -94.0986 629.777 -90.4062 631.36C-75.1875 637.862 -69.2798 641.601 -72.3299 652.752C-74.0637 659.119 -81.0629 671.887 -87.2275 683.172C-97.7265 702.442 -104.18 714.604 -104.052 721.981C-103.923 730.269 -97.4056 737.478 -91.1768 739.701C-79.2972 743.946 -64.1425 733.536 -48.1211 722.554C-38.6495 716.052 -27.8937 708.674 -22.5318 708.506C-21.2796 708.472 -20.3164 708.91 -19.3211 709.921C-15.5967 713.761 -13.5417 723.632 -13.4133 731.448C-13.317 736.434 -14.5692 742.599 -15.8535 749.1C-18.8073 763.856 -22.4996 782.25 -9.01465 792.322C-5.09758 795.253 -1.14845 797.072 2.7686 797.712C5.33717 798.15 7.90582 798.083 10.4744 797.544C23.6383 794.647 32.4998 779.588 41.875 763.62C49.7413 750.246 57.8643 736.4 66.9185 733.739C80.1145 729.831 93.9528 739.87 106.154 748.763C117.776 757.219 128.725 765.17 138.806 759.948L139.77 759.443L140.54 758.634C154.378 743.879 144.65 727.439 138.164 716.558C136.174 713.189 134.279 710.022 133.027 707.125L132.257 705.407C128.34 696.446 122.496 683.139 126.253 675.323C129.849 673.942 140.926 672.325 147.732 671.348C155.663 670.203 162.501 669.226 166.097 667.979C171.523 666.126 177.528 662.522 183.371 659.085C187.352 656.694 191.141 654.47 194.384 652.954C196.952 651.741 200.516 650.596 204.305 649.383C216.024 645.61 229.316 641.365 234.229 630.046C236.765 624.252 236.572 617.649 233.683 610.406H233.522ZM110.006 641.837C101.98 642.073 92.8611 642.309 85.2518 650.36C71.6062 664.745 81.142 677.883 87.435 686.575C90.5173 690.82 92.8933 694.29 94.1776 697.557C92.0907 696.715 89.9073 695.806 87.6598 694.829C72.2484 688.259 54.7822 680.848 42.5815 689.472C39.4671 691.662 37.0591 695.031 34.94 697.995C34.2978 698.905 33.4308 700.118 32.6282 701.128C30.188 692.167 25.1152 676.57 11.0844 669.832C7.00684 667.878 3.66751 666.733 0.874207 666.261C-5.70775 665.149 -9.49629 667.507 -13.6702 670.809C-15.3398 672.123 -16.913 673.369 -19.2568 674.38C-31.4254 679.534 -42.1814 683.846 -48.4422 686.137C-46.0663 680.141 -40.287 670.573 -37.1405 665.318C-31.1044 655.279 -27.6367 649.383 -27.0267 644.802C-25.6782 634.594 -31.7144 626.037 -36.5626 619.131C-37.5579 617.75 -38.8421 615.897 -39.9338 614.179C-28.6963 613.943 -20.509 610.911 -15.0187 605.016C-5.35442 594.64 -6.44617 578.099 -7.50571 562.097C-8.27628 550.576 -9.07898 538.684 -6.12512 529.116C-5.32245 526.556 -4.16644 526.017 -3.17113 525.747C7.36 522.917 35.2932 543.13 46.4022 554.652C49.0671 557.414 51.6034 561.861 54.0757 566.207C58.0891 573.248 62.2311 580.491 68.4919 583.59C82.5228 590.496 89.5542 580.154 93.7602 573.955C95.1729 571.9 96.4893 569.946 97.902 568.498C111.259 554.921 131.261 537.942 136.559 536.797C136.944 536.932 137.329 537.471 137.618 537.942C141.953 544.983 141.343 566.038 139.256 572.641C137.683 577.593 132.321 579.345 124.358 581.434C118.515 582.95 112.992 584.399 109.525 588.778C104.002 595.718 102.557 605.757 105.704 615.56C108.979 625.835 116.364 633.348 124.968 635.234C128.404 635.975 133.188 634.459 143.687 630.922C150.975 628.463 167.189 623.039 172.968 623.746C171.556 626.037 163.722 633.179 121.051 640.793L118.675 641.231C116.01 641.736 113.121 641.803 110.07 641.871L110.006 641.837Z" fill="white" fill-opacity="0.15"/>
</svg>
