<svg width="375" height="666" viewBox="0 0 375 666" fill="none" xmlns="http://www.w3.org/2000/svg">
<path d="M199.795 64.4275L195.85 57.4183L188.704 53.7594L185.636 55.0378C171.739 60.9009 156.352 66.4112 137.808 67.1606C114.486 69.0121 89.7614 71.4367 66.264 76.3299C67.6668 68.6594 68.982 60.9449 70.2094 53.2745C74.5494 46.2212 73.4096 41.1076 72.2698 38.639C70.6917 35.2005 67.4039 32.9523 63.5899 32.5996C58.5924 32.1588 53.2879 34.9801 49.1232 40.226C42.1091 43.8848 35.5334 48.0286 29.5714 52.5692C28.6069 48.4695 27.7302 43.3118 27.511 40.6227L27.4233 39.5647L27.0726 38.5949C19.9269 19.7274 13.3073 0.375011 7.34532 -18.8451L7.21381 -28.8079C6.81926 -35.1117 4.67122 -39.4319 0.813461 -41.636C-1.55382 -43.0026 -5.54312 -44.0165 -10.8475 -41.2393L-18.0808 -36.875L-18.8262 -34.0978C-20.4043 -28.367 -18.8261 -23.1212 -17.5109 -18.8892C-16.8533 -16.7732 -16.2397 -14.7895 -16.1082 -13.0703C-15.2314 -2.04955 -16.6342 11.9247 -17.9932 25.37C-18.87 34.1866 -19.7905 43.2677 -20.0974 51.6875C-21.018 50.1887 -21.8948 48.6899 -22.7277 47.1029C-24.3059 44.1493 -27.2431 38.7271 -28.5144 35.7736C-28.6459 35.3328 -28.7336 34.7156 -28.8213 34.0984C-29.435 30.6159 -30.3555 25.3259 -35.4408 23.4304C-37.1943 22.7691 -40.7453 22.152 -44.6031 25.37C-51.135 30.7922 -48.6362 38.8153 -47.4087 42.6505C-47.1018 43.5763 -46.7949 44.6783 -46.7073 45.1633C-45.9182 50.85 -46.3566 58.344 -46.795 65.5736C-47.2772 74.0816 -47.8032 82.8541 -46.5757 90.3042C-46.1374 92.9932 -45.2607 95.1974 -44.6031 96.7843C-44.6031 96.7843 -44.6031 96.8725 -44.5592 96.9166C-44.5592 96.9166 -44.5593 96.9166 -44.6031 96.9166C-46.9704 98.0627 -53.1077 97.2693 -57.6231 96.6962C-60.911 96.2554 -64.3303 95.8586 -67.4867 95.8586C-78.7531 95.8586 -90.3702 96.6962 -101.637 97.5338C-114.043 98.4154 -126.888 99.3852 -138.855 99.1207C-143.371 99.0326 -145.826 98.1509 -148.938 97.0488C-151.305 96.2113 -153.98 95.2414 -157.487 94.6684C-164.808 93.4781 -171.383 97.5779 -173.4 104.631C-175.329 111.376 -172.479 118.429 -166.693 120.81C-163.799 122.044 -160.292 121.868 -153.848 121.427C-150.692 121.206 -146.79 120.942 -145.08 121.206C-133.858 122.881 -120.969 127.334 -108.519 131.654C-95.4116 136.194 -81.8218 140.911 -69.1963 142.763C-66.1715 143.204 -63.2781 143.115 -60.6917 143.027C-55.2119 142.851 -53.8091 143.027 -52.4939 144.967C-53.283 145.76 -54.642 146.863 -55.6503 147.656C-57.6669 149.243 -59.9465 151.05 -61.8315 153.343C-67.7935 160.66 -72.9664 170.094 -77.964 179.263C-82.9616 188.433 -88.1345 197.911 -93.7019 204.435C-94.2718 205.096 -95.8501 206.286 -97.0776 207.256C-101.461 210.651 -106.415 214.486 -106.503 220.437C-106.547 223.611 -105.144 226.564 -102.47 228.769C-101.242 229.783 -100.058 230.532 -98.9187 231.017C-96.1569 232.295 -93.702 232.295 -91.9484 231.987C-85.5919 230.84 -82.1287 224.845 -79.3668 219.996C-78.3147 218.189 -77.131 216.117 -76.2981 215.235C-69.6785 208.358 -61.4808 201.79 -53.546 195.398C-45.7428 189.138 -37.6766 182.658 -30.7063 175.649C-28.5582 173.489 -26.9362 171.02 -25.5334 168.86C-24.1306 166.7 -22.3332 164.011 -21.4126 164.011C-21.2811 164.011 -21.1496 164.011 -21.0181 164.011C-20.8866 164.584 -20.755 165.377 -20.6673 165.95C-20.3166 168.022 -19.922 170.623 -18.7384 173.268C-14.7053 182.041 -8.96245 190.725 -3.39499 199.145C1.7341 206.903 7.08229 214.882 10.6332 222.509C11.1593 223.611 11.4662 225.286 11.773 227.005C12.606 231.59 14.5348 242.302 27.4671 241.993H29.3522L34.9196 238.599L39.8295 232.78L39.6104 229.827C39.0405 221.671 40.2679 213.957 43.4243 205.581C48.4657 193.061 52.4988 180.013 55.3483 166.876L55.6113 165.73L55.4798 164.54C55.2606 162.512 55.3483 161.057 55.4798 160.087C55.9621 160.352 56.532 160.749 57.2772 161.322L58.5484 162.292L60.1267 162.644C74.418 165.862 88.6655 169.08 102.913 172.298C109.576 177.985 116.59 178.205 121.106 176.354C125.49 174.547 128.295 170.623 128.339 166.127C128.339 163.482 127.506 156.649 117.073 152.241L109.401 149.86C97.0823 142.146 84.5446 134.519 72.0068 127.202C85.4213 124.601 97.9153 119.399 108.524 114.506C129.172 104.852 150.521 94.8888 173.317 87.7914C185.68 88.5849 193.483 86.3808 197.823 80.8704C200.146 77.9169 202.426 72.7151 199.883 64.6038L199.795 64.4275Z" fill="white" fill-opacity="0.15"/>
<path d="M192.795 543.427L188.85 536.418L181.704 532.759L178.636 534.038C164.739 539.901 149.352 545.411 130.808 546.161C107.486 548.012 82.7614 550.437 59.264 555.33C60.6668 547.659 61.982 539.945 63.2094 532.275C67.5494 525.221 66.4096 520.108 65.2698 517.639C63.6917 514.201 60.4039 511.952 56.5899 511.6C51.5924 511.159 46.2879 513.98 42.1232 519.226C35.1091 522.885 28.5334 527.029 22.5714 531.569C21.6069 527.469 20.7302 522.312 20.511 519.623L20.4233 518.565L20.0726 517.595C12.9269 498.727 6.30733 479.375 0.345322 460.155L0.213806 450.192C-0.18074 443.888 -2.32878 439.568 -6.18654 437.364C-8.55382 435.997 -12.5431 434.984 -17.8475 437.761L-25.0808 442.125L-25.8262 444.902C-27.4043 450.633 -25.8261 455.879 -24.5109 460.111C-23.8533 462.227 -23.2397 464.21 -23.1082 465.93C-22.2314 476.95 -23.6342 490.925 -24.9932 504.37C-25.87 513.187 -26.7905 522.268 -27.0974 530.688C-28.018 529.189 -28.8948 527.69 -29.7277 526.103C-31.3059 523.149 -34.2431 517.727 -35.5144 514.774C-35.6459 514.333 -35.7336 513.716 -35.8213 513.098C-36.435 509.616 -37.3555 504.326 -42.4408 502.43C-44.1943 501.769 -47.7453 501.152 -51.6031 504.37C-58.135 509.792 -55.6362 517.815 -54.4087 521.651C-54.1018 522.576 -53.7949 523.678 -53.7073 524.163C-52.9182 529.85 -53.3566 537.344 -53.795 544.574C-54.2772 553.082 -54.8032 561.854 -53.5757 569.304C-53.1374 571.993 -52.2607 574.197 -51.6031 575.784C-51.6031 575.784 -51.6031 575.873 -51.5592 575.917C-51.5592 575.917 -51.5593 575.917 -51.6031 575.917C-53.9704 577.063 -60.1077 576.269 -64.6231 575.696C-67.911 575.255 -71.3303 574.859 -74.4867 574.859C-85.7531 574.859 -97.3702 575.696 -108.637 576.534C-121.043 577.415 -133.888 578.385 -145.855 578.121C-150.371 578.033 -152.826 577.151 -155.938 576.049C-158.305 575.211 -160.98 574.241 -164.487 573.668C-171.808 572.478 -178.383 576.578 -180.4 583.631C-182.329 590.376 -179.479 597.429 -173.693 599.81C-170.799 601.044 -167.292 600.868 -160.848 600.427C-157.692 600.206 -153.79 599.942 -152.08 600.206C-140.858 601.881 -127.969 606.334 -115.519 610.654C-102.412 615.194 -88.8218 619.911 -76.1963 621.763C-73.1715 622.204 -70.2781 622.115 -67.6917 622.027C-62.2119 621.851 -60.8091 622.027 -59.4939 623.967C-60.283 624.76 -61.642 625.863 -62.6503 626.656C-64.6669 628.243 -66.9465 630.05 -68.8315 632.343C-74.7935 639.66 -79.9664 649.094 -84.964 658.263C-89.9616 667.433 -95.1345 676.911 -100.702 683.435C-101.272 684.096 -102.85 685.286 -104.078 686.256C-108.461 689.651 -113.415 693.486 -113.503 699.437C-113.547 702.611 -112.144 705.564 -109.47 707.769C-108.242 708.783 -107.058 709.532 -105.919 710.017C-103.157 711.295 -100.702 711.295 -98.9484 710.987C-92.5919 709.84 -89.1287 703.845 -86.3668 698.996C-85.3147 697.189 -84.131 695.117 -83.2981 694.235C-76.6785 687.358 -68.4808 680.79 -60.546 674.398C-52.7428 668.138 -44.6766 661.658 -37.7063 654.649C-35.5582 652.489 -33.9362 650.02 -32.5334 647.86C-31.1306 645.7 -29.3332 643.011 -28.4126 643.011C-28.2811 643.011 -28.1496 643.011 -28.0181 643.011C-27.8866 643.584 -27.755 644.377 -27.6673 644.95C-27.3166 647.022 -26.922 649.623 -25.7384 652.268C-21.7053 661.041 -15.9624 669.725 -10.395 678.145C-5.2659 685.903 0.0822906 693.882 3.63319 701.509C4.15926 702.611 4.46616 704.286 4.77303 706.005C5.60596 710.59 7.53479 721.302 20.4671 720.993H22.3522L27.9196 717.599L32.8295 711.78L32.6104 708.827C32.0405 700.671 33.2679 692.957 36.4243 684.581C41.4657 672.061 45.4988 659.013 48.3483 645.876L48.6113 644.73L48.4798 643.54C48.2606 641.512 48.3483 640.057 48.4798 639.087C48.9621 639.352 49.532 639.749 50.2772 640.322L51.5484 641.292L53.1267 641.644C67.418 644.862 81.6655 648.08 95.9129 651.298C102.576 656.985 109.59 657.205 114.106 655.354C118.49 653.547 121.295 649.623 121.339 645.127C121.339 642.482 120.506 635.649 110.073 631.241L102.401 628.86C90.0823 621.146 77.5446 613.519 65.0068 606.202C78.4213 603.601 90.9153 598.399 101.524 593.506C122.172 583.852 143.521 573.889 166.317 566.791C178.68 567.585 186.483 565.381 190.823 559.87C193.146 556.917 195.426 551.715 192.883 543.604L192.795 543.427Z" fill="white" fill-opacity="0.15"/>
<path d="M547.795 298.427L543.85 291.418L536.704 287.759L533.636 289.038C519.739 294.901 504.352 300.411 485.808 301.161C462.486 303.012 437.761 305.437 414.264 310.33C415.667 302.659 416.982 294.945 418.209 287.275C422.549 280.221 421.41 275.108 420.27 272.639C418.692 269.201 415.404 266.952 411.59 266.6C406.592 266.159 401.288 268.98 397.123 274.226C390.109 277.885 383.533 282.029 377.571 286.569C376.607 282.469 375.73 277.312 375.511 274.623L375.423 273.565L375.073 272.595C367.927 253.727 361.307 234.375 355.345 215.155L355.214 205.192C354.819 198.888 352.671 194.568 348.813 192.364C346.446 190.997 342.457 189.984 337.152 192.761L329.919 197.125L329.174 199.902C327.596 205.633 329.174 210.879 330.489 215.111C331.147 217.227 331.76 219.21 331.892 220.93C332.769 231.95 331.366 245.925 330.007 259.37C329.13 268.187 328.21 277.268 327.903 285.688C326.982 284.189 326.105 282.69 325.272 281.103C323.694 278.149 320.757 272.727 319.486 269.774C319.354 269.333 319.266 268.716 319.179 268.098C318.565 264.616 317.644 259.326 312.559 257.43C310.806 256.769 307.255 256.152 303.397 259.37C296.865 264.792 299.364 272.815 300.591 276.651C300.898 277.576 301.205 278.678 301.293 279.163C302.082 284.85 301.643 292.344 301.205 299.574C300.723 308.082 300.197 316.854 301.424 324.304C301.863 326.993 302.739 329.197 303.397 330.784C303.397 330.784 303.397 330.873 303.441 330.917C303.441 330.917 303.441 330.917 303.397 330.917C301.03 332.063 294.892 331.269 290.377 330.696C287.089 330.255 283.67 329.859 280.513 329.859C269.247 329.859 257.63 330.696 246.363 331.534C233.957 332.415 221.112 333.385 209.145 333.121C204.629 333.033 202.174 332.151 199.062 331.049C196.695 330.211 194.02 329.241 190.513 328.668C183.192 327.478 176.617 331.578 174.6 338.631C172.671 345.376 175.521 352.429 181.307 354.81C184.201 356.044 187.708 355.868 194.152 355.427C197.308 355.206 201.21 354.942 202.92 355.206C214.142 356.881 227.031 361.334 239.481 365.654C252.588 370.194 266.178 374.911 278.804 376.763C281.829 377.204 284.722 377.115 287.308 377.027C292.788 376.851 294.191 377.027 295.506 378.967C294.717 379.76 293.358 380.863 292.35 381.656C290.333 383.243 288.054 385.05 286.168 387.343C280.206 394.66 275.034 404.094 270.036 413.263C265.038 422.433 259.866 431.911 254.298 438.435C253.728 439.096 252.15 440.286 250.922 441.256C246.539 444.651 241.585 448.486 241.497 454.437C241.453 457.611 242.856 460.564 245.53 462.769C246.758 463.783 247.942 464.532 249.081 465.017C251.843 466.295 254.298 466.295 256.052 465.987C262.408 464.84 265.871 458.845 268.633 453.996C269.685 452.189 270.869 450.117 271.702 449.235C278.321 442.358 286.519 435.79 294.454 429.398C302.257 423.138 310.323 416.658 317.294 409.649C319.442 407.489 321.064 405.02 322.467 402.86C323.869 400.7 325.667 398.011 326.587 398.011C326.719 398.011 326.85 398.011 326.982 398.011C327.113 398.584 327.245 399.377 327.333 399.95C327.683 402.022 328.078 404.623 329.262 407.268C333.295 416.041 339.038 424.725 344.605 433.145C349.734 440.903 355.082 448.882 358.633 456.509C359.159 457.611 359.466 459.286 359.773 461.005C360.606 465.59 362.535 476.302 375.467 475.993H377.352L382.92 472.599L387.83 466.78L387.61 463.827C387.04 455.671 388.268 447.957 391.424 439.581C396.466 427.061 400.499 414.013 403.348 400.876L403.611 399.73L403.48 398.54C403.261 396.512 403.348 395.057 403.48 394.087C403.962 394.352 404.532 394.749 405.277 395.322L406.548 396.292L408.127 396.644C422.418 399.862 436.665 403.08 450.913 406.298C457.576 411.985 464.59 412.205 469.106 410.354C473.49 408.547 476.295 404.623 476.339 400.127C476.339 397.482 475.506 390.649 465.073 386.241L457.401 383.86C445.082 376.146 432.545 368.519 420.007 361.202C433.421 358.601 445.915 353.399 456.524 348.506C477.172 338.852 498.521 328.889 521.317 321.791C533.68 322.585 541.483 320.381 545.823 314.87C548.146 311.917 550.426 306.715 547.883 298.604L547.795 298.427Z" fill="white" fill-opacity="0.15"/>
</svg>
