<svg width="375" height="666" viewBox="0 0 375 666" fill="none" xmlns="http://www.w3.org/2000/svg">
<path d="M324.945 170.848L363.554 225.16C366.315 228.278 370.331 232.301 374.448 232.301C378.264 232.301 402.965 213.845 411.048 210.224C426.813 203.184 446.544 198.859 463.012 193.227C472.501 190.008 498.709 172.005 504.031 190.561C510.105 211.683 496.098 222.294 494.19 241.052C490.023 282.49 500.265 299.287 536.665 302.757C540.38 303.109 544.647 300.796 549.166 301.097C562.119 302.053 577.834 318.145 575.825 333.735C572.964 355.762 546.756 362.249 530.991 366.423C515.277 370.597 489.621 366.323 490.123 393.077C490.475 410.98 507.495 462.627 504.633 473.892C503.328 479.021 497.805 482.994 493.186 483.296C475.413 484.402 450.511 434.917 434.445 429.436C422.445 425.362 413.961 445.227 411.199 456.039C406.329 474.897 413.107 507.032 395.384 514.173C358.181 529.26 365.16 446.434 339.655 429.385C312.845 411.482 251.091 431.397 237.837 418.322C227.996 399.111 248.28 387.494 257.819 374.721C265.601 364.311 292.01 359.182 287.642 344.849C286.085 339.77 264.195 334.54 257.016 329.31C249.384 323.728 240.448 311.809 232.967 305.12C220.717 294.107 189.539 281.233 205.404 258.603C207.663 255.334 209.42 253.574 213.136 252.618C224.432 249.752 281.165 255.636 284.679 249.299C279.86 228.479 298.486 152.442 325.045 170.848H324.945Z" fill="white" fill-opacity="0.15"/>
<path d="M-38.0551 -133.152L0.553543 -78.8396C3.31488 -75.7217 7.3313 -71.6985 11.4482 -71.6985C15.2639 -71.6985 39.9653 -90.1547 48.0485 -93.7756C63.8132 -100.816 83.5445 -105.141 100.012 -110.773C109.501 -113.992 135.709 -131.995 141.031 -113.439C147.105 -92.3172 133.098 -81.7061 131.19 -62.9482C127.023 -21.5098 137.265 -4.71312 173.665 -1.24315C177.38 -0.891129 181.647 -3.20441 186.166 -2.90266C199.119 -1.94716 214.834 14.1454 212.825 29.7351C209.964 51.7618 183.756 58.2492 167.991 62.4232C152.277 66.5972 126.621 62.3226 127.123 89.0766C127.475 106.98 144.495 158.627 141.633 169.892C140.328 175.021 134.805 178.994 130.186 179.296C112.413 180.402 87.5107 130.917 71.4447 125.436C59.4454 121.362 50.9606 141.227 48.1992 152.039C43.3292 170.897 50.1069 203.032 32.3841 210.173C-4.81871 225.26 2.1601 142.434 -23.3447 125.385C-50.1548 107.482 -111.909 127.397 -125.163 114.322C-135.004 95.1113 -114.72 83.4944 -105.181 70.7209C-97.3988 60.3111 -70.9903 55.1815 -75.3583 40.8491C-76.9147 35.7698 -98.8048 30.5397 -105.984 25.3097C-113.616 19.7275 -122.552 7.80894 -130.033 1.12045C-142.283 -9.89291 -173.461 -22.767 -157.596 -45.3972C-155.337 -48.666 -153.58 -50.4261 -149.864 -51.3816C-138.568 -54.2481 -81.835 -48.3643 -78.3206 -54.7007C-83.1404 -75.5205 -64.514 -151.558 -37.9549 -133.152H-38.0551Z" fill="white" fill-opacity="0.15"/>
<path d="M-44.0551 466.848L-5.44646 521.16C-2.68512 524.278 1.3313 528.301 5.44821 528.301C9.26389 528.301 33.9653 509.845 42.0485 506.224C57.8132 499.184 77.5445 494.859 94.0121 489.227C103.501 486.008 129.709 468.005 135.031 486.561C141.105 507.683 127.098 518.294 125.19 537.052C121.023 578.49 131.265 595.287 167.665 598.757C171.38 599.109 175.647 596.796 180.166 597.097C193.119 598.053 208.834 614.145 206.825 629.735C203.964 651.762 177.756 658.249 161.991 662.423C146.277 666.597 120.621 662.323 121.123 689.077C121.475 706.98 138.495 758.627 135.633 769.892C134.328 775.021 128.805 778.994 124.186 779.296C106.413 780.402 81.5107 730.917 65.4447 725.436C53.4454 721.362 44.9606 741.227 42.1992 752.039C37.3292 770.897 44.1069 803.032 26.3841 810.173C-10.8187 825.26 -3.8399 742.434 -29.3447 725.385C-56.1548 707.482 -117.909 727.397 -131.163 714.322C-141.004 695.111 -120.72 683.494 -111.181 670.721C-103.399 660.311 -76.9903 655.182 -81.3583 640.849C-82.9147 635.77 -104.805 630.54 -111.984 625.31C-119.616 619.728 -128.552 607.809 -136.033 601.12C-148.283 590.107 -179.461 577.233 -163.596 554.603C-161.337 551.334 -159.58 549.574 -155.864 548.618C-144.568 545.752 -87.835 551.636 -84.3206 545.299C-89.1404 524.479 -70.514 448.442 -43.9549 466.848H-44.0551Z" fill="white" fill-opacity="0.15"/>
</svg>
