<svg width="375" height="666" viewBox="0 0 375 666" fill="none" xmlns="http://www.w3.org/2000/svg">
<path d="M572.12 330.567C570.459 326.186 568.493 322.922 563.772 320.344C559.358 317.896 549.83 315.319 534.708 311.324C525.093 308.79 510.146 304.881 503.503 302.089C510.277 283.662 511.238 245.82 499.482 229.584C493.931 221.895 485.846 219.103 476.755 221.724L475.662 222.024L425.663 257.761C421.948 259.823 420.2 260.167 419.413 260.167C417.184 258.406 411.24 251.92 407.176 247.539C401.581 241.439 396.249 235.683 392.928 233.02C384.536 226.362 374.484 220.349 364.738 214.507C359.143 211.157 353.855 207.978 348.96 204.757C347.649 203.898 345.638 202.18 343.453 200.376C335.455 193.675 324.529 184.526 314.083 186.201C309.669 186.931 305.866 189.466 303.069 193.589C294.896 205.616 296.382 216.225 297.693 225.589C298.436 230.873 299.136 235.855 298.174 241.053C294.94 258.234 290.176 268.5 283.183 273.482C276.409 278.25 266.138 279.109 251.016 276.188C250.229 276.017 248.875 275.329 247.607 274.642C245.597 273.568 243.062 272.194 240.046 271.549C231.523 269.702 220.466 272.451 211.987 278.508C204.95 283.533 200.449 290.277 199.356 297.45C195.772 320.688 220.073 334.519 234.583 342.766L235.37 343.196C238.647 345.043 242.406 346.632 246.034 348.178C261.112 354.492 266.881 358.1 263.428 368.753C261.462 374.809 253.988 386.965 247.432 397.704C236.2 416.002 229.294 427.599 229.163 434.643C228.989 442.547 235.282 449.505 241.445 451.653C253.201 455.776 268.804 445.983 285.281 435.588C295.027 429.446 306.041 422.488 311.461 422.359C312.728 422.359 313.646 422.745 314.651 423.733C318.235 427.427 319.983 436.877 319.808 444.308C319.721 449.076 318.279 454.917 316.705 461.146C313.209 475.234 308.882 492.759 322.037 502.467C325.884 505.302 329.773 507.063 333.663 507.707C336.242 508.137 338.82 508.094 341.399 507.578C354.729 504.915 364.126 490.569 374.091 475.449C382.438 462.735 391.092 449.591 400.27 447.1C413.644 443.449 427.193 453.156 439.124 461.704C450.488 469.865 461.196 477.554 471.51 472.614L472.472 472.142L473.258 471.369C487.681 457.409 478.459 441.602 472.384 431.164C470.505 427.943 468.713 424.893 467.577 422.101L466.877 420.426C463.25 411.835 457.874 399.078 461.895 391.647C465.522 390.358 476.711 388.898 483.573 387.996C491.571 386.965 498.476 386.063 502.148 384.903C507.655 383.185 513.817 379.792 519.805 376.528C523.913 374.294 527.759 372.189 531.081 370.729C533.703 369.612 537.331 368.538 541.177 367.421C553.065 363.899 566.57 359.947 571.902 349.209C574.655 343.711 574.699 337.397 572.033 330.439L572.12 330.567ZM446.991 359.69C438.906 359.862 429.771 360.033 421.817 367.636C407.613 381.295 416.703 393.881 422.735 402.214C425.663 406.294 427.936 409.602 429.116 412.737C427.062 411.921 424.876 411.019 422.691 410.074C407.438 403.717 390.174 396.458 377.631 404.619C374.44 406.681 371.905 409.902 369.676 412.694C369.021 413.553 368.103 414.713 367.229 415.658C365.087 407.067 360.542 392.163 346.731 385.591C342.71 383.701 339.389 382.584 336.591 382.111C330.036 380.995 326.102 383.228 321.819 386.321C320.114 387.567 318.454 388.769 316.094 389.671C303.725 394.482 292.755 398.563 286.374 400.667C288.952 394.955 295.115 385.848 298.436 380.866C304.861 371.33 308.532 365.746 309.275 361.365C310.98 351.658 305.255 343.41 300.622 336.796C299.704 335.464 298.436 333.66 297.431 332.028C308.707 331.856 317.055 329.064 322.737 323.48C332.789 313.644 332.308 297.837 331.784 282.588C331.434 271.592 331.041 260.21 334.362 251.104C335.236 248.655 336.417 248.183 337.465 247.925C348.13 245.305 375.445 264.806 386.197 275.888C388.776 278.551 391.179 282.846 393.496 286.97C397.255 293.713 401.188 300.672 407.35 303.679C421.205 310.379 428.635 300.543 433.049 294.701C434.535 292.725 435.934 290.878 437.42 289.504C451.318 276.618 471.991 260.553 477.367 259.522C477.716 259.651 478.11 260.167 478.372 260.639C482.48 267.383 481.125 287.485 478.765 293.756C477.017 298.481 471.598 300.07 463.512 302.046C457.568 303.464 451.974 304.795 448.346 308.919C442.577 315.491 440.785 325.069 443.539 334.476C446.467 344.312 453.591 351.572 462.201 353.376C465.654 354.106 470.505 352.688 481.125 349.424C488.512 347.147 504.989 342.079 510.758 342.809C509.228 344.957 501.142 351.743 458.049 358.702L455.645 359.088C452.935 359.518 450.051 359.604 446.991 359.647V359.69Z" fill="white" fill-opacity="0.15"/>
<path d="M211.12 57.5674C209.459 53.1861 207.493 49.9217 202.772 47.3445C198.358 44.8961 188.83 42.3189 173.708 38.3243C164.093 35.79 149.146 31.8813 142.503 29.0893C149.277 10.6623 150.238 -27.1796 138.482 -43.416C132.931 -51.1047 124.846 -53.8966 115.755 -51.2765L114.662 -50.9758L64.6631 -15.2386C60.9481 -13.1768 59.1999 -12.8332 58.4132 -12.8332C56.1842 -14.5943 50.2403 -21.0803 46.1757 -25.4615C40.5814 -31.5609 35.2493 -37.3166 31.9277 -39.9797C23.5363 -46.6375 13.484 -52.651 3.73764 -58.4926C-1.85666 -61.843 -7.14502 -65.0216 -12.04 -68.2431C-13.3512 -69.1021 -15.3616 -70.8203 -17.5469 -72.6243C-25.545 -79.325 -36.4714 -88.4741 -46.917 -86.7989C-51.3312 -86.0687 -55.1336 -83.5345 -57.9308 -79.4109C-66.1037 -67.384 -64.6177 -56.7745 -63.3065 -47.4107C-62.5635 -42.1274 -61.8642 -37.1448 -62.8258 -31.9475C-66.06 -14.7661 -70.8238 -4.50025 -77.8167 0.482346C-84.591 5.25017 -94.8618 6.10924 -109.984 3.18841C-110.771 3.01659 -112.125 2.32934 -113.393 1.64209C-115.403 0.568253 -117.938 -0.806259 -120.954 -1.45056C-129.477 -3.29755 -140.534 -0.548531 -149.013 5.5079C-156.05 10.5334 -160.551 17.2771 -161.644 24.4503C-165.228 47.6881 -140.927 61.5191 -126.417 69.7661L-125.63 70.1957C-122.353 72.0427 -118.594 73.6319 -114.966 75.1783C-99.888 81.4924 -94.1189 85.1005 -97.5716 95.7529C-99.5383 101.809 -107.012 113.965 -113.568 124.704C-124.8 143.002 -131.706 154.599 -131.837 161.643C-132.011 169.547 -125.718 176.505 -119.555 178.653C-107.799 182.776 -92.1958 172.983 -75.7189 162.588C-65.9725 156.446 -54.9587 149.488 -49.5393 149.359C-48.2718 149.359 -47.354 149.745 -46.3488 150.733C-42.7649 154.427 -41.0167 163.877 -41.1916 171.308C-41.279 176.076 -42.7212 181.917 -44.2946 188.146C-47.791 202.234 -52.1179 219.759 -38.9625 229.467C-35.1165 232.302 -31.2267 234.063 -27.3369 234.707C-24.7583 235.137 -22.1797 235.094 -19.6011 234.578C-6.27089 231.915 3.12576 217.569 13.0906 202.449C21.4384 189.735 30.0921 176.591 39.2702 174.1C52.6441 170.449 66.1928 180.156 78.1244 188.704C89.4878 196.865 100.196 204.554 110.51 199.614L111.472 199.142L112.258 198.369C126.681 184.409 117.459 168.602 111.384 158.164C109.505 154.943 107.713 151.893 106.577 149.101L105.877 147.426C102.25 138.835 96.8741 126.078 100.895 118.647C104.522 117.358 115.711 115.898 122.573 114.996C130.571 113.965 137.476 113.063 141.148 111.903C146.655 110.185 152.817 106.792 158.805 103.528C162.913 101.294 166.759 99.1892 170.081 97.7288C172.703 96.612 176.331 95.5382 180.177 94.4214C192.065 90.8992 205.57 86.9475 210.902 76.2092C213.655 70.7111 213.699 64.397 211.033 57.4385L211.12 57.5674ZM85.9914 86.6898C77.9059 86.8616 68.7714 87.0334 60.817 94.6362C46.6128 108.295 55.7035 120.881 61.7348 129.214C64.6631 133.294 66.9358 136.602 68.1158 139.737C66.0617 138.921 63.8764 138.019 61.6911 137.074C46.4379 130.717 29.1743 123.458 16.6308 131.619C13.4403 133.681 10.9054 136.902 8.67639 139.694C8.0208 140.553 7.103 141.713 6.2289 142.658C4.08733 134.067 -0.458054 119.163 -14.269 112.591C-18.2899 110.701 -21.6115 109.584 -24.4086 109.111C-30.9644 107.995 -34.8979 110.228 -39.1811 113.321C-40.8856 114.567 -42.5464 115.769 -44.9065 116.671C-57.2751 121.482 -68.2452 125.563 -74.6262 127.667C-72.0476 121.955 -65.8851 112.848 -62.5635 107.866C-56.1388 98.3301 -52.4675 92.7462 -51.7245 88.365C-50.02 78.6575 -55.7455 70.4104 -60.3783 63.7956C-61.2961 62.4641 -62.5635 60.66 -63.5687 59.0278C-52.2927 58.856 -43.945 56.064 -38.2633 50.4801C-28.211 40.6437 -28.6918 24.8369 -29.2162 9.58847C-29.5659 -1.40759 -29.9592 -12.7903 -26.6376 -21.8964C-25.7635 -24.3447 -24.5835 -24.8172 -23.5345 -25.0749C-12.8704 -27.6951 14.4455 -8.19424 25.1971 2.88774C27.7757 5.55085 30.1795 9.84618 32.4958 13.9697C36.2545 20.7134 40.188 27.6718 46.3505 30.6786C60.2051 37.3793 67.6351 27.543 72.0493 21.7013C73.5353 19.7255 74.9339 17.8785 76.4199 16.504C90.3182 3.61794 110.991 -12.4466 116.367 -13.4775C116.716 -13.3486 117.11 -12.8332 117.372 -12.3607C121.48 -5.61703 120.125 14.4852 117.765 20.7563C116.017 25.4812 110.598 27.0705 102.512 29.0463C96.5681 30.4638 90.9738 31.7954 87.3462 35.9189C81.5771 42.4908 79.7852 52.0694 82.5387 61.4761C85.4669 71.3125 92.5909 78.5716 101.201 80.3756C104.654 81.1058 109.505 79.6884 120.125 76.4239C127.512 74.1474 143.989 69.0789 149.758 69.8091C148.228 71.9568 140.142 78.7434 97.0489 85.7018L94.645 86.0884C91.9353 86.518 89.0508 86.6039 85.9914 86.6468V86.6898Z" fill="white" fill-opacity="0.15"/>
<path d="M211.12 614.567C209.459 610.186 207.493 606.922 202.772 604.344C198.358 601.896 188.83 599.319 173.708 595.324C164.093 592.79 149.146 588.881 142.503 586.089C149.277 567.662 150.238 529.82 138.482 513.584C132.931 505.895 124.846 503.103 115.755 505.724L114.662 506.024L64.6631 541.761C60.9481 543.823 59.1999 544.167 58.4132 544.167C56.1842 542.406 50.2403 535.92 46.1757 531.539C40.5814 525.439 35.2493 519.683 31.9277 517.02C23.5363 510.362 13.484 504.349 3.73764 498.507C-1.85666 495.157 -7.14502 491.978 -12.04 488.757C-13.3512 487.898 -15.3616 486.18 -17.5469 484.376C-25.545 477.675 -36.4714 468.526 -46.917 470.201C-51.3312 470.931 -55.1336 473.466 -57.9308 477.589C-66.1037 489.616 -64.6177 500.225 -63.3065 509.589C-62.5635 514.873 -61.8642 519.855 -62.8258 525.053C-66.06 542.234 -70.8238 552.5 -77.8167 557.482C-84.591 562.25 -94.8618 563.109 -109.984 560.188C-110.771 560.017 -112.125 559.329 -113.393 558.642C-115.403 557.568 -117.938 556.194 -120.954 555.549C-129.477 553.702 -140.534 556.451 -149.013 562.508C-156.05 567.533 -160.551 574.277 -161.644 581.45C-165.228 604.688 -140.927 618.519 -126.417 626.766L-125.63 627.196C-122.353 629.043 -118.594 630.632 -114.966 632.178C-99.888 638.492 -94.1189 642.1 -97.5716 652.753C-99.5383 658.809 -107.012 670.965 -113.568 681.704C-124.8 700.002 -131.706 711.599 -131.837 718.643C-132.011 726.547 -125.718 733.505 -119.555 735.653C-107.799 739.776 -92.1958 729.983 -75.7189 719.588C-65.9725 713.446 -54.9587 706.488 -49.5393 706.359C-48.2718 706.359 -47.354 706.745 -46.3488 707.733C-42.7649 711.427 -41.0167 720.877 -41.1916 728.308C-41.279 733.076 -42.7212 738.917 -44.2946 745.146C-47.791 759.234 -52.1179 776.759 -38.9625 786.467C-35.1165 789.302 -31.2267 791.063 -27.3369 791.707C-24.7583 792.137 -22.1797 792.094 -19.6011 791.578C-6.27089 788.915 3.12576 774.569 13.0906 759.449C21.4384 746.735 30.0921 733.591 39.2702 731.1C52.6441 727.449 66.1928 737.156 78.1244 745.704C89.4878 753.865 100.196 761.554 110.51 756.614L111.472 756.142L112.258 755.369C126.681 741.409 117.459 725.602 111.384 715.164C109.505 711.943 107.713 708.893 106.577 706.101L105.877 704.426C102.25 695.835 96.8741 683.078 100.895 675.647C104.522 674.358 115.711 672.898 122.573 671.996C130.571 670.965 137.476 670.063 141.148 668.903C146.655 667.185 152.817 663.792 158.805 660.528C162.913 658.294 166.759 656.189 170.081 654.729C172.703 653.612 176.331 652.538 180.177 651.421C192.065 647.899 205.57 643.947 210.902 633.209C213.655 627.711 213.699 621.397 211.033 614.439L211.12 614.567ZM85.9914 643.69C77.9059 643.862 68.7714 644.033 60.817 651.636C46.6128 665.295 55.7035 677.881 61.7348 686.214C64.6631 690.294 66.9358 693.602 68.1158 696.737C66.0617 695.921 63.8764 695.019 61.6911 694.074C46.4379 687.717 29.1743 680.458 16.6308 688.619C13.4403 690.681 10.9054 693.902 8.67639 696.694C8.0208 697.553 7.103 698.713 6.2289 699.658C4.08733 691.067 -0.458054 676.163 -14.269 669.591C-18.2899 667.701 -21.6115 666.584 -24.4086 666.111C-30.9644 664.995 -34.8979 667.228 -39.1811 670.321C-40.8856 671.567 -42.5464 672.769 -44.9065 673.671C-57.2751 678.482 -68.2452 682.563 -74.6262 684.667C-72.0476 678.955 -65.8851 669.848 -62.5635 664.866C-56.1388 655.33 -52.4675 649.746 -51.7245 645.365C-50.02 635.658 -55.7455 627.41 -60.3783 620.796C-61.2961 619.464 -62.5635 617.66 -63.5687 616.028C-52.2927 615.856 -43.945 613.064 -38.2633 607.48C-28.211 597.644 -28.6918 581.837 -29.2162 566.588C-29.5659 555.592 -29.9592 544.21 -26.6376 535.104C-25.7635 532.655 -24.5835 532.183 -23.5345 531.925C-12.8704 529.305 14.4455 548.806 25.1971 559.888C27.7757 562.551 30.1795 566.846 32.4958 570.97C36.2545 577.713 40.188 584.672 46.3505 587.679C60.2051 594.379 67.6351 584.543 72.0493 578.701C73.5353 576.725 74.9339 574.878 76.4199 573.504C90.3182 560.618 110.991 544.553 116.367 543.522C116.716 543.651 117.11 544.167 117.372 544.639C121.48 551.383 120.125 571.485 117.765 577.756C116.017 582.481 110.598 584.07 102.512 586.046C96.5681 587.464 90.9738 588.795 87.3462 592.919C81.5771 599.491 79.7852 609.069 82.5387 618.476C85.4669 628.312 92.5909 635.572 101.201 637.376C104.654 638.106 109.505 636.688 120.125 633.424C127.512 631.147 143.989 626.079 149.758 626.809C148.228 628.957 140.142 635.743 97.0489 642.702L94.645 643.088C91.9353 643.518 89.0508 643.604 85.9914 643.647V643.69Z" fill="white" fill-opacity="0.15"/>
</svg>
