<svg width="375" height="666" viewBox="0 0 375 666" fill="none" xmlns="http://www.w3.org/2000/svg">
<path d="M484.952 234.481C481.192 232.105 478.994 229.47 476.839 226.921C474.156 223.746 471.65 220.743 466.856 218.994C454.543 214.544 441.416 209.792 428.355 205.148C402.761 196.055 395.109 194.759 364.81 200.331C309.246 210.548 274.241 227.936 248.472 290.36C245.085 298.547 242.755 306.906 240.512 314.984C239.105 320.039 237.653 325.266 235.96 330.385C234.157 335.785 232.508 340.019 231.057 343.756C226.616 355.139 223.933 362.029 225.406 381.858C227.473 409.895 239.479 435.945 262.06 461.454C279.497 481.154 324.176 482.471 353.75 483.335C357.906 483.465 361.776 483.573 365.184 483.724C371.802 484.026 379.784 479.102 386.16 475.149C388.469 473.723 390.646 472.362 392.339 471.542C399.001 468.301 402.168 467.934 405.51 467.567C409.556 467.113 413.733 466.66 423.144 461.519C443.769 450.265 461.491 425.166 469.407 396.071C477.037 368.034 474.574 340.71 462.481 319.11C438.668 276.536 399.551 259.3 357.884 273.037C341.898 278.308 319.581 288.308 304.035 306.107C288.556 323.862 283.476 345.008 288.951 368.963C295.68 398.382 319.185 426.484 347.374 426.462C350.32 426.462 353.332 426.16 356.367 425.512C374.089 421.753 381.807 406.655 381.565 393.371C381.323 380.26 373.275 365.701 355.795 362.699C352.651 362.159 349.155 363.023 345.768 363.844C339.392 365.399 336.226 365.788 334.708 362.461C330.641 353.476 332.29 349.912 339.348 343.756C362.875 323.214 382.466 325.266 406.983 350.862C422.045 366.587 420.967 394.278 404.234 421.386C393.328 439.055 375.804 448.127 349.133 449.898C330.883 451.108 292.799 435.75 280.068 422.013C250.692 390.369 261.4 340.861 281.19 305.092C295.768 278.761 317.756 260.12 344.779 251.2C369.428 243.056 396.89 243.553 422.111 252.582C445.858 261.092 466.197 276.882 479.433 297.035C494.165 319.456 500.08 346.996 496.584 376.674C490.559 427.758 465.405 464.37 443.153 478C438.404 480.916 431.082 482.471 423.32 484.134C410.633 486.856 397.506 489.664 391.965 499.103C386.93 507.7 386.27 517.182 390.272 523.878C393.394 529.127 399.023 532 405.971 532C406.983 532 408.038 531.935 409.094 531.806C422.067 530.294 432.093 527.032 440.669 521.502C445.726 518.241 451.179 515.368 456.456 512.582C464.723 508.218 473.255 503.704 481.082 497.418C514.658 470.418 543.462 410.37 543.99 366.284C544.518 320.773 524.025 259.084 484.952 234.438V234.481Z" fill="white" fill-opacity="0.15"/>
<path d="M129.952 -74.5189C126.192 -76.8949 123.994 -79.5301 121.839 -82.0789C119.156 -85.2541 116.65 -88.2565 111.856 -90.0061C99.5429 -94.4558 86.4161 -99.2078 73.3552 -103.852C47.7612 -112.945 40.1095 -114.241 9.81003 -108.669C-45.7536 -98.4518 -80.7585 -81.0637 -106.528 -18.6396C-109.915 -10.4532 -112.245 -2.09401 -114.488 5.98441C-115.895 11.0388 -117.347 16.266 -119.04 21.3852C-120.843 26.7852 -122.492 31.0189 -123.943 34.7557C-128.384 46.1389 -131.067 53.0293 -129.594 72.8582C-127.527 100.895 -115.521 126.945 -92.9398 152.454C-75.5033 172.154 -30.8238 173.471 -1.25 174.335C2.90573 174.465 6.77565 174.573 10.1838 174.724C16.8022 175.026 24.7838 170.102 31.1603 166.149C33.469 164.723 35.646 163.362 37.339 162.542C44.0014 159.301 47.1676 158.934 50.5098 158.567C54.5556 158.113 58.7332 157.66 68.1441 152.519C88.7688 141.265 106.491 116.166 114.407 87.071C122.037 59.0341 119.574 31.7101 107.481 10.11C83.6676 -32.4637 44.551 -49.7005 2.88376 -35.9628C-13.1015 -30.6924 -35.4193 -20.6916 -50.9648 -2.89318C-66.4443 14.8621 -71.5235 36.0085 -66.0485 59.9629C-59.3202 89.3822 -35.815 117.484 -7.62643 117.462C-4.68004 117.462 -1.66776 117.16 1.36658 116.512C19.0889 112.753 26.8067 97.655 26.5649 84.371C26.323 71.2597 18.2753 56.7013 0.794876 53.6989C-2.34941 53.1589 -5.84549 54.0229 -9.23164 54.8437C-15.6082 56.3989 -18.7744 56.7877 -20.2915 53.4613C-24.3593 44.4757 -22.7102 40.9117 -15.6521 34.7557C7.87505 14.214 27.4664 16.2661 51.983 41.8621C67.0447 57.5869 65.9673 85.2782 49.2345 112.386C38.3284 130.055 20.804 139.127 -5.86742 140.898C-24.1174 142.108 -62.2007 126.75 -74.9317 113.013C-104.308 81.3686 -93.5995 31.8613 -73.8103 -3.90839C-59.2323 -30.2388 -37.2442 -48.8797 -10.221 -57.8005C14.4275 -65.9437 41.8905 -65.4469 67.1107 -56.4181C90.8577 -47.9077 111.197 -32.1181 124.433 -11.9652C139.165 10.4556 145.08 37.9957 141.584 67.6741C135.559 118.758 110.405 155.37 88.1532 169C83.4038 171.916 76.0818 173.471 68.32 175.134C55.6329 177.856 42.5061 180.664 36.9651 190.103C31.9299 198.7 31.2703 208.182 35.2721 214.878C38.3944 220.127 44.0233 223 50.9715 223C51.9829 223 53.0384 222.935 54.0939 222.806C67.0668 221.294 77.0932 218.032 85.6686 212.502C90.7258 209.241 96.1788 206.368 101.456 203.582C109.723 199.218 118.255 194.704 126.082 188.418C159.658 161.418 188.462 101.37 188.99 57.2845C189.518 11.7732 169.025 -49.9165 129.952 -74.5621V-74.5189Z" fill="white" fill-opacity="0.15"/>
<path d="M129.952 535.481C126.192 533.105 123.994 530.47 121.839 527.921C119.156 524.746 116.65 521.743 111.856 519.994C99.5429 515.544 86.4161 510.792 73.3552 506.148C47.7612 497.055 40.1095 495.759 9.81003 501.331C-45.7536 511.548 -80.7585 528.936 -106.528 591.36C-109.915 599.547 -112.245 607.906 -114.488 615.984C-115.895 621.039 -117.347 626.266 -119.04 631.385C-120.843 636.785 -122.492 641.019 -123.943 644.756C-128.384 656.139 -131.067 663.029 -129.594 682.858C-127.527 710.895 -115.521 736.945 -92.9398 762.454C-75.5033 782.154 -30.8238 783.471 -1.25 784.335C2.90573 784.465 6.77565 784.573 10.1838 784.724C16.8022 785.026 24.7838 780.102 31.1603 776.149C33.469 774.723 35.646 773.362 37.339 772.542C44.0014 769.301 47.1676 768.934 50.5098 768.567C54.5556 768.113 58.7332 767.66 68.1441 762.519C88.7688 751.265 106.491 726.166 114.407 697.071C122.037 669.034 119.574 641.71 107.481 620.11C83.6676 577.536 44.551 560.3 2.88376 574.037C-13.1015 579.308 -35.4193 589.308 -50.9648 607.107C-66.4443 624.862 -71.5235 646.008 -66.0485 669.963C-59.3202 699.382 -35.815 727.484 -7.62643 727.462C-4.68004 727.462 -1.66776 727.16 1.36658 726.512C19.0889 722.753 26.8067 707.655 26.5649 694.371C26.323 681.26 18.2753 666.701 0.794876 663.699C-2.34941 663.159 -5.84549 664.023 -9.23164 664.844C-15.6082 666.399 -18.7744 666.788 -20.2915 663.461C-24.3593 654.476 -22.7102 650.912 -15.6521 644.756C7.87505 624.214 27.4664 626.266 51.983 651.862C67.0447 667.587 65.9673 695.278 49.2345 722.386C38.3284 740.055 20.804 749.127 -5.86742 750.898C-24.1174 752.108 -62.2007 736.75 -74.9317 723.013C-104.308 691.369 -93.5995 641.861 -73.8103 606.092C-59.2323 579.761 -37.2442 561.12 -10.221 552.2C14.4275 544.056 41.8905 544.553 67.1107 553.582C90.8577 562.092 111.197 577.882 124.433 598.035C139.165 620.456 145.08 647.996 141.584 677.674C135.559 728.758 110.405 765.37 88.1532 779C83.4038 781.916 76.0818 783.471 68.32 785.134C55.6329 787.856 42.5061 790.664 36.9651 800.103C31.9299 808.7 31.2703 818.182 35.2721 824.878C38.3944 830.127 44.0233 833 50.9715 833C51.9829 833 53.0384 832.935 54.0939 832.806C67.0668 831.294 77.0932 828.032 85.6686 822.502C90.7258 819.241 96.1788 816.368 101.456 813.582C109.723 809.218 118.255 804.704 126.082 798.418C159.658 771.418 188.462 711.37 188.99 667.284C189.518 621.773 169.025 560.084 129.952 535.438V535.481Z" fill="white" fill-opacity="0.15"/>
</svg>
