<svg width="42" height="50" viewBox="0 0 42 50" fill="none" xmlns="http://www.w3.org/2000/svg">
<path d="M1.5 12.5L6.5 12L9 47L18.5 49.5L30.5 47.5H39.5L37.5 9L40 8.5L41.5 5L19 0L0 9.5L1.5 12.5Z" fill="white"/>
<path d="M39.0165 6.40902L34.9074 6.83383L26.1813 7.7367L20.5652 8.32001L14.9479 8.90331L3 10.1388L19.2285 2.5L39.0165 6.40902Z" fill="#D15059"/>
<path d="M34.9073 6.83386L37.0573 45.6798H29.9239L28.8184 45.8097L27.961 25.9554L17.2654 27.7326L18.5528 47.0321L17.976 47.101L11.2012 45.5018L8.50684 9.57237L14.9478 8.90334L16.0897 14.9754L17.0861 20.2679L21.2927 19.86L26.1812 19.3819V13.8049V7.73674L34.9073 6.83386Z" fill="#EFA1D3"/>
<path d="M27.9612 25.9554L28.8186 45.8096L18.553 47.0321L17.2656 27.7326L27.9612 25.9554Z" fill="#D15059"/>
<path d="M26.1814 13.8049V19.3819L21.2928 19.86L20.9473 14.4116L26.1814 13.8049Z" fill="#9EE0EF"/>
<path d="M26.1815 7.73682V13.805L20.9474 14.4116L20.5654 8.32012L26.1815 7.73682Z" fill="#9EE0EF"/>
<path d="M20.9472 14.4116L21.2928 19.8601L17.0863 20.268L16.0898 14.9754L20.9472 14.4116Z" fill="#9EE0EF"/>
<path d="M20.5651 8.32007L20.947 14.4116L16.0897 14.9754L14.9478 8.90337L20.5651 8.32007Z" fill="#9EE0EF"/>
<path d="M20.9945 8.29064L20.1401 8.34454L20.8681 19.8837L21.7225 19.8298L20.9945 8.29064Z" fill="#EFA1D3"/>
<path d="M26.1322 13.3772L16.0415 14.5536L16.1403 15.4014L26.231 14.225L26.1322 13.3772Z" fill="#EFA1D3"/>
<path d="M20.1377 36.903C20.5201 36.903 20.8302 36.593 20.8302 36.2106C20.8302 35.8282 20.5201 35.5182 20.1377 35.5182C19.7553 35.5182 19.4453 35.8282 19.4453 36.2106C19.4453 36.593 19.7553 36.903 20.1377 36.903Z" fill="#EFA1D3"/>
</svg>
