<svg width="375" height="533" viewBox="0 0 375 533" fill="none" xmlns="http://www.w3.org/2000/svg">
<path d="M386.585 49.1841L380.525 48.307L374.659 48.2168L368.797 48.3798H362.934L357.068 48.3486L351.206 49.3955L345.343 48.5948L339.481 48.9137L333.615 49.4961L327.753 49.4684L321.887 48.4318L316.024 49.4059L310.162 48.9067L304.296 49.7215L298.433 49.3436L292.571 49.0974L286.705 49.347L280.843 49.3817L274.977 48.8409L269.114 49.042L263.248 48.6017L257.386 49.1945L251.524 48.5705L245.661 49.6972L239.799 48.8409L233.936 49.7804L228.074 49.3679L222.208 48.2966L216.346 48.938L210.483 48.463L204.621 49.1737L198.755 48.3728L192.892 49.0558L187.03 49.0108L181.167 48.938L175.302 48.7056L169.439 48.5116L163.577 48.6328L157.711 49.5966L151.848 48.5878L145.983 48.2481L140.12 49.4545L134.254 48.5116L128.388 48.203L122.526 48.7508L116.66 49.0177L110.798 49.659L104.932 48.2168L99.0692 49.7596L93.2033 48.7958L87.3374 48.3798L81.475 48.6606L75.6091 49.2534L69.7432 48.3798L63.8773 49.2084L58.0148 49.6244L52.1489 49.659L46.2865 49.5828L40.4206 49.8012L34.5547 48.8582L28.6888 49.0523L22.8264 49.6348L16.9605 49.4233L11.0946 48.671L5.22866 48.3452L-0.637237 49.2777L-6.5066 49.4476L-12.5077 49.1217L-12.2581 42.9715L-11.7901 36.9461L-11.9877 30.9242L-11.8802 24.9023L-11.8213 18.8769L-11.953 12.8516L-13 6.82966L-11.849 1.3139L-6.51007 0.221883L-0.647637 0.176812L5.21826 0.994982L11.0807 0.877122L16.9431 1.03311L22.809 1.3798L28.6715 1.59821L34.5339 0.0762604L40.3998 1.56702L46.2622 1.57049L52.1247 1.05736L57.9906 0.637887L63.853 0.617108L69.7154 0.89443L75.5813 0.523497L81.4438 0.381344L87.3097 1.34514L93.1721 0.270424L99.0345 0.578936L104.9 0.679488L110.763 1.50807L116.629 1.44912L122.488 1.2134L128.35 0.676018L134.216 1.07471L140.078 1.11978L145.941 0.0832009L151.803 0.547746L157.669 1.13366L163.532 0.662179L169.394 0.322393L175.257 0.693369L181.119 0L186.985 0.0520111L192.847 0.509616L198.71 0.838949L204.576 1.40752L210.438 0.766159L216.304 1.05389L222.166 0.693369L228.032 1.38327L233.895 0.88402L239.761 1.28272L245.623 1.27577L251.489 1.4214L257.351 0.74885L263.217 0.0727902L269.083 0.273852L274.946 1.44912L280.812 0.752278L286.674 0.655238L292.54 0.266954L298.406 0.603227L304.272 1.33473L310.134 1.23764L316 0.260013L321.862 0.180283L327.728 1.59127L333.594 1.54967L339.457 0.762689L345.323 0.8147L351.188 1.61899L357.054 0.468015L362.92 1.11284L368.786 1.2966L374.652 0.0832009L380.521 0.0104107L386.1 1.08512L386.269 6.82619L386.821 12.8481L386.471 18.8735L386.061 24.8954L385.826 30.9173L386.838 36.9427L386.71 42.9611L386.585 49.1841Z" fill="white"/>
<rect y="32.23" width="375" height="500" fill="white"/>
</svg>
