<svg width="23" height="19" viewBox="0 0 23 19" fill="none" xmlns="http://www.w3.org/2000/svg">
<path d="M22.7084 2.2386L22.3031 1.89245L21.7701 1.8189L21.6028 1.96601C20.8539 2.62802 19.9994 3.30302 18.8453 3.75301C17.4138 4.37608 15.9029 5.05973 14.5242 5.87318C14.4449 5.37127 14.3568 4.86502 14.2687 4.3631C14.3877 3.83089 14.2027 3.541 14.0749 3.41552C13.8987 3.23811 13.6432 3.16888 13.3922 3.22946C13.0662 3.31167 12.7931 3.60157 12.6433 4.01262C12.2777 4.38906 11.9562 4.78714 11.6787 5.19819C11.5245 4.96454 11.3571 4.66598 11.2867 4.50589L11.2602 4.44531L11.2162 4.39339C10.3528 3.3809 9.50711 2.33379 8.70543 1.2737L8.47638 0.663618C8.3134 0.282853 8.07995 0.0621772 7.78923 0.0102546C7.60863 -0.0200336 7.33553 0.00160059 7.06243 0.287175L6.70124 0.711214L6.71445 0.897267C6.74088 1.28669 6.95672 1.57659 7.13291 1.80592C7.22101 1.92274 7.30029 2.03091 7.34875 2.13476C7.64827 2.79677 7.86411 3.68811 8.07554 4.54916C8.21209 5.11165 8.35305 5.69146 8.52043 6.21934C8.42793 6.14578 8.33983 6.07222 8.25174 5.99434C8.08876 5.84722 7.78482 5.57463 7.63947 5.41886C7.62185 5.3929 7.60423 5.35828 7.5822 5.32367C7.46768 5.1203 7.29148 4.8131 6.93029 4.80877C6.80255 4.80877 6.56909 4.84339 6.3929 5.12464C6.09778 5.60059 6.43254 6.04193 6.59552 6.25395C6.63516 6.30587 6.67921 6.36212 6.69683 6.39241C6.86862 6.72558 7.00957 7.19721 7.14172 7.65586C7.29589 8.19239 7.45887 8.74624 7.70113 9.17892C7.78923 9.33469 7.89054 9.45152 7.96983 9.53806C7.96983 9.53806 7.96983 9.53805 7.97423 9.54238C7.8509 9.66353 7.44565 9.75008 7.14612 9.81065C6.93029 9.85392 6.70564 9.90152 6.50302 9.97075C5.79384 10.2131 5.07586 10.5203 4.37989 10.8145C3.61345 11.139 2.82499 11.4765 2.06296 11.7188C1.77664 11.8097 1.60045 11.8097 1.38021 11.8097C1.21282 11.8097 1.02342 11.8097 0.789961 11.8486C0.301025 11.9351 -0.0249322 12.3289 0.00149677 12.8092C0.0279257 13.2678 0.362693 13.6399 0.781151 13.6616C0.988178 13.6746 1.20842 13.588 1.60926 13.4193C1.80307 13.3371 2.04534 13.2375 2.15986 13.2159C2.90868 13.0731 3.82048 13.0688 4.70145 13.0688C5.63086 13.0688 6.59112 13.0601 7.43244 12.9C7.63506 12.8611 7.81566 12.7919 7.97423 12.7313C8.31781 12.6015 8.41031 12.5842 8.53364 12.6707C8.50281 12.7356 8.43674 12.8351 8.39269 12.9044C8.30019 13.0472 8.19447 13.2073 8.1284 13.389C7.91256 13.9688 7.79363 14.6654 7.67911 15.3404C7.56458 16.0154 7.44565 16.712 7.23422 17.2356C7.2122 17.2875 7.14172 17.3957 7.08005 17.4865C6.87743 17.7894 6.64838 18.1356 6.77171 18.5034C6.83779 18.6981 6.99196 18.8495 7.20779 18.9317C7.3047 18.9663 7.3972 18.988 7.48089 18.9966C7.68351 19.0139 7.83768 18.962 7.9434 18.9014C8.32221 18.6937 8.4059 18.2481 8.47638 17.8889C8.50281 17.7548 8.53364 17.599 8.56448 17.5298C8.83317 16.963 9.20758 16.3789 9.56878 15.812C9.92557 15.2539 10.2912 14.6784 10.5775 14.0986C10.6656 13.9212 10.714 13.7308 10.7581 13.5664C10.8021 13.402 10.8506 13.1986 10.9123 13.177C10.9211 13.177 10.9299 13.1726 10.9387 13.1683C10.9607 13.2029 10.9827 13.2462 11.0048 13.2808C11.0708 13.402 11.1545 13.5534 11.2867 13.6875C11.736 14.1419 12.291 14.5529 12.8239 14.951C13.3173 15.3188 13.8326 15.6952 14.2247 16.089C14.2819 16.1452 14.3392 16.2404 14.3965 16.3442C14.5506 16.6082 14.9074 17.2269 15.7179 16.9284L15.8368 16.8851L16.1143 16.5563L16.2994 16.089L16.2201 15.9116C16.0042 15.4226 15.9117 14.9164 15.9249 14.3322C15.969 13.4496 15.9382 12.5582 15.828 11.6842L15.8192 11.6063L15.784 11.5371C15.7267 11.4159 15.6959 11.3251 15.6871 11.2602C15.7223 11.2645 15.7708 11.2775 15.828 11.2948L15.9293 11.3294L16.0351 11.3164C17.0085 11.2039 17.9776 11.0914 18.9511 10.9832C19.4973 11.1909 19.9421 11.0525 20.1888 10.8404C20.4267 10.6328 20.5148 10.3299 20.4223 10.053C20.365 9.88854 20.1624 9.48613 19.4048 9.44286L18.8674 9.46018C17.9203 9.24816 16.9601 9.05345 16.0086 8.87172C16.8015 8.42172 17.4754 7.82894 18.0393 7.29673C19.1317 6.25395 20.2637 5.17655 21.5499 4.24195C22.3472 4.02128 22.7921 3.7184 22.9462 3.28571C23.0299 3.05206 23.0564 2.68427 22.7172 2.2386H22.7084Z" fill="#B48DD3"/>
</svg>
