<svg width="28" height="25" viewBox="0 0 28 25" fill="none" xmlns="http://www.w3.org/2000/svg">
<path d="M27.815 11.0835C27.6784 10.7436 27.5225 10.4937 27.1677 10.2938C26.8321 10.1039 26.1177 9.91143 24.9814 9.61154C24.2598 9.4216 23.1354 9.1242 22.6368 8.91178C23.0899 7.47728 23.0563 4.53581 22.1381 3.28124C21.7042 2.68645 21.0953 2.47402 20.4288 2.68395L20.3497 2.70894L16.7273 5.51296C16.4588 5.67291 16.327 5.7029 16.2695 5.7029C16.0969 5.56545 15.6366 5.06562 15.3273 4.72824C14.8934 4.2584 14.4835 3.81356 14.2293 3.61113C13.5869 3.10131 12.8221 2.63647 12.0813 2.18912C11.657 1.93171 11.2542 1.6893 10.8827 1.43938C10.782 1.37191 10.6261 1.24195 10.4631 1.102C9.84941 0.587182 9.01275 -0.120072 8.24081 0.01738C7.91477 0.0748599 7.63907 0.27479 7.44249 0.597178C6.86713 1.53685 7.00618 2.36156 7.13084 3.08631C7.20037 3.49617 7.26748 3.88353 7.20995 4.28839C7.01816 5.62293 6.69213 6.42765 6.1815 6.81501C5.69004 7.18988 4.93009 7.26235 3.79615 7.04243C3.73622 7.02994 3.63553 6.97745 3.53963 6.92497C3.3862 6.8425 3.19442 6.73753 2.96907 6.68755C2.32898 6.5501 1.51629 6.76752 0.90257 7.24236C0.391939 7.63722 0.0778859 8.16454 0.0155553 8.72185C-0.188218 10.5287 1.65773 11.5883 2.7605 12.2231L2.82043 12.2581C3.06736 12.4006 3.35264 12.5205 3.62833 12.638C4.76467 13.1203 5.20578 13.3977 4.97803 14.2249C4.84858 14.6973 4.32597 15.6444 3.86568 16.4816C3.08175 17.9111 2.59988 18.8133 2.60947 19.3606C2.61906 19.9754 3.10572 20.5102 3.5708 20.6752C4.45781 20.9901 5.58936 20.2178 6.78563 19.4031C7.49284 18.9208 8.29594 18.3735 8.69629 18.361C8.78979 18.3585 8.86171 18.391 8.93603 18.4659C9.21412 18.7508 9.36755 19.4831 9.37714 20.0629C9.38433 20.4328 9.29083 20.8901 9.19494 21.3724C8.97439 22.4671 8.6987 23.8316 9.70557 24.5788C9.99805 24.7962 10.2929 24.9312 10.5854 24.9787C10.7772 25.0112 10.969 25.0062 11.1608 24.9662C12.1437 24.7513 12.8053 23.6341 13.5053 22.4496C14.0927 21.4574 14.6992 20.4303 15.3753 20.2328C16.3606 19.9429 17.3938 20.6877 18.3048 21.3474C19.1726 21.9747 19.9901 22.5645 20.7429 22.1772L20.8148 22.1397L20.8723 22.0797C21.9056 20.9851 21.1792 19.7655 20.6949 18.9583C20.5463 18.7084 20.4049 18.4734 20.3114 18.2585L20.2538 18.1311C19.9614 17.4663 19.525 16.4791 19.8055 15.8993C20.074 15.7969 20.9011 15.6769 21.4093 15.6044C22.0015 15.5195 22.5121 15.447 22.7806 15.3545C23.1858 15.2171 23.6341 14.9497 24.0704 14.6948C24.3676 14.5173 24.6505 14.3524 24.8927 14.2399C25.0844 14.15 25.3506 14.065 25.6334 13.975C26.5085 13.6951 27.501 13.3802 27.8678 12.5405C28.0571 12.1107 28.0427 11.6208 27.827 11.0835H27.815ZM18.5925 13.4152C17.9931 13.4327 17.3123 13.4502 16.7441 14.0475C15.7253 15.1146 16.4373 16.0893 16.9071 16.7341C17.1373 17.0489 17.3147 17.3063 17.4106 17.5488C17.2548 17.4863 17.0917 17.4188 16.9239 17.3463C15.7732 16.859 14.4691 16.3092 13.5581 16.949C13.3255 17.1114 13.1457 17.3613 12.9875 17.5813C12.9396 17.6487 12.8748 17.7387 12.8149 17.8137C12.6327 17.1489 12.2539 15.9918 11.2063 15.492C10.9018 15.347 10.6525 15.2621 10.4439 15.2271C9.95249 15.1446 9.66961 15.3195 9.35796 15.5645C9.2333 15.6619 9.11583 15.7544 8.94082 15.8294C8.03224 16.2117 7.22913 16.5316 6.76165 16.7016C6.93905 16.2567 7.37057 15.547 7.60551 15.1571C8.05621 14.4124 8.31513 13.975 8.36067 13.6351C8.46136 12.8779 8.01066 12.2431 7.64866 11.7308C7.57434 11.6283 7.47845 11.4909 7.39694 11.3634C8.23601 11.3459 8.84733 11.121 9.25727 10.6837C9.97887 9.91393 9.89735 8.68685 9.81824 7.49977C9.7607 6.64507 9.70077 5.76288 9.92132 5.05312C9.98126 4.86319 10.0676 4.8232 10.1419 4.80321C10.9282 4.59328 13.0139 6.09276 13.8434 6.94746C14.0423 7.15239 14.2317 7.48228 14.4163 7.80466C14.716 8.32698 15.0253 8.86429 15.4927 9.09421C16.5404 9.60654 17.0654 8.8393 17.3794 8.37946C17.4849 8.22702 17.5832 8.08207 17.6887 7.97461C18.686 6.96746 20.1795 5.7079 20.5751 5.62292C20.6038 5.63292 20.6326 5.67291 20.6542 5.70789C20.9778 6.23021 20.9323 7.79217 20.7764 8.282C20.659 8.64937 20.2586 8.77932 19.6641 8.93427C19.2278 9.04673 18.8154 9.1542 18.5565 9.47908C18.1442 9.9939 18.0363 10.7386 18.2712 11.4659C18.5158 12.2281 19.0671 12.7854 19.7096 12.9254C19.9661 12.9804 20.3233 12.8679 21.1073 12.6055C21.6515 12.4231 22.8621 12.0207 23.2936 12.0732C23.1882 12.2431 22.6032 12.7729 19.4172 13.3377L19.2397 13.3702C19.0408 13.4077 18.825 13.4127 18.5973 13.4177L18.5925 13.4152Z" fill="#7AA2DF"/>
</svg>
