<svg width="28" height="24" viewBox="0 0 28 24" fill="none" xmlns="http://www.w3.org/2000/svg">
<path d="M27.8596 10.7752C27.7356 10.4487 27.5888 10.2053 27.2363 10.0133C26.9067 9.83077 26.1953 9.63868 25.0662 9.34094C24.3483 9.15205 23.2322 8.86071 22.7362 8.65262C23.242 7.27918 23.3138 4.45866 22.436 3.2485C22.0215 2.67543 21.4178 2.46733 20.739 2.66262L20.6574 2.68503L16.9242 5.34868C16.6468 5.50235 16.5163 5.52796 16.4575 5.52796C16.2911 5.3967 15.8473 4.91327 15.5438 4.58672C15.1261 4.13211 14.728 3.70311 14.4799 3.50462C13.8534 3.00838 13.1028 2.56017 12.3751 2.12477C11.9574 1.87505 11.5625 1.63814 11.197 1.39803C11.0991 1.334 10.949 1.20594 10.7858 1.07148C10.1886 0.572047 9.3728 -0.109871 8.59287 0.0149869C8.26327 0.0694124 7.97936 0.258301 7.7705 0.565644C7.16026 1.46206 7.27121 2.25283 7.36911 2.95076C7.42459 3.34454 7.4768 3.71591 7.40501 4.10329C7.16352 5.38389 6.80782 6.14905 6.28569 6.52042C5.77987 6.87579 5.01298 6.93982 3.88387 6.72212C3.82513 6.70931 3.72396 6.65809 3.62933 6.60686C3.47921 6.52683 3.28994 6.42438 3.06476 6.37636C2.42841 6.23869 1.60279 6.44359 0.9697 6.895C0.444302 7.26957 0.108178 7.77221 0.0265946 8.30686C-0.240999 10.0389 1.57342 11.0697 2.65685 11.6844L2.71559 11.7164C2.96034 11.8541 3.24099 11.9726 3.51185 12.0878C4.6377 12.5584 5.06846 12.8274 4.81065 13.6213C4.6638 14.0727 4.10577 14.9788 3.61627 15.7791C2.77759 17.143 2.26199 18.0074 2.2522 18.5324C2.23914 19.1215 2.70906 19.6401 3.16919 19.8002C4.04703 20.1076 5.21205 19.3776 6.44233 18.6029C7.17005 18.145 7.99241 17.6264 8.39707 17.6168C8.49171 17.6168 8.56023 17.6456 8.63529 17.7192C8.90289 17.9946 9.03342 18.6989 9.02036 19.2528C9.01384 19.6081 8.90615 20.0435 8.78867 20.5077C8.5276 21.5578 8.20453 22.864 9.1868 23.5876C9.47397 23.7989 9.7644 23.9301 10.0548 23.9782C10.2474 24.0102 10.4399 24.007 10.6325 23.9686C11.6278 23.7701 12.3294 22.7008 13.0734 21.5738C13.6967 20.6262 14.3429 19.6465 15.0282 19.4609C16.0268 19.1887 17.0384 19.9123 17.9293 20.5494C18.7778 21.1577 19.5773 21.7307 20.3474 21.3626L20.4192 21.3273L20.478 21.2697C21.5549 20.2292 20.8663 19.0511 20.4127 18.2731C20.2724 18.033 20.1386 17.8057 20.0537 17.5976L20.0015 17.4727C19.7307 16.8324 19.3293 15.8816 19.6295 15.3277C19.9003 15.2317 20.7358 15.1228 21.2481 15.0556C21.8453 14.9788 22.3609 14.9115 22.635 14.8251C23.0462 14.697 23.5063 14.4441 23.9534 14.2008C24.2602 14.0343 24.5473 13.8775 24.7954 13.7686C24.9912 13.6854 25.262 13.6053 25.5492 13.5221C26.4368 13.2596 27.4452 12.965 27.8433 12.1647C28.0489 11.7549 28.0522 11.2842 27.8531 10.7656L27.8596 10.7752ZM18.5167 12.9458C17.913 12.9586 17.2309 12.9714 16.637 13.5381C15.5764 14.5562 16.2552 15.4942 16.7055 16.1153C16.9242 16.4194 17.0939 16.666 17.182 16.8997C17.0286 16.8388 16.8654 16.7716 16.7023 16.7012C15.5634 16.2274 14.2743 15.6863 13.3378 16.2946C13.0995 16.4483 12.9103 16.6884 12.7438 16.8965C12.6949 16.9605 12.6264 17.0469 12.5611 17.1174C12.4012 16.4771 12.0618 15.3662 11.0306 14.8763C10.7304 14.7355 10.4823 14.6522 10.2735 14.617C9.78399 14.5338 9.49029 14.7002 9.17048 14.9307C9.04321 15.0236 8.9192 15.1132 8.74298 15.1805C7.81946 15.539 7.00036 15.8432 6.52391 16C6.71645 15.5742 7.17658 14.8955 7.42459 14.5242C7.9043 13.8134 8.17842 13.3972 8.2339 13.0707C8.36117 12.3471 7.93367 11.7325 7.58776 11.2394C7.51923 11.1402 7.42459 11.0057 7.34953 10.8841C8.19148 10.8713 8.81477 10.6632 9.23901 10.247C9.98957 9.51382 9.95368 8.33567 9.91452 7.19914C9.88841 6.37956 9.85904 5.53116 10.1071 4.85244C10.1723 4.66996 10.2604 4.63474 10.3388 4.61553C11.135 4.42024 13.1746 5.87372 13.9774 6.69971C14.1699 6.8982 14.3494 7.21835 14.5224 7.52569C14.803 8.02833 15.0967 8.54697 15.5568 8.77107C16.5913 9.27051 17.1461 8.53736 17.4757 8.10196C17.5866 7.95469 17.6911 7.81703 17.802 7.71458C18.8398 6.75413 20.3833 5.55677 20.7847 5.47994C20.8108 5.48954 20.8402 5.52796 20.8598 5.56318C21.1665 6.06581 21.0654 7.56411 20.8891 8.03153C20.7586 8.38369 20.3539 8.50215 19.7502 8.64942C19.3064 8.75507 18.8887 8.85431 18.6179 9.16166C18.1871 9.65148 18.0533 10.3654 18.2589 11.0665C18.4775 11.7997 19.0095 12.3407 19.6523 12.4752C19.9101 12.5296 20.2724 12.424 21.0654 12.1807C21.6169 12.011 22.8471 11.6332 23.2779 11.6876C23.1637 11.8477 22.56 12.3535 19.3423 12.8722L19.1628 12.901C18.9605 12.933 18.7451 12.9394 18.5167 12.9426V12.9458Z" fill="#D094BA"/>
</svg>
