<svg width="30" height="23" viewBox="0 0 30 23" fill="none" xmlns="http://www.w3.org/2000/svg">
<path d="M29.7007 8.48852L29.3872 7.93468L28.8195 7.64557L28.5756 7.74658C27.4714 8.20986 26.2488 8.64527 24.7754 8.70448C22.9223 8.85078 20.9577 9.04236 19.0907 9.429C19.2022 8.82291 19.3067 8.21334 19.4042 7.60725C19.749 7.04993 19.6585 6.64587 19.5679 6.45081C19.4425 6.17911 19.1813 6.00147 18.8782 5.9736C18.4811 5.93877 18.0596 6.1617 17.7287 6.57621C17.1714 6.86532 16.6489 7.19274 16.1752 7.55152C16.0986 7.22758 16.0289 6.82003 16.0115 6.60755L16.0045 6.52396L15.9767 6.44732C15.4089 4.95649 14.8829 3.42733 14.4092 1.90863L14.3987 1.12141C14.3674 0.623302 14.1967 0.281941 13.8902 0.107778C13.7021 -0.000203332 13.3851 -0.0803185 12.9636 0.139127L12.3889 0.483971L12.3297 0.703417C12.2043 1.15624 12.3297 1.57075 12.4342 1.90514C12.4864 2.07234 12.5352 2.22909 12.5456 2.36494C12.6153 3.23575 12.5038 4.33995 12.3959 5.40234C12.3262 6.099 12.253 6.81655 12.2287 7.48185C12.1555 7.36342 12.0858 7.24499 12.0197 7.1196C11.8943 6.88622 11.6609 6.45777 11.5599 6.2244C11.5494 6.18956 11.5425 6.1408 11.5355 6.09203C11.4867 5.81685 11.4136 5.39886 11.0095 5.24908C10.8702 5.19683 10.588 5.14807 10.2815 5.40234C9.7625 5.83079 9.96105 6.46474 10.0586 6.76779C10.083 6.84093 10.1074 6.92802 10.1143 6.96633C10.177 7.41567 10.1422 8.00783 10.1073 8.57908C10.069 9.25135 10.0272 9.94452 10.1248 10.5332C10.1596 10.7457 10.2293 10.9198 10.2815 11.0452C10.2815 11.0452 10.2815 11.0522 10.285 11.0557C10.285 11.0557 10.285 11.0557 10.2815 11.0557C10.0934 11.1463 9.60576 11.0836 9.24698 11.0383C8.98573 11.0034 8.71404 10.9721 8.46324 10.9721C7.56804 10.9721 6.64499 11.0383 5.74979 11.1045C4.76402 11.1741 3.74342 11.2508 2.79249 11.2299C2.43371 11.2229 2.23865 11.1532 1.99134 11.0661C1.80324 11 1.59076 10.9233 1.3121 10.878C0.730392 10.784 0.20791 11.1079 0.0476801 11.6653C-0.105584 12.1982 0.120828 12.7555 0.58062 12.9436C0.810515 13.0412 1.08917 13.0272 1.60121 12.9924C1.85201 12.975 2.16202 12.9541 2.29787 12.975C3.18958 13.1073 4.21366 13.4591 5.20291 13.8005C6.24441 14.1593 7.32422 14.532 8.3274 14.6783C8.56775 14.7131 8.79764 14.7062 9.00316 14.6992C9.43857 14.6853 9.55003 14.6992 9.65453 14.8525C9.59183 14.9151 9.48385 15.0022 9.40373 15.0649C9.2435 15.1903 9.06237 15.3331 8.91259 15.5143C8.43886 16.0925 8.02784 16.8379 7.63075 17.5624C7.23366 18.287 6.82263 19.0359 6.38026 19.5514C6.33497 19.6036 6.20957 19.6977 6.11204 19.7743C5.76371 20.0425 5.3701 20.3456 5.36314 20.8158C5.35965 21.0666 5.47112 21.3 5.6836 21.4741C5.78114 21.5543 5.87518 21.6135 5.96575 21.6518C6.18519 21.7528 6.38025 21.7528 6.51959 21.7284C7.02466 21.6379 7.29984 21.1641 7.51928 20.781C7.60288 20.6382 7.69693 20.4744 7.76311 20.4048C8.28909 19.8614 8.94046 19.3424 9.57093 18.8373C10.191 18.3427 10.8319 17.8306 11.3857 17.2768C11.5564 17.1061 11.6853 16.9111 11.7967 16.7404C11.9082 16.5697 12.051 16.3572 12.1242 16.3572C12.1346 16.3572 12.1451 16.3572 12.1555 16.3572C12.166 16.4025 12.1764 16.4652 12.1834 16.5105C12.2112 16.6742 12.2426 16.8797 12.3366 17.0887C12.6571 17.7819 13.1134 18.4681 13.5558 19.1334C13.9633 19.7464 14.3883 20.3769 14.6704 20.9795C14.7122 21.0666 14.7366 21.199 14.761 21.3348C14.8272 21.6971 14.9804 22.5435 16.008 22.5191H16.1578L16.6002 22.2509L16.9903 21.7911L16.9729 21.5577C16.9276 20.9133 17.0251 20.3038 17.2759 19.6419C17.6765 18.6527 17.997 17.6216 18.2234 16.5836L18.2443 16.4931L18.2338 16.399C18.2164 16.2388 18.2234 16.1238 18.2338 16.0472C18.2721 16.0681 18.3174 16.0995 18.3766 16.1447L18.4776 16.2214L18.603 16.2492C19.7386 16.5035 20.8707 16.7578 22.0027 17.0121C22.5322 17.4614 23.0895 17.4788 23.4483 17.3325C23.7966 17.1897 24.0195 16.8797 24.023 16.5244C24.023 16.3154 23.9568 15.7755 23.1278 15.4272L22.5182 15.2391C21.5394 14.6295 20.5432 14.0269 19.547 13.4487C20.6129 13.2432 21.6056 12.8322 22.4486 12.4455C24.0892 11.6827 25.7855 10.8955 27.5968 10.3347C28.5791 10.3974 29.1991 10.2232 29.544 9.78778C29.7286 9.5544 29.9097 9.14337 29.7077 8.50245L29.7007 8.48852Z" fill="#D094BA"/>
</svg>
