<svg width="167" height="52" viewBox="0 0 167 52" fill="none" xmlns="http://www.w3.org/2000/svg">
<g clip-path="url(#clip0_1_8)">
<path d="M166.153 50.9366L159.299 51.7249L152.412 51.8813L145.526 50.8388L138.632 51.2949L131.752 51.2363L124.859 50.5L117.972 51.6402L111.086 50.5326L104.199 51.6988L97.3124 50.3176L90.4192 50.7737L83.5326 50.0375L76.6459 51.3275L69.7527 50.3046L62.8596 51.7184L55.9729 51.2363L49.0797 50.6825L42.193 51.5881L35.3064 50.1873L28.4132 50.4023L21.52 51.334L14.6333 50.8844L7.73365 51.8226L0.860019 50.9561L1.25094 43.8284L0.267127 36.6811L1.14018 29.5338L0 22.38L1.17927 15.2262L0.488647 8.07246L1.23791 1.30306L7.72714 0.325765L14.6203 1.53762L21.507 1.12715L28.3936 1.13367L35.2803 0.34531L42.167 1.05547L49.0536 1.06852L55.9403 1.48549L62.8335 1.81125L69.7202 0.983816L76.6068 0.736231L83.5 1.65489L90.3867 0.755776L97.2798 1.3161L104.167 1.66791L111.06 1.19231L117.946 1.08806L124.84 0.514714L131.726 0.983816L138.613 0L145.506 0.241063L152.399 0.749255L159.292 0.0521335L165.801 1.29656L166.459 8.06594L165.775 15.2132L166.309 22.367L166.225 29.5143L166.264 36.6681L167 43.8219L166.153 50.9366Z" fill="#F3E7B8"/>
<g clip-path="url(#clip1_1_8)">
<path d="M10.5492 9.01658L7.5 9.07522L7.5391 6.00652L10.5752 6L10.5492 9.01658Z" fill="#77632A"/>
<path d="M10.5824 45.6005L7.53979 45.5875L7.5854 42.6035L10.5694 42.5579L10.5824 45.6005Z" fill="#77632A"/>
</g>
<g clip-path="url(#clip2_1_8)">
<path d="M160.549 9.01658L157.5 9.07522L157.539 6.00652L160.575 6L160.549 9.01658Z" fill="#77632A"/>
<path d="M160.582 45.6005L157.539 45.5875L157.578 42.6035L160.569 42.5579L160.582 45.6005Z" fill="#77632A"/>
</g>
</g>
<defs>
<clipPath id="clip0_1_8">
<rect width="167" height="52" fill="white"/>
</clipPath>
<clipPath id="clip1_1_8">
<rect width="4" height="40" fill="white" transform="translate(7.5 6)"/>
</clipPath>
<clipPath id="clip2_1_8">
<rect width="4" height="40" fill="white" transform="translate(157.5 6)"/>
</clipPath>
</defs>
</svg>
