<svg width="23" height="22" viewBox="0 0 23 22" fill="none" xmlns="http://www.w3.org/2000/svg">
<path d="M17.8686 5.14157C18.0836 5.54374 21.5616 5.17052 22.2566 5.35391C22.4841 5.41183 22.5901 5.52443 22.7303 5.73034C23.7027 7.16529 21.7892 7.97608 21.0412 8.67103C20.5831 9.09573 20.0346 9.8486 19.5671 10.2025C19.1277 10.5339 17.7844 10.8653 17.6909 11.1838C17.4229 12.0911 19.0435 12.4128 19.5203 13.0692C20.1062 13.8767 21.3497 14.6103 20.7451 15.8265C19.9317 16.6534 16.142 15.3921 14.4996 16.5247C12.9351 17.6025 13.3621 22.8372 11.0808 21.8848C9.99627 21.4312 10.4108 19.401 10.1116 18.2106C9.94017 17.5285 9.41971 16.2705 8.68422 16.5311C7.6994 16.8786 6.16919 20.0059 5.08153 19.9351C4.79793 19.9158 4.45823 19.6616 4.3772 19.3399C4.19956 18.6288 5.24359 15.3632 5.2654 14.2307C5.29657 12.5415 3.72273 12.8086 2.75973 12.5448C1.79361 12.2809 0.185489 11.8691 0.0109647 10.4792C-0.113696 9.49146 0.849307 8.47477 1.64402 8.41686C1.92139 8.39433 2.18006 8.54234 2.41068 8.51982C4.6421 8.30103 5.27164 7.23608 5.01608 4.61713C4.90077 3.43313 4.04373 2.7607 4.4146 1.42548C4.74183 0.254358 6.34683 1.3901 6.92962 1.59602C7.93937 1.94993 9.1517 2.22662 10.1178 2.67062C10.6133 2.89905 12.128 4.06374 12.3617 4.06374C12.611 4.06374 12.8572 3.80957 13.0286 3.61331L15.3972 0.18036C17.0271 -0.984332 18.1709 3.82244 17.8748 5.13834L17.8686 5.14157Z" fill="#9CBCAD"/>
</svg>
