<svg width="335" height="65" viewBox="0 0 335 65" fill="none" xmlns="http://www.w3.org/2000/svg">
<path d="M291.868 1.00195V1.00098L305.679 1.6377L305.717 1.63965L305.755 1.6377L319.516 0.767578L331.984 2.25586L333.207 10.1045L331.851 18.9541L331.837 19.0488L331.848 19.1436L332.914 28.0566L332.745 36.9639V36.9834L332.823 45.9463V46L332.832 46.0537L334.289 54.8926L332.714 63.1562L319.509 64.1045L305.766 64.2988L291.988 62.9971L291.941 62.9922L291.894 62.9941L278.091 63.5645L264.327 63.4922L250.513 62.5713L250.453 62.5674L250.394 62.5732L236.648 63.9941L222.906 62.6143L222.835 62.6064L222.763 62.6143L209.026 64.0664L195.295 62.3467L195.236 62.3389L195.179 62.3418L181.388 62.9111L167.612 61.9912L167.548 61.9873L167.484 61.9951L153.743 63.6025L139.987 62.3271L139.911 62.3203L139.834 62.3301L126.065 64.0938L112.311 63.4922L98.4883 62.7988L98.4424 62.7969L98.3965 62.8008L84.6504 63.9287L70.9121 62.1836L70.8613 62.1768L70.8105 62.1777L56.9824 62.4473H56.96L56.9375 62.4492L43.1533 63.6133L29.3828 63.0518L29.3389 63.0498L29.2949 63.0537L15.5146 64.2236L2.48438 63.1973L3.20703 54.9717L3.21582 54.8652L3.19336 54.7598L1.25 45.9463L2.97461 37.1357L3.00488 36.9814L2.96582 36.8291L0.722656 28.041L3.04199 19.2549L3.08008 19.1133L3.05762 18.9697L1.68945 10.1221L3.0791 2.27832L15.499 1.11133L29.252 2.62207L29.3027 2.62793L29.3545 2.62598L43.1426 2.1123L56.957 2.12012H56.9824L57.0068 2.11816L70.7764 1.13379L84.541 2.02051L84.5635 2.02246H84.5859L98.4004 2.03906L112.189 2.56055H112.195L126.022 2.96875L126.06 2.96973L126.096 2.9668L139.889 1.93164L153.648 1.62207L167.442 2.77051L167.499 2.77539L167.557 2.77148L181.328 1.64746L195.106 2.34766L195.12 2.34863L208.935 2.78906L208.961 2.79004L208.987 2.78906L222.814 2.19336L222.813 2.19238L236.605 2.06348H236.62L236.636 2.0625L250.433 1.34473L264.211 1.93164L264.258 1.93359L264.304 1.92969L278.076 0.700195L291.868 1.00195Z" fill="white" stroke="#6995D6" stroke-width="1.4"/>
<path d="M48.8596 30.7752C48.7356 30.4487 48.5888 30.2053 48.2363 30.0133C47.9067 29.8308 47.1953 29.6387 46.0662 29.3409C45.3483 29.1521 44.2322 28.8607 43.7362 28.6526C44.242 27.2792 44.3138 24.4587 43.436 23.2485C43.0215 22.6754 42.4178 22.4673 41.739 22.6626L41.6574 22.685L37.9242 25.3487C37.6468 25.5023 37.5163 25.528 37.4575 25.528C37.2911 25.3967 36.8473 24.9133 36.5438 24.5867C36.1261 24.1321 35.728 23.7031 35.4799 23.5046C34.8534 23.0084 34.1028 22.5602 33.3751 22.1248C32.9574 21.8751 32.5625 21.6381 32.197 21.398C32.0991 21.334 31.949 21.2059 31.7858 21.0715C31.1886 20.572 30.3728 19.8901 29.5929 20.015C29.2633 20.0694 28.9794 20.2583 28.7705 20.5656C28.1603 21.4621 28.2712 22.2528 28.3691 22.9508C28.4246 23.3445 28.4768 23.7159 28.405 24.1033C28.1635 25.3839 27.8078 26.149 27.2857 26.5204C26.7799 26.8758 26.013 26.9398 24.8839 26.7221C24.8251 26.7093 24.724 26.6581 24.6293 26.6069C24.4792 26.5268 24.2899 26.4244 24.0648 26.3764C23.4284 26.2387 22.6028 26.4436 21.9697 26.895C21.4443 27.2696 21.1082 27.7722 21.0266 28.3069C20.759 30.0389 22.5734 31.0697 23.6568 31.6844L23.7156 31.7164C23.9603 31.8541 24.241 31.9726 24.5118 32.0878C25.6377 32.5584 26.0685 32.8274 25.8107 33.6213C25.6638 34.0727 25.1058 34.9788 24.6163 35.7791C23.7776 37.143 23.262 38.0074 23.2522 38.5324C23.2391 39.1215 23.7091 39.6401 24.1692 39.8002C25.047 40.1076 26.212 39.3776 27.4423 38.6029C28.1701 38.145 28.9924 37.6264 29.3971 37.6168C29.4917 37.6168 29.5602 37.6456 29.6353 37.7192C29.9029 37.9946 30.0334 38.6989 30.0204 39.2528C30.0138 39.6081 29.9061 40.0435 29.7887 40.5077C29.5276 41.5578 29.2045 42.864 30.1868 43.5876C30.474 43.7989 30.7644 43.9301 31.0548 43.9782C31.2474 44.0102 31.4399 44.007 31.6325 43.9686C32.6278 43.7701 33.3294 42.7008 34.0734 41.5738C34.6967 40.6262 35.3429 39.6465 36.0282 39.4609C37.0268 39.1887 38.0384 39.9123 38.9293 40.5494C39.7778 41.1577 40.5773 41.7307 41.3474 41.3626L41.4192 41.3273L41.478 41.2697C42.5549 40.2292 41.8663 39.0511 41.4127 38.2731C41.2724 38.033 41.1386 37.8057 41.0537 37.5976L41.0015 37.4727C40.7307 36.8324 40.3293 35.8816 40.6295 35.3277C40.9003 35.2317 41.7358 35.1228 42.2481 35.0556C42.8453 34.9788 43.3609 34.9115 43.635 34.8251C44.0462 34.697 44.5063 34.4441 44.9534 34.2008C45.2602 34.0343 45.5473 33.8775 45.7954 33.7686C45.9912 33.6854 46.262 33.6053 46.5492 33.5221C47.4368 33.2596 48.4452 32.965 48.8433 32.1647C49.0489 31.7549 49.0522 31.2842 48.8531 30.7656L48.8596 30.7752ZM39.5167 32.9458C38.913 32.9586 38.2309 32.9714 37.637 33.5381C36.5764 34.5562 37.2552 35.4942 37.7055 36.1153C37.9242 36.4194 38.0939 36.666 38.182 36.8997C38.0286 36.8388 37.8654 36.7716 37.7023 36.7012C36.5634 36.2274 35.2743 35.6863 34.3378 36.2946C34.0995 36.4483 33.9103 36.6884 33.7438 36.8965C33.6949 36.9605 33.6264 37.0469 33.5611 37.1174C33.4012 36.4771 33.0618 35.3662 32.0306 34.8763C31.7304 34.7355 31.4823 34.6522 31.2735 34.617C30.784 34.5338 30.4903 34.7002 30.1705 34.9307C30.0432 35.0236 29.9192 35.1132 29.743 35.1805C28.8195 35.539 28.0004 35.8432 27.5239 36C27.7164 35.5742 28.1766 34.8955 28.4246 34.5242C28.9043 33.8134 29.1784 33.3972 29.2339 33.0707C29.3612 32.3471 28.9337 31.7325 28.5878 31.2394C28.5192 31.1402 28.4246 31.0057 28.3495 30.8841C29.1915 30.8713 29.8148 30.6632 30.239 30.247C30.9896 29.5138 30.9537 28.3357 30.9145 27.1991C30.8884 26.3796 30.859 25.5312 31.1071 24.8524C31.1723 24.67 31.2604 24.6347 31.3388 24.6155C32.135 24.4202 34.1746 25.8737 34.9774 26.6997C35.1699 26.8982 35.3494 27.2183 35.5224 27.5257C35.803 28.0283 36.0967 28.547 36.5568 28.7711C37.5913 29.2705 38.1461 28.5374 38.4757 28.102C38.5866 27.9547 38.6911 27.817 38.802 27.7146C39.8398 26.7541 41.3833 25.5568 41.7847 25.4799C41.8108 25.4895 41.8402 25.528 41.8598 25.5632C42.1665 26.0658 42.0654 27.5641 41.8891 28.0315C41.7586 28.3837 41.3539 28.5021 40.7502 28.6494C40.3064 28.7551 39.8887 28.8543 39.6179 29.1617C39.1871 29.6515 39.0533 30.3654 39.2589 31.0665C39.4775 31.7997 40.0095 32.3407 40.6523 32.4752C40.9101 32.5296 41.2724 32.424 42.0654 32.1807C42.6169 32.011 43.8471 31.6332 44.2779 31.6876C44.1637 31.8477 43.56 32.3535 40.3423 32.8722L40.1628 32.901C39.9605 32.933 39.7451 32.9394 39.5167 32.9426V32.9458Z" fill="#D094BA"/>
<path d="M75.7435 25.966C75.9928 25.79 76.2495 25.7093 76.5135 25.724C76.7922 25.7387 77.0122 25.8413 77.1735 26.032C77.2322 26.0907 77.2615 26.2007 77.2615 26.362C77.2762 26.5233 77.2615 26.626 77.2175 26.67C77.0708 26.8167 77.0488 26.978 77.1515 27.154C77.2688 27.33 77.5475 27.6013 77.9875 27.968C78.5742 28.4373 79.1902 29.0093 79.8355 29.684C80.1728 30.0507 80.3782 30.3953 80.4515 30.718C80.5248 31.0407 80.4515 31.2973 80.2315 31.488C79.9968 31.6787 79.7328 31.73 79.4395 31.642C79.1462 31.554 78.7795 31.3047 78.3395 30.894C77.8995 30.498 77.5328 30.1827 77.2395 29.948C76.9462 29.684 76.7482 29.508 76.6455 29.42C76.2055 29.024 75.9048 28.826 75.7435 28.826C75.5968 28.826 75.1935 29.2073 74.5335 29.97C74.2548 30.278 73.9102 30.652 73.4995 31.092C73.0302 31.62 72.6048 31.9207 72.2235 31.994C71.8568 32.0673 71.5928 31.906 71.4315 31.51C71.3728 31.3633 71.3728 31.1287 71.4315 30.806C71.5048 30.4833 71.5855 30.322 71.6735 30.322C71.7028 30.322 71.7175 30.2927 71.7175 30.234C71.7175 30.19 71.7835 30.102 71.9155 29.97C72.0328 29.838 72.1795 29.662 72.3555 29.442C72.5755 29.1927 73.0448 28.6867 73.7635 27.924C74.1155 27.5573 74.4822 27.176 74.8635 26.78C75.2155 26.384 75.5088 26.1127 75.7435 25.966ZM77.5035 34.942C78.1488 34.9127 78.8895 34.9053 79.7255 34.92C80.5615 34.92 81.0528 34.9347 81.1995 34.964C81.7128 35.052 82.0428 35.2427 82.1895 35.536C82.3508 35.8293 82.2775 36.1227 81.9695 36.416C81.7642 36.592 81.4488 36.702 81.0235 36.746C80.5982 36.79 79.3662 36.8413 77.3275 36.9C73.9395 37.0027 72.0475 36.9587 71.6515 36.768C71.3288 36.6213 71.1015 36.4233 70.9695 36.174C70.8522 35.9247 70.8668 35.6973 71.0135 35.492C71.0868 35.36 71.1968 35.2793 71.3435 35.25C71.4902 35.2207 71.8348 35.1987 72.3775 35.184C73.0375 35.1547 73.9835 35.1107 75.2155 35.052C76.4182 34.9933 77.1808 34.9567 77.5035 34.942ZM97.8839 26.01C98.2653 25.834 98.5733 25.8487 98.8079 26.054C98.9986 26.2007 99.1159 26.4867 99.1599 26.912C99.2039 27.3373 99.2479 28.4593 99.2919 30.278C99.3066 32.346 99.3286 33.688 99.3579 34.304C99.4019 35.2427 99.3506 35.8953 99.2039 36.262C99.0573 36.614 98.7713 36.79 98.3459 36.79C97.9059 36.79 97.6126 36.5773 97.4659 36.152C97.3926 35.932 97.3413 34.3773 97.3119 31.488C97.2826 28.5987 97.3046 26.9927 97.3779 26.67C97.4366 26.3767 97.6053 26.1567 97.8839 26.01ZM88.0499 26.12C89.3993 26.032 90.1766 26.0173 90.3819 26.076C90.7486 26.1787 91.0126 26.3547 91.1739 26.604C91.3353 26.8533 91.3499 27.0953 91.2179 27.33C91.1006 27.5647 90.8586 27.7187 90.4919 27.792C90.2133 27.836 90.0519 27.8727 90.0079 27.902C89.9639 27.9313 89.9419 28.0047 89.9419 28.122C89.9419 28.254 89.9566 28.3493 89.9859 28.408C90.0299 28.4813 90.0593 29.2 90.0739 30.564L90.0959 32.632L90.4039 32.676C90.9319 32.7493 91.2619 32.9693 91.3939 33.336C91.5259 33.688 91.3793 33.974 90.9539 34.194C90.7779 34.282 90.5579 34.3407 90.2939 34.37C90.0446 34.3993 89.4799 34.4213 88.5999 34.436C88.2333 34.4507 87.6759 34.4727 86.9279 34.502C86.1799 34.5167 85.7253 34.524 85.5639 34.524L84.3099 34.568L84.0019 34.304C83.6059 33.952 83.4519 33.644 83.5399 33.38C83.6279 33.116 83.9359 32.9253 84.4639 32.808C84.5373 32.7787 84.6326 32.7567 84.7499 32.742C84.8819 32.7127 84.9479 32.698 84.9479 32.698C85.0946 32.654 85.1166 32.3313 85.0139 31.73C84.9846 31.554 84.9479 31.0627 84.9039 30.256C84.9039 30.2267 84.9039 30.19 84.9039 30.146C84.8453 29.1487 84.7866 28.5693 84.7279 28.408C84.6839 28.232 84.5153 28.144 84.2219 28.144C84.2073 28.144 84.1999 28.144 84.1999 28.144C84.0679 28.144 83.9873 28.122 83.9579 28.078C83.9433 28.034 83.8993 28.012 83.8259 28.012C83.7526 28.012 83.6719 27.9753 83.5839 27.902C83.5106 27.814 83.4519 27.7113 83.4079 27.594C83.3346 27.3887 83.3859 27.1687 83.5619 26.934C83.7526 26.6993 83.9946 26.5527 84.2879 26.494C84.5959 26.4207 84.8013 26.3767 84.9039 26.362C85.1679 26.3033 86.2166 26.2227 88.0499 26.12ZM88.1159 30.256C88.1159 29.1267 88.1086 28.4667 88.0939 28.276C88.0939 28.0853 88.0573 27.99 87.9839 27.99C87.7493 27.9753 87.4853 27.99 87.1919 28.034C86.9133 28.0633 86.7593 28.1 86.7299 28.144C86.7006 28.188 86.6859 28.496 86.6859 29.068C86.6859 29.6253 86.7006 29.9993 86.7299 30.19C86.7593 30.322 86.8106 30.674 86.8839 31.246C86.8986 31.422 86.9206 31.642 86.9499 31.906C86.9939 32.17 87.0159 32.3093 87.0159 32.324L87.0599 32.566L87.5659 32.544C87.9033 32.544 88.0793 32.5367 88.0939 32.522C88.1086 32.5073 88.1159 31.752 88.1159 30.256ZM94.5839 26.626C94.8333 26.494 95.0753 26.5233 95.3099 26.714C95.5593 26.89 95.7133 27.176 95.7719 27.572C95.8013 27.748 95.8233 28.7527 95.8379 30.586C95.8673 32.4047 95.8746 33.7173 95.8599 34.524C95.8453 34.9787 95.6693 35.2647 95.3319 35.382C95.0093 35.4993 94.7086 35.382 94.4299 35.03C94.2393 34.81 94.1293 34.3553 94.0999 33.666C94.0266 32.1993 93.9533 31.4587 93.8799 31.444C93.8506 31.444 93.5793 31.444 93.0659 31.444C92.5673 31.4293 92.2519 31.3927 92.1199 31.334C91.7386 31.158 91.4673 30.9233 91.3059 30.63C91.1593 30.3367 91.1739 30.08 91.3499 29.86C91.4673 29.728 91.5993 29.64 91.7459 29.596C91.9073 29.5373 92.1933 29.5007 92.6039 29.486C93.1026 29.4567 93.4546 29.4347 93.6599 29.42L93.9459 29.398V28.804C93.9459 28.232 94.0046 27.7553 94.1219 27.374C94.2393 26.978 94.3933 26.7287 94.5839 26.626ZM111.816 24.822C111.918 24.5287 112.072 24.3307 112.278 24.228C112.483 24.1253 112.696 24.1033 112.916 24.162C113.136 24.206 113.29 24.316 113.378 24.492C113.539 24.8147 113.605 26.318 113.576 29.002C113.546 30.7033 113.502 31.7667 113.444 32.192C113.385 32.6173 113.231 32.896 112.982 33.028C112.864 33.0867 112.703 33.1233 112.498 33.138C112.292 33.1527 112.182 33.1307 112.168 33.072C112.153 33.028 112.124 33.006 112.08 33.006C112.021 33.006 111.948 32.9473 111.86 32.83C111.772 32.698 111.706 32.5587 111.662 32.412C111.588 32.1773 111.574 30.916 111.618 28.628C111.662 26.3253 111.728 25.0567 111.816 24.822ZM104.622 24.25C104.768 24.206 105.01 24.184 105.348 24.184C105.7 24.184 105.949 24.1987 106.096 24.228C106.374 24.2867 106.609 24.338 106.8 24.382C107.489 24.5287 107.995 24.844 108.318 25.328C108.435 25.4893 108.508 25.5847 108.538 25.614C108.655 25.6873 108.802 25.9733 108.978 26.472C109.168 26.956 109.293 27.3887 109.352 27.77C109.469 28.5767 109.286 29.3907 108.802 30.212C108.318 31.0187 107.709 31.532 106.976 31.752C106.829 31.796 106.704 31.84 106.602 31.884C106.382 31.9573 105.978 31.9793 105.392 31.95C104.82 31.9207 104.431 31.8473 104.226 31.73C104.167 31.7007 104.108 31.686 104.05 31.686C103.991 31.686 103.925 31.6713 103.852 31.642C103.749 31.598 103.639 31.5467 103.522 31.488C102.642 31.0773 102.018 30.2853 101.652 29.112C101.52 28.6867 101.461 28.2173 101.476 27.704C101.505 27.176 101.608 26.758 101.784 26.45C102.444 25.262 103.39 24.5287 104.622 24.25ZM105.898 26.142C105.414 25.9807 104.871 26.0467 104.27 26.34C103.932 26.5013 103.668 26.7947 103.478 27.22C103.302 27.6453 103.287 28.0047 103.434 28.298C103.463 28.3567 103.514 28.474 103.588 28.65C103.969 29.618 104.658 30.0947 105.656 30.08C106.066 30.08 106.382 30.014 106.602 29.882C106.836 29.75 107.027 29.5227 107.174 29.2C107.482 28.4813 107.518 27.8507 107.284 27.308C107.064 26.7507 106.602 26.362 105.898 26.142ZM105.414 33.622C105.56 33.5193 105.663 33.4753 105.722 33.49C105.766 33.5047 105.854 33.5267 105.986 33.556C106.074 33.5707 106.184 33.6587 106.316 33.82C106.462 33.9667 106.536 34.0767 106.536 34.15C106.536 34.2233 106.558 34.2747 106.602 34.304C106.631 34.3187 106.646 34.5093 106.646 34.876C106.646 35.184 106.668 35.5213 106.712 35.888C106.77 36.24 106.829 36.46 106.888 36.548C106.946 36.636 107.056 36.6873 107.218 36.702C107.394 36.7167 107.848 36.7167 108.582 36.702C110.884 36.6433 112.241 36.6213 112.652 36.636C113.062 36.636 113.341 36.6653 113.488 36.724C113.81 36.8853 113.942 37.142 113.884 37.494C113.84 37.846 113.634 38.1027 113.268 38.264C113.004 38.3813 112.131 38.4693 110.65 38.528C109.168 38.6013 107.966 38.6013 107.042 38.528C106.69 38.5133 106.411 38.484 106.206 38.44C106 38.4107 105.802 38.3447 105.612 38.242C105.436 38.154 105.304 38.0513 105.216 37.934C105.128 37.8167 105.047 37.6407 104.974 37.406C104.9 37.1567 104.849 36.8927 104.82 36.614C104.805 36.3353 104.79 35.9613 104.776 35.492C104.761 34.9053 104.79 34.4947 104.864 34.26C104.952 34.0253 105.135 33.8127 105.414 33.622ZM127.615 25.768C127.835 25.6213 128.048 25.5847 128.253 25.658C128.459 25.7167 128.62 25.8633 128.737 26.098C128.811 26.2593 128.869 27.8433 128.913 30.85C128.972 33.842 128.972 35.602 128.913 36.13C128.869 36.5847 128.708 36.8927 128.429 37.054C128.151 37.2007 127.843 37.164 127.505 36.944C127.271 36.7973 127.124 36.5993 127.065 36.35C127.021 36.1007 126.985 35.4333 126.955 34.348C126.926 32.7787 126.897 31.862 126.867 31.598C126.838 31.3193 126.757 31.158 126.625 31.114C126.493 31.07 126.193 31.0627 125.723 31.092C125.166 31.1213 124.785 31.0847 124.579 30.982C124.374 30.8793 124.257 30.674 124.227 30.366C124.213 30.1313 124.227 29.9627 124.271 29.86C124.315 29.7427 124.411 29.64 124.557 29.552C124.704 29.4493 124.858 29.3833 125.019 29.354C125.195 29.3247 125.65 29.266 126.383 29.178C126.413 29.178 126.442 29.178 126.471 29.178C126.735 29.1487 126.889 29.0827 126.933 28.98C126.977 28.8773 127.007 28.5473 127.021 27.99C127.021 27.902 127.029 27.836 127.043 27.792C127.058 27.044 127.095 26.56 127.153 26.34C127.227 26.1053 127.381 25.9147 127.615 25.768ZM118.815 26.076C119.109 25.988 119.607 25.9733 120.311 26.032C121.015 26.076 121.507 26.1713 121.785 26.318C122.592 26.7287 123.142 27.418 123.435 28.386C123.523 28.7087 123.582 28.9727 123.611 29.178C123.641 29.3687 123.663 29.7573 123.677 30.344C123.692 31.1653 123.67 31.7227 123.611 32.016C123.567 32.2947 123.421 32.676 123.171 33.16C123.069 33.3507 122.812 33.6073 122.401 33.93C122.313 33.9887 122.159 34.0693 121.939 34.172C121.734 34.2747 121.602 34.326 121.543 34.326C121.47 34.326 121.411 34.348 121.367 34.392C121.323 34.436 120.993 34.458 120.377 34.458C119.776 34.458 119.402 34.4287 119.255 34.37C118.727 34.2087 118.339 34.0693 118.089 33.952C117.855 33.82 117.627 33.6367 117.407 33.402C117.231 33.2407 117.063 33.0573 116.901 32.852C116.74 32.6467 116.659 32.5147 116.659 32.456C116.659 32.4413 116.615 32.3607 116.527 32.214C116.439 32.082 116.373 31.9427 116.329 31.796C116.315 31.7667 116.293 31.7153 116.263 31.642C116.234 31.554 116.212 31.5027 116.197 31.488C116.065 31.136 115.999 30.608 115.999 29.904C115.999 29.3613 116.021 28.9727 116.065 28.738C116.109 28.5033 116.219 28.1953 116.395 27.814C116.498 27.6233 116.667 27.396 116.901 27.132C117.151 26.868 117.356 26.6993 117.517 26.626C117.987 26.3913 118.295 26.252 118.441 26.208C118.471 26.1933 118.529 26.1713 118.617 26.142C118.72 26.1127 118.786 26.0907 118.815 26.076ZM120.377 27.968C120.319 27.9387 120.157 27.9167 119.893 27.902C119.629 27.8727 119.431 27.8653 119.299 27.88C119.153 27.8947 118.947 27.9607 118.683 28.078C118.331 28.2393 118.104 28.5693 118.001 29.068C117.899 29.5667 117.928 30.102 118.089 30.674C118.265 31.246 118.551 31.708 118.947 32.06C119.182 32.2947 119.527 32.456 119.981 32.544C120.451 32.6173 120.817 32.5953 121.081 32.478C121.228 32.4047 121.375 32.2947 121.521 32.148C121.683 31.9867 121.763 31.8767 121.763 31.818C121.763 31.7447 121.778 31.686 121.807 31.642C121.895 31.554 121.939 31.1727 121.939 30.498C121.939 29.8087 121.895 29.3833 121.807 29.222C121.778 29.1487 121.763 29.09 121.763 29.046C121.763 28.9727 121.639 28.8333 121.389 28.628C121.155 28.408 120.957 28.254 120.795 28.166C120.737 28.1367 120.656 28.1 120.553 28.056C120.451 27.9973 120.392 27.968 120.377 27.968ZM144.212 29.442C144.461 29.31 144.733 29.2953 145.026 29.398C145.319 29.486 145.495 29.6473 145.554 29.882C145.569 29.9847 145.473 30.344 145.268 30.96C145.077 31.5613 144.879 32.082 144.674 32.522C144.557 32.7713 144.432 33.05 144.3 33.358C144.153 33.71 143.787 34.4507 143.2 35.58C142.628 36.7093 142.298 37.3107 142.21 37.384C142.019 37.5893 141.726 37.67 141.33 37.626C140.963 37.5967 140.677 37.5013 140.472 37.34C140.281 37.164 140.083 36.856 139.878 36.416C139.673 35.9613 139.372 35.184 138.976 34.084C138.683 33.292 138.47 32.7273 138.338 32.39C138.25 32.1847 138.155 31.9353 138.052 31.642C137.905 31.2607 137.81 31.004 137.766 30.872C137.473 30.08 137.656 29.6473 138.316 29.574C138.741 29.5153 139.086 29.6473 139.35 29.97C139.629 30.2927 139.937 30.916 140.274 31.84C140.391 32.1627 140.582 32.6393 140.846 33.27C141.125 33.9007 141.301 34.282 141.374 34.414C141.477 34.5753 141.565 34.6047 141.638 34.502C141.682 34.4287 141.77 34.2527 141.902 33.974C142.034 33.6367 142.313 33.0573 142.738 32.236C142.929 31.8693 143.141 31.3927 143.376 30.806C143.713 29.9993 143.992 29.5447 144.212 29.442ZM150.023 29.376C150.786 29.288 151.402 29.3027 151.871 29.42C152.341 29.5373 152.817 29.8013 153.301 30.212C154.357 31.092 154.695 32.0453 154.313 33.072C154.255 33.2333 154.137 33.4093 153.961 33.6C153.8 33.776 153.668 33.864 153.565 33.864C153.536 33.864 153.455 33.886 153.323 33.93C152.663 34.238 151.461 34.3773 149.715 34.348C149.334 34.348 149.099 34.3553 149.011 34.37C148.938 34.37 148.901 34.3993 148.901 34.458C148.872 34.5753 148.989 34.744 149.253 34.964C149.517 35.184 149.789 35.3453 150.067 35.448C150.229 35.5067 150.559 35.5287 151.057 35.514C151.556 35.4993 151.893 35.4553 152.069 35.382C152.935 35.0447 153.514 34.898 153.807 34.942C154.115 34.986 154.269 35.228 154.269 35.668C154.269 35.9173 154.233 36.108 154.159 36.24C154.086 36.3573 153.939 36.4967 153.719 36.658C153.543 36.7753 153.301 36.9147 152.993 37.076C152.7 37.2227 152.524 37.296 152.465 37.296C152.421 37.296 152.311 37.3327 152.135 37.406C151.681 37.626 151.167 37.7067 150.595 37.648C150.038 37.5893 149.503 37.45 148.989 37.23C148.491 37.01 148.043 36.702 147.647 36.306C147.266 35.8953 147.009 35.4627 146.877 35.008C146.76 34.524 146.687 34.216 146.657 34.084C146.643 33.952 146.65 33.7907 146.679 33.6C146.782 32.5293 147.156 31.5907 147.801 30.784C148.447 29.9627 149.187 29.4933 150.023 29.376ZM151.673 31.268C151.292 31.092 150.933 31.048 150.595 31.136C150.273 31.224 149.906 31.4587 149.495 31.84C149.07 32.2507 148.909 32.522 149.011 32.654C149.041 32.698 149.099 32.7053 149.187 32.676C149.305 32.6613 149.51 32.632 149.803 32.588C150.126 32.544 150.383 32.5073 150.573 32.478C150.749 32.434 151.043 32.39 151.453 32.346C151.864 32.2727 152.099 32.2067 152.157 32.148C152.289 32.0453 152.304 31.906 152.201 31.73C152.099 31.5393 151.923 31.3853 151.673 31.268ZM156.343 29.442C156.769 29.398 157.033 29.42 157.135 29.508C157.253 29.596 157.326 29.8527 157.355 30.278C157.37 30.5713 157.399 30.74 157.443 30.784C157.502 30.828 157.619 30.806 157.795 30.718C158.265 30.4687 158.829 30.3147 159.489 30.256C160.164 30.1827 160.685 30.2193 161.051 30.366C161.565 30.586 161.931 30.8867 162.151 31.268C162.371 31.6493 162.401 32.0453 162.239 32.456C162.034 32.9987 161.572 33.0867 160.853 32.72C159.856 32.2067 159.005 32.0967 158.301 32.39C158.037 32.5073 157.883 32.6173 157.839 32.72C157.81 32.808 157.795 33.094 157.795 33.578C157.781 34.2087 157.759 34.7367 157.729 35.162C157.715 35.5873 157.678 35.9687 157.619 36.306C157.575 36.6433 157.509 36.9 157.421 37.076C157.333 37.252 157.223 37.3987 157.091 37.516C156.974 37.6187 156.827 37.6627 156.651 37.648C156.49 37.6333 156.299 37.604 156.079 37.56C156.05 37.5453 156.013 37.538 155.969 37.538C155.779 37.4793 155.661 37.3253 155.617 37.076C155.588 36.812 155.573 35.9247 155.573 34.414C155.573 34.0767 155.573 33.8127 155.573 33.622C155.573 33.5487 155.573 33.4387 155.573 33.292C155.573 31.4 155.603 30.3 155.661 29.992C155.72 29.6693 155.925 29.486 156.277 29.442C156.307 29.442 156.329 29.442 156.343 29.442ZM164.338 34.59C164.72 34.3847 165.16 34.4727 165.658 34.854C165.922 35.0447 166.069 35.3527 166.098 35.778C166.128 36.1887 166.047 36.5773 165.856 36.944C165.68 37.3107 165.438 37.538 165.13 37.626C164.822 37.6993 164.485 37.6113 164.118 37.362C163.766 37.1127 163.561 36.8267 163.502 36.504C163.429 36.0933 163.466 35.7193 163.612 35.382C163.759 35.0447 164.001 34.7807 164.338 34.59Z" fill="#2F5388"/>
</svg>
