<svg width="335" height="65" viewBox="0 0 335 65" fill="none" xmlns="http://www.w3.org/2000/svg">
<path d="M291.868 1.00195V1.00098L305.679 1.6377L305.717 1.63965L305.755 1.6377L319.516 0.767578L331.984 2.25586L333.207 10.1045L331.851 18.9541L331.837 19.0488L331.848 19.1436L332.914 28.0566L332.745 36.9639V36.9834L332.823 45.9463V46L332.832 46.0537L334.289 54.8926L332.714 63.1562L319.509 64.1045L305.766 64.2988L291.988 62.9971L291.941 62.9922L291.894 62.9941L278.091 63.5645L264.327 63.4922L250.513 62.5713L250.453 62.5674L250.394 62.5732L236.648 63.9941L222.906 62.6143L222.835 62.6064L222.763 62.6143L209.026 64.0664L195.295 62.3467L195.236 62.3389L195.179 62.3418L181.388 62.9111L167.612 61.9912L167.548 61.9873L167.484 61.9951L153.743 63.6025L139.987 62.3271L139.911 62.3203L139.834 62.3301L126.065 64.0938L112.311 63.4922L98.4883 62.7988L98.4424 62.7969L98.3965 62.8008L84.6504 63.9287L70.9121 62.1836L70.8613 62.1768L70.8105 62.1777L56.9824 62.4473H56.96L56.9375 62.4492L43.1533 63.6133L29.3828 63.0518L29.3389 63.0498L29.2949 63.0537L15.5146 64.2236L2.48438 63.1973L3.20703 54.9717L3.21582 54.8652L3.19336 54.7598L1.25 45.9463L2.97461 37.1357L3.00488 36.9814L2.96582 36.8291L0.722656 28.041L3.04199 19.2549L3.08008 19.1133L3.05762 18.9697L1.68945 10.1221L3.0791 2.27832L15.499 1.11133L29.252 2.62207L29.3027 2.62793L29.3545 2.62598L43.1426 2.1123L56.957 2.12012H56.9824L57.0068 2.11816L70.7764 1.13379L84.541 2.02051L84.5635 2.02246H84.5859L98.4004 2.03906L112.189 2.56055H112.195L126.022 2.96875L126.06 2.96973L126.096 2.9668L139.889 1.93164L153.648 1.62207L167.442 2.77051L167.499 2.77539L167.557 2.77148L181.328 1.64746L195.106 2.34766L195.12 2.34863L208.935 2.78906L208.961 2.79004L208.987 2.78906L222.814 2.19336L222.813 2.19238L236.605 2.06348H236.62L236.636 2.0625L250.433 1.34473L264.211 1.93164L264.258 1.93359L264.304 1.92969L278.076 0.700195L291.868 1.00195Z" fill="white" stroke="#6995D6" stroke-width="1.4"/>
<path d="M48.815 30.0835C48.6784 29.7436 48.5225 29.4937 48.1677 29.2938C47.8321 29.1039 47.1177 28.9114 45.9814 28.6115C45.2598 28.4216 44.1354 28.1242 43.6368 27.9118C44.0899 26.4773 44.0563 23.5358 43.1381 22.2812C42.7042 21.6865 42.0953 21.474 41.4288 21.684L41.3497 21.7089L37.7273 24.513C37.4588 24.6729 37.327 24.7029 37.2695 24.7029C37.0969 24.5654 36.6366 24.0656 36.3273 23.7282C35.8934 23.2584 35.4835 22.8136 35.2293 22.6111C34.5869 22.1013 33.8221 21.6365 33.0813 21.1891C32.657 20.9317 32.2542 20.6893 31.8827 20.4394C31.782 20.3719 31.6261 20.242 31.4631 20.102C30.8494 19.5872 30.0127 18.8799 29.2408 19.0174C28.9148 19.0749 28.6391 19.2748 28.4425 19.5972C27.8671 20.5368 28.0062 21.3616 28.1308 22.0863C28.2004 22.4962 28.2675 22.8835 28.2099 23.2884C28.0182 24.6229 27.6921 25.4276 27.1815 25.815C26.69 26.1899 25.9301 26.2624 24.7961 26.0424C24.7362 26.0299 24.6355 25.9775 24.5396 25.925C24.3862 25.8425 24.1944 25.7375 23.9691 25.6876C23.329 25.5501 22.5163 25.7675 21.9026 26.2424C21.3919 26.6372 21.0779 27.1645 21.0156 27.7218C20.8118 29.5287 22.6577 30.5883 23.7605 31.2231L23.8204 31.2581C24.0674 31.4006 24.3526 31.5205 24.6283 31.638C25.7647 32.1203 26.2058 32.3977 25.978 33.2249C25.8486 33.6973 25.326 34.6444 24.8657 35.4816C24.0818 36.9111 23.5999 37.8133 23.6095 38.3606C23.6191 38.9754 24.1057 39.5102 24.5708 39.6752C25.4578 39.9901 26.5894 39.2178 27.7856 38.4031C28.4928 37.9208 29.2959 37.3735 29.6963 37.361C29.7898 37.3585 29.8617 37.391 29.936 37.4659C30.2141 37.7508 30.3676 38.4831 30.3771 39.0629C30.3843 39.4328 30.2908 39.8901 30.1949 40.3724C29.9744 41.4671 29.6987 42.8316 30.7056 43.5788C30.998 43.7962 31.2929 43.9312 31.5854 43.9787C31.7772 44.0112 31.969 44.0062 32.1608 43.9662C33.1437 43.7513 33.8053 42.6341 34.5053 41.4496C35.0927 40.4574 35.6992 39.4303 36.3753 39.2328C37.3606 38.9429 38.3938 39.6877 39.3048 40.3474C40.1726 40.9747 40.9901 41.5645 41.7429 41.1772L41.8148 41.1397L41.8723 41.0797C42.9056 39.9851 42.1792 38.7655 41.6949 37.9583C41.5463 37.7084 41.4049 37.4734 41.3114 37.2585L41.2538 37.1311C40.9614 36.4663 40.525 35.4791 40.8055 34.8993C41.074 34.7969 41.9011 34.6769 42.4093 34.6044C43.0015 34.5195 43.5121 34.447 43.7806 34.3545C44.1858 34.2171 44.6341 33.9497 45.0704 33.6948C45.3676 33.5173 45.6505 33.3524 45.8927 33.2399C46.0844 33.15 46.3506 33.065 46.6334 32.975C47.5085 32.6951 48.501 32.3802 48.8678 31.5405C49.0571 31.1107 49.0427 30.6208 48.827 30.0835H48.815ZM39.5925 32.4152C38.9931 32.4327 38.3123 32.4502 37.7441 33.0475C36.7253 34.1146 37.4373 35.0893 37.9071 35.7341C38.1373 36.0489 38.3147 36.3063 38.4106 36.5488C38.2548 36.4863 38.0917 36.4188 37.9239 36.3463C36.7732 35.859 35.4691 35.3092 34.5581 35.949C34.3255 36.1114 34.1457 36.3613 33.9875 36.5813C33.9396 36.6487 33.8748 36.7387 33.8149 36.8137C33.6327 36.1489 33.2539 34.9918 32.2063 34.492C31.9018 34.347 31.6525 34.2621 31.4439 34.2271C30.9525 34.1446 30.6696 34.3195 30.358 34.5645C30.2333 34.6619 30.1158 34.7544 29.9408 34.8294C29.0322 35.2117 28.2291 35.5316 27.7616 35.7016C27.939 35.2567 28.3706 34.547 28.6055 34.1571C29.0562 33.4124 29.3151 32.975 29.3607 32.6351C29.4614 31.8779 29.0107 31.2431 28.6487 30.7308C28.5743 30.6283 28.4785 30.4909 28.3969 30.3634C29.236 30.3459 29.8473 30.121 30.2573 29.6837C30.9789 28.9139 30.8974 27.6869 30.8182 26.4998C30.7607 25.6451 30.7008 24.7629 30.9213 24.0531C30.9813 23.8632 31.0676 23.8232 31.1419 23.8032C31.9282 23.5933 34.0139 25.0928 34.8434 25.9475C35.0423 26.1524 35.2317 26.4823 35.4163 26.8047C35.716 27.327 36.0253 27.8643 36.4927 28.0942C37.5404 28.6065 38.0654 27.8393 38.3794 27.3795C38.4849 27.227 38.5832 27.0821 38.6887 26.9746C39.686 25.9675 41.1795 24.7079 41.5751 24.6229C41.6038 24.6329 41.6326 24.6729 41.6542 24.7079C41.9778 25.2302 41.9323 26.7922 41.7764 27.282C41.659 27.6494 41.2586 27.7793 40.6641 27.9343C40.2278 28.0467 39.8154 28.1542 39.5565 28.4791C39.1442 28.9939 39.0363 29.7386 39.2712 30.4659C39.5158 31.2281 40.0671 31.7854 40.7096 31.9254C40.9661 31.9804 41.3233 31.8679 42.1073 31.6055C42.6515 31.4231 43.8621 31.0207 44.2936 31.0732C44.1882 31.2431 43.6032 31.7729 40.4172 32.3377L40.2397 32.3702C40.0408 32.4077 39.825 32.4127 39.5973 32.4177L39.5925 32.4152Z" fill="#7AA2DF"/>
<path d="M73.9489 23.238C75.3276 23.2233 76.1416 23.2527 76.3909 23.326C76.6403 23.3993 76.7649 23.6413 76.7649 24.052C76.7649 24.448 76.6476 24.6827 76.4129 24.756C76.1783 24.8293 75.4303 24.866 74.1689 24.866C73.0836 24.8807 72.4089 24.8733 72.1449 24.844C71.8956 24.8 71.6976 24.69 71.5509 24.514C71.4189 24.3673 71.3969 24.184 71.4849 23.964C71.5876 23.7293 71.7636 23.5387 72.0129 23.392C72.1449 23.3333 72.2916 23.2967 72.4529 23.282C72.6289 23.2673 73.1276 23.2527 73.9489 23.238ZM80.7249 25.064C81.1649 24.9613 81.4656 25.086 81.6269 25.438C81.7883 25.7753 81.8469 26.45 81.8029 27.462C81.8029 27.5207 81.8029 27.6013 81.8029 27.704C81.7736 28.2027 81.7883 28.496 81.8469 28.584C81.9203 28.672 82.1549 28.7307 82.5509 28.76C82.6389 28.76 82.7049 28.76 82.7489 28.76C83.5116 28.804 84.0396 28.9067 84.3329 29.068C84.6263 29.2147 84.7729 29.4493 84.7729 29.772C84.7729 30.0947 84.6116 30.322 84.2889 30.454C83.9809 30.586 83.4529 30.652 82.7049 30.652H81.8469L81.8029 31.07C81.7883 31.3487 81.7736 31.752 81.7589 32.28C81.7296 32.7493 81.6856 33.094 81.6269 33.314C81.5683 33.5193 81.4729 33.6807 81.3409 33.798C81.0623 34.0473 80.7763 34.0987 80.4829 33.952C80.2043 33.7907 80.0136 33.4973 79.9109 33.072C79.8523 32.8227 79.8156 31.5687 79.8009 29.31C79.8009 27.0513 79.8303 25.8633 79.8889 25.746C80.0503 25.394 80.3289 25.1667 80.7249 25.064ZM73.4209 25.394C73.6409 25.3353 74.3156 25.3207 75.4449 25.35C76.5743 25.3647 77.1976 25.4013 77.3149 25.46C77.6376 25.6507 77.8136 25.9367 77.8429 26.318C77.8723 26.6847 77.7329 26.9267 77.4249 27.044C77.1169 27.1613 76.5523 27.22 75.7309 27.22C75.0856 27.22 74.3009 27.2787 73.3769 27.396C72.9369 27.4547 72.5849 27.4913 72.3209 27.506C71.9396 27.5353 71.7123 27.5573 71.6389 27.572C71.3896 27.6013 71.1843 27.5207 71.0229 27.33C70.8616 27.1247 70.7883 26.8827 70.8029 26.604C70.8176 26.3253 70.9203 26.098 71.1109 25.922C71.2576 25.79 71.4116 25.702 71.5729 25.658C71.7343 25.614 72.1009 25.5627 72.6729 25.504C73.0249 25.46 73.2743 25.4233 73.4209 25.394ZM73.8609 27.682C73.9343 27.6673 74.0076 27.66 74.0809 27.66C74.1689 27.6453 74.2349 27.638 74.2789 27.638C74.3229 27.6233 74.3523 27.616 74.3669 27.616C74.7923 27.572 75.2396 27.6747 75.7089 27.924C76.1783 28.1733 76.5669 28.5253 76.8749 28.98C77.1536 29.3613 77.3663 29.8307 77.5129 30.388C77.6743 30.9453 77.7036 31.356 77.6009 31.62C77.3663 32.1627 77.1023 32.6027 76.8089 32.94C76.5156 33.2627 76.1416 33.534 75.6869 33.754C74.9389 34.106 74.0956 34.1133 73.1569 33.776C72.2329 33.4387 71.5949 32.9033 71.2429 32.17C71.0523 31.774 70.9276 31.4807 70.8689 31.29C70.8249 31.0993 70.8029 30.828 70.8029 30.476C70.8029 30.0213 70.8836 29.6473 71.0449 29.354C71.2209 29.046 71.5216 28.738 71.9469 28.43C72.1523 28.2833 72.4529 28.1073 72.8489 27.902C72.9223 27.8727 72.9956 27.858 73.0689 27.858C73.1423 27.858 73.2229 27.836 73.3109 27.792C73.3843 27.748 73.5676 27.7113 73.8609 27.682ZM74.6969 29.662C73.9489 29.2807 73.3256 29.4713 72.8269 30.234C72.6363 30.5127 72.6289 30.8573 72.8049 31.268C72.9956 31.664 73.2889 31.928 73.6849 32.06C73.8169 32.104 74.0296 32.1333 74.3229 32.148C74.6309 32.148 74.7923 32.126 74.8069 32.082C74.8363 32.0527 74.8949 32.038 74.9829 32.038C75.1589 32.038 75.3129 31.9133 75.4449 31.664C75.5916 31.4147 75.6649 31.1507 75.6649 30.872C75.6649 30.5933 75.5916 30.366 75.4449 30.19C75.3129 30.014 75.0636 29.838 74.6969 29.662ZM74.3009 34.898C74.6676 34.7807 74.9316 34.8467 75.0929 35.096C75.2689 35.3307 75.3936 35.8147 75.4669 36.548C75.5256 37.0613 75.5623 37.3547 75.5769 37.428C75.6063 37.5013 75.6943 37.5453 75.8409 37.56C76.0023 37.5893 76.6183 37.5747 77.6889 37.516C79.4636 37.4427 80.5929 37.4133 81.0769 37.428C81.5609 37.4427 81.8763 37.516 82.0229 37.648C82.3603 37.9413 82.4556 38.264 82.3089 38.616C82.1623 38.968 81.8396 39.2027 81.3409 39.32C81.0183 39.3933 79.9769 39.452 78.2169 39.496C76.4716 39.54 75.4523 39.5327 75.1589 39.474C74.6456 39.3713 74.2789 39.1807 74.0589 38.902C73.8536 38.638 73.7143 38.198 73.6409 37.582C73.5383 36.6873 73.5309 36.042 73.6189 35.646C73.7216 35.25 73.9489 35.0007 74.3009 34.898ZM91.1215 23.26C92.5001 23.216 93.3288 23.2087 93.6075 23.238C93.8861 23.2673 94.1281 23.3847 94.3335 23.59C94.5535 23.81 94.6855 24.0813 94.7295 24.404C94.7881 24.7267 94.7955 25.2693 94.7515 26.032C94.7075 26.8973 94.6341 27.4693 94.5315 27.748C94.4288 28.0267 94.2161 28.2173 93.8935 28.32C93.6148 28.4227 93.3655 28.3493 93.1455 28.1C92.9255 27.8507 92.8375 27.5353 92.8815 27.154C92.9108 26.8753 92.9328 26.538 92.9475 26.142C92.9475 26.0833 92.9548 26.0027 92.9695 25.9C92.9841 25.5187 92.9328 25.2987 92.8155 25.24C92.7128 25.1813 92.3021 25.1593 91.5835 25.174C91.3928 25.174 91.2461 25.174 91.1435 25.174C89.8968 25.2033 88.8555 25.262 88.0195 25.35C87.7115 25.394 87.4548 25.328 87.2495 25.152C87.0441 24.9613 86.9415 24.7193 86.9415 24.426C86.9415 24.03 87.2275 23.7587 87.7995 23.612C88.3715 23.4507 89.4788 23.3333 91.1215 23.26ZM91.6275 29.31C91.8621 29.2953 92.3535 29.3027 93.1015 29.332C93.8641 29.3467 94.4215 29.3613 94.7735 29.376C95.2135 29.42 95.5288 29.5153 95.7195 29.662C95.9101 29.794 96.0055 30.0067 96.0055 30.3C96.0055 30.652 95.7708 30.894 95.3015 31.026C94.8468 31.1433 93.9521 31.2093 92.6175 31.224C92.5441 31.224 92.5001 31.2973 92.4855 31.444C92.4708 31.576 92.4561 31.9427 92.4415 32.544C92.4415 32.6027 92.4415 32.698 92.4415 32.83C92.4415 33.314 92.4708 33.6 92.5295 33.688C92.6028 33.7613 92.8595 33.8053 93.2995 33.82C93.4168 33.82 93.5048 33.82 93.5635 33.82C94.1648 33.8347 94.5828 33.8933 94.8175 33.996C95.0521 34.0987 95.2428 34.3113 95.3895 34.634C95.4775 34.8247 95.5068 35.5287 95.4775 36.746C95.4481 37.9633 95.3821 38.682 95.2795 38.902C95.1328 39.254 94.8761 39.452 94.5095 39.496C94.1428 39.5547 93.8348 39.43 93.5855 39.122L93.3655 38.88L93.3875 37.362C93.4021 36.3353 93.3801 35.7927 93.3215 35.734C93.2481 35.6753 93.0135 35.646 92.6175 35.646C92.2215 35.646 91.0628 35.6753 89.1415 35.734C88.3348 35.7633 87.7848 35.7193 87.4915 35.602C87.1981 35.47 87.0515 35.228 87.0515 34.876C87.0515 34.2747 87.7481 33.974 89.1415 33.974C89.3761 33.974 89.6695 33.9593 90.0215 33.93C90.3881 33.886 90.5861 33.8493 90.6155 33.82C90.6448 33.8053 90.6301 33.6513 90.5715 33.358C90.5128 33.05 90.4761 32.6247 90.4615 32.082L90.4175 31.246L88.5035 31.29C87.5355 31.29 86.9635 31.29 86.7875 31.29C86.6115 31.2753 86.4648 31.224 86.3475 31.136C86.0395 30.9307 85.8781 30.6813 85.8635 30.388C85.8488 30.08 85.9881 29.8453 86.2815 29.684C86.4281 29.6107 86.6995 29.5593 87.0955 29.53C87.4915 29.486 88.2981 29.442 89.5155 29.398C90.6301 29.354 91.3341 29.3247 91.6275 29.31ZM108.716 25.768C108.936 25.6213 109.148 25.5847 109.354 25.658C109.559 25.7167 109.72 25.8633 109.838 26.098C109.911 26.2593 109.97 27.8433 110.014 30.85C110.072 33.842 110.072 35.602 110.014 36.13C109.97 36.5847 109.808 36.8927 109.53 37.054C109.251 37.2007 108.943 37.164 108.606 36.944C108.371 36.7973 108.224 36.5993 108.166 36.35C108.122 36.1007 108.085 35.4333 108.056 34.348C108.026 32.7787 107.997 31.862 107.968 31.598C107.938 31.3193 107.858 31.158 107.726 31.114C107.594 31.07 107.293 31.0627 106.824 31.092C106.266 31.1213 105.885 31.0847 105.68 30.982C105.474 30.8793 105.357 30.674 105.328 30.366C105.313 30.1313 105.328 29.9627 105.372 29.86C105.416 29.7427 105.511 29.64 105.658 29.552C105.804 29.4493 105.958 29.3833 106.12 29.354C106.296 29.3247 106.75 29.266 107.484 29.178C107.513 29.178 107.542 29.178 107.572 29.178C107.836 29.1487 107.99 29.0827 108.034 28.98C108.078 28.8773 108.107 28.5473 108.122 27.99C108.122 27.902 108.129 27.836 108.144 27.792C108.158 27.044 108.195 26.56 108.254 26.34C108.327 26.1053 108.481 25.9147 108.716 25.768ZM99.9158 26.076C100.209 25.988 100.708 25.9733 101.412 26.032C102.116 26.076 102.607 26.1713 102.886 26.318C103.692 26.7287 104.242 27.418 104.536 28.386C104.624 28.7087 104.682 28.9727 104.712 29.178C104.741 29.3687 104.763 29.7573 104.778 30.344C104.792 31.1653 104.77 31.7227 104.712 32.016C104.668 32.2947 104.521 32.676 104.272 33.16C104.169 33.3507 103.912 33.6073 103.502 33.93C103.414 33.9887 103.26 34.0693 103.04 34.172C102.834 34.2747 102.702 34.326 102.644 34.326C102.57 34.326 102.512 34.348 102.468 34.392C102.424 34.436 102.094 34.458 101.478 34.458C100.876 34.458 100.502 34.4287 100.356 34.37C99.8278 34.2087 99.4391 34.0693 99.1898 33.952C98.9551 33.82 98.7278 33.6367 98.5078 33.402C98.3318 33.2407 98.1631 33.0573 98.0018 32.852C97.8405 32.6467 97.7598 32.5147 97.7598 32.456C97.7598 32.4413 97.7158 32.3607 97.6278 32.214C97.5398 32.082 97.4738 31.9427 97.4298 31.796C97.4151 31.7667 97.3931 31.7153 97.3638 31.642C97.3345 31.554 97.3125 31.5027 97.2978 31.488C97.1658 31.136 97.0998 30.608 97.0998 29.904C97.0998 29.3613 97.1218 28.9727 97.1658 28.738C97.2098 28.5033 97.3198 28.1953 97.4958 27.814C97.5985 27.6233 97.7671 27.396 98.0018 27.132C98.2511 26.868 98.4565 26.6993 98.6178 26.626C99.0871 26.3913 99.3951 26.252 99.5418 26.208C99.5711 26.1933 99.6298 26.1713 99.7178 26.142C99.8205 26.1127 99.8865 26.0907 99.9158 26.076ZM101.478 27.968C101.419 27.9387 101.258 27.9167 100.994 27.902C100.73 27.8727 100.532 27.8653 100.4 27.88C100.253 27.8947 100.048 27.9607 99.7838 28.078C99.4318 28.2393 99.2045 28.5693 99.1018 29.068C98.9991 29.5667 99.0285 30.102 99.1898 30.674C99.3658 31.246 99.6518 31.708 100.048 32.06C100.282 32.2947 100.627 32.456 101.082 32.544C101.551 32.6173 101.918 32.5953 102.182 32.478C102.328 32.4047 102.475 32.2947 102.622 32.148C102.783 31.9867 102.864 31.8767 102.864 31.818C102.864 31.7447 102.878 31.686 102.908 31.642C102.996 31.554 103.04 31.1727 103.04 30.498C103.04 29.8087 102.996 29.3833 102.908 29.222C102.878 29.1487 102.864 29.09 102.864 29.046C102.864 28.9727 102.739 28.8333 102.49 28.628C102.255 28.408 102.057 28.254 101.896 28.166C101.837 28.1367 101.756 28.1 101.654 28.056C101.551 27.9973 101.492 27.968 101.478 27.968ZM125.313 29.442C125.562 29.31 125.833 29.2953 126.127 29.398C126.42 29.486 126.596 29.6473 126.655 29.882C126.669 29.9847 126.574 30.344 126.369 30.96C126.178 31.5613 125.98 32.082 125.775 32.522C125.657 32.7713 125.533 33.05 125.401 33.358C125.254 33.71 124.887 34.4507 124.301 35.58C123.729 36.7093 123.399 37.3107 123.311 37.384C123.12 37.5893 122.827 37.67 122.431 37.626C122.064 37.5967 121.778 37.5013 121.573 37.34C121.382 37.164 121.184 36.856 120.979 36.416C120.773 35.9613 120.473 35.184 120.077 34.084C119.783 33.292 119.571 32.7273 119.439 32.39C119.351 32.1847 119.255 31.9353 119.153 31.642C119.006 31.2607 118.911 31.004 118.867 30.872C118.573 30.08 118.757 29.6473 119.417 29.574C119.842 29.5153 120.187 29.6473 120.451 29.97C120.729 30.2927 121.037 30.916 121.375 31.84C121.492 32.1627 121.683 32.6393 121.947 33.27C122.225 33.9007 122.401 34.282 122.475 34.414C122.577 34.5753 122.665 34.6047 122.739 34.502C122.783 34.4287 122.871 34.2527 123.003 33.974C123.135 33.6367 123.413 33.0573 123.839 32.236C124.029 31.8693 124.242 31.3927 124.477 30.806C124.814 29.9993 125.093 29.5447 125.313 29.442ZM131.124 29.376C131.887 29.288 132.503 29.3027 132.972 29.42C133.441 29.5373 133.918 29.8013 134.402 30.212C135.458 31.092 135.795 32.0453 135.414 33.072C135.355 33.2333 135.238 33.4093 135.062 33.6C134.901 33.776 134.769 33.864 134.666 33.864C134.637 33.864 134.556 33.886 134.424 33.93C133.764 34.238 132.561 34.3773 130.816 34.348C130.435 34.348 130.2 34.3553 130.112 34.37C130.039 34.37 130.002 34.3993 130.002 34.458C129.973 34.5753 130.09 34.744 130.354 34.964C130.618 35.184 130.889 35.3453 131.168 35.448C131.329 35.5067 131.659 35.5287 132.158 35.514C132.657 35.4993 132.994 35.4553 133.17 35.382C134.035 35.0447 134.615 34.898 134.908 34.942C135.216 34.986 135.37 35.228 135.37 35.668C135.37 35.9173 135.333 36.108 135.26 36.24C135.187 36.3573 135.04 36.4967 134.82 36.658C134.644 36.7753 134.402 36.9147 134.094 37.076C133.801 37.2227 133.625 37.296 133.566 37.296C133.522 37.296 133.412 37.3327 133.236 37.406C132.781 37.626 132.268 37.7067 131.696 37.648C131.139 37.5893 130.603 37.45 130.09 37.23C129.591 37.01 129.144 36.702 128.748 36.306C128.367 35.8953 128.11 35.4627 127.978 35.008C127.861 34.524 127.787 34.216 127.758 34.084C127.743 33.952 127.751 33.7907 127.78 33.6C127.883 32.5293 128.257 31.5907 128.902 30.784C129.547 29.9627 130.288 29.4933 131.124 29.376ZM132.774 31.268C132.393 31.092 132.033 31.048 131.696 31.136C131.373 31.224 131.007 31.4587 130.596 31.84C130.171 32.2507 130.009 32.522 130.112 32.654C130.141 32.698 130.2 32.7053 130.288 32.676C130.405 32.6613 130.611 32.632 130.904 32.588C131.227 32.544 131.483 32.5073 131.674 32.478C131.85 32.434 132.143 32.39 132.554 32.346C132.965 32.2727 133.199 32.2067 133.258 32.148C133.39 32.0453 133.405 31.906 133.302 31.73C133.199 31.5393 133.023 31.3853 132.774 31.268ZM137.444 29.442C137.869 29.398 138.133 29.42 138.236 29.508C138.353 29.596 138.427 29.8527 138.456 30.278C138.471 30.5713 138.5 30.74 138.544 30.784C138.603 30.828 138.72 30.806 138.896 30.718C139.365 30.4687 139.93 30.3147 140.59 30.256C141.265 30.1827 141.785 30.2193 142.152 30.366C142.665 30.586 143.032 30.8867 143.252 31.268C143.472 31.6493 143.501 32.0453 143.34 32.456C143.135 32.9987 142.673 33.0867 141.954 32.72C140.957 32.2067 140.106 32.0967 139.402 32.39C139.138 32.5073 138.984 32.6173 138.94 32.72C138.911 32.808 138.896 33.094 138.896 33.578C138.881 34.2087 138.859 34.7367 138.83 35.162C138.815 35.5873 138.779 35.9687 138.72 36.306C138.676 36.6433 138.61 36.9 138.522 37.076C138.434 37.252 138.324 37.3987 138.192 37.516C138.075 37.6187 137.928 37.6627 137.752 37.648C137.591 37.6333 137.4 37.604 137.18 37.56C137.151 37.5453 137.114 37.538 137.07 37.538C136.879 37.4793 136.762 37.3253 136.718 37.076C136.689 36.812 136.674 35.9247 136.674 34.414C136.674 34.0767 136.674 33.8127 136.674 33.622C136.674 33.5487 136.674 33.4387 136.674 33.292C136.674 31.4 136.703 30.3 136.762 29.992C136.821 29.6693 137.026 29.486 137.378 29.442C137.407 29.442 137.429 29.442 137.444 29.442ZM145.439 34.59C145.82 34.3847 146.26 34.4727 146.759 34.854C147.023 35.0447 147.169 35.3527 147.199 35.778C147.228 36.1887 147.147 36.5773 146.957 36.944C146.781 37.3107 146.539 37.538 146.231 37.626C145.923 37.6993 145.585 37.6113 145.219 37.362C144.867 37.1127 144.661 36.8267 144.603 36.504C144.529 36.0933 144.566 35.7193 144.713 35.382C144.859 35.0447 145.101 34.7807 145.439 34.59Z" fill="#2F5388"/>
</svg>
