<svg width="335" height="65" viewBox="0 0 335 65" fill="none" xmlns="http://www.w3.org/2000/svg">
<path d="M291.868 1.00195V1.00098L305.679 1.6377L305.717 1.63965L305.755 1.6377L319.516 0.767578L331.984 2.25586L333.207 10.1045L331.851 18.9541L331.837 19.0488L331.848 19.1436L332.914 28.0566L332.745 36.9639V36.9834L332.823 45.9463V46L332.832 46.0537L334.289 54.8926L332.714 63.1562L319.509 64.1045L305.766 64.2988L291.988 62.9971L291.941 62.9922L291.894 62.9941L278.091 63.5645L264.327 63.4922L250.513 62.5713L250.453 62.5674L250.394 62.5732L236.648 63.9941L222.906 62.6143L222.835 62.6064L222.763 62.6143L209.026 64.0664L195.295 62.3467L195.236 62.3389L195.179 62.3418L181.388 62.9111L167.612 61.9912L167.548 61.9873L167.484 61.9951L153.743 63.6025L139.987 62.3271L139.911 62.3203L139.834 62.3301L126.065 64.0938L112.311 63.4922L98.4883 62.7988L98.4424 62.7969L98.3965 62.8008L84.6504 63.9287L70.9121 62.1836L70.8613 62.1768L70.8105 62.1777L56.9824 62.4473H56.96L56.9375 62.4492L43.1533 63.6133L29.3828 63.0518L29.3389 63.0498L29.2949 63.0537L15.5146 64.2236L2.48438 63.1973L3.20703 54.9717L3.21582 54.8652L3.19336 54.7598L1.25 45.9463L2.97461 37.1357L3.00488 36.9814L2.96582 36.8291L0.722656 28.041L3.04199 19.2549L3.08008 19.1133L3.05762 18.9697L1.68945 10.1221L3.0791 2.27832L15.499 1.11133L29.252 2.62207L29.3027 2.62793L29.3545 2.62598L43.1426 2.1123L56.957 2.12012H56.9824L57.0068 2.11816L70.7764 1.13379L84.541 2.02051L84.5635 2.02246H84.5859L98.4004 2.03906L112.189 2.56055H112.195L126.022 2.96875L126.06 2.96973L126.096 2.9668L139.889 1.93164L153.648 1.62207L167.442 2.77051L167.499 2.77539L167.557 2.77148L181.328 1.64746L195.106 2.34766L195.12 2.34863L208.935 2.78906L208.961 2.79004L208.987 2.78906L222.814 2.19336L222.813 2.19238L236.605 2.06348H236.62L236.636 2.0625L250.433 1.34473L264.211 1.93164L264.258 1.93359L264.304 1.92969L278.076 0.700195L291.868 1.00195Z" fill="white" stroke="#6995D6" stroke-width="1.4"/>
<path d="M40.8686 26.1416C41.0836 26.5437 44.5616 26.1705 45.2566 26.3539C45.4841 26.4118 45.5901 26.5244 45.7303 26.7303C46.7027 28.1653 44.7892 28.9761 44.0412 29.671C43.5831 30.0957 43.0346 30.8486 42.5671 31.2025C42.1277 31.5339 40.7844 31.8653 40.6909 32.1838C40.4229 33.0911 42.0435 33.4128 42.5203 34.0692C43.1062 34.8767 44.3497 35.6103 43.7451 36.8265C42.9317 37.6534 39.142 36.3921 37.4996 37.5247C35.9351 38.6025 36.3621 43.8372 34.0808 42.8848C32.9963 42.4312 33.4108 40.401 33.1116 39.2106C32.9402 38.5285 32.4197 37.2705 31.6842 37.5311C30.6994 37.8786 29.1692 41.0059 28.0815 40.9351C27.7979 40.9158 27.4582 40.6616 27.3772 40.3399C27.1996 39.6288 28.2436 36.3632 28.2654 35.2307C28.2966 33.5415 26.7227 33.8086 25.7597 33.5448C24.7936 33.2809 23.1855 32.8691 23.011 31.4792C22.8863 30.4915 23.8493 29.4748 24.644 29.4169C24.9214 29.3943 25.1801 29.5423 25.4107 29.5198C27.6421 29.301 28.2716 28.2361 28.0161 25.6171C27.9008 24.4331 27.0437 23.7607 27.4146 22.4255C27.7418 21.2544 29.3468 22.3901 29.9296 22.596C30.9394 22.9499 32.1517 23.2266 33.1178 23.6706C33.6133 23.8991 35.128 25.0637 35.3617 25.0637C35.611 25.0637 35.8572 24.8096 36.0286 24.6133L38.3972 21.1804C40.0271 20.0157 41.1709 24.8224 40.8748 26.1383L40.8686 26.1416Z" fill="#9CBCAD"/>
<path d="M76.3614 23.92C76.4054 23.8907 76.5887 23.898 76.9114 23.942C77.2487 23.986 77.476 24.0373 77.5934 24.096C77.784 24.1987 77.916 24.3747 77.9894 24.624C78.1067 25.1227 78.092 25.4527 77.9454 25.614C77.7987 25.7607 77.388 25.856 76.7134 25.9C76.2147 25.9293 75.9434 25.966 75.8994 26.01C75.8407 26.054 75.826 27.3887 75.8554 30.014C75.87 32.6687 75.8554 34.1647 75.8114 34.502C75.7527 34.9273 75.76 35.1767 75.8334 35.25C75.9214 35.3087 76.244 35.3453 76.8014 35.36C77.388 35.3747 77.7547 35.4407 77.9014 35.558C78.048 35.6753 78.0774 35.9393 77.9894 36.35C77.9014 36.8193 77.74 37.1347 77.5054 37.296C77.2707 37.4427 76.838 37.516 76.2074 37.516C75.6207 37.516 75.2467 37.538 75.0854 37.582C74.792 37.6553 74.154 37.67 73.1714 37.626C72.2034 37.5673 71.6167 37.4867 71.4114 37.384C71.2354 37.3107 71.1107 37.142 71.0374 36.878C70.964 36.614 70.9714 36.3647 71.0594 36.13C71.1034 35.954 71.1914 35.8513 71.3234 35.822C71.47 35.778 71.8294 35.7413 72.4014 35.712C72.46 35.712 72.548 35.712 72.6654 35.712C73.1494 35.6973 73.4354 35.646 73.5234 35.558C73.6114 35.4553 73.6774 35.1327 73.7214 34.59C73.736 34.458 73.7434 34.3553 73.7434 34.282C73.7874 33.7833 73.8314 33.314 73.8754 32.874C73.9194 32.4927 73.934 31.7667 73.9194 30.696C73.9194 29.6107 73.9047 28.8187 73.8754 28.32C73.8607 28.2027 73.8387 27.968 73.8094 27.616C73.78 27.2493 73.758 26.9927 73.7434 26.846C73.714 26.3767 73.67 26.1127 73.6114 26.054C73.5527 25.9807 73.34 25.9587 72.9734 25.988C72.2694 26.032 71.8147 25.9587 71.6094 25.768C71.404 25.5773 71.3967 25.218 71.5874 24.69C71.6314 24.5433 71.6827 24.4407 71.7414 24.382C71.8 24.3087 71.8807 24.2427 71.9834 24.184C72.086 24.1253 72.262 24.0887 72.5114 24.074C72.7754 24.0447 73.054 24.0227 73.3474 24.008C73.6554 23.9933 74.1174 23.986 74.7334 23.986C75.7894 23.9713 76.332 23.9493 76.3614 23.92ZM79.9049 29.552C80.2862 29.4787 80.5356 29.4933 80.6529 29.596C80.7849 29.6987 80.8729 29.9627 80.9169 30.388C80.9462 30.6373 80.9902 30.784 81.0489 30.828C81.0929 30.8573 81.1369 30.8647 81.1809 30.85C81.2396 30.8353 81.3716 30.7693 81.5769 30.652C81.8702 30.4907 82.4056 30.3807 83.1829 30.322C83.9602 30.2633 84.4736 30.2927 84.7229 30.41C85.4562 30.762 85.9402 31.202 86.1749 31.73C86.4242 32.2433 86.5856 33.1967 86.6589 34.59C86.7176 35.8513 86.6736 36.6653 86.5269 37.032C86.3949 37.384 86.0502 37.56 85.4929 37.56C85.4636 37.56 85.4269 37.56 85.3829 37.56C85.1042 37.56 84.9356 37.494 84.8769 37.362C84.8329 37.2153 84.8182 36.724 84.8329 35.888C84.8329 35.7413 84.8329 35.6313 84.8329 35.558C84.8476 34.678 84.8476 34.15 84.8329 33.974C84.8182 33.7833 84.7669 33.578 84.6789 33.358C84.4589 32.7567 84.1582 32.39 83.7769 32.258C83.4102 32.126 82.8602 32.192 82.1269 32.456C82.1122 32.4707 82.0976 32.478 82.0829 32.478C81.7896 32.5953 81.6136 32.7273 81.5549 32.874C81.4962 33.0207 81.4596 33.468 81.4449 34.216C81.4449 34.2747 81.4449 34.326 81.4449 34.37C81.4302 34.7807 81.4156 35.1253 81.4009 35.404C81.3862 35.668 81.3642 35.9247 81.3349 36.174C81.3202 36.4233 81.2982 36.6287 81.2689 36.79C81.2396 36.9367 81.1956 37.076 81.1369 37.208C81.0782 37.3253 81.0196 37.4133 80.9609 37.472C80.9022 37.5307 80.8216 37.5747 80.7189 37.604C80.6309 37.6333 80.5356 37.648 80.4329 37.648C80.3302 37.648 80.1982 37.6407 80.0369 37.626C80.0222 37.6113 80.0076 37.604 79.9929 37.604C79.6409 37.5453 79.4282 37.4133 79.3549 37.208C79.2962 36.988 79.2522 36.2693 79.2229 35.052C79.2229 34.9787 79.2229 34.9273 79.2229 34.898C79.1642 32.0233 79.1862 30.4027 79.2889 30.036C79.3622 29.7867 79.5236 29.6327 79.7729 29.574C79.8022 29.5593 79.8462 29.552 79.9049 29.552ZM90.2367 29.178C90.6767 29.1193 91.234 29.112 91.9087 29.156C92.598 29.2 93.0527 29.2733 93.2727 29.376C93.698 29.552 93.9913 29.838 94.1527 30.234C94.3287 30.6153 94.2847 30.894 94.0207 31.07C93.9033 31.1433 93.6907 31.1727 93.3827 31.158C93.0893 31.1433 92.8033 31.092 92.5247 31.004C92.2313 30.8867 91.9013 30.828 91.5347 30.828C91.1827 30.828 90.9187 30.8793 90.7427 30.982C90.288 31.2313 90.222 31.4733 90.5447 31.708C90.7793 31.884 91.2487 32.1113 91.9527 32.39C92.9353 32.786 93.6027 33.1233 93.9547 33.402C94.3067 33.666 94.5707 34.062 94.7467 34.59C94.9227 35.1327 94.7907 35.6827 94.3507 36.24C93.9107 36.7827 93.302 37.186 92.5247 37.45C91.762 37.6993 91.0287 37.7213 90.3247 37.516C90.1487 37.472 89.9727 37.428 89.7967 37.384C89.694 37.3547 89.5767 37.3107 89.4447 37.252C89.1513 37.1347 88.9533 37.054 88.8507 37.01C88.3813 36.8193 88.0807 36.6653 87.9487 36.548C87.8313 36.416 87.7727 36.2253 87.7727 35.976C87.7727 34.8173 88.4913 34.568 89.9287 35.228C90.5007 35.492 91.0433 35.6093 91.5567 35.58C92.07 35.5507 92.3853 35.3747 92.5027 35.052C92.576 34.8613 92.4587 34.6853 92.1507 34.524C91.8427 34.348 91.212 34.128 90.2587 33.864C89.5107 33.644 89.0047 33.38 88.7407 33.072C88.3887 32.676 88.176 32.3973 88.1027 32.236C88.0293 32.06 88 31.8107 88.0147 31.488C88.0293 30.9307 88.2567 30.432 88.6967 29.992C89.1367 29.5373 89.65 29.266 90.2367 29.178ZM98.8412 25.944C98.9439 25.9 99.1492 25.8927 99.4572 25.922C99.7652 25.9367 99.9779 25.9733 100.095 26.032C100.315 26.1347 100.455 26.3913 100.513 26.802C100.587 27.198 100.594 27.8213 100.535 28.672C100.491 29.3907 100.491 29.7647 100.535 29.794C100.565 29.8087 100.726 29.8087 101.019 29.794C101.327 29.7793 101.591 29.7573 101.811 29.728C103.381 29.464 104.165 29.6253 104.165 30.212C104.165 30.6227 104.033 30.9087 103.769 31.07C103.505 31.2167 102.941 31.3413 102.075 31.444C101.987 31.4587 101.863 31.4733 101.701 31.488C101.056 31.5613 100.682 31.6567 100.579 31.774C100.477 31.8913 100.447 32.2653 100.491 32.896C100.491 33.0573 100.499 33.182 100.513 33.27C100.572 34.5167 100.704 35.2647 100.909 35.514C101.129 35.7633 101.584 35.7193 102.273 35.382C102.684 35.1767 103.146 35.0373 103.659 34.964C103.879 34.92 104.048 35.008 104.165 35.228C104.297 35.448 104.319 35.7047 104.231 35.998C104.158 36.2767 104.019 36.5113 103.813 36.702C103.608 36.878 103.285 37.0467 102.845 37.208C102.009 37.5307 101.342 37.6773 100.843 37.648C100.359 37.604 99.8606 37.362 99.3472 36.922C98.9806 36.614 98.7459 36.262 98.6432 35.866C98.5552 35.4553 98.5039 34.6413 98.4892 33.424C98.4892 33.336 98.4892 33.2113 98.4892 33.05C98.4892 32.3167 98.4672 31.8913 98.4232 31.774C98.3792 31.642 98.2252 31.5613 97.9612 31.532C97.9026 31.532 97.8586 31.532 97.8292 31.532C97.7559 31.532 97.6386 31.5247 97.4772 31.51C96.6852 31.4513 96.2232 31.3927 96.0912 31.334C95.9592 31.2607 95.9079 31.07 95.9372 30.762C95.9372 30.7033 95.9372 30.6593 95.9372 30.63C95.9666 30.2193 96.0472 29.97 96.1792 29.882C96.3259 29.7793 96.7219 29.7133 97.3672 29.684C97.8512 29.6693 98.1226 29.6253 98.1812 29.552C98.2546 29.4787 98.3059 29.1927 98.3352 28.694C98.3646 28.166 98.3939 27.858 98.4232 27.77C98.4379 27.6527 98.4599 27.3887 98.4892 26.978C98.5186 26.6113 98.5552 26.362 98.5992 26.23C98.6432 26.0833 98.7239 25.988 98.8412 25.944ZM106.248 34.59C106.63 34.3847 107.07 34.4727 107.568 34.854C107.832 35.0447 107.979 35.3527 108.008 35.778C108.038 36.1887 107.957 36.5773 107.766 36.944C107.59 37.3107 107.348 37.538 107.04 37.626C106.732 37.6993 106.395 37.6113 106.028 37.362C105.676 37.1127 105.471 36.8267 105.412 36.504C105.339 36.0933 105.376 35.7193 105.522 35.382C105.669 35.0447 105.911 34.7807 106.248 34.59Z" fill="#2F5388"/>
</svg>
