<svg width="335" height="65" viewBox="0 0 335 65" fill="none" xmlns="http://www.w3.org/2000/svg">
<path d="M291.868 1.00195V1.00098L305.679 1.6377L305.717 1.63965L305.755 1.6377L319.516 0.767578L331.984 2.25586L333.207 10.1045L331.851 18.9541L331.837 19.0488L331.848 19.1436L332.914 28.0566L332.745 36.9639V36.9834L332.823 45.9463V46L332.832 46.0537L334.289 54.8926L332.714 63.1562L319.509 64.1045L305.766 64.2988L291.988 62.9971L291.941 62.9922L291.894 62.9941L278.091 63.5645L264.327 63.4922L250.513 62.5713L250.453 62.5674L250.394 62.5732L236.648 63.9941L222.906 62.6143L222.835 62.6064L222.763 62.6143L209.026 64.0664L195.295 62.3467L195.236 62.3389L195.179 62.3418L181.388 62.9111L167.612 61.9912L167.548 61.9873L167.484 61.9951L153.743 63.6025L139.987 62.3271L139.911 62.3203L139.834 62.3301L126.065 64.0938L112.311 63.4922L98.4883 62.7988L98.4424 62.7969L98.3965 62.8008L84.6504 63.9287L70.9121 62.1836L70.8613 62.1768L70.8105 62.1777L56.9824 62.4473H56.96L56.9375 62.4492L43.1533 63.6133L29.3828 63.0518L29.3389 63.0498L29.2949 63.0537L15.5146 64.2236L2.48438 63.1973L3.20703 54.9717L3.21582 54.8652L3.19336 54.7598L1.25 45.9463L2.97461 37.1357L3.00488 36.9814L2.96582 36.8291L0.722656 28.041L3.04199 19.2549L3.08008 19.1133L3.05762 18.9697L1.68945 10.1221L3.0791 2.27832L15.499 1.11133L29.252 2.62207L29.3027 2.62793L29.3545 2.62598L43.1426 2.1123L56.957 2.12012H56.9824L57.0068 2.11816L70.7764 1.13379L84.541 2.02051L84.5635 2.02246H84.5859L98.4004 2.03906L112.189 2.56055H112.195L126.022 2.96875L126.06 2.96973L126.096 2.9668L139.889 1.93164L153.648 1.62207L167.442 2.77051L167.499 2.77539L167.557 2.77148L181.328 1.64746L195.106 2.34766L195.12 2.34863L208.935 2.78906L208.961 2.79004L208.987 2.78906L222.814 2.19336L222.813 2.19238L236.605 2.06348H236.62L236.636 2.0625L250.433 1.34473L264.211 1.93164L264.258 1.93359L264.304 1.92969L278.076 0.700195L291.868 1.00195Z" fill="white" stroke="#6995D6" stroke-width="1.4"/>
</svg>
