<svg width="335" height="65" viewBox="0 0 335 65" fill="none" xmlns="http://www.w3.org/2000/svg">
<path d="M291.868 1.00195V1.00098L305.679 1.6377L305.717 1.63965L305.755 1.6377L319.516 0.767578L331.984 2.25586L333.207 10.1045L331.851 18.9541L331.837 19.0488L331.848 19.1436L332.914 28.0566L332.745 36.9639V36.9834L332.823 45.9463V46L332.832 46.0537L334.289 54.8926L332.714 63.1562L319.509 64.1045L305.766 64.2988L291.988 62.9971L291.941 62.9922L291.894 62.9941L278.091 63.5645L264.327 63.4922L250.513 62.5713L250.453 62.5674L250.394 62.5732L236.648 63.9941L222.906 62.6143L222.835 62.6064L222.763 62.6143L209.026 64.0664L195.295 62.3467L195.236 62.3389L195.179 62.3418L181.388 62.9111L167.612 61.9912L167.548 61.9873L167.484 61.9951L153.743 63.6025L139.987 62.3271L139.911 62.3203L139.834 62.3301L126.065 64.0938L112.311 63.4922L98.4883 62.7988L98.4424 62.7969L98.3965 62.8008L84.6504 63.9287L70.9121 62.1836L70.8613 62.1768L70.8105 62.1777L56.9824 62.4473H56.96L56.9375 62.4492L43.1533 63.6133L29.3828 63.0518L29.3389 63.0498L29.2949 63.0537L15.5146 64.2236L2.48438 63.1973L3.20703 54.9717L3.21582 54.8652L3.19336 54.7598L1.25 45.9463L2.97461 37.1357L3.00488 36.9814L2.96582 36.8291L0.722656 28.041L3.04199 19.2549L3.08008 19.1133L3.05762 18.9697L1.68945 10.1221L3.0791 2.27832L15.499 1.11133L29.252 2.62207L29.3027 2.62793L29.3545 2.62598L43.1426 2.1123L56.957 2.12012H56.9824L57.0068 2.11816L70.7764 1.13379L84.541 2.02051L84.5635 2.02246H84.5859L98.4004 2.03906L112.189 2.56055H112.195L126.022 2.96875L126.06 2.96973L126.096 2.9668L139.889 1.93164L153.648 1.62207L167.442 2.77051L167.499 2.77539L167.557 2.77148L181.328 1.64746L195.106 2.34766L195.12 2.34863L208.935 2.78906L208.961 2.79004L208.987 2.78906L222.814 2.19336L222.813 2.19238L236.605 2.06348H236.62L236.636 2.0625L250.433 1.34473L264.211 1.93164L264.258 1.93359L264.304 1.92969L278.076 0.700195L291.868 1.00195Z" fill="white" stroke="#6995D6" stroke-width="1.4"/>
<path d="M41.7426 22.6852C41.4716 22.515 41.313 22.3262 41.1577 22.1436C40.9642 21.9161 40.7835 21.701 40.4379 21.5757C39.5501 21.2569 38.6037 20.9165 37.662 20.5838C35.8166 19.9323 35.2649 19.8394 33.0803 20.2387C29.0742 20.9706 26.5503 22.2163 24.6923 26.6885C24.4482 27.275 24.2801 27.8739 24.1184 28.4526C24.017 28.8147 23.9123 29.1892 23.7902 29.556C23.6602 29.9428 23.5414 30.2461 23.4367 30.5138C23.1165 31.3294 22.9231 31.823 23.0293 33.2436C23.1783 35.2522 24.0439 37.1184 25.6721 38.946C26.9292 40.3573 30.1506 40.4517 32.2829 40.5136C32.5825 40.5228 32.8616 40.5306 33.1073 40.5414C33.5845 40.5631 34.16 40.2103 34.6197 39.9271C34.7862 39.8249 34.9431 39.7274 35.0652 39.6686C35.5456 39.4365 35.7738 39.4102 36.0148 39.3839C36.3065 39.3514 36.6077 39.3189 37.2862 38.9506C38.7733 38.1444 40.0511 36.3462 40.6218 34.2618C41.1719 32.2532 40.9944 30.2956 40.1224 28.7482C38.4055 25.6981 35.5852 24.4633 32.581 25.4474C31.4284 25.825 29.8193 26.5415 28.6985 27.8166C27.5824 29.0886 27.2162 30.6036 27.6109 32.3197C28.096 34.4274 29.7908 36.4406 31.8232 36.4391C32.0356 36.4391 32.2528 36.4174 32.4716 36.371C33.7494 36.1017 34.3058 35.0201 34.2884 34.0684C34.2709 33.1291 33.6907 32.0861 32.4304 31.871C32.2036 31.8323 31.9516 31.8942 31.7074 31.953C31.2477 32.0644 31.0194 32.0923 30.91 31.8539C30.6167 31.2102 30.7356 30.9549 31.2445 30.5138C32.9408 29.0422 34.3534 29.1892 36.121 31.023C37.207 32.1495 37.1293 34.1334 35.9229 36.0754C35.1365 37.3413 33.873 37.9912 31.95 38.1181C30.6342 38.2047 27.8884 37.1045 26.9704 36.1203C24.8524 33.8533 25.6245 30.3065 27.0513 27.7439C28.1024 25.8575 29.6877 24.5221 31.6361 23.883C33.4133 23.2996 35.3934 23.3351 37.2117 23.982C38.9239 24.5917 40.3904 25.7229 41.3447 27.1667C42.4069 28.7729 42.8334 30.746 42.5813 32.8722C42.1469 36.5319 40.3333 39.1549 38.7289 40.1313C38.3865 40.3402 37.8586 40.4517 37.2989 40.5708C36.3842 40.7658 35.4377 40.967 35.0382 41.6432C34.6752 42.2591 34.6276 42.9384 34.9162 43.4182C35.1413 43.7942 35.5471 44 36.0481 44C36.121 44 36.1971 43.9954 36.2732 43.9861C37.2086 43.8778 37.9315 43.6441 38.5498 43.2479C38.9144 43.0143 39.3076 42.8085 39.688 42.6088C40.2841 42.2962 40.8992 41.9728 41.4636 41.5225C43.8844 39.5882 45.9612 35.2862 45.9993 32.1278C46.0373 28.8673 44.5598 24.4478 41.7426 22.6821V22.6852Z" fill="#B48DD3"/>
<path d="M74.3062 24.338C74.5702 24.2647 75.0176 24.2647 75.6482 24.338C76.2936 24.3967 76.7849 24.4993 77.1222 24.646C77.4302 24.7927 77.7822 25.0787 78.1782 25.504C78.5742 25.9293 78.7722 26.2373 78.7722 26.428C78.7722 26.4867 78.7869 26.5307 78.8162 26.56C78.8602 26.604 78.9336 26.7727 79.0362 27.066C79.2709 27.7847 79.2416 28.5253 78.9482 29.288C78.6696 30.0507 78.1856 30.6447 77.4962 31.07C77.1149 31.3193 76.7482 31.4587 76.3962 31.488C76.0442 31.5027 75.2522 31.444 74.0202 31.312C73.8442 31.2827 73.7416 31.2533 73.7122 31.224C73.6682 31.1947 73.6096 31.18 73.5362 31.18C73.3456 31.18 73.0596 31.048 72.6782 30.784C72.2969 30.5053 71.9962 30.2193 71.7762 29.926C71.4829 29.5447 71.2922 29.068 71.2042 28.496C71.1162 27.924 71.1602 27.3813 71.3362 26.868C71.3656 26.7947 71.3876 26.6993 71.4022 26.582C71.4902 26.186 71.7762 25.7827 72.2602 25.372C72.7442 24.9467 73.2649 24.6533 73.8222 24.492C74.0569 24.4187 74.2182 24.3673 74.3062 24.338ZM75.6042 26.252C75.4576 26.208 75.2302 26.186 74.9222 26.186C74.6142 26.186 74.4309 26.2007 74.3722 26.23C74.3282 26.2593 74.1962 26.3253 73.9762 26.428C73.5216 26.6187 73.2429 26.824 73.1402 27.044C72.8762 27.6893 72.9789 28.3127 73.4482 28.914C73.9322 29.5007 74.5702 29.794 75.3622 29.794C75.6849 29.794 75.8829 29.7793 75.9562 29.75C76.0002 29.7207 76.1029 29.6693 76.2642 29.596C76.5282 29.464 76.7629 29.244 76.9682 28.936C77.1736 28.6133 77.2762 28.3273 77.2762 28.078C77.2762 27.6967 77.1076 27.3227 76.7702 26.956C76.4476 26.5893 76.0589 26.3547 75.6042 26.252ZM82.5122 26.824C82.6442 26.7653 82.8202 26.7433 83.0402 26.758C83.2602 26.7727 83.4142 26.8093 83.5022 26.868C83.6636 26.9707 83.7662 27.1247 83.8102 27.33C83.8542 27.5207 83.8836 28.012 83.8982 28.804C83.8982 28.9653 83.9129 29.5227 83.9422 30.476C83.9716 31.4147 83.9936 32.1407 84.0082 32.654C84.0376 34.018 84.0596 35.0227 84.0742 35.668C84.0889 36.3133 84.0816 36.8633 84.0522 37.318C84.0229 37.758 83.9789 38.0367 83.9202 38.154C83.8762 38.2713 83.7956 38.352 83.6782 38.396C83.4436 38.5133 83.2969 38.5793 83.2382 38.594C83.1796 38.6087 83.0916 38.594 82.9742 38.55C82.6809 38.4473 82.4682 38.2713 82.3362 38.022C82.2189 37.7873 82.1456 37.3913 82.1162 36.834C82.0869 36.306 82.0502 36.02 82.0062 35.976C81.9622 35.9467 81.4782 35.9467 80.5542 35.976C79.8062 36.02 79.3222 36.0347 79.1022 36.02C78.8969 36.0053 78.7136 35.954 78.5522 35.866C78.0829 35.602 77.9216 35.3087 78.0682 34.986C78.2149 34.6487 78.6109 34.436 79.2562 34.348C79.4176 34.3333 79.6229 34.304 79.8722 34.26C79.9749 34.2453 80.2096 34.2087 80.5762 34.15C81.1922 34.062 81.6102 33.974 81.8302 33.886C81.9036 33.8567 81.9476 33.7173 81.9622 33.468C81.9769 33.2187 81.9916 32.346 82.0062 30.85C82.0356 29.09 82.0722 28.0047 82.1162 27.594C82.1749 27.1687 82.3069 26.912 82.5122 26.824ZM76.0002 32.324C76.9096 32.2653 77.6062 32.2507 78.0902 32.28C78.5889 32.3093 78.9189 32.368 79.0802 32.456C79.2562 32.5293 79.3956 32.6833 79.4982 32.918C79.6302 33.2553 79.5349 33.5267 79.2122 33.732C78.8896 33.9227 78.3396 34.0327 77.5622 34.062C76.8436 34.0913 76.4036 34.1207 76.2422 34.15C76.0956 34.1793 76.0149 34.2453 76.0002 34.348C75.9709 34.4947 75.9782 34.942 76.0222 35.69C76.0516 36.4527 76.0516 36.944 76.0222 37.164C76.0076 37.384 75.9342 37.5673 75.8022 37.714C75.6409 37.89 75.4429 37.9927 75.2082 38.022C74.9882 38.0513 74.7902 37.9853 74.6142 37.824C74.4382 37.6773 74.3209 37.4867 74.2622 37.252C74.2182 37.0027 74.1742 36.4967 74.1302 35.734C74.1302 35.6313 74.1229 35.492 74.1082 35.316C74.0936 34.7733 74.0422 34.458 73.9542 34.37C73.8809 34.2673 73.6169 34.2087 73.1622 34.194C73.0302 34.194 72.9202 34.194 72.8322 34.194C72.2456 34.1793 71.8496 34.1573 71.6442 34.128C71.4536 34.084 71.2996 34.0107 71.1822 33.908C70.8742 33.644 70.7862 33.358 70.9182 33.05C71.0502 32.742 71.3289 32.566 71.7542 32.522C72.3556 32.478 73.7709 32.412 76.0002 32.324ZM96.2691 23.898C96.3864 23.8247 96.4744 23.788 96.5331 23.788C96.5918 23.788 96.7018 23.81 96.8631 23.854C97.0244 23.8833 97.1418 23.9567 97.2151 24.074C97.3031 24.1767 97.3691 24.3967 97.4131 24.734C97.4718 25.0567 97.5084 25.4673 97.5231 25.966C97.5378 26.4647 97.5451 27.1907 97.5451 28.144C97.5451 29.4933 97.5304 30.3073 97.5011 30.586C97.4718 30.85 97.3838 31.0627 97.2371 31.224C97.0318 31.4147 96.8411 31.5173 96.6651 31.532C96.4891 31.5467 96.2838 31.466 96.0491 31.29C96.0344 31.2753 96.0198 31.268 96.0051 31.268C95.7998 31.1213 95.6824 30.9233 95.6531 30.674C95.6238 30.41 95.6091 29.5813 95.6091 28.188C95.6091 28.0853 95.6091 28.012 95.6091 27.968C95.6091 26.7507 95.6238 25.9073 95.6531 25.438C95.6824 24.9687 95.7338 24.6313 95.8071 24.426C95.8951 24.206 96.0491 24.03 96.2691 23.898ZM90.2191 24.272C90.5711 24.1987 90.7911 24.316 90.8791 24.624C90.9671 24.9173 90.8864 25.2913 90.6371 25.746C90.5638 25.878 90.5711 26.032 90.6591 26.208C90.7618 26.3693 91.0038 26.6553 91.3851 27.066C92.4264 28.1807 93.0351 28.958 93.2111 29.398C93.3871 29.8233 93.2331 30.1607 92.7491 30.41C92.4264 30.5567 92.1184 30.5567 91.8251 30.41C91.5318 30.2487 91.1578 29.8747 90.7031 29.288C89.9698 28.364 89.5078 27.902 89.3171 27.902C89.1558 27.902 88.8331 28.3493 88.3491 29.244C88.0411 29.8453 87.7624 30.212 87.5131 30.344C87.2638 30.476 86.9558 30.4247 86.5891 30.19C86.1051 29.8527 86.0538 29.332 86.4351 28.628C86.5818 28.3493 86.8238 27.9607 87.1611 27.462C87.5131 26.9487 87.7551 26.626 87.8871 26.494C87.9311 26.45 88.1071 26.2227 88.4151 25.812C89.1338 24.888 89.7351 24.3747 90.2191 24.272ZM89.2951 32.566C89.6178 32.346 89.8964 32.3607 90.1311 32.61C90.3804 32.8447 90.5271 33.2407 90.5711 33.798C90.5858 34.0473 90.6004 34.2013 90.6151 34.26C90.6444 34.3187 90.6884 34.3627 90.7471 34.392C90.8791 34.436 91.6564 34.4287 93.0791 34.37C94.5164 34.3113 95.2644 34.2527 95.3231 34.194C95.3524 34.1647 95.3818 34.0033 95.4111 33.71C95.4844 33.1233 95.7191 32.7787 96.1151 32.676C96.5111 32.5733 96.8484 32.7713 97.1271 33.27C97.2004 33.3727 97.2371 33.512 97.2371 33.688C97.2518 33.8493 97.2591 34.3773 97.2591 35.272C97.2444 36.2253 97.2078 36.9147 97.1491 37.34C97.0904 37.7507 96.9878 38.0587 96.8411 38.264C96.6944 38.4693 96.4378 38.6453 96.0711 38.792C95.8218 38.8947 94.8244 38.9607 93.0791 38.99C92.3458 39.0047 91.7738 39.0047 91.3631 38.99C90.9524 38.9753 90.5638 38.902 90.1971 38.77C89.8304 38.638 89.5664 38.484 89.4051 38.308C89.2438 38.132 89.1044 37.8387 88.9871 37.428C88.8698 37.0173 88.7964 36.5773 88.7671 36.108C88.7524 35.6387 88.7451 34.9933 88.7451 34.172C88.7451 33.6733 88.7818 33.3213 88.8551 33.116C88.9284 32.896 89.0751 32.7127 89.2951 32.566ZM95.0591 36.24C94.7364 36.1813 93.5264 36.218 91.4291 36.35C91.0331 36.3793 90.7984 36.416 90.7251 36.46C90.6518 36.4893 90.6371 36.5847 90.6811 36.746C90.7398 36.9367 90.8718 37.054 91.0771 37.098C91.2971 37.1273 91.9278 37.1493 92.9691 37.164C94.0251 37.164 94.6631 37.1493 94.8831 37.12C95.1031 37.076 95.2278 36.9807 95.2571 36.834C95.3451 36.482 95.2791 36.284 95.0591 36.24ZM116.38 25.944C116.526 25.7973 116.636 25.7167 116.71 25.702C116.798 25.6873 116.922 25.6873 117.084 25.702C117.26 25.7167 117.377 25.746 117.436 25.79C117.582 25.8633 117.67 26.0173 117.7 26.252C117.729 26.472 117.751 27.0587 117.766 28.012C117.795 29.2 117.832 29.794 117.876 29.794C117.89 29.8087 117.986 29.8087 118.162 29.794C118.88 29.7647 119.526 29.8233 120.098 29.97C120.684 30.1167 121.036 30.322 121.154 30.586C121.344 30.9673 121.256 31.268 120.89 31.488C120.523 31.6933 119.885 31.818 118.976 31.862C118.272 31.8913 117.898 31.9133 117.854 31.928C117.81 31.9573 117.802 32.632 117.832 33.952C117.846 35.0227 117.839 35.6973 117.809 35.976C117.78 36.2547 117.7 36.482 117.568 36.658C117.362 36.9367 117.12 37.0687 116.842 37.054C116.578 37.0247 116.336 36.8633 116.116 36.57C116.028 36.4527 115.969 36.0713 115.94 35.426C115.91 34.7807 115.881 33.226 115.852 30.762C115.822 29.4567 115.822 28.4667 115.852 27.792C115.881 27.1173 115.925 26.6847 115.984 26.494C116.057 26.3033 116.189 26.12 116.38 25.944ZM109.252 26.472C109.501 26.4427 109.948 26.428 110.594 26.428C111.239 26.428 111.664 26.4427 111.87 26.472C112.574 26.604 112.977 26.9413 113.08 27.484C113.197 28.012 113.028 28.8113 112.574 29.882C112.574 29.8967 112.559 29.9333 112.53 29.992C112.515 30.036 112.493 30.102 112.464 30.19C112.434 30.2633 112.405 30.3293 112.376 30.388C111.95 31.488 111.51 32.3973 111.056 33.116C110.953 33.2627 110.902 33.3507 110.902 33.38C110.902 33.4827 110.696 33.7907 110.286 34.304C109.875 34.8027 109.567 35.1253 109.362 35.272C109.039 35.5067 108.702 35.5727 108.35 35.47C108.012 35.3527 107.844 35.118 107.844 34.766C107.844 34.6193 107.924 34.3993 108.086 34.106C108.262 33.8127 108.423 33.6 108.57 33.468C108.57 33.4533 108.636 33.3653 108.768 33.204C108.87 33.0573 108.936 32.9693 108.966 32.94C109.068 32.8667 109.281 32.544 109.604 31.972C109.926 31.4 110.154 30.9527 110.286 30.63C110.594 29.8673 110.748 29.442 110.748 29.354C110.748 29.31 110.762 29.2513 110.792 29.178C110.938 28.8993 110.997 28.6647 110.968 28.474C110.953 28.386 110.828 28.3273 110.594 28.298C110.374 28.2687 109.728 28.232 108.658 28.188C107.631 28.1587 107 28.122 106.766 28.078C106.531 28.0193 106.37 27.88 106.282 27.66C106.208 27.4693 106.223 27.2713 106.326 27.066C106.428 26.846 106.568 26.714 106.744 26.67C107.286 26.582 107.814 26.5307 108.328 26.516C108.782 26.516 109.09 26.5013 109.252 26.472ZM133.526 25.284C134.04 25.0933 134.406 25.218 134.626 25.658C134.7 25.8193 134.744 26.1053 134.758 26.516C134.773 26.912 134.795 28.2247 134.824 30.454C134.824 31.9647 134.824 33.1527 134.824 34.018C134.839 34.8687 134.824 35.5287 134.78 35.998C134.736 36.4527 134.678 36.7607 134.604 36.922C134.546 37.0687 134.443 37.186 134.296 37.274C134.047 37.45 133.776 37.4427 133.482 37.252C133.204 37.076 133.035 36.7313 132.976 36.218C132.932 35.69 132.903 33.996 132.888 31.136C132.859 28.3933 132.874 26.7653 132.932 26.252C132.991 25.724 133.189 25.4013 133.526 25.284ZM125.98 25.878C126.523 25.8193 127.146 25.9 127.85 26.12C128.554 26.34 129.009 26.5967 129.214 26.89C129.244 26.934 129.317 27.0293 129.434 27.176C129.581 27.352 129.75 27.66 129.94 28.1C130.278 28.892 130.432 29.75 130.402 30.674C130.373 31.5833 130.175 32.3313 129.808 32.918C129.618 33.226 129.324 33.5413 128.928 33.864C128.532 34.172 128.239 34.326 128.048 34.326C127.975 34.326 127.924 34.3407 127.894 34.37C127.88 34.414 127.821 34.436 127.718 34.436C127.616 34.436 127.542 34.458 127.498 34.502C127.44 34.5607 127.095 34.568 126.464 34.524C125.848 34.48 125.511 34.4287 125.452 34.37C125.408 34.3407 125.35 34.326 125.276 34.326C125.203 34.326 125.049 34.2673 124.814 34.15C124.58 34.0327 124.367 33.908 124.176 33.776C123.722 33.4533 123.355 33.0647 123.076 32.61C122.812 32.1553 122.6 31.5687 122.438 30.85C122.394 30.674 122.372 30.3147 122.372 29.772C122.372 29.2147 122.394 28.8993 122.438 28.826C122.468 28.738 122.482 28.6573 122.482 28.584C122.482 28.3787 122.673 28.012 123.054 27.484C123.45 26.956 123.722 26.692 123.868 26.692C123.898 26.692 123.942 26.67 124 26.626C124.206 26.4353 124.55 26.252 125.034 26.076C125.254 25.988 125.57 25.922 125.98 25.878ZM126.464 27.814C126.171 27.7407 125.966 27.726 125.848 27.77C125.79 27.77 125.68 27.7993 125.518 27.858C125.078 27.99 124.748 28.298 124.528 28.782C124.308 29.266 124.279 29.7647 124.44 30.278C124.646 31.0113 124.851 31.5173 125.056 31.796C125.262 32.0747 125.57 32.302 125.98 32.478C126.347 32.6247 126.64 32.676 126.86 32.632C126.89 32.632 126.948 32.6247 127.036 32.61C127.124 32.5807 127.183 32.566 127.212 32.566C127.564 32.4927 127.836 32.3093 128.026 32.016C128.217 31.708 128.356 31.2607 128.444 30.674C128.547 29.97 128.422 29.3687 128.07 28.87C127.718 28.3567 127.183 28.0047 126.464 27.814ZM140.459 25.504C141.119 25.46 141.933 25.4453 142.901 25.46C143.883 25.4747 144.419 25.504 144.507 25.548C144.829 25.7533 144.983 26.0247 144.969 26.362C144.969 26.6993 144.807 26.9413 144.485 27.088C144.323 27.1613 143.524 27.2127 142.087 27.242C140.635 27.2713 139.813 27.3007 139.623 27.33L139.315 27.352L139.293 27.792C139.263 28.452 139.315 29.2367 139.447 30.146C139.476 30.3953 139.579 30.5493 139.755 30.608C140.033 30.7107 141.405 30.718 143.869 30.63C144.367 30.6007 144.705 30.6227 144.881 30.696C145.057 30.7547 145.211 30.8867 145.343 31.092C145.651 31.6347 145.489 32.0527 144.859 32.346C144.639 32.4487 143.568 32.5073 141.647 32.522C139.725 32.5367 138.655 32.4927 138.435 32.39C138.083 32.2287 137.848 32.0087 137.731 31.73C137.628 31.4367 137.533 30.828 137.445 29.904C137.415 29.4347 137.393 29.1707 137.379 29.112C137.349 29.0827 137.335 28.6427 137.335 27.792C137.335 27.4693 137.327 27.242 137.313 27.11C137.313 26.9633 137.335 26.7873 137.379 26.582C137.423 26.3767 137.452 26.2447 137.467 26.186C137.496 26.1273 137.584 26.0467 137.731 25.944C137.877 25.8267 137.995 25.7607 138.083 25.746C138.171 25.7313 138.361 25.702 138.655 25.658C138.963 25.5993 139.212 25.57 139.403 25.57C139.608 25.5553 139.96 25.5333 140.459 25.504ZM140.679 35.426C143.421 35.3673 145.108 35.3673 145.739 35.426C146.369 35.4847 146.765 35.6753 146.927 35.998C147.029 36.2033 146.993 36.438 146.817 36.702C146.655 36.9513 146.45 37.076 146.201 37.076C146.113 37.076 146.054 37.0907 146.025 37.12C145.951 37.1787 144.697 37.23 142.263 37.274C139.828 37.318 138.413 37.3107 138.017 37.252C137.298 37.1493 136.939 36.812 136.939 36.24C136.939 35.9027 137.129 35.69 137.511 35.602C137.907 35.514 138.963 35.4553 140.679 35.426ZM157.655 23.326C157.802 23.2967 158.103 23.2893 158.557 23.304C159.012 23.304 159.327 23.326 159.503 23.37C159.973 23.4727 160.427 23.7367 160.867 24.162C161.322 24.5873 161.615 25.0347 161.747 25.504C161.894 26.0027 161.997 26.4133 162.055 26.736C162.114 27.132 162.085 27.638 161.967 28.254C161.85 28.8553 161.696 29.2953 161.505 29.574C161.344 29.794 161.087 30.0507 160.735 30.344C160.383 30.6227 160.141 30.762 160.009 30.762C159.965 30.762 159.921 30.784 159.877 30.828C159.819 30.8867 159.474 30.916 158.843 30.916C158.213 30.916 157.809 30.8867 157.633 30.828C157.619 30.828 157.538 30.806 157.391 30.762C157.259 30.718 157.171 30.6887 157.127 30.674C156.79 30.5713 156.423 30.366 156.027 30.058C155.631 29.7353 155.382 29.4567 155.279 29.222C155.221 29.1047 155.184 29.046 155.169 29.046C155.14 29.046 155.111 29.0167 155.081 28.958C155.052 28.826 154.986 28.628 154.883 28.364C154.634 27.6747 154.597 26.9633 154.773 26.23C154.949 25.482 155.301 24.844 155.829 24.316C156.108 24.0373 156.372 23.832 156.621 23.7C156.871 23.568 157.215 23.4433 157.655 23.326ZM158.975 25.24C158.741 25.152 158.447 25.13 158.095 25.174C157.567 25.218 157.186 25.3647 156.951 25.614C156.717 25.8633 156.599 26.2373 156.599 26.736C156.599 27.3813 156.746 27.902 157.039 28.298C157.333 28.694 157.765 28.9507 158.337 29.068C158.953 29.2 159.437 29.1267 159.789 28.848C160.141 28.5547 160.332 28.078 160.361 27.418C160.42 26.362 159.958 25.636 158.975 25.24ZM165.839 23.48C166.133 23.304 166.389 23.3113 166.609 23.502C166.829 23.6927 166.969 24.0227 167.027 24.492C167.071 24.8733 167.086 25.9953 167.071 27.858C167.071 29.7207 167.049 30.74 167.005 30.916C166.932 31.2093 166.822 31.4147 166.675 31.532C166.543 31.6493 166.345 31.708 166.081 31.708C165.729 31.708 165.495 31.62 165.377 31.444C165.26 31.2533 165.187 30.8647 165.157 30.278L165.113 29.486H164.035C163.361 29.486 162.928 29.4273 162.737 29.31C162.547 29.178 162.451 28.9067 162.451 28.496C162.451 28.2027 162.561 27.99 162.781 27.858C163.001 27.726 163.419 27.6307 164.035 27.572C164.622 27.4987 164.959 27.4327 165.047 27.374C165.15 27.3007 165.201 27.0733 165.201 26.692C165.201 26.472 165.15 26.3473 165.047 26.318C164.959 26.274 164.651 26.2593 164.123 26.274C163.522 26.3033 163.111 26.2667 162.891 26.164C162.671 26.0613 162.583 25.8633 162.627 25.57C162.671 25.2767 162.84 25.042 163.133 24.866C163.427 24.6753 163.779 24.58 164.189 24.58C164.409 24.58 164.725 24.5213 165.135 24.404C165.238 24.3747 165.326 24.2647 165.399 24.074C165.517 23.7953 165.663 23.5973 165.839 23.48ZM161.065 32.258C161.417 32.1407 161.909 32.1113 162.539 32.17C163.185 32.214 163.713 32.3167 164.123 32.478C164.827 32.7713 165.363 33.1087 165.729 33.49C166.096 33.8713 166.397 34.4067 166.631 35.096C166.631 35.1107 166.668 35.206 166.741 35.382C166.917 35.822 166.859 36.3573 166.565 36.988C166.272 37.6187 165.825 38.1613 165.223 38.616C164.769 38.9533 164.175 39.1953 163.441 39.342C162.723 39.5033 162.121 39.5107 161.637 39.364C161.124 39.2027 160.699 39.0413 160.361 38.88C159.965 38.704 159.584 38.44 159.217 38.088C158.601 37.472 158.271 36.7607 158.227 35.954C158.183 35.1473 158.418 34.4067 158.931 33.732C159.445 33.0427 160.156 32.5513 161.065 32.258ZM163.419 34.128C162.657 33.8787 161.916 33.9227 161.197 34.26C160.493 34.5827 160.141 35.0447 160.141 35.646C160.141 36.394 160.479 36.9513 161.153 37.318C161.843 37.6847 162.635 37.736 163.529 37.472C163.896 37.3547 164.189 37.12 164.409 36.768C164.629 36.416 164.725 36.0347 164.695 35.624C164.681 35.2133 164.534 34.8833 164.255 34.634C163.962 34.3847 163.683 34.216 163.419 34.128ZM178.955 23.216C179.307 23.0987 179.571 23.172 179.747 23.436C179.923 23.6853 180.011 24.1033 180.011 24.69C180.025 25.3353 180.069 25.7387 180.143 25.9C180.216 26.0467 180.414 26.12 180.737 26.12C181.47 26.1347 182.071 26.252 182.541 26.472C183.025 26.692 183.208 26.9413 183.091 27.22C182.959 27.5427 182.761 27.7553 182.497 27.858C182.233 27.9607 181.778 28.012 181.133 28.012C181.059 28.012 180.964 28.012 180.847 28.012C180.451 28.012 180.216 28.056 180.143 28.144C180.084 28.2173 180.055 28.518 180.055 29.046C180.055 29.2073 180.055 29.332 180.055 29.42C180.055 30.036 180.033 30.4247 179.989 30.586C179.959 30.7473 179.871 30.894 179.725 31.026C179.241 31.4513 178.808 31.378 178.427 30.806C178.251 30.5713 178.155 29.4127 178.141 27.33C178.126 25.2327 178.199 24.03 178.361 23.722C178.478 23.4873 178.676 23.3187 178.955 23.216ZM173.191 23.92C173.337 23.8613 173.447 23.8467 173.521 23.876C173.594 23.8907 173.66 23.898 173.719 23.898C173.909 23.898 174.027 24.0227 174.071 24.272C174.115 24.5067 174.078 24.8147 173.961 25.196C173.902 25.4307 173.895 25.592 173.939 25.68C173.968 25.724 174.034 25.834 174.137 26.01C174.181 26.098 174.269 26.2373 174.401 26.428C174.547 26.6187 174.643 26.7287 174.687 26.758C174.76 26.802 174.921 26.9927 175.171 27.33C175.42 27.6673 175.545 27.8507 175.545 27.88C175.545 27.9387 175.559 27.968 175.589 27.968C175.618 27.968 175.699 28.078 175.831 28.298C175.977 28.518 176.073 28.694 176.117 28.826C176.249 29.2073 176.205 29.5153 175.985 29.75C175.765 29.9847 175.464 30.08 175.083 30.036C174.716 29.992 174.415 29.794 174.181 29.442C174.107 29.3393 174.049 29.266 174.005 29.222C173.99 29.2073 173.865 29.024 173.631 28.672C173.205 28.0267 172.846 27.6307 172.553 27.484C172.45 27.44 172.399 27.462 172.399 27.55C172.399 27.5793 172.325 27.682 172.179 27.858C172.017 28.034 171.768 28.386 171.431 28.914C171.093 29.442 170.844 29.7793 170.683 29.926C170.536 30.0727 170.367 30.146 170.177 30.146C169.693 30.146 169.385 29.97 169.253 29.618C169.121 29.266 169.201 28.8407 169.495 28.342C170.345 26.9487 171.291 25.6873 172.333 24.558C172.655 24.2207 172.941 24.008 173.191 23.92ZM175.215 31.884C175.552 31.796 175.999 31.7887 176.557 31.862C176.879 31.906 177.187 31.994 177.481 32.126C177.495 32.126 177.642 32.1847 177.921 32.302C178.082 32.3607 178.28 32.456 178.515 32.588C178.925 32.8227 179.219 33.0427 179.395 33.248C179.585 33.4533 179.82 33.8347 180.099 34.392C180.128 34.4653 180.143 34.5387 180.143 34.612C180.143 34.6853 180.157 34.7587 180.187 34.832C180.304 35.0373 180.355 35.382 180.341 35.866C180.341 36.3353 180.289 36.6287 180.187 36.746C180.157 36.79 180.143 36.834 180.143 36.878C180.143 37.0687 179.849 37.472 179.263 38.088C178.676 38.704 178.302 39.012 178.141 39.012C178.111 39.012 178.023 39.0487 177.877 39.122C177.686 39.2247 177.4 39.298 177.019 39.342C176.637 39.4007 176.337 39.408 176.117 39.364C175.809 39.32 175.603 39.2907 175.501 39.276C175.09 39.232 174.76 39.166 174.511 39.078C174.496 39.078 174.459 39.0707 174.401 39.056C174.357 39.0413 174.305 39.0267 174.247 39.012C174.203 38.9973 174.159 38.9827 174.115 38.968C173.411 38.7627 172.853 38.3667 172.443 37.78C172.032 37.1933 171.827 36.4967 171.827 35.69C171.827 35.426 171.863 35.1327 171.937 34.81C172.01 34.4727 172.091 34.26 172.179 34.172C172.208 34.1427 172.223 34.0987 172.223 34.04C172.223 33.9373 172.333 33.754 172.553 33.49C172.787 33.226 173.029 33.006 173.279 32.83C173.455 32.698 173.733 32.5367 174.115 32.346C174.511 32.1407 174.745 32.038 174.819 32.038C174.877 32.038 174.921 32.0233 174.951 31.994C174.965 31.9647 175.053 31.928 175.215 31.884ZM176.931 33.864C176.799 33.8347 176.52 33.82 176.095 33.82C175.684 33.82 175.42 33.8347 175.303 33.864C174.804 34.04 174.408 34.2673 174.115 34.546C173.763 34.898 173.587 35.2793 173.587 35.69C173.587 36.1007 173.763 36.482 174.115 36.834C174.452 37.186 174.907 37.4133 175.479 37.516C176.065 37.604 176.615 37.56 177.129 37.384C177.642 37.1933 177.987 36.9073 178.163 36.526C178.221 36.35 178.265 36.24 178.295 36.196C178.485 35.7413 178.441 35.2867 178.163 34.832C177.884 34.3627 177.473 34.04 176.931 33.864Z" fill="#2F5388"/>
</svg>
