<svg width="335" height="65" viewBox="0 0 335 65" fill="none" xmlns="http://www.w3.org/2000/svg">
<path d="M291.868 1.00195V1.00098L305.679 1.6377L305.717 1.63965L305.755 1.6377L319.516 0.767578L331.984 2.25586L333.207 10.1045L331.851 18.9541L331.837 19.0488L331.848 19.1436L332.914 28.0566L332.745 36.9639V36.9834L332.823 45.9463V46L332.832 46.0537L334.289 54.8926L332.714 63.1562L319.509 64.1045L305.766 64.2988L291.988 62.9971L291.941 62.9922L291.894 62.9941L278.091 63.5645L264.327 63.4922L250.513 62.5713L250.453 62.5674L250.394 62.5732L236.648 63.9941L222.906 62.6143L222.835 62.6064L222.763 62.6143L209.026 64.0664L195.295 62.3467L195.236 62.3389L195.179 62.3418L181.388 62.9111L167.612 61.9912L167.548 61.9873L167.484 61.9951L153.743 63.6025L139.987 62.3271L139.911 62.3203L139.834 62.3301L126.065 64.0938L112.311 63.4922L98.4883 62.7988L98.4424 62.7969L98.3965 62.8008L84.6504 63.9287L70.9121 62.1836L70.8613 62.1768L70.8105 62.1777L56.9824 62.4473H56.96L56.9375 62.4492L43.1533 63.6133L29.3828 63.0518L29.3389 63.0498L29.2949 63.0537L15.5146 64.2236L2.48438 63.1973L3.20703 54.9717L3.21582 54.8652L3.19336 54.7598L1.25 45.9463L2.97461 37.1357L3.00488 36.9814L2.96582 36.8291L0.722656 28.041L3.04199 19.2549L3.08008 19.1133L3.05762 18.9697L1.68945 10.1221L3.0791 2.27832L15.499 1.11133L29.252 2.62207L29.3027 2.62793L29.3545 2.62598L43.1426 2.1123L56.957 2.12012H56.9824L57.0068 2.11816L70.7764 1.13379L84.541 2.02051L84.5635 2.02246H84.5859L98.4004 2.03906L112.189 2.56055H112.195L126.022 2.96875L126.06 2.96973L126.096 2.9668L139.889 1.93164L153.648 1.62207L167.442 2.77051L167.499 2.77539L167.557 2.77148L181.328 1.64746L195.106 2.34766L195.12 2.34863L208.935 2.78906L208.961 2.79004L208.987 2.78906L222.814 2.19336L222.813 2.19238L236.605 2.06348H236.62L236.636 2.0625L250.433 1.34473L264.211 1.93164L264.258 1.93359L264.304 1.92969L278.076 0.700195L291.868 1.00195Z" fill="white" stroke="#6995D6" stroke-width="1.4"/>
<path d="M49.7007 29.4885L49.3872 28.9347L48.8195 28.6456L48.5756 28.7466C47.4714 29.2099 46.2488 29.6453 44.7754 29.7045C42.9223 29.8508 40.9577 30.0424 39.0907 30.429C39.2022 29.8229 39.3067 29.2133 39.4042 28.6073C39.749 28.0499 39.6585 27.6459 39.5679 27.4508C39.4425 27.1791 39.1813 27.0015 38.8782 26.9736C38.4811 26.9388 38.0596 27.1617 37.7287 27.5762C37.1714 27.8653 36.6489 28.1927 36.1752 28.5515C36.0986 28.2276 36.0289 27.82 36.0115 27.6076L36.0045 27.524L35.9767 27.4473C35.4089 25.9565 34.8829 24.4273 34.4092 22.9086L34.3987 22.1214C34.3674 21.6233 34.1967 21.2819 33.8902 21.1078C33.7021 20.9998 33.3851 20.9197 32.9636 21.1391L32.3889 21.484L32.3297 21.7034C32.2043 22.1562 32.3297 22.5708 32.4342 22.9051C32.4864 23.0723 32.5352 23.2291 32.5456 23.3649C32.6153 24.2358 32.5038 25.3399 32.3959 26.4023C32.3262 27.099 32.253 27.8166 32.2287 28.4819C32.1555 28.3634 32.0858 28.245 32.0197 28.1196C31.8943 27.8862 31.6609 27.4578 31.5599 27.2244C31.5494 27.1896 31.5425 27.1408 31.5355 27.092C31.4867 26.8169 31.4136 26.3989 31.0095 26.2491C30.8702 26.1968 30.588 26.1481 30.2815 26.4023C29.7625 26.8308 29.9611 27.4647 30.0586 27.7678C30.083 27.8409 30.1074 27.928 30.1143 27.9663C30.177 28.4157 30.1422 29.0078 30.1073 29.5791C30.069 30.2514 30.0272 30.9445 30.1248 31.5332C30.1596 31.7457 30.2293 31.9198 30.2815 32.0452C30.2815 32.0452 30.2815 32.0522 30.285 32.0557C30.285 32.0557 30.285 32.0557 30.2815 32.0557C30.0934 32.1463 29.6058 32.0836 29.247 32.0383C28.9857 32.0034 28.714 31.9721 28.4632 31.9721C27.568 31.9721 26.645 32.0383 25.7498 32.1045C24.764 32.1741 23.7434 32.2508 22.7925 32.2299C22.4337 32.2229 22.2387 32.1532 21.9913 32.0661C21.8032 32 21.5908 31.9233 21.3121 31.878C20.7304 31.784 20.2079 32.1079 20.0477 32.6653C19.8944 33.1982 20.1208 33.7555 20.5806 33.9436C20.8105 34.0412 21.0892 34.0272 21.6012 33.9924C21.852 33.975 22.162 33.9541 22.2979 33.975C23.1896 34.1073 24.2137 34.4591 25.2029 34.8005C26.2444 35.1593 27.3242 35.532 28.3274 35.6783C28.5677 35.7131 28.7976 35.7062 29.0032 35.6992C29.4386 35.6853 29.55 35.6992 29.6545 35.8525C29.5918 35.9151 29.4838 36.0022 29.4037 36.0649C29.2435 36.1903 29.0624 36.3331 28.9126 36.5143C28.4389 37.0925 28.0278 37.8379 27.6307 38.5624C27.2337 39.287 26.8226 40.0359 26.3803 40.5514C26.335 40.6036 26.2096 40.6977 26.112 40.7743C25.7637 41.0425 25.3701 41.3456 25.3631 41.8158C25.3597 42.0666 25.4711 42.3 25.6836 42.4741C25.7811 42.5543 25.8752 42.6135 25.9657 42.6518C26.1852 42.7528 26.3803 42.7528 26.5196 42.7284C27.0247 42.6379 27.2998 42.1641 27.5193 41.781C27.6029 41.6382 27.6969 41.4744 27.7631 41.4048C28.2891 40.8614 28.9405 40.3424 29.5709 39.8373C30.191 39.3427 30.8319 38.8306 31.3857 38.2768C31.5564 38.1061 31.6853 37.9111 31.7967 37.7404C31.9082 37.5697 32.051 37.3572 32.1242 37.3572C32.1346 37.3572 32.1451 37.3572 32.1555 37.3572C32.166 37.4025 32.1764 37.4652 32.1834 37.5105C32.2112 37.6742 32.2426 37.8797 32.3366 38.0887C32.6571 38.7819 33.1134 39.4681 33.5558 40.1334C33.9633 40.7464 34.3883 41.3769 34.6704 41.9795C34.7122 42.0666 34.7366 42.199 34.761 42.3348C34.8272 42.6971 34.9804 43.5435 36.008 43.5191H36.1578L36.6002 43.2509L36.9903 42.7911L36.9729 42.5577C36.9276 41.9133 37.0251 41.3038 37.2759 40.6419C37.6765 39.6527 37.997 38.6216 38.2234 37.5836L38.2443 37.4931L38.2338 37.399C38.2164 37.2388 38.2234 37.1238 38.2338 37.0472C38.2721 37.0681 38.3174 37.0995 38.3766 37.1447L38.4776 37.2214L38.603 37.2492C39.7386 37.5035 40.8707 37.7578 42.0027 38.0121C42.5322 38.4614 43.0895 38.4788 43.4483 38.3325C43.7966 38.1897 44.0195 37.8797 44.023 37.5244C44.023 37.3154 43.9568 36.7755 43.1278 36.4272L42.5182 36.2391C41.5394 35.6295 40.5432 35.0269 39.547 34.4487C40.6129 34.2432 41.6056 33.8322 42.4486 33.4455C44.0892 32.6827 45.7855 31.8955 47.5968 31.3347C48.5791 31.3974 49.1991 31.2232 49.544 30.7878C49.7286 30.5544 49.9097 30.1434 49.7077 29.5025L49.7007 29.4885Z" fill="#D094BA"/>
<path d="M77.0622 23.81C77.1062 23.766 77.4509 23.7587 78.0962 23.788C78.7562 23.8027 79.1669 23.8393 79.3282 23.898C79.6069 24.0007 79.8049 24.14 79.9222 24.316C80.0396 24.492 80.1202 24.7707 80.1642 25.152C80.2082 25.5187 80.2156 26.1127 80.1862 26.934C80.1716 27.9753 80.1349 28.716 80.0762 29.156C80.0176 29.5813 79.9149 29.8967 79.7682 30.102C79.6362 30.2927 79.3869 30.4467 79.0202 30.564C78.7562 30.652 77.7809 30.674 76.0942 30.63C74.4222 30.586 73.4029 30.5127 73.0362 30.41C72.6549 30.2927 72.3836 29.904 72.2222 29.244C72.0756 28.5693 72.0242 27.5427 72.0682 26.164C72.0976 25.4893 72.1856 25.0273 72.3322 24.778C72.4789 24.5287 72.8089 24.316 73.3222 24.14C73.5716 24.0373 74.4149 23.9567 75.8522 23.898C76.6296 23.8687 77.0329 23.8393 77.0622 23.81ZM77.6562 25.636C77.4216 25.592 77.0549 25.57 76.5562 25.57C76.0722 25.5553 75.7862 25.5627 75.6982 25.592C75.6396 25.6067 75.4122 25.6287 75.0162 25.658C75.0016 25.658 74.9869 25.6653 74.9722 25.68C74.7229 25.6947 74.5469 25.7093 74.4442 25.724C74.3562 25.724 74.2536 25.7533 74.1362 25.812C74.0336 25.8707 73.9676 25.922 73.9382 25.966C73.9089 25.9953 73.8869 26.098 73.8722 26.274C73.8576 26.4353 73.8502 26.582 73.8502 26.714C73.8649 26.846 73.8869 27.0807 73.9162 27.418C73.9162 27.462 73.9162 27.4913 73.9162 27.506C73.9602 27.9607 74.0042 28.2393 74.0482 28.342C74.1069 28.43 74.2609 28.496 74.5102 28.54C74.7302 28.584 75.4342 28.5913 76.6222 28.562C77.8102 28.518 78.4189 28.4667 78.4482 28.408C78.4776 28.3787 78.4849 28.1367 78.4702 27.682C78.4702 27.2273 78.4482 26.8093 78.4042 26.428C78.3896 26.0907 78.3456 25.8853 78.2722 25.812C78.1989 25.724 77.9936 25.6653 77.6562 25.636ZM73.7402 32.346C73.8869 32.3313 75.0456 32.3313 77.2162 32.346C77.2456 32.346 77.2822 32.346 77.3262 32.346C79.0716 32.346 80.1056 32.368 80.4282 32.412C80.7509 32.4413 81.0002 32.5733 81.1762 32.808C81.1762 32.8227 81.1836 32.83 81.1982 32.83C81.4476 33.1673 81.4476 33.468 81.1982 33.732C80.9636 33.996 80.5162 34.172 79.8562 34.26L79.3502 34.348L79.3722 35.184C79.4016 35.712 79.4676 36.504 79.5702 37.56C79.6142 38.1027 79.4822 38.5133 79.1742 38.792C78.8662 39.0707 78.5216 39.0927 78.1402 38.858C77.9056 38.7113 77.7589 38.4767 77.7002 38.154C77.6416 37.846 77.5682 36.922 77.4802 35.382C77.4362 34.6633 77.3922 34.282 77.3482 34.238C77.3189 34.2087 77.0622 34.194 76.5782 34.194C76.1089 34.194 75.7642 34.2087 75.5442 34.238L75.3022 34.26V36.02C75.3022 36.372 75.2949 36.636 75.2802 36.812C75.2802 36.988 75.2729 37.1787 75.2582 37.384C75.2582 37.5893 75.2436 37.736 75.2142 37.824C75.1996 37.8973 75.1776 37.978 75.1482 38.066C75.1336 38.154 75.0896 38.2127 75.0162 38.242C74.9576 38.286 74.8989 38.3227 74.8402 38.352C74.7962 38.3813 74.7156 38.418 74.5982 38.462C74.2022 38.594 73.8576 38.3593 73.5642 37.758C73.4909 37.582 73.4322 37.3473 73.3882 37.054C73.3589 36.746 73.3296 36.13 73.3002 35.206C73.2709 34.7513 73.2489 34.4873 73.2342 34.414C73.2196 34.326 73.1829 34.282 73.1242 34.282C73.0949 34.282 73.0362 34.282 72.9482 34.282C72.8602 34.282 72.7356 34.282 72.5742 34.282C72.4276 34.2673 72.2956 34.2527 72.1782 34.238C71.5916 34.2087 71.2029 34.1427 71.0122 34.04C70.8216 33.9227 70.7336 33.7027 70.7482 33.38C70.7629 33.0427 70.8949 32.8153 71.1442 32.698C71.3936 32.566 71.8996 32.478 72.6622 32.434C73.3076 32.39 73.6669 32.3607 73.7402 32.346ZM92.2687 24.008C92.4594 23.8173 92.7014 23.7367 92.9947 23.766C93.3027 23.7953 93.5154 23.9273 93.6327 24.162C93.7207 24.3673 93.772 25.35 93.7867 27.11C93.816 28.8553 93.7867 30.0727 93.6987 30.762C93.6547 31.158 93.5007 31.4513 93.2367 31.642C92.9727 31.8327 92.694 31.8473 92.4007 31.686C92.298 31.6273 92.2174 31.5687 92.1587 31.51C92.1147 31.4513 92.0414 31.3267 91.9387 31.136C91.88 31.0333 91.858 29.9187 91.8727 27.792C91.8874 25.6653 91.924 24.5653 91.9827 24.492C92.0267 24.4627 92.0487 24.4113 92.0487 24.338C92.0487 24.2647 92.122 24.1547 92.2687 24.008ZM85.7787 24.096C85.896 24.052 86.226 24.0447 86.7687 24.074C87.326 24.0887 87.6634 24.1253 87.7807 24.184C88.2794 24.4187 88.5434 24.7193 88.5727 25.086C88.602 25.4527 88.3967 25.8633 87.9567 26.318C87.634 26.6553 87.414 26.9413 87.2967 27.176C87.282 27.22 87.5534 27.5427 88.1107 28.144C88.8 28.848 89.2254 29.3687 89.3867 29.706C89.548 30.0433 89.5114 30.322 89.2767 30.542C88.9834 30.85 88.69 30.9527 88.3967 30.85C88.1034 30.7473 87.6267 30.3733 86.9667 29.728C86.9374 29.7133 86.9007 29.6767 86.8567 29.618C86.3874 29.178 86.094 28.936 85.9767 28.892C85.874 28.848 85.7347 28.914 85.5587 29.09C85.544 29.1193 85.5294 29.134 85.5147 29.134C85.28 29.3687 85.0967 29.5813 84.9647 29.772C84.466 30.432 84.1287 30.762 83.9527 30.762C83.8794 30.762 83.806 30.784 83.7327 30.828C83.5567 30.9307 83.322 30.872 83.0287 30.652C82.7354 30.4173 82.5887 30.1827 82.5887 29.948C82.5887 29.86 82.6254 29.7353 82.6987 29.574C82.772 29.398 82.838 29.2807 82.8967 29.222C82.9407 29.1633 83.0214 29.0607 83.1387 28.914C83.2707 28.738 83.3367 28.65 83.3367 28.65C83.3367 28.65 83.4687 28.496 83.7327 28.188C83.9674 27.924 84.29 27.5793 84.7007 27.154C85.39 26.4353 85.7347 26.0173 85.7347 25.9C85.7347 25.8707 85.6687 25.856 85.5367 25.856C85.4194 25.856 85.2507 25.8633 85.0307 25.878C84.8254 25.8927 84.6127 25.922 84.3927 25.966C83.6447 26.0687 83.1387 26.076 82.8747 25.988C82.6107 25.9 82.4787 25.6727 82.4787 25.306C82.4787 24.9393 82.6474 24.6827 82.9847 24.536C83.322 24.3747 83.9967 24.2573 85.0087 24.184C85.4927 24.14 85.7494 24.1107 85.7787 24.096ZM88.7707 32.72C89.4894 32.676 90.23 32.6833 90.9927 32.742C91.77 32.786 92.254 32.8593 92.4447 32.962C92.7527 33.138 92.9067 33.2773 92.9067 33.38C92.9067 33.4387 92.9214 33.468 92.9507 33.468C92.9947 33.468 93.0167 33.5047 93.0167 33.578C93.0167 33.6367 93.0387 33.688 93.0827 33.732C93.156 33.8053 93.2074 34.304 93.2367 35.228C93.266 36.1373 93.2514 36.9073 93.1927 37.538C93.134 38.0513 93.024 38.4033 92.8627 38.594C92.7014 38.7993 92.43 38.902 92.0487 38.902C91.858 38.902 91.7114 38.8873 91.6087 38.858C91.5207 38.8433 91.4327 38.792 91.3447 38.704C91.2567 38.616 91.2054 38.484 91.1907 38.308C91.176 38.1467 91.154 37.9193 91.1247 37.626C91.11 37.3327 91.1174 36.966 91.1467 36.526C91.1467 36.482 91.1467 36.4233 91.1467 36.35C91.1614 35.4847 91.1467 34.9787 91.1027 34.832C91.0734 34.6707 90.9414 34.5607 90.7067 34.502C90.6774 34.502 90.6554 34.502 90.6407 34.502C90.406 34.4433 89.702 34.436 88.5287 34.48C86.8567 34.5533 85.9107 34.5533 85.6907 34.48C85.3387 34.3773 85.104 34.2087 84.9867 33.974C84.8694 33.7247 84.8914 33.4973 85.0527 33.292C85.2287 33.072 85.5 32.9473 85.8667 32.918C87.04 32.83 88.008 32.764 88.7707 32.72ZM106.4 25.702C106.664 25.5407 106.906 25.526 107.126 25.658C107.361 25.7753 107.508 25.988 107.566 26.296C107.64 26.7947 107.691 28.4887 107.72 31.378C107.764 34.2527 107.75 35.8733 107.676 36.24C107.588 36.6653 107.398 36.9587 107.104 37.12C106.826 37.2813 106.547 37.252 106.268 37.032C106.048 36.856 105.909 36.5113 105.85 35.998C105.806 35.4847 105.777 34.0033 105.762 31.554C105.777 30.2487 105.777 29.2293 105.762 28.496C105.748 27.7627 105.77 27.198 105.828 26.802C105.887 26.406 105.953 26.1493 106.026 26.032C106.1 25.9 106.224 25.79 106.4 25.702ZM96.5444 26.45C96.6471 26.3913 96.7791 26.3693 96.9404 26.384C97.1164 26.3987 97.2411 26.4353 97.3144 26.494C97.5344 26.6847 97.6591 27.154 97.6884 27.902C97.7031 28.43 97.7251 28.7673 97.7544 28.914C97.7838 29.046 97.8424 29.134 97.9304 29.178C98.0331 29.2073 98.5024 29.2147 99.3384 29.2C100.174 29.1707 100.695 29.134 100.9 29.09L101.186 29.024L101.23 28.1C101.26 27.6013 101.289 27.2787 101.318 27.132C101.362 26.9853 101.45 26.8387 101.582 26.692C101.788 26.5013 102.03 26.45 102.308 26.538C102.587 26.6113 102.792 26.7873 102.924 27.066C103.056 27.3593 103.1 28.4593 103.056 30.366C103.012 32.258 102.91 33.358 102.748 33.666C102.69 33.798 102.58 33.9447 102.418 34.106C102.272 34.2527 102.162 34.326 102.088 34.326C102.044 34.326 101.986 34.3407 101.912 34.37C101.575 34.546 100.783 34.6487 99.5364 34.678C98.3044 34.7073 97.5198 34.6413 97.1824 34.48C96.7571 34.26 96.4711 33.974 96.3244 33.622C96.1778 33.27 96.0824 32.6467 96.0384 31.752C95.9504 30.168 95.9064 29.0607 95.9064 28.43C95.9064 27.7847 95.9504 27.33 96.0384 27.066C96.1264 26.7873 96.2951 26.582 96.5444 26.45ZM101.076 31.136C101.032 31.0773 100.548 31.0333 99.6244 31.004C98.7151 30.9747 98.1871 30.982 98.0404 31.026C97.8791 31.0847 97.8571 31.3633 97.9744 31.862C98.0918 32.346 98.2531 32.6393 98.4584 32.742C98.6198 32.83 99.0524 32.852 99.7564 32.808C100.475 32.7493 100.886 32.6687 100.988 32.566C101.047 32.5073 101.091 32.2653 101.12 31.84C101.15 31.4147 101.135 31.18 101.076 31.136ZM120.3 25.57C120.887 25.4087 121.239 25.6433 121.356 26.274C121.4 26.5087 121.422 28.1293 121.422 31.136C121.422 34.128 121.4 35.778 121.356 36.086C121.283 36.57 121.129 36.9147 120.894 37.12C120.66 37.3107 120.388 37.3327 120.08 37.186C120.066 37.1713 120.044 37.164 120.014 37.164C119.765 37.0467 119.618 36.7753 119.574 36.35C119.53 35.91 119.508 34.4727 119.508 32.038C119.508 31.7593 119.508 31.554 119.508 31.422C119.523 31.2313 119.53 30.9673 119.53 30.63C119.53 28.21 119.552 26.7947 119.596 26.384C119.655 25.9587 119.853 25.6947 120.19 25.592C120.234 25.592 120.271 25.5847 120.3 25.57ZM112.644 26.406C113.099 26.3767 113.708 26.3693 114.47 26.384C115.248 26.3987 115.658 26.428 115.702 26.472C115.746 26.516 115.805 26.538 115.878 26.538C116.098 26.538 116.282 26.736 116.428 27.132C116.575 27.5133 116.56 27.77 116.384 27.902C116.238 28.0193 116.069 28.0927 115.878 28.122C115.688 28.1513 115.167 28.1733 114.316 28.188C112.85 28.232 112.043 28.298 111.896 28.386C111.808 28.4447 111.801 29.1047 111.874 30.366C111.962 31.6127 112.065 32.3533 112.182 32.588C112.241 32.72 112.38 32.8007 112.6 32.83C112.835 32.8593 113.444 32.8667 114.426 32.852C115.438 32.8373 116.054 32.8447 116.274 32.874C116.509 32.9033 116.707 33.0133 116.868 33.204C117.059 33.4387 117.103 33.6807 117 33.93C116.898 34.1647 116.656 34.37 116.274 34.546C116.054 34.6633 115.174 34.722 113.634 34.722C112.109 34.722 111.236 34.6633 111.016 34.546C110.884 34.4727 110.738 34.3627 110.576 34.216C110.43 34.0547 110.356 33.9447 110.356 33.886C110.356 33.8273 110.342 33.7687 110.312 33.71C110.239 33.5633 110.158 33.1087 110.07 32.346C109.997 31.5833 109.953 30.7913 109.938 29.97C109.909 29.1193 109.88 28.5327 109.85 28.21C109.821 27.858 109.828 27.5867 109.872 27.396C109.916 27.1907 110.041 27.022 110.246 26.89C110.466 26.7433 110.752 26.6407 111.104 26.582C111.456 26.5233 111.97 26.4647 112.644 26.406ZM127.716 25.042C128.567 24.866 129.483 24.976 130.466 25.372C130.73 25.4747 131.001 25.68 131.28 25.988C131.573 26.2813 131.793 26.5967 131.94 26.934C131.969 27.0073 132.028 27.1393 132.116 27.33C132.365 27.8727 132.468 28.5327 132.424 29.31C132.395 30.0873 132.233 30.6887 131.94 31.114C131.441 31.8473 130.818 32.3827 130.07 32.72C129.337 33.0427 128.581 33.1233 127.804 32.962C127.584 32.9033 127.335 32.852 127.056 32.808C126.763 32.7493 126.579 32.7053 126.506 32.676C126.433 32.632 126.367 32.61 126.308 32.61C126.117 32.61 125.809 32.4413 125.384 32.104C124.959 31.752 124.673 31.4513 124.526 31.202C124.233 30.63 124.049 30.2193 123.976 29.97C123.903 29.706 123.866 29.3687 123.866 28.958C123.866 27.418 124.555 26.3107 125.934 25.636C126.462 25.3867 127.056 25.1887 127.716 25.042ZM129.146 27.066C128.985 26.9927 128.669 26.956 128.2 26.956C127.731 26.956 127.467 26.9853 127.408 27.044C127.364 27.088 127.313 27.11 127.254 27.11C127.078 27.11 126.821 27.2493 126.484 27.528C126.147 27.792 125.949 28.0267 125.89 28.232C125.729 28.8333 125.802 29.42 126.11 29.992C126.418 30.5493 126.858 30.894 127.43 31.026C128.119 31.1727 128.721 31.1653 129.234 31.004C129.747 30.828 130.107 30.52 130.312 30.08C130.415 29.8453 130.466 29.728 130.466 29.728C130.539 29.5813 130.569 29.3173 130.554 28.936C130.539 28.5547 130.495 28.2833 130.422 28.122C130.202 27.6673 129.777 27.3153 129.146 27.066ZM127.694 34.106C127.723 34.018 127.789 33.9153 127.892 33.798C127.995 33.6807 128.075 33.6147 128.134 33.6C128.193 33.5853 128.332 33.578 128.552 33.578C128.889 33.578 129.102 33.6733 129.19 33.864C129.278 34.04 129.351 34.524 129.41 35.316C129.41 35.3453 129.41 35.3893 129.41 35.448C129.425 35.712 129.483 35.866 129.586 35.91C129.703 35.954 130.077 35.976 130.708 35.976C130.855 35.976 130.972 35.976 131.06 35.976C132.673 35.9907 133.605 36.0567 133.854 36.174C134.162 36.3353 134.294 36.592 134.25 36.944C134.206 37.2813 134.001 37.5307 133.634 37.692C133.429 37.8093 131.852 37.868 128.904 37.868C125.956 37.868 124.372 37.8167 124.152 37.714C123.815 37.538 123.609 37.3253 123.536 37.076C123.463 36.8267 123.543 36.5993 123.778 36.394C123.91 36.262 124.093 36.1813 124.328 36.152C124.563 36.1227 125.025 36.108 125.714 36.108C125.802 36.108 125.927 36.108 126.088 36.108C126.836 36.108 127.276 36.0713 127.408 35.998C127.54 35.91 127.613 35.6167 127.628 35.118C127.628 35.0153 127.628 34.9347 127.628 34.876C127.657 34.4507 127.679 34.194 127.694 34.106Z" fill="#2F5388"/>
</svg>
