<svg width="335" height="65" viewBox="0 0 335 65" fill="none" xmlns="http://www.w3.org/2000/svg">
<path d="M291.868 1.00195V1.00098L305.679 1.6377L305.717 1.63965L305.755 1.6377L319.516 0.767578L331.984 2.25586L333.207 10.1045L331.851 18.9541L331.837 19.0488L331.848 19.1436L332.914 28.0566L332.745 36.9639V36.9834L332.823 45.9463V46L332.832 46.0537L334.289 54.8926L332.714 63.1562L319.509 64.1045L305.766 64.2988L291.988 62.9971L291.941 62.9922L291.894 62.9941L278.091 63.5645L264.327 63.4922L250.513 62.5713L250.453 62.5674L250.394 62.5732L236.648 63.9941L222.906 62.6143L222.835 62.6064L222.763 62.6143L209.026 64.0664L195.295 62.3467L195.236 62.3389L195.179 62.3418L181.388 62.9111L167.612 61.9912L167.548 61.9873L167.484 61.9951L153.743 63.6025L139.987 62.3271L139.911 62.3203L139.834 62.3301L126.065 64.0938L112.311 63.4922L98.4883 62.7988L98.4424 62.7969L98.3965 62.8008L84.6504 63.9287L70.9121 62.1836L70.8613 62.1768L70.8105 62.1777L56.9824 62.4473H56.96L56.9375 62.4492L43.1533 63.6133L29.3828 63.0518L29.3389 63.0498L29.2949 63.0537L15.5146 64.2236L2.48438 63.1973L3.20703 54.9717L3.21582 54.8652L3.19336 54.7598L1.25 45.9463L2.97461 37.1357L3.00488 36.9814L2.96582 36.8291L0.722656 28.041L3.04199 19.2549L3.08008 19.1133L3.05762 18.9697L1.68945 10.1221L3.0791 2.27832L15.499 1.11133L29.252 2.62207L29.3027 2.62793L29.3545 2.62598L43.1426 2.1123L56.957 2.12012H56.9824L57.0068 2.11816L70.7764 1.13379L84.541 2.02051L84.5635 2.02246H84.5859L98.4004 2.03906L112.189 2.56055H112.195L126.022 2.96875L126.06 2.96973L126.096 2.9668L139.889 1.93164L153.648 1.62207L167.442 2.77051L167.499 2.77539L167.557 2.77148L181.328 1.64746L195.106 2.34766L195.12 2.34863L208.935 2.78906L208.961 2.79004L208.987 2.78906L222.814 2.19336L222.813 2.19238L236.605 2.06348H236.62L236.636 2.0625L250.433 1.34473L264.211 1.93164L264.258 1.93359L264.304 1.92969L278.076 0.700195L291.868 1.00195Z" fill="white" stroke="#6995D6" stroke-width="1.4"/>
<path d="M30.5992 20.1973L33.2778 23.9592C33.4694 24.1751 33.7481 24.4538 34.0337 24.4538C34.2984 24.4538 36.0122 23.1754 36.573 22.9247C37.6667 22.437 39.0357 22.1374 40.1782 21.7473C40.8365 21.5244 42.6548 20.2774 43.024 21.5627C43.4455 23.0257 42.4736 23.7606 42.3413 25.0599C42.0522 27.9301 42.7628 29.0935 45.2881 29.3339C45.5459 29.3582 45.842 29.198 46.1555 29.2189C47.0541 29.2851 48.1444 30.3997 48.0051 31.4796C47.8065 33.0052 45.9883 33.4546 44.8945 33.7437C43.8043 34.0328 42.0243 33.7367 42.0591 35.5898C42.0835 36.8299 43.2643 40.4072 43.0658 41.1874C42.9752 41.5427 42.5921 41.8179 42.2716 41.8388C41.0385 41.9154 39.3108 38.4879 38.1962 38.1082C37.3637 37.8261 36.775 39.202 36.5834 39.9509C36.2456 41.2571 36.7158 43.4829 35.4862 43.9775C32.9051 45.0225 33.3893 39.2856 31.6198 38.1047C29.7597 36.8647 25.4753 38.2441 24.5557 37.3384C23.873 36.0078 25.2802 35.2032 25.9421 34.3184C26.482 33.5974 28.3142 33.2421 28.0111 32.2494C27.9031 31.8976 26.3844 31.5353 25.8863 31.173C25.3569 30.7864 24.7369 29.9609 24.2178 29.4976C23.3679 28.7347 21.2048 27.843 22.3055 26.2756C22.4623 26.0491 22.5842 25.9272 22.842 25.861C23.6257 25.6625 27.5618 26.07 27.8056 25.6312C27.4712 24.1891 28.7635 18.9224 30.6061 20.1973H30.5992Z" fill="#7AA2DF"/>
<path d="M81.306 23.722C81.3207 23.678 81.4087 23.6633 81.57 23.678C81.7313 23.678 81.8633 23.7 81.966 23.744C82.1273 23.832 82.2373 23.9787 82.296 24.184C82.3547 24.3893 82.3913 24.7927 82.406 25.394C82.4353 26.01 82.4793 26.3693 82.538 26.472C82.6113 26.56 82.868 26.6187 83.308 26.648C84.188 26.7213 84.7893 26.8607 85.112 27.066C85.4347 27.2567 85.5007 27.5353 85.31 27.902C85.178 28.166 84.9947 28.342 84.76 28.43C84.5253 28.5033 84.1 28.54 83.484 28.54H82.406V29.09C82.406 29.9993 82.3767 30.6373 82.318 31.004C82.2593 31.3707 82.1493 31.598 81.988 31.686C81.68 31.8473 81.4087 31.906 81.174 31.862C80.9393 31.818 80.7633 31.6713 80.646 31.422C80.5727 31.2607 80.5213 30.1313 80.492 28.034C80.4773 25.922 80.5067 24.7413 80.58 24.492C80.624 24.3453 80.712 24.1913 80.844 24.03C80.9907 23.8687 81.1007 23.788 81.174 23.788C81.2327 23.788 81.2767 23.766 81.306 23.722ZM73.826 24.008C74.442 23.8613 75.0727 23.8467 75.718 23.964C76.3633 24.0813 76.884 24.3087 77.28 24.646C77.6907 24.998 78.0647 25.614 78.402 26.494C78.49 26.714 78.5487 27.0587 78.578 27.528C78.6073 27.9827 78.5927 28.3053 78.534 28.496C78.4753 28.6867 78.4313 28.8333 78.402 28.936C78.2407 29.5227 77.94 30.036 77.5 30.476C77.06 30.9013 76.5393 31.1873 75.938 31.334C75.718 31.3927 75.3 31.4073 74.684 31.378C74.068 31.3487 73.672 31.2973 73.496 31.224C73.4813 31.224 73.4373 31.2093 73.364 31.18C73.2907 31.1507 73.232 31.1287 73.188 31.114C72.748 30.9527 72.3373 30.6593 71.956 30.234C71.5747 29.794 71.3033 29.3027 71.142 28.76C71.01 28.3493 70.9513 27.9093 70.966 27.44C71.01 26.56 71.2153 25.8853 71.582 25.416C71.9193 25.0053 72.242 24.6973 72.55 24.492C72.8727 24.2867 73.298 24.1253 73.826 24.008ZM75.19 25.878C74.7793 25.7313 74.354 25.7387 73.914 25.9C73.4887 26.0467 73.1953 26.296 73.034 26.648C72.946 26.824 72.9093 27.088 72.924 27.44C72.9387 27.7773 73.0047 28.056 73.122 28.276C73.43 28.9067 73.8627 29.3247 74.42 29.53C74.992 29.7207 75.5053 29.6693 75.96 29.376C76.4293 29.068 76.686 28.5767 76.73 27.902C76.7887 26.934 76.2753 26.2593 75.19 25.878ZM76.906 32.962C78.754 32.874 80.0227 32.8887 80.712 33.006C81.4013 33.1233 81.8413 33.3947 82.032 33.82C82.1787 34.1427 82.252 34.9347 82.252 36.196C82.252 37.4427 82.1787 38.2127 82.032 38.506C81.9587 38.682 81.79 38.814 81.526 38.902C81.262 39.0047 81.042 39.0193 80.866 38.946C80.558 38.814 80.3527 38.6087 80.25 38.33C80.162 38.066 80.118 37.5527 80.118 36.79C80.118 35.954 80.0887 35.4333 80.03 35.228C79.9713 35.008 79.8173 34.8613 79.568 34.788C79.436 34.744 78.9447 34.722 78.094 34.722C77.258 34.722 76.598 34.7367 76.114 34.766C74.5007 34.898 73.76 34.5753 73.892 33.798C73.936 33.5633 74.0313 33.402 74.178 33.314C74.3393 33.2113 74.6033 33.138 74.97 33.094C75.3513 33.0353 75.9967 32.9913 76.906 32.962ZM87.6647 25.24C87.9874 25.064 88.2734 25.1227 88.5227 25.416C88.596 25.504 88.64 25.5993 88.6547 25.702C88.684 25.8047 88.7207 26.0613 88.7647 26.472C88.7647 26.5307 88.772 26.6187 88.7867 26.736C88.8014 27.0733 88.8747 27.2713 89.0067 27.33C89.1387 27.374 89.6007 27.3813 90.3927 27.352C90.642 27.3373 90.84 27.33 90.9867 27.33C91.1627 27.33 91.3974 27.3227 91.6907 27.308C92.732 27.2787 93.3407 27.2347 93.5167 27.176C93.6927 27.1173 93.788 26.9413 93.8027 26.648C93.8174 26.5747 93.8247 26.516 93.8247 26.472C93.8687 26.0613 93.9934 25.746 94.1987 25.526C94.404 25.306 94.624 25.2327 94.8587 25.306C95.108 25.3647 95.2987 25.57 95.4307 25.922C95.5334 26.186 95.5554 27.1173 95.4967 28.716C95.4527 30.3 95.3794 31.1507 95.2767 31.268C95.2474 31.2973 95.2327 31.3413 95.2327 31.4C95.2327 31.5613 95.064 31.7593 94.7267 31.994C94.404 32.214 94.0667 32.3607 93.7147 32.434C93.436 32.4927 92.4754 32.522 90.8327 32.522C89.19 32.5073 88.3027 32.4707 88.1707 32.412C87.8334 32.2653 87.5987 32.0527 87.4667 31.774C87.364 31.5687 87.2614 31.1873 87.1587 30.63C87.0707 30.0727 87.0267 29.6107 87.0267 29.244C87.0267 28.9947 87.0047 28.5767 86.9607 27.99C86.902 27.1687 86.924 26.5453 87.0267 26.12C87.144 25.6947 87.3567 25.4013 87.6647 25.24ZM93.6927 29.288C93.634 29.1853 92.6587 29.1633 90.7667 29.222C90.752 29.222 90.73 29.222 90.7007 29.222C89.8354 29.2513 89.3294 29.288 89.1827 29.332C89.036 29.3613 88.9554 29.4787 88.9407 29.684C88.9407 29.6987 88.9407 29.706 88.9407 29.706C88.926 30.1167 89.014 30.388 89.2047 30.52C89.41 30.652 89.784 30.7107 90.3267 30.696C90.928 30.6667 91.5514 30.6447 92.1967 30.63C92.2114 30.63 92.2334 30.6227 92.2627 30.608C92.996 30.5933 93.4214 30.5567 93.5387 30.498C93.6707 30.4247 93.7367 30.212 93.7367 29.86C93.7367 29.86 93.7367 29.8527 93.7367 29.838C93.7367 29.53 93.722 29.3467 93.6927 29.288ZM91.0087 33.27C91.126 33.2113 91.28 33.1893 91.4707 33.204C91.676 33.204 91.8227 33.2407 91.9107 33.314C92.0134 33.4167 92.0867 33.556 92.1307 33.732C92.1894 33.908 92.2407 34.238 92.2847 34.722C92.3287 35.338 92.3654 35.6607 92.3947 35.69C92.4094 35.7047 93.062 35.712 94.3527 35.712C95.4527 35.7267 96.1274 35.756 96.3767 35.8C96.626 35.8293 96.8094 35.954 96.9267 36.174C97.132 36.482 97.1247 36.768 96.9047 37.032C96.6994 37.2813 96.34 37.4427 95.8267 37.516C95.2254 37.5893 93.6414 37.6187 91.0747 37.604C88.5227 37.5893 87.1734 37.538 87.0267 37.45C86.7627 37.274 86.6014 37.054 86.5427 36.79C86.484 36.526 86.55 36.306 86.7407 36.13C86.8874 36.0127 87.0414 35.9393 87.2027 35.91C87.3787 35.8807 87.8847 35.8513 88.7207 35.822C88.8234 35.822 88.9554 35.8147 89.1167 35.8C89.762 35.7853 90.136 35.7487 90.2387 35.69C90.356 35.6167 90.422 35.3893 90.4367 35.008C90.4367 34.9053 90.4367 34.8247 90.4367 34.766C90.4514 34.238 90.488 33.8933 90.5467 33.732C90.62 33.556 90.774 33.402 91.0087 33.27ZM108.346 24.382C108.669 24.294 108.948 24.3013 109.182 24.404C109.417 24.5067 109.534 24.668 109.534 24.888C109.534 25.0493 109.498 25.1887 109.424 25.306C109.351 25.4233 109.182 25.6433 108.918 25.966C108.464 26.494 108.06 27.066 107.708 27.682C107.371 28.298 107.173 28.7967 107.114 29.178C107.085 29.398 107.034 29.5593 106.96 29.662C106.872 29.794 106.836 30.2707 106.85 31.092C106.865 31.9133 106.916 32.5147 107.004 32.896C107.166 33.556 107.415 34.1793 107.752 34.766C108.104 35.338 108.61 35.976 109.27 36.68C110.033 37.4867 110.04 38 109.292 38.22C109.014 38.308 108.786 38.3373 108.61 38.308C108.434 38.2787 108.214 38.1833 107.95 38.022C107.672 37.846 107.298 37.4647 106.828 36.878C106.359 36.2767 106.036 35.778 105.86 35.382C105.846 35.3527 105.794 35.2573 105.706 35.096C105.633 34.92 105.582 34.788 105.552 34.7C105.112 33.7613 104.856 32.764 104.782 31.708C104.724 30.6373 104.856 29.596 105.178 28.584C105.208 28.4667 105.266 28.276 105.354 28.012C105.633 27.1173 106.058 26.3253 106.63 25.636C107.202 24.9467 107.774 24.5287 108.346 24.382ZM120.562 24.052C120.738 23.9933 120.922 24.008 121.112 24.096C121.274 24.1693 121.376 24.316 121.42 24.536C121.479 24.7413 121.516 25.2033 121.53 25.922C121.56 26.7433 121.582 27.1613 121.596 27.176C121.626 27.1907 121.919 27.2273 122.476 27.286C123.4 27.3887 124.002 27.5207 124.28 27.682C124.559 27.8433 124.669 28.122 124.61 28.518C124.552 28.8113 124.383 29.0167 124.104 29.134C123.826 29.2513 123.327 29.3173 122.608 29.332L121.508 29.376L121.486 30.806C121.472 31.5247 121.457 31.9573 121.442 32.104C121.428 32.236 121.376 32.3607 121.288 32.478C121.054 32.7567 120.804 32.8813 120.54 32.852C120.291 32.8227 120.049 32.6467 119.814 32.324C119.726 32.192 119.675 31.0187 119.66 28.804C119.646 26.5747 119.682 25.3133 119.77 25.02C119.844 24.6973 119.932 24.4773 120.034 24.36C120.137 24.2427 120.313 24.14 120.562 24.052ZM114.182 24.558C115.194 24.514 115.92 24.514 116.36 24.558C116.536 24.5727 116.705 24.6313 116.866 24.734C117.042 24.8367 117.13 24.932 117.13 25.02C117.13 25.064 117.152 25.0933 117.196 25.108C117.27 25.1373 117.292 25.284 117.262 25.548C117.248 25.7973 117.204 25.9587 117.13 26.032C116.954 26.1787 116.786 26.2667 116.624 26.296C116.463 26.3253 115.957 26.34 115.106 26.34C114.168 26.34 113.574 26.362 113.324 26.406C113.075 26.4353 112.936 26.516 112.906 26.648C112.892 26.7653 112.892 27.1393 112.906 27.77C112.936 28.386 112.972 28.7967 113.016 29.002C113.016 29.0313 113.024 29.068 113.038 29.112C113.097 29.464 113.2 29.6693 113.346 29.728C113.508 29.7867 114.036 29.8087 114.93 29.794C115.062 29.794 115.165 29.794 115.238 29.794C115.825 29.794 116.236 29.8013 116.47 29.816C116.705 29.816 116.918 29.838 117.108 29.882C117.299 29.9113 117.416 29.9627 117.46 30.036C117.504 30.0947 117.556 30.1973 117.614 30.344C117.864 30.9013 117.614 31.2827 116.866 31.488C116.5 31.5907 115.664 31.6347 114.358 31.62C113.053 31.6053 112.29 31.5467 112.07 31.444C111.689 31.2533 111.44 30.9893 111.322 30.652C111.205 30.3 111.117 29.596 111.058 28.54C111.044 28.3493 111.022 28.056 110.992 27.66C110.978 27.264 110.97 27.0147 110.97 26.912C110.985 26.6627 110.978 26.4427 110.948 26.252C110.919 26.0613 110.934 25.8927 110.992 25.746C111.051 25.5847 111.102 25.4527 111.146 25.35C111.19 25.2327 111.278 25.1373 111.41 25.064C111.542 24.976 111.674 24.91 111.806 24.866C111.953 24.8073 112.151 24.7633 112.4 24.734C112.65 24.69 112.906 24.6533 113.17 24.624C113.434 24.5947 113.772 24.5727 114.182 24.558ZM113.874 33.666C114.006 33.578 114.16 33.5487 114.336 33.578C114.512 33.5927 114.659 33.666 114.776 33.798C114.908 33.93 114.996 34.084 115.04 34.26C115.099 34.4213 115.136 34.7 115.15 35.096C115.165 35.3747 115.172 35.5653 115.172 35.668C115.172 35.756 115.187 35.888 115.216 36.064C115.26 36.2253 115.282 36.328 115.282 36.372C115.282 36.4013 115.319 36.46 115.392 36.548C115.466 36.6213 115.51 36.658 115.524 36.658C115.554 36.658 115.642 36.6727 115.788 36.702C115.935 36.7167 116.038 36.724 116.096 36.724C116.17 36.724 116.316 36.7167 116.536 36.702C119.822 36.5993 121.545 36.592 121.706 36.68C121.926 36.7973 122.058 36.988 122.102 37.252C122.146 37.516 122.073 37.7287 121.882 37.89C121.618 38.1393 121.105 38.3153 120.342 38.418C119.58 38.5353 118.45 38.594 116.954 38.594C115.576 38.594 114.666 38.4913 114.226 38.286C113.801 38.0953 113.515 37.67 113.368 37.01C113.324 36.79 113.295 36.3133 113.28 35.58C113.28 34.832 113.302 34.4433 113.346 34.414C113.39 34.3847 113.412 34.3407 113.412 34.282C113.412 34.2233 113.464 34.1207 113.566 33.974C113.684 33.8273 113.786 33.7247 113.874 33.666ZM136.268 24.272C136.341 24.2573 136.473 24.2573 136.664 24.272C136.81 24.2867 136.92 24.3087 136.994 24.338C137.082 24.3673 137.162 24.4333 137.236 24.536C137.309 24.6387 137.36 24.7633 137.39 24.91C137.434 25.0567 137.47 25.2767 137.5 25.57C137.529 25.8633 137.551 26.186 137.566 26.538C137.58 26.89 137.588 27.352 137.588 27.924C137.646 30.036 137.639 31.3047 137.566 31.73C137.507 32.1553 137.272 32.4707 136.862 32.676C136.583 32.808 136.268 32.698 135.916 32.346C135.828 32.258 135.769 32.0967 135.74 31.862C135.71 31.6127 135.688 31.0773 135.674 30.256C135.674 30.1827 135.674 30.08 135.674 29.948C135.659 29.6547 135.652 29.4493 135.652 29.332C135.652 29.2147 135.637 29.068 135.608 28.892C135.593 28.716 135.578 28.606 135.564 28.562C135.564 28.5033 135.534 28.4373 135.476 28.364C135.432 28.276 135.395 28.2247 135.366 28.21C135.336 28.1953 135.27 28.1807 135.168 28.166C135.065 28.1367 134.977 28.1293 134.904 28.144C134.845 28.144 134.735 28.1513 134.574 28.166C134.486 28.166 134.42 28.166 134.376 28.166C133.628 28.21 133.129 28.1807 132.88 28.078C132.63 27.9753 132.506 27.748 132.506 27.396C132.506 27.0733 132.608 26.8387 132.814 26.692C133.019 26.5307 133.342 26.4353 133.782 26.406C134.794 26.3327 135.402 26.2667 135.608 26.208C135.652 26.1933 135.674 26.098 135.674 25.922C135.674 25.4673 135.725 25.0933 135.828 24.8C135.945 24.492 136.092 24.316 136.268 24.272ZM129.58 24.668C129.917 24.492 130.166 24.5213 130.328 24.756C130.489 24.976 130.504 25.3207 130.372 25.79C130.269 26.1273 130.218 26.34 130.218 26.428C130.218 26.4867 130.32 26.67 130.526 26.978C130.746 27.286 130.973 27.5793 131.208 27.858C131.296 27.9753 131.354 28.0633 131.384 28.122C131.428 28.21 131.464 28.254 131.494 28.254C131.523 28.254 131.538 28.276 131.538 28.32C131.538 28.364 131.604 28.474 131.736 28.65C131.868 28.8407 131.934 28.958 131.934 29.002C131.934 29.0313 131.956 29.046 132 29.046C132.044 29.046 132.066 29.068 132.066 29.112C132.066 29.156 132.124 29.266 132.242 29.442C132.506 29.8087 132.645 30.1167 132.66 30.366C132.674 30.6007 132.564 30.8353 132.33 31.07C132.051 31.334 131.787 31.4073 131.538 31.29C131.288 31.1727 130.958 30.8133 130.548 30.212C130.21 29.728 130.027 29.4713 129.998 29.442C129.91 29.3687 129.778 29.156 129.602 28.804C129.455 28.5253 129.301 28.364 129.14 28.32C128.978 28.276 128.832 28.364 128.7 28.584C128.553 28.804 128.465 28.9213 128.436 28.936C128.406 28.936 128.392 28.958 128.392 29.002C128.392 29.046 128.355 29.1193 128.282 29.222C128.208 29.3393 128.091 29.552 127.93 29.86C127.592 30.5053 127.314 30.9233 127.094 31.114C126.888 31.29 126.668 31.29 126.434 31.114C126.023 30.8353 125.788 30.5787 125.73 30.344C125.686 30.0947 125.803 29.7353 126.082 29.266C126.214 29.046 126.441 28.694 126.764 28.21C127.086 27.7113 127.27 27.4327 127.314 27.374C127.358 27.33 127.475 27.176 127.666 26.912C128.59 25.6213 129.228 24.8733 129.58 24.668ZM128.92 33.512C129.169 33.248 129.44 33.1747 129.734 33.292C129.954 33.38 130.108 33.5413 130.196 33.776C130.284 34.0107 130.357 34.4433 130.416 35.074C130.474 35.5873 130.526 35.932 130.57 36.108C130.614 36.2693 130.694 36.3867 130.812 36.46C130.9 36.504 131.648 36.526 133.056 36.526C134.478 36.5113 135.3 36.482 135.52 36.438C136.194 36.2913 136.766 36.3207 137.236 36.526C137.705 36.7167 137.918 37.01 137.874 37.406C137.859 37.5527 137.778 37.7067 137.632 37.868C137.5 38.0293 137.375 38.11 137.258 38.11C137.184 38.11 137.118 38.1247 137.06 38.154C136.869 38.2567 135.82 38.3227 133.914 38.352C132.022 38.3813 130.841 38.352 130.372 38.264C129.888 38.1907 129.492 38.0367 129.184 37.802C128.89 37.5527 128.744 37.2887 128.744 37.01C128.744 36.9367 128.722 36.8633 128.678 36.79C128.634 36.7167 128.597 36.3207 128.568 35.602C128.509 34.898 128.502 34.4213 128.546 34.172C128.59 33.9227 128.714 33.7027 128.92 33.512ZM141.118 25.24C141.44 25.064 141.726 25.1227 141.976 25.416C142.049 25.504 142.093 25.5993 142.108 25.702C142.137 25.8047 142.174 26.0613 142.218 26.472C142.218 26.5307 142.225 26.6187 142.24 26.736C142.254 27.0733 142.328 27.2713 142.46 27.33C142.592 27.374 143.054 27.3813 143.846 27.352C144.095 27.3373 144.293 27.33 144.44 27.33C144.616 27.33 144.85 27.3227 145.144 27.308C146.185 27.2787 146.794 27.2347 146.97 27.176C147.146 27.1173 147.241 26.9413 147.256 26.648C147.27 26.5747 147.278 26.516 147.278 26.472C147.322 26.0613 147.446 25.746 147.652 25.526C147.857 25.306 148.077 25.2327 148.312 25.306C148.561 25.3647 148.752 25.57 148.884 25.922C148.986 26.186 149.008 27.1173 148.95 28.716C148.906 30.3 148.832 31.1507 148.73 31.268C148.7 31.2973 148.686 31.3413 148.686 31.4C148.686 31.5613 148.517 31.7593 148.18 31.994C147.857 32.214 147.52 32.3607 147.168 32.434C146.889 32.4927 145.928 32.522 144.286 32.522C142.643 32.5073 141.756 32.4707 141.624 32.412C141.286 32.2653 141.052 32.0527 140.92 31.774C140.817 31.5687 140.714 31.1873 140.612 30.63C140.524 30.0727 140.48 29.6107 140.48 29.244C140.48 28.9947 140.458 28.5767 140.414 27.99C140.355 27.1687 140.377 26.5453 140.48 26.12C140.597 25.6947 140.81 25.4013 141.118 25.24ZM147.146 29.288C147.087 29.1853 146.112 29.1633 144.22 29.222C144.205 29.222 144.183 29.222 144.154 29.222C143.288 29.2513 142.782 29.288 142.636 29.332C142.489 29.3613 142.408 29.4787 142.394 29.684C142.394 29.6987 142.394 29.706 142.394 29.706C142.379 30.1167 142.467 30.388 142.658 30.52C142.863 30.652 143.237 30.7107 143.78 30.696C144.381 30.6667 145.004 30.6447 145.65 30.63C145.664 30.63 145.686 30.6227 145.716 30.608C146.449 30.5933 146.874 30.5567 146.992 30.498C147.124 30.4247 147.19 30.212 147.19 29.86C147.19 29.86 147.19 29.8527 147.19 29.838C147.19 29.53 147.175 29.3467 147.146 29.288ZM144.462 33.27C144.579 33.2113 144.733 33.1893 144.924 33.204C145.129 33.204 145.276 33.2407 145.364 33.314C145.466 33.4167 145.54 33.556 145.584 33.732C145.642 33.908 145.694 34.238 145.738 34.722C145.782 35.338 145.818 35.6607 145.848 35.69C145.862 35.7047 146.515 35.712 147.806 35.712C148.906 35.7267 149.58 35.756 149.83 35.8C150.079 35.8293 150.262 35.954 150.38 36.174C150.585 36.482 150.578 36.768 150.358 37.032C150.152 37.2813 149.793 37.4427 149.28 37.516C148.678 37.5893 147.094 37.6187 144.528 37.604C141.976 37.5893 140.626 37.538 140.48 37.45C140.216 37.274 140.054 37.054 139.996 36.79C139.937 36.526 140.003 36.306 140.194 36.13C140.34 36.0127 140.494 35.9393 140.656 35.91C140.832 35.8807 141.338 35.8513 142.174 35.822C142.276 35.822 142.408 35.8147 142.57 35.8C143.215 35.7853 143.589 35.7487 143.692 35.69C143.809 35.6167 143.875 35.3893 143.89 35.008C143.89 34.9053 143.89 34.8247 143.89 34.766C143.904 34.238 143.941 33.8933 144 33.732C144.073 33.556 144.227 33.402 144.462 33.27ZM152.322 34.678C152.483 34.5313 152.769 34.4727 153.18 34.502C153.591 34.5313 153.847 34.634 153.95 34.81C154.126 35.0887 154.221 35.5287 154.236 36.13C154.251 36.7313 154.177 37.1787 154.016 37.472C153.4 38.6307 152.791 39.1513 152.19 39.034C151.838 38.9753 151.655 38.8433 151.64 38.638C151.625 38.4327 151.757 38.0073 152.036 37.362C152.212 37.01 152.219 36.6213 152.058 36.196C151.823 35.5653 151.911 35.0593 152.322 34.678ZM174.581 24.162C174.816 24.03 175.036 24.0153 175.241 24.118C175.461 24.2207 175.63 24.4113 175.747 24.69C175.791 24.822 175.828 25.9293 175.857 28.012C175.886 30.08 175.886 31.3193 175.857 31.73C175.798 32.2873 175.644 32.6687 175.395 32.874C175.146 33.0647 174.816 33.0573 174.405 32.852C174.258 32.7787 174.156 32.7273 174.097 32.698C174.053 32.654 174.002 32.5513 173.943 32.39C173.899 32.214 173.87 32.0307 173.855 31.84C173.855 31.6493 173.855 31.3047 173.855 30.806C173.84 30.586 173.826 30.3367 173.811 30.058C173.811 29.7647 173.811 29.5447 173.811 29.398C173.811 29.2367 173.804 29.1413 173.789 29.112C173.789 28.8773 173.261 28.87 172.205 29.09C172.132 29.1047 172.088 29.1707 172.073 29.288C172.073 29.4053 172.08 29.8087 172.095 30.498C172.095 31.422 172.066 31.95 172.007 32.082C171.831 32.4047 171.56 32.5293 171.193 32.456C170.841 32.3827 170.606 32.1553 170.489 31.774C170.298 31.1287 170.196 29.8967 170.181 28.078C170.166 26.2593 170.247 25.1593 170.423 24.778C170.599 24.3967 170.841 24.1913 171.149 24.162C171.472 24.118 171.721 24.2647 171.897 24.602C171.97 24.7487 172.014 25.1667 172.029 25.856C172.044 26.472 172.08 26.8167 172.139 26.89C172.198 26.9633 172.462 26.9853 172.931 26.956C173.371 26.9267 173.635 26.89 173.723 26.846C173.811 26.802 173.855 26.6627 173.855 26.428C173.855 25.1813 174.097 24.426 174.581 24.162ZM167.167 24.448C167.402 24.3307 167.622 24.338 167.827 24.47C168.032 24.5873 168.179 24.8073 168.267 25.13C168.443 25.746 168.538 26.7507 168.553 28.144C168.568 29.5373 168.494 30.4173 168.333 30.784C168.26 30.96 168.15 31.136 168.003 31.312C167.856 31.488 167.754 31.576 167.695 31.576C167.636 31.576 167.57 31.5907 167.497 31.62C167.145 31.8107 165.972 31.84 163.977 31.708C163.464 31.664 163.082 31.5467 162.833 31.356C162.598 31.1653 162.415 30.8353 162.283 30.366C162.166 29.8967 162.07 29.156 161.997 28.144C161.894 26.8387 161.916 25.8927 162.063 25.306C162.21 24.7047 162.488 24.404 162.899 24.404C163.207 24.404 163.427 24.514 163.559 24.734C163.691 24.954 163.757 25.328 163.757 25.856C163.757 26.3107 163.786 26.5453 163.845 26.56C163.889 26.5747 164.241 26.5673 164.901 26.538C165.576 26.494 166.038 26.4573 166.287 26.428L166.595 26.384L166.639 25.746C166.668 25.3207 166.712 25.02 166.771 24.844C166.844 24.668 166.976 24.536 167.167 24.448ZM166.617 29.046C166.617 28.7087 166.595 28.5253 166.551 28.496C166.507 28.452 166.236 28.4227 165.737 28.408C165.238 28.3933 164.813 28.3933 164.461 28.408L163.911 28.452L163.933 28.826C163.948 29.2953 164.028 29.5887 164.175 29.706C164.322 29.8233 164.666 29.8893 165.209 29.904C166.03 29.9187 166.485 29.8453 166.573 29.684C166.617 29.596 166.632 29.3833 166.617 29.046ZM166.331 33.776C166.463 33.7173 166.566 33.6953 166.639 33.71C166.844 33.7687 167.006 33.864 167.123 33.996C167.328 34.216 167.431 34.568 167.431 35.052C167.431 35.3893 167.46 35.7413 167.519 36.108C167.592 36.4747 167.658 36.6947 167.717 36.768C167.79 36.8267 168.076 36.8633 168.575 36.878C169.074 36.878 170.137 36.8487 171.765 36.79C172.865 36.746 173.547 36.7387 173.811 36.768C174.09 36.7827 174.31 36.8633 174.471 37.01C174.72 37.23 174.786 37.5087 174.669 37.846C174.552 38.1833 174.317 38.4107 173.965 38.528C173.525 38.6747 172.271 38.7407 170.203 38.726C168.135 38.7113 166.947 38.6307 166.639 38.484C166.258 38.2933 165.986 37.978 165.825 37.538C165.664 37.0833 165.583 36.438 165.583 35.602C165.583 34.986 165.627 34.5533 165.715 34.304C165.818 34.0547 166.023 33.8787 166.331 33.776ZM181.478 25.504C182.138 25.46 182.952 25.4453 183.92 25.46C184.903 25.4747 185.438 25.504 185.526 25.548C185.849 25.7533 186.003 26.0247 185.988 26.362C185.988 26.6993 185.827 26.9413 185.504 27.088C185.343 27.1613 184.544 27.2127 183.106 27.242C181.654 27.2713 180.833 27.3007 180.642 27.33L180.334 27.352L180.312 27.792C180.283 28.452 180.334 29.2367 180.466 30.146C180.496 30.3953 180.598 30.5493 180.774 30.608C181.053 30.7107 182.424 30.718 184.888 30.63C185.387 30.6007 185.724 30.6227 185.9 30.696C186.076 30.7547 186.23 30.8867 186.362 31.092C186.67 31.6347 186.509 32.0527 185.878 32.346C185.658 32.4487 184.588 32.5073 182.666 32.522C180.745 32.5367 179.674 32.4927 179.454 32.39C179.102 32.2287 178.868 32.0087 178.75 31.73C178.648 31.4367 178.552 30.828 178.464 29.904C178.435 29.4347 178.413 29.1707 178.398 29.112C178.369 29.0827 178.354 28.6427 178.354 27.792C178.354 27.4693 178.347 27.242 178.332 27.11C178.332 26.9633 178.354 26.7873 178.398 26.582C178.442 26.3767 178.472 26.2447 178.486 26.186C178.516 26.1273 178.604 26.0467 178.75 25.944C178.897 25.8267 179.014 25.7607 179.102 25.746C179.19 25.7313 179.381 25.702 179.674 25.658C179.982 25.5993 180.232 25.57 180.422 25.57C180.628 25.5553 180.98 25.5333 181.478 25.504ZM181.698 35.426C184.441 35.3673 186.128 35.3673 186.758 35.426C187.389 35.4847 187.785 35.6753 187.946 35.998C188.049 36.2033 188.012 36.438 187.836 36.702C187.675 36.9513 187.47 37.076 187.22 37.076C187.132 37.076 187.074 37.0907 187.044 37.12C186.971 37.1787 185.717 37.23 183.282 37.274C180.848 37.318 179.432 37.3107 179.036 37.252C178.318 37.1493 177.958 36.812 177.958 36.24C177.958 35.9027 178.149 35.69 178.53 35.602C178.926 35.514 179.982 35.4553 181.698 35.426ZM190.231 25.24C190.554 25.064 190.84 25.1227 191.089 25.416C191.162 25.504 191.206 25.5993 191.221 25.702C191.25 25.8047 191.287 26.0613 191.331 26.472C191.331 26.5307 191.338 26.6187 191.353 26.736C191.368 27.0733 191.441 27.2713 191.573 27.33C191.705 27.374 192.167 27.3813 192.959 27.352C193.208 27.3373 193.406 27.33 193.553 27.33C193.729 27.33 193.964 27.3227 194.257 27.308C195.298 27.2787 195.907 27.2347 196.083 27.176C196.259 27.1173 196.354 26.9413 196.369 26.648C196.384 26.5747 196.391 26.516 196.391 26.472C196.435 26.0613 196.56 25.746 196.765 25.526C196.97 25.306 197.19 25.2327 197.425 25.306C197.674 25.3647 197.865 25.57 197.997 25.922C198.1 26.186 198.122 27.1173 198.063 28.716C198.019 30.3 197.946 31.1507 197.843 31.268C197.814 31.2973 197.799 31.3413 197.799 31.4C197.799 31.5613 197.63 31.7593 197.293 31.994C196.97 32.214 196.633 32.3607 196.281 32.434C196.002 32.4927 195.042 32.522 193.399 32.522C191.756 32.5073 190.869 32.4707 190.737 32.412C190.4 32.2653 190.165 32.0527 190.033 31.774C189.93 31.5687 189.828 31.1873 189.725 30.63C189.637 30.0727 189.593 29.6107 189.593 29.244C189.593 28.9947 189.571 28.5767 189.527 27.99C189.468 27.1687 189.49 26.5453 189.593 26.12C189.71 25.6947 189.923 25.4013 190.231 25.24ZM196.259 29.288C196.2 29.1853 195.225 29.1633 193.333 29.222C193.318 29.222 193.296 29.222 193.267 29.222C192.402 29.2513 191.896 29.288 191.749 29.332C191.602 29.3613 191.522 29.4787 191.507 29.684C191.507 29.6987 191.507 29.706 191.507 29.706C191.492 30.1167 191.58 30.388 191.771 30.52C191.976 30.652 192.35 30.7107 192.893 30.696C193.494 30.6667 194.118 30.6447 194.763 30.63C194.778 30.63 194.8 30.6227 194.829 30.608C195.562 30.5933 195.988 30.5567 196.105 30.498C196.237 30.4247 196.303 30.212 196.303 29.86C196.303 29.86 196.303 29.8527 196.303 29.838C196.303 29.53 196.288 29.3467 196.259 29.288ZM193.575 33.27C193.692 33.2113 193.846 33.1893 194.037 33.204C194.242 33.204 194.389 33.2407 194.477 33.314C194.58 33.4167 194.653 33.556 194.697 33.732C194.756 33.908 194.807 34.238 194.851 34.722C194.895 35.338 194.932 35.6607 194.961 35.69C194.976 35.7047 195.628 35.712 196.919 35.712C198.019 35.7267 198.694 35.756 198.943 35.8C199.192 35.8293 199.376 35.954 199.493 36.174C199.698 36.482 199.691 36.768 199.471 37.032C199.266 37.2813 198.906 37.4427 198.393 37.516C197.792 37.5893 196.208 37.6187 193.641 37.604C191.089 37.5893 189.74 37.538 189.593 37.45C189.329 37.274 189.168 37.054 189.109 36.79C189.05 36.526 189.116 36.306 189.307 36.13C189.454 36.0127 189.608 35.9393 189.769 35.91C189.945 35.8807 190.451 35.8513 191.287 35.822C191.39 35.822 191.522 35.8147 191.683 35.8C192.328 35.7853 192.702 35.7487 192.805 35.69C192.922 35.6167 192.988 35.3893 193.003 35.008C193.003 34.9053 193.003 34.8247 193.003 34.766C193.018 34.238 193.054 33.8933 193.113 33.732C193.186 33.556 193.34 33.402 193.575 33.27ZM201.721 24.294C201.897 24.2647 202.117 24.2647 202.381 24.294C202.645 24.3087 202.836 24.3453 202.953 24.404C203.217 24.536 203.547 24.844 203.943 25.328C204.339 25.812 204.647 26.2813 204.867 26.736C204.955 26.912 205.043 27.088 205.131 27.264C205.307 27.6013 205.476 28.1 205.637 28.76C205.813 29.42 205.93 30.036 205.989 30.608C206.077 31.4147 205.982 32.3973 205.703 33.556C205.424 34.7147 205.072 35.5727 204.647 36.13C203.532 37.6407 202.63 38.396 201.941 38.396C201.794 38.396 201.589 38.3593 201.325 38.286C201.076 38.2127 200.922 38.1467 200.863 38.088C200.702 37.956 200.724 37.7213 200.929 37.384C201.134 37.0467 201.574 36.5187 202.249 35.8C203.261 34.7293 203.818 33.4167 203.921 31.862C204.097 29.574 203.371 27.55 201.743 25.79C201.406 25.438 201.23 25.1153 201.215 24.822C201.215 24.5287 201.384 24.3527 201.721 24.294Z" fill="#2F5388"/>
</svg>
