<svg width="27" height="25" viewBox="0 0 27 25" fill="none" xmlns="http://www.w3.org/2000/svg">
<path d="M8.59919 0.197256L11.2778 3.95918C11.4694 4.17515 11.7481 4.45381 12.0337 4.45381C12.2984 4.45381 14.0122 3.17545 14.573 2.92465C15.6667 2.437 17.0357 2.13744 18.1782 1.74731C18.8365 1.52438 20.6548 0.277371 21.024 1.5627C21.4455 3.02567 20.4736 3.76064 20.3413 5.0599C20.0522 7.93011 20.7628 9.09352 23.2881 9.33387C23.5459 9.35825 23.842 9.19802 24.1555 9.21892C25.0541 9.2851 26.1444 10.3997 26.0051 11.4796C25.8065 13.0052 23.9883 13.4546 22.8945 13.7437C21.8043 14.0328 20.0243 13.7367 20.0591 15.5898C20.0835 16.8299 21.2643 20.4072 21.0658 21.1874C20.9752 21.5427 20.5921 21.8179 20.2716 21.8388C19.0385 21.9154 17.3108 18.4879 16.1962 18.1082C15.3637 17.8261 14.775 19.202 14.5834 19.9509C14.2456 21.2571 14.7158 23.4829 13.4862 23.9775C10.9051 25.0225 11.3893 19.2856 9.61979 18.1047C7.75972 16.8647 3.4753 18.2441 2.55571 17.3384C1.87299 16.0078 3.28025 15.2032 3.94207 14.3184C4.48197 13.5974 6.31417 13.2421 6.01113 12.2494C5.90315 11.8976 4.38443 11.5353 3.88632 11.173C3.35687 10.7864 2.73685 9.96085 2.21785 9.49758C1.36793 8.73474 -0.795177 7.84303 0.305536 6.27556C0.462283 6.04915 0.58419 5.92723 0.841951 5.86105C1.62569 5.6625 5.56178 6.07004 5.80561 5.63115C5.47121 4.18908 6.7635 -1.07762 8.60615 0.197256H8.59919Z" fill="#7AA2DF"/>
</svg>
