<svg width="23" height="24" viewBox="0 0 23 24" fill="none" xmlns="http://www.w3.org/2000/svg">
<path d="M18.7426 2.68521C18.4716 2.51499 18.313 2.3262 18.1577 2.1436C17.9642 1.91612 17.7835 1.70102 17.4379 1.57568C16.5501 1.2569 15.6037 0.916458 14.662 0.583753C12.8166 -0.0677298 12.2649 -0.160577 10.0803 0.238669C6.07419 0.97062 3.55032 2.21633 1.69231 6.6885C1.44816 7.27499 1.28012 7.87386 1.11841 8.45261C1.01695 8.81472 0.912318 9.18921 0.790246 9.55596C0.660248 9.94282 0.541351 10.2461 0.436719 10.5138C0.11648 11.3294 -0.0769328 11.823 0.029285 13.2436C0.178307 15.2522 1.04391 17.1184 2.67205 18.946C3.92923 20.3573 7.15063 20.4517 9.28292 20.5136C9.58255 20.5228 9.86157 20.5306 10.1073 20.5414C10.5845 20.5631 11.16 20.2103 11.6197 19.9271C11.7862 19.8249 11.9431 19.7274 12.0652 19.6686C12.5456 19.4365 12.7738 19.4102 13.0148 19.3839C13.3065 19.3514 13.6077 19.3189 14.2862 18.9506C15.7733 18.1444 17.0511 16.3462 17.6218 14.2618C18.1719 12.2532 17.9944 10.2956 17.1224 8.74818C15.4055 5.69813 12.5852 4.46325 9.58096 5.44744C8.42842 5.82502 6.8193 6.5415 5.69846 7.81661C4.58238 9.08862 4.21617 10.6036 4.61092 12.3197C5.09604 14.4274 6.79077 16.4406 8.82317 16.4391C9.03561 16.4391 9.25279 16.4174 9.47157 16.371C10.7494 16.1017 11.3058 15.0201 11.2884 14.0684C11.2709 13.1291 10.6907 12.0861 9.43035 11.871C9.20365 11.8323 8.95158 11.8942 8.70744 11.953C8.24769 12.0644 8.0194 12.0923 7.91002 11.8539C7.61673 11.2102 7.73563 10.9549 8.24452 10.5138C9.94083 9.0422 11.3534 9.18921 13.121 11.023C14.207 12.1495 14.1293 14.1334 12.9229 16.0754C12.1365 17.3413 10.873 17.9912 8.95 18.1181C7.63417 18.2047 4.88835 17.1045 3.97044 16.1203C1.85242 13.8533 2.62449 10.3065 4.05129 7.74388C5.10237 5.85752 6.68772 4.52205 8.6361 3.88295C10.4133 3.29956 12.3934 3.33515 14.2117 3.98199C15.9239 4.59169 17.3904 5.72289 18.3447 7.16667C19.4069 8.77294 19.8334 10.746 19.5813 12.8722C19.1469 16.5319 17.3333 19.1549 15.7289 20.1313C15.3865 20.3402 14.8586 20.4517 14.2989 20.5708C13.3842 20.7658 12.4377 20.967 12.0382 21.6432C11.6752 22.2591 11.6276 22.9384 11.9162 23.4182C12.1413 23.7942 12.5471 24 13.0481 24C13.121 24 13.1971 23.9954 13.2732 23.9861C14.2086 23.8778 14.9315 23.6441 15.5498 23.2479C15.9144 23.0143 16.3076 22.8085 16.688 22.6088C17.2841 22.2962 17.8992 21.9728 18.4636 21.5225C20.8844 19.5882 22.9612 15.2862 22.9993 12.1278C23.0373 8.86733 21.5598 4.44777 18.7426 2.68212V2.68521Z" fill="#B48DD3"/>
</svg>
