<svg width="375" height="36" viewBox="0 0 375 36" fill="none" xmlns="http://www.w3.org/2000/svg">
<mask id="mask0_4276_7304" style="mask-type:alpha" maskUnits="userSpaceOnUse" x="0" y="0" width="375" height="36">
<rect width="375" height="36" fill="white"/>
</mask>
<g mask="url(#mask0_4276_7304)">
<path d="M386.585 52.9541L380.525 52.077L374.659 51.9869L368.797 52.1498H362.934L357.068 52.1186L351.206 53.1656L345.343 52.3648L339.481 52.6837L333.615 53.2661L327.753 53.2384L321.887 52.2018L316.024 53.176L310.162 52.6768L304.296 53.4915L298.433 53.1136L292.571 52.8675L286.705 53.1171L280.843 53.1518L274.977 52.6109L269.114 52.812L263.248 52.3717L257.386 52.9645L251.524 52.3405L245.661 53.4672L239.799 52.6109L233.936 53.5504L228.074 53.1379L222.208 52.0666L216.346 52.708L210.483 52.233L204.621 52.9437L198.755 52.1429L192.892 52.8258L187.03 52.7808L181.167 52.708L175.302 52.4757L169.439 52.2816L163.577 52.4029L157.711 53.3667L151.848 52.3578L145.983 52.0181L140.12 53.2245L134.254 52.2816L128.388 51.973L122.526 52.5208L116.66 52.7877L110.798 53.429L104.932 51.9869L99.0692 53.5296L93.2033 52.5658L87.3374 52.1498L81.475 52.4306L75.6091 53.0234L69.7432 52.1498L63.8773 52.9784L58.0148 53.3944L52.1489 53.429L46.2865 53.3528L40.4206 53.5712L34.5547 52.6283L28.6888 52.8223L22.8264 53.4048L16.9605 53.1933L11.0946 52.441L5.22866 52.1152L-0.637237 53.0477L-6.5066 53.2176L-12.5077 52.8917L-12.2581 46.7415L-11.7901 40.7162L-11.9877 34.6942L-11.8802 28.6723L-11.8213 22.647L-11.953 16.6216L-13 10.5997L-11.849 5.08392L-6.51007 3.9919L-0.647637 3.94683L5.21826 4.765L11.0807 4.64714L16.9431 4.80313L22.809 5.14982L28.6715 5.36823L34.5339 3.84628L40.3998 5.33704L46.2622 5.34051L52.1247 4.82738L57.9906 4.40791L63.853 4.38713L69.7154 4.66445L75.5813 4.29352L81.4438 4.15136L87.3097 5.11516L93.1721 4.04044L99.0345 4.34896L104.9 4.44951L110.763 5.27809L116.629 5.21914L122.488 4.98341L128.35 4.44604L134.216 4.84473L140.078 4.8898L145.941 3.85322L151.803 4.31777L157.669 4.90368L163.532 4.4322L169.394 4.09241L175.257 4.46339L181.119 3.77002L186.985 3.82203L192.847 4.27964L198.71 4.60897L204.576 5.17754L210.438 4.53618L216.304 4.82391L222.166 4.46339L228.032 5.15329L233.895 4.65404L239.761 5.05273L245.623 5.04579L251.489 5.19142L257.351 4.51887L263.217 3.84281L269.083 4.04387L274.946 5.21914L280.812 4.5223L286.674 4.42526L292.54 4.03697L298.406 4.37325L304.272 5.10475L310.134 5.00766L316 4.03003L321.862 3.9503L327.728 5.36129L333.594 5.31969L339.457 4.53271L345.323 4.58472L351.188 5.38901L357.054 4.23803L362.92 4.88286L368.786 5.06662L374.652 3.85322L380.521 3.78043L386.1 4.85514L386.269 10.5962L386.821 16.6181L386.471 22.6435L386.061 28.6654L385.826 34.6873L386.838 40.7127L386.71 46.7311L386.585 52.9541Z" fill="white"/>
</g>
</svg>
