<svg width="335" height="65" viewBox="0 0 335 65" fill="none" xmlns="http://www.w3.org/2000/svg">
<path d="M291.868 1.00195V1.00098L305.679 1.6377L305.717 1.63965L305.755 1.6377L319.516 0.767578L331.984 2.25586L333.207 10.1045L331.851 18.9541L331.837 19.0488L331.848 19.1436L332.914 28.0566L332.745 36.9639V36.9834L332.823 45.9463V46L332.832 46.0537L334.289 54.8926L332.714 63.1562L319.509 64.1045L305.766 64.2988L291.988 62.9971L291.941 62.9922L291.894 62.9941L278.091 63.5645L264.327 63.4922L250.513 62.5713L250.453 62.5674L250.394 62.5732L236.648 63.9941L222.906 62.6143L222.835 62.6064L222.763 62.6143L209.026 64.0664L195.295 62.3467L195.236 62.3389L195.179 62.3418L181.388 62.9111L167.612 61.9912L167.548 61.9873L167.484 61.9951L153.743 63.6025L139.987 62.3271L139.911 62.3203L139.834 62.3301L126.065 64.0938L112.311 63.4922L98.4883 62.7988L98.4424 62.7969L98.3965 62.8008L84.6504 63.9287L70.9121 62.1836L70.8613 62.1768L70.8105 62.1777L56.9824 62.4473H56.96L56.9375 62.4492L43.1533 63.6133L29.3828 63.0518L29.3389 63.0498L29.2949 63.0537L15.5146 64.2236L2.48438 63.1973L3.20703 54.9717L3.21582 54.8652L3.19336 54.7598L1.25 45.9463L2.97461 37.1357L3.00488 36.9814L2.96582 36.8291L0.722656 28.041L3.04199 19.2549L3.08008 19.1133L3.05762 18.9697L1.68945 10.1221L3.0791 2.27832L15.499 1.11133L29.252 2.62207L29.3027 2.62793L29.3545 2.62598L43.1426 2.1123L56.957 2.12012H56.9824L57.0068 2.11816L70.7764 1.13379L84.541 2.02051L84.5635 2.02246H84.5859L98.4004 2.03906L112.189 2.56055H112.195L126.022 2.96875L126.06 2.96973L126.096 2.9668L139.889 1.93164L153.648 1.62207L167.442 2.77051L167.499 2.77539L167.557 2.77148L181.328 1.64746L195.106 2.34766L195.12 2.34863L208.935 2.78906L208.961 2.79004L208.987 2.78906L222.814 2.19336L222.813 2.19238L236.605 2.06348H236.62L236.636 2.0625L250.433 1.34473L264.211 1.93164L264.258 1.93359L264.304 1.92969L278.076 0.700195L291.868 1.00195Z" fill="white" stroke="#6995D6" stroke-width="1.4"/>
<path d="M45.7084 24.2386L45.3031 23.8925L44.7701 23.8189L44.6028 23.966C43.8539 24.628 42.9994 25.303 41.8453 25.753C40.4138 26.3761 38.9029 27.0597 37.5242 27.8732C37.4449 27.3713 37.3568 26.865 37.2687 26.3631C37.3877 25.8309 37.2027 25.541 37.0749 25.4155C36.8987 25.2381 36.6432 25.1689 36.3922 25.2295C36.0662 25.3117 35.7931 25.6016 35.6433 26.0126C35.2777 26.3891 34.9562 26.7871 34.6787 27.1982C34.5245 26.9645 34.3571 26.666 34.2867 26.5059L34.2602 26.4453L34.2162 26.3934C33.3528 25.3809 32.5071 24.3338 31.7054 23.2737L31.4764 22.6636C31.3134 22.2829 31.0799 22.0622 30.7892 22.0103C30.6086 21.98 30.3355 22.0016 30.0624 22.2872L29.7012 22.7112L29.7145 22.8973C29.7409 23.2867 29.9567 23.5766 30.1329 23.8059C30.221 23.9227 30.3003 24.0309 30.3487 24.1348C30.6483 24.7968 30.8641 25.6881 31.0755 26.5492C31.2121 27.1117 31.353 27.6915 31.5204 28.2193C31.4279 28.1458 31.3398 28.0722 31.2517 27.9943C31.0888 27.8472 30.7848 27.5746 30.6395 27.4189C30.6218 27.3929 30.6042 27.3583 30.5822 27.3237C30.4677 27.1203 30.2915 26.8131 29.9303 26.8088C29.8025 26.8088 29.5691 26.8434 29.3929 27.1246C29.0978 27.6006 29.4325 28.0419 29.5955 28.254C29.6352 28.3059 29.6792 28.3621 29.6968 28.3924C29.8686 28.7256 30.0096 29.1972 30.1417 29.6559C30.2959 30.1924 30.4589 30.7462 30.7011 31.1789C30.7892 31.3347 30.8905 31.4515 30.9698 31.5381C30.9698 31.5381 30.9698 31.5381 30.9742 31.5424C30.8509 31.6635 30.4457 31.7501 30.1461 31.8107C29.9303 31.8539 29.7056 31.9015 29.503 31.9707C28.7938 32.2131 28.0759 32.5203 27.3799 32.8145C26.6135 33.139 25.825 33.4765 25.063 33.7188C24.7766 33.8097 24.6004 33.8097 24.3802 33.8097C24.2128 33.8097 24.0234 33.8097 23.79 33.8486C23.301 33.9351 22.9751 34.3289 23.0015 34.8092C23.0279 35.2678 23.3627 35.6399 23.7812 35.6616C23.9882 35.6746 24.2084 35.588 24.6093 35.4193C24.8031 35.3371 25.0453 35.2375 25.1599 35.2159C25.9087 35.0731 26.8205 35.0688 27.7014 35.0688C28.6309 35.0688 29.5911 35.0601 30.4324 34.9C30.6351 34.8611 30.8157 34.7919 30.9742 34.7313C31.3178 34.6015 31.4103 34.5842 31.5336 34.6707C31.5028 34.7356 31.4367 34.8351 31.3927 34.9044C31.3002 35.0472 31.1945 35.2073 31.1284 35.389C30.9126 35.9688 30.7936 36.6654 30.6791 37.3404C30.5646 38.0154 30.4457 38.712 30.2342 39.2356C30.2122 39.2875 30.1417 39.3957 30.0801 39.4865C29.8774 39.7894 29.6484 40.1356 29.7717 40.5034C29.8378 40.6981 29.992 40.8495 30.2078 40.9317C30.3047 40.9663 30.3972 40.988 30.4809 40.9966C30.6835 41.0139 30.8377 40.962 30.9434 40.9014C31.3222 40.6937 31.4059 40.2481 31.4764 39.8889C31.5028 39.7548 31.5336 39.599 31.5645 39.5298C31.8332 38.963 32.2076 38.3789 32.5688 37.812C32.9256 37.2539 33.2912 36.6784 33.5775 36.0986C33.6656 35.9212 33.714 35.7308 33.7581 35.5664C33.8021 35.402 33.8506 35.1986 33.9123 35.177C33.9211 35.177 33.9299 35.1726 33.9387 35.1683C33.9607 35.2029 33.9827 35.2462 34.0048 35.2808C34.0708 35.402 34.1545 35.5534 34.2867 35.6875C34.736 36.1419 35.291 36.5529 35.8239 36.951C36.3173 37.3188 36.8326 37.6952 37.2247 38.089C37.2819 38.1452 37.3392 38.2404 37.3965 38.3442C37.5506 38.6082 37.9074 39.2269 38.7179 38.9284L38.8368 38.8851L39.1143 38.5563L39.2994 38.089L39.2201 37.9116C39.0042 37.4226 38.9117 36.9164 38.9249 36.3322C38.969 35.4496 38.9382 34.5582 38.828 33.6842L38.8192 33.6063L38.784 33.5371C38.7267 33.4159 38.6959 33.3251 38.6871 33.2602C38.7223 33.2645 38.7708 33.2775 38.828 33.2948L38.9293 33.3294L39.0351 33.3164C40.0085 33.2039 40.9776 33.0914 41.9511 32.9832C42.4973 33.1909 42.9421 33.0525 43.1888 32.8404C43.4267 32.6328 43.5148 32.3299 43.4223 32.053C43.365 31.8885 43.1624 31.4861 42.4048 31.4429L41.8674 31.4602C40.9203 31.2482 39.9601 31.0534 39.0086 30.8717C39.8015 30.4217 40.4754 29.8289 41.0393 29.2967C42.1317 28.254 43.2637 27.1766 44.5499 26.2419C45.3472 26.0213 45.7921 25.7184 45.9462 25.2857C46.0299 25.0521 46.0564 24.6843 45.7172 24.2386H45.7084Z" fill="#B48DD3"/>
<path d="M73.6816 23.326C73.8283 23.2967 74.129 23.2893 74.5836 23.304C75.0383 23.304 75.3536 23.326 75.5296 23.37C75.999 23.4727 76.4536 23.7367 76.8936 24.162C77.3483 24.5873 77.6416 25.0347 77.7736 25.504C77.9203 26.0027 78.023 26.4133 78.0816 26.736C78.1403 27.132 78.111 27.638 77.9936 28.254C77.8763 28.8553 77.7223 29.2953 77.5316 29.574C77.3703 29.794 77.1136 30.0507 76.7616 30.344C76.4096 30.6227 76.1676 30.762 76.0356 30.762C75.9916 30.762 75.9476 30.784 75.9036 30.828C75.845 30.8867 75.5003 30.916 74.8696 30.916C74.239 30.916 73.8356 30.8867 73.6596 30.828C73.645 30.828 73.5643 30.806 73.4176 30.762C73.2856 30.718 73.1976 30.6887 73.1536 30.674C72.8163 30.5713 72.4496 30.366 72.0536 30.058C71.6576 29.7353 71.4083 29.4567 71.3056 29.222C71.247 29.1047 71.2103 29.046 71.1956 29.046C71.1663 29.046 71.137 29.0167 71.1076 28.958C71.0783 28.826 71.0123 28.628 70.9096 28.364C70.6603 27.6747 70.6236 26.9633 70.7996 26.23C70.9756 25.482 71.3276 24.844 71.8556 24.316C72.1343 24.0373 72.3983 23.832 72.6476 23.7C72.897 23.568 73.2416 23.4433 73.6816 23.326ZM75.0016 25.24C74.767 25.152 74.4736 25.13 74.1216 25.174C73.5936 25.218 73.2123 25.3647 72.9776 25.614C72.743 25.8633 72.6256 26.2373 72.6256 26.736C72.6256 27.3813 72.7723 27.902 73.0656 28.298C73.359 28.694 73.7916 28.9507 74.3636 29.068C74.9796 29.2 75.4636 29.1267 75.8156 28.848C76.1676 28.5547 76.3583 28.078 76.3876 27.418C76.4463 26.362 75.9843 25.636 75.0016 25.24ZM81.8656 23.48C82.159 23.304 82.4156 23.3113 82.6356 23.502C82.8556 23.6927 82.995 24.0227 83.0536 24.492C83.0976 24.8733 83.1123 25.9953 83.0976 27.858C83.0976 29.7207 83.0756 30.74 83.0316 30.916C82.9583 31.2093 82.8483 31.4147 82.7016 31.532C82.5696 31.6493 82.3716 31.708 82.1076 31.708C81.7556 31.708 81.521 31.62 81.4036 31.444C81.2863 31.2533 81.213 30.8647 81.1836 30.278L81.1396 29.486H80.0616C79.387 29.486 78.9543 29.4273 78.7636 29.31C78.573 29.178 78.4776 28.9067 78.4776 28.496C78.4776 28.2027 78.5876 27.99 78.8076 27.858C79.0276 27.726 79.4456 27.6307 80.0616 27.572C80.6483 27.4987 80.9856 27.4327 81.0736 27.374C81.1763 27.3007 81.2276 27.0733 81.2276 26.692C81.2276 26.472 81.1763 26.3473 81.0736 26.318C80.9856 26.274 80.6776 26.2593 80.1496 26.274C79.5483 26.3033 79.1376 26.2667 78.9176 26.164C78.6976 26.0613 78.6096 25.8633 78.6536 25.57C78.6976 25.2767 78.8663 25.042 79.1596 24.866C79.453 24.6753 79.805 24.58 80.2156 24.58C80.4356 24.58 80.751 24.5213 81.1616 24.404C81.2643 24.3747 81.3523 24.2647 81.4256 24.074C81.543 23.7953 81.6896 23.5973 81.8656 23.48ZM77.0916 32.258C77.4436 32.1407 77.935 32.1113 78.5656 32.17C79.211 32.214 79.739 32.3167 80.1496 32.478C80.8536 32.7713 81.389 33.1087 81.7556 33.49C82.1223 33.8713 82.423 34.4067 82.6576 35.096C82.6576 35.1107 82.6943 35.206 82.7676 35.382C82.9436 35.822 82.885 36.3573 82.5916 36.988C82.2983 37.6187 81.851 38.1613 81.2496 38.616C80.795 38.9533 80.201 39.1953 79.4676 39.342C78.749 39.5033 78.1476 39.5107 77.6636 39.364C77.1503 39.2027 76.725 39.0413 76.3876 38.88C75.9916 38.704 75.6103 38.44 75.2436 38.088C74.6276 37.472 74.2976 36.7607 74.2536 35.954C74.2096 35.1473 74.4443 34.4067 74.9576 33.732C75.471 33.0427 76.1823 32.5513 77.0916 32.258ZM79.4456 34.128C78.683 33.8787 77.9423 33.9227 77.2236 34.26C76.5196 34.5827 76.1676 35.0447 76.1676 35.646C76.1676 36.394 76.505 36.9513 77.1796 37.318C77.869 37.6847 78.661 37.736 79.5556 37.472C79.9223 37.3547 80.2156 37.12 80.4356 36.768C80.6556 36.416 80.751 36.0347 80.7216 35.624C80.707 35.2133 80.5603 34.8833 80.2816 34.634C79.9883 34.3847 79.7096 34.216 79.4456 34.128ZM96.8291 25.768C97.0491 25.6213 97.2618 25.5847 97.4671 25.658C97.6724 25.7167 97.8338 25.8633 97.9511 26.098C98.0244 26.2593 98.0831 27.8433 98.1271 30.85C98.1858 33.842 98.1858 35.602 98.1271 36.13C98.0831 36.5847 97.9218 36.8927 97.6431 37.054C97.3644 37.2007 97.0564 37.164 96.7191 36.944C96.4844 36.7973 96.3378 36.5993 96.2791 36.35C96.2351 36.1007 96.1984 35.4333 96.1691 34.348C96.1398 32.7787 96.1104 31.862 96.0811 31.598C96.0518 31.3193 95.9711 31.158 95.8391 31.114C95.7071 31.07 95.4064 31.0627 94.9371 31.092C94.3798 31.1213 93.9984 31.0847 93.7931 30.982C93.5878 30.8793 93.4704 30.674 93.4411 30.366C93.4264 30.1313 93.4411 29.9627 93.4851 29.86C93.5291 29.7427 93.6244 29.64 93.7711 29.552C93.9178 29.4493 94.0718 29.3833 94.2331 29.354C94.4091 29.3247 94.8638 29.266 95.5971 29.178C95.6264 29.178 95.6558 29.178 95.6851 29.178C95.9491 29.1487 96.1031 29.0827 96.1471 28.98C96.1911 28.8773 96.2204 28.5473 96.2351 27.99C96.2351 27.902 96.2424 27.836 96.2571 27.792C96.2718 27.044 96.3084 26.56 96.3671 26.34C96.4404 26.1053 96.5944 25.9147 96.8291 25.768ZM88.0291 26.076C88.3224 25.988 88.8211 25.9733 89.5251 26.032C90.2291 26.076 90.7204 26.1713 90.9991 26.318C91.8058 26.7287 92.3558 27.418 92.6491 28.386C92.7371 28.7087 92.7958 28.9727 92.8251 29.178C92.8544 29.3687 92.8764 29.7573 92.8911 30.344C92.9058 31.1653 92.8838 31.7227 92.8251 32.016C92.7811 32.2947 92.6344 32.676 92.3851 33.16C92.2824 33.3507 92.0258 33.6073 91.6151 33.93C91.5271 33.9887 91.3731 34.0693 91.1531 34.172C90.9478 34.2747 90.8158 34.326 90.7571 34.326C90.6838 34.326 90.6251 34.348 90.5811 34.392C90.5371 34.436 90.2071 34.458 89.5911 34.458C88.9898 34.458 88.6158 34.4287 88.4691 34.37C87.9411 34.2087 87.5524 34.0693 87.3031 33.952C87.0684 33.82 86.8411 33.6367 86.6211 33.402C86.4451 33.2407 86.2764 33.0573 86.1151 32.852C85.9538 32.6467 85.8731 32.5147 85.8731 32.456C85.8731 32.4413 85.8291 32.3607 85.7411 32.214C85.6531 32.082 85.5871 31.9427 85.5431 31.796C85.5284 31.7667 85.5064 31.7153 85.4771 31.642C85.4478 31.554 85.4258 31.5027 85.4111 31.488C85.2791 31.136 85.2131 30.608 85.2131 29.904C85.2131 29.3613 85.2351 28.9727 85.2791 28.738C85.3231 28.5033 85.4331 28.1953 85.6091 27.814C85.7118 27.6233 85.8804 27.396 86.1151 27.132C86.3644 26.868 86.5698 26.6993 86.7311 26.626C87.2004 26.3913 87.5084 26.252 87.6551 26.208C87.6844 26.1933 87.7431 26.1713 87.8311 26.142C87.9338 26.1127 87.9998 26.0907 88.0291 26.076ZM89.5911 27.968C89.5324 27.9387 89.3711 27.9167 89.1071 27.902C88.8431 27.8727 88.6451 27.8653 88.5131 27.88C88.3664 27.8947 88.1611 27.9607 87.8971 28.078C87.5451 28.2393 87.3178 28.5693 87.2151 29.068C87.1124 29.5667 87.1418 30.102 87.3031 30.674C87.4791 31.246 87.7651 31.708 88.1611 32.06C88.3958 32.2947 88.7404 32.456 89.1951 32.544C89.6644 32.6173 90.0311 32.5953 90.2951 32.478C90.4418 32.4047 90.5884 32.2947 90.7351 32.148C90.8964 31.9867 90.9771 31.8767 90.9771 31.818C90.9771 31.7447 90.9918 31.686 91.0211 31.642C91.1091 31.554 91.1531 31.1727 91.1531 30.498C91.1531 29.8087 91.1091 29.3833 91.0211 29.222C90.9918 29.1487 90.9771 29.09 90.9771 29.046C90.9771 28.9727 90.8524 28.8333 90.6031 28.628C90.3684 28.408 90.1704 28.254 90.0091 28.166C89.9504 28.1367 89.8698 28.1 89.7671 28.056C89.6644 27.9973 89.6058 27.968 89.5911 27.968ZM113.426 29.442C113.675 29.31 113.947 29.2953 114.24 29.398C114.533 29.486 114.709 29.6473 114.768 29.882C114.783 29.9847 114.687 30.344 114.482 30.96C114.291 31.5613 114.093 32.082 113.888 32.522C113.771 32.7713 113.646 33.05 113.514 33.358C113.367 33.71 113.001 34.4507 112.414 35.58C111.842 36.7093 111.512 37.3107 111.424 37.384C111.233 37.5893 110.94 37.67 110.544 37.626C110.177 37.5967 109.891 37.5013 109.686 37.34C109.495 37.164 109.297 36.856 109.092 36.416C108.887 35.9613 108.586 35.184 108.19 34.084C107.897 33.292 107.684 32.7273 107.552 32.39C107.464 32.1847 107.369 31.9353 107.266 31.642C107.119 31.2607 107.024 31.004 106.98 30.872C106.687 30.08 106.87 29.6473 107.53 29.574C107.955 29.5153 108.3 29.6473 108.564 29.97C108.843 30.2927 109.151 30.916 109.488 31.84C109.605 32.1627 109.796 32.6393 110.06 33.27C110.339 33.9007 110.515 34.282 110.588 34.414C110.691 34.5753 110.779 34.6047 110.852 34.502C110.896 34.4287 110.984 34.2527 111.116 33.974C111.248 33.6367 111.527 33.0573 111.952 32.236C112.143 31.8693 112.355 31.3927 112.59 30.806C112.927 29.9993 113.206 29.5447 113.426 29.442ZM119.237 29.376C120 29.288 120.616 29.3027 121.085 29.42C121.555 29.5373 122.031 29.8013 122.515 30.212C123.571 31.092 123.909 32.0453 123.527 33.072C123.469 33.2333 123.351 33.4093 123.175 33.6C123.014 33.776 122.882 33.864 122.779 33.864C122.75 33.864 122.669 33.886 122.537 33.93C121.877 34.238 120.675 34.3773 118.929 34.348C118.548 34.348 118.313 34.3553 118.225 34.37C118.152 34.37 118.115 34.3993 118.115 34.458C118.086 34.5753 118.203 34.744 118.467 34.964C118.731 35.184 119.003 35.3453 119.281 35.448C119.443 35.5067 119.773 35.5287 120.271 35.514C120.77 35.4993 121.107 35.4553 121.283 35.382C122.149 35.0447 122.728 34.898 123.021 34.942C123.329 34.986 123.483 35.228 123.483 35.668C123.483 35.9173 123.447 36.108 123.373 36.24C123.3 36.3573 123.153 36.4967 122.933 36.658C122.757 36.7753 122.515 36.9147 122.207 37.076C121.914 37.2227 121.738 37.296 121.679 37.296C121.635 37.296 121.525 37.3327 121.349 37.406C120.895 37.626 120.381 37.7067 119.809 37.648C119.252 37.5893 118.717 37.45 118.203 37.23C117.705 37.01 117.257 36.702 116.861 36.306C116.48 35.8953 116.223 35.4627 116.091 35.008C115.974 34.524 115.901 34.216 115.871 34.084C115.857 33.952 115.864 33.7907 115.893 33.6C115.996 32.5293 116.37 31.5907 117.015 30.784C117.661 29.9627 118.401 29.4933 119.237 29.376ZM120.887 31.268C120.506 31.092 120.147 31.048 119.809 31.136C119.487 31.224 119.12 31.4587 118.709 31.84C118.284 32.2507 118.123 32.522 118.225 32.654C118.255 32.698 118.313 32.7053 118.401 32.676C118.519 32.6613 118.724 32.632 119.017 32.588C119.34 32.544 119.597 32.5073 119.787 32.478C119.963 32.434 120.257 32.39 120.667 32.346C121.078 32.2727 121.313 32.2067 121.371 32.148C121.503 32.0453 121.518 31.906 121.415 31.73C121.313 31.5393 121.137 31.3853 120.887 31.268ZM125.557 29.442C125.983 29.398 126.247 29.42 126.349 29.508C126.467 29.596 126.54 29.8527 126.569 30.278C126.584 30.5713 126.613 30.74 126.657 30.784C126.716 30.828 126.833 30.806 127.009 30.718C127.479 30.4687 128.043 30.3147 128.703 30.256C129.378 30.1827 129.899 30.2193 130.265 30.366C130.779 30.586 131.145 30.8867 131.365 31.268C131.585 31.6493 131.615 32.0453 131.453 32.456C131.248 32.9987 130.786 33.0867 130.067 32.72C129.07 32.2067 128.219 32.0967 127.515 32.39C127.251 32.5073 127.097 32.6173 127.053 32.72C127.024 32.808 127.009 33.094 127.009 33.578C126.995 34.2087 126.973 34.7367 126.943 35.162C126.929 35.5873 126.892 35.9687 126.833 36.306C126.789 36.6433 126.723 36.9 126.635 37.076C126.547 37.252 126.437 37.3987 126.305 37.516C126.188 37.6187 126.041 37.6627 125.865 37.648C125.704 37.6333 125.513 37.604 125.293 37.56C125.264 37.5453 125.227 37.538 125.183 37.538C124.993 37.4793 124.875 37.3253 124.831 37.076C124.802 36.812 124.787 35.9247 124.787 34.414C124.787 34.0767 124.787 33.8127 124.787 33.622C124.787 33.5487 124.787 33.4387 124.787 33.292C124.787 31.4 124.817 30.3 124.875 29.992C124.934 29.6693 125.139 29.486 125.491 29.442C125.521 29.442 125.543 29.442 125.557 29.442ZM133.552 34.59C133.933 34.3847 134.373 34.4727 134.872 34.854C135.136 35.0447 135.283 35.3527 135.312 35.778C135.341 36.1887 135.261 36.5773 135.07 36.944C134.894 37.3107 134.652 37.538 134.344 37.626C134.036 37.6993 133.699 37.6113 133.332 37.362C132.98 37.1127 132.775 36.8267 132.716 36.504C132.643 36.0933 132.679 35.7193 132.826 35.382C132.973 35.0447 133.215 34.7807 133.552 34.59Z" fill="#2F5388"/>
</svg>
