<svg width="57" height="69" viewBox="0 0 57 69" fill="none" xmlns="http://www.w3.org/2000/svg">
<path d="M36.5395 35.8513H20.3823V68.528H36.5395V35.8513Z" fill="#6D5427"/>
<path d="M1.85976 32.8519C2.83519 33.8377 4.1764 34.3742 5.47929 34.7644C5.88339 34.8828 6.31536 34.9699 6.76127 35.0501C6.60799 35.4228 6.49651 35.813 6.42683 36.1997C6.10634 37.9763 6.44078 39.8505 6.89714 41.575C7.74367 44.766 9.44718 48.1033 12.4257 49.772C14.2964 50.8206 16.2473 51.2073 18.3653 51.1724C19.4244 51.155 20.4904 51.2351 21.5459 51.1898C22.5701 51.148 23.4863 50.8589 24.4791 50.6499C26.3534 50.2562 28.2171 49.9984 29.9346 49.0753C30.5895 48.7234 31.3106 48.2705 31.8053 47.6853C32.1641 47.8211 32.5334 47.9396 32.8887 48.0929C33.6412 48.4168 34.3414 48.8453 35.1322 49.0857C36.7416 49.5769 38.6054 49.4097 40.2706 49.3783C41.9323 49.3505 43.5104 48.9707 44.977 48.1765C46.3147 47.4519 47.5514 46.3824 48.6174 45.3025C49.7217 44.1842 50.3871 42.9022 51.0873 41.5157C51.8642 39.9794 51.697 38.2167 51.4322 36.5724C51.2998 35.7538 51.1779 34.9386 51.0525 34.1199C51.0316 33.9841 51.0002 33.8482 50.9689 33.7158C50.9933 33.7054 51.0176 33.6949 51.0386 33.6879C51.5994 33.4998 52.1498 33.2943 52.6724 33.0121C53.8464 32.3816 54.8567 31.4689 55.644 30.3994C57.2813 28.1768 57.0932 25.4456 56.4417 22.8886C55.7624 20.2271 54.3271 17.8721 52.6585 15.7192C51.8433 14.6707 50.9933 13.5768 49.9795 12.7094C49.4291 12.2356 48.7916 11.7932 48.0914 11.5702C47.966 11.5319 47.8406 11.504 47.7117 11.4831C47.8092 9.91896 47.9068 8.43492 46.9557 6.96482C45.9176 5.35885 44.5415 4.16396 43.0052 3.0666C41.1171 1.71843 39.0583 1.56515 36.8252 2.01106C35.7732 2.22008 34.7629 2.57192 33.7422 2.89242C33.3242 3.0248 32.8155 3.10144 32.4045 3.27563C32.2825 3.11886 32.1327 2.93422 32.1223 2.92377C30.8612 1.54076 28.3286 0.816163 26.5624 0.412059C24.3189 -0.103522 22.0092 -0.138359 19.7553 0.324968C17.7418 0.739523 15.7561 1.5965 14.0909 2.80882C12.5128 3.95842 10.7361 5.25434 9.68407 6.92649C8.45085 8.89127 8.28363 11.3577 8.34633 13.6151C8.37769 14.7856 8.632 15.9422 9.18242 16.9838C9.25906 17.1301 9.34614 17.2764 9.43323 17.4228C9.23466 17.4715 9.03611 17.5273 8.83754 17.583C7.43014 17.9976 6.10286 18.6699 4.86268 19.4468C2.51121 20.9203 0.84602 23.1987 0.225929 25.9264C-0.317522 28.3092 0.079609 31.0508 1.85279 32.8449L1.85976 32.8519Z" fill="#30651F"/>
</svg>
