<svg width="48" height="80" viewBox="0 0 48 80" fill="none" xmlns="http://www.w3.org/2000/svg">
<path d="M14.5059 79.6884H27.3363L29.7051 64.2384L45.1029 57.2711L47.6704 47.374C47.6704 47.374 41.4381 37.1669 34.8401 34.7527L37.6514 27.1792C37.6514 27.1792 36.2684 16.7422 29.2418 16.0211C29.2418 16.0211 31.865 13.8508 31.1752 9.09906C30.482 4.34735 24.3856 -0.198821 18.9093 0.00671457C13.433 0.21225 9.19685 6.82772 10.437 14.0598C10.437 14.0598 2.58487 17.2613 2.37585 22.8421C2.16683 28.4229 8.88681 32.2445 8.88681 32.2445C8.88681 32.2445 0 44.6428 0 50.7392C0 56.8356 4.85622 61.0717 4.85622 61.0717L14.0531 63.9632L14.5094 79.6849L14.5059 79.6884Z" fill="#388737"/>
</svg>
