<svg width="34" height="28" viewBox="0 0 34 28" fill="none" xmlns="http://www.w3.org/2000/svg">
<path d="M34.4143 3.98908C30.3698 0.14312 24.0052 -0.748703 18.8947 1.26137C16.1008 -0.567553 12.1363 -0.487424 9.71172 2.02778C8.06744 3.73128 7.53793 5.95037 7.89326 8.07191C4.81023 7.62252 1.69236 8.17295 0.326771 11.5416C-0.502339 13.5865 0.319808 15.8858 1.96409 17.2688C3.2426 18.3452 4.79977 18.7633 6.40574 18.934C6.46844 22.9123 10.4712 25.7445 14.1047 24.25C17.7311 28.7126 23.7474 27.657 28.7255 25.4136C31.2268 24.2849 33.6514 22.557 34.1043 19.6516C34.3342 18.1745 33.9545 16.8089 33.1951 15.6628C34.8672 14.67 36.3478 13.3845 36.947 11.458C37.8214 8.65718 36.4384 5.91206 34.4178 3.99256L34.4143 3.98908Z" fill="#388737"/>
</svg>
