<svg width="55" height="37" viewBox="0 0 55 37" fill="none" xmlns="http://www.w3.org/2000/svg">
<path d="M51.8389 10.7625C46.9827 6.15714 39.3674 5.78437 32.9923 7.7387C32.9575 6.94095 32.8042 6.13623 32.5255 5.35241C31.3446 2.05687 28.1814 0.106027 24.7395 0.00500115C18.3192 -0.183116 13.1529 4.96224 11.9754 10.9681C11.5922 10.5152 11 10.1912 10.4252 10.1947C5.23106 10.2295 2.23512 14.5458 2.86218 18.7192C1.04719 19.5971 -0.318403 21.541 0.0647991 23.99C0.468903 26.5505 2.47549 28.3898 4.95585 28.9437C5.39479 29.0413 5.82677 29.0935 6.25874 29.1179C8.03541 29.7938 10.0246 29.6196 11.8848 28.9542C12.6652 31.0583 14.4175 32.7514 16.8073 33.361C18.9602 33.9114 21.0747 33.4133 22.8827 32.3229C23.7014 34.0856 25.2551 35.5174 27.3906 36.1479C31.2993 37.301 34.9258 35.4756 37.4793 32.6608C40.2976 35.9389 44.3072 38.6178 48.4563 35.7229C52.3649 32.9952 51.6961 28.5327 49.9299 24.7843C51.7588 24.1781 53.3404 22.8473 54.2043 21.0045C55.8312 17.5348 54.5283 13.316 51.8354 10.766L51.8389 10.7625Z" fill="#589549"/>
</svg>
