<svg width="52" height="77" viewBox="0 0 52 77" fill="none" xmlns="http://www.w3.org/2000/svg">
<path d="M31.8384 52.6072H19.6631V76.5399H31.8384V52.6072Z" fill="#6D5427"/>
<path d="M13.0724 5.68181C17.4652 1.34814 22.8614 -0.21952 28.9753 0.0243363C41.1611 0.508565 44.3626 11.3567 40.2066 21.7136C43.7425 22.48 47.4735 24.4587 49.7378 27.5243C51.0721 29.3323 51.4379 31.4539 51.4379 33.68C51.4379 37.5259 49.2989 38.7417 46.5782 40.7413C47.6512 45.5662 46.5851 52.0911 42.6834 55.3483C39.2381 58.2258 33.9952 59.0445 29.7835 57.7067C24.5266 56.0346 20.7468 59.7203 15.3785 59.5984C12.2955 59.5287 9.55386 58.6404 7.711 56.0555C5.37695 52.7843 5.55812 49.0011 7.66573 45.7891C6.50916 46.6705 4.53043 46.0504 3.23102 45.0645C-0.304888 42.3821 -0.503452 36.345 0.579966 32.506C1.3185 29.8793 2.38449 27.277 3.92427 25.0126C5.23761 23.0792 7.7563 21.6195 8.55406 19.4144C9.35182 17.2092 8.35898 14.3456 8.81534 11.9768C9.34834 9.21771 11.1459 7.58041 13.0689 5.68181H13.0724Z" fill="#589549"/>
</svg>
