<svg width="37" height="61" viewBox="0 0 37 61" fill="none" xmlns="http://www.w3.org/2000/svg">
<path d="M11.106 61H20.9291L22.7416 49.173L34.5288 43.84L36.4929 36.262C36.4929 36.262 31.7218 28.4478 26.6698 26.6005L28.8229 20.8051C28.8229 20.8051 27.7638 12.8168 22.386 12.2624C22.386 12.2624 24.3949 10.6016 23.8653 6.96173C23.3333 3.32686 18.6666 -0.153865 14.4748 0.005254C10.2831 0.164373 7.04101 5.22634 7.98827 10.7632C7.98827 10.7632 1.97655 13.2146 1.81992 17.486C1.66329 21.7573 6.80233 24.6836 6.80233 24.6836C6.80233 24.6836 0 34.176 0 38.8427C0 43.5093 3.71692 46.7514 3.71692 46.7514L10.7554 48.9666L11.1035 61H11.106Z" fill="#388737"/>
<path d="M18.7041 8.6201C17.9036 7.51373 16.7972 7.00157 15.5938 6.82007C16.3298 6.08166 16.6977 5.14186 16.3323 3.95096C15.8947 2.52386 14.3582 2.09126 13.0504 2.60093C12.036 2.99625 11.1833 3.76698 10.5418 4.67445C10.5368 3.5457 10.3653 2.40452 9.84568 1.46224C9.18185 0.261389 7.77962 -0.43227 6.50915 0.365811C4.27403 1.77302 5.33814 4.21699 6.81247 6.26564C4.7489 5.92005 2.29747 6.43968 2.07123 8.45104C1.76791 11.1486 4.67431 12.163 7.04618 12.0362C6.96662 12.3345 6.88954 12.618 6.80999 12.8691C6.33263 14.3757 6.17102 16.2056 7.74481 17.1379C9.17937 17.9857 10.7009 16.9639 11.2579 15.5865C11.5786 14.7909 11.6606 13.8934 11.7825 13.0381C13.1971 14.2539 14.9947 15.0396 16.8792 14.4056C19.2536 13.605 20.1685 10.6364 18.7041 8.61762V8.6201Z" fill="#E6A1D6"/>
<path d="M10.2429 10.2584C11.1478 10.2584 11.8813 9.52487 11.8813 8.61999C11.8813 7.71512 11.1478 6.98157 10.2429 6.98157C9.33804 6.98157 8.60449 7.71512 8.60449 8.61999C8.60449 9.52487 9.33804 10.2584 10.2429 10.2584Z" fill="#FF5B1D"/>
</svg>
